<svg id="Layer_1" data-name="Layer 1" xmlns="http://www.w3.org/2000/svg" viewBox="0 0 288 288"><defs><style>.cls-1{fill:#aaa496;}.cls-2{fill:#fff5ee;}.cls-3{fill:#e3d6c5;}.cls-4{fill:#b7b1a7;}.cls-5{fill:#e8461e;}.cls-6{opacity:0.13;}.cls-7{opacity:0.07;}</style></defs><title>bookpics</title><polygon class="cls-1" points="184.65 46.16 187.49 38.31 202.79 34.96 206.89 45.43 201.65 49.62 197.32 52.67 191.76 57.12 188.93 52.42 184.65 46.16"/><polygon class="cls-2" points="114.41 120.71 122.14 87.75 112.82 73.2 110.25 53.43 112.82 52.67 119.19 58.43 164.5 54.03 180.41 58.43 161.77 67.67 157.83 86.69 163.51 112.99 144.53 124.81 114.41 120.71"/><polygon class="cls-3" points="114.41 72.98 125.04 67.67 158.4 70.82 155.22 77.83 144.53 85.25 127.82 80.65 114.41 72.98"/><polygon class="cls-2" points="95.26 234.37 105.09 232.71 160.41 254.38 206.47 229.98 180.71 219.97 167.83 195.12 178.29 161.18 165.22 123.25 134.99 114.35 114.41 120.71 106 181.33 88.73 229.07 95.26 234.37"/><polygon class="cls-3" points="145.1 13.19 145.1 41.04 121.67 49.22 114.41 34.34 125.32 37.97 127.71 24.33 136.58 33.65 145.1 13.19"/><polygon points="122.13 50.66 126.01 61.61 145.67 70.25 146.24 60.82 155.22 58.54 145.67 51.5 145.1 43.2 122.13 50.66"/><polygon class="cls-4" points="114.41 72.98 144.3 81.28 158.4 70.82 158.4 80.59 145.1 90.48 120.89 84.23 114.41 72.98"/><polygon class="cls-4" points="115.21 41.04 105.78 48.88 102.71 60.36 112.82 73.2 115.21 41.04"/><polygon class="cls-4" points="123.33 88.34 145.94 93.55 158.4 84.57 165.56 100.6 162.83 104.58 166.92 111.62 130.67 112.99 123.33 88.34"/><polygon class="cls-3" points="134.99 114.35 163.51 112.99 165.56 125.26 152.49 131.97 136.41 128.78 134.99 114.35"/><polygon class="cls-4" points="136.41 130.49 153.17 134.13 166.13 126.74 181.36 140.26 186.02 153.68 175.71 172.55 156.28 170.85 151.33 175.16 126.73 168.23 120.09 159.06 119.19 144.24 136.41 130.49"/><polygon class="cls-3" points="125.42 171.7 147.32 177.72 118.15 248.77 110.8 244.68 125.42 171.7"/><polygon class="cls-3" points="155.39 174.3 124.44 248.77 130.5 249.83 173.44 175.72 155.39 174.3"/><polygon class="cls-4" points="118.88 84.19 108.43 80.65 101.61 87.68 100.09 100.1 109.49 108.74 118.28 107.53 125.55 103.44 118.88 84.19"/><polygon class="cls-4" points="160.41 73.2 160.41 81.31 166.92 98.74 176.32 98.74 178.08 85.63 177.48 73.85 168.29 71.77 160.41 73.2"/><polygon class="cls-3" points="108.96 114.12 111.23 109.92 124.98 106.51 128.78 108.74 126.92 114.12 114.41 117.3 108.96 114.12"/><polygon class="cls-3" points="180.33 80.14 184.77 77.07 187.49 81.96 186.7 93.78 181.93 97.87 179.35 93.66 180.33 80.14"/><polygon points="115.21 118.33 120.87 130.9 134.87 125.49 134.19 117.3 127.55 118.29 126.57 115.6 115.21 118.33"/><polygon points="188.63 81.84 194.77 81.84 201.25 53.43 210.34 53.43 215.79 47.06 213.98 59 205.57 60.25 203.86 92.98 187.49 93.55 188.63 81.84"/><polygon class="cls-4" points="101.8 242.56 118.39 252.9 108.84 267.79 82.82 284.5 72.13 279.38 82.59 279.95 105.09 265.86 101.8 242.56"/><polygon class="cls-4" points="122.94 250.89 138.62 255.06 122.25 267.22 149.76 272.9 157.38 270.63 150.33 276.54 117.59 270.4 122.94 250.89"/><polygon class="cls-4" points="114.41 120.71 119.19 130.9 115.21 188.23 98.5 222.1 98.5 258.69 77.59 238.92 74.63 189.7 106.23 148.9 114.41 120.71"/><path class="cls-3" d="M209.32,32.29l-17.9,1.48-3.92,4.55,5.23,4.09L189,47.29l-4.32-1.14v2.5l2.84,3,1,9.09,9.66-.8,2-9.43,8.87,1.25,6.71-9.89ZM190.56,54.57l1.25-5.34,2.73,4.55Zm11.59-6h-5.8l-1.82-5.34L201,38.65l4.55,4.55Z"/><polygon class="cls-5" points="153.28 26.91 162.07 23.42 169.88 23.42 165.56 32.97 174.04 36.76 169.88 42.22 162.07 46.5 165.56 38.65 158.4 36.46 162.38 27.67 153.28 26.91"/><polygon class="cls-6" points="130.74 164.42 125.55 156.23 133.66 138.2 134.99 161.38 130.74 164.42"/><polygon class="cls-6" points="155.22 164.42 148.94 160.25 160.41 137.33 160.41 162.29 155.22 164.42"/><polygon class="cls-6" points="173.44 165.93 172.07 159.13 183.42 150.87 178.08 162.6 173.44 165.93"/><polygon class="cls-7" points="131.47 173.36 112.82 245.8 115.21 247.13 139.4 175.54 131.47 173.36"/><polygon class="cls-7" points="160.41 174.69 126.86 249.19 128.78 249.53 166.35 175.16 160.41 174.69"/></svg>