<!-- Generator: Adobe Illustrator 19.2.1, SVG Export Plug-In  -->
<svg version="1.1"
	 xmlns="http://www.w3.org/2000/svg" xmlns:xlink="http://www.w3.org/1999/xlink" xmlns:a="http://ns.adobe.com/AdobeSVGViewerExtensions/3.0/"
	 x="0px" y="0px" width="111.9px" height="164.8px" viewBox="0 0 111.9 164.8" style="enable-background:new 0 0 111.9 164.8;"
	 xml:space="preserve">
<style type="text/css">
	.st0{fill:#F15A24;}
	.st1{fill:#F7931E;}
	.st2{fill:#FCEE21;}
</style>
<defs>
</defs>
<g>
	<g>
		<path class="st0" d="M111.9,56.6c0,0-16.8,3.4-23.1,18.9c0.2-8.3-2.5-20.6-15.3-34.1c0,0-27.6-20.8-12.4-41.3
			c0,0-63.7,22.1-40.3,91.7c0,0-17.2-4.2-15.3-30.2c0,0-31.2,82.2,54.3,103.4c0,0,52.3-29.6,49.4-65.3
			C109.3,99.5,100.2,69.2,111.9,56.6z"/>
		<path class="st1" d="M76.2,117.3c0.1-4.7-1.4-11.6-8.6-19.3c0,0-15.6-11.7-7-23.3c0,0-36,12.5-22.8,51.7c0,0-9.7-2.4-8.6-17.1
			c0,0-11.2,29.6,8.9,47.6c6.3,3.1,13.5,5.7,21.8,7.8c0,0,10.1-5.7,21.1-15.1c4.3-5.5,7.3-12,6.7-18.8c0,0-5.1-17.1,1.5-24.2
			C89.2,106.6,79.7,108.5,76.2,117.3z"/>
		<path class="st2" d="M71.1,157.4c2.6-3.3,4.5-7.2,4.1-11.3c0,0-3-10,0.9-14.2c0,0-5.6,1.1-7.6,6.2c0.1-2.8-0.8-6.8-5.1-11.3
			c0,0-9.1-6.9-4.1-13.7c0,0-21.1,7.3-13.3,30.3c0,0-5.7-1.4-5.1-10c0,0-6,15.8,3.7,26.4c4.6,1.8,9.7,3.5,15.2,4.9
			C59.8,164.8,64.6,162.1,71.1,157.4z"/>
	</g>
</g>
</svg>
