<!-- Generator: Adobe Illustrator 19.2.1, SVG Export Plug-In  -->
<svg version="1.1"
	 xmlns="http://www.w3.org/2000/svg" xmlns:xlink="http://www.w3.org/1999/xlink" xmlns:a="http://ns.adobe.com/AdobeSVGViewerExtensions/3.0/"
	 x="0px" y="0px" width="113.6px" height="193.4px" viewBox="0 0 113.6 193.4" style="enable-background:new 0 0 113.6 193.4;"
	 xml:space="preserve">
<style type="text/css">
	.st0{fill:#F15A24;}
	.st1{fill:#F7931E;}
	.st2{fill:#FCEE21;}
</style>
<defs>
</defs>
<g>
	<g>
		<path class="st0" d="M113.1,104.7c0,0-3.7,16.6-9.3,22.8c0,0,7.4-21.8-19-48.8c0,0-13.3-8.1-2.9-34.5c0,0,10.4-20.2-10.7-44.2
			c0,0,2.9,29.9-28.6,46.8c0,0-30.6,19.5-19.8,56.6c0,0-11.4-9.4-10.1-27.3c0,0-49.1,74.4,46.2,117.4
			C58.8,193.4,119.6,175.2,113.1,104.7z"/>
		<path class="st1" d="M85,159.5c0,0,4.1-12.2-10.6-27.2c0,0-7.4-4.5-1.6-19.2c0,0,5.8-11.2-6-24.7c0,0,1.6,16.7-16,26.1
			c0,0-17.1,10.9-11.1,31.6c0,0-6.4-5.3-5.6-15.2c0,0-18.9,28.7,5.2,52.2c5.7,3.6,12.2,7.1,19.5,10.4c0,0,10.1-3,21.6-11.4
			c6.3-7.6,11.3-18.9,9.8-35.3C90.2,146.8,88.1,156.1,85,159.5z"/>
		<path class="st2" d="M72.6,187.1c3.9-4.8,6.9-11.9,6-22c0,0-1.3,5.8-3.3,8c0,0,2.6-7.7-6.7-17.1c0,0-4.7-2.9-1-12.1
			c0,0,3.7-7.1-3.8-15.5c0,0,1,10.5-10.1,16.4c0,0-10.7,6.9-7,19.9c0,0-4-3.3-3.5-9.6c0,0-11.1,16.9,1.9,31.3
			c4.2,2.4,8.8,4.7,13.7,7C58.8,193.4,64.7,191.7,72.6,187.1z"/>
	</g>
</g>
</svg>
