<!-- Generator: Adobe Illustrator 19.2.1, SVG Export Plug-In  -->
<svg version="1.1"
	 xmlns="http://www.w3.org/2000/svg" xmlns:xlink="http://www.w3.org/1999/xlink" xmlns:a="http://ns.adobe.com/AdobeSVGViewerExtensions/3.0/"
	 x="0px" y="0px" width="15.8px" height="53.8px" viewBox="0 0 15.8 53.8" style="enable-background:new 0 0 15.8 53.8;"
	 xml:space="preserve">
<style type="text/css">
	.st0{fill:#B7B7B7;}
</style>
<defs>
</defs>
<path class="st0" d="M15.4,10.9c1,2.3-0.5,13.8-1.7,14.7c-1.2,0.9,0,13.2,0,13.2s0.4,2.4-0.5,3.9c0,0,0.1,1.9,0.5,3.1
	c0,0,0.4,2.9-1.7,2.4c0,0-2.2,2.1-1.9,3.2c0,0-2.1,4.1-5,1.9v-1.3l-1.2,1.2c0,0-7.2,0.1-2.2-5.9c0,0,1-1.6,1.3-2.5
	c0,0,2.2-2.4,2.2-2.8c0,0-0.3-0.3,0.8-4.4c0,0,0.4-4.8-2.9-15.1c0,0-1.7-12.4,1.1-20.9C4.2,1.4,8.1-5.3,15.4,10.9z"/>
</svg>
