<!-- Generator: Adobe Illustrator 19.2.1, SVG Export Plug-In  -->
<svg version="1.1"
	 xmlns="http://www.w3.org/2000/svg" xmlns:xlink="http://www.w3.org/1999/xlink" xmlns:a="http://ns.adobe.com/AdobeSVGViewerExtensions/3.0/"
	 x="0px" y="0px" width="541px" height="215.7px" viewBox="0 0 541 215.7" style="enable-background:new 0 0 541 215.7;"
	 xml:space="preserve">
<style type="text/css">
	.st0{fill:#5B5953;}
	.st1{fill:#4C4C4D;}
	.st2{fill:#E44935;}
	.st3{fill:#433E3F;}
	.st4{fill:#292425;}
	.st5{fill:#E1452E;}
	.st6{fill:#413C3D;}
	.st7{fill:#423E3F;}
	.st8{fill:#D8C3B1;}
	.st9{fill:#F2E6D5;}
	.st10{fill:#D8C6B9;}
	.st11{fill:#95887F;}
	.st12{fill:#C9BBAE;}
	.st13{fill:#DBCCBF;}
	.st14{fill:#DE4836;}
	.st15{fill:#BDAA9F;}
	.st16{fill:#1A1617;}
	.st17{fill:#89181A;}
	.st18{fill:#921A20;}
	.st19{fill:#F04E27;}
	.st20{fill:#F5F2EE;}
	.st21{fill:#D6D3CF;}
	.st22{fill:#9E9B97;}
	.st23{fill:#66625F;}
	.st24{fill:#868380;}
	.st25{fill:#74716C;}
	.st26{fill:#CDC9C5;}
	.st27{fill:#5F5C57;}
	.st28{fill:#FEFEFA;}
	.st29{fill:#CAC7C1;}
	.st30{fill:#5B5B56;}
	.st31{fill:#958D8B;}
	.st32{fill:#AD8880;}
	.st33{fill:#0F100D;}
	.st34{fill:#FAFBF8;}
	.st35{fill:#D6CAC1;}
	.st36{fill:#8D8382;}
	.st37{fill:#8E8985;}
	.st38{fill:#43443E;}
	.st39{fill:#AFADA7;}
	.st40{fill:#3D3B3C;}
	.st41{fill:#C3BEBA;}
	.st42{fill:#C1BCB8;}
	.st43{fill:#E7E3DF;}
	.st44{fill:#787671;}
	.st45{fill:#C6BFBC;}
	.st46{fill:#A19C97;}
	.st47{fill:#797772;}
	.st48{fill:#4F4C49;}
	.st49{fill:#363630;}
	.st50{fill:#151612;}
	.st51{fill:#595853;}
	.st52{fill:#B6B5B1;}
	.st53{fill:#FFFFFC;}
	.st54{fill:#0D0E0B;}
	.st55{fill:#9A9792;}
	.st56{fill:#AD4B3D;}
	.st57{fill:#83827E;}
	.st58{fill:#908684;}
	.st59{fill:#CECCCF;}
	.st60{fill:#B3B1B2;}
	.st61{fill:#C4BAB8;}
	.st62{fill:#DDD8DE;}
	.st63{fill:#E9E3E7;}
	.st64{fill:#8484A0;}
	.st65{fill:#332E35;}
	.st66{fill:#7A768D;}
	.st67{fill:#C5C1CB;}
	.st68{fill:#C9C6D6;}
	.st69{fill:#C9C2D1;}
	.st70{fill:#656174;}
	.st71{fill:#373153;}
	.st72{fill:#BFB8C8;}
	.st73{fill:#675C6D;}
	.st74{fill:#C9C3C5;}
	.st75{fill:#A49BB0;}
	.st76{fill:#A78993;}
	.st77{fill:#5A546B;}
	.st78{fill:#85829A;}
	.st79{fill:#C1BBC5;}
	.st80{fill:#746981;}
	.st81{fill:#2F2E3E;}
	.st82{fill:#797898;}
	.st83{fill:#C8C3CA;}
	.st84{fill:#C0BEC3;}
	.st85{fill:#C7C4CA;}
	.st86{fill:#B4ACB4;}
	.st87{fill:#AEA195;}
	.st88{fill:#D0CFCC;}
	.st89{fill:#7C7D7F;}
	.st90{fill:#C9BBBA;}
	.st91{fill:#BDB5AE;}
	.st92{fill:#C0B7AE;}
	.st93{fill:#C0AD9F;}
	.st94{fill:#AF9B8E;}
	.st95{fill:#D9C6B8;}
	.st96{fill:#C5B8B8;}
	.st97{fill:#9B9C9B;}
	.st98{fill:#97989C;}
	.st99{fill:#100D0B;}
	.st100{fill:#1E1610;}
	.st101{fill:#615B57;}
	.st102{fill:#E4D7D1;}
	.st103{fill:#E6D4CB;}
	.st104{fill:#251D1F;}
	.st105{fill:#564E4E;}
	.st106{fill:#141314;}
	.st107{fill:#E9DCCC;}
	.st108{fill:#C6BDB4;}
	.st109{fill:#ECDBCC;}
	.st110{fill:#B1A59D;}
	.st111{fill:#847B73;}
	.st112{fill:#CFCFCE;}
	.st113{fill:#756469;}
	.st114{fill:#21111B;}
	.st115{fill:#E3D5CC;}
	.st116{fill:#A5A39E;}
	.st117{fill:#241D1C;}
	.st118{fill:#AFAEB2;}
	.st119{fill:#897C80;}
</style>
<defs>
</defs>
<g>
	<polygon class="st0" points="401.6,20.6 447.5,4.4 536.7,17.3 532.2,28 481.2,51.8 408.3,31.9 401.6,22.3 	"/>
	<path class="st1" d="M407.6,26.9c0,0,34.5-26.2,120.6-4.6l-2.1,7.6l-27.3,22.3l-58.5-16l-32.7-7V26.9z"/>
</g>
<g>
	<polygon class="st2" points="77.8,7.6 76.7,16 80.8,16.4 82.3,16 81.4,7.6 78.7,6.4 	"/>
	<path class="st3" d="M17.5,93.7c0,0-0.9,16.4-4.1,17.2L11,102l2.3-9.3L17.5,93.7"/>
	<path class="st4" d="M13.5,93.9l-0.3,13.1l0.1,3.9c0,0-5.9,0.2-6.4-0.3c0,0-1.4-1.2-0.4-16.5s0,0,0,0L13.5,93.9"/>
	<polygon class="st5" points="8.8,16.6 4.1,1.3 5.6,0.8 11.5,0.3 12.1,1.4 16.4,16 10.2,17.6 	"/>
	<path class="st6" d="M77.8,94.2c0,0-1.1,11.1,2.3,15l4.6-2.2l-1.6-13.4L77.8,94.2z"/>
	<polygon class="st7" points="81.5,94.6 81,109.7 87.5,109.1 88,108.3 88.5,93.7 	"/>
	<polygon class="st8" points="72.5,15.4 76,15.4 87.2,16 89.7,16.9 89.7,51.9 89.7,90.3 90.6,91.8 74.8,93.6 60.7,91 43.5,90.3 
		34.7,72.1 42.7,41.9 53.9,27.2 	"/>
	<polygon class="st9" points="41.7,16 53.9,16.7 64.7,16 72.5,15.4 67,51.5 56,55.9 40.7,66.5 36.3,87.8 55.2,89.5 61.1,89.2 
		73.3,92.5 89.7,91.8 90.6,91.8 90.6,93.4 81.5,94.6 57.4,93.2 53.3,92.7 47.7,93.4 38.9,93.1 27.5,93 12.1,56.2 16.3,23.1 	"/>
	<polygon class="st10" points="0,18 12.1,16 41.7,16 32,18.9 19.9,54.1 22.6,57.5 27.5,93 16.1,93.8 2.6,94.2 2.6,34.6 	"/>
	<polygon class="st11" points="77.8,18.9 74.8,21.2 76,42.4 75.3,44.5 76.3,51.9 77.8,39.8 	"/>
	<path class="st11" d="M19.9,58.4h-1.2l0.6,19.3l2.2-1.9l0.6-5.4L19.9,68c0,0,0-5.7,1.6-4.4S19.9,58.4,19.9,58.4z"/>
	<path class="st11" d="M50.2,18.9L48.1,18c0,0-1.1,13.5-1.7,2.3v32.9l1.3,0.4l12.4,0.4L50.2,18.9z"/>
	<path class="st10" d="M60.7,16.5l3.9-0.5l-0.8,2.8h3.6v4.3l-1.8,0.6l-1.6-3.8c0,0-2.8-1.1-2.1,2.8l3.2,2.8l-1.7,6L62,30.4l-0.4,2.4
		l1.8,1.3l-0.3,4.1c0,0-2.5,1.2,0.1,3.7l0.1,1.6l-1.9-1.9L60.7,40V16.5z"/>
	<polygon class="st11" points="36.3,18.9 33,23.4 33,52.9 34,54.1 	"/>
	<path class="st11" d="M2.6,19.7c0,0,2.2,23.4,1.7,31.7h6.8L2.6,19.7z"/>
	<polygon class="st12" points="2.6,19.7 17.4,18.9 17.4,54.1 5.2,54.1 5.2,28.7 	"/>
	<polygon class="st12" points="20.6,18.9 32,18.9 32,52.9 19.9,54.1 19.9,51.6 	"/>
	<polygon class="st12" points="36.3,18.9 34,24.3 34,54.1 45.7,54.1 45.7,18.9 	"/>
	<polygon class="st11" points="76.6,60.3 74.8,58.4 75.7,87.3 77.1,89.5 77.8,86.9 	"/>
	<path class="st11" d="M47.7,59.9l-1.3-1.5v29.2l0.7,1.2c0,0-1,2.4,0.7,3.1h2.7c0,0-5.1-1.3-0.6-4.2C54.2,84.8,47.7,59.9,47.7,59.9z
		"/>
	<polygon class="st12" points="50.2,18.9 47.7,24.5 47.7,52.8 53.5,50.7 60.1,54.1 60.1,18.9 	"/>
	<path class="st11" d="M63.7,59.7l-2.5-1.3V75L62,76c0,0-2.4,2.2-0.8,5.6l0.8,2l-1.3,3.2l0.5,2.3l5,0.4h2.7l1.4,2.9h3.1v-2.9
		L63.7,59.7z"/>
	<path class="st11" d="M34,58.4l-1-0.9c0,0-0.7,11.8,0.5,14l1.2-4.9L34,58.4z"/>
	<path class="st12" d="M67.6,18c0,0-0.3,5.5-4.9,6.5v29.6h12.1L74.3,18H67.6z"/>
	<path class="st13" d="M78.2,18c0,0-1.2,3.3-1.9,3.3c-0.7,0,0,30.6,0,30.6l5.2,1.3h6.2l0.9-3.2V18.9L78.2,18z"/>
	<path class="st13" d="M17.4,59.1c0,0-9.4,10.4-10.8,15.3L5.5,91.5h12l1.3-4.3L17.4,59.1z"/>
	<polygon class="st13" points="19.9,58.4 32,58.4 32,91 30.1,89 19.9,90.4 22.1,70.4 	"/>
	<polygon class="st13" points="34,58.4 45.1,58.4 45.7,88.4 34,89.5 	"/>
	<rect x="47.7" y="58.4" class="st13" width="12.4" height="29.4"/>
	<polygon class="st13" points="63.3,58.4 74.8,58.4 74.3,91 70.9,91.5 68.8,88.4 62,87.8 	"/>
	<polygon class="st13" points="76.6,59.1 89.7,59.1 89.7,87.8 89.7,90.3 77.6,91 	"/>
	<polyline class="st14" points="3.7,9.5 4.1,17.3 8.8,16.6 5.3,8.4 3.7,9.5 	"/>
	<polygon class="st11" points="20.6,18.9 18.7,23.1 18.7,54.1 19.9,54.1 	"/>
	<path class="st15" d="M4,59.1l2.9,2l1.9-2v2l-1.9,1.2v2.1c0,0,3.9,0.9,3.9,3l-2.5,3.7c0,0-0.9-4-2.7-2.8L5,65.8c0,0-1.3,6,2.3,7.3
		L6.8,87.8H5.7l-0.9-1L4,59.1z"/>
	<path class="st16" d="M81.5,94.6c0,0-3.2,10.5-1.4,14.6l0.9,0.5L81.5,94.6z"/>
	<path class="st17" d="M4.1,1.3L3.7,9.5c0,0,1.6-0.3,5.1,7.1L4.1,1.3z"/>
	<path class="st18" d="M80.4,2.3c0,0-2.1-0.5-2.5,5.3c0,0,2.9-2,3.3,8.1l2.6,0.3L82.3,2.9L80.4,2.3z"/>
	<path class="st19" d="M81.5,15.7c0,0,1.1-11.9-1.2-13.4l6.5,0.2c0,0,2.8,0.4,1.9,14L81.5,15.7z"/>
</g>
<g>
	<polygon class="st20" points="529.4,15.2 536.5,16.3 537.1,17.4 512.8,29.4 507.6,31.8 506,30.2 508.4,25.8 524.4,13.2 527.6,10 	
		"/>
	<polygon class="st21" points="529.4,17.8 514.6,24 526.1,17.3 527.6,17.4 	"/>
	<path class="st22" d="M508.6,27c0,0-3.8,4,2.5,3l-11.7,6.2l-3.9-0.6l-1.9-1.4l12.9-6.9L508.6,27z"/>
	<polygon class="st23" points="525,15.5 527.6,15.5 527.6,17.4 529.4,17.8 526.6,18.1 526.1,17.3 524.1,16.8 	"/>
	<polygon class="st24" points="459.8,13 520.1,20.3 493.6,34.2 426.8,25.5 451.5,12 	"/>
	<polygon class="st25" points="435.8,25.4 441.8,20 453.8,15.1 516.3,21.5 524.4,17.4 523.4,15.1 448.9,5.3 407,21.5 435.5,27.3 	
		"/>
	<polygon class="st26" points="525,16.7 527,16.7 527,17.4 494.9,34.4 489.9,33.6 490.8,33.1 495.3,33.1 	"/>
	<polygon class="st27" points="451.5,0.7 527.6,10 526.1,14.8 525,14.8 452.1,6.2 450.2,4.4 	"/>
	<path class="st28" d="M447.5,4.4c0,0,1.6-4.4,2.6-4.4c0.9,0,1,3.4,1,3.4l0.4,1.7v3.1v2.5l-1.4,1.5l-0.2,0.8l-0.6-1.5l-2.2-1.4v-3
		L447.5,4.4z"/>
	<polygon class="st29" points="478.4,28.1 479.2,28.7 475.5,30.9 475.4,29.7 	"/>
	<path class="st30" d="M474.1,26.4c0,0,3.6-1.3,4.3,1.6l-3,1.7L474.1,26.4z"/>
	<polygon class="st29" points="446.6,17.3 444.3,23.6 443.5,25.4 440.4,27.3 438.5,23.8 440.1,19.5 442.8,16.4 	"/>
	<path class="st31" d="M401.6,20.7l45.9-16.3l-0.4,2.8l-37.5,13.5c0,0-1.9,1.2,0.3,1.7h3.4l18.5,2l52.2,7.8l6.8,0.9l0.4,0.8l4.9,0.5
		l1.2,1.1l-6.9,2.1l-86.9-13l-1.9-2.3V20.7z"/>
	<polyline class="st32" points="433.7,14.2 437.5,12.7 475.5,18.3 475.5,19 472.7,20 433.7,14.2 	"/>
	<polyline class="st33" points="443.3,17.3 441.2,25.4 444.3,23.6 445.2,26.4 431.8,24.4 433.7,14.2 443.3,17.3 	"/>
	<polyline class="st33" points="463.8,20 465.4,29.4 475.5,30.9 474.5,20.7 463.8,20 	"/>
	<polygon class="st34" points="439.1,27.6 440.4,26.4 459.8,29.4 458.9,30.9 	"/>
	<polygon class="st35" points="433.7,15.9 433.7,14.2 472.7,20 475.5,18.3 477,19 473.2,21.5 	"/>
	<polygon class="st29" points="447.1,7.2 411.4,21.5 409.6,20.7 	"/>
	<path class="st36" d="M448.9,5.3c0,0-1-2.3,0-3.6S448.9,5.3,448.9,5.3z"/>
	<polygon class="st36" points="447.5,8.2 449.3,8.4 449.3,11.6 447.7,10.5 	"/>
	<polygon class="st36" points="450.1,12.2 450.1,9.2 451.5,8.2 451.5,10.7 	"/>
	<polygon class="st36" points="451.5,5.1 450.2,4.4 450.1,0 451.5,0.7 	"/>
	<polygon class="st37" points="451.5,5.1 525,14.8 525,16.7 524.4,17.4 451.5,7.2 	"/>
	<polygon class="st38" points="494,10.7 494.4,6.2 504.1,7.5 504.1,12 	"/>
	<polygon class="st38" points="520.6,14.2 522.3,10 527.6,10 525,14.8 	"/>
	<polygon class="st38" points="527.6,14.8 527.6,10 529.3,11.5 529.4,15.2 	"/>
	<path class="st39" d="M451.5,0.7c0,0,9.8,2.7,10.1,3.9l-10.1,0.5V0.7z"/>
</g>
<g>
	<path class="st40" d="M518.8,175.2c0,0,0.7,9.2-8.1,8.7c-8.7-0.5,4-10.6,4-10.6L518.8,175.2z"/>
	<polygon class="st41" points="535.7,21.7 526.1,167.4 492.8,203.3 471.6,128 488.5,55.1 500.7,36.2 536.7,17.3 	"/>
	<path class="st42" d="M501.2,38.8l34.4-17.1c0,0,1,0.8,1-4.3l-34.5,18.9L501.2,38.8z"/>
	<polygon class="st43" points="501.2,50 501.2,48.8 524.4,34.4 525.7,35.2 	"/>
	<polygon class="st44" points="502.2,36.2 492.8,203.3 499.4,36.2 	"/>
	<path class="st34" d="M491.1,36.2c0,0,4.2-1.4,7.3-0.6l2.9-0.8l32-16.7c0,0,7.3-2.2,1.5,0.7l-32.5,17.3h-1.5l-7.9,167.1h-2.8
		l-9.6-89L491.1,36.2z"/>
	<path class="st45" d="M401.6,25.5v-3.2c0,0,1,0.8,2.1,0.9s90.3,13.5,90.3,13.5l2.1,0.9l-0.5,2l-2,4.3l-86.9-9.4L401.6,25.5z"/>
	<polygon class="st46" points="507,51.3 522,42.5 524.4,38.7 522.3,37.1 501.2,50 502.7,51.8 	"/>
	<polygon class="st47" points="501.2,54 501.2,50 507,51.3 506.4,54.5 503.4,54.5 	"/>
	<polygon class="st48" points="522.3,37.1 527.1,34.4 541,36.3 541,37.1 537.8,39.5 522.8,38.1 	"/>
	<polygon class="st49" points="524.5,42.5 522,42.5 522.3,37.1 536.5,38.7 532.4,42.5 	"/>
	<polygon class="st49" points="504.7,54.4 507,51.3 515.3,51.6 513.1,53.8 505.7,55.1 	"/>
	<path class="st50" d="M535.7,38.9l-6.4-0.8c0,0-5.6,3-4.9,4.4l7.1,0.6L535.7,38.9z"/>
	<polygon class="st51" points="541,37.6 541,41.4 511.5,60.8 511.2,54.6 	"/>
	<path class="st44" d="M495.6,39.5c0,0,0.3-1.9-1.5-2.8l3.3,0.3l-1,24.8l-6.4,141.5l3.7-113.8L495.6,39.5z"/>
	<polygon class="st52" points="541,37.1 541,37.6 511.2,56.2 511.2,54.6 540,37.1 	"/>
	<path class="st53" d="M501.2,54c0,0,9.4,0.9,14.7-2.8c5.4-3.7,19.7-12.2,19.7-12.2l3.4-2.2l1.9,0.4l-29.5,18L501.2,54z"/>
	<path class="st54" d="M476.6,199.6c0,0-4.5,2.2-4.9,5.9c-0.4,3.6,2,6.5,2,6.5s2.1,3.5,7.9,3.7c5.7,0.1,7.5-6.1,7.5-6.1
		s0.4-3.4-1.5-4.7C485.7,203.5,476.6,199.6,476.6,199.6z"/>
	<path class="st55" d="M489.9,203.3l-0.7,1.1l-3,1.1l-5.4,5.2c0,0-3.9,2.2-4-2.3c-0.2-4.6,2.8-8.4,2.8-8.4L489.9,203.3z"/>
	<path class="st54" d="M413.9,181.5c0,0,2.8,3.3,1.4,7.7c-1.4,4.4-7.7,3.3-7.7,3.3s-5.1-1.5-6.4-8.9s8.8-4.7,8.8-4.7L413.9,181.5z"
		/>
	<path class="st55" d="M416.8,181.7c0,0-7-0.4-8.5,4.5c0,0-0.4,1.9-2.3,1.6c-2-0.3-1.2-4.6-1.2-4.6l1.2-5.9L416.8,181.7z"/>
	<polygon class="st0" points="400.8,25.4 496.1,39.6 489.9,203.3 488.1,203.3 403.4,177.9 	"/>
	<polygon class="st41" points="401.6,25.4 494.4,39.3 488.1,203.3 404.6,178.4 	"/>
	<path class="st56" d="M431.9,34.1c0,0-0.2-1.4,1.7-1.1c1.9,0.3,28.3,4.5,28.3,4.5s1.7,0.2,1.4,1.9c-0.3,1.7-0.1,3.7-0.1,3.7
		s-0.4,0.8-1.6,0.8c-1.2,0-28.9-4.8-28.9-4.8s-1.1-0.1-1-1C431.9,37.1,431.9,34.1,431.9,34.1z"/>
	<polygon class="st50" points="501.2,54 511.5,55.1 511.5,60.8 501.2,59.9 	"/>
	<path class="st57" d="M401.6,22.3v-1.7c0,0-1.4,0.5-1.2,1.5c0.2,1,0,3,0,3l0.4,0.2l0.8,0.1V22.3z"/>
</g>
<g>
	<path class="st58" d="M117.8,166.6c0,0-0.4,1.2,0.9,1.9c0,0,2.4,2.7,0.9,3.7l-63.2,34.4c0,0-1.7,0.9-3.5-0.8
		c-1.7-1.7,4.9-10.4,4.9-10.4L117.8,166.6z"/>
	<path class="st59" d="M4.2,175.8l17.2,9.6l28,18.3l3.6,2.2c0,0,3-6.4,5.6-6.2c0.3,0-8.5-6.5-8.5-6.5l-19.5-12.7l-19.2-5.3
		L4.2,175.8z"/>
	<polygon class="st60" points="12.9,175.8 13.9,180.5 4.2,175.8 3.5,169.2 10.4,167.4 	"/>
	<polygon class="st61" points="118.7,160.3 120.5,161.9 120.5,164.7 117.8,166.6 61.1,196 57.8,197.5 61.7,178.9 	"/>
	<path class="st62" d="M59.6,141.8l11.2-6.6l16.9,10l31,15.1l-3.4,2.3l-36.1,20.4l-4.2,3.9c0,0-3-2.9-5,1.3h-4.2l-6,5.3l-1.2,6.2
		l-5-0.7l-8.7-5.8l-7.8,0.7l-6.2-11l-18-7.1l-4.5-5.1l-4.9-1.5l0.7-3.2L59.6,141.8z"/>
	<path class="st63" d="M7.7,162.5l51.9-20.8c0,0,9.6-1.7,12.1,0l43.6,20.8c0,0-51.5,24.4-57.7,31.3c0,0-36.5-21.1-44.8-18.1L4.2,166
		L7.7,162.5z"/>
</g>
<g>
	<polygon class="st60" points="333.9,156.5 329.4,151.6 324.6,154.1 328.8,158.9 	"/>
	<g>
		<path class="st64" d="M244.2,198.6l-4.7-7.2c0,0-0.7-1.1,0.4-1.8c1.2-0.7,85.9-40,85.9-40s1.4-1,2.5,0.5l1.1,1.4c0,0,1.9-1,6,6.8
			c4,7.8-83.6,40.2-83.6,40.2H244.2z"/>
		<path class="st65" d="M252.4,204.7l2.8,0.7c0,0,11.4-3.2,12.3-4.4c0,0,3.8-2.2,12.1-2.2l17.8-0.4l8.7-4.1l-40.7,1.8L252.4,204.7z"
			/>
		<path class="st66" d="M250.2,195.2l-1.5-0.6l-4.5,2.6v1.4c0,0,2.6,6.1,8.2,6.1c5.6,0,13.3-4,13.3-4s9.1-4,24.4-2.5l9.7-1
			c0,0,5.9-1,10-6.3l12.1-15.1c0,0,3.9-4.3,7.4-5.3l5.6-4.2c0,0,5.8-2.3-0.9-9.7L250.2,195.2z"/>
		<path class="st67" d="M247.1,196.7l84.8-38.5c0,0,5,3.5,1.9,6.5c0,0-16.7,9.4-17.3,14c0,0-9.4,14.2-12.5,14.8c0,0-2.3,2.1-8.1,1.7
			c0,0-28.1-0.1-34.6,5.2C261.3,200.5,250.7,208.4,247.1,196.7z"/>
		<polygon class="st68" points="244.2,197.2 242.7,194.6 244.2,193.4 241.6,189.8 326.1,150.1 327.8,152.4 324.6,154.1 325.7,155.2 
					"/>
		<polygon class="st69" points="248.7,194.6 247.5,192.3 248.7,191.4 325.7,155.2 328.8,158.9 250.2,195.2 		"/>
	</g>
	<g>
		<path class="st70" d="M246,122.8l8.7,11l16.4,17.8l8.4,6.6c0,0,7.1,1.8,10.2-1.7l7-3.4l30-13.1l15.7-7.1c0,0,5.2-3.2,3.8-8.7
			c0,0,0-3.2-3.1-4.9L326,104.5l-28.2,2.1l-50.8,14.9l-0.2-0.6L246,122.8z"/>
		<polygon class="st71" points="289.3,154.7 330.4,135.5 340.9,129.3 287.8,151.2 		"/>
		<path class="st72" d="M247.1,121.5l8.2,10.1l10.9,12.8l11.2,10.9c0,0,6.9,3.8,13.3-1.5s36-18.7,36-18.7l13.6-5.6
			c0,0,9.2-2.9,2.8-9.1l-15.3-13.4L247.1,121.5z"/>
		<path class="st73" d="M246,122.8c0,0-0.3-2.1,1.1-2.9l13.1-5.2l54-23.8l2.7,2.5l9.1,11.1l6.2,7.3l8.9,9.2c0,0,5,5.5-0.8,8.6
			c-5.8,3.1-45.3,22.1-45.3,22.1l-6.1,3c0,0-6.2,2.1-11.7-3l-29-29.8C248.2,121.8,247.1,121.4,246,122.8z"/>
		<path class="st74" d="M260.1,115.6l-12,4.9l2.1,1.2l12,13.9l10,8.8l7.9,6.7c0,0,4.8,3.7,9.2,0.9l41.2-19.5l10.3-5.8
			c0,0,2.7-1.7-0.7-5.2c-3.5-3.5-14.1-15.1-14.1-15.1l-4.8-5.5l-3.8-5c0,0-2.2-3.2-3.6-3.2l-7.2,2.8L260.1,115.6z"/>
		<polygon class="st75" points="307.1,96.3 312.6,94 316,95.1 318.8,104.1 326.7,114.9 311.3,105.1 		"/>
		<polygon class="st76" points="260,120.4 255.5,117.7 263,114.7 264.9,117.3 		"/>
		<polygon class="st77" points="287,143.8 292.5,143.8 325,128.1 		"/>
		<path class="st78" d="M260.4,116.6l-0.4,3.8l15.9,17.8c0,0,5.1,7.3,13.4,5.2l37.4-16c0,0,6.6-3,4.9-8.8l-10.5-9.9l-6.8-1
			L260.4,116.6z"/>
		<path class="st79" d="M314.2,103.4l11.2,10.2l3.9,3.8c0,0,4,4.8-0.5,6.4l-37.3,17.7c0,0-4,1.3-5.6,0.2l-1.1,0l-3.3-2.2l-9.6-10
			l-9.2-10.4l-1.2-3.4l27.1-9.2L314.2,103.4z"/>
		<path class="st80" d="M278.6,131.6l-9.6-7.2l-3.9-4c0,0-1.1-2.2,1.9-1.7L278.6,131.6z"/>
		<path class="st81" d="M267,119.4c0,0-7.8-6.1-3.6-0.4l4.7,5.9l12.1,13.3c0,0,3.9,3.5,5.6,3.5c0,0-3,2-15-12.6
			c-12-14.6-10.4-12.6-10.4-12.6l-0.1-2.4l2.7,0.5l4,4L267,119.4z"/>
		<path class="st82" d="M260.4,116.6c0,0-1.2-2.6,0.5-3.3L305.6,94c0,0,0.9-0.2,1.8,0.9l18.2,22.7c0,0,1.7,5.3-1.5,7L295,138.9
			c0,0-7.1,1.5-11.2-1.9l-20.7-21.6l-2.1-0.9L260.4,116.6z"/>
		<path class="st83" d="M262.2,113.6L305.5,95l1.6,1.3l17,21.1c0,0,2.7,3.9-1.2,5.6l-27.8,14.1c0,0-4.7,2.2-9.4-1.9L262.2,113.6z"/>
	</g>
	<g>
		<path class="st70" d="M163.5,150.3l8.7,12l16.6,19.4l8.5,7.2c0,0,7.2,2,10.3-1.8l7.1-3.7l30.3-14.3l15.8-7.8c0,0,5.2-3.5,3.9-9.4
			c0,0,0-3.5-3.2-5.3l-17.2-16.3l-28.5,2.3l-51.3,16.3l-0.2-0.6L163.5,150.3z"/>
		<polygon class="st71" points="207.2,185.1 248.8,164.1 259.4,157.3 205.8,181.2 		"/>
		<path class="st72" d="M164.6,148.8l8.3,11l11,14l11.3,11.9c0,0,7,4.1,13.5-1.7c6.4-5.8,36.4-20.4,36.4-20.4l13.7-6.1
			c0,0,9.3-3.2,2.8-9.9l-15.4-14.6L164.6,148.8z"/>
		<path class="st73" d="M163.5,150.3c0,0-0.3-2.3,1.1-3.2l13.3-5.7l54.5-26l2.8,2.7l9.2,12.1l6.3,8l9,10c0,0,5,6-0.8,9.4
			c-5.8,3.4-45.7,24.1-45.7,24.1l-6.2,3.3c0,0-6.3,2.3-11.8-3.3l-29.3-32.5C165.7,149.2,164.6,148.7,163.5,150.3z"/>
		<path class="st74" d="M177.8,142.4l-12.1,5.3l2.1,1.4l12.1,15.2l10.1,9.6l7.9,7.3c0,0,4.8,4.1,9.3,1l41.7-21.3l10.4-6.4
			c0,0,2.8-1.9-0.7-5.7c-3.5-3.8-14.2-16.5-14.2-16.5l-4.8-6l-3.9-5.5c0,0-2.3-3.5-3.6-3.5l-7.3,3.1L177.8,142.4z"/>
		<polygon class="st75" points="225.2,121.3 230.8,118.8 234.2,120.1 237,129.8 245,141.7 229.5,131 		"/>
		<polygon class="st76" points="177.7,147.7 173,144.7 180.7,141.4 182.6,144.2 		"/>
		<polygon class="st77" points="204.9,173.1 210.5,173.1 243.3,156.1 		"/>
		<path class="st78" d="M178.1,143.5l-0.4,4.2l16,19.4c0,0,5.1,8,13.5,5.7l37.8-17.4c0,0,6.7-3.2,5-9.6L239.4,135l-6.9-1
			L178.1,143.5z"/>
		<path class="st79" d="M232.4,129.1l11.3,11.1l4,4.2c0,0,4,5.2-0.5,7l-37.7,19.3c0,0-4.1,1.4-5.7,0.2l-1.1,0l-3.4-2.4l-9.7-10.9
			l-9.3-11.4l-1.2-3.7l27.4-10.1L232.4,129.1z"/>
		<path class="st80" d="M196.5,159.8l-9.7-7.9l-3.9-4.3c0,0-1.1-2.4,1.9-1.8L196.5,159.8z"/>
		<path class="st81" d="M184.7,146.6c0,0-7.9-6.6-3.6-0.4l4.7,6.5l12.2,14.5c0,0,3.9,3.9,5.7,3.9c0,0-3.1,2.2-15.2-13.7
			c-12.1-15.9-10.5-13.7-10.5-13.7l-0.1-2.6l2.7,0.6l4,4.4L184.7,146.6z"/>
		<path class="st82" d="M178.1,143.5c0,0-1.2-2.8,0.5-3.6l45.1-21c0,0,0.9-0.2,1.8,1l18.4,24.8c0,0,1.7,5.8-1.5,7.6L213,167.8
			c0,0-7.2,1.7-11.3-2l-20.9-23.6l-2.1-1L178.1,143.5z"/>
		<path class="st83" d="M179.9,140.2l43.7-20.3l1.6,1.4l17.2,23c0,0,2.7,4.2-1.2,6.1l-28.1,15.3c0,0-4.7,2.4-9.5-2L179.9,140.2z"/>
	</g>
</g>
<path class="st84" d="M352.1,6.8L346.8,7c0,0-2.3,0.9-0.4,1.7l4.4,0.9l1.6,1.4l2.8,0.6l-0.9,2.8l1.1,1.2l0.2,1.5l0.7,3v2.1l-0.5,2.7
	l0.5,0.7l1.8,3.5L362,16l-4.9-8.3l-1.2-0.9H352.1z"/>
<path class="st85" d="M347.7,35.5l2-1.5h3.5l20.9,1.7c0,0,2.6,2.5,2,2.6c-0.6,0.1-4.1,1.7-4.1,1.7l0.2,1.3l-0.3,1.1h-9.6l-0.4-0.5
	l0.2-1l0.3-1.1c0,0-0.9-0.2-1-0.4c-0.1-0.2-5.2-0.7-5.2-0.7l-0.7-1.1l-1.6-1.2l-3.2-0.2l-1.4,0.6L347.7,35.5z"/>
<path class="st86" d="M379.8,48.5v-5.1l4-0.5l4.4,5.7c0,0,3.3,0.4,1,2.2l-3.8,0.9l-6.5-2.5L379.8,48.5z"/>
<path class="st87" d="M290.9,51.6l33.7,0.2l21.4-0.9l17.1-0.7l2.6,1.1l3-1.6h3.7h4l2.6-1.1l4.2,0.5l6.5,6.7l1,1.4v1.7
	c0,0-15.1,1-21,3.9L358.8,65l-10,3.3c0,0-11.9,5.6-20.9,1l-14.6-3.4l-10.8-2.7l-4.5-0.3l-7-1.1h-2.9l-4.3-0.9l-1.7-1.1v-1.2
	L290.9,51.6z"/>
<path class="st88" d="M342.3,38.4l-8.8,1.2l0-3.4l9.7,0.9"/>
<path class="st89" d="M341.7,7.6c0,0,0.9,1.6-1.7,1.6l-7.9,0.4L332,6.2L341.7,7.6"/>
<polygon class="st90" points="381,38.1 380.5,39.4 372.6,38.4 367.5,38.4 363.8,38.4 358.9,38.8 356.8,38.4 355.6,36.2 352.9,35.3 
	352.9,33.6 358.1,33 358.9,31.6 356.6,25 364.2,25 "/>
<polygon class="st91" points="194.7,65.7 195.7,66.3 195.2,71.2 193.3,71.8 191.9,67.4 "/>
<polygon class="st92" points="125,47.9 122.2,72.4 124.3,73.9 141.9,73.9 150.6,72.3 176.4,72.7 193.3,71.8 192.8,65.7 140.6,49.2 
	"/>
<polygon class="st93" points="181.9,5.4 194.7,3.3 194.7,67.1 126.3,68.1 127.6,47.9 128,8.9 "/>
<path class="st94" d="M124.3,7.4c0,0,2.6-2.6,4.9,0l41.6-2h11.1l10,6.1L172,13.9l-29.8,0.7L138,53.2l-11.9-3l-1.7-3.9v-2.5l1.4-31.7
	L124.3,7.4z"/>
<polygon class="st95" points="128,12.5 128,8.9 146.4,8.1 142.5,11.1 "/>
<polygon class="st95" points="128.6,16.8 129.1,14.1 147.4,12.5 145.2,16 "/>
<polygon class="st95" points="128,22.2 128,19.4 147.4,18.1 145.3,19.7 144.6,21.7 "/>
<polygon class="st95" points="128,25.1 147.4,23.2 142.2,25.5 145.2,26.1 143.6,27.9 128,28.3 "/>
<polygon class="st95" points="128,30.3 144.6,28.9 146.4,28.9 144.7,32.1 128,34 "/>
<path class="st95" d="M128,35.8l7.6-1l9.9-0.9h1.2l-3.1,4.1c0,0-14.5,0.9-14.2,0.9s-1.8-1.3-1.8-1.3L128,35.8z"/>
<polygon class="st95" points="128,42.8 128,41.2 141.1,39.8 146.8,39.4 145.5,41.1 144.1,43.2 128,43.9 "/>
<polygon class="st95" points="128,46.4 146.4,44.3 145.5,45.4 145,48 133.3,49.2 129.3,49.2 "/>
<polygon class="st95" points="128,51.3 147.4,50.3 144.4,52.2 142.4,54.5 128,54.5 "/>
<polygon class="st95" points="127.6,55.8 147.4,55.8 144.9,58.3 144,60.3 128,59.3 "/>
<polygon class="st95" points="127.1,62.8 146.4,61.8 144.9,63.3 144.6,65.7 127.1,65.7 "/>
<polygon class="st95" points="148.7,10.3 149.5,8.1 173,6.8 170.7,8.6 173,10.3 "/>
<path class="st95" d="M150.8,13l13.4-0.5l8.8-0.3l-0.4,3.2c0,0-16,1.2-16.2,1.4s-5.6,0-5.6,0l-2.1-1.7l2.1-1.1V13z"/>
<polygon class="st95" points="150,19 172,16.9 170.7,19 170.4,20.1 151,22.2 149.1,20.8 "/>
<polygon class="st95" points="150.6,24.3 171.2,22.9 171.2,26.7 150.6,27.4 "/>
<polygon class="st95" points="149.6,28.9 172,28.3 171.2,31.5 149.6,32.9 "/>
<path class="st95" d="M150.6,34.7C151,34.7,172,34,172,34l-1.3,3.8L149.9,39L150.6,34.7z"/>
<path class="st95" d="M149.6,40.6c0.3-0.2,22.4-1.2,22.4-1.2l-0.8,2.8l-22.1,1.1L149.6,40.6z"/>
<polygon class="st95" points="149.6,47.9 150.6,44.8 171.2,44.8 171.2,47.9 "/>
<polygon class="st95" points="149.6,54 151.5,50.7 170.1,50.7 170.8,54 "/>
<polygon class="st95" points="175.5,10.3 175.5,6.8 192.8,6.2 192.2,9 "/>
<polygon class="st95" points="174.8,15.3 175.5,13.1 191.9,11.4 191.9,14.6 "/>
<polygon class="st95" points="173.6,21.7 174.8,16.9 191.9,16.8 191,20.1 "/>
<path class="st95" d="M173.6,26.8c-0.1-0.4,0.7-3.6,0.7-3.6l17.1-1.5l0.5,3.4L173.6,26.8z"/>
<polygon class="st95" points="173.6,31 176.4,28.3 191.4,27.4 192.8,29.2 191.5,30.6 176.5,32.9 "/>
<polygon class="st95" points="174.3,37.5 174.8,34.6 193.3,32.9 192.8,36.5 "/>
<polygon class="st95" points="174.3,42.8 175.9,39.4 193.3,39 187.1,43.9 "/>
<polygon class="st95" points="174.8,47.9 174.8,45.4 192.3,44.8 191.9,48.6 "/>
<polygon class="st95" points="147.4,60.3 149.9,56.7 168.9,56.7 171.2,59.9 "/>
<polygon class="st95" points="148.7,65.7 149.9,62.6 169.1,62.6 169.7,64.1 "/>
<polygon class="st95" points="174.8,51.3 191.9,50.7 192.3,53.1 174.3,54 "/>
<path class="st95" d="M175.5,59.5c0,0-1.8-2.2-1.2-2.3c0.6-0.1,18.6-1.3,18.6-1.3v3.7H175.5z"/>
<polygon class="st95" points="175.5,62.6 192.8,61.8 191,65.3 "/>
<polygon class="st96" points="222.7,27.4 222.3,16.9 225.1,16.9 225.1,18.2 246.4,16.8 266.7,17.8 266.3,16.8 269.8,16.8 
	271.3,21.7 270.5,22.9 269.8,25.1 271.8,61.3 273.5,62.6 273.5,67.2 271.5,68.1 223.2,69 "/>
<path class="st97" d="M122.2,72.4h-7.6c0,0-2.2-1.7-0.9-3.5l9.3-2.4L122.2,72.4z"/>
<path class="st98" d="M124.3,7.4h-7.9c0,0-1.3,1.9-0.8,2.9l8.7,1.1l1.3,4.2l0.2-3.4L124.3,7.4z"/>
<path class="st99" d="M195.6,66.8l8.4,0.6c0,0,0.8,1.1,0.2,2.1l-0.8,0.6l-8.3,1.1L195.6,66.8z"/>
<path class="st99" d="M194.7,4h8.4c0,0,0.6,1.2-0.1,2.2c0,0-2.6,2.3-8.2,2.1V4z"/>
<polygon class="st100" points="185.9,72.2 186.4,74.1 191.4,74.3 191.7,71.9 "/>
<path class="st101" d="M181.7,72.4c0,0-0.1,2,1.4,3.1c0,0,4,0.5,5.3-1l0.2-0.3l-2.2-0.1l-0.5-1.9L181.7,72.4z"/>
<polygon class="st102" points="225.1,22.9 225.6,19.6 245.1,18.2 245.5,22.2 "/>
<polygon class="st102" points="225.1,28.3 225.5,25.1 245.5,23.6 245.5,28 "/>
<polygon class="st102" points="226.5,34 228.4,30.6 246.7,30.1 245.1,34 "/>
<polygon class="st102" points="226.5,37.9 225.1,35.7 246.4,35.7 245.5,39.8 "/>
<polygon class="st102" points="226.5,41.5 228.6,39 246.4,41.5 247.2,43.2 245.5,44.8 228.2,43.9 "/>
<polygon class="st102" points="226.5,48.6 228.6,46.4 245.5,46.7 246.7,48.6 245.9,49.6 227.7,49.6 "/>
<polygon class="st102" points="226.5,53.2 228.4,51.3 246.7,51.8 246.7,55.1 228.9,55.1 "/>
<polygon class="st102" points="226.5,59.5 227.3,56.7 246.7,57.3 247.2,60.9 246.7,61.8 226.9,60.9 "/>
<polygon class="st102" points="226.5,66.8 226.5,64.1 228.8,61.8 247.9,63.6 248.9,66.8 "/>
<polygon class="st102" points="249.6,20.5 250.8,19.3 266.7,18.7 266.7,17.8 269.6,17.8 270.5,20.5 268.5,22.9 267.2,21 "/>
<polygon class="st103" points="249.6,25.5 249.3,21.7 266.7,22.9 268.2,26 "/>
<path class="st103" d="M248.9,32.9c0.2-0.4,1.3-5.5,1.3-5.5l18.4,1l-0.4,4.5H248.9z"/>
<polygon class="st103" points="249.6,34 268.6,34.5 268.6,39 250.2,37.5 "/>
<polygon class="st103" points="249.6,41.5 251,38.6 268.6,40.8 269.8,41.9 268.6,43.9 251.4,43.2 "/>
<polygon class="st103" points="250,46.4 252,44.8 268.6,46.4 269.4,48.6 267.6,50.2 251.5,48.6 "/>
<polygon class="st103" points="249.6,53.6 252,50.2 268.2,51.3 269.8,52.4 268.2,55.1 "/>
<polygon class="st103" points="254,60.9 250,56.7 266,56.7 266.8,57.7 268.2,56.2 270.5,56.2 268.2,60.3 "/>
<polygon class="st103" points="252,66.2 250.7,61.8 268.2,61.8 269.8,62.9 272.6,62.6 272.6,66.8 "/>
<path class="st88" d="M222.3,22.9l-9.9-1.7c0,0-1.1-1.2,1-1.9l9-1.5L222.3,22.9z"/>
<path class="st89" d="M223.2,68.1l-9.9-2.4c0,0-0.9-2.4,1.8-2.4l8.1-0.3L223.2,68.1z"/>
<polygon class="st104" points="267.5,68.2 267.1,71.3 262.5,71.3 262.9,68.2 "/>
<polygon class="st105" points="262.5,70.8 258.9,70.5 258.9,68.3 262.9,68.2 "/>
<path class="st106" d="M273.5,62.9l6.9,0.5c0,0,2.1,0.8,0.8,2.7l-7.7,1.1V62.9z"/>
<path class="st106" d="M269.9,17.1h7.7l1.1,1.9c0,0-4.8,2.3-7.5,2.4L269.9,17.1z"/>
<polygon class="st96" points="333,33.2 333.6,40.1 330.8,40.2 330.8,39.3 310,40.7 290.1,40.5 290.5,41.2 287,41.2 285.5,38 
	286.3,37.2 286.9,35.7 284.4,11.8 282.7,11 282.7,8 284.6,7.3 332,5.7 "/>
<polygon class="st103" points="330.8,36.3 330.3,38.5 311.2,39.8 310.8,37.2 "/>
<polygon class="st103" points="330.6,29.9 330.3,33.9 310.8,36.2 310.6,30.8 "/>
<polygon class="st103" points="330.7,23.8 328.8,28.4 310.1,29.5 311.6,24.2 "/>
<polygon class="st103" points="329.1,19.8 330.6,22.4 308.4,22.9 309.2,17.9 "/>
<polygon class="st103" points="330.6,15.1 328.3,18.2 308.8,15.6 307.8,13.5 309.6,11.5 328.6,12.2 "/>
<polygon class="st103" points="329.8,7.2 329.8,9.4 327.5,11.5 307.9,10.4 306.8,7.7 "/>
<polygon class="st102" points="306.7,38.3 305.6,39.2 290.1,39.9 290.1,40.5 287.2,40.6 286.3,38.8 288.2,37.2 289.5,38.4 "/>
<polygon class="st102" points="306.3,32.9 306.7,36.9 289.7,36.1 288.1,32.9 "/>
<path class="st102" d="M306.6,25.3c-0.2,0.4-1.2,5.8-1.2,5.8l-18-0.6l0.3-4.8L306.6,25.3z"/>
<polygon class="st102" points="305.1,24.2 286.5,24 286.4,18.7 304.4,20.1 "/>
<polygon class="st102" points="304.9,15.2 303.7,18.7 286.4,16.3 285.1,15.1 286.3,12.5 303.2,13 "/>
<polygon class="st102" points="303.8,8.1 305.1,11.2 287.9,11.5 286.3,10.8 283.6,11.1 283.5,8.2 "/>
<polygon class="st104" points="288.5,7.2 288.9,5.1 293.4,5 293.1,7 "/>
<polygon class="st105" points="293.4,5.3 297,5.4 297,6.9 293.1,7 "/>
<path class="st106" d="M282.7,10.8l-6.8-0.2c0,0-2.1-0.5-0.8-1.8l7.5-0.9L282.7,10.8z"/>
<path class="st106" d="M286.9,41l-7.5,0.2l-1.1-1.2c0,0,4.6-1.7,7.3-1.8L286.9,41z"/>
<polygon class="st107" points="293.9,53.3 300.7,53.3 299,64.3 297,63.3 297,61.8 292.7,60.9 "/>
<polygon class="st107" points="303.5,54.1 309.4,54.1 309.4,63.9 305.1,62.5 306,56.2 "/>
<polygon class="st107" points="311.7,54.1 318.3,53.7 318.3,65.9 311.7,64.3 "/>
<polygon class="st107" points="320.8,53.7 326,53.7 326.5,58.8 320.8,57.2 "/>
<polygon class="st107" points="320.8,60.2 327.4,60.9 328.6,68.3 320.8,65.9 "/>
<polygon class="st107" points="330.6,69 329.7,60.2 337,60.5 337.8,69.3 "/>
<path class="st107" d="M329.7,56.2v-2.1l6-0.4l0.9,5.1l-2.2,0.2C334.3,59,331.9,56.3,329.7,56.2z"/>
<polygon class="st107" points="338.4,53.3 344.7,52.6 346.1,58.1 339.2,58.6 "/>
<path class="st108" d="M357.8,7.2l19.5-1.3l1.5,3.7l1.6,9.3l0.6,11.8v7.5l-0.9-0.2l-13.4-1.7l-4.5,1.7c0,0-2.4-0.4-2.3-0.6
	c0-0.1-1.3-2.6-1.3-2.6l0.3-3.1l-0.5-2.9l-1.5-3l-0.6-1.7l0.6-1.6l-0.2-2.5l-0.4-3.9l-1.1-1.8l-0.4-2.1l1.9-1.2l-0.1-1.4L357.8,7.2z
	"/>
<path class="st107" d="M337.8,60.9l4.4-1.1l2.7,0.3l1.2,1.6v6.5l-6.7,0.6l0.2-6.1C339.6,62.9,338.6,61.3,337.8,60.9z"/>
<polygon class="st107" points="348,57.3 346.8,52.6 353,51.8 355.1,54.5 354.4,57.3 "/>
<polygon class="st107" points="347.2,59.8 353.2,58.6 354.3,59.8 354.6,65 349.2,66.8 348.3,62.1 "/>
<polygon class="st107" points="354.6,51.7 356.7,51.2 363.8,54 365.2,61.6 359.9,63.2 358.3,55.8 360.5,55 "/>
<polygon class="st107" points="365.2,52.6 371.3,51.2 373.2,54.5 373.9,59.5 367.3,61.6 366.2,54.5 368,53.7 365.6,53.3 "/>
<path class="st107" d="M376.7,51.2l1.8,4.9c0,0-2,2-2.1,2.2s1.4,0.5,1.4,0.5l5.3-1.1l-2.9-0.9l2.1-0.9l-2.2-5.1L376.7,51.2z"/>
<polygon class="st109" points="292.2,51.8 291,60.9 287.6,60.9 282.1,58.6 283.2,52.2 288.1,51.2 "/>
<path class="st110" d="M390.6,57h-6.3c0,0-0.6-0.4-0.5-0.6c0.1-0.2,1.4-1.6,1.4-1.6l-0.2-2.2l-4.8-2.8c0,0,3.3-1.7,3.5-1.7
	c0.2,0,3.7,0.9,3.7,0.9l0.6,1.7l1.6,0L390.6,57z"/>
<polygon class="st111" points="355.1,33.6 358.4,33.6 358.9,34.3 359.7,34.7 360.5,36.9 361.3,37.3 365.1,37.2 363.8,38.4 
	360.3,38.4 358.6,37.9 358.3,36.5 357.9,35.7 355.1,35.3 "/>
<path class="st112" d="M283.2,52.2l0.4-6.8c0,0,3-1.2,5.4,0l1.9,6.3l-2.9-0.4L283.2,52.2z"/>
<polygon class="st113" points="282.7,54.8 276.8,54.6 276.8,52.6 283.1,52.6 "/>
<path class="st114" d="M282.5,55.8h-5.5c0,0-1.4,0.9-0.3,2.1l1.6,0.6l3.7,0.4v-0.4L282.5,55.8z"/>
<polygon class="st115" points="359.9,10.3 359.4,7.6 375.9,7.2 377,9.6 "/>
<polygon class="st115" points="359.9,14.9 359.4,11.5 375.5,11.5 377.9,12.3 377.9,14.9 373.9,15.2 "/>
<polygon class="st115" points="359.9,16.5 379.3,17.3 378.8,20.8 360.5,19.8 359.4,18.6 "/>
<path class="st115" d="M361.2,22.1l19,1.4v3.2L362.6,26C362.6,26,360.1,24,361.2,22.1z"/>
<path class="st115" d="M360.3,27.6l19.4,0.5l0.4,4L361.4,31C361.4,31,361.3,27.6,360.3,27.6z"/>
<path class="st115" d="M361.3,37.3l-1.4-3.2l1.4-1.3l18.8,0.9v2.2l-0.4,0.6l0.4,1.4C380.1,37.9,376.8,36.8,361.3,37.3z"/>
<polygon class="st111" points="356.6,15.6 355.1,14.3 356.6,13.1 358.6,14.4 "/>
<path class="st111" d="M354.8,18c0,0,1.6-1.1,1.8-1.2c0.1,0,3.4-0.3,3.4-0.3l-0.6,1.7l0.3,2.4l-2.8,0.8l0.8-1.9l-1.2-0.8L354.8,18z"
	/>
<polygon class="st111" points="356.3,23.5 357.3,22.9 358.6,23.5 359.4,23.2 359.9,24.4 359.4,25.2 359.1,27 357.8,27 357.1,24.4 
	"/>
<polygon class="st111" points="358.4,28.7 359.4,28.1 360.5,28.7 360.3,29.9 360.5,31.7 359.5,32.1 358.1,32.1 358.1,31.5 
	358.9,30.1 "/>
<path class="st116" d="M352.1,6.8c0,0,1.2-1.3,3-0.8l2.9,0.3l0.5,1.4l-1.3,0.5V10l-0.7,1H355l-0.2-1.6l0.4-1.2V7.4l-2.4-0.2
	L352.1,6.8z"/>
<polygon class="st117" points="372.6,38.4 371,39.8 371.2,40.8 371.8,41.3 371.5,41.7 367.3,41.7 366.9,41.1 367.9,40.5 368.1,39.4 
	366.9,38.4 "/>
<path class="st118" d="M348.1,35.7c0,0,1.3-2,2.7-0.4v0.9l-1,0.2L348.1,35.7z"/>
<polygon class="st119" points="362.8,40.4 363.5,39.4 366,39.1 367.1,40 365.9,40.6 366,41.7 362.7,41.7 362.7,41.3 363.4,40.7 "/>
</svg>
