<!-- Generator: Adobe Illustrator 19.2.1, SVG Export Plug-In  -->
<svg version="1.1"
	 xmlns="http://www.w3.org/2000/svg" xmlns:xlink="http://www.w3.org/1999/xlink" xmlns:a="http://ns.adobe.com/AdobeSVGViewerExtensions/3.0/"
	 x="0px" y="0px" width="91.3px" height="72.3px" viewBox="0 0 91.3 72.3" style="enable-background:new 0 0 91.3 72.3;"
	 xml:space="preserve">
<style type="text/css">
	.st0{fill:#BDB5AE;}
	.st1{fill:#C0B7AE;}
	.st2{fill:#C0AD9F;}
	.st3{fill:#AF9B8E;}
	.st4{fill:#D9C6B8;}
	.st5{fill:#9B9C9B;}
	.st6{fill:#97989C;}
	.st7{fill:#100D0B;}
	.st8{fill:#1E1610;}
	.st9{fill:#615B57;}
</style>
<defs>
</defs>
<polygon class="st0" points="81.5,62.4 82.5,63 82,67.8 80.1,68.5 78.7,64 "/>
<polygon class="st1" points="11.9,44.6 9,69.1 11.1,70.5 28.7,70.5 37.4,68.9 63.2,69.4 80.1,68.5 79.6,62.4 27.4,45.9 "/>
<polygon class="st2" points="68.7,2 81.5,0 81.5,63.7 13.2,64.7 14.5,44.6 14.8,5.6 "/>
<path class="st3" d="M11.1,4c0,0,2.6-2.6,4.9,0l41.6-2h11.1l10,6.1l-19.9,2.5L29,11.2l-4.2,38.7l-11.9-3L11.1,43v-2.5l1.4-31.7
	L11.1,4z"/>
<polygon class="st4" points="14.8,9.1 14.8,5.6 33.2,4.8 29.4,7.8 "/>
<polygon class="st4" points="15.4,13.5 15.9,10.8 34.2,9.1 32.1,12.7 "/>
<polygon class="st4" points="14.8,18.8 14.8,16.1 34.2,14.7 32.2,16.3 31.4,18.4 "/>
<polygon class="st4" points="14.8,21.7 34.2,19.9 29,22.1 32.1,22.8 30.4,24.5 14.8,25 "/>
<polygon class="st4" points="14.8,26.9 31.4,25.6 33.2,25.6 31.5,28.7 14.8,30.7 "/>
<path class="st4" d="M14.8,32.5l7.6-1l9.9-0.9h1.2l-3.1,4.1c0,0-14.5,0.9-14.2,0.9s-1.8-1.3-1.8-1.3L14.8,32.5z"/>
<polygon class="st4" points="14.8,39.4 14.8,37.9 27.9,36.5 33.6,36.1 32.3,37.7 30.9,39.9 14.8,40.6 "/>
<polygon class="st4" points="14.8,43.1 33.2,41 32.3,42 31.9,44.7 20.1,45.9 16.1,45.9 "/>
<polygon class="st4" points="14.8,48 34.2,46.9 31.2,48.8 29.2,51.1 14.8,51.1 "/>
<polygon class="st4" points="14.5,52.5 34.2,52.5 31.8,55 30.8,56.9 14.8,56 "/>
<polygon class="st4" points="13.9,59.4 33.2,58.5 31.8,60 31.4,62.4 13.9,62.4 "/>
<polygon class="st4" points="35.5,7 36.3,4.8 59.8,3.5 57.5,5.2 59.8,7 "/>
<path class="st4" d="M37.6,9.6L51,9.1l8.8-0.3L59.5,12c0,0-16,1.2-16.2,1.4c-0.3,0.3-5.6,0-5.6,0l-2.1-1.7l2.1-1.1V9.6z"/>
<polygon class="st4" points="36.9,15.7 58.8,13.6 57.5,15.7 57.2,16.8 37.8,18.8 35.9,17.5 "/>
<polygon class="st4" points="37.4,21 58,19.5 58,23.4 37.4,24 "/>
<polygon class="st4" points="36.4,25.6 58.8,25 58,28.1 36.4,29.5 "/>
<path class="st4" d="M37.4,31.3c0.4,0,21.3-0.7,21.3-0.7l-1.3,3.8l-20.7,1.2L37.4,31.3z"/>
<path class="st4" d="M36.4,37.3c0.3-0.2,22.4-1.2,22.4-1.2L58,38.8l-22.1,1.1L36.4,37.3z"/>
<polygon class="st4" points="36.4,44.6 37.4,41.4 58,41.4 58,44.6 "/>
<polygon class="st4" points="36.4,50.7 38.3,47.4 57,47.4 57.6,50.7 "/>
<polygon class="st4" points="62.3,7 62.3,3.5 79.6,2.9 79.1,5.7 "/>
<polygon class="st4" points="61.7,11.9 62.3,9.7 78.7,8.1 78.7,11.3 "/>
<polygon class="st4" points="60.4,18.4 61.7,13.6 78.7,13.5 77.8,16.8 "/>
<path class="st4" d="M60.4,23.5c-0.1-0.4,0.7-3.6,0.7-3.6l17.1-1.5l0.5,3.4L60.4,23.5z"/>
<polygon class="st4" points="60.4,27.7 63.2,25 78.2,24 79.6,25.9 78.3,27.3 63.3,29.5 "/>
<polygon class="st4" points="61.1,34.1 61.7,31.2 80.1,29.5 79.6,33.2 "/>
<polygon class="st4" points="61.1,39.4 62.7,36.1 80.1,35.7 73.9,40.6 "/>
<polygon class="st4" points="61.7,44.6 61.7,42.1 79.2,41.4 78.7,45.3 "/>
<polygon class="st4" points="34.2,56.9 36.8,53.4 55.7,53.4 58,56.5 "/>
<polygon class="st4" points="35.5,62.4 36.8,59.2 55.9,59.2 56.6,60.8 "/>
<polygon class="st4" points="61.7,48 78.7,47.4 79.2,49.8 61.1,50.7 "/>
<path class="st4" d="M62.3,56.1c0,0-1.8-2.2-1.2-2.3c0.6-0.1,18.6-1.3,18.6-1.3v3.7H62.3z"/>
<polygon class="st4" points="62.3,59.2 79.6,58.5 77.8,62 "/>
<path class="st5" d="M9,69.1H1.3c0,0-2.2-1.7-0.9-3.5l9.3-2.4L9,69.1z"/>
<path class="st6" d="M11.1,4H3.2C3.2,4,1.9,6,2.4,7l8.7,1.1l1.3,4.2l0.2-3.4L11.1,4z"/>
<path class="st7" d="M82.4,63.4l8.4,0.6c0,0,0.8,1.1,0.2,2.1l-0.8,0.6L82,67.8L82.4,63.4z"/>
<path class="st7" d="M81.5,0.7h8.4c0,0,0.6,1.2-0.1,2.2c0,0-2.6,2.3-8.2,2.1V0.7z"/>
<polygon class="st8" points="72.8,68.9 73.2,70.8 78.2,71 78.5,68.6 "/>
<path class="st9" d="M68.5,69.1c0,0-0.1,2,1.4,3.1c0,0,4,0.5,5.3-1l0.2-0.3l-2.2-0.1l-0.5-1.9L68.5,69.1z"/>
</svg>
