<!-- Generator: Adobe Illustrator 19.2.1, SVG Export Plug-In  -->
<svg version="1.1"
	 xmlns="http://www.w3.org/2000/svg" xmlns:xlink="http://www.w3.org/1999/xlink" xmlns:a="http://ns.adobe.com/AdobeSVGViewerExtensions/3.0/"
	 x="0px" y="0px" width="64.9px" height="36.2px" viewBox="0 0 64.9 36.2" style="enable-background:new 0 0 64.9 36.2;"
	 xml:space="preserve">
<style type="text/css">
	.st0{fill:#D0CFCC;}
	.st1{fill:#7C7D7F;}
	.st2{fill:#C5B8B8;}
	.st3{fill:#E6D4CB;}
	.st4{fill:#E4D7D1;}
	.st5{fill:#251D1F;}
	.st6{fill:#564E4E;}
	.st7{fill:#141314;}
</style>
<defs>
</defs>
<path class="st0" d="M64,33.4l-8.8,1.2l0-3.4l9.7,0.9"/>
<path class="st1" d="M63.4,2.6c0,0,0.9,1.6-1.7,1.6l-7.9,0.4l-0.1-3.4L63.4,2.6"/>
<polygon class="st2" points="54.7,28.2 55.3,35.1 52.5,35.2 52.5,34.3 31.7,35.7 11.8,35.5 12.2,36.2 8.7,36.2 7.2,33 8,32.2 
	8.6,30.7 6.1,6.8 4.5,6 4.4,2.9 6.4,2.3 53.7,0.7 "/>
<polygon class="st3" points="52.5,31.3 52,33.5 32.9,34.7 32.5,32.1 "/>
<polygon class="st3" points="52.3,24.9 52,28.9 32.5,31.2 32.3,25.8 "/>
<polygon class="st3" points="52.4,18.8 50.6,23.4 31.8,24.5 33.3,19.2 "/>
<polygon class="st3" points="50.9,14.8 52.3,17.4 30.1,17.9 30.9,12.9 "/>
<polygon class="st3" points="52.3,10.1 50,13.2 30.5,10.6 29.5,8.5 31.3,6.5 50.3,7.2 "/>
<polygon class="st3" points="51.5,2.2 51.5,4.4 49.2,6.5 29.6,5.4 28.5,2.7 "/>
<polygon class="st4" points="28.4,33.3 27.3,34.2 11.8,34.9 11.8,35.5 8.9,35.6 8,33.8 9.9,32.2 11.2,33.4 "/>
<polygon class="st4" points="28,27.9 28.4,31.9 11.4,31.1 9.8,27.8 "/>
<path class="st4" d="M28.3,20.3c-0.2,0.4-1.2,5.8-1.2,5.8l-18-0.6l0.3-4.8L28.3,20.3z"/>
<polygon class="st4" points="26.8,19.2 8.2,19 8.1,13.7 26.2,15.1 "/>
<polygon class="st4" points="26.7,10.1 25.4,13.7 8.1,11.3 6.8,10 8,7.5 24.9,8 "/>
<polygon class="st4" points="25.5,3.1 26.8,6.2 9.7,6.5 8,5.8 5.3,6.1 5.2,3.2 "/>
<polygon class="st5" points="10.2,2.2 10.6,0.1 15.1,0 14.8,2 "/>
<polygon class="st6" points="15.1,0.3 18.7,0.4 18.7,1.9 14.8,2 "/>
<path class="st7" d="M8.6,36l-7.5,0.2L0,35c0,0,4.6-1.7,7.3-1.8L8.6,36z"/>
</svg>
