<!-- Generator: Adobe Illustrator 19.2.1, SVG Export Plug-In  -->
<svg version="1.1"
	 xmlns="http://www.w3.org/2000/svg" xmlns:xlink="http://www.w3.org/1999/xlink" xmlns:a="http://ns.adobe.com/AdobeSVGViewerExtensions/3.0/"
	 x="0px" y="0px" width="233.2px" height="65px" viewBox="0 0 233.2 65" style="enable-background:new 0 0 233.2 65;"
	 xml:space="preserve">
<style type="text/css">
	.st0{fill:#F5F2EE;}
	.st1{fill:#D6D3CF;}
	.st2{fill:#9E9B97;}
	.st3{fill:#66625F;}
	.st4{fill:#868380;}
	.st5{fill:#74716C;}
	.st6{fill:#CDC9C5;}
	.st7{fill:#5F5C57;}
	.st8{fill:#FEFEFA;}
	.st9{fill:#CAC7C1;}
	.st10{fill:#5B5B56;}
	.st11{fill:#958D8B;}
	.st12{fill:#AD8880;}
	.st13{fill:#0F100D;}
	.st14{fill:#FAFBF8;}
	.st15{fill:#D6CAC1;}
	.st16{fill:#8D8382;}
	.st17{fill:#8E8985;}
	.st18{fill:#43443E;}
	.st19{fill:#AFADA7;}
</style>
<defs>
</defs>
<g>
	<polygon class="st0" points="220,26.2 232.2,28.2 233.2,30.1 191.4,50.9 182.5,55 179.7,52.3 183.9,44.7 211.3,22.9 216.9,17.2 	
		"/>
	<polygon class="st1" points="220,30.8 194.4,41.5 214.2,30 216.9,30.1 	"/>
	<path class="st2" d="M184.2,46.8c0,0-6.6,7,4.4,5.2l-20.2,10.8l-6.6-1.1l-3.3-2.4l22.3-12L184.2,46.8z"/>
	<polygon class="st3" points="212.4,26.7 216.9,26.7 216.9,30.1 220,30.8 215.1,31.4 214.2,30 210.8,29.1 	"/>
	<polygon class="st4" points="100.1,22.6 204,35.2 158.4,59.2 43.5,44.2 85.8,20.8 	"/>
	<polygon class="st5" points="58.8,43.9 69.2,34.7 89.8,26.1 197.3,37.3 211.3,30.1 209.6,26.1 81.3,9.2 9.2,37.3 58.3,47.2 	"/>
	<polygon class="st6" points="212.4,28.9 215.7,28.9 215.7,30.1 160.5,59.5 152,58.2 153.4,57.3 161.2,57.3 	"/>
	<polygon class="st7" points="85.8,1.2 216.9,17.2 214.2,25.6 212.4,25.6 87,10.7 83.7,7.6 	"/>
	<path class="st8" d="M79,7.6c0,0,2.8-7.6,4.4-7.6c1.6,0,1.7,5.9,1.7,5.9l0.6,2.9v5.3v4.4l-2.4,2.7l-0.4,1.4l-1-2.5l-3.8-2.4v-5.2
		L79,7.6z"/>
	<polygon class="st9" points="132.1,48.6 133.5,49.7 127.2,53.6 127,51.5 	"/>
	<path class="st10" d="M124.8,45.8c0,0,6.2-2.2,7.4,2.8l-5.1,2.9L124.8,45.8z"/>
	<polygon class="st9" points="77.5,30 73.4,40.9 72.1,43.9 66.8,47.2 63.5,41.2 66.3,33.8 71,28.3 	"/>
	<path class="st11" d="M0,35.8L79,7.6l-0.7,4.9L13.7,35.8c0,0-3.3,2,0.4,2.9h5.9l31.8,3.5l89.9,13.6l11.7,1.5l0.7,1.4l8.5,0.9
		l2.1,1.9L152.9,65L3.3,42.6L0,38.7V35.8z"/>
	<polyline class="st12" points="55.2,24.6 61.9,22 127.2,31.7 127.2,33 122.4,34.7 55.2,24.6 	"/>
	<polyline class="st13" points="71.8,30 68.1,43.9 73.4,40.9 75,45.8 51.9,42.2 55.2,24.6 71.8,30 	"/>
	<polyline class="st13" points="107,34.7 109.8,50.8 127.2,53.6 125.5,35.8 107,34.7 	"/>
	<polygon class="st14" points="64.6,47.8 66.8,45.8 100.1,51 98.6,53.6 	"/>
	<polygon class="st15" points="55.2,27.5 55.2,24.6 122.4,34.7 127.2,31.7 129.8,33 123.2,37.3 	"/>
	<polygon class="st9" points="78.3,12.5 16.9,37.3 13.7,35.8 	"/>
	<path class="st16" d="M81.3,9.2c0,0-1.7-4,0-6.3C83,0.6,81.3,9.2,81.3,9.2z"/>
	<polygon class="st16" points="79,14.1 82.1,14.5 82.1,20 79.4,18.2 	"/>
	<polygon class="st16" points="83.4,21.2 83.4,16 85.8,14.1 85.8,18.5 	"/>
	<polygon class="st16" points="85.8,8.8 83.7,7.6 83.4,0 85.8,1.2 	"/>
	<polygon class="st17" points="85.8,8.8 212.4,25.6 212.4,28.9 211.3,30.1 85.8,12.5 	"/>
	<polygon class="st18" points="159.1,18.5 159.7,10.7 176.4,13.1 176.4,20.8 	"/>
	<polygon class="st18" points="204.8,24.6 207.7,17.2 216.9,17.2 212.4,25.6 	"/>
	<polygon class="st18" points="216.9,25.6 216.9,17.2 219.7,19.8 220,26.2 	"/>
	<path class="st19" d="M85.8,1.2c0,0,16.8,4.7,17.4,6.8L85.8,8.8V1.2z"/>
</g>
</svg>
