<!-- Generator: Adobe Illustrator 19.2.1, SVG Export Plug-In  -->
<svg version="1.1"
	 xmlns="http://www.w3.org/2000/svg" xmlns:xlink="http://www.w3.org/1999/xlink" xmlns:a="http://ns.adobe.com/AdobeSVGViewerExtensions/3.0/"
	 x="0px" y="0px" width="117px" height="71.7px" viewBox="0 0 117 71.7" style="enable-background:new 0 0 117 71.7;"
	 xml:space="preserve">
<style type="text/css">
	.st0{fill:#908684;}
	.st1{fill:#CECCCF;}
	.st2{fill:#B3B1B2;}
	.st3{fill:#C4BAB8;}
	.st4{fill:#DDD8DE;}
	.st5{fill:#E9E3E7;}
</style>
<defs>
</defs>
<g>
	<path class="st0" d="M114.4,31.4c0,0-0.4,1.2,0.9,1.9c0,0,2.4,2.7,0.9,3.7L52.9,71.5c0,0-1.7,0.9-3.5-0.8
		c-1.7-1.7,4.9-10.4,4.9-10.4L114.4,31.4z"/>
	<path class="st1" d="M0.7,40.6l17.2,9.6l28,18.3l3.6,2.2c0,0,3-6.4,5.6-6.2c0.3,0-8.5-6.5-8.5-6.5L27.1,45.3L7.9,39.9L0.7,40.6z"/>
	<polygon class="st2" points="9.4,40.6 10.4,45.3 0.7,40.6 0,34 6.9,32.3 	"/>
	<polygon class="st3" points="115.2,25.1 117,26.7 117,29.5 114.4,31.4 57.6,60.8 54.4,62.3 58.3,43.7 	"/>
	<path class="st4" d="M56.1,6.6L67.3,0l16.9,10l31,15.1l-3.4,2.3L75.7,47.7l-4.2,3.9c0,0-3-2.9-5,1.3h-4.2l-6,5.3l-1.2,6.2l-5-0.7
		L41.4,58l-7.8,0.7l-6.2-11l-18-7.1l-4.5-5.1L0,34l0.7-3.2L56.1,6.6z"/>
	<path class="st5" d="M4.2,27.4L56.1,6.6c0,0,9.6-1.7,12.1,0l43.6,20.8c0,0-51.5,24.4-57.7,31.3c0,0-36.5-21.1-44.8-18.1l-8.7-9.8
		L4.2,27.4z"/>
</g>
</svg>
