<?xml version="1.0" encoding="utf-8"?>
<!-- Generator: Adobe Illustrator 19.2.1, SVG Export Plug-In . SVG Version: 6.00 Build 0)  -->
<svg version="1.1" id="Layer_1" xmlns="http://www.w3.org/2000/svg" xmlns:xlink="http://www.w3.org/1999/xlink" x="0px" y="0px"
	 viewBox="0 0 450 112" style="enable-background:new 0 0 450 112;" xml:space="preserve">
<style type="text/css">
	.st0{display:none;opacity:0.92;}
	.st1{display:inline;fill:#FFFFFF;stroke:#000000;stroke-miterlimit:10;}
	.st2{fill:#B09377;stroke:#000000;stroke-miterlimit:10;}
	.st3{fill:#664018;stroke:#000000;stroke-miterlimit:10;}
	.st4{fill:#B19377;stroke:#000000;stroke-miterlimit:10;}
	.st5{fill:#A0968D;stroke:#000000;stroke-miterlimit:10;}
	.st6{fill:#D8C365;stroke:#000000;stroke-miterlimit:10;}
	.st7{fill:#663F18;stroke:#000000;stroke-miterlimit:10;}
	.st8{fill:#FFFFFF;stroke:#000000;stroke-width:0.25;stroke-miterlimit:10;}
	.st9{fill:#040305;}
	.st10{fill:#FEDD85;}
	.st11{fill:#FDDD85;}
	.st12{fill:#FDFDFE;}
</style>
<g id="Layer_2" class="st0">
	<rect x="284" y="319.4" class="st1" width="108.3" height="1.8"/>
	<path class="st1" d="M299.5,306.5c-1.4-0.7-4.1-1.7-7.5-1.8c-3.7-0.1-6.6,1.1-8.1,1.8c0-38.1,0-76.1,0-114.2
		c0.4-0.5,3.1-3.7,7.8-3.7c4.6,0,7.4,3.3,7.8,3.7C299.5,230.4,299.5,268.4,299.5,306.5z"/>
	<path class="st1" d="M299.5,319.4H284V308c1.4-0.6,4.1-1.5,7.6-1.6c3.7,0,6.5,0.9,7.9,1.6C299.5,311.9,299.5,315.6,299.5,319.4z"/>
	<rect x="302.6" y="192.3" class="st1" width="87" height="114.2"/>
	<path class="st1" d="M389.6,306.5h-90v12.9h90c-0.7-1.6-2.1-5.2-1.2-9.5C388.7,308.6,389.1,307.4,389.6,306.5z"/>
	<polygon class="st1" points="392.3,306.5 299.5,306.5 299.5,192.3 392.3,192.3 392.3,267.1 	"/>
	<polygon class="st1" points="389.6,319.4 392.3,319.4 299.5,319.4 	"/>
	<rect x="299.5" y="306.5" class="st1" width="92.8" height="1.6"/>
	<path class="st1" d="M284,306.5v1.6V306.5z"/>
	<path class="st1" d="M285.5,307.5v11.9V307.5z"/>
</g>
<g id="Layer_4">
	<polygon class="st2" points="31.3,111.7 119.9,113.2 85.3,22.7 4.7,25.5 	"/>
	<path class="st3" d="M1.7,16.1c0-0.4-0.4-4.9,2.5-7.8c2.2-2.2,4.8-2,5.3-1.9C19.8,37,30,67.7,40.3,98.4c-1,0-2.4,0.1-3.7,0.8
		c-4.8,2.6-5.5,10-5.5,10.5C21.3,78.6,11.5,47.3,1.7,16.1z"/>
	<polygon class="st4" points="84.8,6.3 9.6,6.3 40.3,98.4 119.9,98.4 	"/>
	<path class="st5" d="M116.7,111.1c-12.7-0.2-25.5-0.3-38.2-0.4c-15.7-0.1-31.5-0.2-47.2-0.3c0-0.9,0-2.4,0.5-4.1
		c0.1-0.5,1-3.7,3.6-5.8c1.9-1.6,3.9-2,5-2c25.8,0,51.7,0,77.5,0C117.4,102.7,117.1,106.9,116.7,111.1z"/>
	<path class="st6" d="M3.5,22.1c0.1-0.7,0.4-3.7,2.6-5.9c2.5-2.5,5.4-2,5.9-1.9c8.4,25.2,16.8,50.3,25.2,75.5
		c-0.4-0.2-3.5-1.3-6.4,0.9c-2.5,1.9-3.8,5.5-3.3,9.2C19.5,73.9,11.5,48,3.5,22.1z"/>
	<path class="st7" d="M25.5,92.9c0-0.6,0.4-4.4,3.1-7c3-2.8,6.4-1.9,6.9-1.8c-7.3-21.7-14.6-43.4-21.9-65c-0.4-0.1-3.2-0.8-5.7,1.5
		c-2.5,2.4-2.6,6-2.6,6.4C12,49,18.8,71,25.5,92.9z"/>
	<path class="st8" d="M41.3,100.5h49.1H41.3z"/>
	<path class="st8" d="M68.1,102.9h41.6H68.1z"/>
	<path class="st8" d="M72.5,105.8H58.1H72.5z"/>
	<path class="st8" d="M83.8,104.8h31.3H83.8z"/>
	<path class="st8" d="M115.2,100.5h-8.5H115.2z"/>
	<path class="st8" d="M41.3,103.8h18.5H41.3z"/>
	<path class="st8" d="M70.6,108.1h21.2H70.6z"/>
	<path class="st4" d="M7.3,31.6c-0.1-0.5-0.4-3.4,1.9-6c2.2-2.4,5.2-2.6,5.7-2.6C21.3,41.8,27.7,60.5,34,79.3
		c-0.6-0.1-4.3-0.5-7.4,2.1c-2.6,2.1-3,4.9-3.1,5.5C18.2,68.5,12.8,50,7.3,31.6z"/>
</g>
<g id="Layer_1_1_">
	<g>
		<path d="M92,48.4c-1.2,1.3-2.8,2.5-4.9,3.6c-2,1.2-4.2,2.1-7.5,2.7c-0.2,0-0.3,0.5,0,0.5c0.6,0.1,2.6,0.3,4,0.5
			c4.7,0.8,8.3,3.4,8.3,7.6c0,7.4-7.8,12.9-15.5,15.3c-3.2,1-7,1.5-11.1,1.5c-5,0-10.7-0.7-15.2-2.6c-1.7-0.8-3.1-1.3-6-0.1
			c-1.4,0.5-3.6,2-6.3,2.8c-1.3,0.3-2.3-0.3-1.7-0.7c2.9-0.4,5.1-2,6.5-4.1c2.8-4,5.6-8,8.1-12.1l9.7-15c3.1-4.7,5.6-9.4,6.9-11.4
			c0.9-1.4,3.6-2.7,6-3.4c-7.8-0.3-23.5,0.9-26.2,5.2c-1.4,2.2-1.3,4.8,0.6,5.9c0.5,0.2-0.4,0.8-0.9,0.6c-1.2-0.6-3.4-3.4-3.8-4.8
			c-2.6-8.1,11.2-7.9,16.9-7.9c4.2,0,10.3-0.1,15.1-0.1c5.6-0.1,15.7-0.6,19.1,3.9C97,40.2,94.9,45.4,92,48.4z M84,34
			c-2.4-0.3-7.6-0.1-9.5,2c-5.2,5.6-9.5,13.9-13.4,20.2c-3.1,5.1-6.4,10.4-9.5,15.6c-1.3,2.3-0.4,3.8,1.9,5.3
			c5,3.1,13.3,2.1,18.6,0.4c7.4-2.4,14-7.8,14-15.3c0-7.2-11.3-6.5-17-5.5c-1.8,0.3-3.6,0.6-5.1,0.9c-0.9-0.3,1.7-1.9,2.8-2.6
			c0.3-0.3,1.4-0.9,1.9-0.9c9.9,0,16.6-0.7,20.2-9.3C91.2,39.9,89.9,34.7,84,34z"/>
	</g>
	<g>
		<path d="M128.2,70c-0.9,1.2-1.7,2.2-2.7,3.2c3.5,0,6.6-2.4,8.8-5.3c0.4-0.5,0.4,0.7,0.1,1.2c-2.2,3-5.5,5.6-9.6,5
			c-2.7,2.5-5.8,3.7-9.1,3.7c-1.6,0-3-0.4-3-2.5c0-3.3,2.1-7,4-9.6c1.6-2.2,3.7-4.2,6.1-5.7c1.5-0.9,4.6-2.4,6.5-2.4
			c1.5,0,2.9,0.7,2.9,2.8C132.1,63.8,130,67.4,128.2,70z M123.2,61c-1.6,1.7-3,3.5-4.1,5.5c-1.5,2.5-3.6,6.5-3,9.1
			c0.6,2.3,4.1,0.1,5.3-1.1c1.6-1.7,3-3.5,4.1-5.5c1.5-2.5,3.3-6.3,3-9.2C128.3,57.4,124.5,59.7,123.2,61z"/>
		<path d="M147.3,70c-0.9,1.2-1.7,2.2-2.7,3.2c3.5,0,6.6-2.4,8.8-5.3c0.4-0.5,0.4,0.7,0.1,1.2c-2.2,3-5.5,5.6-9.6,5
			c-2.7,2.5-5.8,3.7-9.1,3.7c-1.6,0-3-0.4-3-2.5c0-3.3,2.1-7,4-9.6c1.6-2.2,3.7-4.2,6.1-5.7c1.5-0.9,4.6-2.4,6.5-2.4
			c1.5,0,2.9,0.7,2.9,2.8C151.2,63.8,149.1,67.4,147.3,70z M142.3,61c-1.6,1.7-3,3.5-4.1,5.5c-1.5,2.5-3.6,6.5-3,9.1
			c0.6,2.3,4.1,0.1,5.3-1.1c1.6-1.7,3-3.5,4.1-5.5c1.5-2.5,3.3-6.3,3-9.2C147.4,57.4,143.5,59.7,142.3,61z"/>
		<path d="M184.5,38.4c-0.1,0-0.2,0-0.2-0.1c0-1.5-1.7-1.9-3-1.9c-1.7,0-3.5,0.4-5.1,1c-3.9,1.6-6.2,4.9-8.4,8.4
			c-4.3,6.7-8.6,17.6-11.2,24.7c1-1.4,2.1-2.7,3.1-3.9c-0.1-1,0.1-1.5,0.7-2.3c0.6-0.9,1.2-1.3,1.9-2.2l0.2,1.2
			c2.1-2.2,4-3.7,5.5-4.7c2.9-1.7,6.6-1.7,3.8,2.7c-0.5,0.7-0.4,0.9-0.7,1.2c-0.1,0.1-0.5,0-0.5-0.2c0-1.2-0.9-1.4-1.9-1.4
			c-1.8,0-4,1.4-6,3.6c0.6,3.6,1.9,8.9,3,10.5c0.5,0.8,1.5,0.9,2.1,0.9c2.7-0.1,7.8-6.6,9.5-8.8c0.1,0.2,0.2,0.5,0.1,0.7
			c-0.1,0.6-0.6,1.3-1,1.7c-1.9,2.4-4.2,5-6.6,6.9c-1.9,1.5-5.4,2.4-7,0.4c-1.2-1.7-2.4-6.9-2.9-9.2c-2.7,3.5-5,7.3-5.6,9.2
			c-0.4,0.9-4,1.6-3.5,0.3c4.4-9.9,7.9-18.4,13.7-28.6c4-7.3,10.9-14.9,17.5-14.9c1.4,0,3,0.8,3,2.4v2.1
			C184.9,38.3,184.7,38.4,184.5,38.4z"/>
		<path d="M214.1,39.5c-2.4,0.5-3.6,2.4-3.5,6.8c0,0,0.4,15.1,0.6,21.1v0.4l25-26.4c3.2-3.3,6.2-6.1,9.6-5.8c0.4,0-0.2,0.9-0.8,0.9
			c-2.5-0.1-4.5,2.2-6.2,5c-3.2,5.3-20.8,38.6-11.7,34.9c1.2-0.5,2.9-1.5,4.2-2.7c2.5-2.4,4.7-5.5,5-5.9c0.5-0.7,0.9,0.1,0.4,0.9
			c-1.2,1.4-5,7-9.1,8.8c-2.4,1.1-6,1-6.8-2.4c-0.9-4.3,3.5-12.3,5.5-16.4c1.2-2.6,3.2-6.9,5.7-11.1l-20.7,21.9
			c-0.1,0.8-0.6,1.5-1.9,2c-0.7,0.3-2.2,2-2.5,2.4c-0.1,0.2-0.9-0.1-0.8-0.3c1.2-1.6,1.9-3.7,1.9-6.6l0.1-1.7
			c0.4-8.1,0.4-19.2,0.4-19.2c0-2.3,0.7-4,1.7-5.3c-1.7,1.2-3.3,3-4.3,5.1c-2.9,6-7.3,20.2-14.2,27.5c-2.4,2.6-6.6,4.7-9.8,4.7
			c-3,0-6-1.7-7.3-5.1c-0.5-1.2-0.6-2.7-0.6-4c0-1.6,0.8-1,0.8-0.4c0,4.5,2.5,6.8,5.9,6.8c3.3,0,6.6-2.2,9.2-5.1
			c6.6-7.1,9.7-14.6,13.7-23.1c1.6-3.5,4-6.2,7.5-7.2l0.1-0.1h-4c-5.1,0-11.7,0.4-13.7,3.3c-1.4,2.1-0.3,5.3,1.7,6.2
			c0.5,0.2-0.4,0.9-0.9,0.6c-1.2-0.6-3.5-3.2-3.9-4.5c-2.6-7.5,11.2-7.3,16.9-7.3h7.8C215.7,38.4,214.4,39.5,214.1,39.5z"/>
		<path d="M257.4,69.4c-2.9,3.8-7.3,8.5-11.9,8.5c-1,0-1.7-0.3-1.7-1.4c0-1.9,1.8-5.3,2.8-6.9c-1.7,1.7-3.5,3.5-5.3,5
			c-1.9,1.6-4,3.2-6.6,3.2c-0.9,0-1.3-0.7-1.3-1.6c0-0.1,0-0.4,0.1-0.5c0.6-5.6,5.2-12.5,9.6-15.8c1.6-1.2,3.5-1.9,5.4-1.9h8.3
			c0.2,0,0.4,0.1,0.4,0.3c0,0.4-0.4,0.6-0.6,0.6c-1,0-2,1.6-2.5,2.4c-1.4,2.2-6.5,11.2-6.5,13.5c0,0.6,0.4,1,1,1
			c2.8,0,7.8-6.4,9.7-8.8C258.8,67.6,257.8,68.8,257.4,69.4z M248.9,58.9c-1.5,0-3.5,1.4-4.6,2.4c-2.2,2.1-7.1,10.1-7.1,13.1
			c0,0.4,0.1,0.9,0.6,0.9c2.9,0,12.8-12,12.8-15C250.5,59.2,249.8,58.9,248.9,58.9z"/>
		<path d="M288.8,38.4c-0.1,0-0.2,0-0.2-0.1c0-1.5-1.7-1.9-3-1.9c-1.7,0-3.5,0.4-5.1,1c-3.9,1.6-6.2,4.9-8.4,8.4
			c-4.3,6.7-8.6,17.6-11.2,24.7c1-1.4,2.1-2.7,3.1-3.9c-0.1-1,0.1-1.5,0.7-2.3c0.6-0.9,1.2-1.3,1.9-2.2l0.2,1.2
			c2.1-2.2,4-3.7,5.5-4.7c2.9-1.7,6.6-1.7,3.8,2.7c-0.5,0.7-0.4,0.9-0.7,1.2c-0.1,0.1-0.5,0-0.5-0.2c0-1.2-0.9-1.4-1.9-1.4
			c-1.8,0-4,1.4-6,3.6c0.6,3.6,1.9,8.9,3,10.5c0.5,0.8,1.5,0.9,2.1,0.9c2.7-0.1,7.8-6.6,9.5-8.8c0.1,0.2,0.2,0.5,0.1,0.7
			c-0.1,0.6-0.6,1.3-1,1.7c-1.9,2.4-4.2,5-6.6,6.9c-1.9,1.5-5.4,2.4-7,0.4c-1.2-1.7-2.4-6.9-2.9-9.2c-2.7,3.5-5,7.3-5.6,9.2
			c-0.4,0.9-4,1.6-3.5,0.3c4.4-9.9,7.9-18.4,13.7-28.6c4-7.3,10.9-14.9,17.5-14.9c1.4,0,3,0.8,3,2.4v2.1
			C289.2,38.3,288.9,38.4,288.8,38.4z"/>
		<path d="M299,69c-3,4-8.6,9.3-14.7,9.3c-8.9,0-4.5-8.4-2-12.5c2.2-3.5,7.4-8.1,11.8-8.1c3,0,3.5,2,3.2,4c-0.6,3.8-5,5.5-8.3,6.6
			c-1.4,0.4-3.5,0.9-5.3,0.9c-1.7,4.7-2.2,9.3,4.7,7c4.2-1.4,8.9-6.3,10.8-8.8C299.8,67.8,299.4,68.3,299,69z M284.4,67.7
			c1.2,0.1,2.9,0,4.5-0.5c6.3-1.9,6.8-8.2,4.1-8.2C288.8,59,285.8,64.5,284.4,67.7z"/>
		<path d="M317.6,64.6c-0.1,0.3-0.9,0.6-0.9,0.3c0.3-1.8,0.2-4.8-2-4.8c-1.5,0-4,2.3-6.1,4.8c-2.8,3.3-4.2,6.2-5.3,8.9l-1.5,4
			c-1.9,0.1-3.9,1.7-3.2,0.3c0.4-0.9,0.9-1.9,1.4-3.2c1.9-4.7,4.9-12.4,5.5-13.5c-2.1,2.2-5.6,6.5-6.9,8.2c-0.6,0.9-0.6-0.6-0.1-1.2
			c2.7-3.4,7.1-9.1,7.8-10.3c1-0.1,3.7-0.6,4.5-1.2c0.6-0.6,0.9,0.1,0.4,0.6c-0.9,0.9-3.2,5.3-5,8.8c1.9-3,6.8-8.7,10.2-8.7
			c1.2,0,2.1,0.4,2.6,1.8C319.6,61.4,318,63.6,317.6,64.6z"/>
	</g>
</g>
<g id="Quill">
	<g>
		<path class="st9" d="M358.5,40c-6.9,5.4-10.9,10.3-11.5,12.1l0.8,0.6c7.7-4.5,38.2-18.9,51.3-20.7c13.5-1.9,22.7-2,30.1-1.5
			c2.6,0.2,5.5-0.1,8.3-0.3c3.5-0.5,7.1-1.1,10.5-1.9l-8.2,0.5l5.8-2.6l-8.6,2.3l7.6-3.9c-6.9-4-16.1-4.4-16.1-4.4
			c-5.3,1.9-12.1,6.1-12.1,6.1c2.4-2.9,7.5-6.2,7.5-6.2c-1.6-0.2-8.4-0.2-8.4-0.2c-3.9,0.7-9.5,6-9.5,6c1.6-2.6,6.6-6,6.6-6
			c-9.6-0.1-20.2,4.3-20.2,4.3c-9.2,5.2-11.8,12.9-11.4,10.8c0.2-2,4.8-7,4.8-7c-12.6,3-16.4,6.2-16.4,6.2
			c-3.8,2.5-12.1,10.6-12.1,10.6c0.1-1.3,4.6-5.4,4.6-5.4c-4.9,3-7.5,7.4-7.5,7.4C353.9,45.9,358.5,40,358.5,40z"/>
		<path class="st9" d="M444,54.2c0,0-4.8-0.1-10.1-0.8c-8.5-1-16-2.5-16-2.5c-27.2-7.5-57.9,0.1-68.2,2.8l1.3,1.8
			c1.1,0.1,2.3,0.7,6.6,3.5c5.4,3.5,11.5,3.5,11.5,3.5s-6.6-2-7.8-4.4c-1.1-2.4-4.3-4.5-4.3-4.5s-0.1-1.6,4.8,3
			c4.8,4.7,19.3,7.6,19.3,7.6s-4.3-2-5.2-3.7c-0.9-1.7-3.8-5.5-3.8-5.5c2.6,2,3.8,4.7,8.6,7.3c4.8,2.5,4.5,2.4,4.5,2.4
			c5.1,3,12.7,0.2,12.7,0.2c-0.9-0.5-6-5.8-6.8-8.9c-0.7-3.2-4.6-6.7-4.6-6.7c4.5,2.6,4.4,4.1,5,5.1c0.8,0.9,2.6,4.3,9.7,8.4
			c7.2,4,11.9,3.2,11.9,3.2l-3.7-3.6c2.6,2.3,7.1,3.6,7.1,3.6c-1.9-1.4-4.4-4.1-4.4-4.1c3.5,2.7,6.3,3.6,6.3,3.6
			c5.6,0.8,11-2.2,11-2.2c-5.3-3.1-6.9-7.5-6.9-7.5c5,6,8.3,6.1,9.4,6.6s3.5-0.8,3.5-0.8c-3.8-2-6.5-5.5-6.5-5.5
			c3.5,3.3,8.5,4.7,8.5,4.7l2.7-2c-2.2-0.6-5-2.6-5-2.6l6.5,1.5C443.6,56.2,444,54.2,444,54.2z"/>
		<path class="st9" d="M330.7,60.6l-0.2-0.7l0.7-0.3c2.6-1,4.9-4,4.9-4l0.2-0.3l5.2-1.7l0.6,4l-5.5,3.3l-0.3-0.2
			c-1.6-0.9-4.6,0.2-4.8,0.2l-0.6,0.2L330.7,60.6z"/>
		<path class="st10" d="M336.6,56.1c0,0-2.3,3.1-5.3,4.3c0,0,3.3-1.2,5.3-0.2l4.6-2.7l-0.4-2.8L336.6,56.1z M337.6,58.2
			c-0.2,0.3-0.8,0.6-1,0.5c-0.3-0.1-0.4-0.5-0.1-0.9c0.2-0.3,0.8-0.6,1-0.5C337.8,57.4,337.9,57.9,337.6,58.2z"/>
		<path class="st9" d="M344.2,53l5.6-2.1l0,0c20-7.3,39.2-12,50.3-12.3c10.9-0.4,18.1,0.5,23.7,1.2c1.9,0.2,3.7,0.5,5.3,0.6
			c0.8,0.1,1.8,0.2,2.9,0.3c2.4,0.4,5.1,0.7,7.1,0.6l-0.2,1.3c-12,0.5-22.2-0.7-22.3-0.7c-19-1.6-42,2.5-68.4,12.4l-3.6,1.8
			L344.2,53z"/>
		<path class="st11" d="M416.9,41.4c0,0,10,1.2,22.2,0.7c-2.9,0.1-7.4-0.7-10.1-1c-7-0.7-14.6-2.4-29-1.9
			c-11,0.4-30.5,5.1-51.4,12.7l0,0l-3.6,1.3l0.3,1.6l2.8-1.5C359.4,49.4,389,38.7,416.9,41.4z"/>
		<path class="st9" d="M346.4,51l0.3-0.5c1.2-2,6.7-6.4,13.8-10.5l0.7,1c0.8-0.4,1.6-0.9,2.5-1.2l0.3,0.7c2.8-1.8,5.8-3.7,7.7-4.6
			c0.5-0.3,5-2.8,16.6-4l1.7-0.1c1.5-0.9,3.2-1.8,5-2.5l0,0l0,0c0.4-0.1,10.9-2.9,19.5-1.6l2,0.2l-0.2,0.1c0.2-0.1,0.4,0,0.5,0
			l0.1-0.1l0,0c0.3,0,6.2,1,7.6,1.3l1.7,0.5l-1.8,0.8c0,0-1,0.4-2.2,1.1c2-0.7,4.2-1.4,6.1-1.8h0.1h0.1c0.3,0.1,8.5,1.5,13.7,6.2
			l0.9,0.7l-2.9,1l2.1-0.3l0.1,1.4l-2.4,0.7l4.2,0.3l-0.3,1.4c-2.9,0.3-6.3,0.4-9.9,0.5c-3.1,0-5.7-0.3-7.7-0.7
			c-5.2-1-13.6-2.4-27.4-2.2c-12.2,0.1-43.2,10-51.1,13.4l-0.5,0.2l-1-1.1L346.4,51z"/>
		<path class="st12" d="M347.8,51.5c8.1-3.4,39.2-13.3,51.5-13.5c12.6-0.2,21,0.9,27.6,2.2c2.3,0.4,5,0.6,7.6,0.7
			c3.3,0,6.6-0.2,9.9-0.5l-7.5-0.6l5.8-1.8l-8.3,1.1l7.8-2.8c-5.2-4.6-13.5-6.2-13.5-6.2c-5.3,1.1-12.4,4.4-12.4,4.4
			c2.8-2.5,8.3-4.9,8.3-4.9c-1.5-0.3-7.6-1.2-7.6-1.2c-3.7,0.1-10,4.5-10,4.5c2-2.2,7.5-4.9,7.5-4.9c-8.6-1.3-19.2,1.7-19.2,1.7
			c-9.6,3.8-13.8,10.8-13.1,8.9s6-6.1,6-6.1c-12.2,1.3-16.3,3.9-16.3,3.9c-4,1.9-13.5,8.6-13.5,8.6c0.5-1.2,5.4-4.6,5.4-4.6
			c-5.2,2.2-8.6,6.1-8.6,6.1c-0.2-0.9,5.5-5.9,5.5-5.9c-7.5,4.3-12.5,8.5-13.4,10.1C347.2,50.8,347.8,51.5,347.8,51.5z"/>
		<path class="st9" d="M348.3,53.6l1.1-0.4c26.2-9.7,48.7-13.5,67.2-11.1c0,0,7.3,0.5,15.5,0.3c5.1,0,9.8-0.5,9.8-0.5l0.8-0.1
			l-0.1,0.8c0,0.1-0.4,2.2-2.6,3.6l-0.2,0.2l-1.4-0.1l1.5,0.2l-4,3.3h-0.3c0,0-0.3-0.1-0.8-0.1l0.6,0.3l-1.2,0.7
			c-0.4,0.2-2.7,1.6-4.1,1.2c-0.1,0-0.3-0.1-0.6-0.1c-0.6,0-1.2-0.2-2.2-0.4c0.3,0.2,0.6,0.3,0.9,0.4l1.2,0.5l-1.2,0.7
			c-0.2,0.2-5.6,3.5-11.2,3.5l0,0l0,0c0,0-0.5-0.1-1.3-0.3l-0.4,1c-0.1,0-1.1-0.2-2.2-0.5l0.7,0.5l-1.4,0.4c-0.2,0.1-5,1.5-12.2-1.4
			c-5.3-2.1-7.7-4.2-9-5.5c0.3,0.7,0.7,1.5,1.5,2.4c1.9,2.2,4.3,4.1,4.8,4.2l1.4,0.5l-1.6,0.8c-0.3,0.1-7.7,3.6-13,1.5l-0.3-0.3
			l-0.2,0.3c-0.1-0.1-0.6-0.2-4.3-1.6c-1.2-0.5-2.2-0.9-3-1.4c1.2,0.8,3.3,1.6,4.2,1.9l-0.5,1.3c-0.6,0-13.3-0.8-18.7-4.1l0,0
			c0.1,0.1,0.1,0.2,0.2,0.2c1.2,1.4,5.5,2.4,7.2,2.6l-0.3,1.4c-0.2,0.1-6.2,0.8-11.7-1.8c-4.2-2.1-5.3-2.4-6.3-2.3h-0.3L348.3,53.6
			L348.3,53.6z"/>
		<path class="st12" d="M438.1,47c-2.2-0.3-4.9-1.8-4.9-1.8l6.3,0.6c2-1.2,2.3-3.1,2.3-3.1s-4.7,0.6-9.9,0.5
			c-8.3,0.2-15.6-0.4-15.6-0.4c-26.7-3.4-56.6,7.3-66.8,11l1.2,1.5c1.1,0,2.2,0.3,6.5,2.4c5.4,2.5,11.4,1.8,11.4,1.8
			s-6.5-1.1-7.7-3.1s-4.2-3.6-4.2-3.6s-0.1-1.5,4.7,2.2c4.9,3.6,19,4.4,19,4.4s-4.2-1.3-5.2-2.7c-0.9-1.4-3.9-4.6-3.9-4.6
			c2.6,1.5,3.8,3.9,8.5,5.5c4.7,1.7,4.3,1.6,4.3,1.6c5.1,2.1,12.4-1.4,12.4-1.4c-0.9-0.3-6-4.5-6.7-7.3c-0.8-2.8-4.6-5.5-4.6-5.5
			c4.4,1.9,4.3,3.2,5,4c0.7,0.7,2.5,3.6,9.6,6.4c7.1,2.8,11.7,1.4,11.7,1.4L408,54c2.5,1.8,7,2.4,7,2.4c-2-1-4.3-3.1-4.3-3.1
			c3.4,2.1,6.2,2.5,6.2,2.5c5.5,0,10.7-3.4,10.7-3.4c-5.3-2.1-6.8-5.9-6.8-5.9c5,4.8,8.3,4.5,9.4,4.8c1.1,0.4,3.4-1.1,3.4-1.1
			c-3.7-1.5-6.5-4.2-6.5-4.2c3.5,2.6,8.4,3.2,8.4,3.2L438.1,47L438.1,47z"/>
		<polygon class="st9" points="341.2,53.5 344.4,52 345,56.5 341.9,57.9 		"/>
		<polygon class="st12" points="342,53.9 342.5,57 344.2,56.2 343.8,53.1 		"/>
	</g>
	<path class="st9" d="M321.2,60c-2.3,1.3-4.1,3-3.9,4.4c0.3,1.6,3.7,2.9,8.3,2.1c0.7-0.2,2-0.5,3.4-1.7c1.7-1.4,2.2-3.1,2.4-3.8
		c-0.3,0.3-2.2,2.1-5,2C323.3,62.8,321.4,60.2,321.2,60z"/>
</g>
</svg>
