<?xml version="1.0" encoding="utf-8"?>
<!-- Generator: Adobe Illustrator 19.2.1, SVG Export Plug-In . SVG Version: 6.00 Build 0)  -->
<svg version="1.1" id="Layer_1" xmlns="http://www.w3.org/2000/svg" xmlns:xlink="http://www.w3.org/1999/xlink" x="0px" y="0px"
	 viewBox="0 0 141 112" style="enable-background:new 0 0 141 112;" xml:space="preserve">
<style type="text/css">
	.st0{display:none;opacity:0.92;}
	.st1{display:inline;fill:#FFFFFF;stroke:#000000;stroke-miterlimit:10;}
	.st2{fill:#B09377;stroke:#000000;stroke-miterlimit:10;}
	.st3{fill:#664018;stroke:#000000;stroke-miterlimit:10;}
	.st4{fill:#B19377;stroke:#000000;stroke-miterlimit:10;}
	.st5{fill:#A0968D;stroke:#000000;stroke-miterlimit:10;}
	.st6{fill:#D8C365;stroke:#000000;stroke-miterlimit:10;}
	.st7{fill:#663F18;stroke:#000000;stroke-miterlimit:10;}
	.st8{fill:#FFFFFF;stroke:#000000;stroke-width:0.25;stroke-miterlimit:10;}
	.st9{fill:#040305;}
	.st10{fill:#FEDD85;}
	.st11{fill:#FDDD85;}
	.st12{fill:#FDFDFE;}
</style>
<g id="Layer_2" class="st0">
	<rect x="284" y="319.4" class="st1" width="108.3" height="1.8"/>
	<path class="st1" d="M299.5,306.5c-1.4-0.7-4.1-1.7-7.5-1.8c-3.7-0.1-6.6,1.1-8.1,1.8c0-38.1,0-76.1,0-114.2
		c0.4-0.5,3.1-3.7,7.8-3.7c4.6,0,7.4,3.3,7.8,3.7C299.5,230.4,299.5,268.4,299.5,306.5z"/>
	<path class="st1" d="M299.5,319.4H284V308c1.4-0.6,4.1-1.5,7.6-1.6c3.7,0,6.5,0.9,7.9,1.6C299.5,311.9,299.5,315.6,299.5,319.4z"/>
	<rect x="302.6" y="192.3" class="st1" width="87" height="114.2"/>
	<path class="st1" d="M389.6,306.5h-90v12.9h90c-0.7-1.6-2.1-5.2-1.2-9.5C388.7,308.6,389.1,307.4,389.6,306.5z"/>
	<polygon class="st1" points="392.3,306.5 299.5,306.5 299.5,192.3 392.3,192.3 392.3,267.1 	"/>
	<polygon class="st1" points="389.6,319.4 392.3,319.4 299.5,319.4 	"/>
	<rect x="299.5" y="306.5" class="st1" width="92.8" height="1.6"/>
	<path class="st1" d="M284,306.5v1.6V306.5z"/>
	<path class="st1" d="M285.5,307.5v11.9V307.5z"/>
</g>
<g id="Layer_4">
	<polygon class="st2" points="31.3,111.7 119.9,113.2 85.3,22.7 4.7,25.5 	"/>
	<path class="st3" d="M1.7,16.1c0-0.4-0.4-4.9,2.5-7.8c2.2-2.2,4.8-2,5.3-1.9C19.8,37,30,67.7,40.3,98.4c-1,0-2.4,0.1-3.7,0.8
		c-4.8,2.6-5.5,10-5.5,10.5C21.3,78.6,11.5,47.3,1.7,16.1z"/>
	<polygon class="st4" points="84.8,6.3 9.6,6.3 40.3,98.4 119.9,98.4 	"/>
	<path class="st5" d="M116.7,111.1c-12.7-0.2-25.5-0.3-38.2-0.4c-15.7-0.1-31.5-0.2-47.2-0.3c0-0.9,0-2.4,0.5-4.1
		c0.1-0.5,1-3.7,3.6-5.8c1.9-1.6,3.9-2,5-2c25.8,0,51.7,0,77.5,0C117.4,102.7,117.1,106.9,116.7,111.1z"/>
	<path class="st6" d="M3.5,22.1c0.1-0.7,0.4-3.7,2.6-5.9c2.5-2.5,5.4-2,5.9-1.9c8.4,25.2,16.8,50.3,25.2,75.5
		c-0.4-0.2-3.5-1.3-6.4,0.9c-2.5,1.9-3.8,5.5-3.3,9.2C19.5,73.9,11.5,48,3.5,22.1z"/>
	<path class="st7" d="M25.5,92.9c0-0.6,0.4-4.4,3.1-7c3-2.8,6.4-1.9,6.9-1.8c-7.3-21.7-14.6-43.4-21.9-65c-0.4-0.1-3.2-0.8-5.7,1.5
		c-2.5,2.4-2.6,6-2.6,6.4C12,49,18.8,71,25.5,92.9z"/>
	<path class="st8" d="M41.3,100.5h49.1H41.3z"/>
	<path class="st8" d="M68.1,102.9h41.6H68.1z"/>
	<path class="st8" d="M72.5,105.8H58.1H72.5z"/>
	<path class="st8" d="M83.8,104.8h31.3H83.8z"/>
	<path class="st8" d="M115.2,100.5h-8.5H115.2z"/>
	<path class="st8" d="M41.3,103.8h18.5H41.3z"/>
	<path class="st8" d="M70.6,108.1h21.2H70.6z"/>
	<path class="st4" d="M7.3,31.6c-0.1-0.5-0.4-3.4,1.9-6c2.2-2.4,5.2-2.6,5.7-2.6C21.3,41.8,27.7,60.5,34,79.3
		c-0.6-0.1-4.3-0.5-7.4,2.1c-2.6,2.1-3,4.9-3.1,5.5C18.2,68.5,12.8,50,7.3,31.6z"/>
</g>
<g id="Layer_1_1_">
	<g>
		<path d="M92,48.4c-1.2,1.3-2.8,2.5-4.9,3.6c-2,1.2-4.2,2.1-7.5,2.7c-0.2,0-0.3,0.5,0,0.5c0.6,0.1,2.6,0.3,4,0.5
			c4.7,0.8,8.3,3.4,8.3,7.6c0,7.4-7.8,12.9-15.5,15.3c-3.2,1-7,1.5-11.1,1.5c-5,0-10.7-0.7-15.2-2.6c-1.7-0.8-3.1-1.3-6-0.1
			c-1.4,0.5-3.6,2-6.3,2.8c-1.3,0.3-2.3-0.3-1.7-0.7c2.9-0.4,5.1-2,6.5-4.1c2.8-4,5.6-8,8.1-12.1l9.7-15c3.1-4.7,5.6-9.4,6.9-11.4
			c0.9-1.4,3.6-2.7,6-3.4c-7.8-0.3-23.5,0.9-26.2,5.2c-1.4,2.2-1.3,4.8,0.6,5.9c0.5,0.2-0.4,0.8-0.9,0.6c-1.2-0.6-3.4-3.4-3.8-4.8
			c-2.6-8.1,11.2-7.9,16.9-7.9c4.2,0,10.3-0.1,15.1-0.1c5.6-0.1,15.7-0.6,19.1,3.9C97,40.2,94.9,45.4,92,48.4z M84,34
			c-2.4-0.3-7.6-0.1-9.5,2c-5.2,5.6-9.5,13.9-13.4,20.2c-3.1,5.1-6.4,10.4-9.5,15.6c-1.3,2.3-0.4,3.8,1.9,5.3
			c5,3.1,13.3,2.1,18.6,0.4c7.4-2.4,14-7.8,14-15.3c0-7.2-11.3-6.5-17-5.5c-1.8,0.3-3.6,0.6-5.1,0.9c-0.9-0.3,1.7-1.9,2.8-2.6
			c0.3-0.3,1.4-0.9,1.9-0.9c9.9,0,16.6-0.7,20.2-9.3C91.2,39.9,89.9,34.7,84,34z"/>
	</g>
</g>
<g id="Quill">
	<g>
		<path class="st9" d="M93.7,46.8c-1.1,5.2-1.1,9.1-0.6,10.1l0.6,0c1.8-5.1,10.4-23.7,15.8-29.7c5.5-6.2,9.8-9.8,13.4-12.5
			c1.3-0.9,2.5-2.2,3.7-3.4c1.4-1.6,2.9-3.3,4.1-5l-3.6,3.4l1.7-3.5l-3.1,4.4l2-4.8c-4.8,0.8-9.2,4.2-9.2,4.2
			c-1.7,3-3.2,7.6-3.2,7.6c0-2.3,1.1-5.8,1.1-5.8c-0.8,0.5-4,3.2-4,3.2c-1.5,1.8-2.1,6.5-2.1,6.5c-0.3-1.8,0.7-5.4,0.7-5.4
			c-4.5,3.7-7.7,9.9-7.7,9.9c-2.3,6-0.5,10.6-1.1,9.5c-0.7-1-0.5-5.1-0.5-5.1c-4.7,6.3-5.2,9.3-5.2,9.3c-0.8,2.6-1.5,9.7-1.5,9.7
			c-0.5-0.6,0-4.3,0-4.3c-1.1,3.3-0.6,6.4-0.6,6.4C93.9,51.3,93.7,46.8,93.7,46.8z"/>
		<path class="st9" d="M139.1,20c0,0-2.3,1.8-5,3.6c-4.3,2.9-8.4,5.1-8.4,5.1C110.1,35.8,98.7,51.3,95,56.6l1.3,0.3
			c0.6-0.4,1.3-0.6,4.4-0.9c3.9-0.5,6.7-2.9,6.7-2.9s-3.9,1.6-5.3,1c-1.4-0.7-3.8-0.4-3.8-0.4s-0.7-0.7,3.4-0.5c4.1,0.3,12-4,12-4
			s-2.8,0.7-3.9,0.3c-1.1-0.4-3.9-1.1-3.9-1.1c2-0.1,3.6,0.7,6.9,0c3.2-0.7,3-0.6,3-0.6c3.5-0.6,6-4.9,6-4.9
			c-0.6,0.1-5.1-0.4-6.6-1.5c-1.6-1.2-4.8-1.3-4.8-1.3c3.1-0.5,3.6,0.2,4.3,0.4c0.7,0.1,2.9,1,7.8,0.1c4.9-1,6.8-3.2,6.8-3.2
			l-3.1-0.2c2.1,0.1,4.7-1.1,4.7-1.1c-1.4,0.1-3.6-0.2-3.6-0.2c2.7-0.1,4.3-0.8,4.3-0.8c2.9-1.8,4.3-5.3,4.3-5.3
			c-3.7,0.6-6.1-0.8-6.1-0.8c4.7,0.8,6.2-0.4,7-0.6s1.3-1.7,1.3-1.7c-2.6,0.6-5.2,0-5.2,0c2.9,0.2,5.8-1.1,5.8-1.1l0.5-2
			c-1.3,0.6-3.3,0.7-3.3,0.7l3.6-1.8C139.7,21.1,139.1,20,139.1,20z"/>
		<path class="st9" d="M88.8,67.3L88.5,67l0.2-0.4c0.8-1.5,0.7-3.8,0.7-3.8l0-0.2l1.8-2.8l1.8,1.6l-1.3,3.7l-0.2,0
			c-1.1,0.2-2.1,1.9-2.2,2l-0.2,0.3L88.8,67.3z"/>
		<path class="st10" d="M89.8,62.9c0,0,0.1,2.3-0.8,4.1c0,0,1.1-1.8,2.4-2.2l1.1-3.1l-1.3-1.1L89.8,62.9z M91.1,63.4
			c0,0.2-0.1,0.6-0.3,0.6c-0.2,0.1-0.4-0.1-0.4-0.4c0-0.2,0.1-0.6,0.3-0.6C90.9,63,91.1,63.2,91.1,63.4z"/>
		<path class="st9" d="M92.2,58.4l1.8-3.2l0,0c6.5-11.2,13.6-20.9,18.6-25.4c4.9-4.4,8.6-6.8,11.5-8.7c1-0.6,1.9-1.2,2.7-1.8
			c0.4-0.3,0.9-0.6,1.5-1c1.3-0.8,2.6-1.7,3.5-2.5l0.4,0.7c-5.4,4.9-10.6,8.3-10.7,8.4c-9.5,6.7-18.6,17.6-27,32.5l-1,2.2L92.2,58.4
			z"/>
		<path class="st11" d="M121.5,24.6c0,0,5.1-3.3,10.6-8.3c-1.3,1.2-3.7,2.6-5.1,3.5c-3.5,2.4-7.7,4.6-14.2,10.4
			c-5,4.5-12.2,14.3-19,26l0,0l-1.2,2l0.8,0.6l0.7-1.8C97.8,50.8,107.4,34.3,121.5,24.6z"/>
		<path class="st9" d="M92.4,56.6l-0.1-0.3c-0.2-1.4,0.6-5.6,2.3-10.3l0.7,0.2c0.2-0.5,0.4-1,0.7-1.5l0.4,0.2c0.6-1.9,1.3-4,1.8-5.1
			c0.1-0.3,1.2-3.3,6.2-8.3l0.8-0.7c0.3-1,0.8-2.1,1.4-3.1l0,0l0,0c0.1-0.2,3.9-5.6,8.5-8.4l1-0.7l-0.1,0.1c0.1-0.1,0.2-0.2,0.2-0.2
			l0-0.1l0,0c0.1-0.1,3.3-2,4-2.4l1-0.4l-0.5,1.1c0,0-0.3,0.6-0.6,1.4c0.7-1.1,1.4-2.3,2.1-3.2l0,0l0,0c0.2-0.1,4.5-2.6,8.8-2.5
			l0.7,0l-1,1.6l0.9-1l0.6,0.6l-0.8,1.3l2.1-1.5L134,14c-1.2,1.3-2.8,2.6-4.4,4.1c-1.4,1.2-2.8,2.1-3.9,2.7
			c-2.8,1.6-7.3,4.2-13.6,9.7c-5.6,4.8-16.2,21.5-18.6,26.2l-0.2,0.3l-0.9-0.1L92.4,56.6z"/>
		<path class="st12" d="M93.3,56.3c2.4-4.7,13.1-21.5,18.7-26.4c5.8-5,10.1-7.8,13.7-9.8c1.2-0.7,2.6-1.7,3.8-2.6
			c1.5-1.3,3-2.7,4.4-4.1l-3.7,2.7l2-3.1l-3.4,3.8l2.5-4.4c-4.2-0.1-8.7,2.4-8.7,2.4c-2,2.6-4.1,6.9-4.1,6.9
			c0.3-2.3,1.9-5.5,1.9-5.5c-0.8,0.4-4,2.4-4,2.4c-1.7,1.5-2.9,6-2.9,6c0.1-1.8,1.6-5.2,1.6-5.2c-4.5,2.8-8.3,8.3-8.3,8.3
			c-3,5.5-2.2,10.4-2.6,9.3c-0.4-1.2,0.4-5.2,0.4-5.2c-5.2,5.4-6.1,8.2-6.1,8.2c-1.1,2.4-2.9,9.3-2.9,9.3c-0.2-0.8,0.7-4.3,0.7-4.3
			c-1.6,3.1-1.6,6.2-1.6,6.2c-0.4-0.3,0.3-4.9,0.3-4.9c-1.8,4.9-2.5,8.8-2.3,9.9C92.7,56.2,93.3,56.3,93.3,56.3z"/>
		<path class="st9" d="M94.3,57.1l0.4-0.6c8.4-14.7,17.4-25.3,26.9-31.4c0,0,3.6-2.6,7.3-5.9c2.4-2,4.4-4.1,4.4-4.1l0.3-0.4l0.3,0.4
			c0,0,0.7,1.2,0.2,2.7l0,0.2l-0.7,0.5l0.8-0.5l-0.6,3.1l-0.1,0.1c0,0-0.2,0.1-0.4,0.3l0.4-0.1l-0.3,0.8c-0.1,0.2-0.6,1.8-1.4,2.2
			c0,0-0.2,0.1-0.3,0.2c-0.3,0.2-0.6,0.4-1.2,0.7c0.2,0,0.4-0.1,0.6-0.2l0.8-0.2l-0.3,0.8c0,0.2-1.2,3.8-3.8,6l0,0l0,0
			c0,0-0.3,0.1-0.7,0.4l0.2,0.6c0,0-0.6,0.3-1.2,0.6l0.5,0l-0.5,0.7c-0.1,0.1-1.7,2.7-6.2,4.1c-3.3,1.1-5.2,1.1-6.3,1
			c0.4,0.2,0.9,0.4,1.6,0.5c1.7,0.3,3.6,0.2,3.9,0.1l0.8-0.3l-0.4,1c-0.1,0.2-2.2,4.7-5.5,5.8l-0.3,0l0,0.2c-0.1,0-0.4,0.1-2.6,0.9
			c-0.8,0.2-1.4,0.4-1.9,0.5c0.9-0.1,2.2-0.5,2.7-0.8l0.3,0.8c-0.3,0.2-6.5,4.8-10.3,5.4l0,0c0.1,0,0.1,0.1,0.2,0
			c1.1,0.2,3.5-1,4.4-1.6l0.4,0.8c-0.1,0.1-2.6,2.8-6.1,3.7c-2.8,0.7-3.4,1-3.8,1.4l-0.1,0.1L94.3,57.1L94.3,57.1z"/>
		<path class="st12" d="M133.5,19c-1.1,0.7-3,1.1-3,1.1l3.2-2.2c0.5-1.3-0.1-2.3-0.1-2.3s-2,2.1-4.4,4.1c-3.8,3.3-7.4,5.9-7.4,5.9
			C108,34.4,98.2,51,94.9,56.7l1.1,0.2c0.5-0.4,1.1-0.7,4-1.4c3.5-0.9,6-3.6,6-3.6s-3.5,2-4.8,1.6c-1.3-0.5-3.4,0-3.4,0
			s-0.6-0.7,3-0.8c3.7-0.2,10.6-5.4,10.6-5.4s-2.5,1-3.5,0.8c-1-0.3-3.6-0.6-3.6-0.6c1.8-0.3,3.3,0.3,6.1-0.8c2.9-1,2.6-0.9,2.6-0.9
			c3.2-1,5.2-5.5,5.2-5.5c-0.5,0.2-4.6,0.2-6-0.8c-1.5-1-4.3-0.8-4.3-0.8c2.8-0.8,3.3-0.2,3.9-0.1c0.6,0.1,2.6,0.7,7-0.8
			s6-3.9,6-3.9l-2.7,0.1c1.9-0.1,4.2-1.6,4.2-1.6c-1.3,0.3-3.2,0.2-3.2,0.2c2.4-0.4,3.9-1.3,3.9-1.3c2.6-2.1,3.7-5.8,3.7-5.8
			c-3.3,1.1-5.5-0.1-5.5-0.1c4.2,0.3,5.6-1.1,6.3-1.4c0.7-0.2,1.2-1.8,1.2-1.8c-2.3,0.7-4.7,0.6-4.7,0.6c2.6-0.2,5.2-1.8,5.2-1.8
			L133.5,19L133.5,19z"/>
		<polygon class="st9" points="91,59.8 91.9,57.9 93.9,59.8 93,61.6 		"/>
		<polygon class="st12" points="91.5,59.7 92.9,61 93.4,59.9 92,58.6 		"/>
	</g>
	<path class="st9" d="M84.2,70.7c-0.6,1.5-0.7,3-0.1,3.6c0.8,0.6,2.9-0.1,4.7-2.3c0.2-0.4,0.7-1,0.9-2.1c0.2-1.3-0.2-2.3-0.4-2.7
		c0,0.3-0.2,1.8-1.5,2.9C86.3,71.2,84.4,70.7,84.2,70.7z"/>
</g>
</svg>
