<!-- Generator: Adobe Illustrator 19.2.1, SVG Export Plug-In  -->
<svg version="1.1"
	 xmlns="http://www.w3.org/2000/svg" xmlns:xlink="http://www.w3.org/1999/xlink" xmlns:a="http://ns.adobe.com/AdobeSVGViewerExtensions/3.0/"
	 x="0px" y="0px" width="35.4px" height="36.6px" viewBox="0 0 35.4 36.6" style="enable-background:new 0 0 35.4 36.6;"
	 xml:space="preserve">
<style type="text/css">
	.st0{fill:#C0BEC3;}
	.st1{fill:#C7C4CA;}
	.st2{fill:#C9BBBA;}
	.st3{fill:#C6BDB4;}
	.st4{fill:#847B73;}
	.st5{fill:#E3D5CC;}
	.st6{fill:#A5A39E;}
	.st7{fill:#241D1C;}
	.st8{fill:#AFAEB2;}
	.st9{fill:#897C80;}
</style>
<defs>
</defs>
<path class="st0" d="M6.5,0.9L1.1,1.1c0,0-2.3,0.9-0.4,1.7l4.4,0.9l1.6,1.4l2.8,0.6L8.6,8.5l1.1,1.2l0.2,1.5l0.7,3v2.1l-0.5,2.7
	l0.5,0.7l1.8,3.5l3.9-13.2l-4.9-8.3l-1.2-0.9H6.5z"/>
<path class="st1" d="M2.1,29.7l2-1.5h3.5l20.9,1.7c0,0,2.6,2.5,2,2.6c-0.6,0.1-4.1,1.7-4.1,1.7l0.2,1.3l-0.3,1.1h-9.6L16.3,36l0.2-1
	l0.3-1.1c0,0-0.9-0.2-1-0.4c-0.1-0.2-5.2-0.7-5.2-0.7L10,31.8l-1.6-1.2l-3.2-0.2l-1.4,0.6L2.1,29.7z"/>
<polygon class="st2" points="35.4,32.2 34.8,33.6 27,32.5 21.9,32.5 18.1,32.5 13.3,32.9 11.2,32.5 9.9,30.3 7.3,29.5 7.3,27.8 
	12.5,27.2 13.3,25.7 11,19.1 18.5,19.1 "/>
<path class="st3" d="M12.2,1.3L31.7,0l1.5,3.7l1.6,9.3l0.6,11.8v7.5L34.5,32l-13.4-1.7L16.6,32c0,0-2.4-0.4-2.3-0.6
	c0-0.1-1.3-2.6-1.3-2.6l0.3-3.1l-0.5-2.9l-1.5-3l-0.6-1.7l0.6-1.6L11,14.1l-0.4-3.9L9.5,8.4L9.1,6.3L11,5.1l-0.1-1.4L12.2,1.3z"/>
<polygon class="st4" points="9.5,27.8 12.7,27.8 13.3,28.4 14,28.8 14.9,31 15.7,31.4 19.5,31.3 18.1,32.5 14.7,32.5 13,32 
	12.7,30.6 12.2,29.8 9.5,29.5 "/>
<polygon class="st5" points="14.3,4.4 13.7,1.7 30.3,1.3 31.4,3.7 "/>
<polygon class="st5" points="14.3,9 13.7,5.7 29.9,5.7 32.3,6.4 32.3,9 28.3,9.3 "/>
<polygon class="st5" points="14.3,10.6 33.6,11.5 33.2,14.9 14.9,13.9 13.7,12.8 "/>
<path class="st5" d="M15.5,16.2l19,1.4v3.2l-17.6-0.7C16.9,20.1,14.5,18.1,15.5,16.2z"/>
<path class="st5" d="M14.7,21.8l19.4,0.5l0.4,4l-18.7-1.1C15.8,25.2,15.7,21.8,14.7,21.8z"/>
<path class="st5" d="M15.7,31.4l-1.4-3.2l1.4-1.3l18.8,0.9V30l-0.4,0.6l0.4,1.4C34.5,32,31.2,30.9,15.7,31.4z"/>
<polygon class="st4" points="11,9.7 9.5,8.4 11,7.3 13,8.5 "/>
<path class="st4" d="M9.1,12.1c0,0,1.6-1.1,1.8-1.2s3.4-0.3,3.4-0.3l-0.6,1.7l0.3,2.4l-2.8,0.8l0.8-1.9l-1.2-0.8L9.1,12.1z"/>
<polygon class="st4" points="10.6,17.6 11.7,17 13,17.6 13.7,17.3 14.3,18.5 13.7,19.3 13.5,21.2 12.2,21.2 11.5,18.5 "/>
<polygon class="st4" points="12.7,22.9 13.7,22.3 14.9,22.9 14.7,24 14.9,25.8 13.8,26.2 12.5,26.2 12.5,25.6 13.3,24.3 "/>
<path class="st6" d="M6.5,0.9c0,0,1.2-1.3,3-0.8l2.9,0.3L13,1.9l-1.3,0.5v1.7l-0.7,1H9.3L9.1,3.5l0.4-1.2V1.5L7.2,1.3L6.5,0.9z"/>
<polygon class="st7" points="27,32.5 25.4,33.9 25.6,35 26.2,35.4 25.9,35.8 21.6,35.8 21.3,35.2 22.2,34.7 22.4,33.6 21.3,32.5 "/>
<path class="st8" d="M2.4,29.8c0,0,1.3-2,2.7-0.4v0.9l-1,0.2L2.4,29.8z"/>
<polygon class="st9" points="17.2,34.5 17.9,33.6 20.3,33.2 21.5,34.2 20.2,34.8 20.4,35.8 17,35.8 17,35.4 17.7,34.8 "/>
</svg>
