<!-- Generator: Adobe Illustrator 19.2.1, SVG Export Plug-In  -->
<svg version="1.1"
	 xmlns="http://www.w3.org/2000/svg" xmlns:xlink="http://www.w3.org/1999/xlink" xmlns:a="http://ns.adobe.com/AdobeSVGViewerExtensions/3.0/"
	 x="0px" y="0px" width="277.4px" height="72.3px" viewBox="0 0 277.4 72.3" style="enable-background:new 0 0 277.4 72.3;"
	 xml:space="preserve">
<style type="text/css">
	.st0{fill:#C0BEC3;}
	.st1{fill:#C7C4CA;}
	.st2{fill:#B4ACB4;}
	.st3{fill:#AEA195;}
	.st4{fill:#D0CFCC;}
	.st5{fill:#7C7D7F;}
	.st6{fill:#C9BBBA;}
	.st7{fill:#BDB5AE;}
	.st8{fill:#C0B7AE;}
	.st9{fill:#C0AD9F;}
	.st10{fill:#AF9B8E;}
	.st11{fill:#D9C6B8;}
	.st12{fill:#C5B8B8;}
	.st13{fill:#9B9C9B;}
	.st14{fill:#97989C;}
	.st15{fill:#100D0B;}
	.st16{fill:#1E1610;}
	.st17{fill:#615B57;}
	.st18{fill:#E4D7D1;}
	.st19{fill:#E6D4CB;}
	.st20{fill:#251D1F;}
	.st21{fill:#564E4E;}
	.st22{fill:#141314;}
	.st23{fill:#E9DCCC;}
	.st24{fill:#C6BDB4;}
	.st25{fill:#ECDBCC;}
	.st26{fill:#B1A59D;}
	.st27{fill:#847B73;}
	.st28{fill:#CFCFCE;}
	.st29{fill:#756469;}
	.st30{fill:#21111B;}
	.st31{fill:#E3D5CC;}
	.st32{fill:#A5A39E;}
	.st33{fill:#241D1C;}
	.st34{fill:#AFAEB2;}
	.st35{fill:#897C80;}
</style>
<defs>
</defs>
<g>
	<path class="st0" d="M238.9,3.5l-5.3,0.2c0,0-2.3,0.9-0.4,1.7l4.4,0.9l1.6,1.4l2.8,0.6l-0.9,2.8l1.1,1.2l0.2,1.5l0.7,3v2.1
		l-0.5,2.7l0.5,0.7l1.8,3.5l3.9-13.2l-4.9-8.3l-1.2-0.9H238.9z"/>
	<path class="st1" d="M234.5,32.2l2-1.5h3.5l20.9,1.7c0,0,2.6,2.5,2,2.6s-4.1,1.7-4.1,1.7l0.2,1.3l-0.3,1.1h-9.6l-0.4-0.5l0.2-1
		l0.3-1.1c0,0-0.9-0.2-1-0.4c-0.1-0.2-5.2-0.7-5.2-0.7l-0.7-1.1l-1.6-1.2l-3.2-0.2l-1.4,0.6L234.5,32.2z"/>
	<path class="st2" d="M266.6,45.1V40l4-0.5l4.4,5.7c0,0,3.3,0.4,1,2.2l-3.8,0.9l-6.5-2.5L266.6,45.1z"/>
	<path class="st3" d="M177.8,48.3l33.7,0.2l21.4-0.9l17.1-0.7l2.6,1.1l3-1.6h3.7h4l2.6-1.1l4.2,0.5l6.5,6.7l1,1.4v1.7
		c0,0-15.1,1-21,3.9l-10.8,2.4l-10,3.3c0,0-11.9,5.6-20.9,1l-14.6-3.4l-10.8-2.7l-4.5-0.3l-7-1.1h-2.9l-4.3-0.9l-1.7-1.1v-1.2
		L177.8,48.3z"/>
	<path class="st4" d="M229.1,35.1l-8.8,1.2l0-3.4l9.7,0.9"/>
	<path class="st5" d="M228.5,4.3c0,0,0.9,1.6-1.7,1.6l-7.9,0.4l-0.1-3.4L228.5,4.3"/>
	<polygon class="st6" points="267.8,34.8 267.3,36.1 259.4,35 254.4,35 250.6,35 245.8,35.4 243.7,35 242.4,32.9 239.7,32 
		239.7,30.3 244.9,29.7 245.7,28.3 243.4,21.6 251,21.6 	"/>
	<g>
		<polygon class="st7" points="81.5,62.4 82.5,63 82,67.8 80.1,68.5 78.7,64 		"/>
		<polygon class="st8" points="11.9,44.6 9,69.1 11.1,70.5 28.7,70.5 37.4,68.9 63.2,69.4 80.1,68.5 79.6,62.4 27.4,45.9 		"/>
		<polygon class="st9" points="68.7,2 81.5,0 81.5,63.7 13.2,64.7 14.5,44.6 14.8,5.6 		"/>
		<path class="st10" d="M11.1,4c0,0,2.6-2.6,4.9,0l41.6-2h11.1l10,6.1l-19.9,2.5L29,11.2l-4.2,38.7l-11.9-3L11.1,43v-2.5l1.4-31.7
			L11.1,4z"/>
		<polygon class="st11" points="14.8,9.1 14.8,5.6 33.2,4.8 29.4,7.8 		"/>
		<polygon class="st11" points="15.4,13.5 15.9,10.8 34.2,9.1 32.1,12.7 		"/>
		<polygon class="st11" points="14.8,18.8 14.8,16.1 34.2,14.7 32.2,16.3 31.4,18.4 		"/>
		<polygon class="st11" points="14.8,21.7 34.2,19.9 29,22.1 32.1,22.8 30.4,24.5 14.8,25 		"/>
		<polygon class="st11" points="14.8,26.9 31.4,25.6 33.2,25.6 31.5,28.7 14.8,30.7 		"/>
		<path class="st11" d="M14.8,32.5l7.6-1l9.9-0.9h1.2l-3.1,4.1c0,0-14.5,0.9-14.2,0.9s-1.8-1.3-1.8-1.3L14.8,32.5z"/>
		<polygon class="st11" points="14.8,39.4 14.8,37.9 27.9,36.5 33.6,36.1 32.3,37.7 30.9,39.9 14.8,40.6 		"/>
		<polygon class="st11" points="14.8,43.1 33.2,41 32.3,42 31.9,44.7 20.1,45.9 16.1,45.9 		"/>
		<polygon class="st11" points="14.8,48 34.2,46.9 31.2,48.8 29.2,51.1 14.8,51.1 		"/>
		<polygon class="st11" points="14.5,52.5 34.2,52.5 31.8,55 30.8,56.9 14.8,56 		"/>
		<polygon class="st11" points="13.9,59.4 33.2,58.5 31.8,60 31.4,62.4 13.9,62.4 		"/>
		<polygon class="st11" points="35.5,7 36.3,4.8 59.8,3.5 57.5,5.2 59.8,7 		"/>
		<path class="st11" d="M37.6,9.6L51,9.1l8.8-0.3L59.5,12c0,0-16,1.2-16.2,1.4c-0.3,0.3-5.6,0-5.6,0l-2.1-1.7l2.1-1.1V9.6z"/>
		<polygon class="st11" points="36.9,15.7 58.8,13.6 57.5,15.7 57.2,16.8 37.8,18.8 35.9,17.5 		"/>
		<polygon class="st11" points="37.4,21 58,19.5 58,23.4 37.4,24 		"/>
		<polygon class="st11" points="36.4,25.6 58.8,25 58,28.1 36.4,29.5 		"/>
		<path class="st11" d="M37.4,31.3c0.4,0,21.3-0.7,21.3-0.7l-1.3,3.8l-20.7,1.2L37.4,31.3z"/>
		<path class="st11" d="M36.4,37.3c0.3-0.2,22.4-1.2,22.4-1.2L58,38.8l-22.1,1.1L36.4,37.3z"/>
		<polygon class="st11" points="36.4,44.6 37.4,41.4 58,41.4 58,44.6 		"/>
		<polygon class="st11" points="36.4,50.7 38.3,47.4 57,47.4 57.6,50.7 		"/>
		<polygon class="st11" points="62.3,7 62.3,3.5 79.6,2.9 79.1,5.7 		"/>
		<polygon class="st11" points="61.7,11.9 62.3,9.7 78.7,8.1 78.7,11.3 		"/>
		<polygon class="st11" points="60.4,18.4 61.7,13.6 78.7,13.5 77.8,16.8 		"/>
		<path class="st11" d="M60.4,23.5c-0.1-0.4,0.7-3.6,0.7-3.6l17.1-1.5l0.5,3.4L60.4,23.5z"/>
		<polygon class="st11" points="60.4,27.7 63.2,25 78.2,24 79.6,25.9 78.3,27.3 63.3,29.5 		"/>
		<polygon class="st11" points="61.1,34.1 61.7,31.2 80.1,29.5 79.6,33.2 		"/>
		<polygon class="st11" points="61.1,39.4 62.7,36.1 80.1,35.7 73.9,40.6 		"/>
		<polygon class="st11" points="61.7,44.6 61.7,42.1 79.2,41.4 78.7,45.3 		"/>
		<polygon class="st11" points="34.2,56.9 36.8,53.4 55.7,53.4 58,56.5 		"/>
		<polygon class="st11" points="35.5,62.4 36.8,59.2 55.9,59.2 56.6,60.8 		"/>
		<polygon class="st11" points="61.7,48 78.7,47.4 79.2,49.8 61.1,50.7 		"/>
		<path class="st11" d="M62.3,56.1c0,0-1.8-2.2-1.2-2.3c0.6-0.1,18.6-1.3,18.6-1.3v3.7H62.3z"/>
		<polygon class="st11" points="62.3,59.2 79.6,58.5 77.8,62 		"/>
		<polygon class="st12" points="109.5,24 109.2,13.6 111.9,13.6 111.9,14.9 133.2,13.5 153.5,14.4 153.1,13.5 156.7,13.5 
			158.1,18.4 157.3,19.5 156.7,21.8 158.7,58 160.3,59.2 160.3,63.8 158.3,64.7 110,65.6 		"/>
		<path class="st13" d="M9,69.1H1.3c0,0-2.2-1.7-0.9-3.5l9.3-2.4L9,69.1z"/>
		<path class="st14" d="M11.1,4H3.2C3.2,4,1.9,6,2.4,7l8.7,1.1l1.3,4.2l0.2-3.4L11.1,4z"/>
		<path class="st15" d="M82.4,63.4l8.4,0.6c0,0,0.8,1.1,0.2,2.1l-0.8,0.6L82,67.8L82.4,63.4z"/>
		<path class="st15" d="M81.5,0.7h8.4c0,0,0.6,1.2-0.1,2.2c0,0-2.6,2.3-8.2,2.1V0.7z"/>
		<polygon class="st16" points="72.8,68.9 73.2,70.8 78.2,71 78.5,68.6 		"/>
		<path class="st17" d="M68.5,69.1c0,0-0.1,2,1.4,3.1c0,0,4,0.5,5.3-1l0.2-0.3l-2.2-0.1l-0.5-1.9L68.5,69.1z"/>
		<polygon class="st18" points="111.9,19.5 112.4,16.2 131.9,14.9 132.3,18.8 		"/>
		<polygon class="st18" points="111.9,25 112.3,21.8 132.3,20.3 132.3,24.6 		"/>
		<polygon class="st18" points="113.3,30.7 115.2,27.3 133.5,26.8 131.9,30.7 		"/>
		<polygon class="st18" points="113.3,34.5 111.9,32.4 133.2,32.4 132.3,36.5 		"/>
		<polygon class="st18" points="113.3,38.1 115.4,35.7 133.2,38.1 134.1,39.9 132.3,41.4 115,40.6 		"/>
		<polygon class="st18" points="113.3,45.3 115.4,43 132.3,43.4 133.5,45.3 132.7,46.2 114.5,46.2 		"/>
		<polygon class="st18" points="113.3,49.9 115.2,48 133.5,48.5 133.5,51.7 115.7,51.7 		"/>
		<polygon class="st18" points="113.3,56.1 114.2,53.4 133.5,53.9 134.1,57.6 133.5,58.5 113.7,57.6 		"/>
		<polygon class="st18" points="113.3,63.4 113.3,60.8 115.6,58.5 134.7,60.2 135.7,63.4 		"/>
		<polygon class="st18" points="136.5,17.2 137.6,15.9 153.5,15.4 153.5,14.4 156.5,14.4 157.3,17.2 155.3,19.5 154.1,17.7 		"/>
		<polygon class="st19" points="136.5,22.2 136.1,18.4 153.5,19.5 155,22.6 		"/>
		<path class="st19" d="M135.7,29.5c0.2-0.4,1.3-5.5,1.3-5.5l18.4,1l-0.4,4.5H135.7z"/>
		<polygon class="st19" points="136.5,30.7 155.4,31.1 155.4,35.7 137,34.1 		"/>
		<polygon class="st19" points="136.5,38.1 137.8,35.3 155.4,37.5 156.7,38.6 155.4,40.6 138.2,39.9 		"/>
		<polygon class="st19" points="136.8,43 138.8,41.4 155.4,43 156.3,45.3 154.4,46.8 138.3,45.3 		"/>
		<polygon class="st19" points="136.5,50.3 138.8,46.8 155,48 156.7,49 155,51.7 		"/>
		<polygon class="st19" points="140.8,57.6 136.8,53.4 152.8,53.4 153.6,54.3 155,52.9 157.3,52.9 155,56.9 		"/>
		<polygon class="st19" points="138.8,62.9 137.5,58.5 155,58.5 156.7,59.6 159.4,59.2 159.4,63.4 		"/>
		<path class="st4" d="M109.2,19.5l-9.9-1.7c0,0-1.1-1.2,1-1.9l9-1.5L109.2,19.5z"/>
		<path class="st5" d="M110,64.8l-9.9-2.4c0,0-0.9-2.4,1.8-2.4l8.1-0.3L110,64.8z"/>
		<polygon class="st20" points="154.3,64.8 153.9,67.9 149.3,67.9 149.7,64.9 		"/>
		<polygon class="st21" points="149.4,67.4 145.7,67.2 145.7,65 149.7,64.9 		"/>
		<path class="st22" d="M160.3,59.6l6.9,0.5c0,0,2.1,0.8,0.8,2.7l-7.7,1.1V59.6z"/>
		<path class="st22" d="M156.7,13.8h7.7l1.1,1.9c0,0-4.8,2.3-7.5,2.4L156.7,13.8z"/>
		<polygon class="st12" points="219.9,29.9 220.4,36.8 217.7,36.8 217.6,36 196.8,37.4 176.9,37.2 177.3,37.8 173.8,37.9 
			172.3,34.7 173.1,33.9 173.7,32.4 171.2,8.5 169.6,7.7 169.5,4.6 171.5,4 218.8,2.3 		"/>
		<polygon class="st19" points="217.6,32.9 217.2,35.1 198,36.4 197.6,33.8 		"/>
		<polygon class="st19" points="217.4,26.6 217.1,30.6 197.6,32.9 197.5,27.5 		"/>
		<polygon class="st19" points="217.5,20.4 215.7,25.1 196.9,26.2 198.4,20.8 		"/>
		<polygon class="st19" points="216,16.5 217.4,19 195.2,19.5 196,14.6 		"/>
		<polygon class="st19" points="217.4,11.8 215.1,14.8 195.6,12.3 194.6,10.1 196.5,8.2 215.4,8.8 		"/>
		<polygon class="st19" points="216.6,3.8 216.6,6.1 214.3,8.2 194.7,7.1 193.6,4.4 		"/>
		<polygon class="st18" points="193.6,35 192.5,35.9 176.9,36.6 176.9,37.2 174,37.3 173.1,35.4 175.1,33.9 176.3,35 		"/>
		<polygon class="st18" points="193.1,29.6 193.6,33.5 176.5,32.7 174.9,29.5 		"/>
		<path class="st18" d="M193.4,22c-0.2,0.4-1.2,5.8-1.2,5.8l-18-0.6l0.3-4.8L193.4,22z"/>
		<polygon class="st18" points="191.9,20.8 173.3,20.7 173.2,15.4 191.3,16.8 		"/>
		<polygon class="st18" points="191.8,11.8 190.5,15.4 173.2,13 172,11.7 173.1,9.2 190,9.6 		"/>
		<polygon class="st18" points="190.6,4.8 191.9,7.8 174.8,8.2 173.1,7.4 170.4,7.8 170.4,4.9 		"/>
		<polygon class="st20" points="175.3,3.8 175.7,1.8 180.2,1.7 179.9,3.7 		"/>
		<polygon class="st21" points="180.2,2 183.8,2.1 183.8,3.5 179.9,3.7 		"/>
		<path class="st22" d="M169.6,7.4l-6.8-0.2c0,0-2.1-0.5-0.8-1.8l7.5-0.9L169.6,7.4z"/>
		<path class="st22" d="M173.7,37.7l-7.5,0.2l-1.1-1.2c0,0,4.6-1.7,7.3-1.8L173.7,37.7z"/>
	</g>
	<polygon class="st23" points="180.7,50 187.5,50 185.8,60.9 183.8,60 183.8,58.5 179.5,57.6 	"/>
	<polygon class="st23" points="190.3,50.8 196.3,50.8 196.3,60.6 191.9,59.1 192.8,52.9 	"/>
	<polygon class="st23" points="198.6,50.8 205.1,50.4 205.1,62.6 198.6,60.9 	"/>
	<polygon class="st23" points="207.6,50.4 212.8,50.4 213.3,55.5 207.6,53.9 	"/>
	<polygon class="st23" points="207.6,56.8 214.2,57.6 215.4,65 207.6,62.6 	"/>
	<polygon class="st23" points="217.4,65.6 216.5,56.8 223.8,57.2 224.6,66 	"/>
	<path class="st23" d="M216.5,52.9v-2.1l6-0.4l0.9,5.1l-2.2,0.2C221.1,55.7,218.7,53,216.5,52.9z"/>
	<polygon class="st23" points="225.2,50 231.6,49.3 232.9,54.7 226,55.2 	"/>
	<path class="st24" d="M244.7,3.8l19.5-1.3l1.5,3.7l1.6,9.3l0.6,11.8v7.5l-0.9-0.2l-13.4-1.7l-4.5,1.7c0,0-2.4-0.4-2.3-0.6
		c0-0.1-1.3-2.6-1.3-2.6l0.3-3.1l-0.5-2.9l-1.5-3l-0.6-1.7l0.6-1.6l-0.2-2.5l-0.4-3.9l-1.1-1.8l-0.4-2.1l1.9-1.2l-0.1-1.4L244.7,3.8
		z"/>
	<path class="st23" d="M224.6,57.6l4.4-1.1l2.7,0.3l1.2,1.6V65l-6.7,0.6l0.2-6.1C226.4,59.6,225.4,57.9,224.6,57.6z"/>
	<polygon class="st23" points="234.8,53.9 233.7,49.3 239.9,48.5 241.9,51.2 241.2,53.9 	"/>
	<polygon class="st23" points="234,56.5 240.1,55.2 241.2,56.5 241.4,61.7 236,63.4 235.2,58.8 	"/>
	<polygon class="st23" points="241.4,48.3 243.5,47.9 250.6,50.6 252.1,58.3 246.8,59.9 245.1,52.4 247.3,51.6 	"/>
	<polygon class="st23" points="252.1,49.3 258.1,47.9 260,51.2 260.8,56.2 254.1,58.3 253,51.2 254.9,50.4 252.4,50 	"/>
	<path class="st23" d="M263.5,47.9l1.8,4.9c0,0-2,2-2.1,2.2c-0.1,0.2,1.4,0.5,1.4,0.5l5.3-1.1l-2.9-0.9l2.1-0.9l-2.2-5.1L263.5,47.9
		z"/>
	<polygon class="st25" points="179,48.5 177.8,57.6 174.5,57.6 168.9,55.2 170,48.8 174.9,47.9 	"/>
	<path class="st26" d="M277.4,53.7h-6.3c0,0-0.6-0.4-0.5-0.6c0.1-0.2,1.4-1.6,1.4-1.6l-0.2-2.2l-4.8-2.8c0,0,3.3-1.7,3.5-1.7
		c0.2,0,3.7,0.9,3.7,0.9l0.6,1.7l1.6,0L277.4,53.7z"/>
	<polygon class="st27" points="242,30.3 245.2,30.3 245.8,31 246.5,31.3 247.4,33.6 248.1,34 251.9,33.9 250.6,35 247.1,35 
		245.4,34.5 245.1,33.1 244.7,32.3 242,32 	"/>
	<path class="st28" d="M170,48.8l0.4-6.8c0,0,3-1.2,5.4,0l1.9,6.3l-2.9-0.4L170,48.8z"/>
	<polygon class="st29" points="169.5,51.5 163.6,51.3 163.6,49.3 169.9,49.3 	"/>
	<path class="st30" d="M169.4,52.5h-5.5c0,0-1.4,0.9-0.3,2.1l1.6,0.6l3.7,0.4v-0.4L169.4,52.5z"/>
	<polygon class="st31" points="246.8,6.9 246.2,4.3 262.7,3.8 263.9,6.3 	"/>
	<polygon class="st31" points="246.8,11.5 246.2,8.2 262.4,8.2 264.7,8.9 264.7,11.5 260.8,11.8 	"/>
	<polygon class="st31" points="246.8,13.1 266.1,14 265.7,17.4 247.4,16.4 246.2,15.3 	"/>
	<path class="st31" d="M248,18.7l19,1.4v3.2l-17.6-0.7C249.4,22.6,246.9,20.6,248,18.7z"/>
	<path class="st31" d="M247.1,24.3l19.4,0.5l0.4,4l-18.7-1.1C248.2,27.7,248.1,24.3,247.1,24.3z"/>
	<path class="st31" d="M248.1,34l-1.4-3.2l1.4-1.3l18.8,0.9v2.2l-0.4,0.6l0.4,1.4C267,34.5,263.6,33.5,248.1,34z"/>
	<polygon class="st27" points="243.5,12.3 242,10.9 243.5,9.8 245.4,11 	"/>
	<path class="st27" d="M241.6,14.6c0,0,1.6-1.1,1.8-1.2c0.1,0,3.4-0.3,3.4-0.3l-0.6,1.7l0.3,2.4l-2.8,0.8l0.8-1.9l-1.2-0.8
		L241.6,14.6z"/>
	<polygon class="st27" points="243.1,20.1 244.2,19.6 245.4,20.1 246.2,19.8 246.8,21 246.2,21.8 246,23.7 244.7,23.7 243.9,21 	"/>
	<polygon class="st27" points="245.2,25.4 246.2,24.8 247.4,25.4 247.1,26.5 247.4,28.4 246.3,28.8 244.9,28.8 244.9,28.2 
		245.7,26.8 	"/>
	<path class="st32" d="M238.9,3.5c0,0,1.2-1.3,3-0.8l2.9,0.3l0.5,1.4l-1.3,0.5v1.7l-0.7,1h-1.7L241.6,6l0.4-1.2V4l-2.4-0.2
		L238.9,3.5z"/>
	<polygon class="st33" points="259.4,35 257.8,36.5 258.1,37.5 258.6,38 258.4,38.4 254.1,38.4 253.8,37.7 254.7,37.2 254.9,36.1 
		253.8,35 	"/>
	<path class="st34" d="M234.9,32.3c0,0,1.3-2,2.7-0.4v0.9l-1,0.2L234.9,32.3z"/>
	<polygon class="st35" points="249.7,37 250.3,36.1 252.8,35.7 253.9,36.7 252.7,37.3 252.9,38.4 249.5,38.4 249.5,37.9 250.2,37.3 
			"/>
</g>
</svg>
