<svg id="Layer_1" data-name="Layer 1" xmlns="http://www.w3.org/2000/svg" viewBox="0 0 288 288"><defs><style>.cls-1,.cls-5{fill:#a89f98;}.cls-2{fill:#e8461e;}.cls-3{fill:#d1c6b8;}.cls-4{fill:#aaa496;}.cls-5{opacity:0.36;}.cls-6{fill:#e3d6c5;}.cls-7{fill:#c4baa9;}.cls-8{fill:#84786e;opacity:0.23;}.cls-9{fill:#a32d16;}.cls-10{fill:#f9ecdb;}.cls-11{fill:#423e3d;}.cls-12{fill:#a89c8f;opacity:0.28;}</style></defs><title>bookpics</title><polygon class="cls-1" points="80.85 192.15 78.95 206.67 87.62 201.59 80.85 192.15"/><polygon class="cls-2" points="60.58 190.96 79.7 188.57 75.82 206.41 60.02 196.92 60.58 190.96"/><polygon class="cls-3" points="104.32 116.19 123.13 57.13 139.83 61.43 183.38 66.72 225.24 76.87 252.51 88.42 231.58 141.13 206.07 221.89 204.31 236.47 168.72 230.06 139.83 219.98 104.32 116.19"/><polygon class="cls-4" points="108.76 114.5 125.46 64.18 192.47 73.63 222 81.73 234.96 89.34 244.05 92.37 222.91 143.03 209.31 190.6 203.4 214.84 201.84 228.65 176.41 224.85 162.24 221.89 108.76 114.5"/><polygon class="cls-3" points="129.41 68.83 155.76 72.64 149.28 84.9 126.73 78.7 129.41 68.83"/><polygon class="cls-3" points="125.46 80.53 149.28 87.01 145.33 96.31 121.94 90.54 125.46 80.53"/><polygon class="cls-3" points="121.34 92.37 145.33 98.71 141.24 110.55 115.95 105.33 121.34 92.37"/><polygon class="cls-3" points="115.31 107.17 128.56 111.25 112.35 113.93 115.31 107.17"/><polygon class="cls-3" points="158.23 73.63 198.25 80.53 190.71 97.86 153.22 87.15 158.23 73.63"/><polygon class="cls-3" points="153.22 88.42 190.71 99.13 187.47 108.86 149.28 100.26 153.22 88.42"/><polygon class="cls-3" points="148.36 101.46 186.76 110.55 145.33 111.39 148.36 101.46"/><polygon class="cls-3" points="201.42 81.09 235.81 93.88 230.31 108.15 196.35 96.31 201.42 81.09"/><polygon class="cls-3" points="196.35 97.86 229.33 109.42 223.13 124.08 191.28 111.39 196.35 97.86"/><polygon class="cls-3" points="204.8 118.72 222 124.85 216.08 139.86 200.72 132.82 204.8 118.72"/><polygon class="cls-3" points="205.09 136.48 216.08 141.13 213.26 152.82 203.4 149.87 205.09 136.48"/><polygon class="cls-3" points="204.38 151.56 212.98 153.68 209.74 165.37 199.17 161.99 204.38 151.56"/><polygon class="cls-3" points="196.35 163.4 209.31 166.36 205.79 176.93 183.38 170.87 196.35 163.4"/><polygon class="cls-3" points="182.11 172.56 205.79 178.48 202.27 190.6 177.89 184.54 182.11 172.56"/><polygon class="cls-3" points="177.89 186.09 201.84 192.15 199.17 205.26 175.98 199.9 177.89 186.09"/><polygon class="cls-3" points="180.56 203 199.17 206.67 196.35 221.89 173.52 219.63 180.56 203"/><polygon class="cls-5" points="162.24 64.15 160.27 137.54 166.05 172.56 186.76 233.31 168.72 230.06 139.83 219.98 104.32 116.19 123.13 57.13 139.83 61.43 162.24 64.15"/><polygon class="cls-6" points="24.41 152.55 35.83 146.63 80.78 119.78 131.38 108.15 208.33 110.9 207.27 121.05 205.79 166.36 178.79 176.22 87.62 197.49 62.04 194.19 46.18 195.25 37.3 171.57 24.41 152.55"/><polygon class="cls-7" points="200.72 118.3 167.1 114.5 110.87 118.3 67.96 132.89 33.29 154.87 49.49 186.94 87.62 190.6 176.83 172.74 200.72 162.69 200.72 118.3"/><polygon class="cls-6" points="115.95 162.69 125.46 160.16 126.73 170.94 117.43 172.56 115.95 162.69"/><polygon class="cls-6" points="97.98 168.75 113.62 164.17 115.98 176.22 99.98 181.3 97.98 168.75"/><polygon class="cls-6" points="105.16 128.45 123.13 124.85 127.97 151.59 113.62 157.41 105.16 128.45"/><polygon class="cls-6" points="87.62 133.73 102.84 128.45 112.35 158.47 96.5 162.69 87.62 133.73"/><polygon class="cls-6" points="70.71 140.92 82.54 136.48 96.28 182.71 84.45 178.97 70.71 140.92"/><polygon class="cls-6" points="56.12 148.95 68.59 141.87 82.54 179.18 69.33 179.18 56.12 148.95"/><polygon class="cls-6" points="54.22 150.43 66.58 179.18 54.22 179.18 43.22 156.35 54.22 150.43"/><polygon class="cls-8" points="80.5 120.31 104.04 153.08 137.58 178.97 97.69 198.88 83.61 197.54 61.76 194.72 45.9 195.78 37.02 172.1 24.13 153.08 80.5 120.31"/><polygon class="cls-6" points="162.24 121.05 172.6 121.05 175.98 164.17 164.78 168.75 162.24 121.05"/><polygon class="cls-6" points="143.07 155.55 156.89 152.13 158.23 164.17 143.07 157.41 143.07 155.55"/><polygon class="cls-6" points="124.83 124.85 138.25 122.53 142.44 148 130.04 150.43 124.83 124.85"/><polygon points="190.71 192.85 189.58 203.85 195.36 207.93 195.36 195.39 190.71 192.85"/><polygon points="138.88 250.11 137.86 253.74 138.37 261.91 142.26 265.86 146.46 247.54 138.88 250.11"/><polygon class="cls-9" points="115.95 137.54 121.94 141.13 123.13 150.43 115.95 148.95 115.95 137.54"/><polygon class="cls-9" points="62.04 203.85 68.17 206.67 69.86 216.18 62.99 211.32 62.04 203.85"/><polygon class="cls-10" points="134.06 255.15 128.42 251.48 80.78 233.16 66.41 227.52 70.35 220.76 90.37 183.84 115.45 174.53 130.67 146.63 135.75 151.98 189.02 177.91 196.35 179.32 189.02 190.32 175.21 220.2 145.33 232.18 134.06 255.15"/><polygon class="cls-6" points="73.74 222.73 92.34 188.91 118.27 179.04 130.67 153.68 189.02 181.02 171.83 214.84 141.38 227.52 130.67 247.54 96.57 235.52 73.74 222.73"/><polygon class="cls-10" points="80.78 221.04 88.11 206.67 109.81 219.91 103.33 230.06 80.78 221.04"/><polygon class="cls-10" points="90.37 203.56 98.26 192.85 118.27 206.67 112.35 214.84 90.37 203.56"/><polygon class="cls-10" points="109.81 233.44 115.73 222.73 134.06 232.03 128.42 241.62 109.81 233.44"/><polygon class="cls-10" points="118.27 218.36 125.88 209.77 143.07 219.63 135.75 227.52 118.27 218.36"/><polygon class="cls-10" points="104.32 189.19 119.68 182.71 134.06 195.11 121.94 201.59 104.32 189.19"/><polygon class="cls-10" points="121.94 180.73 127.57 172.56 145.33 182.71 139.41 192.15 121.94 180.73"/><polygon class="cls-10" points="130.67 170.02 135.75 161.28 152.09 168.61 148.71 176.22 130.67 170.02"/><polygon class="cls-10" points="156.89 182.71 160.83 172.56 180.56 183.84 176.62 192.15 156.89 182.71"/><polygon class="cls-10" points="153.36 186.94 145.33 198.49 166.75 209.77 175.21 198.35 153.36 186.94"/><polygon class="cls-10" points="130.67 206.67 141.38 200.47 162.24 212.59 147.87 218.36 130.67 206.67"/><polygon class="cls-2" points="66.41 221.89 69.86 216.18 62.04 203.85 56.12 210.68 60.98 218.65 66.41 221.89"/><polygon class="cls-2" points="119.19 158.47 112.35 155.08 108.76 148.74 115.95 137.54 118.27 146.63 123.13 150.43 119.19 158.47"/><polygon class="cls-11" points="138.88 250.11 142.26 241.62 151.88 246.73 154.42 254.13 155.27 264.48 142.26 265.86 140.89 252.12 138.88 250.11"/><polygon class="cls-11" points="190.71 192.85 193.81 186.09 204.38 190.32 205.79 204.69 195.36 207.93 190.71 192.85"/><polygon class="cls-12" points="115.45 174.53 124.19 202.65 138.88 227.52 145.33 232.18 134.06 255.15 128.42 251.48 66.41 227.52 90.37 183.84 115.45 174.53"/><polygon class="cls-6" points="141.38 122.42 145.61 146.52 158.44 145.47 157.66 122.42 141.38 122.42"/><polygon class="cls-6" points="174.29 121.05 183.38 122.53 183.38 160.16 177.89 162.69 174.29 121.05"/><polygon class="cls-6" points="185.5 122.53 194.38 123.59 192.47 156.35 185.5 159.31 185.5 122.53"/><polygon class="cls-2" points="37.52 141.87 44.7 137.54 37.52 118.72 24.13 116.19 37.52 141.87"/><polygon class="cls-2" points="187.61 106.04 180.56 81.73 194.38 88.92 194.38 106.04 187.61 106.04"/><polygon class="cls-2" points="115.98 59.39 111.3 73.63 95.3 65.24 96.28 57.13 115.98 59.39"/><polygon class="cls-11" points="213.68 225.83 211.36 237.25 221.29 242.6 229.47 244.15 224.82 230.06 213.68 225.83"/><polygon class="cls-11" points="228.62 166.36 233.27 155.37 246.24 159.31 253.15 164.81 245.39 177.63 228.62 166.36"/><polygon class="cls-11" points="250.04 103.01 255.47 91.03 267.73 97.02 269.56 107.24 259.13 107.52 250.04 103.01"/><polygon class="cls-7" points="146.46 121.68 148.1 131.67 152.8 131.67 152.2 120.94 146.46 121.68"/><polygon class="cls-7" points="143.29 136.38 152.8 135.99 153.65 148.21 145.19 147.9 143.29 136.38"/></svg>