<svg id="Layer_1" data-name="Layer 1" xmlns="http://www.w3.org/2000/svg" viewBox="0 0 288 288"><defs><style>.cls-1{fill:#474747;}.cls-2{fill:#595959;}.cls-3{fill:#b7b1a7;}.cls-4{fill:#3a3a3a;}.cls-5{fill:#ded6c4;}.cls-6{fill:#eae3d0;}.cls-7{fill:#d1d9df;}.cls-14,.cls-32,.cls-8{fill:#1c1c1c;}.cls-8{opacity:0.07;}.cls-9{fill:#423e3d;}.cls-10{fill:#9a9792;}.cls-11{fill:#a8a4a1;}.cls-12{fill:#5e5b55;}.cls-13{fill:#c3beba;}.cls-14,.cls-24{opacity:0.08;}.cls-15{fill:#a3a9aa;}.cls-16{fill:#8d9293;}.cls-17{fill:#d9dddd;}.cls-18{fill:#f8feff;opacity:0.3;}.cls-19{opacity:0.1;}.cls-20{fill:#e3d6c5;}.cls-21{fill:#ccbcac;}.cls-22{fill:#f9ecdb;}.cls-23{fill:#e8461e;}.cls-25{fill:#c91f12;}.cls-26{fill:#fafbf8;}.cls-27{fill:#fff9f5;opacity:0.15;}.cls-28{fill:#2b3990;}.cls-29{fill:#bcb3a2;}.cls-30{fill:#fff8e6;}.cls-31{fill:#ccccca;}</style></defs><title>bookpics</title><path class="cls-1" d="M57.45,211.8c-0.49,0-35.24,20.3-35.24,20.3L64,218l26.86,8.2L79.74,204.9Z"/><polygon class="cls-2" points="61.67 210.68 61.67 218.05 65.08 220.65 76.13 220.9 76.13 208.84 61.67 210.68"/><polygon class="cls-3" points="137.07 71.97 141.97 174.72 88.09 162.32 90.89 93 137.07 71.97"/><polygon class="cls-4" points="120.27 120.21 105.28 127.64 101.75 127.64 99.86 105.96 117.82 96.66 120.27 120.21"/><polygon class="cls-5" points="62.65 86.92 118.35 85.86 139.32 73.31 100.82 73.49 62.65 86.92"/><polygon class="cls-6" points="39.43 214.56 31.31 103.54 93.02 99.16 103.73 209.15 39.43 214.56"/><polygon class="cls-7" points="45.44 177.43 40.89 109.49 64.27 106.73 85.43 106.73 87.17 176.4 45.44 177.43"/><polygon class="cls-8" points="74.11 221.13 74.11 211.64 77.87 200.47 81.23 156.86 99.07 153.21 132.16 138.4 131.06 159.9 107.4 217.91 74.11 221.13"/><polygon points="50.47 155.35 51.87 170.45 82.3 169.96 82.3 154 81.23 153.21 81.23 168.62 52.91 169.29 51.28 154.33 50.47 155.35"/><polygon points="48.28 124.47 47.3 115.33 63.01 113.42 81.23 114.72 81.23 123.98 80.08 123.46 80.08 115.91 63.01 114.72 48.52 115.91 49.13 124.9 48.28 124.47"/><polygon points="246.69 208.84 253.71 215.7 250.54 225.44 239.66 228.61 235.76 215.37 240.84 207.25 246.69 208.84"/><polygon class="cls-9" points="226.59 215.78 219.28 225.12 224.23 233.88 236.9 234.94 242.84 225.76 236.98 215.18 226.59 215.78"/><polygon class="cls-10" points="242.84 208.14 242.84 217.73 248.35 212.94 247.78 205.71 242.84 208.14"/><polygon class="cls-10" points="230.32 216.18 232.52 223.17 229.63 228.61 238.16 222.4 236.33 213.19 230.32 216.18"/><polygon class="cls-11" points="133.78 67.1 160.57 54.6 240.84 56.65 257.74 60.28 251.68 75.46 144.21 77.43 133.78 67.1"/><polygon class="cls-12" points="134.35 71.97 127.2 77.33 133.78 86.92 134.35 80.26 132.4 77.33 134.91 75.46 134.35 71.97"/><polygon class="cls-13" points="246.69 72.78 257.74 60.28 247.78 205.71 234.87 216.18 240.84 80.66 246.69 72.78"/><polygon class="cls-13" points="131.75 156.33 133.78 67.1 190.62 67.1 246.69 72.78 234.87 216.18 194.07 216.72 131.75 156.33"/><polygon class="cls-14" points="132 145.59 185.66 148.95 197.76 158.56 204.25 204.05 179.25 207.25 127.2 168.3 131.75 158.38 132 145.59"/><polygon class="cls-15" points="88.09 165.28 90.89 160.19 131.75 156.33 168.21 155.35 186.06 161.32 168.21 180.82 101.66 177.46 88.09 165.28"/><polygon class="cls-16" points="93.55 159.41 123.92 155.35 145.4 154.33 179.62 155.35 183.83 158.15 182 164.41 178.89 165.56 177.22 160.1 172.63 158.19 145.4 157.14 99.14 161.37 94.94 163.74 92.56 168.3 90.89 163.18 93.55 159.41"/><polygon class="cls-17" points="85.43 222.32 88.37 239.74 111.88 250.38 144.21 254.3 173.04 250.8 193.34 239.32 196.55 222.32 85.43 222.32"/><polygon class="cls-15" points="77.87 205.87 77.87 221.13 109.78 236.94 137.35 239.88 165.34 240.58 196.27 225.47 205.09 218.89 204.25 204.05 77.87 205.87"/><polygon class="cls-16" points="81.23 204.05 77.87 205.87 106.7 222.39 142.95 227.28 171.22 224.35 185.92 218.05 204.25 204.05 198.23 203.07 81.23 204.05"/><polygon class="cls-15" points="90.89 186.42 115.38 181.38 176.4 182.08 179.2 198.94 167.3 217.07 114.68 218.05 100.82 203.07 90.89 186.42"/><path class="cls-16" d="M120.56,182.92c-0.84.7-8.26,6.3-8.26,6.3l3.5,20.43L141,212.87l24.21-2.94,5.6-21.69-7.84-8.4h18.19L187.6,200,166.88,218l-54.58-2L100.82,185.3,114.54,181Z"/><path class="cls-17" d="M190.54,159.41l-10.92-4.06,2.66,3.92-10.5,11.62-12,4.2-38.07,1.68-14.42-2.52-12.18-6.86L91.73,163l1.82-3.64-7.14,2.1V165l-5.18,39,26.17,13.86,18.05,3.22H165.2l22.25-10.64,10.78-7.42ZM167.3,213.85l-23.79,3.22-30-2.94-6-26.59,5.6-3.22,9.94,0.84L141,185.93l21.13-1.61,6.58-1.4,7.7,6Z"/><polygon class="cls-18" points="170.32 171.39 176.4 174.1 178.5 177.46 181.81 213.19 187.46 210.49 184.66 174.66 181.58 171.39 174.11 168.3 170.32 171.39"/><polygon class="cls-18" points="176.4 165.77 182.28 168.3 186.9 172.7 189.86 208.84 191.26 207.87 188.44 171.3 183.83 166.82 177.63 164.41 176.4 165.77"/><polygon class="cls-19" points="148.49 253.78 147.74 240.14 149.53 238.11 149.53 226.6 147.74 221.13 148.64 216.37 154.97 215.18 167.63 200.54 168.37 197.67 172.75 197.67 195.49 187.51 197.76 213.19 155.28 253.78 148.49 253.78"/><polygon class="cls-20" points="152.54 254.31 156.56 257.96 197.76 268.07 220.5 256.5 236.33 249.19 246.69 243.83 244.74 241.15 216.72 232.5 205.52 228.2 182.13 228.2 152.54 254.31"/><polygon class="cls-21" points="158.87 253.09 167.11 257.23 195.65 262.71 221.47 251.38 238.16 242.86 216.48 234.94 203.2 228.2 182.13 228.2 158.87 253.09"/><polygon class="cls-22" points="158.87 253.09 152.54 254.31 151.93 253.09 151.2 206.93 183.47 194.38 206.61 184.39 205.52 228.2 203.2 228.2 182.99 224.22 158.87 253.09"/><polygon class="cls-20" points="157.41 209.12 203.2 190.24 202.11 225.44 203.2 228.2 184.45 236.89 158.87 253.09 157.41 251.63 157.41 209.12"/><polygon class="cls-22" points="162.04 215.53 172.27 209.69 179.25 207.25 179.25 219.11 163.34 228.2 162.04 215.53"/><polygon class="cls-22" points="164.15 233.24 180.55 225.44 181.36 236.16 165.28 245.41 164.15 233.24"/><polygon class="cls-22" points="183.47 216.18 183.47 204 197.76 197.67 197.76 210.01 183.47 216.18"/><polygon class="cls-22" points="183.47 221.7 197.76 214.56 199.22 225.44 183.47 233.88 183.47 221.7"/><polygon class="cls-23" points="154.97 200.47 157.41 191.58 162.04 184.88 173.73 182.81 179.25 184.39 165.2 195.6 164.15 197.67 154.97 200.47"/><polygon class="cls-20" points="169.83 250.69 186.07 238.76 192.97 241.6 176.9 253.78 169.83 250.69"/><polygon class="cls-20" points="190.62 236.77 203.2 230.31 208.32 232.38 197.24 239.57 190.62 236.77"/><polygon class="cls-20" points="180.31 255.28 187.13 248.7 195.65 242.86 201.5 246.27 188.47 255.28 186.27 257.96 180.31 255.28"/><polygon class="cls-20" points="189.44 257.96 191.35 255.65 204.54 247.73 212.22 249.8 196.02 257.96 194.07 259.91 189.44 257.96"/><polygon class="cls-20" points="200.83 240.79 211 233.88 217.94 237.34 206.68 243.83 200.83 240.79"/><polygon class="cls-20" points="209.38 245.41 216.11 240.91 220.99 238.11 229.63 240.79 215.02 247.73 209.38 245.41"/><polygon class="cls-9" points="200.83 269.29 205.96 265.8 214.49 269.61 220.5 270.99 213.92 275.54 211.32 278.87 200.83 269.29"/><polygon class="cls-9" points="241.12 248.13 247.7 244.6 254.85 246.37 259.96 247.2 257.12 250.41 250.14 256.13 241.12 248.13"/><polygon class="cls-24" points="103.94 172.43 105.91 198.99 113.77 217.11 116.8 219.63 114.86 223.53 114.63 237.5 118.67 237.93 120.27 251.44 111.88 250.42 88.36 239.78 85.9 225.15 77.87 221.17 77.87 205.92 81.23 204.1 86.41 165.06 86.41 161.56 93.54 159.46 115.5 156.53 119.62 176.4 107.26 174.24 99.3 169.81 103.94 172.43"/><polygon class="cls-25" points="154.97 75.46 206.61 76.43 216.36 78.81 214.41 85.86 154.97 84.89 154.97 75.46"/><polygon class="cls-11" points="165.51 97.6 165.51 137.28 167.5 141.04 198.66 144.87 200.96 142.38 204.52 99.72 202.7 94.12 167.5 92.38 165.51 97.6"/><polygon class="cls-12" points="172.75 103.54 181.4 94.87 191.26 96.09 189.44 132.14 198.51 133.36 197.76 142.37 170.64 139.45 169.83 128.98 179.25 130.66 180.31 108.72 173.73 108.72 172.75 103.54"/><polygon class="cls-12" points="243.3 72.43 247.78 70.51 236.33 218.05 233.9 218.05 243.3 72.43"/><polygon class="cls-12" points="248.45 81.9 248.15 79.4 249.37 78.49 256.67 81.9 263.19 76.54 255.27 72.1 256.06 68.81 267.33 75.75 257.04 85.86 248.45 81.9"/><polygon class="cls-26" points="247.78 70.51 249.34 69.77 237.71 215.18 236.33 218.05 247.78 70.51"/><polygon class="cls-12" points="175.8 60.28 182.01 45.32 219.4 47.49 220.62 61.74 212.46 61.74 211.49 50.54 188.09 49.06 183.83 60.77 175.8 60.28"/><polygon class="cls-27" points="229.63 56.36 216.99 69.77 208.32 216.53 216.36 216.43 226.67 70.51 238.16 56.65 229.63 56.36"/><polygon class="cls-27" points="242.84 57.08 231.06 71.19 220.62 216.37 223.24 216.18 234.87 71.58 245.59 57.67 242.84 57.08"/><polygon class="cls-23" points="194.07 186.71 196.87 179.64 200.16 174.41 212.34 171.73 219.28 171.73 211.73 177.09 207.95 181.84 203.2 182.08 194.07 186.71"/><polygon class="cls-28" points="45.44 124.47 56.31 123.22 57.13 139.7 47.22 140.86 45.44 124.47"/><rect class="cls-28" x="68.33" y="123.46" width="4.55" height="4.84"/><rect class="cls-28" x="77.87" y="123.22" width="4.43" height="5.94"/><polygon class="cls-28" points="68.33 133.52 72.88 133.52 72.88 137.58 69.14 138.4 68.33 133.52"/><polygon class="cls-28" points="78.73 133.52 82.3 133.52 82.3 138.4 78.73 137.58 78.73 133.52"/><polygon class="cls-28" points="49.66 148.3 82.3 147.49 82.3 154 50.47 155.35 49.66 148.3"/><polygon points="58.93 123.22 62.04 123.22 62.65 139.7 59.91 139.7 58.93 123.22"/><polygon points="54.36 159.32 78.58 158.56 78.65 159.87 54.41 160.47 54.36 159.32"/><polygon points="54.46 161.48 78.69 160.73 78.75 162.03 54.52 162.64 54.46 161.48"/><polygon points="54.57 163.79 78.8 163.04 78.86 164.34 54.63 164.95 54.57 163.79"/><polygon class="cls-29" points="82.3 83.83 102.44 75.46 129.46 75.02 114.23 83.79 82.3 83.83"/><polygon class="cls-30" points="31.31 103.54 62.65 86.92 118.35 85.86 93.02 99.16 31.31 103.54"/><polygon class="cls-31" points="105.93 113.87 107.54 107.3 111.49 103.67 116.73 105.71 117.82 117.16 114.66 121.54 108.81 123.22 105.93 113.87"/><polygon class="cls-4" points="111.37 113.93 111.88 110.22 114.35 110.22 115.03 113.93 112.89 116.13 111.37 113.93"/><polygon class="cls-32" points="20.05 244.44 22.21 232.1 27.53 230.31 35.85 237.38 33.58 246.27 25.62 246.27 20.05 244.44"/></svg>