<svg id="Layer_1" data-name="Layer 1" xmlns="http://www.w3.org/2000/svg" xmlns:xlink="http://www.w3.org/1999/xlink" viewBox="0 0 288 288"><defs><style>.cls-1{fill:#ffe600;}.cls-2{fill:url(#linear-gradient);}.cls-3{fill:#c00;}.cls-4{fill:#ff7900;}.cls-5{fill:#3d3d3d;}.cls-6{fill:url(#linear-gradient-2);}.cls-7{fill:url(#linear-gradient-3);}.cls-8{fill:url(#linear-gradient-4);}.cls-9{fill:url(#linear-gradient-5);}.cls-10{fill:url(#linear-gradient-6);}</style><linearGradient id="linear-gradient" x1="126.47" y1="55.71" x2="126.47" y2="77.31" gradientUnits="userSpaceOnUse"><stop offset="0" stop-color="#b73333"/><stop offset="0.2" stop-color="#b33131"/><stop offset="0.4" stop-color="#a72b2b"/><stop offset="0.6" stop-color="#942121"/><stop offset="0.8" stop-color="#781313"/><stop offset="0.99" stop-color="#550101"/><stop offset="1" stop-color="#530000"/></linearGradient><linearGradient id="linear-gradient-2" x1="107.45" y1="55.71" x2="107.45" y2="225.4" xlink:href="#linear-gradient"/><linearGradient id="linear-gradient-3" x1="172.12" y1="30.01" x2="172.12" y2="225.4" xlink:href="#linear-gradient"/><linearGradient id="linear-gradient-4" x1="87.34" y1="48.8" x2="87.34" y2="76.01" xlink:href="#linear-gradient"/><linearGradient id="linear-gradient-5" x1="123.52" y1="10.78" x2="123.52" y2="42.32" xlink:href="#linear-gradient"/><linearGradient id="linear-gradient-6" x1="137.99" y1="44.26" x2="137.99" y2="55.71" xlink:href="#linear-gradient"/></defs><title>bookpics</title><polygon class="cls-1" points="156.35 49.98 159.73 57.73 156.35 65.86 165.2 58.52 156.35 49.98"/><polygon class="cls-1" points="126.11 55.71 126.11 64.64 129.64 65.86 133.09 60.78 144.76 60.78 145.33 55.71 131.36 54.27 130.64 44.26 146.34 41.74 139.64 45.34 139.64 50.52 156.35 57.44 152.39 64.64 154.26 68.81 128.34 73.71 125.17 71.98 123.52 66.65 126.11 55.71"/><polygon class="cls-2" points="130.21 77.31 120.49 69.75 126.11 55.71 124.6 68.24 132.44 73.42 130.21 77.31"/><polygon class="cls-1" points="113.15 36.27 124.42 23.31 162.47 23.31 138.42 10.78 111.78 18.99 113.15 36.27"/><polygon class="cls-1" points="72.11 76.01 104.44 49.98 102.56 48.8 83.84 54.9 72.11 76.01"/><polygon class="cls-1" points="140.71 225.4 121.72 202.8 98.1 190.92 88.96 138.36 95.87 129.79 98.1 113.6 77.51 85.73 109.05 55.71 99.83 83.36 102.92 90.7 114.44 100.2 148.36 81.41 170.6 65.86 163.69 45.56 128.34 30 165.2 37.35 179.24 42.32 197.6 76.01 160.78 87.89 180.11 103.01 177.3 116.19 210.78 130.88 196.96 174.07 185.72 177.1 183.56 197.4 166.72 202.59 158.2 225.4 152.03 194.81 130.64 182.93 140.71 225.4"/><polygon class="cls-3" points="98.1 89.12 99.83 83.36 114.52 98.04 136.12 87.1 145.33 95.02 113.94 104.38 98.1 89.12"/><polygon class="cls-4" points="172.12 53.42 176.02 71.46 163.19 80.76 191.5 77.87 172.12 53.42"/><polygon class="cls-4" points="103.63 179 99.34 147.28 113.83 127.07 104.44 104.38 115.58 113.29 133.63 102.83 164.21 126.34 169.09 140.55 182.08 140.84 187.28 167.63 181.34 179 181.04 197.72 165.83 208.81 156.98 228.11 142.45 228.11 122.35 203.52 108.61 195.42 103.63 179"/><polygon points="120.49 160.47 150.08 255.5 127.19 273.65 156.35 264.58 144.04 170.19 136.91 154.85 120.49 160.47"/><polygon class="cls-5" points="139.51 113.03 128.34 145.26 120.49 160.47 136.56 169.28 156.35 264.58 173.41 285.31 160.67 253.78 152.24 156.79 160.45 119 158.15 98.04 145.33 93.08 136.37 95.5 123.73 142.54 134.75 143.62 139.51 113.03"/><polygon points="128.34 73.71 140 63.92 154.26 68.81 155.27 81.48 145.33 95.02 134.68 88.4 128.34 73.71"/><polyline points="118.92 124.14 145.33 95.74 156.42 101.64 152.68 119.07 150.8 111.44 144.9 109.92 144.9 101.64 125.89 141.82 130.21 142.54 152.24 135.48 158.15 98.04 172.4 104.38 162.04 150.03 130.79 146.86 114.66 145.85 106.89 133.18 114.52 138.07 127.48 97.04 139.14 95.02 129.35 119.93"/><polygon class="cls-6" points="140.71 225.4 120.49 208.35 97.53 200.57 74.2 142.68 93.78 129.15 93.78 116.19 74.2 87.1 90.33 66.51 109.05 55.71 80.82 87.1 103.28 115.04 103.57 134.91 93.2 146.43 109.62 195.28 122.29 196.83 140.71 225.4"/><polygon class="cls-7" points="158.2 225.4 160.02 207.77 165.78 196.83 179.31 192.43 179.31 172.92 192.28 170.04 202.07 130.3 172.4 118.67 176.72 105.53 155.27 89.12 159.44 87.1 163.19 80.76 193.43 76.39 178.67 45.13 128.34 30 155.27 31.8 180.75 40.05 202.07 79.47 162.32 88.54 184.79 101.93 182.48 113.7 215.89 125.69 207.25 177.24 193.43 181.56 192.85 197.98 165.78 210.07 158.2 225.4"/><polygon class="cls-8" points="72.11 76.01 83.13 54.2 102.56 48.8 85.28 56.79 72.11 76.01"/><polygon class="cls-9" points="108.61 42.32 108.61 16.83 138.42 10.78 114.44 21.58 113.15 36.27 108.61 42.32"/><polygon class="cls-10" points="130.64 55.71 130.64 44.26 132.59 44.26 132.59 53.55 145.33 55.71 130.64 55.71"/><polygon class="cls-3" points="156.35 49.98 163.69 59.81 165.2 58.52 156.35 49.98"/><polygon class="cls-1" points="119.27 64.64 123.52 48.8 117.54 53.84 119.27 64.64"/><polygon points="108.11 214.25 113.65 215.47 116.75 218.28 114.08 222.89 106.81 217.92 108.11 214.25"/><polygon points="108.47 226.13 109.84 224.33 111.78 227.06 110.13 227.71 108.47 226.13"/><polygon points="188.82 214.68 188.46 212.38 191.99 212.38 191.12 216.12 188.82 214.68"/><polygon points="197.96 99.7 194 105.89 201.85 105.89 197.96 99.7"/><polygon points="202.64 97.61 201.85 94.73 204.73 95.02 202.64 97.61"/><polygon points="82.55 117.99 90.76 119.21 86.22 125.26 83.13 121.62 82.55 117.99"/><polygon points="190.26 47.65 195.88 44.26 195.88 58.88 190.26 47.65"/><polygon points="167.8 145.31 188.46 147.29 173.61 158.45 184.79 164.39 163.58 160.97 176.58 150.97 167.8 145.31"/></svg>