<!-- Generator: Adobe Illustrator 19.2.1, SVG Export Plug-In  -->
<svg version="1.1"
	 xmlns="http://www.w3.org/2000/svg" xmlns:xlink="http://www.w3.org/1999/xlink" xmlns:a="http://ns.adobe.com/AdobeSVGViewerExtensions/3.0/"
	 x="0px" y="0px" width="16.8px" height="39.2px" viewBox="0 0 16.8 39.2" style="enable-background:new 0 0 16.8 39.2;"
	 xml:space="preserve">
<style type="text/css">
	.st0{fill:#EFEFDA;}
	.st1{fill:#E9EAD3;}
	.st2{fill:#F5F4ED;}
</style>
<defs>
</defs>
<g>
	<path class="st0" d="M0.9,3.7c0,0,1.8-3,4.6-1.7s4.9,0.7,4.9,0.7l1.4,0.6v3.2l-1.5,5.4l-0.4,3.6l0.9,5.1l2,1c0,0,1.8,3.2,3.3,3.3
		s0,1.9,0,1.9s-3.8,0.3-5.2-0.9v9.2c0,0-0.7,3.4-2.7,2.8c0,0-1.8,3.1-3-0.6c0,0-1.2,2.8-2.5-2.1c0,0-2,3.1-2.4-3.5L0,24.6
		c0,0,1.4-3,1.6-5.8C1.6,18.8-0.8,5.3,0.9,3.7z"/>
	<path class="st1" d="M3.2,2.5c0,0-2.6,0.6-2.2,3.5s1.2,12.2,1.2,12.2l-0.4,3.8L1,24c0,0-0.7,9.9,0.5,10.6c0,0,0.9-0.4,0.9-0.9
		c0,0,1.9-12.4,1.9-14C4.4,19.7,6.5,3.8,3.2,2.5z"/>
	<path class="st2" d="M7.4,7c0,0,0.4-5.5,3-2c0,0,1.1,4.8-1.5,8.2C8.9,13.2,7.2,13,7.4,7z"/>
	<path class="st2" d="M8.3,16.1c0,0-0.1-1.7,0.8-1.1c0.9,0.6,0,1.8,0,1.8S8.3,17.4,8.3,16.1z"/>
	<path class="st0" d="M6.7,1.4c0,0-1.5-1.8,0.8-1.3s2.2,1.8,2.2,1.8S8.1,2.6,6.7,1.4z"/>
</g>
</svg>
