<!-- Generator: Adobe Illustrator 19.2.1, SVG Export Plug-In  -->
<svg version="1.1"
	 xmlns="http://www.w3.org/2000/svg" xmlns:xlink="http://www.w3.org/1999/xlink" xmlns:a="http://ns.adobe.com/AdobeSVGViewerExtensions/3.0/"
	 x="0px" y="0px" width="106.4px" height="173.7px" viewBox="0 0 106.4 173.7" style="enable-background:new 0 0 106.4 173.7;"
	 xml:space="preserve">
<style type="text/css">
	.st0{fill:#F15A24;}
	.st1{fill:#F7931E;}
	.st2{fill:#FCEE21;}
</style>
<defs>
</defs>
<g>
	<g>
		<path class="st0" d="M95.6,86.8c0,0-16.5-19.3,6.7-44.9c0,0-15.7,2.7-26.8,17.3C79.8,45.5,79.5,23.6,51.8,0
			c0,0,12.7,22.4-6.3,46.4c0,0-13,12.7-16.4,30.9c-0.6-10.6-5-25.9-24.3-33.1c0,0,16.7,20.4,0,56.8c0,0-27.7,55.4,49.5,72.7
			c0,0,52.2-14.9,52-57.6C106.4,116.1,105.2,100.3,95.6,86.8z"/>
		<path class="st1" d="M79.1,161.9c5.4-5.8,9.6-13.4,9.5-23.2c0,0-0.7-10.6-7.1-19.5c0,0-11-12.8,4.5-29.9c0,0-10.4,1.8-17.9,11.5
			c2.8-9.2,2.6-23.7-15.8-39.5c0,0,8.4,14.9-4.2,30.9c0,0-8.7,8.5-10.9,20.6c-0.4-7.1-3.3-17.3-16.2-22c0,0,11.1,13.6,0,37.8
			c0,0-9.9,19.9,5.1,35c7.3,4,16.6,7.5,28.2,10.1C54.4,173.7,66.5,170.2,79.1,161.9z"/>
		<path class="st2" d="M69.5,167.4c3.5-3.7,6.1-8.5,6.1-14.8c0,0-0.5-6.7-4.5-12.4c0,0-7-8.1,2.8-18.9c0,0-6.6,1.1-11.3,7.3
			c1.8-5.8,1.7-15-10-25c0,0,5.3,9.4-2.7,19.6c0,0-5.5,5.4-6.9,13.1c-0.2-4.5-2.1-10.9-10.2-14c0,0,7.1,8.6,0,23.9
			c0,0-6.1,12.2,2.8,21.7c5.4,2.2,11.7,4.1,18.8,5.7C54.4,173.7,61,171.8,69.5,167.4z"/>
	</g>
</g>
</svg>
