<!-- Generator: Adobe Illustrator 19.2.1, SVG Export Plug-In  -->
<svg version="1.1"
	 xmlns="http://www.w3.org/2000/svg" xmlns:xlink="http://www.w3.org/1999/xlink" xmlns:a="http://ns.adobe.com/AdobeSVGViewerExtensions/3.0/"
	 x="0px" y="0px" width="16px" height="36.6px" viewBox="0 0 16 36.6" style="enable-background:new 0 0 16 36.6;"
	 xml:space="preserve">
<style type="text/css">
	.st0{fill:#EFEFDA;}
	.st1{fill:#E9EAD3;}
	.st2{fill:#F5F4ED;}
</style>
<defs>
</defs>
<g>
	<path class="st0" d="M4.2,4.4c0,0,3.2-4,6.9-1.2c0,0,3.3,1.7,4.1,1.4L16,5.2l-0.2,1.8l-0.9,0.8l1.1,15.2l-0.8,1.9
		c0,0,1.8,7.6-2,5.5s0,0,0,0l-1.9,3.2l-1.6,2.5l-3.1,0.6l-1.2-0.6l-3.4-0.5c0,0-2.6-0.8-1.6-3.2s2.8-5.3,2.8-5.3l2.2-2.6l0.8-4.5
		c0,0,0.3-8.1-1.2-10.2L4.1,7.9L4.2,4.4z"/>
	<path class="st0" d="M12.5,2.7c0,0-5.4-1.6-2.8-2.5s5.8,2.5,5.8,2.5S15.2,5.2,12.5,2.7z"/>
	<path class="st1" d="M6.8,13.3c0,0-0.4-5-1.3-5S5.1,4.5,5.1,4.5s1.2-2.1,2.6,1s1.6,16.1,1.6,16.1L6,29.1l-3,3.7
		c0,0-1.9,0.3-0.3-1.8s2.1-4.2,2.1-4.2s2.9-4.6,2.8-6.7S6.8,13.3,6.8,13.3z"/>
	<path class="st2" d="M11.9,10.3c0,0-3.1-5.9,0-4.8s1.9,6,1.9,6S12.2,12.1,11.9,10.3z"/>
	<path class="st2" d="M12.6,15c0,0-1.1-2.4,0.6-1.8s0,2.2,0,2.2S12.8,15.6,12.6,15z"/>
</g>
</svg>
