<?xml version="1.0" encoding="utf-8"?>
<!-- Generator: Adobe Illustrator 19.2.1, SVG Export Plug-In . SVG Version: 6.00 Build 0)  -->
<svg version="1.1" id="Layer_1" xmlns="http://www.w3.org/2000/svg" xmlns:xlink="http://www.w3.org/1999/xlink" x="0px" y="0px"
	 viewBox="0 0 612 792" style="enable-background:new 0 0 612 792;" xml:space="preserve">
<style type="text/css">
	.st0{fill:#96D9ED;}
	.st1{fill:#A33794;}
	.st2{fill:#802F7B;}
	.st3{fill:#371537;}
	.st4{fill:#2D5054;}
	.st5{fill:#AE529F;}
	.st6{fill:#BF61A6;}
	.st7{fill:none;}
	.st8{fill:#E7F6FC;}
	.st9{fill:#CDEBEF;}
	.st10{fill:#496AB2;}
	.st11{fill:#3E9ED8;}
	.st12{fill:#7496CE;}
	.st13{fill:#9FDCF2;}
	.st14{fill:#5B86C4;}
	.st15{fill:#1685C3;}
	.st16{fill:#6F8FC9;}
	.st17{fill:#4B8CCA;}
	.st18{fill:#13506C;}
	.st19{fill:#367DC0;}
	.st20{fill:#1F7AB5;}
	.st21{fill:#2E8CCB;}
	.st22{fill:#1C6A8A;}
	.st23{fill:#07517A;}
</style>
<polygon class="st0" points="1921.1,15.3 1890.6,43.6 1887.1,89.3 1928.4,61.8 "/>
<polygon class="st1" points="2004.2,209.4 1874.7,266.2 1907,139.7 "/>
<polygon class="st2" points="2004.2,209.4 2006.7,75.2 1907,139.7 "/>
<polygon class="st3" points="1867.6,347.1 1944.5,307.9 1877.7,270.9 "/>
<polygon class="st4" points="1967.5,247.1 1940.3,231.4 1945,265.1 1976,274.4 "/>
<polygon class="st5" points="1931.4,281.2 1907.4,323.8 1890,282.1 "/>
<polygon class="st6" points="1931.4,281.2 1904.2,243.6 1890,282.1 "/>
<polygon class="st1" points="1881.2,680.9 1874.6,610.8 1827.4,655.4 "/>
<g>
	<polygon class="st7" points="473.7,101.1 542.9,32 612,101.1 612,0 0,0 0,101.1 	"/>
	<path class="st8" d="M473.7,101.1H0v353.2l2.1-0.6l14.2-21.6l115.4,85.9l31-23.9l-9.4-58.3l40.9-61.5l25.2,75.9l-1.2,1.1l71.1-54.7
		L262,379.1l-13.2-51.6l52.8,23.2l0.7,36l85-65.5l70.2,86.3l19.2-7.4l25.4,10.1l-25.6,15l-10.7-7.5L549.2,520l11.2-12.4l4.2,24.1
		l23.2-36.1l15.7,10.5l-6.6-27.5l15.1,5.6V373.4l-11.5,2.1l9.4-18l2,0.1V101.1l-69.1,69.1L473.7,101.1z M62.1,378.2l-14.1-21
		l12.5-20.5l8.8,19.3L62.1,378.2z M136.8,489.7l-22.7-4.2l12.2-14.2l21.8-0.9L136.8,489.7z M149.5,327.6l-22.7-4.2l12.2-14.2
		l21.8-0.9L149.5,327.6z M413.7,280.2l-14-15.9l23-1.4l10.3,19.2L413.7,280.2z M530.6,438.9l-23-19.1l31.6-6.9l18.5,24.5
		L530.6,438.9z M545.9,313.3l-23.7,15l3.7-17.5l20-17.3L545.9,313.3z"/>
	<polygon class="st9" points="475.5,670.5 476.1,669.6 474.2,669.2 	"/>
	<path class="st9" d="M189.8,527.7l-4.6,30.3l33.4,24.8l5.8-3.1l23.9-35.9l6.6,19.8l50.3-26.6l25.4-60.7l-0.1-7.2l5.8-6.4l1.4-3.3
		l2.7-1.2l8.5-9.4l0.9,5.2l73.7-32.9L395.3,531l-25.3,4l-11.6,15.7l26.6,27.3l3.7,0.6l-1.5,1.7l32.2,33l-8.9-36.8l35.3,13.1
		l-2.2-24.7l23,14.9l-2.4,16.6l18.1,6.7l16,31.6l26.5-41.3l-0.1-11.4l-8.1,12l-34.9-5.6l18.7-18.8l24.1-0.9l-0.3-21.2l24.8-27.5
		l-83.2-102.2l-12.4-8.7l4.1-1.6l-70.2-86.3l-85,65.5l0.3,18.7l-13.4-8.7l-71.1,54.7L164,502.2l-1.3-8l-31,23.9l30.5,22.7
		L189.8,527.7z M515.5,498.4l17.5,8.1l-14.6,8.8l-18.4-3.7L515.5,498.4z M466,452.1l10.3,19.2l-19.2-2l-14-15.9L466,452.1z
		 M454.5,522.1l43.5,2l-23,30.9l-41.7,7.8L454.5,522.1z M377.3,381.9l16.3,15.4l-9.3,21.2l-11-15.1L377.3,381.9z M326.2,426
		l3.2,16.8l-9.9,15.9l-7-19.1L326.2,426z M216.5,456.1l23,14.9l-3.7,25.8l-5.2-4.7l-23,15.9l-0.3-24.9l10.6-11.7L216.5,456.1z
		 M217.7,521.8l21.8-0.9l-11.3,19.3l-22.7-4.2L217.7,521.8z"/>
	<path class="st10" d="M65.2,480.3l-35.1,47.6l-5.2-1.1l37.4,60.7l-12.4,63.3L61.7,666l8.3-4.4l-1-2.1l3.7,0.6l47.1-25L73.7,622
		l37.4-31.5l27.1,1.3l-0.5-39.3l24.4-11.6l-30.5-22.7L16.3,432.1L2.1,453.7l14.4-4.3L2.6,485L0,485.2v7l10.7-10.4L65.2,480.3z
		 M75.8,539.7l20-17.3l0,19.7l-23.7,15L75.8,539.7z"/>
	<polygon class="st10" points="0,521.6 0,565.9 18.3,525.4 	"/>
	<polygon class="st10" points="182.3,578.1 163.8,593 164.8,593 135.8,626.7 218.6,582.8 185.3,558 	"/>
	<path class="st11" d="M488,785.2l-21.8-36.7l1.9,9.9l-9.9,15.9l-7-19.1l11.9-11.9l-14.5-24.3l-28.7-2.9l-15.3-17.3l-8.6,22.8
		l-21.6-27.9l8.8-12.5l-2.5-3.8l12.5-20.5l8.8,19.3l-1.3,3.8l2.2,4.1l34.6-2l13.9,25.9l24.1-37.5l-1.3-1.3l-43.2-8.5l-11.5-47.5
		l-32.2-33l-49.7,54l-76.9,6.3l-45.2,42.3l-6.2-38.4l-24.7,29l-40.8-11.8l29.3-25l35.2,1.5l-4.4-27.4l20.6-30.9l-5.8,3.1l-82.8,43.9
		l-9,10.4l-7-2l-47.1,25l20.9,3.3l17,21.5L81,685.1l-11-23.5l-8.3,4.4l41.7,54.2l11.2-7l-10.9-17.1l29.9-46.4l17.4,40.6l15.7-9.9
		l98.1,18.4l-81.2,71.5l-63.4-28.1l29,37.7l14-11.9l17.5,8.1l-10,6.1l36.9,3.5l-4.8,6.4h0.5l19.8-12.2l0,12.2h25.4l23.1-34.7
		l-14.1,0.5l-19.9-17l27.8-5.6l10.9,14.9l16.5-24.7l22.1,66.6h40.8l11.1-24.5l15.1,24.5h32l-9.9-32.3L488,785.2z M213.1,781.3
		l-23.3,0.9l14.8-20.5l23.5,4.6L213.1,781.3z M438.7,730l-4.9,33.6l-22.2-20.2l-2.9-32.9L438.7,730z M267.3,726.5l-0.5-33.1l28.2-27
		l7.9,38.8L267.3,726.5z M321,704.4l11.4-20.8l-1,0.4l18.1-55.3l54.9-6.3L382,665.7l-25.5,9.2L372,711l-38.6,42.8L321,704.4z
		 M372.2,773.2l-10.7-25.3l21-18.1l5,22.2L372.2,773.2z"/>
	<polygon class="st11" points="271.9,614.8 304.2,565.7 385.1,577.9 358.4,550.6 352.7,558.3 315.4,563.3 326,542 301.5,545.9 
		305.2,537 254.9,563.6 	"/>
	<polygon class="st11" points="166.2,784.9 150.8,781.7 158.7,792 163.3,792 167,784.4 	"/>
	<path class="st12" d="M603.5,506.1l-15.7-10.5l-23.2,36.1l5.8,33.2L525,596.3l0-2.9l-26.5,41.3l21.9,43.3l26.5,11.6l1.4,73.7
		L519.9,745l-12.6,21.3l-32.1-3.2l18.3-22l17-2.2l-17-11l-14.8-57.8l-2.6-0.5l-0.6,0.9L451.4,708l6.4,12l-9.2-0.9l14.5,24.3l1.7-1.7
		l1.3,6.9l21.8,36.7l22.4,6.8h4.1l-0.7-5.6l39.6-24.3l-1.3,29.9H612v-2.4l-30.8-8.5l-16.8-103l47.5,21.8l0.1-0.4v-44.1L598.3,618
		l13.7-13.6v-2.5l-11.3-16.9l11.3-18.6v-43.9l-4.8-0.9L603.5,506.1z M599.5,640.9L580.1,667l-37.3,5l7.6-15.4l-29.3-5.5l23.9-27.8
		l42.7-1.9l-10.1,17.4L599.5,640.9z"/>
	<path class="st13" d="M8.3,733.8l45.1-9.1L52,709.5l23,14.9l-2.4,16.7l3,4.2l17.1-37.8l8.6,14l2-1.3L61.7,666l-11.8-15.3l-4.3,22.1
		L0,620.2v35.9l18.5-10.3l-2.1,24.7L0,685.4v22l7.9,3.4L8.3,733.8z M19.7,685.8l33.3-1.4l14.9,20.4L40,702.6L19.7,685.8z"/>
	<polygon class="st13" points="9.4,792 29.1,792 9,774.8 	"/>
	<polygon class="st13" points="147.8,781.1 149.3,779.8 120.3,742.2 111.8,738.4 131.1,769.6 126.7,792 158.7,792 150.8,781.7 	"/>
	<polygon class="st14" points="355.9,792 382.1,792 367,767.5 	"/>
	<polygon class="st15" points="581.2,781 612,789.6 612,751.5 	"/>
	<polygon class="st16" points="611.9,699.9 564.4,678 581.2,781 612,751.5 612,725.6 602.9,729.1 	"/>
	<polygon class="st17" points="54.3,734.7 53.4,724.7 8.3,733.8 9,774.8 29.1,792 35.7,792 55.4,735.8 	"/>
	<polygon class="st14" points="75.7,745.3 72.6,741.1 71.3,750.2 55.4,735.8 35.7,792 66.8,792 58.7,782.6 	"/>
	<polygon class="st18" points="203.5,792 223.3,792 223.3,779.8 	"/>
	<polygon class="st19" points="0,707.4 0,716.5 7.9,710.9 	"/>
	<polygon class="st20" points="8.3,733.8 7.9,710.9 0,716.5 0,792 9.4,792 9,774.8 	"/>
	<polygon class="st18" points="404.2,759.7 414.1,792 510.4,792 488,785.2 	"/>
	<polygon class="st19" points="264.9,698.7 166.8,680.4 183.7,770.2 	"/>
	<polygon class="st18" points="111.8,738.4 120.3,742.2 183.7,770.2 166.8,680.4 151.1,690.2 152.9,694.5 135,745.2 114.6,713.1 
		103.4,720.2 101.4,721.4 	"/>
	<path class="st19" d="M304.2,565.7l-32.3,49.1l3.9,11.6l-15.1,14.1l76.9-6.3L304.2,565.7z M284.9,628.4l-3.9-22.8l17.5,6.5
		l8.5,20.1L284.9,628.4z"/>
	<polygon class="st20" points="385.1,577.9 304.2,565.7 337.6,634.2 387.3,580.2 388.8,578.5 	"/>
	<polygon class="st21" points="403,684.1 407.2,692.1 404.7,698.8 419.9,716.1 448.6,719.1 457.8,720 451.4,708 437.5,682.1 	"/>
	<polygon class="st17" points="152.9,694.5 103.7,696.1 114.6,713.1 135,745.2 	"/>
	<polygon class="st14" points="152.9,694.5 151.1,690.2 133.6,649.6 103.7,696.1 	"/>
	<polygon class="st17" points="348,655.2 356.5,674.9 382,665.7 349.6,628.6 331.5,683.9 332.4,683.6 	"/>
	<polygon class="st14" points="404.5,622.3 349.6,628.6 382,665.7 	"/>
	<polygon class="st22" points="372,711 356.5,674.9 348,655.2 332.4,683.6 321,704.4 333.4,753.9 	"/>
	<polygon class="st23" points="58.7,782.6 66.8,792 126.7,792 131.1,769.6 	"/>
	<polygon class="st14" points="92.8,707.5 75.7,745.3 58.7,782.6 131.1,769.6 111.8,738.4 101.4,721.4 	"/>
	<polygon class="st23" points="194.2,374.4 153.3,435.9 219.4,450.3 	"/>
	<polygon class="st14" points="218.2,451.5 219.4,450.3 153.3,435.9 162.7,494.2 164,502.2 	"/>
	<polygon class="st17" points="482.5,603.1 430.9,660.6 474.2,669.2 476.1,669.6 478.6,670.1 475.6,658.4 520.3,678 498.4,634.7 	
		"/>
	<polygon class="st14" points="482.5,603.1 464.4,596.4 463,605.5 446,590.1 445.9,589.6 410.6,576.4 419.5,613.2 430.9,660.6 	"/>
	<polygon class="st12" points="600.7,584.9 612,601.9 612,566.4 	"/>
	<polygon class="st19" points="340.3,458.1 337.7,459.3 338.4,460.2 	"/>
	<polygon class="st19" points="353.1,478.5 395.3,531 423.4,421 349.8,453.9 354,477.9 	"/>
	<polygon class="st18" points="337.7,459.3 336.3,462.6 338.4,460.2 	"/>
	<polygon class="st18" points="326,542 332.7,528.4 372.1,532.2 370,535 395.3,531 353.1,478.5 330.8,493.9 330.6,476.2 305.2,537 
		301.5,545.9 	"/>
	<polygon class="st23" points="293,725.4 276.5,750.1 281.5,756.9 271.8,757.3 248.7,792 315.1,792 	"/>
	<polygon class="st17" points="570.4,564.9 564.6,531.7 560.4,507.5 549.2,520 524.4,547.4 	"/>
	<polygon class="st14" points="524.4,547.4 524.6,568.7 534,568.3 524.8,582 524.9,593.4 525,596.3 570.4,564.9 	"/>
	<polygon class="st17" points="164.8,593 163.8,593 138.5,613.2 138.2,591.8 111.1,590.5 126.9,637.1 135.8,626.7 	"/>
	<polygon class="st14" points="111.1,590.5 73.7,622 119.9,635.2 126.9,637.1 	"/>
	<path class="st22" d="M138.5,613.2l25.3-20.2l18.5-14.8l3-20.1l4.6-30.3l-27.6,13.1l-24.4,11.6l0.5,39.3L138.5,613.2z M165.9,548.2
		l8.8,19.3l-7.3,22.2l-14.1-21L165.9,548.2z"/>
	<polygon class="st23" points="275.8,626.4 271.9,614.8 254.9,563.6 248.4,543.8 224.5,579.7 203.9,610.6 	"/>
	<polygon class="st14" points="203.9,610.6 208.3,638 214.5,638.3 209.3,644.3 215.5,682.7 260.7,640.5 275.8,626.4 	"/>
	<polygon class="st22" points="498.1,524.1 454.5,522.1 433.4,562.9 475.1,555.1 	"/>
	<polygon class="st22" points="493.4,741.1 475.2,763.1 507.3,766.4 519.9,745 510.4,738.9 	"/>
	<polygon class="st17" points="514.4,792 526.3,792 513.8,786.4 	"/>
	<polygon class="st14" points="513.8,786.4 526.3,792 552.1,792 553.3,762.1 	"/>
	<polygon class="st19" points="602.9,729.1 612,725.6 612,699.5 611.9,699.9 	"/>
	<polygon class="st22" points="577.6,638.8 587.8,621.4 545,623.3 521.1,651.1 550.4,656.6 560,637.2 	"/>
	<polygon class="st23" points="49.9,650.7 62.3,587.4 0,598.6 0,620.2 45.5,672.7 	"/>
	<polygon class="st14" points="62.3,587.4 24.9,526.8 18.3,525.4 0,565.9 0,598.6 	"/>
	<polygon class="st19" points="475.6,658.4 478.6,670.1 493.4,727.9 508.8,716.9 508.3,714.4 510.9,715.3 546.8,689.6 520.3,678 	
		"/>
	<polygon class="st20" points="510.9,715.3 525.8,720.9 534.3,741 512.2,737.1 508.8,716.9 493.4,727.9 510.4,738.9 519.9,745 
		548.2,763.3 546.8,689.6 	"/>
	<polygon class="st19" points="10.7,481.8 30.1,527.8 65.2,480.3 	"/>
	<polygon class="st20" points="24.9,526.8 30.1,527.8 10.7,481.8 0,492.2 0,521.6 18.3,525.4 	"/>
	<polygon class="st17" points="16.5,449.4 2.1,453.7 0,454.4 0,481.7 2.6,485 	"/>
	<polygon class="st14" points="0,481.7 0,485.2 2.6,485 	"/>
	<polygon class="st22" points="598.3,618 612,655.3 612,604.3 	"/>
	<polygon class="st17" points="612,522.4 612,516.2 607.2,521.5 	"/>
	<polygon class="st14" points="603.5,506.1 607.2,521.5 612,516.2 612,484.2 596.9,478.6 	"/>
	<polygon class="st12" points="48.1,357.2 62.1,378.2 69.4,356 60.6,336.7 	"/>
	<polygon class="st17" points="95.8,522.4 75.8,539.7 95.8,542.2 	"/>
	<polygon class="st14" points="75.8,539.7 72.1,557.2 95.8,542.2 	"/>
	<polygon class="st22" points="114.1,485.4 136.8,489.7 148.1,470.3 126.3,471.3 	"/>
	<polygon class="st22" points="329.4,442.7 326.2,426 312.5,439.6 319.5,458.6 	"/>
	<polygon class="st17" points="354,477.9 349.8,453.9 348.9,448.7 340.3,458.1 338.4,460.2 336.3,462.6 330.5,469 	"/>
	<polygon class="st14" points="353.1,478.5 354,477.9 330.5,469 330.6,476.2 330.8,493.9 	"/>
	<polygon class="st12" points="189.7,782.2 213.1,781.3 228.1,766.3 204.6,761.7 	"/>
	<polygon class="st17" points="502.2,410.2 476.8,400.1 476.6,425.2 	"/>
	<polygon class="st14" points="465.9,417.7 476.6,425.2 476.8,400.1 457.6,407.5 453.5,409.1 	"/>
	<polygon class="st22" points="150.8,781.7 166.2,784.9 167,784.4 168.3,781.8 170.8,782.1 180.8,776 163.3,767.9 149.3,779.8 
		147.8,781.1 	"/>
	<polygon class="st12" points="403,684.1 400.8,680 394.8,698.4 383.2,681.2 374.4,693.7 396,721.6 404.7,698.8 407.2,692.1 	"/>
	<polygon class="st17" points="266.8,693.5 302.8,705.3 295,666.5 	"/>
	<polygon class="st14" points="267.3,726.5 302.8,705.3 266.8,693.5 	"/>
	<polygon class="st22" points="524.6,568.7 500.6,569.6 481.9,588.4 516.7,594 524.8,582 534,568.3 	"/>
	<polygon class="st22" points="382.4,729.9 361.4,747.9 372.2,773.2 387.4,752.1 	"/>
	<polygon class="st19" points="248.8,327.5 262,379.1 301.7,350.7 	"/>
	<polygon class="st20" points="302.3,386.7 301.7,350.7 262,379.1 289.3,396.8 302.7,405.4 	"/>
	<polygon class="st22" points="507.6,419.9 530.6,438.9 557.7,437.5 539.2,413 	"/>
	<polygon class="st17" points="230.3,491.9 218.7,481.3 217.8,471.4 207.2,483.1 	"/>
	<polygon class="st14" points="207.2,483.1 207.5,508.1 230.5,492.1 230.3,491.9 	"/>
	<polygon class="st22" points="239.5,520.9 217.7,521.8 205.5,536 228.3,540.2 	"/>
	<polygon class="st21" points="476.3,471.3 466,452.1 443,453.5 457,469.3 	"/>
	<polygon class="st21" points="67.9,704.7 53,684.3 19.7,685.8 40,702.6 	"/>
	<polygon class="st22" points="393.6,397.2 377.3,381.9 373.3,403.3 384.3,418.4 	"/>
	<polygon class="st21" points="70,661.6 81,685.1 110.7,684.9 93.7,663.4 72.8,660.1 69,659.5 	"/>
	<polygon class="st21" points="399.6,264.4 413.7,280.2 432.9,282.2 422.6,263 	"/>
	<polygon class="st22" points="600.5,375.5 612,373.4 612,357.6 610,357.5 	"/>
	<polygon class="st22" points="126.8,323.4 149.5,327.6 160.8,308.3 139,309.2 	"/>
	<polygon class="st19" points="208.3,638 173.1,636.5 184.6,673.3 209.3,644.3 214.5,638.3 	"/>
	<polygon class="st14" points="173.1,636.5 143.8,661.5 184.6,673.3 	"/>
	<polygon class="st22" points="533,506.5 515.5,498.4 500,511.6 518.4,515.4 	"/>
	<polygon class="st17" points="545.9,313.3 545.9,293.5 525.9,310.8 	"/>
	<polygon class="st14" points="522.2,328.3 545.9,313.3 525.9,310.8 	"/>
	<polygon class="st17" points="265.6,735.2 237.8,740.8 257.7,757.8 	"/>
	<polygon class="st14" points="281.5,756.9 276.5,750.1 265.6,735.2 257.7,757.8 271.8,757.3 	"/>
	<polygon class="st22" points="458.2,774.3 468.1,758.4 466.2,748.5 464.8,741.6 463.1,743.4 451.2,755.2 	"/>
	<polygon class="st23" points="411.6,743.4 438.7,730 408.7,710.5 	"/>
	<polygon class="st14" points="433.8,763.5 438.7,730 411.6,743.4 	"/>
	<polygon class="st19" points="0,662.4 0,685.4 16.4,670.5 	"/>
	<polygon class="st20" points="18.5,645.8 0,656.1 0,662.4 16.4,670.5 	"/>
	<polygon class="st19" points="168.3,781.8 167,784.4 163.3,792 175.1,792 	"/>
	<polygon class="st20" points="170.8,782.1 168.3,781.8 175.1,792 202.9,792 207.7,785.6 	"/>
	<polygon class="st23" points="75,724.5 52,709.5 53.4,724.7 54.3,734.7 	"/>
	<polygon class="st14" points="54.3,734.7 55.4,735.8 71.3,750.2 72.6,741.1 75,724.5 	"/>
	<polygon class="st22" points="281,605.6 284.9,628.4 307,632.3 298.5,612.1 	"/>
	<polygon class="st12" points="174.7,567.5 165.9,548.2 153.4,568.6 167.5,589.6 	"/>
	<polygon class="st19" points="332.7,528.4 326,542 315.4,563.3 352.7,558.3 	"/>
	<polygon class="st20" points="332.7,528.4 352.7,558.3 358.4,550.6 370,535 372.1,532.2 	"/>
	<polygon class="st23" points="239.5,471.1 216.5,456.1 217.8,471.4 218.7,481.3 	"/>
	<polygon class="st14" points="218.7,481.3 230.3,491.9 230.5,492.1 235.7,496.8 239.5,471.1 	"/>
	<polygon class="st22" points="534.3,741 525.8,720.9 510.9,715.3 508.3,714.4 508.8,716.9 512.2,737.1 	"/>
	<polygon class="st12" points="400.8,680 402.1,676.2 393.2,656.9 380.7,677.4 383.2,681.2 394.8,698.4 	"/>
	<polygon class="st19" points="560,637.2 550.4,656.6 542.8,672 580.1,667 	"/>
	<polygon class="st20" points="560,637.2 580.1,667 599.5,640.9 577.6,638.8 	"/>
	<polygon class="st23" points="466.8,579.8 443.8,564.8 445.9,589.6 446,590.1 	"/>
	<polygon class="st14" points="446,590.1 463,605.5 464.4,596.4 466.8,579.8 	"/>
	
		<rect x="494" y="52.3" transform="matrix(0.7071 -0.7071 0.7071 0.7071 87.4879 413.4914)" class="st18" width="97.8" height="97.8"/>
</g>
</svg>
