<?xml version="1.0" standalone="no"?>
<!DOCTYPE svg PUBLIC "-//W3C//DTD SVG 20010904//EN"
 "http://www.w3.org/TR/2001/REC-SVG-20010904/DTD/svg10.dtd">
<svg version="1.0" xmlns="http://www.w3.org/2000/svg"
 width="1128.000000pt" height="1128.000000pt" viewBox="0 0 1128.000000 1128.000000"
 preserveAspectRatio="xMidYMid meet">
<metadata>
Created by potrace 1.11, written by Peter Selinger 2001-2013
</metadata>
<g transform="translate(0.000000,1128.000000) scale(0.100000,-0.100000)"
fill="#000000" stroke="none">
<path d="M654 9649 c-80 -9 -180 -44 -245 -85 -72 -44 -171 -152 -210 -229
-70 -135 -99 -259 -99 -422 0 -100 2 -109 70 -322 39 -121 70 -225 70 -233 0
-7 24 -92 54 -188 348 -1124 431 -1394 446 -1445 10 -33 84 -274 165 -535 80
-261 203 -657 272 -880 68 -223 199 -646 290 -940 91 -294 173 -562 183 -595
20 -67 148 -483 245 -795 35 -113 130 -419 210 -680 81 -261 153 -486 161
-500 8 -14 37 -99 65 -190 28 -91 71 -229 95 -307 l45 -143 1862 2 c1024 1
1813 4 1752 5 -267 7 -2408 43 -2870 49 -280 3 -550 10 -600 14 -232 19 3301
-2 6211 -37 l551 -6 7 99 c12 162 13 162 70 13 l51 -134 49 -3 c26 -2 46 0 43
5 -3 4 -44 111 -92 237 -76 199 -88 237 -86 285 2 59 37 420 47 483 l6 37 88
3 88 3 -109 285 c-60 157 -124 326 -143 375 -19 50 -148 387 -286 750 -138
363 -268 705 -289 760 -22 55 -65 168 -96 250 -31 83 -79 206 -105 275 -247
647 -300 788 -300 796 0 5 20 17 44 27 50 20 209 117 203 123 -2 2 -37 -7 -77
-21 -40 -14 -76 -25 -78 -25 -3 0 29 31 69 70 41 38 78 70 82 70 34 0 503 207
493 217 -2 3 -49 -1 -104 -8 -93 -11 -172 -7 -172 9 0 16 89 62 121 62 19 0
122 18 229 40 243 50 300 75 422 190 74 69 188 205 188 224 0 3 -19 6 -42 6
-24 0 -86 7 -138 15 -52 8 -99 15 -103 15 -8 0 38 86 57 107 6 6 58 17 116 23
203 22 355 63 506 137 89 43 218 134 199 139 -6 1 -46 6 -90 10 l-80 7 70 14
c66 14 202 57 213 68 3 3 -24 5 -59 6 -35 1 -89 4 -119 8 l-55 7 78 12 c138
21 215 43 257 71 103 69 227 217 295 350 l27 54 -71 -6 c-39 -3 -109 -2 -157
3 -86 9 -234 47 -234 60 0 4 26 3 58 -2 31 -6 113 -8 182 -5 106 4 139 10 217
37 50 17 102 42 115 55 28 28 65 92 57 100 -3 2 -43 0 -90 -6 -49 -6 -120 -7
-169 -3 -93 8 -89 11 57 33 40 6 114 24 166 41 l93 30 17 72 c22 92 22 89 -10
77 -35 -13 -167 -39 -196 -38 -12 0 40 32 117 70 l139 70 -5 72 c-3 40 -11 84
-18 98 l-12 27 -137 -100 c-75 -56 -206 -146 -291 -202 -133 -86 -161 -101
-197 -101 l-42 -1 63 42 c52 35 67 52 93 105 44 91 62 137 56 143 -3 3 -1 11
5 18 15 19 51 210 58 314 7 94 -3 152 -33 186 -14 16 -19 12 -70 -43 -30 -32
-59 -59 -64 -59 -24 0 -2 31 73 102 80 76 81 78 63 98 -10 11 -22 20 -28 20
-5 0 -41 -23 -79 -51 -38 -28 -72 -49 -74 -47 -2 2 8 21 21 41 31 44 31 48 1
76 l-23 22 -17 -26 c-10 -15 -20 -24 -23 -22 -2 3 7 23 21 44 29 42 32 53 13
53 -11 0 -86 -125 -175 -290 -23 -42 -20 -41 44 30 38 41 91 98 117 125 l48
50 -60 -95 c-33 -52 -58 -96 -56 -98 2 -2 52 32 112 75 137 100 151 107 83 41
-248 -238 -401 -354 -700 -531 -354 -208 -844 -577 -1063 -800 -325 -331
-1000 -1294 -1352 -1929 -40 -72 -53 -88 -72 -88 -13 0 -26 7 -30 15 -9 25 24
228 61 375 36 142 101 349 114 362 4 4 2 -34 -5 -85 -6 -50 -11 -128 -11 -172
l0 -80 13 91 c8 50 21 119 30 153 19 76 66 203 72 197 2 -2 -5 -52 -16 -110
-36 -186 -22 -180 33 14 149 519 197 630 380 868 98 128 269 318 273 305 2 -6
-3 -61 -11 -122 -17 -121 -21 -257 -8 -265 5 -3 14 50 21 118 19 194 66 370
146 541 55 117 206 305 387 481 126 123 295 261 305 250 3 -3 -8 -38 -25 -78
-34 -83 -86 -257 -79 -264 2 -3 19 37 37 88 41 119 101 235 151 292 26 29 91
75 185 132 80 47 147 84 149 82 3 -2 -13 -48 -34 -100 -48 -116 -91 -251 -91
-281 0 -13 22 18 53 78 70 131 168 294 224 374 37 51 57 68 107 92 33 16 52
27 41 24 -11 -3 23 34 76 84 52 49 147 149 210 223 246 285 273 330 109 176
-68 -64 -126 -116 -128 -114 -2 2 15 41 38 86 42 83 62 130 56 130 -1 0 -47
-63 -101 -140 -54 -77 -100 -138 -102 -137 -2 2 28 79 67 171 38 92 70 170 70
173 0 11 -88 -9 -187 -42 -164 -55 -404 -179 -513 -265 -50 -40 -147 -244
-246 -515 -26 -72 -29 -77 -32 -47 -4 37 28 211 57 317 11 38 18 71 17 72 -11
11 -309 -240 -338 -284 -41 -63 -79 -169 -114 -323 -29 -130 -33 -139 -33 -90
-1 54 16 173 39 278 6 28 10 58 7 65 -6 18 -200 -184 -301 -313 -175 -226
-303 -439 -336 -561 -42 -155 -52 -225 -59 -383 -4 -114 -10 -161 -18 -164
-13 -4 -18 66 -18 226 0 28 -2 52 -6 52 -18 0 -211 -294 -289 -443 -32 -60
-60 -105 -63 -100 -3 4 -78 199 -167 433 -89 234 -191 502 -226 595 -36 94
-81 211 -100 260 -19 50 -133 349 -253 665 l-219 575 -3044 1 c-1673 1 -3075
-2 -3114 -7z m6158 -234 c57 -146 85 -219 167 -435 22 -58 69 -181 105 -275
35 -93 130 -343 211 -555 80 -212 159 -419 175 -460 16 -41 63 -165 105 -275
42 -110 94 -247 117 -304 l40 -104 -28 -109 c-14 -60 -38 -189 -53 -286 -16
-111 -31 -177 -38 -180 -9 -2 -13 9 -13 35 l-1 38 -23 -47 c-14 -25 -32 -71
-42 -102 -19 -59 -34 -65 -35 -13 -1 56 -15 2 -39 -144 -12 -74 -35 -206 -51
-294 -40 -215 -39 -345 2 -345 11 0 19 -2 19 -4 0 -4 -39 -74 -47 -85 -1 -2
-9 2 -17 8 -13 11 -21 1 -53 -63 l-38 -77 -39 51 c-118 154 -355 258 -676 295
-74 8 -150 18 -167 21 -57 9 -38 29 45 48 127 29 222 57 312 94 122 49 344
174 443 248 202 152 367 378 423 581 24 89 29 254 10 337 -70 296 -354 462
-866 507 -250 22 -2438 5 -2625 -21 -389 -53 -612 -155 -691 -316 -48 -98 -40
-243 20 -362 37 -74 136 -201 205 -264 64 -60 98 -71 142 -48 29 16 23 33 -22
70 -26 20 -51 54 -67 88 -22 49 -24 64 -19 137 9 156 88 275 234 355 229 124
656 215 1188 255 218 16 695 32 695 23 0 -3 -42 -22 -92 -42 -238 -93 -304
-150 -440 -380 -305 -516 -321 -542 -928 -1481 -117 -181 -293 -454 -390 -606
-272 -425 -583 -872 -665 -955 -102 -103 -246 -180 -377 -201 -43 -6 -61 -23
-52 -47 6 -15 61 -36 98 -36 40 0 200 62 366 143 256 124 303 140 425 141 99
0 101 0 244 -58 349 -139 740 -206 1212 -206 414 0 765 59 1072 181 132 52
315 144 414 208 44 28 109 60 144 71 70 21 127 57 198 124 55 52 89 106 116
181 11 33 37 87 57 121 46 74 93 191 113 277 22 97 90 280 138 374 36 70 40
86 30 102 -10 17 -6 33 28 106 36 76 44 86 62 82 108 -26 148 -29 165 -15 39
35 118 61 424 140 l56 15 18 -46 c17 -46 64 -172 167 -441 31 -80 139 -365
242 -635 213 -559 304 -798 345 -905 16 -41 52 -136 80 -210 28 -74 78 -205
111 -290 32 -85 119 -312 192 -505 l134 -350 -3131 -3 c-1721 -1 -3133 1
-3137 5 -6 7 -471 1402 -482 1448 -3 11 -138 414 -300 895 -162 481 -596 1780
-965 2885 -369 1106 -673 2018 -677 2028 -7 16 136 17 2956 15 l2963 -3 58
-150z m-5838 -613 c25 -75 46 -140 46 -145 0 -4 -19 -7 -42 -7 -66 0 -175 -27
-243 -58 -80 -38 -182 -134 -235 -222 -23 -39 -56 -111 -73 -161 l-30 -91 -38
119 -37 119 13 71 c58 302 270 511 522 512 l71 1 46 -138z m9732 6 c13 -97 6
-109 -126 -199 -66 -46 -118 -84 -116 -86 7 -7 88 17 149 44 31 14 59 24 62
22 2 -3 -1 -38 -8 -78 l-11 -74 -91 -43 c-49 -24 -128 -54 -175 -69 l-85 -26
85 6 c47 3 114 12 149 21 35 8 66 13 68 11 7 -7 -18 -61 -43 -94 -29 -38 -148
-105 -224 -126 -86 -23 -128 -29 -225 -29 -85 0 -88 -1 -58 -14 83 -36 220
-39 341 -9 38 10 52 10 52 2 0 -25 -79 -186 -124 -257 -58 -89 -148 -186 -196
-210 -19 -9 -71 -29 -115 -43 -150 -48 -149 -48 -37 -43 56 3 102 3 102 0 0
-9 -166 -84 -199 -90 -62 -13 -42 -24 30 -18 68 7 71 6 61 -12 -24 -44 -151
-146 -252 -202 -86 -48 -194 -90 -330 -129 -104 -29 -147 -36 -255 -40 -112
-5 -142 -2 -217 17 -77 19 -94 21 -159 11 -103 -16 -120 -30 -38 -31 97 0 165
-16 244 -55 103 -51 171 -66 338 -72 81 -3 147 -7 147 -8 0 -7 -72 -129 -101
-172 -18 -26 -67 -82 -109 -124 -88 -88 -134 -112 -343 -183 -183 -63 -250
-76 -389 -76 -126 0 -165 -13 -68 -23 32 -4 94 -14 137 -23 89 -18 128 -15
236 19 42 14 75 21 72 17 -8 -13 -201 -141 -314 -210 -230 -138 -383 -195
-561 -210 -117 -10 -190 -28 -190 -49 0 -7 17 -8 48 -3 46 7 67 7 257 0 89 -3
91 -3 210 49 65 29 120 51 121 50 5 -5 -123 -106 -180 -142 -95 -61 -195 -103
-333 -139 -129 -35 -228 -69 -250 -88 -14 -11 -93 -1 -93 13 0 4 34 66 77 136
625 1045 1272 1796 1950 2265 321 222 793 608 998 817 32 33 63 57 67 53 4 -4
11 -29 14 -54z m-1002 15 c-55 -86 -67 -103 -71 -99 -8 8 47 105 64 115 26 15
27 14 7 -16z m756 -97 c0 -16 -392 -327 -580 -461 -267 -190 -378 -272 -460
-339 -529 -435 -1019 -1001 -1493 -1723 -191 -292 -377 -599 -415 -688 -19
-44 -37 -83 -41 -87 -3 -3 -18 3 -33 15 l-28 22 168 280 c465 777 827 1289
1219 1725 284 317 777 705 1235 971 116 67 166 101 348 234 78 57 80 58 80 51z
m-510 -440 c0 -9 -208 -164 -320 -239 -154 -103 -81 -42 138 115 181 130 182
131 182 124z m-8749 -171 c20 -60 103 -303 184 -540 81 -236 157 -461 170
-500 12 -38 89 -263 170 -500 129 -377 277 -814 679 -2005 57 -168 136 -401
176 -518 39 -118 70 -215 68 -217 -1 -1 -48 -8 -104 -14 -162 -17 -278 -60
-399 -146 -104 -75 -219 -211 -245 -291 -7 -19 -15 -34 -19 -34 -4 0 -40 114
-80 253 -40 138 -86 295 -101 347 -29 99 -67 228 -170 585 -137 474 -235 811
-339 1160 -32 110 -79 270 -105 355 -25 85 -77 263 -116 395 -39 132 -86 292
-105 355 -19 63 -66 223 -105 355 -39 132 -85 287 -103 345 -41 135 -42 228
-3 340 61 175 185 297 368 361 46 16 96 28 112 27 28 -3 31 -9 67 -113z m8309
-149 c0 -2 -8 -10 -17 -17 -16 -13 -17 -12 -4 4 13 16 21 21 21 13z m-2711
-586 c266 -64 405 -253 388 -529 -8 -124 -35 -217 -107 -368 -126 -263 -266
-416 -485 -525 -202 -102 -443 -145 -855 -154 -167 -4 -249 -10 -283 -20 -54
-17 -260 -149 -319 -205 -79 -75 -52 -80 190 -36 322 58 562 87 733 87 190 0
412 -36 529 -85 194 -82 278 -192 288 -378 16 -312 -141 -633 -427 -871 -299
-249 -684 -407 -1156 -477 -139 -21 -538 -18 -645 3 -336 69 -560 227 -560
395 0 74 22 125 137 313 55 91 189 311 298 490 109 179 356 586 548 905 192
319 396 652 454 739 194 292 417 571 503 626 59 38 164 74 261 90 41 6 81 13
89 15 8 1 87 3 175 4 129 1 176 -3 244 -19z m655 -2093 c-10 -20 -22 -37 -27
-37 -4 0 -31 22 -59 48 l-50 48 22 44 22 43 55 -55 54 -55 -17 -36z m-81 -80
l28 -23 -46 -126 c-42 -113 -50 -127 -77 -139 -17 -7 -56 -38 -86 -68 -31 -31
-52 -47 -48 -36 17 43 36 153 36 205 0 49 6 66 57 152 l56 97 26 -19 c14 -11
39 -30 54 -43z m-4582 -1855 c3 -4 30 -79 59 -167 29 -88 54 -164 57 -170 2
-6 -33 -9 -96 -7 -181 7 -309 -44 -437 -173 -64 -65 -89 -100 -127 -176 -25
-52 -54 -127 -64 -166 -10 -40 -20 -73 -23 -73 -3 0 -23 56 -44 124 -33 105
-37 131 -31 177 10 79 41 191 73 262 100 219 258 350 457 377 61 8 165 4 176
-8z m6586 -1204 c-12 -102 -46 -456 -63 -662 l-18 -209 -485 7 c-965 13 -5223
46 -5927 46 l-334 0 0 39 c0 21 7 78 15 127 38 222 122 383 268 521 106 98
224 157 347 173 30 4 1438 8 3129 9 l3074 1 -6 -52z"/>
<path d="M7240 5060 c-13 -25 -4 -60 16 -60 23 0 40 46 24 65 -17 20 -27 19
-40 -5z"/>
<path d="M3307 2093 c-4 -3 -7 -10 -7 -15 0 -4 887 -8 1970 -8 1149 0 1970 4
1970 9 0 5 -7 12 -16 15 -22 8 -3909 8 -3917 -1z"/>
<path d="M8537 2093 c-4 -3 -7 -10 -7 -15 0 -4 156 -8 346 -8 272 0 345 3 342
13 -4 9 -82 13 -340 15 -184 1 -337 -1 -341 -5z"/>
<path d="M5443 1888 c3 -10 345 -13 1667 -13 1322 0 1664 3 1668 13 3 9 -335
12 -1668 12 -1333 0 -1671 -3 -1667 -12z"/>
<path d="M3300 1815 c0 -13 89 -15 745 -15 656 0 745 2 745 15 0 13 -89 15
-745 15 -656 0 -745 -2 -745 -15z"/>
<path d="M6700 1735 c0 -13 146 -15 1255 -15 1109 0 1255 2 1255 15 0 13 -146
15 -1255 15 -1109 0 -1255 -2 -1255 -15z"/>
<path d="M4642 1658 c4 -10 131 -14 581 -16 509 -2 577 0 577 13 0 13 -70 15
-581 15 -460 0 -580 -3 -577 -12z"/>
<path d="M5647 1483 c-4 -3 -7 -10 -7 -15 0 -4 385 -8 856 -8 680 0 855 3 852
13 -4 9 -184 13 -850 15 -464 1 -848 -1 -851 -5z"/>
<path d="M9970 9020 c-8 -5 -10 -10 -5 -10 6 0 17 5 25 10 8 5 11 10 5 10 -5
0 -17 -5 -25 -10z"/>
</g>
</svg>
