<!-- Generator: Adobe Illustrator 19.2.1, SVG Export Plug-In  -->
<svg version="1.1"
	 xmlns="http://www.w3.org/2000/svg" xmlns:xlink="http://www.w3.org/1999/xlink" xmlns:a="http://ns.adobe.com/AdobeSVGViewerExtensions/3.0/"
	 x="0px" y="0px" width="30px" height="26.5px" viewBox="0 0 30 26.5" style="enable-background:new 0 0 30 26.5;"
	 xml:space="preserve">
<style type="text/css">
	.st0{fill:#4453A4;}
</style>
<defs>
</defs>
<path class="st0" d="M14.5,0L15,0.3c0,0-0.3,1.5,1.1,2.3l11.3,8.5c0,0,1.2,0.6,1.9,0l0.6,0.5c0,0-1.2,1-3.1,0l-12-9
	C14.8,2.5,13.8,1.4,14.5,0z"/>
<path class="st0" d="M12.4,1L13,1.3c0,0-0.3,1.7,1.3,2.6l12.9,9.3c0,0,1.3,0.6,2.1,0l0.7,0.5c0,0-1.4,1.2-3.6,0L12.7,3.8
	C12.7,3.8,11.6,2.6,12.4,1z"/>
<path class="st0" d="M10,1.1l0.7,0.4c0,0-0.3,1.9,1.5,2.9l14.4,10.8c0,0,1.5,0.7,2.4,0l0.7,0.6c0,0-1.5,1.3-4,0L10.4,4.3
	C10.4,4.3,9.1,2.8,10,1.1z"/>
<path class="st0" d="M8.2,2.3l0.7,0.4c0,0-0.4,2.1,1.6,3.2l15.8,11.8c0,0,1.6,0.8,2.6,0l0.8,0.7c0,0-1.7,1.5-4.4,0L8.6,5.8
	C8.6,5.8,7.2,4.2,8.2,2.3z"/>
<path class="st0" d="M6,3.3l0.8,0.4c0,0-0.4,2.3,1.8,3.5l17.4,12.7c0,0,1.8,0.9,2.9,0l0.9,0.7c0,0-1.8,1.6-4.8,0L6.5,7.1
	C6.5,7.1,4.9,5.4,6,3.3z"/>
<path class="st0" d="M3.5,4.3l0.9,0.5c0,0-0.5,2.5,2,3.7l19.3,13.7c0,0,2,0.9,3.2,0l1,0.8c0,0-2,1.7-5.3,0L4,8.4
	C4,8.4,2.3,6.6,3.5,4.3z"/>
<path class="st0" d="M0.4,5.6l1,0.5c0,0-0.5,2.6,2.2,4l21.6,14.7c0,0,2.2,1,3.6,0l1.1,0.8c0,0-2.3,1.8-6,0L1.1,10
	C1.1,10-0.8,8.1,0.4,5.6z"/>
</svg>
