<!-- Generator: Adobe Illustrator 19.2.1, SVG Export Plug-In  -->
<svg version="1.1"
	 xmlns="http://www.w3.org/2000/svg" xmlns:xlink="http://www.w3.org/1999/xlink" xmlns:a="http://ns.adobe.com/AdobeSVGViewerExtensions/3.0/"
	 x="0px" y="0px" width="143px" height="294.1px" viewBox="0 0 143 294.1" style="enable-background:new 0 0 143 294.1;"
	 xml:space="preserve">
<style type="text/css">
	.st0{fill:#595758;}
	.st1{fill:#252726;}
	.st2{fill:#515253;}
	.st3{fill:#6C6A72;}
	.st4{fill:#191718;}
	.st5{fill:#48474D;}
	.st6{fill:#1F1D1B;}
	.st7{fill:#6B6E77;}
	.st8{fill:#6F6F75;}
	.st9{fill:#84888D;}
	.st10{fill:#717379;}
	.st11{fill:#E3E3E2;}
	.st12{fill:#B7ABA5;}
	.st13{fill:#8F8680;}
	.st14{fill:#949297;}
	.st15{fill:#191A20;}
	.st16{fill:#C0C0C3;}
	.st17{fill:#998D87;}
	.st18{fill:#6D6F7A;}
	.st19{fill:#C5C1C1;}
	.st20{fill:#97969B;}
	.st21{fill:#0D0D0E;}
	.st22{fill:#41454E;}
	.st23{fill:#4B525C;}
	.st24{fill:#E9E8EA;}
	.st25{fill:#CDCBCF;}
	.st26{fill:#F1F1F5;}
	.st27{fill:#A5A2A3;}
	.st28{fill:#6E6D73;}
	.st29{fill:#737378;}
	.st30{fill:#81848B;}
	.st31{fill:#DBDADC;}
	.st32{fill:#8E8D8F;}
	.st33{fill:#F2F2F2;}
	.st34{fill:#82848F;}
	.st35{fill:#696B74;}
	.st36{fill:#F3F2F3;}
	.st37{fill:#61626E;}
	.st38{fill:#BBB8B7;}
	.st39{fill:#E5EAEB;}
	.st40{fill:#EAEBE4;}
	.st41{fill:#F8F6F9;}
	.st42{fill:#FFFCFD;}
	.st43{fill:#92A67D;}
	.st44{fill:#303225;}
	.st45{fill:#8B95A3;}
	.st46{fill:#E6E6E4;}
	.st47{fill:#CDD2DD;}
	.st48{fill:#919CA4;}
	.st49{fill:#6E7B7F;}
	.st50{fill:#A5ABAD;}
	.st51{fill:#A1A2AB;}
	.st52{fill:#A1A1A3;}
	.st53{fill:#EDECEE;}
	.st54{fill:#DADADC;}
	.st55{fill:#80828D;}
	.st56{fill:#4E4C4E;}
	.st57{fill:#F1F3F3;}
	.st58{fill:#DCDBDD;}
	.st59{fill:#222225;}
	.st60{fill:#C6C4C7;}
	.st61{fill:#CDCDD1;}
	.st62{fill:#E8E8E8;}
	.st63{fill:#BEBDC1;}
	.st64{fill:#B3A8A1;}
	.st65{fill:#D6D4D4;}
	.st66{fill:#848791;}
	.st67{fill:#6F6F78;}
</style>
<defs>
</defs>
<g>
	<path class="st0" d="M16.1,250.5c0,0,31,31.3,43.7,26.8s20-11.2,20-11.2s39.4-18.6,35.9-25.3c-3.5-6.7-97.9,1.5-97.9,1.5l-2.8,2.9
		L16.1,250.5z"/>
	<path class="st1" d="M123.6,242.2c0,0-4.1,7.7,3.1,12.4c0,0,4,3.3,7.8,0.9c3.8-2.4,7.9-4.7,7.9-4.7s2.4-7.8-1.5-9.4
		S123.6,242.2,123.6,242.2z"/>
	<path class="st2" d="M125,242.2c0,0-3.8,7.5,2.8,11.9c0,0,5.7,4.7,6.4-3.6c0,0-2-7.3-5.1-8.5C125.9,240.8,125,242.2,125,242.2z"/>
	<path class="st3" d="M133.4,241.9c0,0,2.2,4.6,3.2,4.9c0,0,3.3,3.3,0.9,5.5c0,0,1.2,1.9,3.2-1.1c0,0,1.8-8.7,0-9.8L133.4,241.9z"/>
	<path class="st4" d="M7.7,235l-6.8,4.1c0,0-4.1,9.6,5.2,15.8c0,0,10.3-0.1,12.7-6.8C21.1,241.2,7.7,235,7.7,235z"/>
	<path class="st5" d="M7.7,239.6l0.6,2.6c0,0,5.2,7.7,4.8,9.4l2.9-1.1c0,0,0.8-4-1-5.3S7.7,239.6,7.7,239.6z"/>
	<path class="st6" d="M65.4,292.9c0,0-4,0.3-5.6-6.7h-2l2-8.9l4.8-2.4l8.2,1.5l5.6,4.1l2.5,5.5l-1.4,1.2l-1.6,1.8
		c0,0,0.2,3.1-3.8,4.1C69.9,294.1,65.4,292.9,65.4,292.9z"/>
	<path class="st7" d="M68.7,276.5c0,0,11.3,5.3,10.8,10.8l1.4-1.2v-11.5l-15.3-0.7l-8.4,3c0,0,3.5,5.4-1.2,7.8l1.2,2.7l5.6-9.2
		C62.7,278.1,66,275.8,68.7,276.5z"/>
	<path class="st8" d="M111.1,216.2c0,0,27.4,14.1,29.8,18v7.1c0,0-20.6,1.9-28.8,0s-9.2-5-9.2-5L111.1,216.2z"/>
	<polygon class="st9" points="110.1,228.8 139.2,234.2 136.1,231.5 109.2,225.8 	"/>
	<path class="st10" d="M109.2,225.8l2.9,15.5c0,0-23.2,16.9-31.2,17.4v12.7c0,0,0.7,8.7-8.2,5c0,0-29.8-9.8-46.3-22.7L7.7,239.6
		c0,0-1.2-7.5,2.2-9.8s21.4-5.2,28-5.2l-0.3-2.5l1.1-0.2l35.3-1.3L109.2,225.8z"/>
	<path class="st11" d="M119.1,41.9l2.1,13.1l-2.1,19.5l1,22.9l-2.5,43l-2.4,43.5v20.2l-2.8,30l-1.2,2.1v-19.9l1-96.7l-1-42.8l-1-0.6
		l-0.6,0.8L108,224.1l1.2,1.8l0.1,8.5c0,0,0.8,10,3.2,2.4l2.1-6l2.2-26.4l0.1-20.2l0.5-10.9l1.7-30.6l2.8-45.4l-1-23.4l2.8-18.7
		l-2.4-14.5L119.1,41.9z"/>
	<path class="st12" d="M109.5,76.9l-0.3,149c0,0-15.6,13.6-31.4,16.4l-13.2-67.4l2.5-84.2l24.6-28.9l17.5-0.9l0.9,7.5L109.5,76.9z"
		/>
	<polygon class="st13" points="76,126 74.9,162.1 69.7,71.8 74,71.8 	"/>
	<path class="st14" d="M71.7,73.3l6.1,169l-2.2-0.9c0,0-32.9-13.2-36.9-19.4L30.9,60.2L71.7,73.3z"/>
	<path class="st15" d="M46.9,178h1.5c0,0,13.6,6.4,13.6,7.2s-1.1,1.4-1.1,1.4l-12-4.4L46.9,178z"/>
	<polygon class="st15" points="44.1,122.7 54.8,121.9 63.5,130.1 51.2,129.9 43.3,124.8 	"/>
	<polygon class="st15" points="42.1,65.1 57.9,70.2 56.6,73.8 38.9,70.9 	"/>
	<polygon class="st16" points="37.9,173.2 37.9,183.2 73.5,200 74,189.7 59.1,187.1 49,182.2 	"/>
	<path class="st17" d="M96.1,66.8v10.6c0,0,5.5,0.8,5.5-11.4S96.1,66.8,96.1,66.8z"/>
	<path class="st18" d="M109.2,64.9c0,0-2,0.2-2.3,0.9v9.6c0,0,3.1,3.4,6,0l-0.6-9.8c0,0-1.9-0.7-2.5-0.7
		C109.2,64.9,109.2,64.9,109.2,64.9z"/>
	<polygon class="st19" points="77.4,73.8 108.7,63.6 109.8,57 77.9,59.2 72.7,68.6 	"/>
	<polygon class="st20" points="84.5,64 88.6,64.3 98.4,61.3 106.8,58.1 109.8,57 110.1,55.3 107.3,52.8 79.7,62.5 77.9,64.3 	"/>
	<polygon class="st21" points="101.6,57.7 106.8,58.1 107.2,59.8 108.7,59.2 107.9,53.1 	"/>
	<path class="st22" d="M89.5,62.5l2.4-0.2l4.9-2.4c0,0,3.2,0.2,2.2,3.1l-4.6,0.6l0.4,2.3c0,0-1,1.7-2.4-1.4l-2.8,0.4l-2-0.6
		L89.5,62.5z"/>
	<path class="st23" d="M79.9,63.6l6.5-0.6v1.7c0,0-5.5,0-6.5,1.4c-1,1.4-2.3,2.2-2.3,2.2l-1.1-2.6L79.9,63.6z"/>
	<path class="st24" d="M77.4,67.4c0,0,2.3-2.3,3.7-1.1v1.1c0,0-4.9,0.8-3.7,6.4c0,0-4,0.2-9.2-1.4L30.9,60.2l0.4-17.9l15.2,4.5
		l28.4,15.7L77.4,67.4z"/>
	<polygon class="st25" points="35.7,119.5 35.7,130.1 72.3,145.2 72,132.7 71,107.3 58.7,132.7 43.5,127 	"/>
	<path class="st26" d="M35.7,119.5c0,0,0.7,7,9.7,11.1c9,4.1,24.7,4.2,26.1,2.1l-10.7-7.8l-0.3,4.2c0,0-14.7,1.5-16.3-6.4
		C42.4,114.8,35.7,119.5,35.7,119.5z"/>
	<path class="st27" d="M80.3,63c0,0,8-0.5,13.7-2.5s15.1-5.9,15.1-5.9l3.2-6l1.5-3.3l-34.3,3.4l-1.2,8.9L80.3,63z"/>
	<path class="st28" d="M94.7,58.2c0,0,1.5-2.7,2.4-2.8c0.9-0.1,1.7-3.1,1.7-3.1h1.4l-0.9,2.3c0,0,3.6,0.7,4.2-3.3l1.5-0.3
		c0,0-0.4,3.8-2.8,4.4l-1.5,2.8C100.8,58.2,94.6,60.5,94.7,58.2z"/>
	<path class="st29" d="M115.1,44.7l-5.1,9.2v1.4c0,0-1.1,0.8-1-1.4c0,0-1.4-0.4-0.9-2.1c0,0-1.1,1.1-1.1,2.1h-0.9
		c0,0,0.1-3.6,3.1-4.6c0,0,2.3-0.1,3.8-2.7C114.5,43.9,115.1,44.7,115.1,44.7z"/>
	<path class="st30" d="M31.9,27.7l-0.6,14.6l24.6,19.5c0,0,11.7,9.5,20.2,7.5l4.2-6.3L42.6,28.3L31.9,27.7z"/>
	<path class="st31" d="M74.9,62.5c0,0-8.2-0.9-22.8-10.9L37.2,38.8c0,0,0-4.1-2.1-1.6c0,0-2.9-3-2.6-4.9l-1.2-10.2l20.2,8.5
		l31.8,21.5l-1.5,5.2L74.9,62.5z"/>
	<path class="st32" d="M83.8,53.9L80.3,63c0,0-2,0-5.4-0.5c-3.5-0.5,7.4-8.6,7.4-8.6L83.8,53.9z"/>
	<path class="st33" d="M76,1.5h0.9l6.4,4c0,0,3-1.2,6.3,1.1c0,0,20.2,14.5,21.6,17.4l-1.3,5.4L85,15.5L76,1.5z"/>
	<path class="st34" d="M85,8.8l1.6-0.7c0,0,5.8,4.4,11.9,10.7c0,0,8.1,10.3,12.7,5.2l4.6,5.9l-4.1,5.5l-6.3,0.6L85,8.8z"/>
	<path class="st35" d="M111.1,34.7c0,0,1.6-4.5,4.6-4.8c0,0,5,6.5,5.4,10.7l-2.1,1.2c0,0-3.2-5.8-5-5.5l-1.8,0.2v1
		c0,0,3.7,5,2.8,7.1c0,0-3.5,5.9-22.4,8.5S71,50.3,71,50.3l0.4-0.8l10.8-1.2l14.8-0.1l11.8-3.8l0.2-6.4L111.1,34.7z"/>
	<path class="st36" d="M72.1,48.3c0,0-10.7-3.5-7.4-7.2L32.5,9.7c0,0,13.2-6.9,22.8-7.8c0,0,10.6-1.7,18.6-1.8
		c0,0,11.9,8.4,15.1,11.4c0,0,21.4,20.7,23.4,25.2l-1.3,0.6l-3.4,5.8l-21.4,7.4L72.1,48.3z"/>
	<path class="st37" d="M96.8,34c0,0,0.8-1.6,2.6-1.2c0,0,4.6,0.2,5.1,2S96.9,36.3,96.8,34z"/>
	<path class="st37" d="M91.7,41.1c0,0,0.7-2.4,4.4-2.3s2.6,1.9,2.4,1.9C98.4,40.6,95.9,43.1,91.7,41.1z"/>
	<path class="st37" d="M79.2,40.6c0,0-0.7-1.4,2.5-3c3.3-1.6,3.3,1.4,3.3,1.4S82.5,42.2,79.2,40.6z"/>
	<path class="st38" d="M43.1,11.6c0,0,16-9.9,33.4-7.2c0,0,21.1,14.6,20.7,24.2s-19.5,6.2-19.5,6.2S60.6,32.1,43.1,11.6z"/>
	<path class="st39" d="M89.5,24.5c0,0-1.2-2.9-0.4-3.4s2.9-0.4,3.6,2.4c0,0,1.4,3.2,0.2,4.2C91.8,28.7,89.5,24.5,89.5,24.5z"/>
	<path class="st40" d="M81.7,31.5v-2.6c0,0,8.1,0.2,8.8,2.2C90.5,31.1,91.4,33.2,81.7,31.5z"/>
	<path class="st41" d="M70.4,29.1c0,0-4.8-2.8-2.5-3.4c2.4-0.6,7.6,2.9,7.6,2.9s3.4,1.7,0.8,2.5C76.4,31.1,73.6,31,70.4,29.1z"/>
	<path class="st42" d="M62.9,24.8l-11.4-11c0,0,13.8-6.7,23.8-5.8l12.8,10.3C88.1,18.3,71.4,25,62.9,24.8z"/>
	<polygon class="st43" points="54.6,16.6 76.1,11.3 84.4,18.7 63.1,24 	"/>
	<polygon class="st44" points="54.6,16.6 53.3,15.1 75.3,10.2 76.1,11.3 	"/>
	<path class="st45" d="M57.9,8.9V6.6c0,0,2.6,0.6,1.4,1.8L57.9,8.9z"/>
	<path class="st45" d="M56.8,7.9c0,0-0.8-1,0.5-0.9C57.3,7,58.1,8.7,56.8,7.9z"/>
	<path class="st46" d="M79.3,25.4c0,0-2.6-1.4,0.6-2.1c0,0,4.1,0.3,1.4,2.1C81.4,25.4,80.1,26,79.3,25.4z"/>
	<path class="st47" d="M69.8,27.7c0,0-2.3-1.3-0.6-2c0,0,2.6,0.8,1.8,2H69.8z"/>
	<path class="st47" d="M74.8,29.9c0,0-2.3-0.7,0-1C74.8,28.9,77.4,29.3,74.8,29.9z"/>
	<path class="st48" d="M89.6,22.3c0,0-0.5-1,0.9-0.8s0,1.8,0,1.8S90.1,23.4,89.6,22.3z"/>
	<path class="st49" d="M92.1,26.2c0,0-1.3-0.7-0.2-1.2c0,0,1.2,0,0.7,1L92.1,26.2z"/>
	<path class="st50" d="M83,31.5c0,0-2.2-1.3,0.5-1.8C83.4,29.7,85.9,30.6,83,31.5z"/>
	<path class="st51" d="M60,8.1l0.2-1.6c0,0,4.5-1.4,4.5,0.8C64.7,7.4,63.2,8.4,60,8.1z"/>
	<path class="st52" d="M38.8,11.3c0,0-2.8-1.9-1.1-2.4c1.8-0.5,2.8,1.2,2.8,1.2S41.7,11.8,38.8,11.3z"/>
	<path class="st53" d="M81.1,40c0,0,0.4-2.1,2.2-1.8C83.3,38.2,83.5,39.8,81.1,40z"/>
	<path class="st53" d="M94.3,40.3c0,0,2.2-1.3,2.8,0C97.1,40.3,96.1,41.1,94.3,40.3z"/>
	<path class="st53" d="M98.9,33.8c0,0,2.3-0.8,3.1,0.5C102.1,34.3,100.1,34.8,98.9,33.8z"/>
	<path class="st54" d="M83.8,53.9c0,0-3.6,3-14-0.7L31.3,22.1c0,0-2.7-11.6,1.2-12.4c3.8-0.8,46.6,35,46.6,35L83.8,53.9z"/>
	<path class="st55" d="M71.5,49.6l4.1-8.5c0,0,7.9,6.2,22.2,3.6c0,0,12.8-1.8,8.6-11.9c0,0,6.2,2.8,8.2,11.1c0,0-3.6,4.6-11.7,5.7
		C102.8,49.6,79.6,57.6,71.5,49.6z"/>
	<path class="st56" d="M96.8,58c0,0-0.5-2.1,1.3-2.2s0,1.9,0,1.9S97.2,58.6,96.8,58z"/>
	<path class="st57" d="M32.9,72.8V62.1l9.2,3c0,0,5,8.3,15.8,5.1l12.8,3.6v11.8L32.9,72.8z"/>
	<polygon class="st58" points="32.9,74.5 70.6,87.2 71.5,132.7 35.7,119.5 	"/>
	<path class="st59" d="M89.5,64.9l-2-1.9c0,0,1.4-1.2,2-0.5S89.5,64.9,89.5,64.9z"/>
	<path class="st59" d="M92.3,64.5c0,0-3-1.7-0.7-2.8c2.4-1.1,1.9,1.4,1.9,1.4S93.3,65.2,92.3,64.5z"/>
	<polygon class="st60" points="109.2,60.7 109.2,65.8 109.8,65.8 109.8,57 	"/>
	<path class="st61" d="M35.7,131.3c0,0,22.5,14.5,36.6,14.8l1.7,42c0,0-22.4-6.8-36.5-16.5L35.7,131.3z"/>
	<path class="st62" d="M37.9,173.2l9,4.8c0,0,5.1,8.1,15.1,7.2l11.9,4.5C74,189.7,45.2,192.8,37.9,173.2z"/>
	<path class="st63" d="M38.7,185.3c0,0,11,8.5,16.1,9.2c0,0,15.1,6.2,19.1,6.6l1.6,40.1c0,0-28.4-10.8-35.6-18.9L38.7,185.3z"/>
	<path class="st64" d="M100.5,74.5c0,0-8,45.7-2.7,70.7c0,0-4.8-57.8-21.9-19.2l-2-52.4l9.8-6.2l15.1-3.1L100.5,74.5z"/>
	<polygon class="st65" points="109.8,57 112.9,57.5 113.2,62.5 109.8,64.9 	"/>
	<path class="st66" d="M77.8,245.2c0,0-34.2-13.7-39.9-20.7l-17.4,6.8c0,0,29,2.5,38.2,12.2c0,0,16.2,16,14.5,25.8
		c0,0-8.8-26.3-21.3-28.1c0,0-18.8-9.1-42-5.4c0,0,32.5,27.7,57.8,33.5c0,0,12.5,7.5,12.3-6.5C80.1,262.9,79.4,247.2,77.8,245.2z"/>
	<path class="st7" d="M61.8,289.8c0,0-3.5-7.6,4.2-9.2s10.2,6.9,10.2,6.9s0.1,7.4-6.4,6.6S61.8,289.8,61.8,289.8z"/>
	<path class="st67" d="M1.1,246.8c0,0-0.9-7,1.7-7.2s5.5,8.8,5.5,8.8s1.4,8.7-3.7,4C4.6,252.4,2,250.3,1.1,246.8z"/>
</g>
</svg>
