<svg id="Layer_1" data-name="Layer 1" xmlns="http://www.w3.org/2000/svg" viewBox="0 0 288 288"><defs><style>.cls-1{fill:#a32d16;}.cls-2{fill:#e8461e;}.cls-3{fill:#aaa496;}.cls-4{fill:#d1c6b8;}.cls-5{fill:#e3d6c5;}.cls-6{opacity:0.23;}</style></defs><title>bookpics</title><polygon class="cls-1" points="27.05 173.24 34.36 193.89 69.51 209.75 114.76 243.19 162.09 196.04 220.9 145.63 263.71 114.08 268.23 98.14 195.41 122.08 111.62 193.89 27.05 173.24"/><polygon class="cls-2" points="27.05 173.24 44.45 144.01 81.69 172.11 109.88 191.69 157.79 139.18 214.29 88.32 239 72.66 268.23 98.14 214.99 138.09 153.73 188 113.36 226.84 68.82 196.04 27.05 173.24"/><polyline class="cls-3" points="171.13 209.26 172 214.83 185.64 216.86 188.19 206.65 185.64 202.65"/><polygon class="cls-3" points="222.99 173.24 220.38 183.33 210.46 191.16 198.98 188 189.75 200.21 181.92 196.04 181.58 189.25 196.54 178.29 222.99 173.24"/><polyline class="cls-3" points="178.27 163.84 180.01 170.98 187.49 173.94 195.15 163.84 203.85 163.84 206.34 172.11 212.55 168.6 206.29 152.53 193.06 153.4"/><polyline class="cls-3" points="98.57 199.34 95.27 206.82 103.44 216.86 113.36 210.31 113.36 204.39"/><polygon class="cls-3" points="82.74 175.16 81.69 182.46 92.13 197.78 98.92 192.73 101.01 188 82.74 175.16"/><polygon class="cls-4" points="104.14 165.93 101.18 175.33 93.7 178.29 92.13 170.25 104.14 165.93"/><polygon class="cls-3" points="61.33 170.81 64.64 178.46 72.99 179.97 78.04 165.59 84.65 165.59 87.97 170.25 96.14 165.59 92.13 152.53 69.86 155.14 61.33 170.81"/><polygon class="cls-3" points="119.51 216.86 122.06 230.78 138.65 240.06 157.79 228.46 157.79 220.34 119.51 216.86"/><polygon class="cls-3" points="122.99 189.25 128.33 196.04 147.59 195.05 150.83 186.47 136.91 179.97 122.99 189.25"/><polygon class="cls-3" points="185.64 137.97 178.68 150.27 145.96 162.1 145.96 141.46 171.25 136.58 185.64 137.97"/><polygon class="cls-3" points="83.55 116.17 92.37 130.32 113.94 136.58 126.47 110.13 145.03 104.56 155.01 108.51 151.3 129.62 174.96 122.66 176.59 104.56 165.22 84.84 138.65 79.51 99.79 89.48 83.55 116.17"/><polygon class="cls-5" points="109.53 127.3 83.55 116.17 93.76 76.49 118.82 65.59 152.92 60.25 180.07 79.97 196.54 99.92 185.64 137.97 149.21 150.74 150.83 186.47 122.99 189.25 120.67 139.6 162.2 120.34 166.84 103.87 145.73 89.02 119.98 100.62 109.53 127.3"/><polygon class="cls-5" points="132.5 193.89 119.51 216.86 135.06 232.17 157.79 220.34 154.31 200.85 132.5 193.89"/><polygon class="cls-5" points="61.33 170.81 61.33 157.93 80.48 143.31 101.88 152.19 104.14 165.93 93.87 173.94 101.01 188 93.7 193.89 82.74 175.16 91.09 167.32 86.74 158.97 77.17 158.62 71.78 163.67 69.69 174.11 61.33 170.81"/><polygon class="cls-5" points="97.53 205.96 98.57 199.34 107.62 196.04 113.36 204.39 104.14 211.7 97.53 205.96"/><polygon class="cls-5" points="178.27 163.84 185.64 168.6 193.24 156.77 202.98 156.77 210.11 166.8 204.55 174.63 193.06 173.41 181.58 189.25 188.19 193.89 197.76 182.46 210.11 184.73 222.99 173.24 214.64 149.34 190.63 146.62 178.27 163.84"/><polygon class="cls-5" points="171.13 209.26 171.13 200.56 176.59 196.04 185.64 202.65 183.49 211.7 171.13 209.26"/><path class="cls-6" d="M149.84,216.38l-4.77-4.08,4.31-3.84v-4.31l-6.17-1.57-15,4-0.76,2.85,2.85,2.79,8.62,1.16-8.15,3.78-0.17,2.39,4.54,4,10.48-.29,4.42-2.56Zm-19.5-8,2.74-1.69L146.7,205l0.23,3.38L142,211.9Zm13.39,12.28-7.74.64L133.6,218l8-4,6.11,3.64Z"/></svg>