<!-- Generator: Adobe Illustrator 19.2.1, SVG Export Plug-In  -->
<svg version="1.1"
	 xmlns="http://www.w3.org/2000/svg" xmlns:xlink="http://www.w3.org/1999/xlink" xmlns:a="http://ns.adobe.com/AdobeSVGViewerExtensions/3.0/"
	 x="0px" y="0px" width="114.2px" height="28.3px" viewBox="0 0 114.2 28.3" style="enable-background:new 0 0 114.2 28.3;"
	 xml:space="preserve">
<style type="text/css">
	.st0{fill:#B4ACB4;}
	.st1{fill:#AEA195;}
	.st2{fill:#E9DCCC;}
	.st3{fill:#ECDBCC;}
	.st4{fill:#B1A59D;}
	.st5{fill:#CFCFCE;}
	.st6{fill:#756469;}
	.st7{fill:#21111B;}
</style>
<defs>
</defs>
<path class="st0" d="M103.4,5.7V0.5l4-0.5l4.4,5.7c0,0,3.3,0.4,1,2.2L109,8.7l-6.5-2.5L103.4,5.7z"/>
<path class="st1" d="M14.6,8.8L48.3,9l21.4-0.9l17.1-0.7l2.6,1.1l3-1.6H96h4l2.6-1.1l4.2,0.5l6.5,6.7l1,1.4V16c0,0-15.1,1-21,3.9
	l-10.8,2.4l-10,3.3c0,0-11.9,5.6-20.9,1l-14.6-3.4l-10.8-2.7l-4.5-0.3l-7-1.1h-2.9l-4.3-0.9L5.7,17v-1.2L14.6,8.8z"/>
<polygon class="st2" points="17.5,10.5 24.3,10.5 22.6,21.5 20.6,20.5 20.6,19 16.3,18.1 "/>
<polygon class="st2" points="27.1,11.3 33.1,11.3 33.1,21.1 28.7,19.7 29.6,13.4 "/>
<polygon class="st2" points="35.4,11.3 41.9,10.9 41.9,23.1 35.4,21.5 "/>
<polygon class="st2" points="44.4,10.9 49.6,10.9 50.1,16 44.4,14.4 "/>
<polygon class="st2" points="44.4,17.4 51,18.1 52.2,25.5 44.4,23.1 "/>
<polygon class="st2" points="54.2,26.1 53.3,17.4 60.7,17.7 61.5,26.5 "/>
<path class="st2" d="M53.3,13.4v-2.1l6-0.4l0.9,5.1l-2.2,0.2C57.9,16.2,55.5,13.5,53.3,13.4z"/>
<polygon class="st2" points="62,10.5 68.4,9.8 69.7,15.3 62.8,15.8 "/>
<path class="st2" d="M61.5,18.1l4.4-1.1l2.7,0.3l1.2,1.6v6.5L63,26.1l0.2-6.1C63.3,20.1,62.2,18.5,61.5,18.1z"/>
<polygon class="st2" points="71.6,14.5 70.5,9.8 76.7,9 78.7,11.7 78,14.5 "/>
<polygon class="st2" points="70.8,17 76.9,15.8 78,17 78.3,22.2 72.8,23.9 72,19.3 "/>
<polygon class="st2" points="78.3,8.8 80.3,8.4 87.4,11.2 88.9,18.8 83.6,20.4 81.9,13 84.1,12.2 "/>
<polygon class="st2" points="88.9,9.8 94.9,8.4 96.9,11.7 97.6,16.7 90.9,18.8 89.8,11.7 91.7,10.9 89.2,10.5 "/>
<path class="st2" d="M100.3,8.4l1.8,4.9c0,0-2,2-2.1,2.2c-0.1,0.2,1.4,0.5,1.4,0.5l5.3-1.1l-2.9-0.9l2.1-0.9l-2.2-5.1L100.3,8.4z"/>
<polygon class="st3" points="15.8,9 14.6,18.1 11.3,18.1 5.7,15.8 6.8,9.3 11.7,8.4 "/>
<path class="st4" d="M114.2,14.2h-6.3c0,0-0.6-0.4-0.5-0.6s1.4-1.6,1.4-1.6l-0.2-2.2L103.8,7c0,0,3.3-1.7,3.5-1.7s3.7,0.9,3.7,0.9
	l0.6,1.7l1.6,0L114.2,14.2z"/>
<path class="st5" d="M6.8,9.3l0.4-6.8c0,0,3-1.2,5.4,0l1.9,6.3l-2.9-0.4L6.8,9.3z"/>
<polygon class="st6" points="6.3,12 0.4,11.8 0.4,9.8 6.7,9.8 "/>
<path class="st7" d="M6.2,13H0.7c0,0-1.4,0.9-0.3,2.1L2,15.8l3.7,0.4v-0.4L6.2,13z"/>
</svg>
