<!-- Generator: Adobe Illustrator 19.2.1, SVG Export Plug-In  -->
<svg version="1.1"
	 xmlns="http://www.w3.org/2000/svg" xmlns:xlink="http://www.w3.org/1999/xlink" xmlns:a="http://ns.adobe.com/AdobeSVGViewerExtensions/3.0/"
	 x="0px" y="0px" width="90.6px" height="110.6px" viewBox="0 0 90.6 110.6" style="enable-background:new 0 0 90.6 110.6;"
	 xml:space="preserve">
<style type="text/css">
	.st0{fill:#E44935;}
	.st1{fill:#433E3F;}
	.st2{fill:#292425;}
	.st3{fill:#E1452E;}
	.st4{fill:#413C3D;}
	.st5{fill:#423E3F;}
	.st6{fill:#D8C3B1;}
	.st7{fill:#F2E6D5;}
	.st8{fill:#D8C6B9;}
	.st9{fill:#95887F;}
	.st10{fill:#C9BBAE;}
	.st11{fill:#DBCCBF;}
	.st12{fill:#DE4836;}
	.st13{fill:#BDAA9F;}
	.st14{fill:#1A1617;}
	.st15{fill:#89181A;}
	.st16{fill:#921A20;}
	.st17{fill:#F04E27;}
</style>
<defs>
</defs>
<g>
	<polygon class="st0" points="77.8,7.3 76.7,15.7 80.8,16.1 82.3,15.8 81.4,7.3 78.7,6.2 	"/>
	<path class="st1" d="M17.5,93.4c0,0-0.9,16.4-4.1,17.2l-2.4-8.9l2.3-9.3L17.5,93.4"/>
	<path class="st2" d="M13.5,93.6l-0.3,13.1l0.1,3.9c0,0-5.9,0.2-6.4-0.3c0,0-1.4-1.2-0.4-16.5s0,0,0,0L13.5,93.6"/>
	<polygon class="st3" points="8.8,16.3 4.1,1 5.6,0.6 11.5,0 12.1,1.2 16.4,15.8 10.2,17.3 	"/>
	<path class="st4" d="M77.8,93.9c0,0-1.1,11.1,2.3,15l4.6-2.2l-1.6-13.4L77.8,93.9z"/>
	<polygon class="st5" points="81.5,94.4 81,109.5 87.5,108.9 88,108.1 88.5,93.4 	"/>
	<polygon class="st6" points="72.5,15.1 76,15.1 87.2,15.8 89.7,16.6 89.7,51.6 89.7,90 90.6,91.6 74.8,93.3 60.7,90.7 43.5,90 
		34.7,71.8 42.7,41.7 53.9,27 	"/>
	<polygon class="st7" points="41.7,15.8 53.9,16.4 64.7,15.8 72.5,15.1 67,51.2 56,55.7 40.7,66.2 36.3,87.5 55.2,89.3 61.1,88.9 
		73.3,92.2 89.7,91.6 90.6,91.6 90.6,93.1 81.5,94.4 57.4,92.9 53.3,92.4 47.7,93.2 38.9,92.8 27.5,92.8 12.1,56 16.3,22.8 	"/>
	<polygon class="st8" points="0,17.7 12.1,15.8 41.7,15.8 32,18.6 19.9,53.8 22.6,57.2 27.5,92.8 16.1,93.5 2.6,93.9 2.6,34.3 	"/>
	<polygon class="st9" points="77.8,18.6 74.8,21 76,42.1 75.3,44.2 76.3,51.6 77.8,39.5 	"/>
	<path class="st9" d="M19.9,58.1h-1.2l0.6,19.3l2.2-1.9l0.6-5.4l-2.2-2.3c0,0,0-5.7,1.6-4.4C23,64.7,19.9,58.1,19.9,58.1z"/>
	<path class="st9" d="M50.2,18.6l-2.1-0.9c0,0-1.1,13.5-1.7,2.3v32.9l1.3,0.4l12.4,0.4L50.2,18.6z"/>
	<path class="st8" d="M60.7,16.2l3.9-0.5l-0.8,2.8h3.6v4.3l-1.8,0.6l-1.6-3.8c0,0-2.8-1.1-2.1,2.8l3.2,2.8l-1.7,6L62,30.1l-0.4,2.4
		l1.8,1.3L63.1,38c0,0-2.5,1.2,0.1,3.7l0.1,1.6l-1.9-1.9l-0.7-1.7V16.2z"/>
	<polygon class="st9" points="36.3,18.6 33,23.2 33,52.6 34,53.8 	"/>
	<path class="st9" d="M2.6,19.5c0,0,2.2,23.4,1.7,31.7h6.8L2.6,19.5z"/>
	<polygon class="st10" points="2.6,19.5 17.4,18.6 17.4,53.8 5.2,53.8 5.2,28.4 	"/>
	<polygon class="st10" points="20.6,18.6 32,18.6 32,52.6 19.9,53.8 19.9,51.3 	"/>
	<polygon class="st10" points="36.3,18.6 34,24.1 34,53.8 45.7,53.8 45.7,18.6 	"/>
	<polygon class="st9" points="76.6,60.1 74.8,58.1 75.7,87 77.1,89.3 77.8,86.7 	"/>
	<path class="st9" d="M47.7,59.6l-1.3-1.5v29.2l0.7,1.2c0,0-1,2.4,0.7,3.1h2.7c0,0-5.1-1.3-0.6-4.2C54.2,84.5,47.7,59.6,47.7,59.6z"
		/>
	<polygon class="st10" points="50.2,18.6 47.7,24.2 47.7,52.5 53.5,50.5 60.1,53.8 60.1,18.6 	"/>
	<path class="st9" d="M63.7,59.4l-2.5-1.3v16.7l0.8,0.9c0,0-2.4,2.2-0.8,5.6l0.8,2l-1.3,3.2l0.5,2.3l5,0.4h2.7l1.4,2.9h3.1v-2.9
		L63.7,59.4z"/>
	<path class="st9" d="M34,58.1l-1-0.9c0,0-0.7,11.8,0.5,14l1.2-4.9L34,58.1z"/>
	<path class="st10" d="M67.6,17.7c0,0-0.3,5.5-4.9,6.5v29.6h12.1l-0.6-36.1H67.6z"/>
	<path class="st11" d="M78.2,17.7c0,0-1.2,3.3-1.9,3.3c-0.7,0,0,30.6,0,30.6l5.2,1.3h6.2l0.9-3.2V18.6L78.2,17.7z"/>
	<path class="st11" d="M17.4,58.8c0,0-9.4,10.4-10.8,15.3L5.5,91.3h12l1.3-4.3L17.4,58.8z"/>
	<polygon class="st11" points="19.9,58.1 32,58.1 32,90.7 30.1,88.7 19.9,90.1 22.1,70.1 	"/>
	<polygon class="st11" points="34,58.1 45.1,58.1 45.7,88.1 34,89.3 	"/>
	<rect x="47.7" y="58.1" class="st11" width="12.4" height="29.4"/>
	<polygon class="st11" points="63.3,58.1 74.8,58.1 74.3,90.7 70.9,91.3 68.8,88.1 62,87.5 	"/>
	<polygon class="st11" points="76.6,58.8 89.7,58.8 89.7,87.5 89.7,90 77.6,90.7 	"/>
	<polyline class="st12" points="3.7,9.2 4.1,17.1 8.8,16.3 5.3,8.1 3.7,9.2 	"/>
	<polygon class="st9" points="20.6,18.6 18.7,22.8 18.7,53.8 19.9,53.8 	"/>
	<path class="st13" d="M4,58.8l2.9,2l1.9-2v2L6.8,62v2.1c0,0,3.9,0.9,3.9,3l-2.5,3.7c0,0-0.9-4-2.7-2.8L5,65.6c0,0-1.3,6,2.3,7.3
		L6.8,87.5H5.7l-0.9-1L4,58.8z"/>
	<path class="st14" d="M81.5,94.4c0,0-3.2,10.5-1.4,14.6l0.9,0.5L81.5,94.4z"/>
	<path class="st15" d="M4.1,1L3.7,9.2c0,0,1.6-0.3,5.1,7.1L4.1,1z"/>
	<path class="st16" d="M80.4,2c0,0-2.1-0.5-2.5,5.3c0,0,2.9-2,3.3,8.1l2.6,0.3L82.3,2.6L80.4,2z"/>
	<path class="st17" d="M81.5,15.4c0,0,1.1-11.9-1.2-13.4l6.5,0.2c0,0,2.8,0.4,1.9,14L81.5,15.4z"/>
</g>
</svg>
