<!-- Generator: Adobe Illustrator 19.2.1, SVG Export Plug-In  -->
<svg version="1.1"
	 xmlns="http://www.w3.org/2000/svg" xmlns:xlink="http://www.w3.org/1999/xlink" xmlns:a="http://ns.adobe.com/AdobeSVGViewerExtensions/3.0/"
	 x="0px" y="0px" width="242.1px" height="343.4px" viewBox="0 0 242.1 343.4" style="enable-background:new 0 0 242.1 343.4;"
	 xml:space="preserve">
<style type="text/css">
	.st0{fill:#3D3B3C;}
	.st1{fill:#C3BEBA;}
	.st2{fill:#C1BCB8;}
	.st3{fill:#E7E3DF;}
	.st4{fill:#787671;}
	.st5{fill:#FAFBF8;}
	.st6{fill:#C6BFBC;}
	.st7{fill:#A19C97;}
	.st8{fill:#797772;}
	.st9{fill:#4F4C49;}
	.st10{fill:#363630;}
	.st11{fill:#151612;}
	.st12{fill:#595853;}
	.st13{fill:#B6B5B1;}
	.st14{fill:#FFFFFC;}
	.st15{fill:#0D0E0B;}
	.st16{fill:#9A9792;}
	.st17{fill:#5B5953;}
	.st18{fill:#AD4B3D;}
	.st19{fill:#83827E;}
</style>
<defs>
</defs>
<g>
	<path class="st0" d="M203.9,273.3c0,0,1.1,16-13.9,15.1c-15-0.9,6.9-18.4,6.9-18.4L203.9,273.3z"/>
	<polygon class="st1" points="232.9,7.5 216.4,259.8 159.1,322.1 122.7,191.7 151.7,65.4 172.7,32.7 234.6,0 	"/>
	<path class="st2" d="M173.6,37.1l59.3-29.6c0,0,1.8,1.3,1.7-7.5l-59.4,32.7L173.6,37.1z"/>
	<polygon class="st3" points="173.6,56.6 173.6,54.6 213.5,29.5 215.8,30.9 	"/>
	<polygon class="st4" points="175.2,32.7 159.1,322.1 170.5,32.7 	"/>
	<path class="st5" d="M156.1,32.7c0,0,7.2-2.3,12.6-1l5-1.3l55-28.8c0,0,12.5-3.8,2.5,1.2l-56,30h-2.5l-13.7,289.3h-4.9L137.7,168
		L156.1,32.7z"/>
	<path class="st6" d="M2.2,14.1V8.7c0,0,1.7,1.3,3.7,1.5c1.9,0.2,155.5,23.3,155.5,23.3l3.6,1.5l-0.9,3.4l-3.4,7.4L11,29.5L2.2,14.1
		z"/>
	<polygon class="st7" points="183.6,58.7 209.4,43.5 213.5,37 209.8,34.2 173.6,56.6 176.1,59.7 	"/>
	<polygon class="st8" points="173.6,63.5 173.6,56.6 183.6,58.7 182.5,64.4 177.4,64.4 	"/>
	<polygon class="st9" points="209.8,34.2 218.2,29.5 242.1,32.9 242.1,34.2 236.6,38.5 210.8,36 	"/>
	<polygon class="st10" points="213.6,43.5 209.4,43.5 209.8,34.2 234.4,37 227.2,43.5 	"/>
	<polygon class="st10" points="179.7,64.1 183.6,58.7 197.9,59.3 194.1,63.1 181.4,65.4 	"/>
	<path class="st11" d="M232.9,37.4L222,36c0,0-9.6,5.2-8.4,7.6l12.2,1L232.9,37.4z"/>
	<polygon class="st12" points="242.1,35 242.1,41.7 191.4,75.3 190.7,64.5 	"/>
	<path class="st4" d="M163.9,38.4c0,0,0.4-3.3-2.6-4.9L167,34l-1.7,43l-11.1,245.1l6.4-197L163.9,38.4z"/>
	<polygon class="st13" points="242.1,34.2 242.1,35 190.7,67.2 190.7,64.5 240.4,34.2 	"/>
	<path class="st14" d="M173.6,63.5c0,0,16.2,1.6,25.4-4.9s33.9-21.2,33.9-21.2l5.9-3.9l3.2,0.6l-50.7,31.2L173.6,63.5z"/>
	<path class="st15" d="M131.2,315.6c0,0-7.8,3.9-8.5,10.2c-0.7,6.3,3.4,11.3,3.4,11.3s3.7,6.1,13.6,6.3s12.9-10.6,12.9-10.6
		s0.7-5.8-2.5-8.1C146.8,322.3,131.2,315.6,131.2,315.6z"/>
	<path class="st16" d="M154.2,322.1l-1.2,1.9l-5.2,1.9l-9.2,9.1c0,0-6.6,3.9-6.9-4c-0.3-7.9,4.9-14.6,4.9-14.6L154.2,322.1z"/>
	<path class="st15" d="M23.3,284.3c0,0,4.8,5.7,2.4,13.3c-2.4,7.6-13.2,5.8-13.2,5.8s-8.7-2.6-11.1-15.4s15.2-8.2,15.2-8.2
		L23.3,284.3z"/>
	<path class="st16" d="M28.3,284.6c0,0-12.1-0.7-14.7,7.8c0,0-0.7,3.3-4,2.7s-2-7.9-2-7.9l2-10.3L28.3,284.6z"/>
	<polygon class="st17" points="0.7,13.9 164.8,38.6 154.2,322.1 151,322.1 5.4,278.1 	"/>
	<polygon class="st1" points="2.2,14 161.9,38 151,322.1 7.4,278.8 	"/>
	<path class="st18" d="M54.3,29c0,0-0.4-2.5,2.9-1.9c3.3,0.5,48.7,7.8,48.7,7.8s2.9,0.4,2.4,3.2c-0.5,2.9-0.1,6.3-0.1,6.3
		s-0.7,1.4-2.7,1.4c-2-0.1-49.7-8.4-49.7-8.4s-1.9-0.2-1.7-1.7C54.3,34.2,54.3,29,54.3,29z"/>
	<polygon class="st11" points="173.6,63.5 191.4,65.4 191.4,75.3 173.6,73.7 	"/>
	<path class="st19" d="M2.2,8.7V5.7c0,0-2.4,0.9-2.1,2.6s0,5.1,0,5.1l0.7,0.4l1.4,0.2V8.7z"/>
</g>
</svg>
