<?xml version="1.0" encoding="utf-8"?>
<!-- Generator: Adobe Illustrator 19.2.1, SVG Export Plug-In . SVG Version: 6.00 Build 0)  -->
<svg version="1.1"
	 id="svg2" inkscape:version="0.91 r13725" sodipodi:docname="BackgroundLogo.svg" xmlns:cc="http://creativecommons.org/ns#" xmlns:dc="http://purl.org/dc/elements/1.1/" xmlns:inkscape="http://www.inkscape.org/namespaces/inkscape" xmlns:rdf="http://www.w3.org/1999/02/22-rdf-syntax-ns#" xmlns:sodipodi="http://sodipodi.sourceforge.net/DTD/sodipodi-0.dtd" xmlns:svg="http://www.w3.org/2000/svg"
	 xmlns="http://www.w3.org/2000/svg" xmlns:xlink="http://www.w3.org/1999/xlink" x="0px" y="0px" viewBox="0 0 1495 1460"
	 style="enable-background:new 0 0 1495 1460;" xml:space="preserve">
<style type="text/css">
	.st0{fill:#A7A9AC;}
	.st1{fill:#BCBEC0;}
	.st2{fill:#D1D3D4;}
	.st3{fill:#E6E7E8;}
	.st4{fill:#FBB040;}
	.st5{fill:#00A79D;}
	.st6{fill:#ED1C24;}
	.st7{font-family:'Geneva';}
	.st8{font-size:252.4463px;}
	.st9{fill:#414042;}
	.st10{font-family:'Optima-Bold';}
	.st11{font-size:65px;}
	.st12{letter-spacing:2;}
	.st13{fill:none;stroke:#414042;stroke-width:7;stroke-miterlimit:10;}
</style>
<sodipodi:namedview  bordercolor="#666666" borderopacity="1" gridtolerance="10" guidetolerance="10" id="namedview394" inkscape:current-layer="svg2" inkscape:cx="747.5" inkscape:cy="730" inkscape:pageopacity="0" inkscape:pageshadow="2" inkscape:window-height="910" inkscape:window-maximized="0" inkscape:window-width="2004" inkscape:window-x="0" inkscape:window-y="0" inkscape:zoom="0.16164384" objecttolerance="10" pagecolor="#ffffff" showgrid="false">
	</sodipodi:namedview>
<g id="V2" transform="translate(-1633.2204,-3.5593212e-7)" inkscape:transform-center-x="43.305087" inkscape:transform-center-y="24.745762">
	<g id="Stem">
		<g id="g112">
			<path id="path114" inkscape:connector-curvature="0" class="st0" d="M2155.6,1190.5c0,6.6-5.4,12-12,12h-9.1c-6.6,0-12-5.4-12-12
				v-185.7c0-6.6,5.4-12,12-12h9.1c6.6,0,12,5.4,12,12V1190.5z"/>
			<path id="path116" inkscape:connector-curvature="0" class="st0" d="M2155.6,1190.5c0,2.4-0.7,4.8-2.1,6.8
				c-1.4,2-3.4,3.6-5.6,4.4c-1.1,0.4-2.3,0.7-3.6,0.8c-1.2,0.1-2.4,0-3.6,0.1c-2.4,0-4.8,0.1-7.3,0c-2.4-0.2-4.8-1.2-6.7-2.7
				c-1.9-1.6-3.3-3.7-4-6.1c-0.3-1.2-0.5-2.5-0.5-3.7l-0.1-3.6l-0.1-7.3l-0.7-29.1l-0.9-29.1l-0.9-29.1l-0.7-29.1
				c-0.4-19.4-0.6-38.8-0.6-58.1c0-3.3,1-6.7,2.9-9.4c1.9-2.7,4.6-4.9,7.8-6c1.6-0.6,3.2-0.9,4.9-1l0.6,0l0.5,0l0.9,0l1.8,0l3.6,0
				l1.8,0l0.5,0l0.6,0l0.5,0l0.7,0.1c3.3,0.3,6.5,1.7,9,3.8c2.5,2.1,4.3,5,5.1,8.2c0.2,0.8,0.4,1.6,0.4,2.4c0,0.4,0.1,0.8,0.1,1.2
				l0,0.6l0,0.5l-0.1,3.6l-0.1,7.3c-0.2,9.7-0.5,19.4-0.7,29.1l-0.9,29.1l-0.9,29.1l-0.7,29.1
				C2155.8,1151.8,2155.6,1171.1,2155.6,1190.5L2155.6,1190.5z M2155.6,1190.5c0-19.4-0.2-38.8-0.6-58.1l-0.7-29.1l-0.9-29.1
				l-0.9-29.1c-0.2-9.7-0.5-19.4-0.7-29.1l-0.1-7.3l-0.1-3.6l0-0.5l0-0.3c0-0.2,0-0.4-0.1-0.6c0-0.4-0.1-0.8-0.2-1.2
				c-0.4-1.5-1.4-2.9-2.6-3.9c-1.2-1-2.7-1.6-4.2-1.7c-0.7-0.1-2.1,0-3.2,0l-3.6,0l-1.8,0l-0.9,0l-0.2,0l-0.1,0l-0.3,0
				c-0.8,0.1-1.5,0.2-2.2,0.5c-1.4,0.5-2.7,1.5-3.5,2.8c-0.9,1.3-1.3,2.7-1.3,4.3c0,19.4-0.2,38.8-0.6,58.1l-0.7,29.1l-0.9,29.1
				l-0.9,29.1l-0.7,29.1l-0.1,7.3l-0.1,3.6c0,1.2,0.1,2.4,0.4,3.5c0.6,2.3,1.9,4.4,3.7,5.9c1.8,1.6,4.1,2.6,6.5,2.8
				c2.4,0.1,4.8,0.1,7.2,0.1c1.2,0,2.4,0,3.6,0c1.2-0.1,2.4-0.3,3.5-0.7c2.3-0.8,4.3-2.4,5.6-4.4
				C2154.9,1195.3,2155.6,1192.9,2155.6,1190.5L2155.6,1190.5z"/>
		</g>
		<g id="g118">
			<path id="path120" inkscape:connector-curvature="0" class="st1" d="M2229.6,1253.2c0,8.4-5.4,15.3-12,15.3h-9.1
				c-6.6,0-12-6.8-12-15.3v-236.7c0-8.4,5.4-15.3,12-15.3h9.1c6.6,0,12,6.8,12,15.3V1253.2z"/>
			<path id="path122" inkscape:connector-curvature="0" class="st1" d="M2230.1,1253.2c0,3.1-0.6,6.2-2.1,8.9
				c-1.4,2.7-3.7,5.1-6.7,6.3c-0.7,0.3-1.5,0.5-2.3,0.6c-0.8,0.1-1.6,0.1-2.3,0.1l-4.5,0l-2.3,0c-0.8,0-1.5,0-2.3,0
				c-1.6-0.2-3.2-0.7-4.5-1.5c-1.4-0.8-2.6-1.9-3.5-3.2c-1-1.2-1.8-2.6-2.4-4.1c-0.6-1.5-1-3-1.3-4.6c-0.1-0.8-0.2-1.6-0.2-2.4
				l-0.1-2.3l-0.4-18c-0.1-6-0.4-12-0.6-18l-0.6-18l-1.5-36.1l-1.5-36.1l-0.7-18c-0.2-6-0.5-12-0.6-18l-0.4-18c-0.1-6-0.3-12-0.3-18
				l-0.3-36.2c0-0.3,0-1,0.1-1.5c0-0.5,0.1-1.1,0.1-1.6c0.1-1.1,0.3-2.1,0.6-3.2c0.5-2.1,1.3-4.2,2.4-6.2c1.1-2,2.5-3.9,4.3-5.5
				c1.8-1.7,4-3.1,6.5-4.1c1.3-0.5,2.6-0.8,4-1c0.7-0.1,1.4-0.1,2.1-0.1l1.2,0l4.5,0l2.3,0l1.1,0l0.8,0c0.5,0,0.7,0,1.1,0.1
				c2.7,0.3,5.3,1.3,7.5,2.6c4.4,2.7,7,6.8,8.5,10.8c0.8,2,1.2,4.1,1.5,6.2c0.1,1,0.2,2.1,0.2,3.1l-0.1,2.3l-0.4,18
				c-0.3,12-0.8,24.1-1.2,36.1l-1.5,36.1l-1.5,36.1l-0.6,18c-0.2,6-0.5,12-0.6,18l-0.4,18c-0.1,6-0.3,12-0.4,18L2230.1,1253.2
				L2230.1,1253.2z M2229.2,1253.2l-0.2-144.4l-0.1-72.2l0-18l0-2.2c0-0.7-0.1-1.4-0.1-2.2c-0.2-1.4-0.5-2.8-1.1-4.2
				c-1-2.7-2.8-5.1-5.2-6.5c-1.2-0.7-2.5-1.2-3.9-1.3c-0.6-0.1-1.4,0-2.2,0h-2.3l-4.5,0h-1.1c-0.3,0-0.7,0-1,0.1
				c-0.7,0.1-1.3,0.3-2,0.5c-2.6,1-4.7,3.1-6,5.6c-1.4,2.5-2,5.4-2,8.3l-0.2,144.4l-0.1,72.2l0,18c0,1.5-0.1,3,0.1,4.4
				c0.2,1.5,0.5,2.9,1.1,4.2c1.1,2.7,2.8,5.2,5.3,6.7c1.2,0.8,2.6,1.3,4,1.4c0.7,0.1,1.4,0,2.2,0.1h2.3l4.5,0c0.8,0,1.5,0,2.2-0.1
				c0.7-0.1,1.4-0.3,2.1-0.5c2.7-1,4.9-3.2,6.2-5.8C2228.5,1259.1,2229.2,1256.2,2229.2,1253.2L2229.2,1253.2z"/>
		</g>
		<g id="g124">
			<path id="path126" inkscape:connector-curvature="0" class="st2" d="M2302.2,1279.1c0,9.3-5.4,16.8-12,16.8h-9.1
				c-6.6,0-12-7.5-12-16.8v-260.3c0-9.3,5.4-16.8,12-16.8h9.1c6.6,0,12,7.5,12,16.8V1279.1z"/>
			<path id="path128" inkscape:connector-curvature="0" class="st2" d="M2302.2,1279.1c0,3.3-0.6,6.6-2.1,9.5
				c-1.4,2.9-3.7,5.6-6.9,6.8c-0.8,0.3-1.6,0.5-2.4,0.5c-0.8,0-1.6,0-2.5,0l-4.9,0c-1.6,0-3.3,0.2-4.9-0.4c-1.6-0.5-3-1.4-4.3-2.5
				c-2.4-2.3-3.9-5.4-4.8-8.6c-0.4-1.6-0.6-3.3-0.7-4.9l-0.1-4.9l-0.2-19.7c-0.4-26.2-1-52.5-1.6-78.7
				c-1.3-52.5-2.3-104.9-2.3-157.5c0-3.8,0.8-7.8,2.6-11.5c0.9-1.8,2.1-3.6,3.6-5.2c1.5-1.6,3.4-3,5.7-3.8c1.1-0.4,2.4-0.7,3.6-0.8
				c0.3,0,0.6,0,0.9,0h0.6l1.2,0l4.9,0l2.5,0c1.2,0,2.5,0.2,3.6,0.6c2.3,0.7,4.3,2,5.9,3.6c3.2,3.1,4.9,6.9,5.8,10.7
				c0.4,1.9,0.7,3.9,0.7,5.8l-0.1,5l-0.3,19.7c-0.4,26.2-1,52.5-1.6,78.7C2303.1,1174.1,2302.1,1226.6,2302.2,1279.1L2302.2,1279.1z
				 M2302.2,1279.1c0-52.5-1-105-2.3-157.5c-0.6-26.2-1.2-52.5-1.6-78.7l-0.3-19.7l-0.1-4.8c-0.1-1.4-0.2-2.7-0.6-4
				c-0.7-2.5-1.9-4.9-3.5-6.4c-0.8-0.7-1.6-1.2-2.5-1.5c-0.4-0.1-0.8-0.2-1.2-0.2l-2.4,0l-4.9,0l-1.2,0h-0.6l-0.3,0
				c-0.4,0-0.8,0.1-1.2,0.3c-1.6,0.6-3.3,2.3-4.4,4.5c-1.1,2.2-1.6,4.8-1.6,7.6c0,52.4-1,105-2.3,157.4c-0.6,26.2-1.2,52.5-1.6,78.7
				l-0.2,19.7l-0.1,4.9c0,1.6,0.2,3.2,0.6,4.8c0.7,3.1,2.2,6.2,4.5,8.5c1.2,1.1,2.6,2,4.1,2.5c1.5,0.5,3.2,0.4,4.8,0.4l4.9,0
				c0.8,0,1.6,0,2.5,0c0.8-0.1,1.6-0.2,2.4-0.5c3.1-1.1,5.4-3.8,6.8-6.7C2301.5,1285.7,2302.2,1282.4,2302.2,1279.1L2302.2,1279.1z"
				/>
		</g>
		<g id="g130">
			<path id="path132" inkscape:connector-curvature="0" class="st3" d="M2374.1,1218.3c0,7.5-5.4,13.7-12,13.7h-9.1
				c-6.6,0-12-6.1-12-13.7v-211.4c0-7.5,5.4-13.7,12-13.7h9.1c6.6,0,12,6.1,12,13.7V1218.3z"/>
			<path id="path134" inkscape:connector-curvature="0" class="st3" d="M2374.6,1218.4c0,2.8-0.7,5.6-2.2,8
				c-1.4,2.4-3.6,4.4-6.3,5.4c-1.3,0.5-2.8,0.8-4.2,0.8l-4.1,0.1l-4.1,0.1c-1.4,0.1-2.9-0.1-4.2-0.5c-2.8-0.9-5.1-2.8-6.8-5.1
				c-1.7-2.4-2.6-5.2-2.7-8.1l-0.4-16.3c-0.1-5.4-0.4-10.9-0.6-16.3l-0.6-16.3l-1.5-32.6c-2.2-43.5-3.9-87-3.8-130.4
				c0-4.1,1.1-8.3,3.3-12c2.2-3.6,5.7-6.8,10.1-8.5c1.1-0.4,2.3-0.7,3.4-0.9c0.6-0.1,1.2-0.2,1.8-0.2c0.3,0,0.6,0,0.9,0l0.7,0
				l4.1,0.1l4.1,0.1l0.5,0l0.5,0l0.3,0c0.1,0,1.2,0.1,1.8,0.1c1.2,0.1,2.3,0.4,3.4,0.8c4.5,1.5,8,4.6,10.3,8.2
				c2.3,3.6,3.4,7.7,3.4,11.7l-0.4,16.5c-0.3,10.9-0.8,21.7-1.2,32.6l-1.5,32.6C2376.2,1131.4,2374.5,1174.9,2374.6,1218.4
				L2374.6,1218.4L2374.6,1218.4z M2373.7,1218.3l-0.2-130.4l-0.1-65.2l0-16.3c-0.1-2.6-0.9-5.1-2.3-7.3c-1.4-2.1-3.5-3.8-5.9-4.6
				c-0.6-0.2-1.2-0.3-1.8-0.4c-0.6-0.1-1.2-0.1-1.9-0.1l-4.1,0l-4.1,0c-1.3,0-2.5,0.2-3.7,0.6c-2.3,0.9-4.3,2.7-5.6,4.8
				c-1.3,2.2-2,4.7-2,7.3l-0.2,130.4l-0.1,65.2l0,16.3c0.1,2.6,0.9,5.2,2.3,7.4c1.4,2.2,3.5,3.9,6,4.7c1.2,0.4,2.5,0.5,3.9,0.5
				l4.1,0l4.1,0c1.3,0,2.6-0.2,3.8-0.7c2.4-0.9,4.5-2.8,5.9-5C2373,1223.6,2373.7,1221,2373.7,1218.3L2373.7,1218.3L2373.7,1218.3z"
				/>
		</g>
	</g>
	<g id="Layer_4">
		<g id="g137">
			<path id="path139" inkscape:connector-curvature="0" class="st4" d="M2225.6,877c-0.6-15.7-1.3-31.5-2.2-47.2
				c-0.9-15.7-1.8-31.4-2.9-47.1c-1.1-15.7-2.3-31.4-3.6-47c-1.3-15.6-2.8-31.3-4.5-46.9c-3.3-31.2-7.2-62.3-12.3-93
				c-5.1-30.7-10.9-61.3-19.5-90.6l-0.2-0.7l-0.2-1.5c-1.2-8.8-2.2-17.3-3.2-26l-1.4-13l-1.4-13c-0.9-8.7-1.7-17.4-2.4-26.2
				c-0.7-8.8-1.3-17.6-1.5-26.6c-0.3-9-0.3-18.1,0.5-27.8c0.2-2.4,0.5-4.9,0.9-7.5c0.4-2.6,0.9-5.3,1.6-8.3c0.4-1.5,0.8-3,1.4-4.7
				c0.6-1.7,1.3-3.5,2.4-5.6c1.1-2.1,2.5-4.5,5.1-7.2c1.3-1.4,2.9-2.8,5-4.2c2.1-1.4,4.7-2.6,7.6-3.3c2.9-0.7,5.9-0.9,8.5-0.7
				c2.7,0.2,4.9,0.8,6.8,1.5c3.8,1.4,6.2,3,8.2,4.5c2,1.5,3.4,2.9,4.7,4.2c1.3,1.3,2.4,2.6,3.4,3.8c2,2.4,3.6,4.7,5.1,6.9
				c1.5,2.2,2.8,4.4,4,6.5c2.5,4.3,4.6,8.5,6.6,12.6c2,4.2,3.8,8.3,5.6,12.5c6.9,16.6,12.6,33.2,17.8,49.9c2.6,8.3,5,16.7,7.4,25.1
				l0.4,1.6l0.2,0.8l0.1,0.4l0.1,0.2c0-0.1,0.3,0.8,0.2,0.5l0,0.2c0.4,1.4,0.6,2.5,0.8,3.7c0.5,2.3,0.9,4.6,1.3,6.9
				c0.8,4.5,1.4,9,1.9,13.5c2,18,2.3,35.9,0.9,53.6c-0.3,4.4-0.8,8.8-1.3,13.2c-0.6,4.4-1.2,8.8-2,13.1c-1.5,8.7-3.5,17.3-6,25.7
				l-4-0.4c-0.6-8.7-1.3-17.2-2.2-25.7c-0.5-4.2-0.9-8.5-1.5-12.7c-0.5-4.2-1.1-8.4-1.8-12.5c-2.6-16.6-6.1-33-10.6-48.8
				c-1.1-3.9-2.4-7.8-3.6-11.7c-0.6-1.9-1.3-3.8-1.9-5.6c-0.3-0.9-0.7-1.8-1-2.5c0,0,0,0,0,0c-0.1-0.4,0.1,0.4,0.1,0.3l-0.1-0.2
				l-0.2-0.4l-0.3-0.7l-0.6-1.5c-3.4-7.8-6.8-15.7-10.2-23.4c-6.8-15.5-13.7-31-20.9-45.7c-1.8-3.7-3.6-7.3-5.5-10.8
				c-0.9-1.8-1.9-3.5-2.8-5.2c-0.9-1.7-1.9-3.3-2.8-4.9c-0.9-1.6-1.9-3.1-2.8-4.4c-0.9-1.4-1.8-2.6-2.6-3.5c-0.4-0.5-0.7-0.8-0.9-1
				c-0.2-0.2-0.3-0.3-0.1-0.1c0.3,0.2,0.9,0.7,2.6,1.3c0.9,0.3,2.1,0.7,3.7,0.8c1.6,0.1,3.5,0,5.3-0.4c1.8-0.5,3.5-1.2,4.7-2
				c1.2-0.8,2-1.5,2.6-2.1c1.1-1.2,1.3-1.8,1.4-1.9c0.1-0.2,0,0-0.2,0.3c-0.1,0.3-0.3,0.8-0.5,1.4c-0.4,1.2-0.7,2.7-1.1,4.3
				c-0.3,1.6-0.6,3.4-0.9,5.2c-0.5,3.7-1,7.5-1.3,11.5c-0.4,4-0.6,8-0.9,12.1c-1.6,32.9-0.4,67.4,2.2,101l-0.4-2.2
				c3.7,15.9,6.6,31.7,9,47.6c2.4,15.9,4.4,31.7,5.9,47.5c3.1,31.7,5,63.4,6,95c0.5,15.8,0.8,31.6,1,47.5c0.2,15.8,0.2,31.6,0,47.4
				c-0.4,31.6-1.2,63.1-3.1,94.7L2225.6,877L2225.6,877z"/>
		</g>
		<g id="g141">
			<path id="path143" inkscape:connector-curvature="0" class="st4" d="M1894.6,514.3c54.1,6.7,108.4,12.2,162.7,16.8
				c27.2,2.3,54.3,4.4,81.5,6.3c27.2,1.9,54.4,3.6,81.6,5c13.6,0.7,27.2,1.3,40.8,1.8c13.6,0.5,27.2,0.9,40.8,1.3
				c27.2,0.8,54.4,1.7,81.6,2.7c13.6,0.6,27.2,1.1,40.8,1.5l40.8,1.5c27.2,1,54.5,1.9,81.8,3.1l0,1.4c-27.2,2.8-54.5,4.3-81.8,5.3
				c-13.7,0.6-27.3,0.8-41,1c-13.7,0.2-27.3,0.1-41,0.1c-27.3-0.2-54.6-1.2-81.9-2.9c-13.6-0.8-27.3-1.8-40.9-2.8
				c-13.6-0.9-27.2-2-40.9-3c-27.2-2.1-54.4-4.4-81.6-6.9c-27.2-2.6-54.3-5.5-81.5-8.6c-27.1-3.2-54.2-6.6-81.2-10.2
				c-13.5-1.8-27-3.7-40.5-5.7c-13.5-2-27-4.1-40.4-6.4L1894.6,514.3L1894.6,514.3z"/>
		</g>
		<g id="g145">
			<path id="path147" inkscape:connector-curvature="0" class="st5" d="M2521.5,303.9c-1.4,1.5-2.7,2.7-4,4c-1.3,1.3-2.7,2.5-4,3.7
				c-2.7,2.4-5.4,4.7-8.2,7c-5.5,4.5-11.2,8.8-16.9,12.9c-11.5,8.3-23.3,16-35.3,23.2c-24.1,14.5-49,27.3-74.5,38.9
				c-50.9,23.2-103.6,41.8-157,57.5c-53.5,15.6-107.7,28.3-162.3,38.7c-54.6,10.4-109.6,18.6-164.8,25.1c55-7.8,109.7-17.3,164-29
				c54.2-11.7,108-25.6,160.8-42.4c52.8-16.9,104.6-36.6,154.3-60.7c24.8-12.1,49-25.3,72.2-40c11.6-7.4,22.9-15.1,33.8-23.3
				c5.4-4.1,10.7-8.4,15.9-12.8c2.6-2.2,5.1-4.4,7.5-6.7c1.2-1.1,2.4-2.3,3.6-3.4c1.1-1.1,2.3-2.4,3.3-3.4L2521.5,303.9
				L2521.5,303.9z"/>
		</g>
		<g id="g149">
			<path id="path151" inkscape:connector-curvature="0" class="st6" d="M1908.5,344.1c50-9.8,100.1-18.7,150.3-27
				c50.2-8.2,100.5-15.7,151-22.1c50.5-6.3,101.1-11.7,151.9-14.5c25.4-1.3,50.9-2,76.3-1.2c12.7,0.4,25.4,1.3,38.1,2.9
				c6.3,0.8,12.6,1.8,18.8,3.2c6.2,1.4,12.4,3.1,18.3,5.4c-6-2.2-12.1-3.7-18.4-4.9c-6.2-1.2-12.5-2.1-18.8-2.7
				c-12.6-1.3-25.3-1.8-38-1.9c-25.4-0.2-50.7,1.2-76,3.2c-50.6,4.1-100.9,10.8-151.1,18.4c-50.2,7.7-100.2,16.5-150,26
				c-49.8,9.6-99.6,19.7-149,30.8L1908.5,344.1L1908.5,344.1z"/>
		</g>
		<g id="g153">
			<path id="path155" inkscape:connector-curvature="0" class="st6" d="M2532.7,286.7c-0.2-1.5,0.7,3.8,0.5,5.2
				c-0.1,2-0.4,3.6-0.8,5c-0.8,2.8-1.8,4.5-2.6,5.8c-1.7,2.6-2.8,3.7-3.9,4.7c-2,1.9-3.3,2.8-4.6,3.7c-2.4,1.6-4.4,2.7-6.3,3.7
				c-3.7,1.9-7.1,3.5-10.5,4.9c-6.7,2.9-13.3,5.4-19.8,7.8c-13.1,4.8-26.1,9.2-39.1,13.5c-26,8.5-52.1,16.4-78.3,24.1
				c-52.3,15.3-104.7,29.5-157.4,43.1c-52.6,13.6-105.4,26.5-158.5,38.4c-26.5,5.9-53.1,11.6-79.9,16.8c-13.4,2.6-26.8,5-40.5,7.1
				c-6.8,1-13.7,2-20.7,2.7c-3.5,0.4-7.1,0.6-10.9,0.8c-1.9,0-3.9,0.1-6.2-0.1c-1.2-0.1-2.4-0.2-4.2-0.6c-0.9-0.2-1.9-0.5-3.5-1.3
				c-0.8-0.4-1.7-1-2.8-2c-0.6-0.5-1.2-1.2-1.7-2.1c-0.6-1.1-0.9-1.4-1.5-3.6c0.1,0.7-0.4-2-0.2-2.7c0-1,0.2-1.9,0.4-2.7
				c0.4-1.5,1-2.4,1.4-3.2c0.9-1.5,1.7-2.2,2.3-2.8c1.3-1.2,2.3-1.9,3.3-2.6c1.9-1.3,3.6-2.2,5.3-3.1c3.4-1.8,6.6-3.2,9.9-4.6
				c6.5-2.8,12.9-5.2,19.4-7.6c12.9-4.8,25.8-9.1,38.8-13.4c25.9-8.5,51.9-16.3,78-24c52.1-15.2,104.5-29.5,157-43
				c52.5-13.5,105.2-26.4,158.2-38.3c26.5-5.9,53-11.6,79.6-16.7c13.3-2.5,26.7-5,40.1-7c6.7-1,13.4-2,20.2-2.6
				c3.4-0.3,6.8-0.6,10.2-0.7c1.7,0,3.4,0,5.1,0.1c0.8,0.1,1.7,0.2,2.5,0.4c0.4,0.1,0.8,0.2,1.2,0.4c0.4,0.2,0.7,0.5,0.8,0.9
				L2532.7,286.7L2532.7,286.7z M2513.2,290.8c-0.1-0.4-0.5-0.7-0.9-0.9c-0.4-0.2-0.8-0.3-1.2-0.4c-0.8-0.2-1.7-0.3-2.5-0.3
				c-1.7-0.1-3.4,0-5.1,0.1c-3.4,0.2-6.7,0.6-10.1,1c-6.7,0.9-13.4,2-20,3.2c-13.3,2.5-26.6,5.3-39.8,8.2
				c-26.4,5.9-52.7,12.4-79,19.1c-52.5,13.5-104.7,28-156.7,43.1c-52,15.2-103.8,31-155.3,47.7c-25.7,8.4-51.3,17-76.7,26.2
				c-12.7,4.6-25.3,9.3-37.7,14.3c-6.2,2.5-12.3,5.1-18.2,7.8c-2.9,1.4-5.8,2.8-8.4,4.3c-1.3,0.7-2.5,1.5-3.4,2.1
				c-0.4,0.3-0.8,0.6-0.7,0.6c0.1-0.1,0.2-0.1,0.7-0.9c0.2-0.4,0.6-1,0.9-2c0.2-0.5,0.3-1.2,0.3-2c0.1-0.5-0.3-3-0.2-2.1
				c-0.5-2-0.7-2.1-1.2-3c-0.4-0.7-0.9-1.2-1.3-1.6c-0.8-0.8-1.4-1.1-1.8-1.3c-0.8-0.4-1-0.4-1.1-0.4c-0.1,0,0.4,0,0.9,0.1
				c1.1,0,2.5,0,4-0.1c3-0.2,6.2-0.5,9.4-1c6.4-0.9,13-2,19.5-3.2c13.1-2.4,26.3-5.2,39.4-8.2c26.3-5.9,52.5-12.4,78.7-19.1
				c52.3-13.5,104.5-27.9,156.4-43c51.9-15.1,103.6-30.9,154.9-47.6c25.6-8.4,51.2-17,76.4-26.1c12.6-4.6,25.1-9.2,37.3-14.2
				c6.1-2.5,12.1-5,17.7-7.6c2.8-1.3,5.5-2.7,7.8-3.9c1.1-0.6,2.1-1.3,2.5-1.5c0.1-0.1,0.2-0.2-0.6,0.5c-0.4,0.4-1,0.9-2.2,2.8
				c-0.6,1-1.4,2.3-2,4.6c-0.3,1.2-0.6,2.6-0.7,4.4c-0.2,1.1,0.6,6.3,0.4,4.5L2513.2,290.8z"/>
		</g>
		<g id="g157">
			<path id="path159" inkscape:connector-curvature="0" class="st4" d="M2420.7,170.9l0.5,2.3c0.7,3.5,0.4,7.7,0.2,8.9
				c-0.2,2-0.6,3.8-1,5c-0.4,1.5-0.9,2.8-1.3,3.7c-0.4,1-0.9,2.1-1.3,2.7c-0.4,0.7-0.9,1.6-1.2,2.1c-0.3,0.5-0.7,1.1-1.1,1.6
				c-0.3,0.5-0.6,0.8-0.9,1.2c-0.3,0.4-0.6,0.8-0.9,1.1l-0.8,0.9c-0.5,0.5-0.9,1-1.4,1.4c-0.4,0.4-0.8,0.8-1.2,1.1l-1.1,0.9
				c-1.3,1.1-2.4,2-3.4,2.7c-1,0.7-1.9,1.3-2.8,1.9c-3.4,2.2-6.3,3.8-9.1,5.3c-5.6,3-10.8,5.4-16,7.8c-10.4,4.8-20.5,9-30.7,13.2
				c-20.3,8.3-40.6,16-61,23.5c-40.7,15-81.5,29-122.6,42.5c-41,13.5-82.2,26.4-123.8,38.4c-20.8,6-41.6,11.8-62.7,17.2
				c-10.6,2.7-21.2,5.2-32,7.5c-5.4,1.1-10.9,2.2-16.7,3.1c-2.9,0.4-5.9,0.8-9.3,1.1c-0.8,0.1-1.7,0.1-2.7,0.1c-1,0-2,0-3.2,0
				c-1.3-0.1-2.6-0.1-4.8-0.6c-1.1-0.3-2.5-0.6-4.6-1.7c-0.5-0.2-1.1-0.6-1.8-1.1c-0.6-0.4-1.3-1-2.1-1.7c-0.7-0.6-1.5-1.6-2.2-2.6
				c-0.7-1-1.4-2.3-1.8-3.6c-1-3.5-0.1,0-0.7-2.7c-0.3-1.8-0.2-4-0.1-4.6c0.1-1.1,0.3-2,0.5-2.6c0.2-0.8,0.5-1.5,0.7-1.9
				c1-2.2,1.9-3.3,2.5-4.2c1.4-1.8,2.4-2.6,3.4-3.4c0.9-0.8,1.7-1.4,2.5-1.9s1.5-1,2.2-1.5c2.8-1.8,5.4-3.3,8-4.6
				c5.2-2.7,10.2-5.1,15.2-7.4c10.1-4.6,20.1-8.8,30.1-12.9c20.1-8.2,40.3-15.9,60.5-23.3c40.5-14.9,81.2-28.9,122.1-42.3
				c40.9-13.4,81.9-26.3,123.3-38.3c20.7-6,41.4-11.7,62.2-17c10.4-2.6,20.9-5.2,31.4-7.4c5.3-1.1,10.6-2.1,15.9-2.9
				c2.7-0.4,5.3-0.7,8-0.9c1.3-0.1,2.7-0.1,4-0.1c0.7,0,1.4,0.1,2,0.3c0.6,0.2,1.4,0.4,1.6,1.1L2420.7,170.9L2420.7,170.9z
				 M2391.6,178.2c-0.3-0.6-1-0.8-1.7-1c-0.7-0.1-1.3-0.1-2-0.2c-1.3,0-2.7,0.1-4,0.3c-2.7,0.3-5.3,0.8-7.9,1.4
				c-5.2,1.1-10.4,2.4-15.6,3.8c-10.3,2.8-20.6,5.9-30.8,9.1c-20.4,6.5-40.7,13.4-61,20.6c-40.4,14.3-80.6,29.5-120.5,45.2
				c-39.9,15.7-79.6,32-118.8,49.1c-19.6,8.6-39.1,17.3-58.3,26.4c-9.6,4.6-19.1,9.3-28.3,14.1c-4.6,2.4-9.1,4.9-13.3,7.5
				c-2.1,1.3-4.1,2.6-5.7,3.8c-0.4,0.3-0.8,0.6-1.1,0.8c-0.3,0.2-0.6,0.5-0.6,0.6c-0.1,0.1-0.1,0.2,0.6-0.6c0.3-0.3,0.8-0.9,1.5-2.5
				c0.1-0.3,0.3-0.8,0.5-1.5c0.1-0.5,0.3-1.3,0.4-2.1c0.1-0.5,0.2-2.4-0.1-4.1c-0.6-2.6,0.4,1.1-0.6-2.2c-0.4-1.1-1-2.3-1.6-3.1
				c-0.6-0.9-1.3-1.7-1.9-2.2c-0.6-0.6-1.3-1.1-1.7-1.4c-0.6-0.4-1-0.6-1.3-0.8c-1.5-0.8-2.3-0.9-2.7-1c-0.9-0.2-0.9-0.2-0.8-0.2
				l0.8-0.1c0.4,0,0.8-0.1,1.3-0.2c2-0.3,4.3-0.7,6.7-1.2c4.8-1,9.8-2.3,14.8-3.6c10-2.7,20.1-5.8,30.2-9
				c20.2-6.4,40.4-13.3,60.5-20.4c40.2-14.3,80.2-29.4,120-45.1c39.7-15.7,79.3-31.9,118.3-48.9c19.5-8.5,38.9-17.2,57.8-26.2
				c9.5-4.5,18.8-9.1,27.7-13.9c4.4-2.4,8.8-4.8,12.6-7.1c1.9-1.1,3.6-2.3,4.7-3.1c0.3-0.2,0.4-0.4,0.5-0.4c0.1-0.1,0.1-0.1-0.3,0.2
				l-0.3,0.3c-0.1,0.1-0.3,0.3-0.5,0.4c-0.2,0.2-0.4,0.4-0.7,0.7l-0.5,0.5l-0.6,0.7c-0.2,0.3-0.4,0.5-0.6,0.8
				c-0.3,0.4-0.5,0.8-0.8,1.2c-0.2,0.4-0.7,1.1-1,1.6c-0.3,0.5-0.7,1.4-1.1,2.3c-0.3,0.8-0.7,1.8-1.1,3.2c-0.3,1.1-0.7,2.7-0.9,4.5
				c-0.2,1-0.4,5.1,0.3,8.4c0.9,4,0.2,1,0.4,1.8L2391.6,178.2L2391.6,178.2z"/>
		</g>
		<g id="g161">
			<path id="path163" inkscape:connector-curvature="0" class="st5" d="M2404.3,181.2c0,0.2,0-0.1,0,0.5c0,0.5-0.2,1-0.3,1.2
				c-0.1,0.3-0.2,0.5-0.3,0.7c-0.1,0.2-0.2,0.4-0.3,0.5c-0.4,0.6-0.9,1-1.2,1.2c-0.7,0.6-1.3,0.9-1.9,1.3c-1.2,0.6-2.3,1.1-3.4,1.6
				c-2.2,0.9-4.4,1.6-6.6,2.3c-4.3,1.3-8.7,2.5-13,3.6c-8.7,2.2-17.4,4.1-26.1,5.9c-17.5,3.6-35,6.8-52.5,9.9
				c-35.1,6.1-70.3,11.4-105.5,16.3c-35.2,4.9-70.6,9.2-106,12.9c-17.7,1.8-35.4,3.5-53.2,4.7c-8.9,0.6-17.8,1.1-26.7,1.4
				c-4.5,0.1-8.9,0.2-13.4,0.1c-2.3-0.1-4.5-0.2-6.8-0.4c-1.1-0.1-2.3-0.3-3.5-0.5c-0.6-0.1-1.2-0.3-1.9-0.6
				c-0.3-0.1-0.7-0.3-1.1-0.6c-0.4-0.3-1-0.8-1.1-1.8c0-0.5,0-0.1,0-0.5c0-0.3,0.1-0.6,0.2-0.7c0.1-0.4,0.3-0.6,0.4-0.8
				c0.3-0.4,0.6-0.7,0.9-0.9c0.6-0.5,1.1-0.8,1.7-1.1c1.1-0.6,2.1-1,3.2-1.5c2.1-0.9,4.3-1.6,6.4-2.2c4.3-1.3,8.6-2.5,12.9-3.6
				c8.7-2.2,17.4-4.1,26.1-5.9c17.4-3.6,34.9-6.8,52.5-9.9c35.1-6.1,70.2-11.4,105.5-16.3c35.2-4.9,70.5-9.2,105.9-12.9
				c17.7-1.8,35.4-3.5,53.1-4.7c8.9-0.6,17.7-1.1,26.6-1.4c4.4-0.1,8.9-0.2,13.3-0.1c2.2,0.1,4.4,0.2,6.7,0.4
				c1.1,0.1,2.2,0.3,3.3,0.5c0.5,0.1,1.1,0.3,1.6,0.5c0.5,0.2,1.1,0.5,1.2,1.1L2404.3,181.2L2404.3,181.2z M2400.8,181.4
				c-0.1-0.6-0.7-0.9-1.2-1.1c-0.5-0.2-1.1-0.4-1.6-0.5c-1.1-0.2-2.2-0.4-3.3-0.5c-2.2-0.2-4.4-0.3-6.7-0.3c-4.4-0.1-8.9,0-13.3,0.2
				c-8.9,0.3-17.8,0.9-26.6,1.6c-17.7,1.4-35.4,3.2-53.1,5.1c-35.3,4-70.6,8.6-105.8,13.8c-35.2,5.2-70.3,10.8-105.2,17.1
				c-17.5,3.2-34.9,6.5-52.3,10.3c-8.7,1.9-17.3,3.8-25.9,6.1c-4.3,1.1-8.6,2.3-12.7,3.6c-2.1,0.7-4.2,1.4-6.2,2.2
				c-1,0.4-2,0.8-2.8,1.3c-0.4,0.2-0.8,0.5-1.1,0.7c-0.2,0.1-0.2,0.2-0.3,0.3c0,0,0,0,0-0.1c0,0,0.1-0.1,0.1-0.3c0-0.3,0,0.2,0-0.1
				c-0.1-0.4-0.3-0.5-0.2-0.5c0,0,0.2,0.1,0.3,0.2c0.3,0.1,0.8,0.3,1.3,0.4c1,0.2,2,0.3,3.1,0.5c2.1,0.2,4.3,0.3,6.5,0.3
				c4.4,0.1,8.8,0,13.2-0.2c8.8-0.3,17.7-0.9,26.5-1.6c17.7-1.4,35.4-3.2,53-5.1c35.3-3.9,70.5-8.6,105.7-13.8
				c35.2-5.2,70.2-10.8,105.2-17.1c17.5-3.2,34.9-6.5,52.2-10.3c8.7-1.9,17.3-3.8,25.8-6c4.3-1.1,8.5-2.3,12.6-3.6
				c2.1-0.7,4.1-1.4,6-2.1c0.9-0.4,1.9-0.8,2.6-1.2c0.4-0.2,0.7-0.4,0.9-0.6c0.1-0.1,0.1-0.1,0,0.1l-0.1,0.2c0,0.1-0.1,0.2-0.2,0.3
				c0,0.1-0.1,0.4-0.2,0.8c0,0.5,0,0,0,0.1L2400.8,181.4L2400.8,181.4z"/>
		</g>
		<g id="g165">
			<path id="path167" inkscape:connector-curvature="0" class="st4" d="M2375.5,160.8c-0.1-1,0.5,0.2-1.4,6.3
				c-1.5,3.5-2.4,4.3-3.4,5.6c-0.8,1-1.8,1.9-2.3,2.3c-0.7,0.6-1.2,1-1.6,1.3c-0.5,0.3-0.9,0.6-1.2,0.8c-0.3,0.2-0.7,0.4-1,0.6
				l-0.8,0.4l-0.6,0.3c-1.6,0.7-2.4,1-3.3,1.3c-1.6,0.5-2.7,0.8-3.8,1c-2.1,0.5-3.9,0.8-5.7,1.1c-3.6,0.6-6.9,1.1-10.2,1.5
				c-6.6,0.9-13.1,1.5-19.6,2.2c-13,1.3-25.8,2.4-38.7,3.4c-25.7,2-51.4,3.6-77.1,4.9c-25.7,1.4-51.4,2.5-77.2,3.2
				c-12.9,0.4-25.8,0.7-38.7,0.8c-6.5,0-13,0-19.5-0.1c-3.3-0.1-6.6-0.2-10-0.4c-1.7-0.1-3.4-0.2-5.3-0.4c-1-0.1-1.9-0.2-3.1-0.4
				c-0.6-0.1-1.3-0.2-2.3-0.5c-0.5-0.2-1.1-0.3-2.2-0.8c-0.2-0.1-0.6-0.3-1-0.5c-0.3-0.2-0.9-0.6-1.4-1c-0.5-0.4-1.3-1.2-2-2.2
				c-0.8-1.1-1.5-2.8-1.7-4.8c0-2.5-0.3-1,0.7-4.7c0.8-1.8,1.2-2.2,1.7-2.8c0.4-0.5,0.9-1,1.2-1.2c0.4-0.3,0.7-0.5,0.9-0.7
				c1-0.7,1.6-0.9,2-1.2c1-0.4,1.6-0.6,2.2-0.8c1.2-0.4,2.1-0.6,3.1-0.8c1.8-0.4,3.5-0.7,5.2-1c3.4-0.6,6.6-1,9.9-1.4
				c6.5-0.8,12.9-1.5,19.4-2.2c12.9-1.3,25.7-2.3,38.5-3.3c25.6-2,51.3-3.5,76.9-4.9c25.6-1.3,51.3-2.5,76.9-3.2
				c12.8-0.4,25.7-0.7,38.5-0.7c6.4,0,12.8,0,19.2,0.1c3.2,0.1,6.4,0.2,9.6,0.4c1.6,0.1,3.2,0.2,4.8,0.4c0.8,0.1,1.6,0.2,2.4,0.3
				c0.4,0.1,0.8,0.2,1.2,0.3c0.2,0.1,0.4,0.1,0.6,0.2c0.2,0.1,0.4,0.2,0.4,0.4L2375.5,160.8L2375.5,160.8z M2355.6,159.5
				c0-0.2-0.2-0.3-0.4-0.4c-0.2-0.1-0.4-0.1-0.6-0.2c-0.4-0.1-0.8-0.2-1.2-0.2c-0.8-0.1-1.6-0.1-2.4-0.2c-1.6-0.1-3.2-0.1-4.8-0.1
				c-3.2,0-6.4,0.1-9.6,0.3c-6.4,0.3-12.8,0.7-19.2,1.1c-12.8,0.9-25.5,2-38.3,3.2c-25.5,2.4-50.9,5.2-76.4,8.2
				c-25.4,3-50.8,6.3-76.1,9.8c-12.6,1.8-25.3,3.7-37.8,5.8c-6.3,1-12.5,2.1-18.7,3.3c-3.1,0.6-6.1,1.2-9.1,1.9
				c-1.5,0.3-2.9,0.7-4.2,1.1c-0.6,0.2-1.2,0.4-1.6,0.5c-0.2,0.1-0.3,0.1,0,0c0.1-0.1,0.3-0.1,1-0.6c0.1-0.1,0.3-0.2,0.6-0.5
				c0.2-0.2,0.6-0.5,1-1c0.4-0.6,0.8-0.9,1.6-2.6c0.9-3.6,0.6-2,0.7-4.4c-0.2-1.9-0.9-3.5-1.6-4.6c-0.7-1-1.4-1.6-1.8-2
				c-0.4-0.4-0.9-0.7-1.1-0.8c-0.3-0.2-0.6-0.3-0.7-0.4c-0.7-0.3-1-0.4-1.1-0.4c-0.3-0.1-0.1-0.1,0,0c0.4,0,1,0.1,1.6,0.1
				c1.3,0,2.8,0.1,4.3,0c3,0,6.1-0.1,9.2-0.3c6.2-0.3,12.6-0.7,18.9-1.1c12.7-0.9,25.4-2,38-3.2c25.4-2.4,50.8-5.2,76.1-8.2
				c25.4-3,50.7-6.2,75.9-9.8c12.6-1.8,25.2-3.7,37.6-5.7c6.2-1,12.4-2.1,18.4-3.3c3-0.6,6-1.2,8.7-1.8c1.3-0.3,2.7-0.7,3.6-1
				c0.5-0.1,0.9-0.3,0.8-0.3c-0.1,0-0.2,0-1,0.4l-0.4,0.2l-0.5,0.3c-0.1,0.1-0.5,0.3-0.7,0.4c-0.2,0.1-0.6,0.3-1,0.6
				c-0.3,0.2-0.8,0.6-1.4,1.1c-0.4,0.4-1.3,1.2-2.1,2.1c-0.9,1.2-1.7,1.9-3.2,5.3c-1.9,6-1.3,7.1-1.4,6L2355.6,159.5L2355.6,159.5z"
				/>
		</g>
		<g id="g169">
			<path id="path171" inkscape:connector-curvature="0" class="st5" d="M2560.7,462c0.1-0.3-0.2,1.9-0.5,1.9
				c-0.3,0.5-0.6,0.8-0.8,1.1c-0.5,0.5-0.8,0.7-1.1,0.9c-0.6,0.4-1.2,0.6-1.7,0.9c-1,0.4-1.9,0.7-2.8,1c-1.8,0.6-3.5,1-5.3,1.4
				c-3.5,0.8-6.9,1.5-10.4,2.1c-6.9,1.3-13.8,2.3-20.7,3.4c-13.8,2-27.6,3.8-41.4,5.5c-27.6,3.3-55.3,6.3-82.9,9
				c-55.3,5.5-110.7,10.3-166.1,14.6c-55.4,4.3-110.9,8.1-166.4,11.2c-27.8,1.5-55.5,2.9-83.3,3.8c-13.9,0.5-27.8,0.8-41.7,1
				c-7,0.1-13.9,0-20.9-0.1c-3.5-0.1-7-0.2-10.5-0.5c-1.8-0.1-3.5-0.3-5.3-0.6c-0.9-0.1-1.8-0.3-2.7-0.5c-0.5-0.1-1-0.3-1.5-0.5
				c-0.3-0.1-0.6-0.3-0.9-0.5c-0.2-0.1-0.4-0.3-0.6-0.6c-0.2-0.3-0.4-0.7-0.5-1.2c-0.1-0.2,0.1-1.2,0.3-1.3c0.2-0.3,0.3-0.5,0.5-0.7
				c0.3-0.3,0.6-0.5,0.8-0.7c0.5-0.3,1-0.5,1.4-0.7c0.9-0.4,1.8-0.7,2.6-0.9c1.7-0.5,3.4-1,5.2-1.4c3.4-0.8,6.9-1.5,10.3-2.1
				c6.9-1.3,13.7-2.3,20.6-3.3c13.8-2,27.6-3.8,41.4-5.5c27.6-3.3,55.2-6.3,82.9-9c55.3-5.5,110.7-10.3,166.1-14.5
				c55.4-4.3,110.9-8.1,166.4-11.2c27.7-1.5,55.5-2.9,83.3-3.8c13.9-0.5,27.8-0.8,41.7-1c6.9-0.1,13.9,0,20.8,0.1
				c3.5,0.1,6.9,0.2,10.4,0.5c1.7,0.1,3.5,0.3,5.2,0.5c0.9,0.1,1.7,0.3,2.6,0.5c0.4,0.1,0.8,0.2,1.2,0.4c0.4,0.2,0.8,0.4,0.9,0.8
				L2560.7,462L2560.7,462z M2557.2,461.9c-0.1-0.5-0.6-0.7-0.9-0.8c-0.4-0.2-0.8-0.3-1.2-0.4c-0.8-0.2-1.7-0.4-2.6-0.5
				c-1.7-0.2-3.4-0.4-5.2-0.5c-3.5-0.2-6.9-0.4-10.4-0.4c-6.9-0.1-13.9-0.1-20.8,0c-13.9,0.2-27.8,0.6-41.7,1.2
				c-27.8,1.1-55.5,2.6-83.2,4.3c-55.5,3.4-110.9,7.5-166.3,12c-55.4,4.6-110.7,9.6-166,15.4c-27.6,2.9-55.2,6-82.8,9.5
				c-13.8,1.7-27.5,3.6-41.2,5.7c-6.9,1-13.7,2.2-20.5,3.4c-3.4,0.6-6.8,1.3-10.1,2.1c-1.7,0.4-3.3,0.8-4.9,1.3
				c-0.8,0.3-1.6,0.5-2.3,0.8c-0.3,0.2-0.7,0.3-0.9,0.5c-0.1,0.1-0.2,0.1-0.2,0.1c0,0,0,0,0.1-0.1c0,0.1,0.2-0.7,0.1-0.6
				c0-0.3-0.1-0.5-0.2-0.6c-0.1-0.1-0.1-0.1-0.1-0.1c0,0,0.1,0.1,0.2,0.1c0.3,0.1,0.6,0.2,1,0.3c0.7,0.2,1.6,0.3,2.4,0.4
				c1.7,0.2,3.4,0.4,5.1,0.5c3.4,0.2,6.9,0.4,10.3,0.4c6.9,0.1,13.8,0.1,20.8,0c13.9-0.2,27.7-0.6,41.6-1.2
				c27.7-1.1,55.5-2.6,83.2-4.3c55.4-3.4,110.9-7.5,166.2-12c55.4-4.6,110.7-9.6,165.9-15.4c27.6-2.9,55.2-6,82.8-9.4
				c13.8-1.7,27.5-3.6,41.2-5.7c6.8-1,13.7-2.2,20.4-3.4c3.4-0.6,6.7-1.3,10-2.1c1.6-0.4,3.3-0.8,4.8-1.3c0.8-0.2,1.5-0.5,2.1-0.8
				c0.3-0.1,0.6-0.3,0.7-0.3c0,0,0,0-0.1,0.1c-0.1,0.1-0.2,0.2-0.4,0.6c-0.2-0.2-0.4,1.8-0.3,1.3L2557.2,461.9L2557.2,461.9z"/>
		</g>
		<g id="g173">
			<path id="path175" inkscape:connector-curvature="0" class="st6" d="M2577.2,545.3c0.2-2.3-0.1,5.4-0.9,7.3
				c-0.7,2.7-1.6,5-2.5,6.9c-1.9,3.7-3.8,5.9-5.3,7.5c-1.5,1.6-2.8,2.7-3.9,3.5c-1.1,0.8-2,1.5-2.8,2c-1.6,1-2.8,1.6-3.9,2.2
				c-1.1,0.5-2,0.9-2.8,1.3c-1.7,0.7-3.1,1.2-4.3,1.6c-1.3,0.4-2.4,0.8-3.6,1.1c-4.4,1.2-8.2,2-11.9,2.7c-7.4,1.4-14.3,2.5-21.2,3.5
				c-13.8,1.9-27.3,3.4-40.8,4.7c-26.9,2.7-53.7,4.7-80.5,6.5c-53.5,3.6-106.9,6.1-160.3,7.9c-53.4,1.8-106.9,3-160.4,3
				c-26.8,0-53.5-0.2-80.4-1c-13.4-0.4-26.9-1-40.5-1.9c-6.8-0.5-13.6-1-20.7-1.9c-3.5-0.4-7.1-0.9-11-1.7c-2-0.4-4-0.8-6.5-1.6
				c-1.3-0.4-2.7-0.8-4.7-1.9c-1.1-0.6-2.3-1.2-4.1-2.7c-0.9-0.8-2-1.9-3.3-3.7c-0.6-0.9-1.2-2-1.7-3.4c-0.5-1.7-0.8-2.1-1-5.4
				c-0.1,1.1,0.1-2.8,0.4-3.8c0.3-1.4,0.8-2.6,1.3-3.6c1-1.9,2-3.1,2.8-4c1.7-1.7,2.8-2.4,3.8-3.1c1.9-1.2,3.2-1.7,4.5-2.3
				c2.4-1,4.4-1.5,6.3-2.1c3.8-1,7.3-1.8,10.8-2.5c6.9-1.3,13.7-2.4,20.5-3.3c13.5-1.9,26.8-3.3,40.2-4.6c26.7-2.6,53.3-4.7,80-6.5
				c53.3-3.5,106.6-6,159.8-7.9c53.3-1.8,106.6-2.9,159.9-3c26.6,0,53.3,0.2,79.9,1c13.3,0.4,26.6,1,39.9,1.9
				c6.6,0.5,13.3,1,19.9,1.8c3.3,0.4,6.6,0.9,9.9,1.5c1.6,0.3,3.3,0.7,4.9,1.2c0.8,0.3,1.6,0.5,2.3,0.9c0.4,0.2,0.7,0.4,1,0.7
				c0.3,0.3,0.6,0.6,0.6,1.1L2577.2,545.3L2577.2,545.3z M2547.2,545.3c0-0.4-0.3-0.8-0.6-1c-0.3-0.3-0.7-0.5-1.1-0.6
				c-0.8-0.3-1.5-0.6-2.3-0.8c-1.6-0.4-3.2-0.7-4.9-1c-3.3-0.5-6.6-0.8-9.9-1.1c-6.6-0.5-13.3-0.7-19.9-0.9
				c-13.3-0.3-26.6-0.2-39.9,0c-26.6,0.5-53.2,1.5-79.7,2.8c-53.1,2.6-106.2,6.2-159.2,10.5c-53,4.3-105.9,9.3-158.7,15.3
				c-26.4,3-52.7,6.3-78.8,10.1c-13.1,1.9-26.1,4-38.9,6.4c-6.4,1.2-12.7,2.5-18.8,3.9c-3,0.7-6,1.5-8.6,2.4
				c-1.3,0.4-2.5,0.9-3.1,1.2c-0.3,0.1-0.5,0.3,0,0c0.3-0.2,0.8-0.4,1.9-1.5c0.5-0.6,1.3-1.4,2.1-3c0.4-0.8,0.8-1.8,1.1-3
				c0.3-0.8,0.5-4.5,0.4-3.2c-0.1-3.1-0.4-3.3-0.8-4.8c-0.4-1.2-0.9-2.1-1.4-2.9c-1-1.5-1.8-2.2-2.4-2.8c-1.2-1-1.7-1.2-2-1.4
				c-0.6-0.3-0.3-0.2,0-0.1c0.7,0.2,1.9,0.4,3.2,0.6c2.7,0.4,5.7,0.7,8.8,0.9c6.2,0.4,12.6,0.7,19.1,0.8c13,0.3,26.1,0.2,39.3,0
				c26.3-0.5,52.8-1.5,79.3-2.8c52.9-2.6,105.8-6.2,158.7-10.5c52.8-4.3,105.7-9.3,158.2-15.3c26.3-3,52.5-6.3,78.4-10.1
				c12.9-1.9,25.8-3.9,38.3-6.3c6.2-1.2,12.4-2.4,18-3.8c2.8-0.7,5.5-1.4,7.5-2.1c0.5-0.2,0.9-0.3,1.2-0.4c0.3-0.1,0.5-0.2,0.3-0.2
				c-0.1,0-0.2,0.1-0.6,0.2c-0.3,0.2-0.8,0.4-1.7,1c-0.4,0.3-1,0.7-1.8,1.2c-0.7,0.6-1.7,1.4-2.9,2.7c-1.2,1.3-2.8,3.2-4.6,6.5
				c-0.9,1.7-1.7,3.7-2.3,6.3c-0.7,1.7-0.9,9.2-0.8,6.7L2547.2,545.3L2547.2,545.3z"/>
		</g>
		<g id="g177">
			<path id="path179" inkscape:connector-curvature="0" class="st5" d="M2545.6,637.8c0,0.1,0-0.3,0,1.9c0,1.9-0.1,2.5-0.2,3.6
				c-0.3,2.1-0.7,4-1.3,5.8c-0.6,1.8-1.2,3.3-1.9,4.7c-0.6,1.3-1.4,2.6-2,3.6c-1.4,2.1-2.6,3.6-3.8,4.9c-1.2,1.3-2.2,2.2-3.2,3.1
				c-1.9,1.7-3.6,2.8-5,3.7c-1.5,0.9-2.7,1.7-4,2.3c-2.4,1.3-4.5,2.2-6.5,3c-2,0.8-3.8,1.5-5.6,2.1c-7.1,2.5-13.4,4.1-19.7,5.7
				c-12.5,3-24.6,5.2-36.6,7.3c-24,4-47.8,7-71.5,9.6c-47.5,5.2-94.8,8.6-142.2,11.1c-47.4,2.4-94.8,3.8-142.4,3.5
				c-23.8-0.2-47.6-0.7-71.6-2.2c-12-0.8-24-1.7-36.3-3.3c-6.2-0.8-12.3-1.8-18.9-3.3c-3.3-0.8-6.7-1.6-10.6-3.1
				c-2-0.8-4.1-1.6-6.9-3.4c-1.4-0.9-3-2-4.9-4.2c-0.9-1.1-1.9-2.4-2.8-4.3c-0.9-1.8-1.6-4.1-1.8-6.5c-0.1-1.1,0-0.2,0-1.6
				c0-1,0.1-1.3,0.1-2c0.1-1.1,0.4-2.2,0.7-3.2c0.6-1.9,1.4-3.4,2.2-4.6c1.6-2.4,3-3.7,4.2-4.8c2.5-2.1,4.5-3.2,6.3-4.2
				c3.7-1.9,6.9-3.1,10.1-4.3c6.3-2.2,12.3-3.8,18.3-5.2c12-2.9,23.8-5,35.6-7c23.6-3.9,47.1-6.9,70.7-9.5
				c47.1-5.1,94.2-8.6,141.3-11c47.1-2.4,94.3-3.7,141.5-3.5c23.6,0.2,47.2,0.7,70.7,2.2c11.8,0.8,23.5,1.7,35.2,3.3
				c5.9,0.8,11.7,1.7,17.4,3.1c2.9,0.7,5.7,1.5,8.5,2.5c1.4,0.5,2.7,1.2,4,2c0.6,0.4,1.2,0.9,1.7,1.5c0.5,0.6,0.8,1.3,0.9,2
				L2545.6,637.8L2545.6,637.8z M2515.6,639.2c-0.1-0.7-0.5-1.4-1-1.9c-0.5-0.5-1.1-1-1.7-1.3c-1.3-0.7-2.6-1.3-4-1.7
				c-2.8-0.9-5.6-1.5-8.5-2.1c-5.8-1-11.6-1.6-17.5-2.1c-11.7-0.9-23.4-1.2-35.2-1.4c-23.5-0.2-47,0.5-70.4,1.6
				c-46.9,2.2-93.8,6.1-140.5,10.9c-46.7,4.9-93.3,10.8-139.5,18.3c-23.1,3.8-46.1,7.9-68.7,12.9c-11.3,2.5-22.5,5.2-33.3,8.4
				c-5.4,1.6-10.7,3.3-15.4,5.3c-2.3,1-4.6,2-6,2.9c-0.7,0.4-1.2,0.9-1,0.7c0.1-0.1,0.5-0.4,1.3-1.5c0.4-0.6,0.8-1.4,1.2-2.6
				c0.2-0.6,0.4-1.3,0.5-2.1c0.1-0.5,0.1-0.6,0.1-1.4c0-1.2,0-0.1,0-1c-0.1-1.7-0.6-3.3-1.2-4.4c-0.6-1.2-1.1-1.9-1.6-2.4
				c-0.9-1-1.3-1.3-1.5-1.4c-0.3-0.2,0.4,0.1,1.1,0.3c1.6,0.5,4,1,6.4,1.5c5,0.9,10.5,1.4,16,1.9c11.1,0.9,22.6,1.2,34.1,1.3
				c23.1,0.2,46.3-0.5,69.6-1.6c46.6-2.2,93.2-6,139.6-10.9c46.4-4.9,92.8-10.8,138.6-18.2c22.9-3.8,45.7-7.9,67.9-12.8
				c11.1-2.5,22-5.1,32.3-8.2c5.1-1.5,10-3.2,14-4.8c1-0.4,1.9-0.8,2.6-1.2c0.7-0.4,1.3-0.7,1.5-0.8c0.1-0.1,0.1-0.1-0.2,0
				c-0.2,0.1-0.7,0.4-1.5,1.1c-0.4,0.4-0.9,0.8-1.6,1.5c-0.7,0.7-1.5,1.7-2.4,3.1c-0.5,0.7-1,1.6-1.5,2.6c-0.5,1.1-1,2.2-1.5,3.6
				c-0.4,1.4-0.8,3-1,4.7c-0.1,1-0.2,1.4-0.2,3.1c0,2.1,0,1.4,0,1.4L2515.6,639.2L2515.6,639.2z"/>
		</g>
		<g id="g181">
			<path id="path183" inkscape:connector-curvature="0" class="st5" d="M2446.8,772.9c-0.7,0.3-1.4,0.5-2,0.7
				c-1.4,0.4-2.6,0.6-3.8,0.8c-2.5,0.4-4.9,0.7-7.3,0.9c-4.8,0.4-9.6,0.7-14.3,0.9c-9.5,0.4-19,0.5-28.5,0.5
				c-19,0-37.9-0.3-56.8-0.9c-37.9-1.1-75.7-3-113.5-5.3c-37.8-2.4-75.5-5.2-113.2-8.7c-18.8-1.8-37.7-3.8-56.5-6.1
				c-9.4-1.2-18.8-2.5-28.2-4c-4.7-0.8-9.4-1.6-14-2.6c-2.3-0.5-4.7-1.1-7-1.8c-1.2-0.4-2.3-0.7-3.5-1.2c-0.6-0.3-1.2-0.5-1.8-0.9
				c-0.3-0.2-0.7-0.5-1-0.8c-0.2-0.2-0.4-0.4-0.5-0.8c-0.1-0.2-0.2-0.4-0.2-0.6c-0.1-0.3-0.1-0.3,0-0.9c0-0.1,0,0,0.1-0.4
				c0.1-0.3,0.2-0.6,0.3-0.7c0.2-0.3,0.4-0.5,0.6-0.7c0.4-0.3,0.8-0.5,1.1-0.7c0.7-0.3,1.3-0.5,1.9-0.7c1.2-0.4,2.4-0.6,3.7-0.8
				c2.4-0.4,4.8-0.7,7.2-0.9c4.8-0.4,9.5-0.7,14.2-0.9c9.5-0.4,19-0.5,28.4-0.5c18.9,0,37.9,0.3,56.8,0.9c37.8,1.1,75.6,3,113.4,5.3
				c37.8,2.3,75.5,5.2,113.2,8.7c18.8,1.8,37.6,3.8,56.4,6.1c9.4,1.2,18.8,2.5,28.1,4c4.7,0.8,9.3,1.6,13.9,2.6
				c2.3,0.5,4.6,1.1,6.9,1.7c1.1,0.3,2.3,0.7,3.3,1.2c0.5,0.2,1.1,0.5,1.6,0.8c0.5,0.3,1,0.7,1.1,1.3L2446.8,772.9L2446.8,772.9z
				 M2446.7,768.5c0-0.6-0.6-1-1.1-1.3c-0.5-0.3-1-0.6-1.6-0.8c-1.1-0.5-2.2-0.8-3.4-1.1c-2.3-0.7-4.6-1.2-6.9-1.7
				c-4.6-1-9.3-1.8-14-2.5c-9.3-1.5-18.7-2.7-28.1-3.8c-18.8-2.2-37.6-4-56.4-5.7c-37.7-3.3-75.4-5.8-113.2-7.8
				c-37.8-2-75.6-3.6-113.4-4.4c-18.9-0.4-37.8-0.6-56.7-0.5c-9.4,0.1-18.9,0.3-28.3,0.7c-4.7,0.2-9.4,0.5-14.1,1
				c-2.3,0.2-4.6,0.5-6.9,0.9c-1.1,0.2-2.2,0.4-3.3,0.7c-0.5,0.2-1,0.3-1.4,0.5c-0.2,0.1-0.3,0.2-0.4,0.2c0,0,0,0,0,0
				c0,0,0.1-0.1,0.1-0.3c0-0.3,0,0,0,0c0.1-0.5,0-0.3,0-0.5c0-0.1-0.1-0.1-0.1-0.2c0-0.1-0.1-0.1,0-0.1c0,0,0.2,0.2,0.4,0.3
				c0.4,0.2,0.8,0.5,1.3,0.7c1,0.4,2.1,0.8,3.2,1.1c2.2,0.6,4.5,1.2,6.8,1.7c4.6,1,9.2,1.8,13.9,2.5c9.3,1.5,18.7,2.7,28,3.8
				c18.8,2.2,37.6,4,56.4,5.7c37.7,3.3,75.4,5.8,113.1,7.8c37.7,2,75.5,3.6,113.3,4.4c18.9,0.4,37.8,0.6,56.6,0.5
				c9.4-0.1,18.9-0.3,28.2-0.7c4.7-0.2,9.4-0.5,14-1c2.3-0.2,4.6-0.5,6.8-0.9c1.1-0.2,2.2-0.4,3.1-0.7c0.4-0.1,0.9-0.3,1.1-0.4
				c0.1,0,0.2-0.1,0,0c-0.1,0.1-0.2,0.2-0.4,0.4c0,0.1-0.2,0.3-0.3,0.8c-0.1,0.6,0,0.1,0,0.1L2446.7,768.5L2446.7,768.5z"/>
		</g>
		<g id="g185">
			<path id="path187" inkscape:connector-curvature="0" class="st4" d="M2423.9,918l0,0.4c0,0.5,0,1.1-0.1,1.6
				c-0.1,0.8-0.2,1.5-0.4,2.3c-0.4,1.4-0.9,2.6-1.5,3.7c-1.2,2-2.4,3.4-3.5,4.5c-2.3,2.2-4.5,3.6-6.5,4.8c-4.1,2.4-8,4-11.9,5.5
				c-7.8,2.9-15.5,5.1-23.2,7c-15.4,3.8-30.7,6.6-46.1,9.1c-30.8,4.8-61.7,7.9-92.6,9.9c-30.9,2-62,2.9-93,2
				c-15.5-0.4-31.1-1.3-46.6-3.1c-7.8-0.9-15.6-2.1-23.4-3.9c-3.9-0.9-7.8-2-11.8-3.7c-2-0.9-4-1.8-6.1-3.3c-1-0.8-2.1-1.7-3.1-3
				c-1-1.3-1.9-3.2-2.1-5.3c-0.2-2.1,0.5-4.1,1.3-5.5c0.8-1.4,1.7-2.5,2.7-3.4c1.9-1.8,3.7-3,5.6-4.1c3.7-2.2,7.5-3.7,11.2-5.2
				c7.5-2.8,15-4.9,22.6-6.8c15.2-3.8,30.4-6.6,45.7-9c30.6-4.8,61.4-7.8,92.2-9.8c30.8-2,61.7-2.8,92.6-2c15.4,0.4,30.9,1.3,46.2,3
				c7.7,0.9,15.3,2,22.8,3.8c3.8,0.9,7.5,1.9,11.1,3.4c1.8,0.8,3.5,1.6,5.1,2.8c0.8,0.6,1.5,1.2,2.1,2c0.6,0.8,1,1.7,1.1,2.7
				L2423.9,918L2423.9,918z M2413.9,918.4c-0.1-1-0.5-1.9-1.1-2.6c-0.6-0.8-1.3-1.4-2.1-1.9c-1.6-1.1-3.3-1.9-5.1-2.6
				c-3.6-1.4-7.3-2.3-11.1-3.1c-7.5-1.6-15.2-2.5-22.8-3.2c-15.3-1.4-30.7-1.8-46.1-1.8c-30.8,0-61.5,1.7-92.1,4.5
				c-30.6,2.8-61.1,6.7-91.3,12.2c-15.1,2.8-30.1,6-44.7,10c-7.3,2.1-14.6,4.3-21.4,7.1c-3.4,1.4-6.8,2.9-9.7,4.7
				c-1.4,0.9-2.8,1.9-3.7,2.8c-0.4,0.5-0.8,0.9-0.9,1.1c-0.1,0.3,0,0.2,0,0c0-0.2-0.1-0.3,0.1-0.1c0.2,0.2,0.6,0.6,1.1,0.9
				c1,0.7,2.5,1.4,4.1,2c3.1,1.2,6.7,2.1,10.3,2.9c7.2,1.5,14.7,2.4,22.3,3.1c15.1,1.3,30.4,1.8,45.6,1.8c30.6,0,61.2-1.7,91.7-4.5
				c30.5-2.8,60.9-6.7,90.9-12.2c15-2.8,29.9-5.9,44.3-9.9c7.2-2,14.3-4.3,20.9-6.9c3.3-1.3,6.4-2.8,8.9-4.4
				c1.2-0.8,2.3-1.6,2.7-2.1c0.2-0.2,0.2-0.3,0,0c-0.1,0.2-0.3,0.5-0.4,1c-0.1,0.2-0.1,0.5-0.2,0.8c0,0.3,0,0.6,0,0.9l0-0.3
				L2413.9,918.4L2413.9,918.4z"/>
		</g>
		<g id="g189">
			<path id="path191" inkscape:connector-curvature="0" class="st6" d="M2449.7,853.7l-0.7,2.2c-1.1,3.5-3.4,7-4.1,7.9
				c-1.2,1.7-2.4,3-3.3,3.9c-1.1,1.1-2.1,1.9-2.9,2.5c-0.9,0.7-1.8,1.3-2.4,1.7c-0.6,0.4-1.5,0.9-2,1.2c-0.6,0.3-1.1,0.6-1.7,0.9
				c-0.5,0.2-0.9,0.4-1.4,0.6c-0.5,0.2-0.9,0.4-1.2,0.5l-1.1,0.4c-0.6,0.2-1.2,0.4-1.8,0.6c-0.5,0.1-1,0.3-1.5,0.4l-1.3,0.3
				c-1.6,0.3-2.8,0.5-3.9,0.6c-1.1,0.1-2.1,0.2-2.9,0.3c-3.5,0.2-6.3,0.2-8.9,0.2c-5.3-0.1-10-0.4-14.6-0.8
				c-9.3-0.7-18.2-1.7-27-2.8c-17.7-2.2-35.1-4.8-52.4-7.5c-34.6-5.5-69-11.7-103.2-18.4c-34.2-6.7-68.4-13.8-102.4-21.7
				c-17-4-34-8.1-51.1-12.6c-8.5-2.3-17-4.7-25.6-7.3c-4.3-1.4-8.6-2.8-13.2-4.4c-2.3-0.9-4.6-1.7-7.2-2.9c-0.7-0.3-1.3-0.6-2.1-1
				c-0.7-0.4-1.5-0.8-2.4-1.4c-0.5-0.3-1-0.6-1.5-1c-0.3-0.2-0.6-0.4-0.9-0.7l-0.5-0.4c-0.2-0.1-0.4-0.3-0.6-0.5
				c-0.8-0.7-1.8-1.6-3.1-3.5c-0.3-0.4-0.6-1-1-1.7c-0.3-0.6-0.7-1.4-1-2.5c-0.3-0.9-0.6-2.1-0.7-3.3c-0.1-1.2-0.1-2.7,0.1-4
				c0.8-3.6-0.1,0,0.7-2.7c0.6-1.8,1.7-3.5,2.1-4c0.6-0.9,1.2-1.5,1.7-2c0.6-0.6,1.1-1,1.5-1.3c1.8-1.4,3.1-1.9,4.1-2.4
				c0.6-0.2,0.9-0.3,1.3-0.5c0.4-0.1,0.7-0.2,1.1-0.3c0.7-0.2,1.2-0.3,1.8-0.4c1.1-0.2,1.9-0.3,2.7-0.4c0.8-0.1,1.6-0.2,2.3-0.2
				c2.8-0.2,5.3-0.2,7.7-0.1c4.8,0.1,9.3,0.4,13.8,0.8c9,0.7,17.7,1.7,26.4,2.8c17.4,2.2,34.7,4.7,51.9,7.4
				c34.4,5.5,68.6,11.7,102.7,18.3c34.1,6.7,68.1,13.8,101.9,21.6c16.9,3.9,33.8,8,50.6,12.5c8.4,2.3,16.7,4.6,25,7.2
				c4.1,1.3,8.3,2.7,12.3,4.2c2,0.8,4.1,1.6,6,2.5c1,0.5,2,1,2.9,1.5c0.5,0.3,0.9,0.6,1.3,1c0.4,0.4,0.8,0.8,0.7,1.4L2449.7,853.7
				L2449.7,853.7z M2420.7,846c0-0.6-0.4-1-0.8-1.3c-0.4-0.3-0.9-0.6-1.4-0.9c-0.9-0.5-1.9-0.9-2.9-1.3c-2-0.8-4.1-1.4-6.1-2
				c-4.1-1.2-8.3-2.3-12.5-3.3c-8.4-2-16.9-3.7-25.4-5.3c-17-3.3-34.1-6.1-51.1-8.8c-34.2-5.4-68.5-10-102.8-14.2
				c-34.3-4.1-68.7-7.8-103.1-10.8c-17.2-1.5-34.4-2.7-51.4-3.6c-8.5-0.4-17.1-0.8-25.4-0.8c-4.2,0-8.3,0-12.2,0.2
				c-1.9,0.1-3.8,0.2-5.3,0.5c-0.4,0.1-0.7,0.1-0.9,0.2c-0.3,0.1-0.5,0.1-0.5,0.1c0,0,0.1,0.1,1.1-0.3c0.4-0.2,1.3-0.5,2.7-1.6
				c0.3-0.2,0.7-0.6,1.2-1.1c0.4-0.4,0.9-1,1.5-1.7c0.3-0.4,1.4-2.1,1.9-3.7c0.7-2.6-0.2,1.1,0.6-2.3c0.2-1.2,0.2-2.5,0.1-3.6
				c-0.1-1.1-0.4-2.2-0.6-2.9c-0.3-0.9-0.6-1.6-0.8-2.1c-0.3-0.6-0.6-1.1-0.8-1.4c-1-1.5-1.7-2-2-2.4l-0.3-0.2l-0.2-0.2l-0.3-0.2
				c-0.1-0.1-0.2-0.1-0.2-0.1c0,0,0.2,0.1,0.4,0.2l0.9,0.3c1.4,0.5,3.2,1.1,5,1.6c3.7,1.1,7.7,2.1,11.7,3c8.1,1.9,16.4,3.6,24.8,5.2
				c16.7,3.2,33.7,6,50.6,8.7c34,5.3,68.1,9.9,102.3,14.1c34.2,4.1,68.4,7.8,102.6,10.7c17.1,1.4,34.1,2.7,50.9,3.6
				c8.4,0.4,16.8,0.7,24.8,0.8c4,0,7.9,0,11.3-0.2c1.7-0.1,3.3-0.2,4-0.4c0.2,0,0.3-0.1,0.3-0.1c0,0-0.2,0-0.7,0.1l-0.5,0.1
				c-0.2,0-0.5,0.1-0.7,0.2c-0.3,0.1-0.6,0.2-1,0.3l-0.7,0.2l-0.8,0.3c-0.3,0.1-0.6,0.3-1,0.4c-0.4,0.2-0.9,0.4-1.3,0.7
				c-0.4,0.2-1.1,0.6-1.7,1c-0.5,0.3-1.3,0.8-2.1,1.5c-0.7,0.5-1.5,1.2-2.6,2.3c-0.8,0.8-1.9,2-3,3.6c-0.7,0.8-2.8,4.2-3.9,7.6
				c-1.2,4-0.3,1-0.6,1.8L2420.7,846L2420.7,846z"/>
		</g>
		<g id="g193">
			<path id="path195" inkscape:connector-curvature="0" class="st5" d="M2440.1,865.7l-0.1,1c-0.1,1.8-0.9,4.8-1.2,5.5
				c-0.4,1-1,2.3-1.4,3c-0.4,0.7-1,1.7-1.4,2.2c-0.4,0.6-0.9,1.2-1.3,1.6c-0.4,0.4-0.8,0.8-1.1,1.2c-0.4,0.4-0.6,0.6-1,0.9
				c-0.4,0.3-0.6,0.5-0.9,0.7c-2.2,1.7-3.6,2.3-4.7,2.9c-2.3,1.1-3.8,1.6-5.3,2.1c-2.9,0.9-5.2,1.4-7.5,1.9c-4.6,1-8.8,1.7-13,2.3
				c-8.4,1.2-16.5,2.1-24.6,3c-16.2,1.6-32.3,2.8-48.4,3.8c-32.1,2-64.2,3.2-96.2,4c-32,0.8-64.1,1.1-96.2,0.6
				c-16.1-0.2-32.1-0.6-48.3-1.5c-8.1-0.4-16.2-0.9-24.4-1.7c-4.1-0.4-8.2-0.9-12.5-1.5c-2.2-0.3-4.3-0.7-6.8-1.3
				c-1.2-0.3-2.5-0.7-4.2-1.3c-0.8-0.3-1.8-0.7-3.2-1.6c-0.7-0.5-1.5-1-2.7-2.3c-0.6-0.6-1.2-1.4-1.7-2.6c-0.6-1.1-1-2.7-1.1-4.3
				c0-2.1,0-0.3,0-1.5c0.1-0.9,0.5-2.4,0.6-2.8c0.5-1.2,1-2.1,1.5-2.7c1-1.3,1.8-1.9,2.4-2.5c1.3-1,2.2-1.4,3-1.8
				c1.6-0.7,2.8-1.2,4-1.5c2.4-0.7,4.5-1.2,6.7-1.7c4.2-0.9,8.3-1.6,12.4-2.2c8.1-1.2,16.1-2.1,24.2-2.9c16-1.6,32-2.8,48-3.8
				c32-2,63.9-3.2,95.8-4c31.9-0.8,63.9-1,95.8-0.6c16,0.2,31.9,0.6,47.9,1.5c8,0.4,15.9,0.9,23.9,1.7c4,0.4,7.9,0.8,11.9,1.5
				c2,0.3,3.9,0.7,5.9,1.2c1,0.2,1.9,0.5,2.9,0.9c0.5,0.2,0.9,0.4,1.3,0.7c0.4,0.3,0.8,0.6,0.9,1.2L2440.1,865.7L2440.1,865.7z
				 M2420.1,864.8c-0.1-0.5-0.5-0.9-0.9-1.1c-0.4-0.3-0.9-0.4-1.4-0.6c-0.9-0.3-1.9-0.5-2.9-0.7c-1.9-0.4-3.9-0.6-5.9-0.9
				c-4-0.4-7.9-0.7-11.9-0.8c-8-0.4-15.9-0.4-23.9-0.4c-15.9,0-31.8,0.4-47.8,1c-31.8,1.2-63.6,3.2-95.4,5.6
				c-31.7,2.4-63.4,5.3-95,9c-15.8,1.8-31.5,3.8-47.1,6.2c-7.8,1.2-15.6,2.5-23.2,4c-3.8,0.8-7.5,1.6-11.1,2.5
				c-1.7,0.5-3.5,1-4.9,1.5c-0.7,0.3-1.3,0.5-1.5,0.7c-0.1,0-0.1,0.1,0.5-0.3c0.3-0.2,0.7-0.5,1.4-1.4c0.3-0.5,0.8-1.1,1.1-2.1
				c0.1-0.3,0.5-1.6,0.5-2.5c0-1.2,0,0.9,0-1.2c-0.1-1.4-0.5-2.7-0.9-3.6c-0.5-0.9-0.9-1.5-1.3-2c-0.8-0.9-1.2-1.1-1.5-1.3
				c-0.5-0.3-0.6-0.3-0.5-0.3c0.2,0.1,0.9,0.2,1.6,0.4c1.4,0.3,3.2,0.5,5,0.7c3.6,0.4,7.4,0.6,11.3,0.8c7.7,0.3,15.6,0.4,23.4,0.4
				c15.7,0,31.6-0.4,47.4-1c31.7-1.2,63.4-3.2,95-5.6c31.6-2.4,63.2-5.3,94.6-8.9c15.7-1.8,31.3-3.8,46.8-6.2
				c7.7-1.2,15.4-2.5,22.7-3.9c3.7-0.7,7.3-1.5,10.5-2.4c1.6-0.4,3.1-0.9,4-1.3c0.4-0.2,0.7-0.4,0.3-0.1c-0.3,0.2-0.8,0.3-2.2,1.4
				l-0.6,0.5c-0.2,0.2-0.4,0.4-0.7,0.6c-0.3,0.3-0.6,0.6-0.9,0.9c-0.3,0.3-0.7,0.9-1.1,1.3c-0.3,0.4-0.9,1.2-1.2,1.9
				c-0.3,0.6-0.9,1.7-1.2,2.6c-0.3,0.6-1.1,3.4-1.1,5.1c-0.1,1.5,0,0.3,0,0.6L2420.1,864.8L2420.1,864.8z"/>
		</g>
		<g id="g197">
			<path id="path199" inkscape:connector-curvature="0" class="st4" d="M2421.5,891.3c0,0.1,0,0-0.1,0.3c-0.1,0.4-0.3,0.9-0.4,1.1
				c-0.3,0.5-0.5,0.8-0.8,1.1c-0.5,0.5-1,0.8-1.4,1c-0.8,0.4-1.4,0.7-2,0.9c-1.2,0.4-2.3,0.6-3.4,0.8c-2.2,0.4-4.2,0.6-6.3,0.8
				c-4.1,0.4-8.2,0.5-12.3,0.6c-8.1,0.2-16.2,0.2-24.3,0c-16.1-0.3-32.2-1-48.3-1.9c-32.2-1.8-64.2-4.3-96.3-7.3
				c-32-3-64-6.5-96-10.7c-16-2.1-31.9-4.4-47.8-7.1c-7.9-1.4-15.9-2.8-23.8-4.5c-4-0.9-7.9-1.8-11.8-2.9c-2-0.6-3.9-1.2-5.9-1.9
				c-1-0.4-2-0.8-3-1.3c-0.5-0.3-1-0.6-1.6-1c-0.3-0.2-0.6-0.5-0.8-0.9c-0.3-0.4-0.6-1-0.5-1.8c0.1-0.4,0-0.1,0.1-0.4
				c0.1-0.2,0.2-0.5,0.2-0.6c0.2-0.3,0.3-0.5,0.5-0.7c0.4-0.4,0.7-0.6,1-0.7c0.6-0.3,1.2-0.5,1.7-0.7c1.1-0.3,2.1-0.6,3.2-0.8
				c2.1-0.4,4.1-0.6,6.1-0.8c4.1-0.4,8.1-0.5,12.1-0.6c8.1-0.2,16.1-0.2,24.2,0c16.1,0.3,32.2,1,48.2,1.9
				c32.1,1.8,64.2,4.3,96.2,7.3c32,3,64,6.5,95.9,10.7c15.9,2.1,31.9,4.4,47.7,7.1c7.9,1.4,15.8,2.8,23.7,4.5
				c3.9,0.9,7.8,1.8,11.7,2.9c1.9,0.5,3.9,1.1,5.7,1.9c0.9,0.4,1.9,0.8,2.8,1.2c0.4,0.2,0.9,0.5,1.3,0.8c0.4,0.3,0.8,0.7,0.7,1.3
				L2421.5,891.3L2421.5,891.3z M2418,890.7c0-0.5-0.4-0.9-0.7-1.2c-0.4-0.3-0.8-0.6-1.3-0.8c-0.9-0.5-1.8-0.9-2.8-1.2
				c-1.9-0.7-3.8-1.3-5.7-1.8c-3.9-1.1-7.8-1.9-11.7-2.8c-7.9-1.6-15.8-3-23.7-4.3c-15.9-2.5-31.8-4.7-47.8-6.7
				c-31.9-3.9-63.9-7.1-95.9-9.8c-32-2.7-64.1-4.9-96.2-6.4c-16-0.7-32.1-1.3-48.2-1.5c-8-0.1-16-0.1-24,0.2c-4,0.1-8,0.4-11.9,0.7
				c-2,0.2-3.9,0.4-5.8,0.8c-0.9,0.2-1.9,0.4-2.7,0.7c-0.4,0.1-0.8,0.3-1.1,0.5c-0.1,0.1-0.2,0.2-0.2,0.2c0,0,0,0,0.1-0.1
				c0,0,0.1-0.2,0.1-0.3c0-0.2,0,0.2,0-0.1c0-0.3-0.1-0.5-0.1-0.4c0,0,0.1,0.1,0.2,0.2c0.2,0.2,0.6,0.4,1,0.6
				c0.8,0.4,1.7,0.8,2.5,1.1c1.8,0.7,3.7,1.2,5.6,1.8c3.8,1,7.7,1.9,11.6,2.7c7.8,1.6,15.7,3,23.6,4.3c15.8,2.5,31.8,4.7,47.7,6.6
				c31.9,3.9,63.9,7.1,95.9,9.8c32,2.7,64.1,4.9,96.1,6.4c16,0.7,32.1,1.3,48.1,1.5c8,0.1,16,0.1,24-0.2c4-0.1,7.9-0.4,11.8-0.7
				c1.9-0.2,3.9-0.4,5.7-0.8c0.9-0.2,1.8-0.4,2.5-0.6c0.3-0.1,0.6-0.2,0.7-0.3c0,0,0,0-0.1,0.1c-0.1,0.1-0.2,0.2-0.3,0.5
				c0,0-0.2,0.5-0.3,0.7c0,0.2,0,0,0,0L2418,890.7L2418,890.7z"/>
		</g>
	</g>
	<g id="Layer_7">
		<text id="text202" transform="matrix(0 1.0005 -1 0 2653.074 218.1631)" class="st5 st7 st8">TLL</text>
		<text id="text204" transform="matrix(0 1 -1 0 2795.9431 830.2197)" class="st9 st10 st11 st12">TEACHING </text>
		<text id="text206" transform="matrix(0 1 -1 0 2727.2048 834.2959)" class="st9 st10 st11 st12">LEARNING</text>
		<text id="text208" transform="matrix(0 1 -1 0 2657.7048 834.2959)" class="st9 st10 st11 st12">LAB</text>
		<line id="line210" class="st13" x1="2846.9" y1="757.3" x2="2653" y2="757.3"/>
	</g>
</g>
</svg>
