<!-- Generator: Adobe Illustrator 19.2.1, SVG Export Plug-In  -->
<svg version="1.1"
	 xmlns="http://www.w3.org/2000/svg" xmlns:xlink="http://www.w3.org/1999/xlink" xmlns:a="http://ns.adobe.com/AdobeSVGViewerExtensions/3.0/"
	 x="0px" y="0px" width="131.4px" height="173.7px" viewBox="0 0 131.4 173.7" style="enable-background:new 0 0 131.4 173.7;"
	 xml:space="preserve">
<style type="text/css">
	.st0{fill:#F15A24;}
	.st1{fill:#F7931E;}
	.st2{fill:#FCEE21;}
</style>
<defs>
</defs>
<g>
	<g>
		<path class="st0" d="M113,0c0,0,4.5,30.2-28.9,44.5c0,0-31.5,7.8-30.6,35.8c0,0-12.4-19.5,1.1-51.2c0,0-37.3,31.3-29.5,69.1
			C22.1,92.5,15.2,86,0,86c0,0,15.2,5.8,13.2,24.8c0,0-6.9,44.6,49.8,62.9c0,0,52-19.6,48.9-69.2c0,0-12.7,19.4-23.4,20.8
			c0,0,0.9-18.1,27.2-40.6C115.6,84.7,152.7,48.8,113,0z"/>
		<path class="st1" d="M78,148.7c0,0-7.7-19.7,2.3-31.5c0,0,22.6-23.5,3.9-39.9c0,0,6,13.5-12.1,23.3c0,0-15,5.5-14.4,21.8
			c0,0-7.2-11.4,0.7-29.9c0,0-21.8,18.3-17.2,40.4c-1.8-3.3-5.8-7.1-14.7-7.1c0,0,8.9,3.4,7.7,14.5c0,0-2,12.9,8.4,24.3
			c5.7,3.5,12.5,6.6,20.5,9.2c0,0,9.9-3.8,20.8-12.1c4.9-6.2,8.6-14.5,7.9-25.1C91.7,136.5,84.2,147.9,78,148.7z"/>
		<path class="st2" d="M70.2,170.3c2.5-3,4.5-7,4.2-12.3c0,0-3.5,5.3-6.4,5.7c0,0-3.6-9.3,1.1-14.8c0,0,8.5-10.3-0.5-20.8
			c0,0,4.1,9.2-4.7,12.8c0,0-5.7,2.8-5.4,10.5c0,0-3.4-5.4,0.3-14.1c0,0-10.3,8.6-8.1,19c-0.8-1.6-2.7-3.4-6.9-3.4
			c0,0,4.2,1.6,3.6,6.8c0,0-0.6,4.1,1.8,8.5c4.1,2,8.7,3.9,13.9,5.6C62.9,173.7,65.8,172.6,70.2,170.3z"/>
	</g>
</g>
</svg>
