<!-- Generator: Adobe Illustrator 19.2.1, SVG Export Plug-In  -->
<svg version="1.1"
	 xmlns="http://www.w3.org/2000/svg" xmlns:xlink="http://www.w3.org/1999/xlink" xmlns:a="http://ns.adobe.com/AdobeSVGViewerExtensions/3.0/"
	 x="0px" y="0px" width="109.6px" height="188.5px" viewBox="0 0 109.6 188.5" style="enable-background:new 0 0 109.6 188.5;"
	 xml:space="preserve">
<style type="text/css">
	.st0{fill:#F15A24;}
	.st1{fill:#F7931E;}
	.st2{fill:#FCEE21;}
</style>
<defs>
</defs>
<g>
	<g>
		<path class="st0" d="M40.3,0c0,0,19.6,35-17.5,83.1c0,0-17,17.6-9.3,56.9c0,0-13.2-14.9-9.3-39.6c0,0-27.6,84.9,58.4,88.1
			c0,0,81.3-26.8,30-108.3c0,0,4.6,33.3-5.5,40.6c0,0-16.8-7.3-11.8-44c0,0,9.3-29.5-7.6-49.9c0,0,0,23.9-10.9,29.5
			C56.8,56.3,69.4,15.4,40.3,0z"/>
		<path class="st1" d="M77.2,181.5c8.9-9.5,14.8-25.4-0.9-50.2c0,0,2.6,19-3.1,23.2c0,0-9.6-4.2-6.7-25.1c0,0,5.3-16.8-4.3-28.6
			c0,0,0,13.7-6.3,16.8c0,0,7.2-23.4-9.4-32.2c0,0,11.2,20-10,47.5c0,0-9.7,10.1-5.3,32.6c0,0-7.5-8.5-5.3-22.7
			c0,0-7.9,24.3,4.9,39.2c8.3,3.7,18.7,6.1,31.8,6.6C62.6,188.5,69.1,186.4,77.2,181.5z"/>
		<path class="st2" d="M72.1,184.3c3.3-6.1,4-14.9-3.8-27.2c0,0,1.7,12-2,14.6c0,0-6.1-2.6-4.2-15.8c0,0,3.3-10.6-2.7-18
			c0,0,0,8.6-3.9,10.6c0,0,4.5-14.7-5.9-20.2c0,0,7,12.6-6.3,29.9c0,0-6.1,6.3-3.3,20.5c0,0-4.7-5.4-3.4-14.2c0,0-3.5,10.8,0.2,19.9
			c7.2,2.4,15.7,3.9,25.8,4.3C62.6,188.5,66.5,187.2,72.1,184.3z"/>
	</g>
</g>
</svg>
