<!-- Generator: Adobe Illustrator 19.2.1, SVG Export Plug-In  -->
<svg version="1.1"
	 xmlns="http://www.w3.org/2000/svg" xmlns:xlink="http://www.w3.org/1999/xlink" xmlns:a="http://ns.adobe.com/AdobeSVGViewerExtensions/3.0/"
	 x="0px" y="0px" width="112.1px" height="168.4px" viewBox="0 0 112.1 168.4" style="enable-background:new 0 0 112.1 168.4;"
	 xml:space="preserve">
<style type="text/css">
	.st0{fill:#F15A24;}
	.st1{fill:#F7931E;}
	.st2{fill:#FCEE21;}
</style>
<defs>
</defs>
<g>
	<g>
		<path class="st0" d="M102,47.5c0,0,2.6,29.6-12.5,41.6c0,0,5-16.9-1.8-28.6c0,0,1.3,12.7-10.4,23.7c0,0,16.9-58.5-47.1-84.2
			c0,0,22.4,30.2,2.9,58.5c0,0-5.1,6.2-8.8,15.2c-2.8-7.1-8.3-14.9-18.8-22.8c0,0,11.7,27.8-2.9,57.1c0,0-20.8,38,57.2,60.5
			C59.7,168.4,139.6,139.7,102,47.5z"/>
		<path class="st1" d="M85.2,101.8c0,0,1.5,16.9-7.1,23.7c0,0,2.9-9.6-1-16.3c0,0,0.7,7.2-5.9,13.5c0,0,9.6-33.4-26.9-48
			c0,0,12.8,17.2,1.7,33.4c0,0-2.9,3.5-5,8.6c-1.6-4-4.8-8.5-10.7-13c0,0,6.7,15.8-1.7,32.5c0,0-7.1,13.1,10.5,24.9
			c6,2.5,12.9,5,20.8,7.2c0,0,10.1-3.6,21.4-12.5C89.9,145.3,95.9,128,85.2,101.8z"/>
		<path class="st2" d="M75.6,127c0,0,1,10.7-4.5,15c0,0,1.8-6.1-0.7-10.3c0,0,0.5,4.6-3.8,8.6c0,0,6.1-21.2-17-30.4
			c0,0,8.1,10.9,1.1,21.2c0,0-1.8,2.2-3.2,5.5c-1-2.6-3-5.4-6.8-8.2c0,0,4.2,10-1.1,20.6c0,0-4,7.4,4.9,14.5c4.6,1.7,9.6,3.4,15.2,5
			c0,0,5.5-2,12.9-6.5C78.3,155.2,82.6,144.1,75.6,127z"/>
	</g>
</g>
</svg>
