<!-- Generator: Adobe Illustrator 19.2.1, SVG Export Plug-In  -->
<svg version="1.1"
	 xmlns="http://www.w3.org/2000/svg" xmlns:xlink="http://www.w3.org/1999/xlink" xmlns:a="http://ns.adobe.com/AdobeSVGViewerExtensions/3.0/"
	 x="0px" y="0px" width="123.6px" height="189.8px" viewBox="0 0 123.6 189.8" style="enable-background:new 0 0 123.6 189.8;"
	 xml:space="preserve">
<style type="text/css">
	.st0{fill:#F15A24;}
	.st1{fill:#F7931E;}
	.st2{fill:#FCEE21;}
</style>
<defs>
</defs>
<g>
	<g>
		<path class="st0" d="M119,67.9c0.7,9.6-4.9,22-10.3,31.4c-1.1-25.7,6.6-69.7-28.6-99.3c0,0,17.1,35.9-11.1,60.1
			c0,0-12.8,10.3-22.4,27.3c-2.6-10.6-10.6-22.9-29.6-34.7c0,0,19.9,35.5,1.6,56.3c0,0,7.4-21.6-12.5-33.2c0,0,8,13.8-2.5,37.1
			c0,0-25.6,55.1,57.8,76.9C147.8,164,119,67.9,119,67.9z"/>
		<path class="st0" d="M119,67.9c0.7,9.6-4.9,22-10.3,31.4c-1.1-25.7,6.6-69.7-28.6-99.3c0,0,17.1,35.9-11.1,60.1
			c0,0-12.8,10.3-22.4,27.3c-2.6-10.6-10.6-22.9-29.6-34.7c0,0,19.9,35.5,1.6,56.3c0,0,7.4-21.6-12.5-33.2c0,0,8,13.8-2.5,37.1
			c0,0-25.6,55.1,57.8,76.9C147.8,164,119,67.9,119,67.9z"/>
		<path class="st1" d="M90.2,138.6c-0.7-15.8,4-42.7-17.5-60.9c0,0,10.5,22-6.8,36.9c0,0-7.8,6.3-13.7,16.7
			c-1.6-6.5-6.5-14.1-18.2-21.3c0,0,12.2,21.8,1,34.5c0,0,4.5-13.3-7.7-20.4c0,0,4.9,8.4-1.5,22.8c0,0-7.8,16.7,5.5,31.3
			c8,4.4,17.9,8.3,30.2,11.5c9.4-2.8,17.4-6.4,24.2-10.7c18.9-22.7,10.8-59.8,10.8-59.8C97,125.2,93.5,132.8,90.2,138.6z"/>
		<path class="st2" d="M79.2,163.6c-0.4-9.8,2.5-26.7-10.9-38c0,0,6.5,13.7-4.2,23c0,0-4.9,3.9-8.6,10.4c-1-4.1-4.1-8.8-11.3-13.3
			c0,0,7.6,13.6,0.6,21.6c0,0,2.8-8.3-4.8-12.7c0,0,3.1,5.3-1,14.2c0,0-2.8,6.1-0.5,13c6.6,3,14.2,5.6,23,8
			c7.2-2.1,13.5-4.8,19.2-7.8c6.2-13.7,2.5-30.5,2.5-30.5C83.4,155.2,81.3,160,79.2,163.6z"/>
	</g>
</g>
</svg>
