<!-- Generator: Adobe Illustrator 19.2.1, SVG Export Plug-In  -->
<svg version="1.1"
	 xmlns="http://www.w3.org/2000/svg" xmlns:xlink="http://www.w3.org/1999/xlink" xmlns:a="http://ns.adobe.com/AdobeSVGViewerExtensions/3.0/"
	 x="0px" y="0px" width="125.9px" height="113.3px" viewBox="0 0 125.9 113.3" style="enable-background:new 0 0 125.9 113.3;"
	 xml:space="preserve">
<style type="text/css">
	.st0{fill:#6D6C72;}
	.st1{fill:#E2E1E8;}
	.st2{fill:#7E8693;}
	.st3{fill:#CECFDB;}
	.st4{fill:#E3E4E9;}
	.st5{fill:#EEEDF1;}
	.st6{fill:#F1F0F4;}
	.st7{fill:#EBEAEE;}
	.st8{fill:#E6E5EA;}
	.st9{fill:#E9E8EC;}
	.st10{fill:#E8E6EB;}
	.st11{fill:#DDDDE7;}
	.st12{fill:#C4C6D6;}
	.st13{fill:#E4E3E9;}
	.st14{fill:#C9CCD7;}
	.st15{fill:#E5E4EA;}
	.st16{fill:#C6C7CF;}
	.st17{fill:#E3E2EA;}
	.st18{fill:#B3BAC2;}
	.st19{fill:#DDDEE3;}
	.st20{fill:#C5C6CB;}
	.st21{fill:#687989;}
	.st22{fill:#DADCE7;}
	.st23{fill:#5D6D77;}
	.st24{fill:#49535D;}
	.st25{fill:#5A6671;}
	.st26{fill:#838A90;}
	.st27{fill:#9C363F;}
	.st28{fill:#505F6E;}
	.st29{fill:#778897;}
	.st30{fill:#637281;}
	.st31{fill:#504F4C;}
	.st32{fill:#4B4948;}
	.st33{fill:#A33832;}
	.st34{fill:#DD4640;}
	.st35{fill:#FFFFFF;}
	.st36{fill:#5D5C60;}
	.st37{fill:#EBEBF0;}
	.st38{fill:#C6C8D4;}
</style>
<defs>
</defs>
<g>
	<polygon class="st0" points="117.8,90.8 115,89.4 117.3,87.5 118.3,88.3 	"/>
	<path class="st1" d="M123.3,84.9c0,0-2.1,2.3-2.5,2.4l0.2,2.8l-3.2,0.7v-2.7c0,0-13.8,6.8-26.4,9.6S97,90,97,90l24.3-6.4
		L123.3,84.9z"/>
	<polyline class="st2" points="47.5,112.4 45.5,110.9 48.4,109.4 49,110.5 	"/>
	<polygon class="st3" points="52.9,109.9 52.3,112.9 48.7,113.3 47.5,112.4 49,110.5 	"/>
	<polygon class="st4" points="123.7,38.3 123.6,65.6 124.8,74.9 121.8,79.2 118.7,33.1 120.7,23 122.3,22.5 123.9,33.1 	"/>
	<polygon class="st5" points="121.8,24.4 121.2,78 115.6,82.1 115.6,23.6 	"/>
	<polygon class="st6" points="117.3,27.3 117.3,80.7 109.7,83.7 104.8,29.2 	"/>
	<polygon class="st7" points="109.7,30 109.7,83.7 98.1,86.6 95.1,30.8 	"/>
	<polygon class="st8" points="101.9,31.9 101.9,69.3 85.7,68.1 91.6,30.4 	"/>
	<polygon class="st9" points="94.5,33.1 93.7,66.9 85.8,69.3 83.5,34 	"/>
	<polygon class="st10" points="86.1,35.3 86.7,83.7 76.6,83.1 73.5,51.9 76.5,34 	"/>
	<polygon class="st8" points="78.5,38.3 78.5,90.2 60,79.8 66,41.4 77.8,37.1 	"/>
	<path class="st11" d="M1.2,84.2V94c0,0-0.1,4.9,3.5,8c3.7,3.1,5.7,6.6,22,8.7c0,0,11.6,1.7,19.8,0c0,0,11,0.3,46.7-13.7
		c31.7-12.4,30-12.1,30-12.1l2.6-3.6L125,68.5l-1.8,5.2l-4,4l-25.4,9.5l-23.1,6.9l-20.9,4.6L1.2,84.2z"/>
	<path class="st12" d="M2.2,82.5c0,0-1.9,0.7-0.4,4.1c0,0,0.1,3.8,4,7c0,0,7.3,7.3,24.9,6.5s-3.6-13.5-3.6-13.5L2.2,82.5z"/>
	<polygon class="st13" points="3.3,88.1 7.1,93.2 20.8,57.5 4.7,49.5 1.8,56.3 	"/>
	<polygon class="st14" points="1.3,54.1 2.2,83.7 3.3,88.1 2.7,54.6 	"/>
	<polygon class="st15" points="70.1,40.5 70.6,86.2 70.6,94.1 62.2,97 58.7,46.2 61.5,39.1 	"/>
	<polygon class="st15" points="62.2,41.3 62.8,95.9 52.9,98.7 45.5,83.7 49.6,43.2 	"/>
	<path class="st16" d="M51.9,44l0.9,54.6c0,0-20.5,3.5-31.5,0s-1.2-38.6-1.2-38.6l15.5-16.9L51.9,44z"/>
	<path class="st17" d="M27.9,63.5l0.9,1.3l-7.5,9.7v24.1c0,0-12.9-3.2-14.2-5.5V77.7l6.7-16.9l10.1-1.1L27.9,63.5z"/>
	<path class="st18" d="M41.3,45.5c0,0,0.8,4.5-2.5,8.4c0,0-4.4,8.4-8.9,9.8l3.3-12L41.3,45.5z"/>
	<path class="st19" d="M41.3,45.5c0,0,24.7-2.4,46.9-10.2c0,0,30.1-6,33.5-10.9l3,13.5l0.3-24.9L38.8,33.1L41.3,45.5z"/>
	<path class="st13" d="M46.1,36c0,0-12.6,25.6-16.2,27.7c0,0-27.7-2.6-29.2-11.3L0,24.4l35.5,5.5L46.1,36z"/>
	<path class="st20" d="M120,18.6l1.7,5.8l1.9,14l1.1-0.5c0,0-2.9-17.6-4.2-19.8C119.3,15.9,120,18.6,120,18.6z"/>
	<polygon class="st21" points="5.6,25 12.8,16.2 48.6,7.1 81.7,1.3 99.3,2 114,6.1 118.7,12 107.1,20.6 45,34.8 25.6,34.8 5.6,27.2 
			"/>
	<polygon class="st22" points="79.9,2 82.5,12.9 83.5,12.7 81.7,1.3 	"/>
	<polygon class="st22" points="99.7,2.8 93.7,16.2 94.6,16.2 102.5,2.8 	"/>
	<polygon class="st23" points="11.1,19.7 26.6,31 27.9,29.3 13.9,15 	"/>
	<path class="st24" d="M23.2,32.2c0,0,0.1-4.4,16.8-7.9s47.3-8.8,47.3-8.8s8.3-1,14.6,3.5s-9,5.3-9,5.3L36.4,35.3L23.2,32.2z"/>
	<path class="st25" d="M23.2,32.2l64.2-14.4l12.2,1.9L49.6,33.1C49.6,33.1,26.5,38.5,23.2,32.2z"/>
	<path class="st26" d="M14.7,90.9c0,0,0.1-1.3,1.4-2c0,0,2.7-0.3,3.6,2.2c0.9,2.5,0.1,3.3,0.1,3.3s-1.2,1.9-3.1,0.7
		C14.8,94,14.7,90.9,14.7,90.9z"/>
	<path class="st27" d="M13.9,92.4c0,0-0.3-1,2.1-2.3c0,0,2.2-0.2,2.8,2.4c0,0,0.2,2.4-2.8,2.9L13.9,92.4z"/>
	<path class="st28" d="M42.8,20.8c0,0-2.3,0.5-2.6,1.6c-0.3,1.1-0.3,8.1-0.3,8.1s0.8,1.6,6.7,1.3l39.7-9.4c0,0,0.6,0.1,1.4-0.8
		l-0.4-7.6c0,0-0.3-1.3-1.9-1.7C83.7,12.1,42.8,20.8,42.8,20.8z"/>
	<path class="st29" d="M43.5,20.6L81.4,12c0,0,4.7-0.3,5.3,1.4c0,0,1,1.1-6.9,2.3s-33,7.6-33,7.6s-3.2,0.7-5.8-0.4
		C41,22.9,39.4,22,43.5,20.6z"/>
	<polygon class="st29" points="46.5,24 85.3,15 85.3,15.6 47.3,24.4 	"/>
	<path class="st30" d="M8.9,15c-9,3.7-8.9,9.3-8.9,9.3C1,33,19.7,35.5,19.7,35.5c17.6,7,76.9-10.3,92.8-14.2s12.1-10.4,12.1-10.4
		s-1.3-5.6-18.3-9S76.6,0.9,73,0.9 M113.3,15.6c0,0-16.7,5.7-53.5,14s-45.3,0.3-50.4-5.2c0,0-4.4-8.9,30.5-13.7
		c0,0,34.9-8.2,44.7-8.6s21.7,2.2,24.8,3.7S120.8,10.4,113.3,15.6z"/>
	<path class="st31" d="M16.2,57.8c0,0-1.7-0.5-2.4-0.2s0,1.7,0,1.7l1.1,0.7C14.8,60,16,59.2,16.2,57.8z"/>
	<path class="st32" d="M16.8,83.7c0,0-2-0.4-0.7-2.4l2.2,0.5L16.8,83.7z"/>
	<path class="st33" d="M14.9,90.9c0,0-1.9,1.1-0.7,3.1s2.2,1,2.2,1s1.2-0.6,0.7-2C17.1,93.1,16.5,90.5,14.9,90.9z"/>
	<path class="st34" d="M15.1,93.2c0,0-0.4-1.8,0.2-2.2c0,0,1.3,0.4,1.3,1.3L15.1,93.2z"/>
	<path class="st35" d="M16.1,89.9c0,0-0.2-0.8,0.5-0.8c0,0,2.2,0.4,1.8,2C18.4,91.1,17.1,89.6,16.1,89.9z"/>
	<path class="st16" d="M64.5,89.4l7.9-18.7c0,0,0.7-1.8,2.7-2L97,62.4c0,0,2.5-1.4,3.8,1l6.1,11.4c0,0,2.4,5.7-2.3,8.3
		S67.3,95,67.3,95S63,93.7,64.5,89.4z"/>
	<path class="st36" d="M66.2,87.7l7.3-16.5c0,0,1.2-1.6,2.9-2l20.5-5.8c0,0,2.1-0.3,2.7,0.7l6.5,11.4c0,0,1.2,5-2.5,6.7L70.1,92.8
		C70.1,92.8,65.1,94.6,66.2,87.7z"/>
	<path class="st37" d="M70.5,91.5c0,0-4.8,2.4-3.6-3.8l6.6-15.6c0,0,1.3-1.7,2.6-2l20.6-5.9c0,0,1.5-0.8,2.6,1.1l5.9,10.6
		c0,0,1.4,2.8-1.7,5.5L70.5,91.5z"/>
	<path class="st38" d="M123.6,65.6v6.1l-2.2,3.2l-4.4,3.2l-12.4,5L56.4,97.8l-3.5,0.8h3.5l9.7-2.8l37.2-11.7c0,0,13.5-4.9,15.9-6.5
		C119.1,77.6,128.5,72.1,123.6,65.6z"/>
</g>
</svg>
