<!-- Generator: Adobe Illustrator 19.2.1, SVG Export Plug-In  -->
<svg version="1.1"
	 xmlns="http://www.w3.org/2000/svg" xmlns:xlink="http://www.w3.org/1999/xlink" xmlns:a="http://ns.adobe.com/AdobeSVGViewerExtensions/3.0/"
	 x="0px" y="0px" width="79px" height="26.9px" viewBox="0 0 79 26.9" style="enable-background:new 0 0 79 26.9;"
	 xml:space="preserve">
<style type="text/css">
	.st0{fill:#0E1112;}
	.st1{fill:#303538;}
	.st2{fill:#31373E;}
	.st3{fill:#86868A;}
	.st4{fill:#FBFCFE;}
</style>
<defs>
</defs>
<polygon class="st0" points="12.2,5 33.4,1.1 62.2,3 76.3,9.1 74.5,16.6 37,23.9 8.3,19.4 2.2,12.1 5,7.3 "/>
<polygon class="st1" points="55.1,3 55.8,10.2 69.9,12.4 69.9,6.6 "/>
<path class="st1" d="M9,6.9c0,0,5.4,7.1-2.2,8S3.9,8.2,3.9,8.2L9,6.9z"/>
<path class="st2" d="M11.4,17.4c0,0,19-9,57.2-0.1l-27.4,9.4l-29.1-3.8L11.4,17.4z"/>
<path class="st3" d="M77.2,8.7L73,5.8l-6.5-2.5L57.8,2l-9.1-1.4H38.1L18.7,2.3l-8.6,1.6L3.4,7.5l-2.1,4.2l0.9,4.6l10.4,10.7L72,24.3
	l6.2-11.6L77.2,8.7z M71.8,14.9c-4.5,2.2-15.1,7.2-42,4.7c0,0-15.7,0.1-24.1-5.3c0,0-3.6-4.1,1.5-6.3s18.7-4.8,24.9-4.6
	c0,0,20.7-0.8,30.2,2.1c9.5,2.9,9.8,3.7,9.8,3.7S76.4,12.7,71.8,14.9z"/>
<path class="st4" d="M73.7,5.2C55.5-2.4,28.3-0.3,14.5,2.8C0.7,5.8,0,11.1,0,11.1c1.3,10.5,28.2,10.7,28.2,10.7
	c29.6,2.4,44.7-4.3,44.7-4.3C86.3,11,73.7,5.2,73.7,5.2z M73.2,15.9c0,0-16.9,5.6-32.7,4.9C24.6,20,6.6,20.9,2.2,12.1
	c0,0-0.3-3.5,4.1-5.6c4.4-2.1,27.6-9,60.5-2.4c0,0,6.5,1.4,9.6,5C79.5,12.7,73.2,15.9,73.2,15.9z"/>
</svg>
