<!-- Generator: Adobe Illustrator 19.2.1, SVG Export Plug-In  -->
<svg version="1.1"
	 xmlns="http://www.w3.org/2000/svg" xmlns:xlink="http://www.w3.org/1999/xlink" xmlns:a="http://ns.adobe.com/AdobeSVGViewerExtensions/3.0/"
	 x="0px" y="0px" width="91.1px" height="61.9px" viewBox="0 0 91.1 61.9" style="enable-background:new 0 0 91.1 61.9;"
	 xml:space="preserve">
<style type="text/css">
	.st0{fill:#989796;}
	.st1{fill:#878686;}
	.st2{fill:#D7D7D7;}
	.st3{fill:#A2A2A4;}
	.st4{fill:#DADADB;}
	.st5{fill:#E7E3E7;}
	.st6{fill:#A5A4A0;}
	.st7{fill:#FFFFFF;}
	.st8{fill:#ECEDE7;}
	.st9{fill:#E7E6E7;}
	.st10{fill:#DCDDD7;}
	.st11{fill:#E6E6E4;}
	.st12{fill:#D2D1C9;}
	.st13{fill:#BDBDBD;}
	.st14{fill:#EFEEEE;}
	.st15{fill:#CACACB;}
	.st16{fill:#CAC7CA;}
</style>
<defs>
</defs>
<g>
	<polygon class="st0" points="62.1,61.9 75.7,51.1 91.1,33.3 91.1,30.5 78.8,33 58.6,44.1 60,59.2 	"/>
	<polygon class="st1" points="84.5,28.8 91.1,30.5 84.5,34.9 91.1,33.3 90.8,40 75.7,51.1 76.6,40.5 	"/>
	<polygon class="st2" points="63.8,51.8 62.1,61.9 22.7,48.1 10.5,40.3 17,33.4 33,33 	"/>
	<path class="st3" d="M2.5,30.1L0,31.4l0.8,9.1l21.8,7.6c0,0-15.4-11.9,3.3-9.1l37.8,12.9l-0.3-1.4l-40-18L2.5,30.1z"/>
	<polygon class="st4" points="6.9,33.2 63.4,50.4 63.8,48.5 38.1,36.2 7.7,32.1 	"/>
	<polygon class="st5" points="11.8,33.8 63.8,48.5 76.6,40.5 15.3,32.1 	"/>
	<polygon class="st6" points="81.9,17.4 85.1,17.8 84.5,28.8 79.8,41 72.8,40.5 71,27.2 76.6,20.1 	"/>
	<polygon class="st7" points="2.2,22.4 1.8,23.2 3.5,32.8 45.2,37.8 54.6,38.8 72.8,40.5 75.4,39.8 79.2,30.3 79.8,29.6 72.8,23.7 
		43.2,21.4 	"/>
	<path class="st8" d="M41.3,37.1l1.1-3h2.8l-1.9-3.3c0,0,0.1-4.6,16.3-5.4c16.3-0.8,15.3,3.8,15.3,3.8l4.8,0.5l3.5-6.8l-6-0.8
		l-39.1,2.4L33,29.6l2.1,6.8L41.3,37.1z"/>
	<polygon class="st9" points="8.3,23.7 14.7,24.5 21.8,27.6 38.1,34.2 37.1,36.6 3.5,32.8 3,25.6 	"/>
	<polygon class="st9" points="6.9,23.2 14.1,24 12.3,17.6 	"/>
	<path class="st10" d="M12.3,19.3l-5.4,3.9l1.4,0.4l-0.7,1.6l-1.9,1.3l0.4,2.4l10.8,1.5l3.4-2.4l16.7-1.7l5.7,1.2l-4.4,2.3l-0.2,2.5
		c0,0,47.9,9.4,33.7-2.8l7.2,0.8v9.5l-1.2,0.7l-14.8-4.1l-8.5,2.3L50,35.9c0,0-4.4,1.8-4.8,1.8c-0.4,0-7.1-3.6-7.1-3.6
		s-16.1,4-18.9-3l-1.5,3.1L3.5,32.8l-0.8-0.8l-1-8.9l4.3,0.3l-3.8-1.1l9.1-5.7L12.3,19.3z"/>
	<polygon class="st11" points="82.7,16.1 82.7,21.5 15.7,28.5 19.2,21.2 32.8,16.7 64.7,14.2 	"/>
	<polygon class="st12" points="35.6,20.9 22.6,27 15.7,28.5 14.7,26.1 12.3,17.6 23.6,15.9 	"/>
	<polygon class="st13" points="13.9,20.5 14.7,26.1 10.3,13.8 9.9,4.6 14.1,11.4 	"/>
	<path class="st14" d="M15.3,22.4l23.6-1.8l27.4-2.9l16.4-1.6c0,0,1.2-3,0-5.2s-57.5,2.6-57.5,2.6l-10.5,4.2L15.3,22.4z"/>
	<path class="st15" d="M9.9,4.6c0,0,51.1-3.2,55-4.6l17.8,10.9c0,0-26.6,5.6-34.9,5l-33.1,1.9L9.9,4.6z"/>
	<path class="st16" d="M12.9,12.9c0,0-0.2,8.1,2.4,9.5l-0.6-4.6L12.9,12.9z"/>
	<polygon class="st6" points="83.8,21.4 85.1,17.8 85.1,26.9 84.5,28.8 	"/>
</g>
</svg>
