<!-- Generator: Adobe Illustrator 19.2.1, SVG Export Plug-In  -->
<svg version="1.1"
	 xmlns="http://www.w3.org/2000/svg" xmlns:xlink="http://www.w3.org/1999/xlink" xmlns:a="http://ns.adobe.com/AdobeSVGViewerExtensions/3.0/"
	 x="0px" y="0px" width="83px" height="184px" viewBox="0 0 83 184" style="enable-background:new 0 0 83 184;"
	 xml:space="preserve">
<style type="text/css">
	.st0{fill:#B7B7B7;}
</style>
<defs>
</defs>
<path class="st0" d="M37.3,0.1c0,0,10.2-1.3,11.3,6.8c0,0,0.5,2.1-0.4,5.6c0,0,2.4-1.1,0.1,4.5c0,0-0.1,1.3-1.2,1.9
	c0,0-0.5,3.5-1.2,4.2l0.1,4.2c0,0,10,4.3,10.4,5c0.5,0.7,2.6,2.5,2.6,2.5s6.7,3.5,5.8,11c0,0,0.3,2.7-0.6,4.2l0,3.6
	c0,0,1.4,3.6,1.5,7.4l0.6,3.5c0,0,5.3,9,5.5,15.2c0,0-0.1,3.7,4.1,9.1h2.4c0,0,1.6,1.8,2.8,1.9c1.2,0,1.8,0,1.8,0s1.4,2.3-5.2,2
	l3.4,8.5c0,0,0.9,3.5-0.7,3.7l-2.1-4c0,0,2.3,5,1,5.6c0,0-1.1,1.2-3.8-6.3c0,0,2.3,6.3,1.2,6.4c-1.1,0.2-2.3-2-3.9-5.6
	c0,0,2.1,4.1,0.7,4.7c0,0-1.2,1.6-5.2-8.7c0,0,0.7-4.8-2.1-9c-2.9-4.1-6-9.7-6.1-13.3c0,0-0.6-2.1-1.6-3.1c0,0-1.5-1.5-1.3-7.2
	c0,0,0.4,0.4-1.4-7.2l-0.5,17c0,0,0.1,1.7,0.6,2.9c0.5,1.2,0.5,8.8,0.5,8.8s1.4,2.4,1.5,10.7l0.1,3.4c0,0,2,5.5,2,20.3
	c0,0-0.5,4.5-1.4,6.6c0,0,0.6,4.6-0.4,5.2c0,0,4.3,9.8,0.5,25.2c0,0-1.6,10.7-0.5,12.7c0,0,1.4,4.1,4.3,5.8c0,0,1,2.8,2.3,3.2
	c0,0,1,2.1-3.3,3.7l-2.2-0.5l1.3,0.9c0,0-2.6,2.9-4.8-0.8c0,0-2.8,1.1-2.8-3c0,0,0.3-1.1-1.6-1.8c0,0-3.1,0.5-1-4.7
	c0,0,0.4-1.7-0.7-3c0,0,0.8-12.1-1.3-15.3c0,0-3.4-9.6-1-23.1c0,0-2.6-4-3.5-11.9l-2.6-14l-3.1,17.2c0,0,0.5,5.3-1.6,9
	c0,0-1.4,7.4,0,9.5s-0.5,13.8-1.7,14.7c-1.2,0.9,0,13.2,0,13.2s0.4,2.4-0.5,3.9c0,0,0.1,1.9,0.5,3.1c0,0,0.4,2.9-1.7,2.4
	c0,0-2.2,2.1-1.9,3.2c0,0-2.1,4.1-5,1.9v-1.3l-1.2,1.2c0,0-7.2,0.1-2.2-5.9c0,0,1-1.6,1.3-2.5c0,0,2.2-2.4,2.2-2.8
	c0,0-0.3-0.3,0.8-4.4c0,0,0.4-4.8-2.9-15.1c0,0-1.7-12.4,1.1-20.9c0,0-1.3-1.7-0.7-4.2c0,0-3.8-0.7-1-28.7c0,0-1.7-4.3,1.2-14.7
	c0,0-0.6-4.3,0.8-10.3c0,0,0.2-1.2-0.5-2.3L25,59.8c0,0-1.3,8.7-1,11.3c0,0-1.6,8.1-5.4,12.7c0,0-4.4,7.2-4.2,8.5
	c0,0,1.3,4.1-0.9,5.4c0,0-0.8,7.1-2.9,7.7l0.5-3.8c0,0-1.6,1.1-1.5,2.3c0,0-0.3,4-2.3,3.9c0,0-1.4,0.5,0.7-3.8c0,0,0.8-3.7-1.2-0.5
	c0,0-0.5,5.1-1.7,4.4c0,0-1.4,0.6,0.7-6.3c0,0-2.2-0.8-1.6,1.7c0,0-0.5,7.1-2.1,2.2c0,0-0.7-1.9,1.3-7.2l0.4-4.1
	c0,0-4.3,1.1-3.9-1.9c0,0,3.4-0.6,4.9-1.7c0,0-0.4-1.2,2-1.2c0,0,2.4,0.5,3-4.8c0.6-5.3,2.4-12.3,4.7-16.7c0,0,1-2.3,0.4-5.2
	c0,0-1.2-5.3,0.3-10.8c0,0,0.9,1.1-0.6-6.3c0,0-1.3-7.2,5.3-11.1c0,0,2.6-1.4,3.8-3.2c1.2-1.8,8.9-4.3,8.9-4.3l0.3-5.2
	c0,0-0.6-1.3-0.5-4.3c0,0-1,0.1-1.8-2.1c-0.8-2.2-0.6-3.4,0.4-3.5C31.9,12.3,27.2,3.3,37.3,0.1z"/>
</svg>
