<!-- Generator: Adobe Illustrator 19.2.1, SVG Export Plug-In  -->
<svg version="1.1"
	 xmlns="http://www.w3.org/2000/svg" xmlns:xlink="http://www.w3.org/1999/xlink" xmlns:a="http://ns.adobe.com/AdobeSVGViewerExtensions/3.0/"
	 x="0px" y="0px" width="96.1px" height="34.2px" viewBox="0 0 96.1 34.2" style="enable-background:new 0 0 96.1 34.2;"
	 xml:space="preserve">
<style type="text/css">
	.st0{fill:#B07167;}
	.st1{fill:#E0B9A1;}
	.st2{fill:#543B60;}
</style>
<defs>
</defs>
<g>
	<path class="st0" d="M15.2,11.9c0,0,1.7,3.6-0.2,12s5.6,6,5.6,6l61.2,2.2l6.9,0.8l3.8-3.5l2.1-6.4l1-5.9l-1.9-7.8l-0.6-3l-4.4-4.6
		H67.8L17.2,3.5L15.2,11.9z"/>
	<path class="st1" d="M0,8.9h78.2c0,0,2.4-7.2,7.6-8.8s9.2,8.8,9.2,8.8s2.2,9.4,0,15.6s-3.6,7.7-3.6,7.7s-1.8,3-7.8,1.8
		c0,0-2.7-1.4-5.4-7.9L0,26.1v-1.3l6.6-0.9c0,0,4.9-3,8.4,0c0,0,1.2,1.9,8,0c0,0,4.9-3.4,9.5,0c0,0,6,1.5,12,0c0,0,5.2-3.4,8.9,0.4
		c0,0,6.2,1.3,8.9,0c0,0,4.4-3.5,7.9,0c0,0,2.1,0.5,8.1,0.5l1.8,0.4c0,0,0.8,2.9,3.2,3.3s2.5,2.8,2.5,2.8s2.2,1.2,3.6,0.1
		c1.4-1.2,2.4-3.6,2.4-3.6s-1.4-5.4,1.9-6.3c0,0,2.5-4.9,0-8.1c-2.5-3.2-1-5.1-1-5.1s-0.4-2.9-3.5-5.3c0,0-3.1-1.3-4.3,0.8
		c0,0,0.3,3.5-3.2,3.2c0,0-2.2,2.3-2.1,3.3l-1.2,0.4l-3.4,0.5c0,0-6.5,3.4-9.6,0c0,0-8.4-0.8-11,0c0,0-6.9,3.5-11.1,0
		c0,0-3.9-0.8-6.5,0c0,0-5.4,3.7-9.7,0c0,0-6.5-1.3-10.2,0s-5.6,3.1-10.7,0l-6-0.5V8.9z"/>
	
		<ellipse transform="matrix(0.9991 -4.328170e-02 4.328170e-02 0.9991 -0.3794 4.0642)" class="st2" cx="93.7" cy="10.8" rx="0.9" ry="1.5"/>
	<ellipse transform="matrix(0.1444 -0.9895 0.9895 0.1444 55.3869 112.978)" class="st2" cx="93" cy="24.5" rx="1.5" ry="0.6"/>
</g>
</svg>
