<?xml version="1.0" encoding="utf-8"?>
<!-- Generator: Adobe Illustrator 19.2.1, SVG Export Plug-In . SVG Version: 6.00 Build 0)  -->
<svg version="1.1" id="Layer_1" xmlns="http://www.w3.org/2000/svg" xmlns:xlink="http://www.w3.org/1999/xlink" x="0px" y="0px"
	 viewBox="0 0 200 200" style="enable-background:new 0 0 200 200;" xml:space="preserve">
<style type="text/css">
	.st0{fill:#FF533D;}
	.st1{fill:#FFFFFF;}
</style>
<path class="st0" d="M150,190H50c-22.1,0-40-17.9-40-40V50c0-22.1,17.9-40,40-40h100c22.1,0,40,17.9,40,40v100
	C190,172.1,172.1,190,150,190z"/>
<polygon class="st1" points="112,94.3 156.4,94.3 156.4,88 116.5,88 164,40.5 159.5,36 112,83.5 112,43.6 105.7,43.6 105.7,88 
	105.7,94.3 "/>
<polygon class="st1" points="88,105.7 43.6,105.7 43.6,112 83.5,112 36,159.5 40.5,164 88,116.5 88,156.4 94.3,156.4 94.3,112 
	94.3,105.7 "/>
</svg>
