<?xml version="1.0" encoding="utf-8"?>
<!-- Generator: Adobe Illustrator 19.2.1, SVG Export Plug-In . SVG Version: 6.00 Build 0)  -->
<svg version="1.1" id="Layer_1" xmlns="http://www.w3.org/2000/svg" xmlns:xlink="http://www.w3.org/1999/xlink" x="0px" y="0px"
	 viewBox="0 0 200 200" style="enable-background:new 0 0 200 200;" xml:space="preserve">
<style type="text/css">
	.st0{fill:#FFFFFF;}
	.st1{fill:none;stroke:#D1D1D0;stroke-miterlimit:10;}
	.st2{fill:none;stroke:#000000;stroke-width:7;stroke-miterlimit:3;}
	.st3{fill:none;stroke:#848484;stroke-width:3;stroke-miterlimit:10;}
</style>
<rect class="st0" width="200" height="200"/>
<g>
	<g>
		<g>
			<g>
				<rect class="st1" width="12.5" height="12.5"/>
				<rect x="12.5" class="st1" width="12.5" height="12.5"/>
				<rect x="25" class="st1" width="12.5" height="12.5"/>
				<rect x="37.5" class="st1" width="12.5" height="12.5"/>
				<rect x="50" class="st1" width="12.5" height="12.5"/>
				<rect x="62.5" class="st1" width="12.5" height="12.5"/>
				<rect x="75" class="st1" width="12.5" height="12.5"/>
				<rect x="87.5" class="st1" width="12.5" height="12.5"/>
				<rect x="100" class="st1" width="12.5" height="12.5"/>
				<rect x="112.5" class="st1" width="12.5" height="12.5"/>
				<rect x="125" class="st1" width="12.5" height="12.5"/>
				<rect x="137.5" class="st1" width="12.5" height="12.5"/>
				<rect x="150" class="st1" width="12.5" height="12.5"/>
				<rect x="162.5" class="st1" width="12.5" height="12.5"/>
				<rect x="175" class="st1" width="12.5" height="12.5"/>
				<rect x="187.5" class="st1" width="12.5" height="12.5"/>
			</g>
			<g>
				<rect y="12.5" class="st1" width="12.5" height="12.5"/>
				<rect x="12.5" y="12.5" class="st1" width="12.5" height="12.5"/>
				<rect x="25" y="12.5" class="st1" width="12.5" height="12.5"/>
				<rect x="37.5" y="12.5" class="st1" width="12.5" height="12.5"/>
				<rect x="50" y="12.5" class="st1" width="12.5" height="12.5"/>
				<rect x="62.5" y="12.5" class="st1" width="12.5" height="12.5"/>
				<rect x="75" y="12.5" class="st1" width="12.5" height="12.5"/>
				<rect x="87.5" y="12.5" class="st1" width="12.5" height="12.5"/>
				<rect x="100" y="12.5" class="st1" width="12.5" height="12.5"/>
				<rect x="112.5" y="12.5" class="st1" width="12.5" height="12.5"/>
				<rect x="125" y="12.5" class="st1" width="12.5" height="12.5"/>
				<rect x="137.5" y="12.5" class="st1" width="12.5" height="12.5"/>
				<rect x="150" y="12.5" class="st1" width="12.5" height="12.5"/>
				<rect x="162.5" y="12.5" class="st1" width="12.5" height="12.5"/>
				<rect x="175" y="12.5" class="st1" width="12.5" height="12.5"/>
				<rect x="187.5" y="12.5" class="st1" width="12.5" height="12.5"/>
			</g>
		</g>
		<g>
			<g>
				<rect y="25" class="st1" width="12.5" height="12.5"/>
				<rect x="12.5" y="25" class="st1" width="12.5" height="12.5"/>
				<rect x="25" y="25" class="st1" width="12.5" height="12.5"/>
				<rect x="37.5" y="25" class="st1" width="12.5" height="12.5"/>
				<rect x="50" y="25" class="st1" width="12.5" height="12.5"/>
				<rect x="62.5" y="25" class="st1" width="12.5" height="12.5"/>
				<rect x="75" y="25" class="st1" width="12.5" height="12.5"/>
				<rect x="87.5" y="25" class="st1" width="12.5" height="12.5"/>
				<rect x="100" y="25" class="st1" width="12.5" height="12.5"/>
				<rect x="112.5" y="25" class="st1" width="12.5" height="12.5"/>
				<rect x="125" y="25" class="st1" width="12.5" height="12.5"/>
				<rect x="137.5" y="25" class="st1" width="12.5" height="12.5"/>
				<rect x="150" y="25" class="st1" width="12.5" height="12.5"/>
				<rect x="162.5" y="25" class="st1" width="12.5" height="12.5"/>
				<rect x="175" y="25" class="st1" width="12.5" height="12.5"/>
				<rect x="187.5" y="25" class="st1" width="12.5" height="12.5"/>
			</g>
			<g>
				<rect y="37.5" class="st1" width="12.5" height="12.5"/>
				<rect x="12.5" y="37.5" class="st1" width="12.5" height="12.5"/>
				<rect x="25" y="37.5" class="st1" width="12.5" height="12.5"/>
				<rect x="37.5" y="37.5" class="st1" width="12.5" height="12.5"/>
				<rect x="50" y="37.5" class="st1" width="12.5" height="12.5"/>
				<rect x="62.5" y="37.5" class="st1" width="12.5" height="12.5"/>
				<rect x="75" y="37.5" class="st1" width="12.5" height="12.5"/>
				<rect x="87.5" y="37.5" class="st1" width="12.5" height="12.5"/>
				<rect x="100" y="37.5" class="st1" width="12.5" height="12.5"/>
				<rect x="112.5" y="37.5" class="st1" width="12.5" height="12.5"/>
				<rect x="125" y="37.5" class="st1" width="12.5" height="12.5"/>
				<rect x="137.5" y="37.5" class="st1" width="12.5" height="12.5"/>
				<rect x="150" y="37.5" class="st1" width="12.5" height="12.5"/>
				<rect x="162.5" y="37.5" class="st1" width="12.5" height="12.5"/>
				<rect x="175" y="37.5" class="st1" width="12.5" height="12.5"/>
				<rect x="187.5" y="37.5" class="st1" width="12.5" height="12.5"/>
			</g>
		</g>
	</g>
	<g>
		<g>
			<g>
				<rect x="0.1" y="50" class="st1" width="12.5" height="12.5"/>
				<rect x="12.6" y="50" class="st1" width="12.5" height="12.5"/>
				<rect x="25.1" y="50" class="st1" width="12.5" height="12.5"/>
				<rect x="37.6" y="50" class="st1" width="12.5" height="12.5"/>
				<rect x="50.1" y="50" class="st1" width="12.5" height="12.5"/>
				<rect x="62.6" y="50" class="st1" width="12.5" height="12.5"/>
				<rect x="75.1" y="50" class="st1" width="12.5" height="12.5"/>
				<rect x="87.6" y="50" class="st1" width="12.5" height="12.5"/>
				<rect x="100.1" y="50" class="st1" width="12.5" height="12.5"/>
				<rect x="112.6" y="50" class="st1" width="12.5" height="12.5"/>
				<rect x="125.1" y="50" class="st1" width="12.5" height="12.5"/>
				<rect x="137.6" y="50" class="st1" width="12.5" height="12.5"/>
				<rect x="150.1" y="50" class="st1" width="12.5" height="12.5"/>
				<rect x="162.6" y="50" class="st1" width="12.5" height="12.5"/>
				<rect x="175.1" y="50" class="st1" width="12.5" height="12.5"/>
				<rect x="187.6" y="50" class="st1" width="12.5" height="12.5"/>
			</g>
			<g>
				<rect x="0.1" y="62.5" class="st1" width="12.5" height="12.5"/>
				<rect x="12.6" y="62.5" class="st1" width="12.5" height="12.5"/>
				<rect x="25.1" y="62.5" class="st1" width="12.5" height="12.5"/>
				<rect x="37.6" y="62.5" class="st1" width="12.5" height="12.5"/>
				<rect x="50.1" y="62.5" class="st1" width="12.5" height="12.5"/>
				<rect x="62.6" y="62.5" class="st1" width="12.5" height="12.5"/>
				<rect x="75.1" y="62.5" class="st1" width="12.5" height="12.5"/>
				<rect x="87.6" y="62.5" class="st1" width="12.5" height="12.5"/>
				<rect x="100.1" y="62.5" class="st1" width="12.5" height="12.5"/>
				<rect x="112.6" y="62.5" class="st1" width="12.5" height="12.5"/>
				<rect x="125.1" y="62.5" class="st1" width="12.5" height="12.5"/>
				<rect x="137.6" y="62.5" class="st1" width="12.5" height="12.5"/>
				<rect x="150.1" y="62.5" class="st1" width="12.5" height="12.5"/>
				<rect x="162.6" y="62.5" class="st1" width="12.5" height="12.5"/>
				<rect x="175.1" y="62.5" class="st1" width="12.5" height="12.5"/>
				<rect x="187.6" y="62.5" class="st1" width="12.5" height="12.5"/>
			</g>
		</g>
		<g>
			<g>
				<rect x="0.1" y="75" class="st1" width="12.5" height="12.5"/>
				<rect x="12.6" y="75" class="st1" width="12.5" height="12.5"/>
				<rect x="25.1" y="75" class="st1" width="12.5" height="12.5"/>
				<rect x="37.6" y="75" class="st1" width="12.5" height="12.5"/>
				<rect x="50.1" y="75" class="st1" width="12.5" height="12.5"/>
				<rect x="62.6" y="75" class="st1" width="12.5" height="12.5"/>
				<rect x="75.1" y="75" class="st1" width="12.5" height="12.5"/>
				<rect x="87.6" y="75" class="st1" width="12.5" height="12.5"/>
				<rect x="100.1" y="75" class="st1" width="12.5" height="12.5"/>
				<rect x="112.6" y="75" class="st1" width="12.5" height="12.5"/>
				<rect x="125.1" y="75" class="st1" width="12.5" height="12.5"/>
				<rect x="137.6" y="75" class="st1" width="12.5" height="12.5"/>
				<rect x="150.1" y="75" class="st1" width="12.5" height="12.5"/>
				<rect x="162.6" y="75" class="st1" width="12.5" height="12.5"/>
				<rect x="175.1" y="75" class="st1" width="12.5" height="12.5"/>
				<rect x="187.6" y="75" class="st1" width="12.5" height="12.5"/>
			</g>
			<g>
				<rect x="0.1" y="87.5" class="st1" width="12.5" height="12.5"/>
				<rect x="12.6" y="87.5" class="st1" width="12.5" height="12.5"/>
				<rect x="25.1" y="87.5" class="st1" width="12.5" height="12.5"/>
				<rect x="37.6" y="87.5" class="st1" width="12.5" height="12.5"/>
				<rect x="50.1" y="87.5" class="st1" width="12.5" height="12.5"/>
				<rect x="62.6" y="87.5" class="st1" width="12.5" height="12.5"/>
				<rect x="75.1" y="87.5" class="st1" width="12.5" height="12.5"/>
				<rect x="87.6" y="87.5" class="st1" width="12.5" height="12.5"/>
				<rect x="100.1" y="87.5" class="st1" width="12.5" height="12.5"/>
				<rect x="112.6" y="87.5" class="st1" width="12.5" height="12.5"/>
				<rect x="125.1" y="87.5" class="st1" width="12.5" height="12.5"/>
				<rect x="137.6" y="87.5" class="st1" width="12.5" height="12.5"/>
				<rect x="150.1" y="87.5" class="st1" width="12.5" height="12.5"/>
				<rect x="162.6" y="87.5" class="st1" width="12.5" height="12.5"/>
				<rect x="175.1" y="87.5" class="st1" width="12.5" height="12.5"/>
				<rect x="187.6" y="87.5" class="st1" width="12.5" height="12.5"/>
			</g>
		</g>
	</g>
	<g>
		<g>
			<g>
				<rect x="0" y="100" class="st1" width="12.5" height="12.5"/>
				<rect x="12.5" y="100" class="st1" width="12.5" height="12.5"/>
				<rect x="25" y="100" class="st1" width="12.5" height="12.5"/>
				<rect x="37.5" y="100" class="st1" width="12.5" height="12.5"/>
				<rect x="50" y="100" class="st1" width="12.5" height="12.5"/>
				<rect x="62.5" y="100" class="st1" width="12.5" height="12.5"/>
				<rect x="75" y="100" class="st1" width="12.5" height="12.5"/>
				<rect x="87.5" y="100" class="st1" width="12.5" height="12.5"/>
				<rect x="100" y="100" class="st1" width="12.5" height="12.5"/>
				<rect x="112.5" y="100" class="st1" width="12.5" height="12.5"/>
				<rect x="125" y="100" class="st1" width="12.5" height="12.5"/>
				<rect x="137.5" y="100" class="st1" width="12.5" height="12.5"/>
				<rect x="150" y="100" class="st1" width="12.5" height="12.5"/>
				<rect x="162.5" y="100" class="st1" width="12.5" height="12.5"/>
				<rect x="175" y="100" class="st1" width="12.5" height="12.5"/>
				<rect x="187.5" y="100" class="st1" width="12.5" height="12.5"/>
			</g>
			<g>
				<rect x="0" y="112.5" class="st1" width="12.5" height="12.5"/>
				<rect x="12.5" y="112.5" class="st1" width="12.5" height="12.5"/>
				<rect x="25" y="112.5" class="st1" width="12.5" height="12.5"/>
				<rect x="37.5" y="112.5" class="st1" width="12.5" height="12.5"/>
				<rect x="50" y="112.5" class="st1" width="12.5" height="12.5"/>
				<rect x="62.5" y="112.5" class="st1" width="12.5" height="12.5"/>
				<rect x="75" y="112.5" class="st1" width="12.5" height="12.5"/>
				<rect x="87.5" y="112.5" class="st1" width="12.5" height="12.5"/>
				<rect x="100" y="112.5" class="st1" width="12.5" height="12.5"/>
				<rect x="112.5" y="112.5" class="st1" width="12.5" height="12.5"/>
				<rect x="125" y="112.5" class="st1" width="12.5" height="12.5"/>
				<rect x="137.5" y="112.5" class="st1" width="12.5" height="12.5"/>
				<rect x="150" y="112.5" class="st1" width="12.5" height="12.5"/>
				<rect x="162.5" y="112.5" class="st1" width="12.5" height="12.5"/>
				<rect x="175" y="112.5" class="st1" width="12.5" height="12.5"/>
				<rect x="187.5" y="112.5" class="st1" width="12.5" height="12.5"/>
			</g>
		</g>
		<g>
			<g>
				<rect x="0" y="125" class="st1" width="12.5" height="12.5"/>
				<rect x="12.5" y="125" class="st1" width="12.5" height="12.5"/>
				<rect x="25" y="125" class="st1" width="12.5" height="12.5"/>
				<rect x="37.5" y="125" class="st1" width="12.5" height="12.5"/>
				<rect x="50" y="125" class="st1" width="12.5" height="12.5"/>
				<rect x="62.5" y="125" class="st1" width="12.5" height="12.5"/>
				<rect x="75" y="125" class="st1" width="12.5" height="12.5"/>
				<rect x="87.5" y="125" class="st1" width="12.5" height="12.5"/>
				<rect x="100" y="125" class="st1" width="12.5" height="12.5"/>
				<rect x="112.5" y="125" class="st1" width="12.5" height="12.5"/>
				<rect x="125" y="125" class="st1" width="12.5" height="12.5"/>
				<rect x="137.5" y="125" class="st1" width="12.5" height="12.5"/>
				<rect x="150" y="125" class="st1" width="12.5" height="12.5"/>
				<rect x="162.5" y="125" class="st1" width="12.5" height="12.5"/>
				<rect x="175" y="125" class="st1" width="12.5" height="12.5"/>
				<rect x="187.5" y="125" class="st1" width="12.5" height="12.5"/>
			</g>
			<g>
				<rect x="0" y="137.5" class="st1" width="12.5" height="12.5"/>
				<rect x="12.5" y="137.5" class="st1" width="12.5" height="12.5"/>
				<rect x="25" y="137.5" class="st1" width="12.5" height="12.5"/>
				<rect x="37.5" y="137.5" class="st1" width="12.5" height="12.5"/>
				<rect x="50" y="137.5" class="st1" width="12.5" height="12.5"/>
				<rect x="62.5" y="137.5" class="st1" width="12.5" height="12.5"/>
				<rect x="75" y="137.5" class="st1" width="12.5" height="12.5"/>
				<rect x="87.5" y="137.5" class="st1" width="12.5" height="12.5"/>
				<rect x="100" y="137.5" class="st1" width="12.5" height="12.5"/>
				<rect x="112.5" y="137.5" class="st1" width="12.5" height="12.5"/>
				<rect x="125" y="137.5" class="st1" width="12.5" height="12.5"/>
				<rect x="137.5" y="137.5" class="st1" width="12.5" height="12.5"/>
				<rect x="150" y="137.5" class="st1" width="12.5" height="12.5"/>
				<rect x="162.5" y="137.5" class="st1" width="12.5" height="12.5"/>
				<rect x="175" y="137.5" class="st1" width="12.5" height="12.5"/>
				<rect x="187.5" y="137.5" class="st1" width="12.5" height="12.5"/>
			</g>
		</g>
	</g>
	<g>
		<g>
			<g>
				<rect x="0.1" y="150" class="st1" width="12.5" height="12.5"/>
				<rect x="12.6" y="150" class="st1" width="12.5" height="12.5"/>
				<rect x="25.1" y="150" class="st1" width="12.5" height="12.5"/>
				<rect x="37.6" y="150" class="st1" width="12.5" height="12.5"/>
				<rect x="50.1" y="150" class="st1" width="12.5" height="12.5"/>
				<rect x="62.6" y="150" class="st1" width="12.5" height="12.5"/>
				<rect x="75.1" y="150" class="st1" width="12.5" height="12.5"/>
				<rect x="87.6" y="150" class="st1" width="12.5" height="12.5"/>
				<rect x="100.1" y="150" class="st1" width="12.5" height="12.5"/>
				<rect x="112.6" y="150" class="st1" width="12.5" height="12.5"/>
				<rect x="125.1" y="150" class="st1" width="12.5" height="12.5"/>
				<rect x="137.6" y="150" class="st1" width="12.5" height="12.5"/>
				<rect x="150.1" y="150" class="st1" width="12.5" height="12.5"/>
				<rect x="162.6" y="150" class="st1" width="12.5" height="12.5"/>
				<rect x="175.1" y="150" class="st1" width="12.5" height="12.5"/>
				<rect x="187.6" y="150" class="st1" width="12.5" height="12.5"/>
			</g>
			<g>
				<rect x="0.1" y="162.5" class="st1" width="12.5" height="12.5"/>
				<rect x="12.6" y="162.5" class="st1" width="12.5" height="12.5"/>
				<rect x="25.1" y="162.5" class="st1" width="12.5" height="12.5"/>
				<rect x="37.6" y="162.5" class="st1" width="12.5" height="12.5"/>
				<rect x="50.1" y="162.5" class="st1" width="12.5" height="12.5"/>
				<rect x="62.6" y="162.5" class="st1" width="12.5" height="12.5"/>
				<rect x="75.1" y="162.5" class="st1" width="12.5" height="12.5"/>
				<rect x="87.6" y="162.5" class="st1" width="12.5" height="12.5"/>
				<rect x="100.1" y="162.5" class="st1" width="12.5" height="12.5"/>
				<rect x="112.6" y="162.5" class="st1" width="12.5" height="12.5"/>
				<rect x="125.1" y="162.5" class="st1" width="12.5" height="12.5"/>
				<rect x="137.6" y="162.5" class="st1" width="12.5" height="12.5"/>
				<rect x="150.1" y="162.5" class="st1" width="12.5" height="12.5"/>
				<rect x="162.6" y="162.5" class="st1" width="12.5" height="12.5"/>
				<rect x="175.1" y="162.5" class="st1" width="12.5" height="12.5"/>
				<rect x="187.6" y="162.5" class="st1" width="12.5" height="12.5"/>
			</g>
		</g>
		<g>
			<g>
				<rect x="0.1" y="175" class="st1" width="12.5" height="12.5"/>
				<rect x="12.6" y="175" class="st1" width="12.5" height="12.5"/>
				<rect x="25.1" y="175" class="st1" width="12.5" height="12.5"/>
				<rect x="37.6" y="175" class="st1" width="12.5" height="12.5"/>
				<rect x="50.1" y="175" class="st1" width="12.5" height="12.5"/>
				<rect x="62.6" y="175" class="st1" width="12.5" height="12.5"/>
				<rect x="75.1" y="175" class="st1" width="12.5" height="12.5"/>
				<rect x="87.6" y="175" class="st1" width="12.5" height="12.5"/>
				<rect x="100.1" y="175" class="st1" width="12.5" height="12.5"/>
				<rect x="112.6" y="175" class="st1" width="12.5" height="12.5"/>
				<rect x="125.1" y="175" class="st1" width="12.5" height="12.5"/>
				<rect x="137.6" y="175" class="st1" width="12.5" height="12.5"/>
				<rect x="150.1" y="175" class="st1" width="12.5" height="12.5"/>
				<rect x="162.6" y="175" class="st1" width="12.5" height="12.5"/>
				<rect x="175.1" y="175" class="st1" width="12.5" height="12.5"/>
				<rect x="187.6" y="175" class="st1" width="12.5" height="12.5"/>
			</g>
			<g>
				<rect x="0.1" y="187.5" class="st1" width="12.5" height="12.5"/>
				<rect x="12.6" y="187.5" class="st1" width="12.5" height="12.5"/>
				<rect x="25.1" y="187.5" class="st1" width="12.5" height="12.5"/>
				<rect x="37.6" y="187.5" class="st1" width="12.5" height="12.5"/>
				<rect x="50.1" y="187.5" class="st1" width="12.5" height="12.5"/>
				<rect x="62.6" y="187.5" class="st1" width="12.5" height="12.5"/>
				<rect x="75.1" y="187.5" class="st1" width="12.5" height="12.5"/>
				<rect x="87.6" y="187.5" class="st1" width="12.5" height="12.5"/>
				<rect x="100.1" y="187.5" class="st1" width="12.5" height="12.5"/>
				<rect x="112.6" y="187.5" class="st1" width="12.5" height="12.5"/>
				<rect x="125.1" y="187.5" class="st1" width="12.5" height="12.5"/>
				<rect x="137.6" y="187.5" class="st1" width="12.5" height="12.5"/>
				<rect x="150.1" y="187.5" class="st1" width="12.5" height="12.5"/>
				<rect x="162.6" y="187.5" class="st1" width="12.5" height="12.5"/>
				<rect x="175.1" y="187.5" class="st1" width="12.5" height="12.5"/>
				<rect x="187.6" y="187.5" class="st1" width="12.5" height="12.5"/>
			</g>
		</g>
	</g>
</g>
<polyline class="st2" points="200.1,107.8 195.1,105.8 192.1,107.5 187.3,106.8 183,113.1 176.1,115.3 170.8,112.6 169,116.2 
	163.4,116 157.8,137.8 146.1,47 140,122 134.2,112.6 133.1,115.3 126,114.9 121.3,117.1 119.3,111.7 113.5,115.8 108.2,110.4 
	106.4,112.7 104.8,112 100.1,107.8 95.1,105.8 92,107.5 87.3,106.8 82.9,113.1 76,115.3 70.8,112.6 69,116.2 63.3,116 57.7,137.8 
	46.1,47 39.9,122 34.1,112.6 33,115.3 25.9,114.9 21.2,117.1 19.2,111.7 13.4,115.8 8.2,110.4 6.3,112.7 4.7,112 0,115.8 "/>
<line class="st3" x1="46" y1="200" x2="46" y2="0"/>
<line class="st3" x1="146.3" y1="200" x2="146.3" y2="0"/>
</svg>
