<svg id="Layer_1" data-name="Layer 1" xmlns="http://www.w3.org/2000/svg" viewBox="0 0 383.96 287.97"><defs><style>.cls-1{opacity:0.85;}.cls-2{fill:#fff5f3;}.cls-3{fill:#fedfc2;}.cls-4{fill:#fde3d7;}.cls-5{fill:#d39d83;}.cls-6{fill:#e1c190;}.cls-7{fill:#e9a56f;}.cls-8{fill:#c03927;}.cls-9{fill:#db9127;}.cls-10{fill:#54130a;}.cls-11{fill:#ac2f3c;}.cls-12{fill:#e86124;}.cls-13{fill:#9e5349;}.cls-14{fill:#713e3d;}.cls-15{fill:#cc6741;}.cls-16{fill:#613a27;}.cls-17{fill:#bd3d30;}</style></defs><title>bookpics</title><g class="cls-1"><path class="cls-2" d="M0,0V86.57l86.21-41.1,28.3,36.7,0.38-.42,5,7.19-0.06.12,9.91,12.88,2.7-3.62,17.76,1.12,41.16-8.69-1.63-6.28,9.85,2.45,1.19,1.83,69.39-14.63,60.55,15.29h0l53.27,13.46V0M31.31,71.27L20.89,72.52l5.33-6.73,10.85,0.37Zm86.08-3-7.91-7.85,7-7.65,5,7.19Zm41.22-13.92L149,48.54l-1.25-9.39,12.93,5.57Zm80.25,22.61-21,1.87,9.73-13,22.21,1.37Zm52.52-40.81,5,7.19-4.08,8.27-7.91-7.85Zm11.73,38.4-12.8-1.58,6.9-5.28,12.3-.37ZM357.7,52.28l9.91,15.29-16,11.72-5.08-13.55Z"/><polygon class="cls-3" points="376.15 162.95 383.99 163.74 383.99 155.06 374.89 156.05 376.15 162.95"/><path class="cls-3" d="M333.61,100.41l-13.05,6-0.19-9.31,10.35-7.61L270.17,74.18,200.78,88.81l3.58,5.65L191.93,93l-0.56-2.24-41.16,8.69,32.81,2L183,97.66l41.69,26.85-0.11,25.81,30.32,13.46,29.11-3.7L275.63,173l12.42,5.53L287.93,175l-1,.46-0.19-9.31,0.88-.62L286.74,141l20.45,8.15L318.8,147l9.66,7.31,8.16-6-25.16-10.89,57.66-13,14.93,10.39v-23l-6,3.66L365.61,112l9.91-4.41,8.47,0.87v-5.74L330.72,89.27Zm-40.78,11.18,1.82,6.23-5.58,5.94-4-7.11ZM260.76,93.76l2.89,10.89-13.05,6-0.19-9.31ZM253.29,157l-8-7.81,7-7.65,5,7.19Zm21.27-12.14-12.8-1.58,6.9-5.28,12.3-.37Zm40.78-.37L294,143l-15.56-11.68,25.47-1Zm16.88-26.1-12.8-1.58,6.9-5.28,12.3-.37Z"/><polygon class="cls-3" points="152.84 127.25 150.15 127.5 152.09 128.87 152.84 127.25"/><polygon class="cls-3" points="183.09 106.85 164.39 123.55 183.4 132.03 183.09 106.85"/><path class="cls-4" d="M13.74,117.32l8.85,3.91L18.82,111,39.47,116l10.92,14.3L40.22,129l15.62,6.9,3.64-2.78,12.3-.37L65.44,140l-0.5,0,11,5,5.59-16.33L109.3,155.3l-0.82,3.82L128.62,168l0.31-6.32,6.53,3.41,4.89-10.64-13.68-13.22,2.45-11.93-21.27,1.87,21.9-29.26-9.91-12.88-4,8.15-7.91-7.85,6.65-7.19-28.3-36.7L0,86.57v41.68l0.69,2.54Zm105.85,36.61,9.85,3-8.22,3.28-10.35-1.41ZM93,104.85l1.82,6.23L89.22,117l-4-7.11Zm-31.12-7,2.89,10.89-13.05,6-0.19-9.31Z"/><polygon class="cls-5" points="296.4 287.46 296.4 288 315.41 288 314.28 286.92 296.4 287.46"/><path class="cls-5" d="M195.7,148.82l1.95,6.52-25.79,10.22-0.88-18,12.49-8.39-0.06-7.06-19-8.52-3.33,3-8.22.75-0.75,1.62,12.42,8.85-15.43,25.18-8.72-8.44-4.89,10.64,6.4,3.37,1.95,6.23,0.06,0,25.91,0.75,11.42-1.62-0.88,2h0.5l-0.75.58-4.71,10.22-2.64.83,14.05,6.19,17.88-12,4.2,14.09,30.12-2,25.41,23.85-12.23-.5,0.38,5.44-0.13,0L269,229.94l19.83-29-0.06-2.29-2.45-2.24,2.13-7.52-0.06-2.62-2.57-.33,2.45-1.91-0.19-5.44L275.69,173l-9.22,14.21-39.78-1.83,19.7-20.49,8.6-1.08-30.45-13.55-0.11,19.91ZM183.34,164.7l10.35-7.61L196.57,168l-13.05,6ZM195.19,186l-12.8-1.58,6.9-5.28,12.3-.37Zm75.61,9.89,2.89,4.2-2.38,4.82-4.64-4.57Z"/><polygon class="cls-5" points="328.21 157.76 340.01 162.45 342.83 159.58 376.15 162.95 374.89 156.05 358.52 157.88 336.56 148.41 328.4 154.43 332.35 157.42 328.21 157.76"/><polygon class="cls-6" points="321.43 286.71 320.81 288 331.98 288 331.41 286.42 321.43 286.71"/><path class="cls-6" d="M372.32,199.69l-66.38,3.57,7.65,8.19,1.82-3.86,18.07-1.5-7.34,9.81-6.84,1.7L329,228l-7.4,25.1,17.63,7.77-4.58-12.22,23.84-28.76L371,239.25l2.82-3.28L384,236.55V224.71l-17.07,4.07,4.71-9.56-9,.46-9.35-11.05,16.88,0.91,4.58,3.32,8.16-16.5,1.07-.08v-5.07Zm-35.51,29.38-0.19-9.31L347,212.16,349.86,223Z"/><polygon class="cls-6" points="373.7 243.49 379.6 252.59 357.39 268.93 369.62 274.37 375.89 276.2 383.99 276.45 383.99 254.92 383.05 254.79 383.99 254.21 383.99 239.42 379.79 242.91 373.7 243.49"/><path class="cls-6" d="M292.64,180.7l12.3-.37-6.34,7.23-10.23-1.25,0.06,2.62,0.13-.5,6.21,3.86,0.44-.62,1.95,2.12,0.56,0.37-0.13.17,5.21,5.57L340,162.45l-11.8-4.7-14.05,1.16-16.38-7.77,9.35-1.83-20.45-8.15,0.88,24.44,9.47-6.94,2.89,10.89-12,5.49,0.13,3.57,0.19,5.44Zm29.68-3.08-8-7.81,7-7.65,5,7.19Z"/><polygon class="cls-6" points="288.75 198.65 288.81 200.94 289.75 199.56 288.75 198.65"/><polygon class="cls-7" points="125.74 283.89 119.9 271.33 117.33 274.7 117.46 276.7 116.2 276.16 107.1 288 171.73 288 125.74 283.89"/><path class="cls-7" d="M61.17,263.73l-7-6.94,7-7.65,5,7.19-4,8.27-0.5-.5-0.5,8.19,0.25-.54,40-3-4.64-10.93,19.39,5.24-6.65-14.34L97,255l-25.29-1.7,19.07-13.17,24.72,5.65L115,246l40.47,8.15,19.83-8.27-6.53-6.77-14.93,11.59-25-4.78,17.94-10.14,19.32,0.54-0.38-.37,20.14-20.74-2.38,1-0.19-4.45-30.87,7.94-1.19-.66-0.82,6.32-31.94,7.65,7.28-19.32,9.22-4-0.56-.33-28.92-5.53,3.07,4.45-4.08,8.27-7.91-7.85,5.21-5.61-24.53-4.7,19.58-11.05-26.1-26L76,144.92l-11-5-12.3-1.54,3.2-2.49L40.22,129l-15.56-2-2.07-5.74-8.85-3.91L0.69,130.78,4,143.17,0,145v19.7l13.74-.42L1.25,178.41,0,178.29v51.82l2.2-.17,20.14,9.81,18.51-10.26L10,223.79l-9.47-38.4,26.73,8.15,6.59-14.17,37.27-3.28L56.34,195.82l-7,1.75,10.73,5.57-8.85,2.29,12,19.12,21-8.35,33.44,15.09-33.25,8.81-33.32-8.48,2.45,15.5L30.87,267.26l-6.53-15.88L7.53,254.5l24,27.18-14.68-1.33L14.74,288H35.64l4.45-14.25ZM38.34,165.28L27.42,177,19.7,163l8.22-5.49-7-6.86,13.8-15,9.79,14.13-6.78,13.67Zm30.87,48.29-10.35-1.41,8.72-4.9,9.85,3Zm22.21,44.3-6.34,7.23-12.8-1.58,6.9-5.28ZM70.71,241.75l-1.07,5.07-5.52-3.12-0.88-5Z"/><polygon class="cls-7" points="118.15 267.51 116.64 264.27 116.89 267.6 118.15 267.51"/><polygon class="cls-7" points="40.34 288 53.4 288 55.4 283.93 40.34 288"/><polygon class="cls-7" points="120.15 174.09 131.51 174.38 128.37 173.17 128.62 168.02 108.48 159.13 103.15 183.69 120.15 174.09"/><polygon class="cls-7" points="309.51 274.66 314.47 273.41 294.01 257.79 289.5 262.9 276.7 261.32 283.54 256.04 291.38 255.79 285.04 250.93 261.7 264.56 266.97 265.85 272.43 273 296.46 263.23 296.4 287.46 314.28 286.92 311.08 283.76 316.54 277.9 309.51 274.66"/><polygon class="cls-7" points="234.91 278.9 221.3 274.91 206.68 288 243.32 288 237.99 287.29 234.91 278.9"/><polygon class="cls-7" points="162.38 257.62 178.5 275.87 189.67 268.63 199.46 268.47 162.38 257.62"/><polygon class="cls-7" points="167.27 189.47 155.23 195.57 149.46 200.1 154.66 199.36 183.21 209.83 182.58 196.49 186.72 193.66 172.73 187.47 166.84 189.38 167.27 189.47"/><polygon class="cls-7" points="267.29 232.4 268.98 229.94 252.35 222.63 232.03 228.03 267.29 232.4"/><polygon class="cls-7" points="234.09 216.44 226.31 216.1 209.5 205.84 194.19 211.87 207.56 232.48 221.42 226.7 231.9 228.03 234.09 216.44"/><polygon class="cls-7" points="143.87 174.75 143.81 174.71 143.81 174.75 143.87 174.75"/><polygon class="cls-7" points="320.74 279.86 323.13 283.35 321.43 286.71 331.41 286.42 328.34 278.44 322.5 280.69 320.74 279.86"/><polygon class="cls-7" points="369.62 274.37 357.39 268.93 355.57 270.25 369.62 274.37"/><polygon class="cls-7" points="315.66 273.12 322.63 271.33 325.89 272.21 321.31 260.32 341.14 266.1 339.19 260.94 321.56 253.17 315.66 273.12"/><polygon class="cls-8" points="61.11 272.29 60.42 282.56 55.4 283.93 53.4 288 81.88 288 61.36 271.75 61.11 272.29"/><polygon class="cls-9" points="116.89 267.6 117.33 274.7 119.9 271.33 118.15 267.51 116.89 267.6"/><polygon class="cls-9" points="102.08 270.46 101.39 268.76 61.36 271.75 81.88 288 107.1 288 116.2 276.16 102.08 270.46"/><polygon class="cls-8" points="231.9 228.07 231.9 228.03 221.42 226.7 229.95 256.71 261.7 264.56 285.04 250.93 282.28 248.85 277.83 250.89 277.7 245.32 265.09 235.68 267.29 232.4 232.03 228.03 231.9 228.07"/><polygon class="cls-10" points="226.5 255.88 229.95 256.71 221.42 226.7 207.56 232.48 209.19 235.01 193.31 264.64 175.31 245.9 155.48 254.13 160.18 255.09 162.38 257.62 199.46 268.47 229.01 267.97 221.3 274.91 234.91 278.9 226.5 255.88"/><polygon class="cls-11" points="50.88 229.49 63.31 224.54 51.32 205.42 35.89 209.41 35.89 207.38 10.04 223.79 40.85 229.44 50.07 224.33 50.88 229.49"/><polygon class="cls-12" points="35.89 207.38 35.89 200.98 22.21 204.43 27.29 193.54 0.56 185.39 10.04 223.79 35.89 207.38"/><polygon class="cls-8" points="302.8 199.9 305.94 203.26 372.32 199.69 342.83 159.58 340.01 162.45 302.8 199.9"/><path class="cls-13" d="M342.83,159.58l29.49,40.1L384,191.29V163.74l-7.84-.79Zm17,9.06,7.72-5.07,1.82,6.23-5.58,5.94Z"/><polygon class="cls-14" points="125.8 213.61 118.52 232.89 150.46 225.25 151.27 218.93 135.02 209.62 125.8 213.61"/><polygon class="cls-10" points="296.46 263.23 272.43 273 283.91 288 296.4 288 296.4 287.46 296.46 263.23"/><polygon class="cls-8" points="379.35 287.75 383.05 280.23 380.6 282.43 368.62 283.89 374.7 276.16 375.89 276.2 369.62 274.37 355.57 270.25 355.5 270.34 361.09 288 380.6 288 383.05 286.84 379.35 287.75"/><polygon class="cls-8" points="336.43 281.64 332.92 276.65 328.34 278.44 331.41 286.42 331.98 288 360.15 288 336.43 281.64"/><polygon class="cls-8" points="323.94 264.02 341.32 266.64 341.14 266.1 321.31 260.32 325.89 272.21 330.6 273.45 323.94 264.02"/><polygon class="cls-13" points="380.6 288 383.99 288 383.99 286.63 383.05 286.84 380.6 288"/><polygon class="cls-15" points="193.31 264.64 209.19 235.01 165.71 235.93 166.08 236.3 172.17 236.47 168.78 239.09 175.31 245.9 193.31 264.64"/><polygon class="cls-9" points="209.19 235.01 207.56 232.48 194.19 211.87 185.85 215.15 165.71 235.93 209.19 235.01"/><polygon class="cls-8" points="17 280.44 31.68 281.73 7.66 254.54 0 255.96 0 271.63 20.33 269.17 17 280.44"/><polygon class="cls-16" points="20.33 269.17 0 271.63 0 288 14.74 288 17 280.44 20.33 269.17"/><polygon class="cls-15" points="374.77 212.9 382.74 218.64 371.63 219.26 366.92 228.78 383.99 224.71 383.99 197.24 382.92 196.41 374.77 212.9"/><polygon class="cls-9" points="383.99 197.24 383.99 196.36 382.92 196.41 383.99 197.24"/><polygon class="cls-14" points="341.32 266.64 354.94 268.72 355.5 270.34 355.57 270.25 357.39 268.93 379.6 252.59 373.7 243.49 366.74 244.16 370.94 239.25 358.39 219.93 334.61 248.69 339.19 260.94 341.14 266.1 341.32 266.64"/><polygon class="cls-16" points="265.09 235.68 277.7 245.32 277.64 241.62 287.99 234.02 290.88 244.9 282.28 248.85 285.04 250.93 291.38 255.79 295.83 255.67 294.01 257.79 314.47 273.41 315.66 273.12 321.56 253.17 329.03 228.03 265.09 235.68"/><polygon class="cls-9" points="295.14 191.67 294.71 192.29 297.09 193.79 295.14 191.67"/><polygon class="cls-9" points="302.8 199.9 297.59 194.29 292.45 202.02 289.75 199.56 288.81 200.94 268.98 229.94 267.29 232.4 265.09 235.68 329.03 228.03 319.3 217.64 309.51 220.09 313.59 211.45 305.94 203.26 302.8 199.9"/><polygon class="cls-16" points="197.64 155.39 195.7 148.82 183.46 139.72 183.46 139.14 170.98 147.53 197.64 155.39"/><polygon class="cls-9" points="171.79 165.57 197.64 155.39 170.98 147.53 171.79 165.57"/><polygon class="cls-11" points="164.51 137.72 152.09 128.87 150.15 127.5 129.13 129.37 126.68 141.26 164.51 137.72"/><polygon class="cls-12" points="164.51 137.72 126.68 141.26 140.36 154.47 149.08 162.91 164.51 137.72"/><polygon class="cls-8" points="266.35 187.3 275.57 173.09 283.98 160.21 254.86 163.87 246.27 164.99 266.35 187.3"/><polygon class="cls-10" points="226.57 185.47 266.35 187.3 246.27 164.99 226.57 185.47"/><polygon class="cls-8" points="107.86 131.24 129.13 129.37 150.15 127.5 152.84 127.25 161.06 126.55 132.45 98.37 129.75 101.98 107.86 131.24"/><polygon class="cls-13" points="161.06 126.55 164.39 123.55 183.09 106.85 183.02 101.53 150.21 99.45 132.45 98.37 161.06 126.55"/><polygon class="cls-8" points="183.4 132.03 183.46 139.14 183.46 139.72 224.65 124.51 183.02 97.7 183.02 101.53 183.09 106.85 183.4 132.03"/><polygon class="cls-10" points="183.46 139.72 195.7 148.82 224.31 170.22 224.65 148.41 224.65 124.51 183.46 139.72"/><polygon class="cls-8" points="211.57 205.01 209.5 205.84 226.31 216.1 238.93 193.79 208.81 195.74 211.57 205.01"/><polygon class="cls-10" points="226.31 216.1 234.09 216.44 234.28 215.19 251.41 206.92 252.1 217.14 264.34 217.64 238.93 193.79 226.31 216.1"/><polygon class="cls-8" points="154.66 199.36 152.4 219.59 183.27 211.66 183.21 209.83 154.66 199.36"/><polygon class="cls-13" points="149.46 200.1 136.97 209.75 134.46 209.29 135.02 209.62 151.27 218.93 152.4 219.59 154.66 199.36 149.46 200.1"/><polygon class="cls-17" points="131.51 174.38 143.81 174.75 143.81 174.71 141.86 168.52 135.46 165.11 128.94 161.7 128.62 168.02 128.37 173.17 131.51 174.38"/><polygon class="cls-15" points="234.28 215.19 252.48 222.59 252.1 217.14 251.41 206.92 234.28 215.19"/><polygon class="cls-9" points="234.28 215.19 234.09 216.44 231.9 228.03 231.9 228.07 232.03 228.03 252.35 222.63 252.48 222.59 234.28 215.19"/><polygon class="cls-15" points="166.84 189.38 160.69 191.38 155.23 195.57 167.27 189.47 166.84 189.38"/><polygon class="cls-14" points="160.69 191.38 166.84 189.38 172.73 187.47 175.31 186.64 180.01 176.37 160.69 191.38"/><polygon class="cls-14" points="181.2 173.84 169.78 175.5 180.26 175.79 181.2 173.84"/><polygon class="cls-16" points="182.58 196.49 211.57 205.01 208.81 195.74 204.61 181.69 186.72 193.66 182.58 196.49"/><polygon class="cls-9" points="209.5 205.84 211.57 205.01 182.58 196.49 183.21 209.83 183.27 211.66 183.46 216.1 185.85 215.15 194.19 211.87 209.5 205.84"/><polygon class="cls-8" points="131.51 174.38 120.15 174.09 136.97 209.75 149.46 200.1 155.23 195.57 160.69 191.38 180.01 176.37 180.76 175.79 180.26 175.79 169.78 175.5 143.87 174.75 143.81 174.75 131.51 174.38"/><polygon class="cls-9" points="136.97 209.75 120.15 174.09 103.15 183.69 101.64 190.59 96.81 187.26 77.24 198.32 101.77 203.01 103.59 200.98 105.53 203.72 134.46 209.29 136.97 209.75"/><polygon class="cls-7" points="34.82 135.65 20.96 150.65 27.92 157.51 34.76 153.02 37.77 163.49 44.55 149.78 34.82 135.65"/><polygon class="cls-8" points="103.15 183.69 108.48 159.13 109.3 155.3 70.71 161.25 96.81 187.26 101.64 190.59 103.15 183.69"/><polygon class="cls-13" points="109.3 155.3 81.57 128.58 76.27 144 70.71 161.25 109.3 155.3"/><polygon class="cls-8" points="369.06 124.51 311.39 137.52 336.56 148.41 358.52 157.88 369.06 124.51"/><polygon class="cls-10" points="358.52 157.88 374.89 156.05 383.99 155.06 383.99 134.9 369.06 124.51 358.52 157.88"/><polygon class="cls-15" points="0.69 130.78 0 128.25 0 142.17 3.95 143.17 0.69 130.78"/><polygon class="cls-9" points="0 142.17 0 144.96 3.95 143.17 0 142.17"/><polygon class="cls-8" points="24.41 251.39 20.14 240.96 22.34 239.75 2.2 229.94 0 235.3 0 255.96 7.66 254.54 24.41 251.39"/><polygon class="cls-10" points="0 230.11 0 235.3 2.2 229.94 0 230.11"/><polygon class="cls-8" points="51.2 231.6 84.52 240.08 84.33 216.19 63.31 224.54 50.88 229.49 51.2 231.6"/><polygon class="cls-13" points="117.77 231.27 84.33 216.19 84.52 240.08 117.77 231.27"/><polygon class="cls-17" points="116.64 264.27 116.14 263.11 96.75 257.83 101.39 268.76 102.08 270.46 116.2 276.16 117.46 276.7 117.33 274.7 116.89 267.6 116.64 264.27"/><polygon class="cls-15" points="71.72 253.3 97 255 90.79 240.13 71.72 253.3"/><polygon class="cls-9" points="115.01 246.03 115.51 245.78 90.79 240.13 97 255 109.49 248.77 107.48 244.49 115.01 246.03"/><polygon class="cls-14" points="60.42 282.56 61.11 272.29 61.61 264.1 61.17 263.73 40.03 273.75 35.64 288 40.34 288 55.4 283.93 60.42 282.56"/><polygon class="cls-16" points="20.14 240.96 24.41 251.39 30.93 267.26 53.71 247.11 20.14 240.96"/><polygon class="cls-9" points="53.71 247.11 51.2 231.6 50.88 229.49 50.07 224.33 40.85 229.44 22.34 239.75 20.14 240.96 53.71 247.11"/><polygon class="cls-11" points="35.89 200.98 35.89 207.38 35.89 209.41 51.32 205.42 60.17 203.14 49.44 197.57 35.89 200.98"/><polygon class="cls-8" points="35.89 200.98 49.44 197.57 56.41 195.78 33.94 179.32 27.29 193.54 22.21 204.43 35.89 200.98"/><polygon class="cls-13" points="56.41 195.78 71.21 176.04 33.94 179.32 56.41 195.78"/><polygon class="cls-8" points="379.35 287.75 383.05 286.84 383.99 286.63 383.99 279.4 383.05 280.23 379.35 287.75"/><polygon class="cls-8" points="229.01 267.97 199.46 268.47 189.67 268.63 201.97 288 206.68 288 221.3 274.91 229.01 267.97"/><polygon class="cls-13" points="178.5 275.87 189.23 288 201.97 288 189.67 268.63 178.5 275.87"/><polygon class="cls-17" points="278.45 131.32 294.01 143.04 315.35 144.46 303.93 130.33 278.45 131.32"/><polygon class="cls-14" points="13.74 164.28 0 164.66 0 178.29 1.25 178.41 13.74 164.28"/><polygon class="cls-14" points="27.92 157.51 19.64 162.95 27.42 176.96 38.34 165.28 37.77 163.49 34.76 153.02 27.92 157.51"/><polygon class="cls-8" points="162.38 257.62 160.18 255.09 125.74 283.89 171.73 288 189.23 288 178.5 275.87 162.38 257.62"/><polygon class="cls-10" points="115.01 246.03 107.48 244.49 109.49 248.77 116.14 263.11 116.64 264.27 118.15 267.51 119.9 271.33 125.74 283.89 160.18 255.09 155.48 254.13 115.01 246.03"/><polygon class="cls-15" points="39.47 116.03 24.66 127 40.22 129 50.38 130.33 39.47 116.03"/><polygon class="cls-9" points="39.47 116.03 18.82 110.96 22.59 121.23 24.66 127 39.47 116.03"/><polygon class="cls-7" points="115.82 97.25 119.84 89.1 119.9 88.98 114.95 81.75 114.51 82.2 107.86 89.39 115.82 97.25"/><polygon class="cls-15" points="61.87 97.87 51.51 105.47 64.75 108.76 61.87 97.87"/><polygon class="cls-9" points="64.75 108.76 51.51 105.47 51.7 114.74 64.75 108.76"/><polygon class="cls-14" points="374.7 276.16 368.62 283.89 380.6 282.43 383.05 280.23 383.99 279.4 383.99 276.45 375.89 276.2 374.7 276.16"/><polygon class="cls-14" points="71.78 132.78 59.48 133.11 55.84 135.9 52.64 138.39 64.94 139.93 65.44 139.97 71.78 132.78"/><polygon class="cls-14" points="94.81 111.13 92.99 104.85 85.33 109.92 89.22 117.07 94.81 111.13"/><polygon class="cls-15" points="272.43 273 266.97 265.85 237.99 287.29 243.32 288 283.91 288 272.43 273"/><polygon class="cls-9" points="229.95 256.71 226.5 255.88 234.91 278.9 237.99 287.29 266.97 265.85 261.7 264.56 229.95 256.71"/><polygon class="cls-7" points="314.34 169.81 322.31 177.62 326.39 169.35 321.43 162.16 314.34 169.81"/><polygon class="cls-15" points="299.91 169.6 297.03 158.67 287.55 165.61 286.67 166.28 299.91 169.6"/><polygon class="cls-9" points="286.67 166.28 286.86 175.54 287.93 175.09 299.91 169.6 286.67 166.28"/><polygon class="cls-14" points="304.87 180.32 292.63 180.7 288.24 184.06 285.73 185.97 288.31 186.31 298.53 187.55 304.87 180.32"/><polygon class="cls-7" points="245.33 149.15 253.29 156.97 257.37 148.7 252.42 141.51 245.33 149.15"/><polygon class="cls-15" points="260.76 93.76 250.47 101.36 263.65 104.69 260.76 93.76"/><polygon class="cls-9" points="263.65 104.69 250.47 101.36 250.6 110.63 263.65 104.69"/><polygon class="cls-14" points="261.76 143.25 274.56 144.83 280.9 137.6 268.67 137.93 261.76 143.25"/><polygon class="cls-14" points="294.64 117.82 292.82 111.58 285.17 116.66 289.12 123.76 294.64 117.82"/><polygon class="cls-7" points="323.13 283.35 320.74 279.86 316.54 277.9 311.08 283.76 314.28 286.92 315.41 288 320.81 288 321.43 286.71 323.13 283.35"/><polygon class="cls-15" points="287.99 234.02 277.64 241.62 290.88 244.9 287.99 234.02"/><polygon class="cls-9" points="282.28 248.85 290.88 244.9 277.64 241.62 277.7 245.32 277.83 250.89 282.28 248.85"/><polygon class="cls-14" points="276.7 261.32 289.5 262.9 294.01 257.79 295.83 255.67 291.38 255.79 283.54 256.04 276.7 261.32"/><polygon class="cls-15" points="336.62 219.8 349.86 223.13 346.97 212.2 336.62 219.8"/><polygon class="cls-9" points="336.81 229.07 349.86 223.13 336.62 219.8 336.81 229.07"/><polygon class="cls-15" points="325.89 272.21 322.63 271.33 322.5 280.69 328.34 278.44 332.92 276.65 330.6 273.45 325.89 272.21"/><polygon class="cls-9" points="322.63 271.33 315.66 273.12 314.47 273.41 309.51 274.66 316.54 277.9 320.74 279.86 322.5 280.69 322.63 271.33"/><polygon class="cls-14" points="204.35 94.46 200.78 88.81 199.59 86.98 189.74 84.53 191.37 90.81 191.93 93.01 204.35 94.46"/><polygon class="cls-7" points="109.49 60.38 117.39 68.24 121.53 59.97 116.51 52.74 109.49 60.38"/><polygon class="cls-14" points="367.61 67.57 357.7 52.28 346.53 65.75 351.68 79.29 367.61 67.57"/><polygon class="cls-16" points="341.32 266.64 323.94 264.02 330.6 273.45 332.92 276.65 336.43 281.64 354.94 268.72 341.32 266.64"/><polygon class="cls-9" points="355.5 270.34 354.94 268.72 336.43 281.64 360.15 288 361.09 288 355.5 270.34"/><polygon class="cls-15" points="193.63 157.09 183.34 164.7 196.51 168.02 193.63 157.09"/><polygon class="cls-9" points="196.51 168.02 183.34 164.7 183.52 173.96 196.51 168.02"/><polygon class="cls-14" points="182.4 184.4 195.19 185.97 201.53 178.74 189.23 179.12 182.4 184.4"/><polygon class="cls-15" points="333.61 100.41 330.72 89.47 330.72 89.47 330.72 89.47 320.37 97.08 333.61 100.41"/><polygon class="cls-9" points="320.56 106.39 333.61 100.41 320.37 97.08 320.56 106.39"/><polygon class="cls-14" points="319.43 116.78 332.23 118.36 338.56 111.17 326.33 111.5 319.43 116.78"/><polygon class="cls-7" points="66.19 256.33 61.24 249.1 54.15 256.75 61.17 263.73 61.61 264.1 62.12 264.6 66.19 256.33"/><polygon class="cls-7" points="296.34 43.3 291.38 36.11 284.35 43.72 292.26 51.57 296.34 43.3"/><polygon class="cls-7" points="101.77 203.01 96.56 208.62 104.47 216.48 108.61 208.21 105.53 203.72 103.59 200.98 101.77 203.01"/><polygon class="cls-7" points="365.54 112.21 378.03 115.57 383.99 111.92 383.99 108.67 375.52 107.8 365.54 112.21"/><polygon class="cls-14" points="290.31 72.94 303.11 74.51 309.51 67.28 297.21 67.66 290.31 72.94"/><polygon class="cls-14" points="292.45 202.02 297.59 194.29 297.72 194.16 297.09 193.79 294.71 192.29 288.56 188.43 288.37 188.88 286.24 196.41 288.75 198.65 289.75 199.56 292.45 202.02"/><polygon class="cls-14" points="20.89 72.52 31.31 71.27 37.08 66.16 26.23 65.79 20.89 72.52"/><polygon class="cls-14" points="369.31 169.81 367.49 163.57 359.83 168.64 363.72 175.75 369.31 169.81"/><polygon class="cls-8" points="217.84 78.8 238.86 76.92 227.57 65.79 217.84 78.8"/><polygon class="cls-13" points="238.86 76.92 249.78 67.2 227.57 65.79 238.86 76.92"/><polygon class="cls-8" points="166.08 236.3 146.76 235.72 153.78 250.68 168.78 239.09 172.17 236.47 166.08 236.3"/><polygon class="cls-9" points="128.81 245.9 153.78 250.68 146.76 235.72 128.81 245.9"/><polygon class="cls-8" points="319.3 217.64 326.14 215.94 315.41 207.58 313.59 211.45 309.51 220.09 319.3 217.64"/><polygon class="cls-9" points="333.48 206.13 315.41 207.58 326.14 215.94 333.48 206.13"/><polygon class="cls-14" points="58.85 212.2 69.21 213.57 77.42 210.29 67.58 207.25 58.85 212.2"/><polygon class="cls-14" points="383.99 254.92 383.99 254.21 383.05 254.79 383.99 254.92"/><polygon class="cls-14" points="129.44 156.97 119.59 153.93 110.87 158.88 121.22 160.25 129.44 156.97"/><polygon class="cls-15" points="314.16 158.92 318.74 147.07 307.13 149.36 297.78 151.19 314.16 158.92"/><polygon class="cls-9" points="314.16 158.92 328.21 157.76 332.35 157.42 328.4 154.43 318.74 147.07 314.16 158.92"/><polygon class="cls-7" points="370.94 239.25 366.74 244.16 373.7 243.49 379.79 242.91 383.99 239.42 383.99 236.55 373.82 235.97 370.94 239.25"/><polygon class="cls-16" points="374.77 212.9 370.19 209.58 362.66 219.72 371.63 219.26 382.74 218.64 374.77 212.9"/><polygon class="cls-9" points="353.31 208.66 362.66 219.72 370.19 209.58 353.31 208.66"/><polygon class="cls-16" points="149.01 48.54 160.69 44.72 147.76 39.15 149.01 48.54"/><polygon class="cls-9" points="158.62 54.32 160.69 44.72 149.01 48.54 158.62 54.32"/><polygon class="cls-7" points="271.3 204.88 273.69 200.06 270.8 195.87 266.66 200.31 271.3 204.88"/><polygon class="cls-14" points="72.28 263.52 85.08 265.1 91.42 257.87 79.12 258.24 72.28 263.52"/><polygon class="cls-16" points="70.71 241.75 63.24 238.71 64.12 243.7 70.71 241.75"/><polygon class="cls-9" points="69.64 246.82 70.71 241.75 64.12 243.7 69.64 246.82"/></g></svg>