<svg id="Layer_1" data-name="Layer 1" xmlns="http://www.w3.org/2000/svg" viewBox="0 0 171.49 262.62"><defs><style>.cls-1{fill:#a3a9aa;}.cls-2{fill:#8d9293;}.cls-3{fill:#eae3d0;}.cls-4{fill:#eaeaea;}.cls-5{fill:#d9dddd;}.cls-6{fill:#f8feff;opacity:0.3;}.cls-7{fill:#d1cabf;}.cls-8{opacity:0.08;}.cls-9{fill:#797c7c;}</style></defs><title>bookpics</title><polygon class="cls-1" points="13.77 142.63 17.55 135.76 72.64 130.55 121.78 129.23 145.84 137.28 121.78 163.57 32.07 159.04 13.77 142.63"/><polygon class="cls-2" points="21.13 134.7 62.07 129.23 91.03 127.86 137.16 129.23 142.83 133.01 140.36 141.46 136.17 143 133.93 135.65 127.74 133.06 91.03 131.65 28.68 137.35 23.02 140.55 19.81 146.7 17.55 139.8 21.13 134.7"/><path class="cls-3" d="M175.88,467.34H164.94l-6.23-11.24L158.9,431l0.57-20,6.89-32.64L174.75,354l6.2-13.58L160,324.22,147,337.8l-11.51,18.87-3.4,10.19-14,16.41-6,2.45-3.21,14.15,7.55,9.43,0.94,16.41,11.32,28.87,5.75,8.68-4.62,4.07-24.34,2.91-22.64-1.13,26.79,17L160,488.54l34.15-21.21h-18.3Zm-42.45-14.83L127,436.29l6.41,3.58v12.64Zm19.43,10.38-5.8,4.45-4.39-11.43,3.21-17.55,5.47-1.13,3.21,12.64Zm1.7-70.94V382l13.4-18.3-7,23.21-4,15.47Z" transform="translate(-57.59 -320.64)"/><polygon class="cls-4" points="92.92 19.2 103.39 0 116.03 1.7 124.62 18.3 121.78 21.7 94.9 42.07 92.92 30.94 92.92 19.2"/><polygon class="cls-5" points="10.19 219.51 14.15 243 45.84 257.33 89.43 262.62 128.29 257.9 155.65 242.43 159.99 219.51 10.19 219.51"/><polygon class="cls-1" points="0 197.34 0 217.9 43.02 239.22 80.18 243.19 117.91 244.13 159.61 223.75 171.49 214.88 170.36 194.89 0 197.34"/><polygon class="cls-2" points="4.53 194.89 0 197.34 38.86 219.6 87.73 226.21 125.84 222.24 145.65 213.75 170.36 194.89 162.25 193.57 4.53 194.89"/><polygon class="cls-1" points="17.55 171.12 50.56 164.32 132.82 165.27 136.59 188 120.56 212.43 49.62 213.75 30.94 193.57 17.55 171.12"/><path class="cls-2" d="M115.13,487C114,488,104,495.53,104,495.53l4.72,27.54,34,4.34,32.64-4,7.55-29.24L172.3,482.88h24.53l8.68,27.17-27.92,24.34L104,531.75,88.53,490.24,107,484.39Z" transform="translate(-57.59 -320.64)"/><path class="cls-5" d="M209.47,455.34l-14.72-5.47,3.58,5.28-14.15,15.66L168,476.47l-51.32,2.26-19.43-3.4L80.8,466.09l-4.53-5.85,2.45-4.91-9.62,2.83v4.72l-7,52.64L97.4,534.2l24.34,4.34h53.58l30-14.34,14.53-10Zm-31.32,73.39-32.07,4.34-40.37-4-8.11-35.85,7.55-4.34,13.39,1.13,24.15,1,28.49-2.17L180,487l10.38,8.11Z" transform="translate(-57.59 -320.64)"/><polygon class="cls-6" points="124.62 150.86 132.82 154.51 135.65 159.04 140.1 207.21 147.72 203.57 143.95 155.27 139.8 150.86 129.73 146.7 124.62 150.86"/><polygon class="cls-6" points="132.82 143.28 140.74 146.7 146.97 152.63 150.96 201.34 152.84 200.04 149.04 150.74 142.83 144.7 134.47 141.46 132.82 143.28"/><polygon class="cls-7" points="92.77 58.67 94.19 81.45 92.77 103.39 88.53 103.25 87.54 85.28 85.1 105.27 79.61 107.21 81.74 83.15 77.07 107.91 72.2 105.41 76.15 83.29 69.24 102.63 64.52 100.56 72.82 70.94 59.99 76.97 57.16 71.5 64.71 66.6 65.84 61.88 72.82 54.71 77.92 55.66 83.39 40.75 92.92 19.2 96.74 21.7 95.75 28.39 96.74 29.38 99.71 26.13 103.95 27.97 107.21 25.28 109.47 20.33 114.99 19.2 121.78 21.7 92.77 58.67"/><polygon class="cls-7" points="99.42 22.45 100.13 14.95 104.23 14.95 107.35 16.37 105.51 21.7 102.82 23.77 99.42 22.45"/><polygon class="cls-3" points="115.84 46.65 114.14 66.46 117.54 63.55 118.95 59.24 115.84 46.65"/><polygon class="cls-3" points="57.16 109.75 57.16 126.88 59.1 127.86 61.22 122.49 57.16 109.75"/><polygon class="cls-8" points="35.15 152.19 37.8 188 48.4 212.43 52.48 215.82 49.87 221.09 49.55 239.92 55.01 240.5 57.16 258.71 45.84 257.33 14.15 243 10.82 223.27 0 217.9 0 197.34 4.53 194.89 11.51 142.25 11.51 137.53 21.13 134.7 50.74 130.75 54.48 148.82 47.92 149.61 28.89 148.66 35.15 152.19"/><polygon class="cls-9" points="112.89 171.59 84.73 173.99 57.47 172.53 57.47 191.54 83.69 193.8 104.12 191.54 104.26 193.8 83.69 196.02 57.47 193.66 57.47 201.02 83.69 204.41 112.89 200.31 112.89 183.05 85.49 185.6 63.65 183.9 63.37 179.79 85.49 181.92 112.89 179.23 112.89 171.59"/></svg>