<svg xmlns="http://www.w3.org/2000/svg" viewBox="0 0 286.25 189.61"><defs><style>.cls-1{fill:#848484;}.cls-2{fill:#a8a8a8;}.cls-3{fill:#353535;}.cls-4{fill:#141414;}.cls-5{fill:#232323;}.cls-6{fill:#1c1c1c;}.cls-7{fill:#2d2d2d;}.cls-8{fill:#444;}.cls-9{fill:#515151;}.cls-10{fill:#282828;}</style></defs><title>Asset 5</title><g id="Layer_2" data-name="Layer 2"><g id="Layer_2-2" data-name="Layer 2"><polygon points="175.8 145.62 177.2 152.6 155 179.61 149 167.61 175.8 145.62"/><polygon class="cls-1" points="128.03 125.48 124.22 135.26 119.09 144.19 124.06 146.26 134.42 121.41 128.03 125.48"/><polygon class="cls-1" points="150.4 122.63 140.25 133.49 147.25 133.59 155.39 123.7 150.4 122.63"/><polygon class="cls-1" points="180.27 62.05 178.05 77.02 173.88 88.96 163.74 98.82 173.78 95.96 180.93 86.06 187.25 63.15 180.27 62.05"/><polygon class="cls-1" points="150.43 50.63 151.28 60.64 141 80.5 148.5 80.6 159.33 57.75 153.5 45.67 150.43 50.63"/><polygon class="cls-1" points="181.84 22.07 181.52 44.07 173.37 54.95 161.31 58.78 168.27 61.88 181.31 59.06 187.49 46.15 191.85 21.21 181.84 22.07"/><polygon class="cls-1" points="188.09 4.16 177.15 0 158.01 9.73 132.56 41.37 116.07 75.14 111.59 87.11 102.19 136.95 104.95 153.99 109.91 157.06 112.29 130.09 128.93 61.99 153.65 34.67 188.09 4.16"/><path class="cls-2" d="M188.09,4.16l-8-.12L156.87,19.71,136.48,46.43,118,83.17l-8.75,52.88.7,21,6.94,4.1L134,150.4l21.32-22.7L177.78,96l15.56-38.78,2.52-37ZM126.18,138.29l-5.09,5.93-5-3.07-.73-19,15.92,5.22Zm20.1-6.72-3,0,2.11-8,7,.1Zm-.28-51-14-1.2,2.19-14,7.17-11.9,12.05-2.83,2.85,10Zm36.07-4.49L177.88,89l-10.09,6.86-3-3,2.18-13L177.24,64l5,.07Zm3.44-31L176.34,57l-10,.86L162.47,47.8l5.24-16.93L178.83,22l8,2.11Z"/><polygon class="cls-3" points="125.11 79.94 133.27 61.41 134.15 59.93 141.33 47.84 142.45 45.96 151.82 33.06 153.54 31.46 166.5 21.46 169.33 20.12 184 18.61 186 21.61 168 65.61 140 101.61 123 95.61 125.11 79.94"/><polygon points="209.81 34.36 205 26.61 199 19.61 183 13.61 169.09 20.23 185 28.61 180 28.61 166.5 21.46 162 23.61 153.54 31.46 174 42.76 171 43.61 151.82 33.06 148 36.61 142.45 45.96 160 55.61 157.83 56.61 141.33 47.84 134.01 60.17 153 70.61 151 72.61 133.27 61.41 129 70.88 126.6 75.62 144 86.61 143 87.61 125.99 77.4 117 103.61 117 150.61 140 161.61 148 160.61 176.6 142.61 197.5 105.61 204 82.61 211 51.61 209.81 34.36"/><polygon class="cls-3" points="160 91.61 168 74.61 182 54.61 192 52.61 199 57.61 201 72.61 196 93.61 188.9 112.77 177 116.61 160 91.61"/><polygon class="cls-1" points="178 133.61 168 144.61 175 144.61 183 134.61 178 133.61"/><polygon class="cls-1" points="155.67 137.78 152 147.61 147 156.61 152 158.61 162 133.61 155.67 137.78"/><polygon class="cls-1" points="207 72.61 205 87.61 201 99.61 191 109.61 201 106.61 208 96.61 214 73.61 207 72.61"/><polygon class="cls-1" points="177 61.61 178 71.61 168 91.61 175.5 91.61 186 68.61 180 56.61 177 61.61"/><polygon class="cls-1" points="208 32.61 208 54.61 200 65.61 188 69.61 195 72.61 208 69.61 214 56.61 218 31.61 208 32.61"/><polygon class="cls-1" points="214 14.61 203 10.61 184 20.61 159 52.61 143 86.61 138.68 98.64 130 148.61 133 165.61 138 168.61 140 141.61 155.67 73.28 180 45.61 214 14.61"/><path class="cls-2" d="M214,14.61h-8l-23,16-20,27-18,37-8,53,1,21,7,4,17-11,21-23,22-32,15-39,2-37Zm-60,135-5,6-5-3-1-19,16,5Zm20-7h-3l2-8h7Zm-1-51-14-1,2-14,7-12,12-3,3,10Zm36-5-4,13-10,7-3-3,2-13,10-16h5Zm3-31-9,12-10,1-4-10,5-17,11-9,8,2Z"/><polygon class="cls-4" points="36.22 36.2 54.42 35 66.77 42.25 70.56 54.69 66.69 73.4 50.95 49.73 36.22 36.2"/><polygon class="cls-5" points="44.82 111.42 21.93 99.1 15.44 73.33 22.89 48.95 36.22 36.2 56.42 45.25 66.48 65.34 63.52 95.19 44.82 111.42"/><polygon points="43.62 103.27 29.59 92.83 26.29 75.42 29.37 64.67 39.52 63.67 52.36 76 48.9 100.78 43.62 103.27"/><polygon class="cls-6" points="89 16.61 108 16.61 126 38.61 130 59.61 129 83.61 122 94.61 102 94.61 89 16.61"/><polygon class="cls-7" points="64 66.61 65 43.61 78 19.61 90 16.61 108 33.61 115 57.61 112 79.61 104 97.61 64 98.61 64 66.61"/><polygon class="cls-4" points="89 77.61 78 74.61 73 61.61 72 49.61 78 41.61 97 44.61 102 55.61 99 69.61 89 77.61"/><polygon class="cls-8" points="82 50.61 88 50.61 90 53.61 91 60.61 86 63.61 82 50.61"/><polygon class="cls-9" points="88 61.61 86 63.61 82 62.61 80 53.61 82 50.61 87 51.61 88 61.61"/><polygon class="cls-8" points="24 138.61 24 145.61 15 148.61 5 147.61 0 134.61 0 122.61 12 119.61 20 120.61 24 128.61 24 138.61"/><polygon class="cls-10" points="18.47 126.31 13 125.61 6 128.61 8 141.61 16 141.61 21 138.61 18.47 126.31"/><polygon points="69 63.61 73 63.61 79 93.61 70 99.61 69 63.61"/><polygon class="cls-4" points="73 170.61 74 177.61 101 174.61 101 167.61 73 170.61"/><polygon class="cls-10" points="65 164.61 67 172.61 108 168.61 110 157.61 65 164.61"/><polygon class="cls-8" points="54 156.61 57 167.61 119 161.61 120 148.61 54 156.61"/><polygon class="cls-4" points="73 97.61 69 63.61 49 70.61 49 109.61 73 97.61"/><polygon class="cls-10" points="88 155.61 31 160.61 28 117.61 79 93.61 93 144.61 88 155.61"/><polygon points="35 138.61 22 139.61 12 137.61 12 127.61 27 124.61 37 126.61 35 138.61"/><polygon class="cls-4" points="43 130.61 34 135.61 33 144.61 37 149.61 43 149.61 43 130.61"/><polygon class="cls-9" points="42 151.61 78 147.61 75 109.61 41 121.61 42 151.61"/><polygon class="cls-4" points="148 137.61 147 148.61 88 155.61 79 93.61 113 90.61 137 91.61 148 137.61"/><polygon class="cls-9" points="103 143.61 138 141.61 142 137.61 108 134.61 103 143.61"/><polygon class="cls-10" points="129.33 98.64 104 102.61 110 138.61 140 138.61 129.33 98.64"/><polygon class="cls-4" points="125 109.61 117 111.61 120 127.61 129 128.61 125 109.61"/><polygon class="cls-4" points="186 88.61 189 113.61 187 134.61 148 127.61 150 99.61 186 88.61"/><polygon class="cls-10" points="154 123.61 187 134.61 160 139.61 140 139.61 134 122.61 154 123.61"/><polygon class="cls-10" points="133 94.61 160 88.61 186 88.61 153 105.61 133 113.61 133 94.61"/><path d="M133,106.61c2,0,20-1,20-1l1,18-18,4Z"/><polygon class="cls-8" points="126 133.61 123 119.61 123 105.61 133 94.61 140 139.61 126 133.61"/><polygon class="cls-8" points="104 102.61 97 108.61 103 143.61 110 138.61 104 102.61"/><polygon points="49 140.61 45 135.61 46 127.61 56 128.61 58 134.61 54 139.61 49 140.61"/><polygon points="63 131.61 61 128.61 65 125.61 68 129.61 66 132.61 63 131.61"/><polygon points="45 123.61 71 116.61 70 118.61 45 125.61 45 123.61"/><polygon points="47 144.61 71 140.61 70 142.61 47 146.61 47 144.61"/><polygon class="cls-9" points="26.59 82.48 24.2 76.21 24.89 69.25 33.85 70.14 38.03 78.59 35.55 83.37 26.59 82.48"/><polygon class="cls-9" points="40.03 88.84 35.06 88.35 31.28 96.01 33.87 100.29 40.94 99.98 44.31 96.3 40.03 88.84"/><polygon points="178 153.61 157 180.61 185 188.61 187 155.61 178 153.61"/><polygon points="189 155.61 187 188.61 193 189.61 209.14 177.04 197 150.61 194 153.61 189 155.61"/><polygon points="198 149.61 206 135.61 227.46 153.16 210.19 175.98 198 149.61"/><polygon points="207 133.61 214.53 114.82 235.42 129.28 228 151.61 207 133.61"/><polygon points="215.71 113.86 221.25 90.86 240.25 106.86 236.57 127.36 215.71 113.86"/><polygon points="222.25 88.86 223.25 78.86 241.25 71.86 248.25 96.86 243.25 98.86 240.53 105.95 222.25 88.86"/><polygon points="250.25 95.86 242.25 71.86 250.25 69.86 264.25 75.86 258.25 101.86 250.25 95.86"/><polygon points="260.25 102.86 265.25 76.86 286.25 89.86 271.25 117.86 265.25 106.86 260.25 102.86"/></g></g></svg>