<?xml version="1.0" encoding="utf-8"?>
<!-- Generator: Adobe Illustrator 19.2.1, SVG Export Plug-In . SVG Version: 6.00 Build 0)  -->
<svg version="1.1" id="Layer_1" xmlns="http://www.w3.org/2000/svg" xmlns:xlink="http://www.w3.org/1999/xlink" x="0px" y="0px"
	 viewBox="0 0 200 200" style="enable-background:new 0 0 200 200;" xml:space="preserve">
<style type="text/css">
	.st0{fill:#505150;}
	.st1{fill:#B1B0B1;stroke:#B2B0B1;stroke-width:5;stroke-miterlimit:10;}
</style>
<path class="st0" d="M150,190H50c-22.1,0-40-17.9-40-40V50c0-22.1,17.9-40,40-40h100c22.1,0,40,17.9,40,40v100
	C190,172.1,172.1,190,150,190z"/>
<polygon class="st1" points="157.7,36 113.2,36 113.2,42.3 153.2,42.3 105.7,89.9 110.1,94.3 157.7,46.8 157.7,86.8 164,86.8 
	164,42.3 164,36 "/>
<polygon class="st1" points="42.3,164 86.8,164 86.8,157.7 46.8,157.7 94.3,110.1 89.9,105.7 42.3,153.2 42.3,113.2 36,113.2 
	36,157.7 36,164 "/>
</svg>
