<?xml version="1.0" encoding="utf-8"?>
<!-- Generator: Adobe Illustrator 19.2.1, SVG Export Plug-In . SVG Version: 6.00 Build 0)  -->
<svg version="1.1" id="Layer_1" xmlns="http://www.w3.org/2000/svg" xmlns:xlink="http://www.w3.org/1999/xlink" x="0px" y="0px"
	 viewBox="0 0 612 792" style="enable-background:new 0 0 612 792;" xml:space="preserve">
<style type="text/css">
	.st0{fill:#FFFFFF;}
	.st1{stroke:#00FFFF;stroke-miterlimit:10;}
	.st2{fill:none;stroke:#00FFFF;stroke-miterlimit:10;}
	.st3{fill:none;stroke:#00FFFF;stroke-width:0.7;stroke-linejoin:bevel;stroke-miterlimit:10;}
	.st4{fill:none;stroke:#00FFFF;stroke-linejoin:bevel;stroke-miterlimit:10;}
	.st5{fill:#00A79D;}
	.st6{font-family:'Geneva';}
	.st7{font-size:19.655px;}
	.st8{fill:#414042;}
	.st9{font-family:'Optima-Bold';}
	.st10{font-size:5.0608px;}
	.st11{fill:none;}
	.st12{fill:#999999;}
	.st13{fill:#B3B3B3;}
	.st14{fill:#CCCCCC;}
	.st15{fill:#E6E6E6;}
	.st16{fill:#FBB040;}
	.st17{fill:#ED1C24;}
	.st18{fill:#1A1A1A;}
	.st19{fill:#00FFFF;}
	.st20{font-family:'BodoniSvtyTwoSCITCTT-Book';}
	.st21{font-size:42px;}
	.st22{font-size:18px;}
	.st23{fill:#5D5D5D;}
</style>
<rect class="st0" width="612.1" height="792"/>
<rect y="101.1" width="612" height="792"/>
<path class="st1" d="M256.5,814.3"/>
<path class="st1" d="M406.8,730.1"/>
<polygon class="st1" points="393.4,710.7 370.6,774.8 408.8,830.8 419.2,763.7 "/>
<polygon class="st1" points="598.7,663.5 537.5,627.8 549.7,723.2 627.1,750.4 "/>
<polygon class="st1" points="169.2,669.9 103.9,686.6 150.6,737.4 206.5,734.8 "/>
<polygon class="st1" points="70.7,838.1 48.5,811.9 45.9,769.5 76.1,795 "/>
<polygon class="st1" points="229.5,768.3 241.3,872.3 288.4,809.1 288.6,722.1 "/>
<polygon class="st1" points="131.4,658.2 36.9,605.6 60.5,722.7 133.2,782.5 "/>
<polygon class="st1" points="520,741.9 420.6,703.5 455,846.2 577.7,867.2 "/>
<polygon class="st1" points="247.3,629.9 191.2,674.7 259.7,713.2 318.9,647 "/>
<line class="st2" x1="455" y1="846.2" x2="520" y2="741.9"/>
<polygon class="st1" points="347.6,523.6 311.5,593.4 372,587.2 409.3,535.5 "/>
<polygon class="st1" points="432,663.1 411.9,634 444.9,631.5 459.7,666.7 "/>
<polygon class="st1" points="223.2,601.5 201.3,644.5 224.2,690 237.2,643.1 "/>
<polygon class="st1" points="380.7,582 367.5,633.2 404.4,616.3 420.8,576.1 "/>
<polygon class="st1" points="359.9,652.2 379.6,606.6 397.1,658.4 368.9,698.1 "/>
<polygon class="st1" points="193.4,655.1 168.5,724.7 210.1,785.7 221.3,712.7 "/>
<polygon class="st1" points="169,776 194.9,754.5 192.1,796.9 162.2,810.6 "/>
<polygon class="st1" points="31.7,530.6 -20.4,582.8 39.1,601.2 87.8,566.9 "/>
<polygon class="st1" points="104.6,623.2 84.8,637.8 88.2,606.6 110.8,597.9 "/>
<polygon class="st1" points="60.7,552.1 48.1,590.8 58.4,626.5 78.2,591.7 "/>
<polygon class="st1" points="-23.3,533.7 -35.4,594.3 -14,644.3 9.4,587.2 "/>
<polygon class="st1" points="-10.2,699.3 28.3,712.8 14.2,669.6 "/>
<polygon class="st1" points="34.3,672.4 -0.2,713.8 -3.1,768.4 39.1,737.3 "/>
<polygon class="st1" points="267.4,346.4 237.5,403.4 245.3,464.8 285.8,416.8 "/>
<polygon class="st1" points="477.7,558.4 425.2,533.6 440.1,611.7 505.4,628.1 "/>
<polygon class="st1" points="581.8,504.3 594.5,539.4 584,579.7 563.9,541.5 "/>
<polygon class="st1" points="372,425.1 345.6,505.3 414.1,491.5 434.6,389.6 "/>
<polygon class="st1" points="339.4,671.7 302,743 311.8,820 362.5,759.8 "/>
<polygon class="st1" points="14.2,782.3 -35.9,811.8 17.5,852.9 71.9,806 "/>
<polygon class="st1" points="534.5,469.8 508.2,506.7 508.7,552 541.8,522.9 "/>
<polygon class="st1" points="206.8,546.7 179.5,575.8 218.2,589.9 245.9,549 "/>
<polygon class="st1" points="258.6,535.2 226.7,567.7 226.2,511.4 264.2,488.4 "/>
<polygon class="st1" points="306.9,503.4 274.4,565.3 282.9,632.1 326.9,579.9 "/>
<polygon class="st1" points="472.3,513.8 441.9,521.1 457.3,483.3 489,485.1 "/>
<polygon class="st1" points="539.5,738.5 484.2,746.5 525,807.3 588.9,784.5 "/>
<line class="st2" x1="549.7" y1="723.2" x2="598.7" y2="663.5"/>
<polygon class="st1" points="646,704.3 598.6,740.4 646.2,763.7 "/>
<polygon class="st1" points="485.7,686.3 508.4,682.4 495.8,709.6 472.3,706.6 "/>
<polygon class="st1" points="500.5,728.3 504.8,773.3 528.1,743.8 529.4,705.7 "/>
<polygon class="st1" points="601.6,724.6 562.8,765.9 576.8,831.2 606.2,781.1 "/>
<polygon class="st1" points="614.7,671.9 583.2,640.6 583.2,687.5 "/>
<polygon class="st1" points="580.6,612.8 565.5,675.1 609.8,653.7 628.9,604.6 "/>
<polygon class="st1" points="101.9,789.2 68.7,830.4 120,843.9 152.9,787.5 "/>
<polygon class="st1" points="523.3,577.1 554.5,575.3 538.3,610.5 505.8,602.8 "/>
<polygon class="st1" points="140.8,481.4 113.9,556.9 158.9,622.9 171.1,543.8 "/>
<polygon class="st1" points="524.6,638.5 472.7,609.6 485.6,674 525.6,706.8 "/>
<polygon class="st1" points="96.5,532.6 88.9,430.8 34.9,495.6 "/>
<polygon class="st1" points="133.5,445.9 107.5,478 147.6,488.6 173.3,444.5 "/>
<polygon class="st1" points="96.2,393.4 108.6,413.4 86.9,413.5 78.2,389.8 "/>
<polygon class="st1" points="113.1,425.3 101.2,450.9 127.6,448.9 137.7,415.9 "/>
<polygon class="st1" points="586.4,577.8 572.2,606.8 562.2,572.1 581.7,547.4 "/>
<polygon class="st1" points="587.8,455.5 561.1,442.9 568.7,482.7 602,491.1 "/>
<polygon class="st1" points="616.8,410.4 603.4,429.2 603.7,452.3 620.6,437.5 "/>
<polygon class="st1" points="0.4,471.1 -15.1,474.8 -7.2,455.6 9,456.5 "/>
<polygon class="st1" points="613.8,497.9 629.7,497.1 621.5,515 604.9,511.1 "/>
<polygon class="st1" points="169.9,311.5 176.3,329.4 171,349.9 160.7,330.4 "/>
<polygon class="st1" points="181,499.6 178.2,515.8 195.5,501.9 195.6,483.6 "/>
<polygon class="st1" points="217.8,436.2 233.7,435.3 225.5,453.2 208.9,449.3 "/>
<polygon class="st1" points="366,409.7 358.8,424.5 353.7,406.8 363.6,394.2 "/>
<polygon class="st1" points="19.1,640.4 11.9,655.1 6.8,637.4 16.7,624.8 "/>
<polygon class="st1" points="358.3,778.4 364.7,796.3 359.4,816.9 349.1,797.4 "/>
<polygon class="st1" points="315.1,805.5 311.4,778.4 298,797.3 "/>
<polygon class="st1" points="315.1,805.5 298.2,820.3 298,797.3 "/>
<polygon class="st1" points="292.1,709.6 281.1,723.5 264.1,724.3 274.9,705.3 "/>
<polygon class="st1" points="246.9,726.8 233.5,723.3 244.8,711.1 257.6,718.6 "/>
<polygon class="st1" points="412.8,617.1 422.7,640.8 414.6,668.1 398.8,642.3 "/>
<polygon class="st1" points="340.9,617.1 320.3,642.1 320.7,672.7 346.6,653 "/>
<polygon class="st1" points="490.9,527.3 515.3,526.1 502.7,549.9 477.2,544.7 "/>
<polygon class="st1" points="408.3,696.4 397.2,716 389.4,692.5 404.7,675.8 "/>
<polygon class="st1" points="345.8,324.4 307.2,302.9 316.8,350.7 346.5,375.1 "/>
<polygon class="st1" points="512.8,406.2 496,388.5 519.1,382.1 532.6,404.8 "/>
<polygon class="st1" points="82.8,713.3 69.4,732.1 69.7,755.2 86.6,740.4 "/>
<polygon class="st1" points="77.1,768 93,767.1 84.8,785 68.2,781.1 "/>
<polygon class="st1" points="290.2,428.3 276.9,447.2 277.1,470.2 294,455.4 "/>
<polygon class="st1" points="284.5,483 300.4,482.1 292.2,500.1 275.6,496.1 "/>
<polygon class="st1" points="459.1,434.3 448.9,419.6 465.6,418.4 473.1,436.2 "/>
<polygon class="st1" points="154.9,650.6 140,635 164.3,633.6 175.2,652.5 "/>
<polygon class="st1" points="24.9,357.3 12.9,379.3 16.5,410 32.8,394.2 "/>
<polygon class="st1" points="9.4,480.4 15.8,498.2 10.5,518.8 0.2,499.3 "/>
<polygon class="st1" points="194,614.2 206.4,634.2 184.7,634.3 176,610.6 "/>
<polygon class="st1" points="467,239 456.8,224.3 473.6,223 481.1,240.8 "/>
<polygon class="st1" points="577.3,344.2 563.8,347.4 570.7,330.7 584.7,331.6 "/>
<polygon class="st1" points="106.7,297.6 119.1,317.6 97.4,317.7 88.7,294 "/>
<polygon class="st1" points="233.7,286 249.6,285 241.3,303 224.8,299 "/>
<polygon class="st1" points="252,589.3 230.6,612.5 260.3,623.4 282.1,591 "/>
<polygon class="st1" points="434.8,786.8 417.3,805.7 441.6,814.7 459.5,788.1 "/>
<polygon class="st1" points="40.5,763.1 27.1,759.6 38.4,747.4 51.1,754.9 "/>
<polygon class="st1" points="503.9,477 490.5,473.5 501.7,461.3 514.5,468.8 "/>
<polygon class="st1" points="509.4,287.4 506.6,303.6 523.9,289.7 524,271.4 "/>
<polygon class="st1" points="319.5,680.7 299.2,685.9 313.7,701.7 331,700.9 "/>
<polygon class="st1" points="467.2,702.3 459.9,717 454.8,699.3 464.8,686.7 "/>
<polygon class="st1" points="141.4,751.5 143.5,782 159.7,800.7 163.2,769.5 "/>
<polygon class="st1" points="445.7,675.9 423.8,657.9 425.9,688.3 "/>
<polygon class="st1" points="445.7,675.9 442.2,707 425.9,688.3 "/>
<polygon class="st1" points="121.3,610.5 122.9,637.8 137.6,620.8 139.2,597.9 "/>
<polyline class="st3" points="-24.2,161 27.6,161 31.4,140.1 33.7,184.9 40.2,133 40.2,193.7 47.4,131.4 47.4,200.9 55.5,130.1 
	55.5,207.1 65.1,133 65.1,216.1 70.6,139.4 71.7,222.9 77.5,143.2 80.1,229.7 83.5,139 86.9,221.4 90,134.6 95.6,215.8 99.3,130.1 
	102.8,208 106.8,130.1 109,203.4 115.5,132.4 116.5,197.2 123.2,141.2 124.9,184.2 129.2,149.1 131.7,159.2 165,159.2 "/>
<line class="st4" x1="523.9" y1="289.7" x2="509.4" y2="287.4"/>
<line class="st2" x1="237.5" y1="403.4" x2="285.8" y2="416.8"/>
<line class="st2" x1="276.9" y1="447.2" x2="294" y2="455.4"/>
<line class="st2" x1="345.8" y1="324.4" x2="316.8" y2="350.7"/>
<line class="st2" x1="12.9" y1="379.3" x2="32.8" y2="394.2"/>
<line class="st2" x1="603.4" y1="429.2" x2="620.6" y2="437.5"/>
<line class="st2" x1="587.8" y1="455.5" x2="568.7" y2="482.7"/>
<line class="st2" x1="508.2" y1="506.7" x2="541.8" y2="522.9"/>
<line class="st2" x1="372" y1="425.1" x2="414.1" y2="491.5"/>
<line class="st2" x1="181" y1="499.6" x2="195.5" y2="501.9"/>
<line class="st2" x1="133.5" y1="445.9" x2="147.6" y2="488.6"/>
<line class="st2" x1="113.1" y1="425.3" x2="127.6" y2="448.9"/>
<line class="st2" x1="113.9" y1="556.9" x2="171.1" y2="543.8"/>
<line class="st2" x1="206.8" y1="546.7" x2="218.2" y2="589.9"/>
<line class="st2" x1="252" y1="589.3" x2="260.3" y2="623.4"/>
<line class="st2" x1="274.4" y1="565.3" x2="326.9" y2="579.9"/>
<line class="st2" x1="347.6" y1="523.6" x2="372" y2="587.2"/>
<line class="st2" x1="380.7" y1="582" x2="404.4" y2="616.3"/>
<line class="st2" x1="477.7" y1="558.4" x2="440.1" y2="611.7"/>
<line class="st2" x1="580.6" y1="612.8" x2="609.8" y2="653.7"/>
<line class="st2" x1="524.6" y1="638.5" x2="485.6" y2="674"/>
<line class="st2" x1="606.2" y1="781.1" x2="562.8" y2="765.9"/>
<line class="st2" x1="525" y1="807.3" x2="539.5" y2="738.5"/>
<line class="st2" x1="528.1" y1="743.8" x2="500.5" y2="728.3"/>
<line class="st2" x1="441.6" y1="814.7" x2="434.8" y2="786.8"/>
<line class="st2" x1="370.6" y1="774.8" x2="419.2" y2="763.7"/>
<line class="st2" x1="302" y1="743" x2="362.5" y2="759.8"/>
<line class="st2" x1="288.4" y1="809.1" x2="229.5" y2="768.3"/>
<line class="st2" x1="168.5" y1="724.7" x2="221.3" y2="712.7"/>
<line class="st2" x1="143.5" y1="782" x2="163.2" y2="769.5"/>
<line class="st2" x1="169.2" y1="669.9" x2="150.6" y2="737.4"/>
<line class="st2" x1="120" y1="843.9" x2="101.9" y2="789.2"/>
<line class="st2" x1="17.5" y1="852.9" x2="14.2" y2="782.3"/>
<line class="st2" x1="-0.2" y1="713.8" x2="39.1" y2="737.3"/>
<line class="st2" x1="60.5" y1="722.7" x2="131.4" y2="658.2"/>
<line class="st2" x1="121.3" y1="610.5" x2="137.6" y2="620.8"/>
<line class="st2" x1="48.1" y1="590.8" x2="78.2" y2="591.7"/>
<line class="st2" x1="-35.4" y1="594.3" x2="9.4" y2="587.2"/>
<line class="st2" x1="31.7" y1="530.6" x2="39.1" y2="601.2"/>
<line class="st2" x1="201.3" y1="644.5" x2="237.2" y2="643.1"/>
<line class="st2" x1="247.3" y1="629.9" x2="259.7" y2="713.2"/>
<line class="st2" x1="319.5" y1="680.7" x2="313.7" y2="701.7"/>
<line class="st2" x1="320.3" y1="642.1" x2="346.6" y2="653"/>
<polygon class="st1" points="434.9,334.2 429.8,326.9 438.1,326.2 441.9,335.2 "/>
<text transform="matrix(0 1.0005 -1 0 68.1953 9.7134)" class="st5 st6 st7">TLL</text>
<text transform="matrix(0 1 -1 0 79.3164 57.3664)" class="st8 st9 st10">TEACHING </text>
<text transform="matrix(0 1 -1 0 73.9648 57.6838)" class="st8 st9 st10">LEARNING</text>
<text transform="matrix(0 1 -1 0 68.5547 57.6838)" class="st8 st9 st10">LAB</text>
<path class="st11" d="M32.4,36c-1.2,0.1-2.5,0.2-3.7,0.3c-2.1,0.2-4.3,0.4-6.5,0.7c2.2-0.1,4.4-0.2,6.5-0.4c1.3-0.1,2.5-0.2,3.8-0.3
	l0,0C32.5,36.3,32.4,36.2,32.4,36z"/>
<path class="st11" d="M49.6,64.1L49.6,64.1c-0.2-0.2-0.2-0.2-0.3-0.2c-0.4-0.2-1-0.3-1.8-0.5c-1.6-0.2-3.8-0.3-6.5-0.2
	c-1.3,0-2.8,0.1-4.3,0.2c-1.5,0.1-3.2,0.3-4.8,0.5c-1.7,0.2-3.4,0.5-5.1,0.9c-0.9,0.2-1.7,0.4-2.6,0.7c-0.4,0.1-0.8,0.3-1.2,0.5
	c-0.2,0.1-0.4,0.2-0.5,0.3s-0.1,0.1-0.2,0.2l0,0l0,0c0,0,0.1,0.1,0.2,0.1c0.2,0.1,0.4,0.1,0.6,0.2c0.4,0.1,0.8,0.2,1.3,0.2
	c0.9,0.1,1.7,0.2,2.6,0.2c1.8,0.1,3.5,0,5.2-0.1s3.3-0.2,4.8-0.4s3-0.3,4.3-0.5s2.5-0.4,3.6-0.7c1.1-0.2,2-0.5,2.7-0.7
	c0.4-0.1,0.7-0.2,0.9-0.4c0.2-0.1,0.4-0.2,0.5-0.3l0.1-0.1l0,0l0,0l0,0l0,0l0,0h0.8l0,0C49.6,64.2,49.6,64.1,49.6,64.1z"/>
<path class="st11" d="M22.2,66.3L22.2,66.3L22.2,66.3L22.2,66.3z"/>
<path class="st11" d="M22.2,66.4L22.2,66.4L22.2,66.4z"/>
<path class="st11" d="M40.5,93.4C40.5,93.4,40.5,93.3,40.5,93.4L40.5,93.4C40.4,93.5,40.5,93.4,40.5,93.4z"/>
<path class="st11" d="M40.1,93.6c0.1,0,0.1,0,0.2-0.1C40.2,93.6,40.1,93.6,40.1,93.6L40.1,93.6z"/>
<path class="st11" d="M40.8,92.9C40.8,92.9,40.8,92.8,40.8,92.9s-0.1,0.2-0.2,0.3C40.8,93.1,40.8,93,40.8,92.9z"/>
<path class="st11" d="M33.5,42.9c-1.1,0.1-2.3,0.3-3.5,0.4c-2.5,0.3-5.2,0.7-7.8,1.2c-1.3,0.2-2.6,0.5-3.9,0.8c-0.1,0-0.2,0-0.2,0.1
	c0.1,0,0.2,0,0.3,0c1.3,0,2.7,0,4,0c2.7-0.1,5.3-0.2,7.9-0.4c1.2-0.1,2.4-0.2,3.5-0.3v-0.2C33.7,44,33.6,43.4,33.5,42.9z"/>
<path class="st11" d="M34.8,35.8c-0.1,0-0.1,0-0.2,0c0,0.1,0,0.1,0,0.2v0.2c1-0.1,2-0.2,2.9-0.2c-0.2,0-0.5,0-0.7,0
	C36.2,35.9,35.5,35.9,34.8,35.8z"/>
<path class="st11" d="M39.1,93.6C39.2,93.6,39.2,93.6,39.1,93.6C39.2,93.6,39.2,93.6,39.1,93.6L39.1,93.6L39.1,93.6z"/>
<path class="st11" d="M47.7,6.5c-0.2,0-0.4,0-0.7,0.1c-0.1,0-0.3,0.1-0.4,0.1c0.4,0,0.8,0,1.1,0l0.2-0.1l0,0
	C47.8,6.5,47.8,6.5,47.7,6.5z"/>
<path class="st11" d="M45.9,6.7C45.8,6.7,45.8,6.7,45.9,6.7c-0.1,0-0.2,0-0.3,0l0,0C45.7,6.8,45.8,6.7,45.9,6.7z"/>
<path class="st11" d="M40.4,8.1C40.4,8.1,40.5,8.1,40.4,8.1c0.7-0.4,1.3-0.7,1.9-0.9c-1.2,0.1-2.7,0.2-4.5,0.3c-0.1,0-0.3,0-0.4,0
	c-2.9,0.4-6.2,0.8-9.7,1.4c-1.9,0.3-3.9,0.7-5.9,1c-1,0.2-2,0.4-3,0.6c-0.5,0.1-1,0.2-1.5,0.4c-0.2,0.1-0.5,0.1-0.7,0.2
	c-0.1,0-0.2,0.1-0.4,0.1c-0.1,0-0.1,0.1-0.2,0.1l0,0l0,0c0.1,0,0.1,0,0.2,0s0.2,0,0.4,0c0.3,0,0.5,0,0.8,0c0.5,0,1,0,1.5-0.1
	c1-0.1,2.1-0.2,3.1-0.3c2-0.2,4-0.4,6-0.7c2.7-0.4,5.3-0.7,7.7-1.1l0,0C37.4,8.9,39,8.4,40.4,8.1z"/>
<path class="st11" d="M17.1,33.6c0.6,0.1,1.2,0.1,1.9,0.2c0.6,0.1,1.3,0.1,2,0.2c0.7,0.1,1.4,0.1,2.1,0.2c0.7,0.1,1.4,0.1,2.2,0.2
	c0.7,0.1,1.5,0.1,2.3,0.2c0.4,0,0.8,0.1,1.2,0.1c0.4,0,0.8,0,1.2,0.1c0.6,0,1.2,0.1,1.7,0.1c0.2,0,0.4,0,0.6,0v-0.1
	c-0.1-0.3-0.1-0.6-0.2-0.9C32,33.6,32,33.3,31.9,33l-0.2-0.7c-1.1,0.1-2.2,0.2-3.3,0.2c-3,0.2-6.2,0.4-9.4,0.5
	c-1.6,0.1-3.2,0.1-4.8,0.2c-0.5,0-0.9,0-1.4,0c0.4,0,0.8,0.1,1.2,0.1C14.8,33.4,15.9,33.5,17.1,33.6z"/>
<path class="st11" d="M11.4,38.9L11.4,38.9L11.4,38.9z"/>
<path class="st11" d="M45.6,7.1L45.6,7.1C45.6,7.2,45.6,7.2,45.6,7.1l2-0.4c-0.3,0-0.7,0-1.1,0c-0.3,0.1-0.6,0.1-0.9,0.2
	C45.6,7,45.6,7,45.6,7.1z"/>
<path class="st11" d="M48.8,64.3L48.8,64.3L48.8,64.3L48.8,64.3L48.8,64.3L48.8,64.3z"/>
<path class="st11" d="M59.8,35c-0.2-0.1-0.5-0.1-0.8-0.1s-0.8-0.1-1.3-0.1c0,0.1,0,0.2,0,0.3l2.3,0.1c0,0,0,0,0-0.1
	C59.9,35.1,59.9,35.1,59.8,35z"/>
<path class="st11" d="M34,21L34,21C34,21.1,34,21,34,21z"/>
<path class="st11" d="M57,15.3c-0.2,0-0.4,0-0.7,0c-0.1,0-0.3,0-0.5,0.1l0,0c0,0.1,0,0.2,0,0.3l1.5-0.2c0,0,0,0-0.1,0
	C57.2,15.3,57.1,15.3,57,15.3z"/>
<path class="st11" d="M57.1,15.3C57.1,15.3,57,15.3,57.1,15.3l0.1,0.1c0.1,0,0.1,0,0.1,0s0,0,0-0.1C57.3,15.3,57.2,15.3,57.1,15.3z"
	/>
<path class="st11" d="M39.1,31.2c2-0.2,3.9-0.4,5.6-0.5c4.9-0.5,8.9-1,11.7-1.4c1.4-0.2,2.5-0.4,3.2-0.5c0.4-0.1,0.6-0.1,0.8-0.2
	l0,0c-0.2,0-0.5-0.1-0.8-0.1c-0.8,0-1.9,0-3.3,0c-2.8,0.1-6.9,0.3-11.7,0.6c-1.8,0.1-3.7,0.3-5.7,0.4c0,0.3,0.1,0.6,0.1,0.9
	C39.1,30.7,39.1,30.9,39.1,31.2z"/>
<ellipse class="st11" cx="55.7" cy="15.6" rx="0" ry="0"/>
<path class="st11" d="M13.3,27.4c1.5-0.3,3.1-0.7,4.6-1c3-0.7,6-1.5,8.8-2.3c1.3-0.4,2.7-0.7,4-1.1c0-0.4,0-0.8,0-1.3
	c-1.4,0.4-2.9,0.9-4.3,1.3c-2.8,0.9-5.8,1.8-8.7,2.8C16.2,26.3,14.7,26.8,13.3,27.4c-0.1,0-0.2,0-0.3,0.1
	C13.1,27.5,13.2,27.4,13.3,27.4z"/>
<path class="st11" d="M36,21c0.1,0.1,0.1,0.3,0.2,0.4c2.1-0.6,4.1-1.2,6-1.8c4.5-1.4,8.2-2.7,10.8-3.7c-2.7,0.6-6.5,1.5-11,2.7
	c-2,0.5-4.1,1.1-6.3,1.7c0,0.1,0.1,0.1,0.1,0.2C35.8,20.6,35.9,20.8,36,21z"/>
<path class="st11" d="M36.8,30.8c-0.1-0.3-0.2-0.6-0.3-0.9c0-0.1,0-0.1-0.1-0.2c-0.9,0.1-1.8,0.1-2.8,0.2c0,0.5,0.1,1.1,0.1,1.6l0,0
	c1.1-0.1,2.1-0.2,3.1-0.3c0,0,0,0,0-0.1C36.9,31.1,36.9,31,36.8,30.8z"/>
<path class="st11" d="M55.9,15v0.1c0,0,0,0.1,0,0.2c0.2,0,0.3,0,0.5,0c0.3,0,0.5,0,0.7,0H57C56.6,15.1,56.3,15.1,55.9,15z"/>
<path class="st11" d="M43.9,35.3c0.4,0,0.8,0,1.2,0c1.2-0.1,2.3-0.3,3.4-0.4c-1.3,0.1-2.6,0.1-4,0.2c-0.5,0-1.1,0.1-1.7,0.1
	C43.2,35.3,43.6,35.3,43.9,35.3z"/>
<path class="st11" d="M12.5,32.3c0.4-0.1,0.9-0.1,1.4-0.2c0.5-0.1,1-0.2,1.6-0.3c0.1,0,0.3,0,0.4-0.1l0,0c-0.7,0.1-1.3,0.2-2,0.2
	c-0.8,0.1-1.6,0.2-2.4,0.4c-0.4,0.1-0.8,0.1-1.2,0.2c-0.2,0-0.4,0.1-0.6,0.1c-0.1,0-0.1,0-0.2,0.1c0.4-0.1,1-0.1,1.8-0.3
	C11.7,32.4,12.1,32.4,12.5,32.3z"/>
<path class="st11" d="M60.7,28.6c0,0-0.1,0-0.2-0.1l0,0l0,0l0,0l0,0L60.7,28.6C60.8,28.7,60.8,28.7,60.7,28.6z"/>
<path class="st11" d="M40.9,92.5C40.9,92.4,40.9,92.4,40.9,92.5s0,0.2-0.1,0.4C40.9,92.6,40.9,92.5,40.9,92.5z"/>
<path class="st11" d="M27.7,86.3L27.7,86.3L27.7,86.3L27.7,86.3z"/>
<path class="st11" d="M29.5,85.5C29.5,85.4,29.5,85.4,29.5,85.5c0,0,0,0.1-0.1,0.2C29.5,85.7,29.5,85.6,29.5,85.5z"/>
<path class="st11" d="M28,30.4c-2.8,0.3-5.6,0.5-8.5,0.9c-0.2,0-0.3,0.1-0.5,0.1c-0.6,0.1-1.3,0.2-1.9,0.3c-0.3,0-0.6,0.1-0.9,0.1
	c-0.1,0-0.3,0-0.4,0.1c-0.1,0-0.3,0-0.4,0.1c-0.5,0.1-1.1,0.2-1.6,0.2c-0.4,0.1-0.8,0.1-1.2,0.2s-0.8,0.1-1.2,0.1
	c-0.9,0.1-1.5,0.2-1.9,0.2l0,0l0,0l0,0c0.1,0,0.2,0,0.3,0c0,0,0,0,0.1,0c0.2,0,0.4,0,0.6,0c0.4,0,0.8,0,1.2,0c0.8,0,1.6,0,2.4,0
	c1.6,0,3.2-0.1,4.8-0.2c3.2-0.2,6.3-0.4,9.4-0.6c1.1-0.1,2.2-0.2,3.2-0.2c-0.1-0.6-0.1-1.1-0.2-1.7C30.2,30.3,29.1,30.3,28,30.4z"/>
<path class="st11" d="M28.7,86.3L28.7,86.3c0.1,0,0.1,0,0.2,0l0,0C28.8,86.3,28.7,86.3,28.7,86.3C28.6,86.3,28.7,86.3,28.7,86.3z"/>
<path class="st11" d="M29.4,85.8L29.4,85.8c0,0.1-0.1,0.2-0.2,0.2C29.3,86,29.4,85.9,29.4,85.8z"/>
<path class="st11" d="M29.1,86.2C29.1,86.2,29.2,86.1,29.1,86.2L29.1,86.2L29.1,86.2z"/>
<path class="st11" d="M38.5,93L38.5,93L38.5,93z"/>
<path class="st11" d="M33.7,29.7c0,0.1,0,0.1,0,0.2c0.9-0.1,1.8-0.1,2.7-0.2v-0.1c0-0.1,0-0.1-0.1-0.2l0,0l0,0l0,0l0,0v-0.1v-0.1
	c-0.2-0.5-0.4-1-0.7-1.5c-0.3,0.1-0.6,0.2-0.9,0.3c-0.3,0.1-0.7,0.2-1,0.3c0,0.2,0,0.3,0,0.5C33.7,29,33.7,29.3,33.7,29.7z"/>
<path class="st11" d="M37.6,24.8l0.2,0.5c0.1,0.2,0.2,0.5,0.2,0.7c0.3-0.1,0.7-0.2,1-0.4c0.4-0.1,0.7-0.3,1.1-0.4
	c0.4-0.1,0.7-0.3,1.1-0.4c0.7-0.3,1.4-0.6,2.1-0.9c0.3-0.2,0.7-0.3,1-0.4c0.3-0.2,0.7-0.3,1-0.5c0.2-0.1,0.3-0.2,0.5-0.2
	c0.2-0.1,0.3-0.2,0.5-0.2c0.3-0.2,0.6-0.3,0.9-0.5c0.3-0.2,0.6-0.3,0.9-0.5c0.1-0.1,0.3-0.2,0.4-0.2c0.1-0.1,0.3-0.2,0.4-0.2
	c0.3-0.2,0.6-0.3,0.8-0.5c0.3-0.2,0.5-0.3,0.8-0.5c0.7-0.4,1.3-0.8,1.8-1.1c-2.5,0.8-5.8,1.8-9.6,2.9c-1.8,0.5-3.8,1-5.8,1.6
	c0.1,0.2,0.2,0.5,0.3,0.7L37.6,24.8z"/>
<path class="st11" d="M34.9,60.6c0-0.1,0-0.3,0-0.4c-1.2,0.1-2.3,0.2-3.5,0.3c-1,0.1-1.9,0.2-2.9,0.3c0.3,0,0.7,0.1,1,0.1
	c0.6,0,1.3-0.1,1.9-0.1C32.6,60.8,33.8,60.7,34.9,60.6z"/>
<path class="st11" d="M35.4,44.4c0,0.1,0,0.1,0,0.2c0.7-0.1,1.5-0.1,2.2-0.2c2.3-0.3,4.5-0.5,6.5-0.8s3.9-0.6,5.5-0.9
	c1.6-0.3,3-0.6,4.1-0.9h0.1c-2.4-0.1-5.7,0-9.7,0.2c-2.1,0.1-4.3,0.3-6.6,0.5c-0.7,0.1-1.4,0.1-2.2,0.2
	C35.3,43.3,35.3,43.8,35.4,44.4z"/>
<path class="st11" d="M35.3,60.6c1.4-0.1,2.8-0.2,4.1-0.4c-0.6-0.1-1.2-0.1-1.9-0.2c-0.7,0-1.5,0.1-2.2,0.2
	C35.3,60.4,35.3,60.5,35.3,60.6z"/>
<path class="st11" d="M52,52.4c-0.1-0.1-0.3-0.1-0.6-0.2c-0.5-0.1-1.3-0.3-2.2-0.4c-1.9-0.3-4.7-0.5-8-0.8c-1.8-0.1-3.7-0.3-5.8-0.4
	c0,0.4,0,0.7,0,1.1c0,0.2,0,0.4,0,0.6c2,0.1,3.9,0.2,5.7,0.2c3.3,0.1,6.1,0.1,8,0.1c1,0,1.7-0.1,2.2-0.1c0.2,0,0.4-0.1,0.5-0.1
	C52,52.4,52,52.4,52,52.4C51.9,52.4,51.9,52.4,52,52.4C51.9,52.4,51.9,52.4,52,52.4L52,52.4L52,52.4h0.2l0,0
	C52.1,52.5,52.1,52.5,52,52.4z"/>
<path class="st11" d="M49.9,62L49.9,62c-0.1-0.1-0.2-0.1-0.2-0.1c-0.2,0-0.4,0.1-0.7,0.1c-0.1,0-0.2,0-0.3,0c0.2,0,0.4,0,0.5-0.1
	c0.2,0,0.4-0.1,0.4-0.1l0,0l0,0l0,0l0,0l0,0l0,0L49.9,62C49.9,62.1,49.9,62.1,49.9,62C49.9,62.1,49.9,62,49.9,62z"/>
<path class="st11" d="M57.5,42.4L57.5,42.4c-0.2-0.2-0.5-0.3-0.8-0.4c-0.4-0.1-0.8-0.2-1.4-0.2l0,0c-0.1,0.2-0.1,0.3-0.1,0.5
	c0,0,0,0,0,0.1L57.5,42.4C57.5,42.5,57.5,42.5,57.5,42.4C57.5,42.5,57.5,42.5,57.5,42.4z"/>
<path class="st11" d="M40.9,60.1c0.1,0,0.2,0,0.3,0c-0.3-0.1-0.7-0.1-1-0.2c-0.6,0-1.2,0.1-1.9,0.1c0.6,0.1,1.1,0.1,1.7,0.2
	C40.2,60.2,40.5,60.1,40.9,60.1z"/>
<path class="st11" d="M27.3,61.1c-0.1,0-0.2,0-0.2,0c-0.2,0-0.3,0-0.5,0.1C26.9,61.1,27.1,61.1,27.3,61.1z"/>
<path class="st11" d="M33.6,27.5c0.3-0.1,0.6-0.2,0.9-0.3c0.3-0.1,0.6-0.2,0.8-0.3c-0.2-0.5-0.4-1-0.7-1.5c-0.2-0.4-0.3-0.7-0.5-1.1
	c-0.2,0-0.3,0.1-0.5,0.1c0,0.4,0,0.8,0,1.2C33.6,26.3,33.6,26.9,33.6,27.5z"/>
<path class="st11" d="M31.3,59.6c0.1,0,0.1,0,0.2,0C31.4,59.6,31.3,59.6,31.3,59.6c-1.9-0.2-3.7-0.3-5.5-0.3c-0.9,0-1.9,0-2.8,0
	c-0.5,0-0.9,0-1.4,0c-0.2,0-0.5,0-0.7,0.1c-0.1,0-0.2,0-0.3,0.1c-0.1,0-0.1,0-0.1,0l0,0l0,0c0,0,0.1,0,0.1,0.1
	c0.1,0,0.2,0.1,0.3,0.1c0.2,0.1,0.4,0.1,0.7,0.2c0.5,0.1,0.9,0.2,1.4,0.3c0.1,0,0.3,0,0.4,0.1c0.9-0.1,1.7-0.2,2.6-0.2
	C27.8,59.7,29.6,59.6,31.3,59.6z"/>
<path class="st11" d="M37.2,59.4c-0.6-0.1-1.2-0.2-1.8-0.3c0,0.1,0,0.3,0,0.4C36,59.4,36.6,59.4,37.2,59.4z"/>
<path class="st11" d="M15.3,46.4L15.3,46.4L15.3,46.4L15.3,46.4L15.3,46.4L15.3,46.4L15.3,46.4z"/>
<polyline class="st11" points="612.5,0.3 0.6,0.3 0.6,99.9 "/>
<path class="st11" d="M29.8,71L29.8,71c0,0.2,0,0.4,0,0.5c0,0.3,0,0.6,0,0.8c0,0.5,0,1.1,0,1.6c0,1.1-0.1,2.1-0.1,3.1
	c0,0.5,0,1,0,1.4c0,0.5,0,0.9,0,1.3c0,0.8,0,1.6,0,2.3c0,0.7,0,1.3,0,1.8c0,1,0,1.5,0,1.5l0,0l0,0c0,0,0,0,0,0.1s0,0.1-0.1,0.2l0,0
	l0,0c0,0.1-0.1,0.2-0.2,0.2c0,0,0,0-0.1,0.1c0,0,0,0.1-0.1,0.1c0,0-0.1,0-0.1,0.1H29c0,0,0,0-0.1,0h-0.1h-0.1c-0.1,0-0.1,0-0.2,0
	s-0.3,0-0.4,0s-0.3,0-0.4,0s-0.3-0.1-0.4-0.2s-0.1-0.1-0.2-0.2c0-0.1-0.1-0.1-0.1-0.2s0-0.2-0.1-0.3c0-0.1,0-0.2,0-0.3
	c0-0.2,0-0.4,0-0.6c0-0.4,0-0.8,0-1.2s0-0.9,0-1.3c0-0.5,0-0.9,0-1.4c0-1-0.1-2-0.1-3.1c0-0.5,0-1.1,0-1.6s0-1.1,0-1.7s0-1.1,0-1.7
	c0-0.3,0-0.6,0-0.8c0-0.3,0-0.6,0-0.9v-0.1l0,0l0,0c0-0.1,0-0.1,0-0.2v-0.1c0,0,0-0.1,0.1-0.1c0.1-0.2,0.2-0.3,0.4-0.4
	c0.2-0.1,0.3-0.2,0.5-0.2h0.1H28h0h0.2c0.1,0,0.3,0,0.4,0h0.1l0,0l0,0l0,0c0,0,0,0,0.1,0H29c0.1,0,0.1,0,0.1,0h0.1
	c0.4,0.1,0.6,0.5,0.7,0.8c0,0.1,0,0.2,0,0.3L29.8,71L29.8,71z"/>
<path class="st11" d="M35.9,72c0,0.7,0,1.4-0.1,2.1c0,0.7,0,1.3-0.1,2c-0.1,1.3-0.1,2.6-0.2,3.8c0,0.6-0.1,1.2-0.1,1.8
	c0,0.6,0,1.1-0.1,1.6c0,1.1-0.1,2-0.1,2.9c0,0.4,0,0.8,0,1.2s0,0.7,0,1c0,1.2,0,1.9,0,1.9l0,0c0,0,0,0,0,0.1s0,0.2-0.1,0.4
	s-0.2,0.4-0.3,0.5s-0.2,0.2-0.4,0.2c-0.1,0-0.1,0-0.2,0c-0.1,0-0.1,0-0.2,0c-0.2,0-0.3,0-0.5,0c0,0,0,0-0.1,0c0,0,0,0-0.1,0
	c0,0,0,0-0.1,0c0,0,0,0-0.1,0s-0.2-0.1-0.2-0.2c-0.1-0.1-0.3-0.3-0.3-0.5c0-0.1-0.1-0.2-0.1-0.3c0-0.1,0-0.2,0-0.3
	c0-0.9,0-1.8-0.1-2.9c0-0.5,0-1.1-0.1-1.6c0-0.6,0-1.2-0.1-1.8c-0.1-1.2-0.1-2.5-0.2-3.8c0-0.7,0-1.3-0.1-2c0-0.7,0-1.4-0.1-2.1
	c0-0.3,0-0.7,0-1s0-0.7,0-1c0-0.7,0-1.4,0-2.1v-0.1l0,0l0,0c0-0.1,0-0.1,0-0.2s0.1-0.2,0.1-0.4c0.1-0.2,0.2-0.5,0.4-0.7
	s0.5-0.4,0.8-0.4h0.1h0.1l0,0h0.1h0.3H34h0.1l0,0l0,0c0,0,0,0,0.1,0h0.1h0.1c0.1,0,0.1,0.1,0.2,0.1c0.1,0,0.1,0.1,0.2,0.1
	c0.1,0.1,0.2,0.2,0.3,0.3c0.2,0.2,0.3,0.5,0.3,0.7c0,0.1,0,0.1,0,0.2s0,0.1,0,0.2s0,0.1,0,0.2L35.9,72z"/>
<path class="st11" d="M41.2,72.1v0.3c0,0.8,0,1.5,0,2.2s0,1.5,0,2.2c0,1.4-0.1,2.8-0.1,4.1c0,0.7,0,1.3,0,1.9s0,1.2,0,1.8
	c0,1.1,0,2.2,0,3.1s0,1.7,0,2.4c0,1.3,0,2.1,0,2.1s0,0,0,0.1s0,0.2-0.1,0.3l0,0l0,0c0,0.1-0.1,0.2-0.2,0.3L40.7,93l-0.1,0.1
	l-0.1,0.1l0,0c-0.1,0-0.1,0.1-0.2,0.1h-0.1l0,0l0,0c0,0,0,0-0.1,0s-0.2,0-0.2,0s-0.2,0-0.3,0s-0.2,0-0.3,0s-0.2-0.1-0.3-0.1
	c-0.1-0.1-0.2-0.1-0.2-0.2c-0.1-0.2-0.2-0.4-0.3-0.6c0-0.1,0-0.2,0-0.3c0-0.1,0-0.2,0-0.3c0-0.9,0-2,0-3.1c0-0.6,0-1.2,0-1.8
	s0-1.3,0-1.9c0-1.3-0.1-2.7-0.1-4.1c0-0.7,0-1.4,0-2.2c0-0.7,0-1.5,0-2.2c0-0.4,0-0.8,0-1.1c0-0.4,0-0.8,0-1.1c0-0.4,0-0.8,0-1.1
	c0-0.4,0-0.8,0-1.2v-0.1c0-0.1,0-0.1,0-0.2s0-0.2,0.1-0.3c0.1-0.2,0.2-0.4,0.4-0.6l0.1-0.1c0.1,0,0.1-0.1,0.2-0.1
	c0.1,0,0.1-0.1,0.2-0.1c0.1,0,0.1,0,0.2,0h0.1l0,0l0,0h0.1h0.1h0.3h0.1l0,0c0,0,0.1,0,0,0l0,0c0,0,0,0,0.1,0h0.1l0,0l0,0l0,0
	c0.1,0,0.1,0.1,0.2,0.1c0.2,0.1,0.4,0.3,0.5,0.5s0.2,0.4,0.2,0.7c0,0.1,0,0.1,0,0.2L41.2,72.1L41.2,72.1L41.2,72.1z"/>
<path class="st11" d="M47.1,71.2L47.1,71.2v0.3c0,0.2,0,0.3,0,0.5c0,0.3,0,0.6,0,0.9c0,0.6,0,1.2-0.1,1.8c-0.1,1.2-0.1,2.3-0.2,3.4
	c0,0.5-0.1,1.1-0.1,1.6s0,1-0.1,1.5c0,1-0.1,1.8-0.1,2.6c0,0.8,0,1.4,0,2s0,1,0,1.3s0,0.5,0,0.5l0,0c0,0,0,0,0,0.1s0,0.2-0.1,0.3
	c-0.1,0.1-0.2,0.3-0.3,0.5c-0.1,0.1-0.2,0.1-0.3,0.2c-0.1,0-0.1,0-0.2,0c-0.1,0-0.1,0-0.2,0c-0.1,0-0.3,0-0.4,0h-0.1h-0.1
	c-0.1,0-0.2,0-0.3-0.1c-0.3-0.2-0.6-0.5-0.6-0.9c0-0.1,0-0.2,0-0.3s0-0.2,0-0.3c0-0.2,0-0.4,0-0.6c0-0.4,0-0.9,0-1.4s0-1-0.1-1.5
	c0-0.5,0-1-0.1-1.6c-0.1-1.1-0.1-2.2-0.2-3.4c0-0.6,0-1.2-0.1-1.8c0-0.6,0-1.2-0.1-1.9c0-1.2,0-2.5,0-3.8c0-0.5,0.2-1,0.6-1.3
	c0.1-0.1,0.2-0.2,0.3-0.2c0.1-0.1,0.3-0.1,0.4-0.1c0.1,0,0.1,0,0.2,0l0,0l0,0h0.1h0.2h0.2h0.1l0,0c0,0,0.1,0,0,0l0,0h0.1h0.1h0.1
	c0,0,0,0,0.1,0s0.1,0,0.2,0.1c0.1,0.1,0.2,0.1,0.3,0.2c0.2,0.2,0.3,0.4,0.5,0.6c0.1,0.2,0.2,0.5,0.2,0.7L47.1,71.2L47.1,71.2z"/>
<path class="st11" d="M50.4,64.3L50.4,64.3L50.4,64.3c0,0.1,0,0.1,0,0.2c0,0,0,0,0,0.1l0,0v0.1c-0.1,0.1-0.1,0.3-0.2,0.4
	c-0.1,0.1-0.2,0.2-0.3,0.3c-0.2,0.2-0.5,0.3-0.8,0.5c-0.3,0.1-0.7,0.3-1.1,0.4c-0.8,0.2-1.7,0.5-2.8,0.7s-2.3,0.4-3.7,0.6
	s-2.8,0.3-4.4,0.4c-1.6,0.1-3.2,0.2-4.9,0.2s-3.5,0-5.2-0.1c-0.9-0.1-1.8-0.1-2.7-0.3c-0.5-0.1-0.9-0.2-1.4-0.3
	c-0.2-0.1-0.5-0.2-0.7-0.3c-0.1-0.1-0.2-0.1-0.4-0.3c-0.1-0.1-0.1-0.1-0.2-0.2s-0.1-0.2-0.1-0.3s0,0,0-0.1l0,0l0,0c0,0,0,0,0-0.1
	v-0.1V66c0-0.1,0.1-0.2,0.1-0.2c0.1-0.1,0.2-0.2,0.3-0.3c0.2-0.2,0.4-0.3,0.7-0.4c0.4-0.2,0.9-0.3,1.3-0.5c0.9-0.3,1.8-0.5,2.6-0.6
	c1.8-0.3,3.5-0.6,5.2-0.8c1.7-0.2,3.3-0.3,4.9-0.4c1.5-0.1,3-0.1,4.4-0.1c2.7,0,5,0.1,6.5,0.4c0.8,0.1,1.4,0.3,1.8,0.5
	c0.1,0.1,0.2,0.1,0.2,0.2c0.1,0.1,0.1,0.1,0.1,0.2c0.1,0.1,0,0.2,0,0.2L50.4,64.3C50.4,64.2,50.4,64.2,50.4,64.3z"/>
<rect x="68.2" y="51.4" class="st11" width="15.1" height="0.5"/>
<path class="st11" d="M8,28.5c0-0.1,0-0.2,0.1-0.2c0.1-0.1,0.1-0.2,0.2-0.2c0.1-0.1,0.2-0.2,0.2-0.2c0.1-0.1,0.2-0.2,0.3-0.2
	c0.2-0.1,0.4-0.2,0.6-0.3c0.4-0.2,0.8-0.3,1.1-0.5c0.8-0.3,1.5-0.6,2.3-0.8c1.5-0.5,3-1,4.5-1.4c3-0.9,5.9-1.8,8.8-2.5
	c1.6-0.4,3.2-0.9,4.7-1.3c0-0.1,0-0.3,0.1-0.5s0.1-0.5,0.3-0.8c0.1-0.2,0.2-0.3,0.4-0.6c0.1-0.1,0.1-0.1,0.2-0.2s0.1-0.1,0.2-0.2
	c0.1-0.1,0.2-0.1,0.3-0.1s0.2-0.1,0.3-0.1s0.2,0,0.3-0.1c0.1,0,0.2,0,0.3,0s0.1,0,0.2,0c0.1,0,0.1,0,0.1,0c0.1,0,0.2,0,0.2,0.1h0.1
	h0.1l0,0c0.1,0,0.1,0.1,0.2,0.1c0.1,0.1,0.2,0.1,0.3,0.2c0.3,0.2,0.5,0.4,0.6,0.6c0.1,0.1,0.1,0.2,0.2,0.2c2.3-0.6,4.6-1.1,6.6-1.6
	c4.6-1.1,8.5-1.9,11.2-2.4c0.2,0,0.3-0.1,0.5-0.1c0.4-0.2,0.8-0.3,1.1-0.4c0.2-0.1,0.4-0.2,0.6-0.3c-0.6-0.1-1.4-0.2-2.2-0.2
	c-0.9,0-1.9-0.1-3,0c-2.2,0-4.8,0.2-7.6,0.5s-5.7,0.7-8.6,1.1c-3,0.5-6.1,1-8.9,1.5c-2.2,0.7-4.5,1.4-6.9,2
	c-1.2,0.3-2.4,0.7-3.7,0.9c-0.6,0.1-1.2,0.3-1.9,0.4c-0.3,0.1-0.7,0.1-1,0.2c-0.2,0-0.4,0-0.6,0c-0.1,0-0.2,0-0.4,0
	c-0.1,0-0.2,0-0.4-0.1c0,0-0.1,0-0.1-0.1c-0.1,0-0.1-0.1-0.2-0.1c-0.1,0-0.2-0.1-0.2-0.2c-0.1-0.1-0.2-0.2-0.2-0.4
	c-0.1-0.2,0-0.1-0.1-0.4c0-0.2,0-0.3,0.1-0.3c0-0.1,0.1-0.2,0.1-0.2c0-0.1,0.1-0.1,0.1-0.1c0.1-0.1,0.2-0.2,0.2-0.3
	c0.1-0.1,0.2-0.2,0.3-0.3c0.2-0.1,0.3-0.2,0.5-0.3c0.3-0.2,0.6-0.3,0.9-0.5c0.6-0.3,1.2-0.5,1.8-0.8c1.2-0.5,2.3-1,3.5-1.4
	c2.3-0.9,4.6-1.7,6.8-2.5c3.4-1.2,6.6-2.2,9.5-3.1c-1.6,0.2-3.2,0.4-4.9,0.6c-1.9,0.2-3.9,0.5-6,0.6c-1,0.1-2,0.2-3.1,0.2
	c-0.5,0-1,0-1.6,0.1c-0.3,0-0.5,0-0.8,0c-0.1,0-0.3,0-0.4,0s-0.1,0-0.2,0h-0.1l0,0l0,0l0,0c0,0,0,0,0-0.1s0,0,0-0.1v-0.1l0,0l0,0
	l0.1-0.1c0.1,0,0.1-0.1,0.2-0.1c0.1-0.1,0.2-0.1,0.4-0.1c0.3-0.1,0.5-0.2,0.8-0.2c0.5-0.1,1-0.3,1.5-0.4c1-0.2,2-0.4,3-0.6
	c2-0.4,4-0.7,5.9-1c2.8-0.4,5.5-0.8,8-1.1c-1.7,0.1-3.6,0.2-5.6,0.3C28.7,8,27.2,8,25.8,8c-0.7,0-1.5,0-2.2,0c-0.4,0-0.8,0-1.1,0
	c-0.2,0-0.4,0-0.6,0c-0.1,0-0.2,0-0.3,0c-0.1,0-0.1,0-0.2,0c0,0,0,0-0.1,0h-0.1c0,0,0,0-0.1,0c0,0-0.1,0-0.1-0.1
	c0,0-0.1-0.1-0.2-0.2c0,0-0.2-0.3-0.2-0.5c0-0.1,0-0.2,0-0.2l0,0c0,0,0,0,0-0.1s0.2-0.3,0.2-0.3l0.1-0.1c0,0,0,0,0.1,0h0.1
	c0,0,0,0,0.1,0s0.1,0,0.2-0.1c0-0.1,0.1-0.1,0.2-0.2c0.2,0,0.4-0.1,0.6-0.1C22.7,6,23.1,6,23.4,6c0.7-0.1,1.5-0.2,2.2-0.2
	c1.5-0.1,2.9-0.2,4.3-0.3c2-0.1,4-0.2,5.7-0.3C36.3,5.1,36.9,5,37.5,5c2.2-0.3,4-0.6,5.3-0.8c0.6-0.1,1.1-0.2,1.4-0.3
	c0.1,0,0.1,0,0.1,0l0,0l0,0l0,0l0,0l0,0l0,0l0,0c0,0-0.1,0-0.1,0.1l0,0l0,0c0,0-0.1,0-0.1,0.1l0,0l0,0l0,0c0,0,0,0.1-0.1,0.1
	c-0.1,0.1-0.2,0.2-0.2,0.3c-0.2,0.1-0.2,0.2-0.2,0.3l0,0L44.5,5h0.1c0.2,0,0.3,0,0.4,0.1h0.1l0,0l0.8,0.2L46,5.2V5.1
	c0.1-0.1,0.1-0.1,0.1,0c0,0,0,0-0.1,0l0,0c0,0-0.1,0.1-0.1,0.2l0.6,0.1l0,0l0,0c0,0.1-0.1,0.2-0.1,0.3c-0.1,0.1-0.1,0.2-0.2,0.3
	c0,0,0,0.1-0.1,0.1l0,0l0,0l0,0L46,6.2c0,0,0,0-0.1,0c0,0,0,0-0.1,0l-0.1,0.1c0,0,0,0-0.1,0c0,0,0,0-0.1,0c0,0,0,0-0.1,0l0,0l0,0
	l0,0c0.1,0,0.2,0,0.2,0c0.1,0,0.1,0,0.2,0c0.4-0.1,0.7-0.1,1-0.2c0.3,0,0.5,0,0.7,0c0.1,0,0.1,0,0.2,0.1l0,0L50,5.6l0,0l0,0v0.1
	c0,0.1,0,0.1,0,0.2s0,0.1,0,0.2v0.1c0,0,0,0,0,0.1l0,0c0,0.1,0,0.2,0,0.3c0,0,0,0,0,0.1c0,0,0,0,0,0.1v0.1V7c0,0,0,0,0,0.1l0,0
	c0,0.1-0.1,0.1-0.1,0.2s-0.1,0.1-0.1,0.2v0.1c0,0,0,0,0,0.1c-0.1,0.2-0.2,0.3-0.3,0.4c-0.2,0.2-0.4,0.3-0.5,0.4
	c-0.2,0.1-0.3,0.2-0.5,0.3c-0.3,0.2-0.7,0.4-1.1,0.6C47,9.6,46.5,9.8,46,10c-1,0.5-2.3,1-3.8,1.5c-1.4,0.6-3.1,1.2-4.9,1.8
	c-2.2,0.8-4.7,1.6-7.3,2.5c1.2-0.2,2.5-0.3,3.7-0.5c2.9-0.4,5.9-0.7,8.7-0.9s5.4-0.3,7.6-0.3c1.1,0,2.1,0,3,0.1s1.7,0.2,2.3,0.3
	c0.2-0.1,0.3-0.1,0.4-0.2c0.1-0.1,0.3-0.1,0.3-0.2c0,0,0.1,0,0.1-0.1l0,0c0,0,0,0-0.1,0.1c0,0.1-0.1,0.2-0.2,0.3c0,0,0,0.1-0.1,0.1
	l0,0c0.4,0.1,0.7,0.2,1,0.3c0.1,0,0.1,0,0.1,0H57c0.1,0,0.2,0,0.2,0.1V15l1.5-0.2l0,0c0,0.1,0,0.2,0,0.3s0,0.2,0,0.3s0,0.1-0.1,0.2
	c0,0.1,0,0.1-0.1,0.2c-0.1,0.2-0.2,0.4-0.3,0.5c-0.1,0.1-0.2,0.2-0.3,0.2c-0.1,0.1-0.2,0.1-0.2,0.2c-0.1,0.1-0.2,0.1-0.2,0.1
	c-0.2,0.1-0.3,0.2-0.5,0.3c-0.2,0.1-0.4,0.2-0.6,0.2c-0.1,0.1-0.2,0.2-0.3,0.3c-0.6,0.4-1.3,1-2.1,1.5c-0.8,0.6-1.8,1.1-2.9,1.7
	c-0.3,0.1-0.5,0.3-0.8,0.5s-0.6,0.3-0.9,0.5C49.3,21.9,49.1,22,49,22c-0.1,0.1-0.3,0.1-0.5,0.2c-0.3,0.1-0.6,0.3-0.9,0.5
	c-0.3,0.1-0.6,0.3-1,0.4c-0.2,0.1-0.3,0.2-0.5,0.2c-0.2,0.1-0.3,0.1-0.5,0.2c-0.3,0.1-0.7,0.3-1,0.4s-0.7,0.3-1.1,0.4
	c-0.7,0.3-1.4,0.6-2.2,0.8c-0.4,0.1-0.7,0.3-1.1,0.4c-0.4,0.1-0.8,0.3-1.1,0.4c-0.4,0.1-0.7,0.2-1.1,0.4c0.2,0.5,0.3,1,0.4,1.5v0.1
	V28l0,0l0,0c0,0,0,0.1,0,0l0,0c0,0.1,0,0.2,0.1,0.3c0,0.2,0.1,0.4,0.1,0.5c0,0,0,0,0,0.1c2-0.1,3.9-0.3,5.7-0.4
	c4.9-0.3,8.9-0.5,11.8-0.5c1.4,0,2.5,0,3.3,0c0.4,0,0.7,0,0.8,0.1h0.1l0,0l0,0c0.1,0,0.2,0,0.2,0.1v0.1h0.3l0,0c0,0,0,0,0,0.1l0,0
	l0,0l0,0l0,0c0,0,0,0-0.1,0.1s-0.2,0.1-0.3,0.1c-0.2,0.1-0.5,0.1-0.9,0.2c-0.8,0.2-1.9,0.3-3.3,0.5c-2.8,0.4-6.9,0.8-11.7,1.3
	c-1.8,0.2-3.7,0.3-5.6,0.5c0,0.3,0,0.6,0,0.9c0,0.7,0,1.3-0.1,2c1.9,0,3.7-0.1,5.4-0.1c3,0,5.7,0,8,0c1.2-0.2,2.2-0.3,3.1-0.5
	c0.7-0.1,1.2-0.2,1.7-0.3s0.9-0.2,1.2-0.3c0.1,0,0.2-0.1,0.3-0.1l0,0h0.1l0,0l0,0c0,0-0.1,0.1-0.2,0.1c-0.1,0.1-0.3,0.2-0.5,0.5
	c0,0,0,0.1-0.1,0.1l0,0c0,0,0,0,0,0.1s-0.1,0.2-0.1,0.2s0,0,0,0.1l0,0c0,0,0,0,0,0.1s0,0.1-0.1,0.2c0.5,0,0.9,0.1,1.3,0.1
	c0.4,0.1,0.6,0.1,0.8,0.2c0.1,0,0.2,0.1,0.2,0.1v0.1l2.3,0.1l0,0c0,0.1,0,0.3-0.1,0.4c0,0.1,0,0.1-0.1,0.2c0,0,0,0,0,0.1
	c0,0,0,0,0,0.1c0,0,0,0,0,0.1s-0.1,0.2-0.1,0.3l0,0l0,0c0,0,0,0,0,0.1c0,0,0,0.1-0.1,0.1c-0.2,0.3-0.4,0.5-0.6,0.6
	c-0.2,0.1-0.3,0.2-0.4,0.3c-0.1,0.1-0.2,0.1-0.3,0.1s-0.2,0.1-0.3,0.1c-0.2,0.1-0.4,0.1-0.6,0.2c-0.4,0.1-0.9,0.2-1.5,0.3
	s-1.2,0.2-1.9,0.3c-1.4,0.2-3.1,0.3-5,0.5s-4.1,0.3-6.4,0.4c-3,0.2-6.3,0.3-9.8,0.4c0,0.3,0.1,0.6,0.1,1c0,0.3,0,0.5,0.1,0.8
	c0.7,0,1.5-0.1,2.2-0.1c2.4-0.1,4.6-0.2,6.7-0.2c4.1,0,7.6,0.1,10,0.3c0.1,0,0.2,0,0.3,0c0.3-0.1,0.5-0.2,0.8-0.2
	c0.4-0.1,0.7-0.2,0.8-0.3l0,0c0,0,0,0,0.1,0l0,0l0,0l0,0l0,0c0,0-0.1,0.1-0.2,0.2c0,0-0.1,0.1-0.1,0.2c0,0,0,0.1-0.1,0.1
	c0,0,0,0.1-0.1,0.1c0,0,0,0.1-0.1,0.1l0,0c0.5,0.1,1,0.2,1.4,0.3c0.3,0.1,0.5,0.2,0.7,0.3c0.1,0.1,0.1,0.1,0.1,0.2l0,0l0,0l2.3,0.1
	c0,0,0,0.1,0,0.2c0,0.2-0.1,0.3-0.1,0.5c0,0,0,0.1-0.1,0.1l0,0l0,0l0,0c0,0,0,0.1-0.1,0.2c0,0.1-0.1,0.1-0.1,0.2l0,0l0,0
	c0,0,0,0,0,0.1c-0.1,0.1-0.1,0.2-0.2,0.3c-0.3,0.3-0.5,0.5-0.7,0.6s-0.4,0.2-0.7,0.3c-0.4,0.2-0.9,0.3-1.4,0.5
	c-0.5,0.1-1.1,0.3-1.7,0.4c-1.2,0.3-2.7,0.5-4.4,0.7s-3.6,0.4-5.7,0.6c-2.1,0.2-4.3,0.4-6.7,0.5c-0.8,0-1.6,0.1-2.4,0.1l0,0
	c0,0.6,0,1.2,0,1.8c0,0.2,0,0.4,0,0.6c2.1,0.1,4,0.3,5.8,0.4c3.3,0.3,6,0.6,8,0.9c1,0.1,1.7,0.3,2.2,0.4c0.3,0.1,0.4,0.1,0.6,0.2
	c0.1,0,0.1,0.1,0.1,0.1l0,0h0.3l0,0c0,0,0,0,0,0.1c0,0,0,0,0,0.1l0,0l0,0c-0.1,0.1-0.2,0.1-0.2,0.1c-0.2,0.1-0.4,0.1-0.6,0.1
	c-0.5,0.1-1.3,0.1-2.3,0.1c-1.9,0-4.7,0-8-0.1c-1.7-0.1-3.7-0.2-5.7-0.3c0,0.3,0,0.6,0,0.9c0,0.4,0,0.7,0,1.1c1.8,0.4,3.4,0.7,5,1
	c0.5,0.1,1,0.2,1.4,0.3c0.9,0.1,1.8,0.2,2.6,0.2c1.2,0.1,2.3,0.1,3.1,0.2c0.4,0,0.8,0,1.1,0c0.2,0,0.3,0,0.4,0c0.1,0,0.2,0,0.3,0
	l0,0c0.1,0,0.1,0,0.1,0l0,0l0,0l0,0l0,0l0,0h-0.1l0,0c0,0,0,0-0.1,0h-0.1l0,0c0,0,0,0-0.1,0s-0.1,0.1-0.2,0.1l-0.1,0.1
	c0,0,0,0-0.1,0.1s-0.1,0.1-0.2,0.2c-0.2,0.2-0.3,0.4-0.4,0.6c0.7,0.2,1.2,0.4,1.5,0.5c0.2,0.1,0.4,0.2,0.5,0.2l0.1,0.1l0,0l0,0l0,0
	l2.2,0.8l0,0l0,0c-0.1,0.2-0.2,0.5-0.4,0.7c-0.6,1.2-0.8,1.3-0.8,1.3s0,0,0,0.1s-0.1,0.2-0.1,0.3s-0.1,0.2-0.1,0.3
	c0,0,0,0.1-0.1,0.1l-0.1,0.1c0,0,0,0-0.1,0.1l0,0c0,0-0.1,0.1-0.2,0.1l-0.1,0.1c-0.2,0.1-0.3,0.2-0.4,0.2c-0.1,0-0.3,0.1-0.4,0.1
	c-0.1,0-0.1,0-0.2,0c0,0,0.1,0,0.1,0.1l0.1,0.1l0,0l0,0l0.3,0.1l0,0l0,0v0.1l0,0l0,0c0,0,0,0-0.1,0c0,0,0,0-0.1,0c0,0,0,0-0.1,0
	c-0.2,0.1-0.3,0.1-0.6,0.1c-0.5,0.1-1.1,0.1-1.9,0.1c-1,0-2.2,0-3.6-0.1c-0.9,0.1-1.8,0.1-2.8,0.2c-2.8,0.1-6.1,0.2-9.6,0.3
	c-1.8,0-3.6,0-5.4-0.1c-0.9,0-1.9-0.1-2.8-0.1c-0.5,0-0.9-0.1-1.4-0.1c-0.2,0-0.5-0.1-0.7-0.1c-0.1,0-0.3-0.1-0.4-0.1h-0.1h-0.1
	c0,0,0,0-0.1,0h-0.1c0,0-0.1,0-0.1-0.1l-0.1-0.1l-0.1-0.1L20,62c0-0.1-0.1-0.1-0.1-0.2c0-0.1,0-0.2-0.1-0.3c0-0.3,0-0.1,0-0.2
	c0,0,0-0.2,0.1-0.2C20,61,20,60.9,20,60.9l0.1-0.1l0.1-0.1c0,0,0.1,0,0.1-0.1h0.1c0,0,0,0,0.1,0h0.1h0.1c0.2-0.1,0.3-0.1,0.4-0.1
	c0.3-0.1,0.5-0.1,0.7-0.2c0.2,0,0.4-0.1,0.6-0.1c-0.3-0.1-0.6-0.1-0.9-0.2c-0.2-0.1-0.5-0.1-0.7-0.2c-0.1,0-0.2-0.1-0.3-0.1
	c-0.1,0-0.1-0.1-0.2-0.1l0,0l0,0l0,0l0,0c0,0,0,0,0-0.1c0,0,0,0,0-0.1s0,0,0,0s0,0,0-0.1l0,0l0,0c0,0,0,0,0.1,0h0.1
	c0.1,0,0.1,0,0.2-0.1c0.1,0,0.2,0,0.4-0.1c0.2,0,0.5,0,0.7-0.1c0.5,0,0.9,0,1.4,0c0.9,0,1.9,0,2.8,0.1c1.8,0.1,3.7,0.2,5.4,0.3
	c0.6,0,1.1,0.1,1.7,0.1c0.7,0,1.3,0,2-0.1c0-0.1,0-0.2,0-0.3s0-0.1,0-0.2c-1.7-0.3-3.4-0.7-5.3-1.1C27.9,57.4,26,57,24,56.5
	c-1-0.2-2-0.5-3-0.8c-0.5-0.1-1-0.3-1.5-0.5c-0.3-0.1-0.5-0.2-0.8-0.3c-0.1-0.1-0.3-0.1-0.5-0.2c0,0-0.1,0-0.1-0.1l0,0l0,0L18,54.5
	l-0.1-0.1c0,0,0,0-0.1-0.1l-0.1-0.1l-0.1-0.1c0-0.1-0.1-0.1-0.1-0.2c0-0.1-0.1-0.2-0.1-0.3s0-0.3,0-0.5c0.1-0.5,0-0.1,0.1-0.2
	c0-0.1,0.1-0.3,0.2-0.4c0.1-0.2,0.1-0.1,0.2-0.2l0.1-0.1h0.1h0.1h0.1h0.1l0,0l0,0c0.1,0,0.1,0,0.2,0c0.2,0,0.3,0,0.5,0
	c0.3,0,0.6,0,0.8,0c0.5,0,1,0.1,1.6,0.1c1,0.1,2,0.2,3,0.4c2,0.3,3.9,0.6,5.8,0.9c1.5,0.3,2.9,0.5,4.3,0.8c0-0.3,0-0.6-0.1-0.9
	l-0.1-0.9c-1.5-0.1-3-0.2-4.6-0.3c-2.1-0.2-4.2-0.3-6.4-0.6c-1.1-0.1-2.2-0.2-3.3-0.4c-0.4,0-0.9,0-1.5-0.1
	c-0.3-0.1-0.5-0.1-0.8-0.2c-0.1,0-0.3-0.1-0.4-0.1s-0.1,0-0.2-0.1c0,0-0.1,0-0.1-0.1c0,0,0,0-0.1-0.1c0,0,0,0,0-0.1c0,0,0,0,0-0.1
	c0,0,0,0,0-0.1c0,0,0,0,0-0.1c0,0,0,0,0.1-0.1c0,0,0.1,0,0.1-0.1c0.1,0,0.1,0,0.2-0.1c0.1,0,0.3,0,0.4-0.1c0.3,0,0.6-0.1,0.8-0.1
	c0.6,0,1.1,0,1.7-0.1c1.1,0,2.2,0,3.3,0c2.2,0,4.3,0.1,6.4,0.2c1.5,0.1,2.9,0.2,4.3,0.2c0-0.2,0-0.3,0-0.5c-0.1-0.6-0.1-1.2-0.2-1.8
	c0,0,0,0,0-0.1c-1.2,0.1-2.5,0.1-3.7,0.1c-2.6,0.1-5.3,0.1-8,0c-1.4,0-2.8-0.1-4.2-0.2c-0.7-0.1-1.4-0.1-2.1-0.3
	c-0.4-0.1-0.7-0.1-1.1-0.2h-0.2l-0.2,0.4l-0.2-0.1c-0.1,0-0.1-0.1-0.2-0.1l-0.1-0.1c0,0,0,0-0.1,0h-0.1c0,0-0.1,0-0.1-0.1l-0.1-0.1
	c0,0-0.1,0-0.1-0.1c0,0-0.1,0-0.1-0.1l-0.1-0.1l-0.1-0.1l-0.1-0.1c0-0.1-0.1-0.1-0.1-0.2c0-0.1,0-0.1-0.1-0.2c0-0.1,0-0.1,0-0.2
	c0-0.3,0-0.1,0-0.2c0,0,0,0,0-0.1s0-0.2,0.1-0.3c0-0.1,0.1-0.2,0.1-0.2s0-0.1,0.1-0.1c0,0,0-0.1,0.1-0.1c0,0,0-0.1,0.1-0.1
	c0,0,0-0.1,0.1-0.1l0.1-0.1l0.1-0.1h0.1l0,0l0.1-0.1c0.1,0,0.1-0.1,0.2-0.1l0.2-0.1l0.2-0.1l0.1-0.1c0.4-0.2,0.7-0.3,1.1-0.4
	c0.7-0.2,1.4-0.3,2.1-0.5c1.4-0.3,2.7-0.5,4.1-0.6c2.7-0.4,5.4-0.6,7.9-0.8c1.2-0.1,2.3-0.2,3.5-0.2c0-0.2-0.1-0.5-0.1-0.7
	c-0.1-0.4-0.1-0.7-0.2-1.1c-1.4,0-2.8,0.1-4.2,0.1c-2.9,0.1-6,0.1-9,0c-1.5,0-3.1-0.1-4.7-0.1c-0.8,0-1.6-0.1-2.4-0.2
	c-0.4,0-0.8-0.1-1.2-0.1c-0.2,0-0.4-0.1-0.7-0.1c-0.1,0-0.3-0.1-0.4-0.1c-0.1,0-0.2-0.1-0.3-0.2l-0.1-0.1c-0.1,0-0.1-0.1-0.2-0.2
	c-0.1-0.1-0.1-0.2-0.2-0.3c-0.1-0.2-0.1-0.2-0.1-0.6l0,0l0,0c0,0,0-0.2,0.1-0.4c-0.1,0.1,0,0,0,0c0.1-0.1,0.1-0.1,0.2-0.2L10,37
	c0.1-0.1,0.2-0.2,0.3-0.2c0.2-0.1,0.3-0.1,0.4-0.2c0.2-0.1,0.5-0.1,0.7-0.2c0.4-0.1,0.8-0.2,1.2-0.2c0.8-0.1,1.6-0.2,2.4-0.3
	c1.6-0.2,3.1-0.3,4.6-0.4c2.1-0.2,4.3-0.3,6.3-0.4c-0.3,0-0.5-0.1-0.8-0.1c-0.7-0.1-1.5-0.2-2.2-0.2c-0.7-0.1-1.4-0.2-2.1-0.2
	c-0.7-0.1-1.3-0.2-2-0.2c-0.6-0.1-1.3-0.2-1.8-0.2c-1.2-0.2-2.3-0.3-3.2-0.4c-1-0.1-1.8-0.3-2.5-0.4c-0.1,0-0.2,0-0.3,0
	c-0.2,0-0.5,0-0.7,0s-0.4,0-0.6,0c-0.1,0-0.2,0-0.3,0s-0.1,0-0.2,0H9.1c0,0,0,0-0.1,0l-0.1-0.1v-0.1c0,0,0,0,0.1-0.1
	c0,0,0.1,0,0.1-0.1c0.1,0,0.1,0,0.2-0.1c0.1,0,0.2-0.1,0.3-0.1c0.3-0.4,0.5-0.5,0.7-0.5c0.4-0.1,0.8-0.1,1.2-0.2
	c0.8-0.1,1.6-0.2,2.4-0.3c1.6-0.2,3.2-0.4,4.8-0.6c0.2,0,0.3,0,0.5-0.1c0.6-0.1,1.2-0.2,1.8-0.4c0.3-0.1,0.7-0.1,1-0.2
	s0.7-0.2,1.1-0.2c0.4-0.1,0.7-0.2,1.1-0.2c0.4-0.1,0.7-0.2,1.1-0.3c0.7-0.2,1.5-0.4,2.2-0.6c0.8-0.2,1.5-0.4,2.3-0.6l0.3-0.1
	l0.3-0.1c0.2-0.1,0.4-0.1,0.6-0.2l0,0v-0.5c-0.1-0.7-0.1-1.4-0.2-2c0-0.2,0-0.4,0-0.5c-1.2,0.3-2.3,0.6-3.5,0.9
	c-2.9,0.7-5.9,1.4-8.9,2c-1.5,0.3-3.1,0.6-4.6,0.9c-0.8,0.1-1.6,0.3-2.4,0.4c-0.4,0.1-0.8,0.1-1.2,0.1c-0.2,0-0.4,0-0.7,0
	c-0.1,0-0.2,0-0.4,0c-0.1,0-0.2,0-0.3-0.1c-0.1,0-0.1-0.1-0.3-0.1c-0.1,0-0.1-0.1-0.2-0.2S8.2,29,8.1,28.7C8,28.9,8,28.8,8,28.5z"/>
<path class="st11" d="M21.7,7.8L21.7,7.8L21.7,7.8L21.7,7.8z"/>
<path class="st11" d="M34.2,33.3c0.1,0.3,0.1,0.6,0.2,0.9l0.1,0.4c1.1,0,2.2-0.1,3.2-0.1c-0.1-0.3-0.1-0.6-0.2-0.9l-0.1-0.5
	l-0.1-0.5v-0.2l-0.1-0.2c0-0.2-0.1-0.3-0.1-0.5c-1,0.1-2.1,0.2-3.2,0.2l0.1,0.3C34.1,32.7,34.1,33,34.2,33.3z"/>
<path class="st11" d="M50.1,58.6L50.1,58.6L50.1,58.6c-0.2-0.2-0.4-0.2-0.6-0.3c-0.3-0.1-0.7-0.2-1.2-0.3L50.1,58.6
	C50.2,58.6,50.2,58.6,50.1,58.6L50.1,58.6z"/>
<path class="st11" d="M43.6,4.9L43.6,4.9L43.6,4.9z"/>
<path class="st11" d="M45,5.1c-0.1,0-0.2,0-0.3,0l0.4,0.1C45.1,5.1,45.1,5.1,45,5.1L45,5.1z"/>
<path class="st11" d="M34.3,50.6c-1.4-0.1-2.8-0.1-4.3-0.2c-2.1-0.1-4.2-0.1-6.4-0.2c-1.1,0-2.2,0-3.3,0c-0.5,0-1.1,0-1.6,0.1
	c-0.3,0-0.5,0-0.8,0.1c-0.1,0-0.3,0-0.4,0.1c-0.1,0-0.1,0-0.2,0.1l0,0l0,0c0.1,0,0.1,0,0.2,0.1c0.1,0,0.3,0.1,0.4,0.1
	c0.3,0.1,0.5,0.1,0.8,0.2c0.5,0.1,1.1,0.2,1.6,0.2c1.1,0.1,2.2,0.3,3.3,0.4c2.2,0.2,4.3,0.4,6.4,0.5c1.6,0.1,3.1,0.2,4.6,0.3v-0.5
	C34.4,51.4,34.4,51,34.3,50.6z"/>
<path class="st11" d="M21.1,62.1L21.1,62.1L21.1,62.1L21.1,62.1L21.1,62.1L21.1,62.1z"/>
<path class="st11" d="M31.2,30v-0.1l-0.1-1l0,0c-0.2,0-0.3,0.1-0.5,0.1l-0.3,0.1L30,29.2c-0.8,0.2-1.5,0.4-2.3,0.6s-1.5,0.3-2.3,0.5
	c-0.4,0.1-0.7,0.2-1.1,0.2c-0.4,0.1-0.7,0.1-1.1,0.2c-0.3,0.1-0.6,0.1-0.9,0.2c1.9-0.2,3.9-0.4,5.8-0.5C29.1,30.2,30.1,30.1,31.2,30
	z"/>
<path class="st11" d="M18.9,54.6L18.9,54.6L18.9,54.6L18.9,54.6L18.9,54.6L18.9,54.6L18.9,54.6z"/>
<path class="st11" d="M33.7,10.9c-2.9,1.1-6.2,2.4-9.6,3.8C27.6,13.4,30.8,12.1,33.7,10.9z"/>
<path class="st11" d="M11.3,20.7L11.3,20.7C11.3,20.7,11.3,20.8,11.3,20.7z"/>
<path class="st12" d="M29.4,85.8L29.4,85.8L29.4,85.8z"/>
<path class="st12" d="M29,86.2C29,86.3,28.9,86.3,29,86.2C28.9,86.3,29,86.3,29,86.2z"/>
<path class="st12" d="M29.3,86C29.2,86.1,29.2,86.1,29.3,86C29.2,86.1,29.2,86.1,29.3,86z"/>
<path class="st12" d="M29.5,82.1c0-0.7,0-1.5,0-2.3c0-0.4,0-0.9,0-1.3c0-0.5,0-0.9,0-1.4c0-1-0.1-2-0.1-3.1c0-0.5,0-1.1,0-1.6
	c0-0.3,0-0.5,0-0.8c0-0.1,0-0.3,0-0.4v-0.1V71l0,0v-0.1c-0.1-0.2-0.2-0.3-0.4-0.4c0,0,0,0-0.1,0c0,0,0,0-0.1,0l0,0l0,0l0,0l0,0h-0.1
	c-0.1,0-0.3,0-0.4,0h-0.2l0,0l0,0H28c-0.1,0-0.2,0.1-0.2,0.1c-0.1,0.1-0.1,0.1-0.2,0.2c0,0,0,0,0,0.1c0,0,0,0,0,0.1l0,0l0,0l0,0l0,0
	v0.1c0,0.3,0,0.6,0,0.8c0,0.3,0,0.6,0,0.8c0,0.6,0,1.1,0,1.7s0,1.1,0,1.7c0,0.5,0,1.1,0,1.6c0,1.1-0.1,2.1-0.1,3.1c0,0.5,0,1,0,1.4
	c0,0.5,0,0.9,0,1.3s0,0.8,0,1.2c0,0.2,0,0.4,0,0.6c0,0.1,0,0.2,0,0.3s0,0.2,0,0.3c0.1,0.3,0.4,0.5,0.6,0.6h0.1c0.1,0,0.3,0,0.4,0
	s0.3,0,0.4,0h0c0.1,0,0.2,0,0.3-0.1c0.1,0,0.1,0,0.2-0.1c0.1,0,0.1-0.1,0.1-0.1l0.1-0.1c0.1-0.1,0.1-0.1,0.2-0.2l0,0
	c0-0.1,0.1-0.2,0.1-0.3l0,0c0,0,0-0.6,0-1.6C29.5,83.4,29.5,82.8,29.5,82.1z"/>
<ellipse class="st12" cx="29.4" cy="85.4" rx="0" ry="0"/>
<path class="st12" d="M29.8,70.6c-0.1-0.4-0.4-0.7-0.7-0.8H29h-0.1h-0.1c0,0,0,0-0.1,0l0,0l0,0l0,0h-0.1c-0.1,0-0.3,0-0.4,0H28
	c0,0,0,0-0.1,0h-0.1h-0.1c-0.2,0-0.4,0.1-0.5,0.2c-0.2,0.1-0.3,0.3-0.4,0.4c0,0,0,0.1-0.1,0.1v0.1c0,0,0,0.1,0,0.2l0,0l0,0v0.1
	c0,0.3,0,0.6,0,0.9s0,0.6,0,0.8c0,0.6,0,1.1,0,1.7s0,1.1,0,1.7c0,0.5,0,1.1,0,1.6c0,1.1,0.1,2.1,0.1,3.1c0,0.5,0,1,0,1.4
	c0,0.5,0,0.9,0,1.3s0,0.8,0,1.2c0,0.2,0,0.4,0,0.6c0,0.1,0,0.2,0,0.3c0,0.1,0,0.2,0.1,0.3c0,0.1,0.1,0.2,0.1,0.2
	c0.1,0.1,0.1,0.1,0.2,0.2s0.3,0.2,0.4,0.2c0.2,0,0.3,0,0.4,0s0.3,0,0.4,0s0.1,0,0.2,0h0.1h0.1c0,0,0,0,0.1,0H29c0,0,0.1,0,0.1-0.1
	l0.1-0.1c0,0,0,0,0.1-0.1s0.1-0.2,0.2-0.2l0,0l0,0c0-0.1,0.1-0.2,0.1-0.2c0-0.1,0-0.1,0-0.1l0,0l0,0c0,0,0,0,0,0.1s0,0.1-0.1,0.2
	l0,0l0,0c0,0.1-0.1,0.1-0.2,0.2l-0.1,0.1c0,0,0,0-0.1,0.1H29c0,0-0.1,0.1-0.2,0.1l0,0h-0.1h-0.1c0,0,0,0-0.1,0h-0.1
	c-0.1,0-0.3,0-0.4,0s-0.2,0-0.4,0c0,0,0,0-0.1,0l0,0c-0.3-0.1-0.5-0.3-0.6-0.6c0-0.1,0-0.2,0-0.3c0-0.1,0-0.2,0-0.3
	c0-0.2,0-0.4,0-0.6c0-0.4,0-0.8,0-1.2c0-0.4,0-0.9,0-1.3c0-0.5,0-0.9,0-1.4c0-1,0.1-2,0.1-3.1c0-0.5,0-1.1,0-1.6s0-1.1,0-1.7
	s0-1.1,0-1.7c0-0.3,0-0.6,0-0.8c0-0.3,0-0.6,0-0.8v-0.1l0,0l0,0l0,0l0,0c0,0,0,0,0-0.1c0,0,0,0,0-0.1s0.1-0.2,0.2-0.2
	c0.1-0.1,0.2-0.1,0.2-0.1h0.1l0,0l0,0h0.2c0.1,0,0.3,0,0.4,0h0.1l0,0l0,0l0,0l0,0c0,0,0,0,0.1,0c0,0,0,0,0.1,0
	c0.2,0.1,0.3,0.2,0.4,0.4v0.1l0,0V71v0.1c0,0.1,0,0.3,0,0.4c0,0.3,0,0.6,0,0.8c0,0.5,0,1.1,0,1.6c0,1.1,0.1,2.1,0.1,3.1
	c0,0.5,0,1,0,1.4c0,0.5,0,0.9,0,1.3c0,0.8,0,1.6,0,2.3s0,1.3,0,1.8c0,1,0,1.6,0,1.6l0,0c0,0,0-0.6,0-1.5c0-0.5,0-1.1,0-1.8
	s0-1.5,0-2.3c0-0.4,0-0.9,0-1.3c0-0.5,0-0.9,0-1.4c0-1,0.1-2,0.1-3.1c0-0.5,0-1.1,0-1.6c0-0.3,0-0.5,0-0.8c0-0.1,0-0.3,0-0.4v-0.1
	V71v-0.1C29.8,70.8,29.8,70.7,29.8,70.6z"/>
<path class="st13" d="M35.2,90.4C35.2,90.3,35.2,90.3,35.2,90.4c0-0.1,0-2.9,0-7.1c0-2.1,0-4.6,0-7.2c0-1.3,0-2.7,0-4.1v-0.1v-0.1
	v-0.1v-0.1c0-0.2-0.1-0.3-0.2-0.4c-0.1-0.1-0.2-0.2-0.4-0.3c0,0,0,0-0.1,0h-0.1h-0.1H34h-0.3c-0.1,0-0.2,0-0.3,0
	c-0.2,0-0.3,0.1-0.4,0.2c-0.1,0.1-0.2,0.3-0.3,0.4c0,0.1-0.1,0.2-0.1,0.2v0.1v0.1c0,5.6,0,11.2,0,15.5c0,1.1,0,2,0,2.9
	c0,0.1,0,0.2,0,0.3s0,0.2,0.1,0.3c0.1,0.2,0.2,0.3,0.3,0.5c0.1,0.1,0.1,0.1,0.2,0.1h0.1h0.1c0,0,0,0,0.1,0c0.2,0,0.3,0,0.5,0
	c0.1,0,0.2,0,0.2,0c0.1,0,0.1,0,0.2,0c0.1,0,0.2-0.1,0.3-0.2c0.2-0.2,0.3-0.3,0.3-0.5C35.2,90.6,35.2,90.5,35.2,90.4z"/>
<path class="st13" d="M35.8,71.5c0-0.1,0-0.1,0-0.2c-0.1-0.2-0.2-0.5-0.3-0.7c-0.1-0.1-0.2-0.2-0.3-0.3c-0.1,0-0.1-0.1-0.2-0.1
	c-0.1,0-0.1-0.1-0.2-0.1h-0.1h-0.1c-0.1,0-0.1,0-0.1,0l0,0l0,0h-0.1h-0.3h-0.3h-0.1l0,0h-0.1h-0.1c-0.3,0-0.6,0.2-0.8,0.4
	c-0.2,0.2-0.3,0.4-0.4,0.7c0,0.1-0.1,0.2-0.1,0.4c0,0.1,0,0.1,0,0.2l0,0l0,0v0.1c0,0.7,0,1.4,0,2.1c0,0.3,0,0.7,0,1s0,0.7,0,1
	c0,0.7,0,1.4,0.1,2.1c0,0.7,0,1.3,0.1,2c0,1.3,0.1,2.6,0.2,3.8c0,0.6,0.1,1.2,0.1,1.8c0,0.6,0,1.1,0.1,1.6c0,1.1,0.1,2,0.1,2.9
	c0,0.1,0,0.2,0,0.3c0,0.1,0,0.2,0.1,0.3c0.1,0.2,0.2,0.4,0.3,0.5s0.2,0.1,0.2,0.2c0,0,0,0,0.1,0c0,0,0,0,0.1,0c0,0,0,0,0.1,0
	c0,0,0,0,0.1,0c0.2,0,0.3,0,0.5,0c0.1,0,0.2,0,0.2,0c0.1,0,0.2,0,0.2,0c0.1,0,0.3-0.1,0.4-0.2c0.2-0.2,0.3-0.4,0.3-0.5
	c0.1-0.2,0.1-0.3,0.1-0.4s0-0.1,0-0.1l0,0c0,0,0-0.7,0-1.9c0-0.3,0-0.6,0-1s0-0.8,0-1.2c0-0.9,0-1.8,0.1-2.9c0-0.5,0-1.1,0.1-1.6
	c0-0.6,0-1.2,0.1-1.8c0.1-1.2,0.1-2.5,0.2-3.8c0-0.7,0-1.3,0.1-2c0-0.7,0-1.4,0.1-2.1v-0.1c0-0.1,0-0.1,0-0.2
	C35.8,71.6,35.8,71.6,35.8,71.5z M34.5,91.4c-0.1,0-0.1,0-0.2,0c-0.1,0-0.1,0-0.2,0c-0.2,0-0.3,0-0.5,0c0,0,0,0-0.1,0h-0.1h-0.1
	c-0.1,0-0.2-0.1-0.2-0.1c-0.1-0.1-0.2-0.3-0.3-0.5c0-0.1-0.1-0.2-0.1-0.3c0-0.1,0-0.2,0-0.3c0-0.9,0-1.8,0-2.9c0-4.2,0-9.8,0-15.5
	v-0.1v-0.1c0-0.1,0-0.2,0.1-0.2c0.1-0.2,0.1-0.3,0.3-0.4c0.1-0.1,0.3-0.2,0.4-0.2c0.1,0,0.2,0,0.3,0h0.3h0.3h0.1h0.1c0,0,0,0,0.1,0
	c0.2,0,0.3,0.2,0.4,0.3c0.1,0.1,0.2,0.3,0.2,0.4v0.1v0.1v0.1v0.1c0,1.4,0,2.7,0,4.1c0,2.6,0,5.1,0,7.2c0,4.2,0,7,0,7s0,0,0,0.1
	s0,0.2-0.1,0.4c-0.1,0.1-0.1,0.3-0.3,0.5C34.7,91.3,34.6,91.4,34.5,91.4z"/>
<path class="st14" d="M40.7,93.2L40.7,93.2C40.6,93.3,40.6,93.2,40.7,93.2z"/>
<path class="st14" d="M40.4,93.5L40.4,93.5L40.4,93.5z"/>
<path class="st14" d="M40,93.6L40,93.6L40,93.6L40,93.6z"/>
<path class="st14" d="M40.9,87.8c0-0.9,0-2,0-3.1c0-0.6,0-1.2,0-1.8s0-1.3,0-1.9c0-1.3-0.1-2.7-0.1-4.1c0-0.7,0-1.4,0-2.2
	c0-0.7,0-1.5,0-2.2v-0.3l0,0l0,0v-0.1V72c0-0.2-0.1-0.3-0.1-0.4c-0.1-0.1-0.2-0.2-0.3-0.3c0,0,0,0-0.1,0l0,0l0,0l0,0l0,0
	c0,0,0,0-0.1,0l0,0l0,0h-0.1h-0.3h-0.1h-0.1l0,0l0,0l0,0c0,0,0,0-0.1,0c0,0,0,0-0.1,0c0,0,0,0-0.1,0c0,0,0,0-0.1,0.1
	S39,71.6,39,71.8c0,0.1,0,0.1-0.1,0.2v0.1v0.1c0,0.4,0,0.8,0,1.1c0,0.4,0,0.8,0,1.1c0,0.4,0,0.8,0,1.1c0,0.4,0,0.8,0,1.1
	c0,0.8,0,1.5,0,2.2s0,1.5,0,2.2c0,1.4-0.1,2.8-0.1,4.1c0,0.7,0,1.3,0,1.9s0,1.2,0,1.8c0,1.1,0,2.2,0,3.1c0,0.2,0,0.5,0,0.7
	c0,0.1,0.1,0.2,0.1,0.3l0,0c0,0.1,0.1,0.2,0.1,0.2c0.1,0.1,0.1,0.1,0.2,0.2c0.1,0,0.1,0.1,0.2,0.1c0.1,0,0.1,0.1,0.2,0.1l0,0h0.1
	c0.1,0,0.2,0,0.3,0s0.2,0,0.2,0h0.1c0.1,0,0.2,0,0.3-0.1c0,0,0,0,0.1,0s0.1-0.1,0.2-0.2l0.1-0.1c0.1-0.1,0.1-0.2,0.2-0.3
	c0,0,0,0,0-0.1s0.1-0.3,0.1-0.5c0,0,0-0.8,0-2.1C40.9,89.5,40.9,88.7,40.9,87.8z"/>
<path class="st14" d="M40.9,92.8C40.8,92.8,40.8,92.8,40.9,92.8C40.8,92.8,40.9,92.8,40.9,92.8z"/>
<path class="st14" d="M41.2,71.9c0-0.1,0-0.1,0-0.2c0-0.2-0.1-0.4-0.2-0.7c-0.1-0.2-0.3-0.4-0.5-0.5c-0.1,0-0.1-0.1-0.2-0.1l0,0l0,0
	l0,0h-0.1c0,0,0,0-0.1,0l0,0l0,0l0,0H40h-0.3h-0.1h-0.1l0,0l0,0h-0.1c-0.1,0-0.1,0-0.2,0c-0.1,0-0.1,0-0.2,0.1
	c-0.1,0-0.1,0.1-0.2,0.1l-0.1,0.1c-0.2,0.2-0.3,0.4-0.4,0.6c0,0.1-0.1,0.2-0.1,0.3s0,0.1,0,0.2s0,0.1,0,0.1c0,0.4,0,0.8,0,1.2
	s0,0.8,0,1.1c0,0.4,0,0.8,0,1.1c0,0.4,0,0.8,0,1.1c0,0.8,0,1.5,0,2.2s0,1.5,0,2.2c0,1.4,0.1,2.8,0.1,4.1c0,0.7,0,1.3,0,1.9
	s0,1.2,0,1.8c0,1.1,0,2.2,0,3.1c0,0.1,0,0.2,0,0.3c0,0.1,0,0.2,0,0.3c0.1,0.2,0.1,0.4,0.3,0.6c0.1,0.1,0.1,0.2,0.2,0.2
	c0.1,0.1,0.2,0.1,0.3,0.1s0.2,0,0.3,0s0.2,0,0.3,0s0.2,0,0.2,0s0,0,0.1,0l0,0h0.1c0.1,0,0.2-0.1,0.2-0.1l0,0c0.1,0,0.1-0.1,0.1-0.1
	l0.1-0.1l0.1-0.1c0.1-0.1,0.1-0.2,0.2-0.3l0,0l0,0c0-0.1,0.1-0.3,0.1-0.3c0-0.1,0-0.1,0-0.1s0,0,0,0.1s0,0.2-0.1,0.3c0,0,0,0,0,0.1
	l0,0c0,0.1-0.1,0.2-0.2,0.3L40.5,93c0,0,0,0.1-0.1,0.1l-0.1,0.1c0,0,0,0-0.1,0s-0.1,0.1-0.2,0.1h-0.1h-0.1c-0.1,0-0.2,0-0.2,0
	s-0.2,0-0.3,0h-0.1l0,0l0,0c0,0,0,0-0.1,0H39c-0.1,0-0.1,0-0.2-0.1c-0.1-0.1-0.1-0.1-0.2-0.2c-0.1-0.1-0.1-0.2-0.1-0.2l0,0
	c0-0.1-0.1-0.2-0.1-0.3c0-0.2,0-0.4,0-0.7c0-0.9,0-2,0-3.1c0-0.6,0-1.2,0-1.8c0-0.6,0-1.3,0-1.9c0-1.3,0.1-2.7,0.1-4.1
	c0-0.7,0-1.4,0-2.2c0-0.7,0-1.5,0-2.2c0-0.4,0-0.8,0-1.1c0-0.4,0-0.8,0-1.1c0-0.4,0-0.8,0-1.1c0-0.4,0-0.8,0-1.1V72v-0.1
	c0-0.1,0-0.2,0.1-0.2c0-0.1,0.1-0.3,0.2-0.4c0,0,0,0,0.1-0.1c0,0,0,0,0.1,0c0,0,0,0,0.1,0c0,0,0,0,0.1,0l0,0l0,0l0,0h0.1h0.1h0.3
	h0.1l0,0l0,0h0.1l0,0l0,0l0,0l0,0c0,0,0,0,0.1,0c0.1,0.1,0.2,0.2,0.3,0.3s0.1,0.3,0.1,0.4V72v0.1l0,0l0,0v0.3c0,0.8,0,1.5,0,2.2
	s0,1.5,0,2.2c0,1.4,0.1,2.8,0.1,4.1c0,0.7,0,1.3,0,1.9s0,1.2,0,1.8c0,1.1,0,2.2,0,3.1s0,1.7,0,2.4c0,1.3,0,2.1,0,2.1s0-0.8,0-2.1
	c0-0.7,0-1.5,0-2.4s0-2,0-3.1c0-0.6,0-1.2,0-1.8s0-1.3,0-1.9c0-1.3,0.1-2.7,0.1-4.1c0-0.7,0-1.4,0-2.2c0-0.7,0-1.5,0-2.2v-0.3l0,0
	L41.2,71.9L41.2,71.9z"/>
<path class="st15" d="M46.5,87.7C46.5,87.6,46.5,87.6,46.5,87.7c0-0.1,0-2.6,0-6.4c0-1.9,0-4.1,0-6.5c0-1.2,0-2.4,0-3.7
	c0-0.1,0-0.3-0.1-0.4s-0.2-0.3-0.3-0.3c-0.1-0.1-0.3-0.1-0.4-0.2h-0.1h-0.1h-0.2h-0.2c-0.1,0-0.2,0-0.2,0c-0.1,0-0.3,0.1-0.4,0.2
	c-0.2,0.2-0.3,0.5-0.3,0.8c0,5.1,0,10.2,0,14c0,0.5,0,0.9,0,1.4c0,0.2,0,0.4,0,0.6c0,0.1,0,0.2,0,0.3c0,0.1,0,0.2,0,0.3
	c0,0.4,0.2,0.7,0.5,0.8c0.1,0,0.1,0.1,0.2,0.1H45h0.1c0.2,0,0.3,0,0.4,0c0.1,0,0.1,0,0.2,0c0.1,0,0.1,0,0.2,0c0.1,0,0.2-0.1,0.3-0.1
	c0.2-0.1,0.3-0.3,0.3-0.4C46.5,87.9,46.5,87.8,46.5,87.7z"/>
<path class="st15" d="M46.9,70.4c-0.1-0.2-0.3-0.4-0.5-0.6c-0.1-0.1-0.2-0.2-0.3-0.2s-0.1,0-0.2-0.1c0,0,0,0-0.1,0h-0.1h-0.1h-0.1
	l0,0c0,0-0.1,0,0,0l0,0h-0.1h-0.2H45h-0.1l0,0l0,0c-0.1,0-0.1,0-0.2,0c-0.1,0-0.3,0.1-0.4,0.1c-0.1,0.1-0.2,0.1-0.3,0.2
	c-0.4,0.3-0.6,0.8-0.6,1.3c0,1.3,0,2.5,0,3.8c0,0.6,0,1.2,0.1,1.9c0,0.6,0,1.2,0.1,1.8c0,1.2,0.1,2.3,0.2,3.4c0,0.5,0.1,1.1,0.1,1.6
	s0,1,0.1,1.5c0,0.5,0,0.9,0,1.4c0,0.2,0,0.4,0,0.6c0,0.1,0,0.2,0,0.3c0,0.1,0,0.2,0,0.3c0,0.4,0.3,0.8,0.6,0.9
	c0.1,0,0.2,0.1,0.3,0.1H45l0,0c0.2,0,0.3,0,0.4,0c0.1,0,0.1,0,0.2,0c0.1,0,0.1,0,0.2,0c0.1,0,0.2-0.1,0.3-0.2
	c0.2-0.1,0.3-0.3,0.3-0.5c0.1-0.1,0.1-0.3,0.1-0.3c0-0.1,0-0.1,0-0.1l0,0c0,0,0-0.2,0-0.5s0-0.7,0-1.3c0-0.6,0-1.2,0-2
	s0-1.6,0.1-2.6c0-0.5,0-1,0.1-1.5c0-0.5,0-1,0.1-1.6c0.1-1.1,0.1-2.2,0.2-3.4c0-0.6,0-1.2,0.1-1.8c0-0.3,0-0.6,0-0.9
	c0-0.2,0-0.3,0-0.5v-0.2v-0.1v-0.1V71C47.1,70.8,47,70.6,46.9,70.4z M45.8,88.6c-0.1,0-0.1,0-0.2,0c-0.1,0-0.1,0-0.2,0
	c-0.1,0-0.3,0-0.4,0h-0.1h-0.1c-0.1,0-0.1,0-0.2-0.1c-0.3-0.1-0.5-0.5-0.5-0.8c0-0.1,0-0.2,0-0.3s0-0.2,0-0.3c0-0.2,0-0.4,0-0.6
	c0-0.4,0-0.9,0-1.4c0-3.8,0-8.9,0-14c0-0.3,0.1-0.6,0.3-0.8c0.1-0.1,0.2-0.2,0.4-0.2c0.1,0,0.1,0,0.2,0h0.2h0.2h0.1h0.1
	c0.1,0,0.3,0.1,0.4,0.2c0.1,0.1,0.2,0.2,0.3,0.3c0.1,0.1,0.1,0.3,0.1,0.4c0,1.2,0,2.5,0,3.7c0,2.4,0,4.6,0,6.5c0,3.8,0,6.3,0,6.3
	s0,0,0,0.1s0,0.2-0.1,0.3c-0.1,0.1-0.1,0.3-0.3,0.4C46,88.5,45.9,88.6,45.8,88.6z"/>
<path class="st16" d="M35.5,50.7c-0.4,0-0.8,0-1.2-0.1c0,0.4,0.1,0.8,0.1,1.2v0.5c0.4,0,0.7,0,1.1,0.1c0-0.2,0-0.4,0-0.6
	C35.5,51.4,35.5,51,35.5,50.7z"/>
<path class="st16" d="M30.6,23c1.9-0.5,3.8-1.1,5.6-1.6c-0.1-0.1-0.1-0.3-0.2-0.4c-0.1-0.2-0.2-0.3-0.3-0.5c0-0.1-0.1-0.1-0.1-0.2
	c-1.6,0.5-3.2,0.9-4.9,1.4C30.7,22.1,30.6,22.6,30.6,23z M34,21.1C34,21,34,21,34,21.1C34,21,34,21.1,34,21.1z"/>
<path class="st16" d="M34.6,35.9c-0.7,0.1-1.4,0.1-2.2,0.2c0,0.1,0.1,0.3,0.1,0.4l0,0c0.7-0.1,1.4-0.1,2.2-0.2v-0.2
	C34.6,36,34.6,35.9,34.6,35.9z"/>
<path class="st16" d="M37.6,27c-0.2,0.1-0.4,0.1-0.6,0.2c-0.4,0.1-0.8,0.2-1.2,0.4c-0.1,0-0.2,0-0.3,0.1c0.2,0.5,0.4,1,0.7,1.5v0.1
	v0.1l0,0l0,0c0,0,0-0.1,0,0l0,0c0,0.1,0,0.1,0.1,0.2v0.1c0.8-0.1,1.7-0.1,2.5-0.2c0,0,0,0,0-0.1c0-0.2-0.1-0.4-0.1-0.5
	s0-0.2-0.1-0.3l0,0c0,0,0-0.1,0,0l0,0l0,0v-0.1v-0.1c-0.1-0.5-0.3-1-0.4-1.5c0,0,0,0-0.1,0C37.9,26.8,37.8,26.9,37.6,27z"/>
<path class="st16" d="M34.9,60.3c0,0.1,0,0.3,0,0.4c0.1,0,0.2,0,0.3,0c0-0.1,0-0.3,0-0.4C35.2,60.2,35.1,60.2,34.9,60.3z"/>
<path class="st16" d="M33.3,40.9c0,0.2,0.1,0.5,0.1,0.7c0.6,0,1.2-0.1,1.8-0.1c0-0.3,0-0.5-0.1-0.8c0-0.3-0.1-0.6-0.1-1
	c-0.6,0-1.3,0-2,0.1C33.1,40.2,33.2,40.5,33.3,40.9z"/>
<path class="st16" d="M35,19.4c-0.2-0.2-0.3-0.4-0.6-0.6c-0.1-0.1-0.2-0.1-0.3-0.2c-0.1,0-0.1-0.1-0.2-0.1l0,0h-0.1h-0.1
	c-0.1,0-0.2-0.1-0.2-0.1h-0.1c-0.1,0-0.1,0-0.2,0c-0.1,0-0.2,0-0.3,0s-0.2,0-0.3,0.1c-0.1,0-0.2,0.1-0.3,0.1s-0.2,0.1-0.3,0.1
	c-0.1,0.1-0.1,0.1-0.2,0.2s-0.1,0.1-0.2,0.2c-0.2,0.2-0.3,0.4-0.4,0.6C31,20,31,20.3,30.9,20.5c0,0.2-0.1,0.3-0.1,0.5
	c1.5-0.4,3-0.8,4.4-1.1C35.2,19.6,35.1,19.5,35,19.4z"/>
<path class="st16" d="M33.7,29.9C32.9,30,32,30,31.2,30.1c0.1,0.6,0.1,1.1,0.2,1.7c0.8-0.1,1.6-0.1,2.4-0.2l0,0
	C33.8,31,33.7,30.5,33.7,29.9z"/>
<path class="st16" d="M34.1,48.2c0.1,0.6,0.1,1.2,0.2,1.8c0,0.2,0,0.3,0,0.5c0.4,0,0.8,0,1.2,0.1c0-0.2,0-0.4,0-0.6
	c0-0.6,0-1.2,0-1.8l0,0C35,48.1,34.6,48.1,34.1,48.2C34.1,48.1,34.1,48.2,34.1,48.2z"/>
<path class="st16" d="M35.3,27c0.1,0,0.2-0.1,0.3-0.1c0.4-0.1,0.8-0.3,1.1-0.4c0.2-0.1,0.4-0.1,0.6-0.2c0.2-0.1,0.4-0.1,0.6-0.2H38
	c-0.1-0.2-0.2-0.5-0.2-0.7l-0.2-0.6l-0.2-0.5c-0.1-0.2-0.2-0.5-0.3-0.7c-1,0.3-2,0.5-3,0.8c0.2,0.4,0.3,0.7,0.5,1.1
	C34.9,26,35.1,26.5,35.3,27z"/>
<path class="st16" d="M36.5,29.9c0.1,0.3,0.2,0.6,0.3,0.9c0,0.2,0.1,0.3,0.1,0.5c0,0,0,0,0,0.1c0.7-0.1,1.4-0.1,2.1-0.2
	c0-0.3,0-0.5-0.1-0.8c0-0.3-0.1-0.6-0.1-0.9c-0.8,0.1-1.6,0.1-2.4,0.2C36.5,29.8,36.5,29.9,36.5,29.9z"/>
<path class="st16" d="M33.3,27.6c0.1,0,0.2-0.1,0.3-0.1c0-0.6,0-1.2,0-1.8c0-0.4,0-0.8,0-1.2c-0.9,0.2-1.9,0.5-2.9,0.7
	c0,0.2,0,0.4,0,0.5c0.1,0.7,0.1,1.4,0.2,2v0.5c0.4-0.1,0.8-0.2,1.1-0.3C32.5,27.9,32.9,27.7,33.3,27.6z"/>
<path class="st16" d="M31.2,29.9V30c0.8-0.1,1.7-0.1,2.5-0.2c0-0.1,0-0.1,0-0.2c0-0.3,0-0.7,0-1c0-0.2,0-0.3,0-0.5
	c-0.1,0-0.1,0-0.2,0c-0.4,0.1-0.8,0.2-1.2,0.3c-0.4,0.1-0.8,0.2-1.2,0.3c0,0,0,0-0.1,0l0,0L31.2,29.9z"/>
<path class="st16" d="M34.6,53.7c0,0.3,0,0.6,0.1,0.9c0.3,0.1,0.6,0.1,0.9,0.2c0-0.4,0-0.7,0-1.1c0-0.3,0-0.6,0-0.9
	c-0.3,0-0.7,0-1-0.1V53.7z"/>
<path class="st16" d="M35.3,42.7c-0.6,0.1-1.1,0.1-1.7,0.2c0.1,0.5,0.1,1.1,0.2,1.6v0.2c0.5-0.1,1.1-0.1,1.6-0.2c0-0.1,0-0.1,0-0.2
	C35.3,43.8,35.3,43.3,35.3,42.7z"/>
<path class="st16" d="M31.9,33.8c0.1,0.3,0.1,0.6,0.2,0.9v0.1c0.8,0,1.5-0.1,2.3-0.1l-0.1-0.4c-0.1-0.3-0.1-0.6-0.2-0.9
	c-0.1-0.3-0.1-0.6-0.2-0.9l-0.1-0.3c-0.8,0.1-1.6,0.1-2.4,0.2l0.2,0.7C31.8,33.2,31.8,33.5,31.9,33.8z"/>
<path class="st16" d="M35.4,59.1c-0.2,0-0.3-0.1-0.5-0.1c0,0.1,0,0.1,0,0.2c0,0.1,0,0.2,0,0.3c0.1,0,0.3,0,0.4,0
	C35.3,59.3,35.4,59.2,35.4,59.1z"/>
<path class="st16" d="M37.2,32.2l0.1,0.2v0.2l0.1,0.5l0.1,0.5c0.1,0.3,0.1,0.6,0.2,0.9c0.5,0,1,0,1.5,0c0-0.7,0.1-1.3,0.1-2
	c0-0.3,0-0.6,0-0.9c-0.7,0.1-1.4,0.1-2.1,0.2C37.1,31.9,37.1,32.1,37.2,32.2z"/>
<path class="st16" d="M42.9,35.2c-2.5,0.2-5.2,0.4-8.1,0.6c0.7,0.1,1.4,0.1,2.1,0.2c0.2,0,0.5,0,0.7,0c2.5-0.2,4.8-0.4,6.9-0.7
	c0.2,0,0.4,0,0.6-0.1c-0.4,0-0.8,0-1.2,0C43.6,35.3,43.2,35.3,42.9,35.2z"/>
<path class="st16" d="M9.5,32.8L9.5,32.8c0.1,0,0.2,0,0.3,0l0,0c0,0,0,0-0.1,0C9.6,32.8,9.5,32.8,9.5,32.8z"/>
<path class="st16" d="M31.5,34.8c-0.6,0-1.2-0.1-1.7-0.1c-0.4,0-0.8-0.1-1.2-0.1c-0.4,0-0.8-0.1-1.2-0.1c-0.8-0.1-1.5-0.1-2.3-0.2
	c-0.7-0.1-1.5-0.1-2.2-0.2c-0.7-0.1-1.4-0.1-2.1-0.2c-0.7-0.1-1.3-0.1-2-0.2c-0.6-0.1-1.3-0.1-1.9-0.2c-1.2-0.1-2.3-0.2-3.2-0.3
	c-0.4,0-0.8-0.1-1.2-0.1s-0.7,0-1.1,0c-0.2,0-0.4,0-0.5,0c0.1,0,0.2,0,0.3,0c0.7,0.1,1.5,0.2,2.5,0.4c1,0.1,2,0.3,3.2,0.4
	c0.6,0.1,1.2,0.2,1.8,0.2c0.6,0.1,1.3,0.2,2,0.2c0.7,0.1,1.4,0.2,2.1,0.2c0.7,0.1,1.4,0.2,2.2,0.2c0.3,0,0.5,0.1,0.8,0.1
	c0.9-0.1,1.8-0.1,2.7-0.1C29.6,34.9,30.6,34.8,31.5,34.8z"/>
<path class="st5" d="M12.6,32.4c0.4-0.1,0.9-0.1,1.4-0.2s1-0.1,1.6-0.2c0.1,0,0.3,0,0.4-0.1c0.1,0,0.3,0,0.4-0.1
	c0.3,0,0.6-0.1,0.9-0.1c0.6-0.1,1.2-0.2,1.9-0.3c0.2,0,0.3-0.1,0.5-0.1c-0.3,0-0.6,0.1-0.9,0.1c-0.9,0.1-1.9,0.2-2.8,0.3l0,0
	c-0.1,0-0.3,0-0.4,0.1c-0.5,0.1-1.1,0.2-1.6,0.3C13.4,32.2,13,32.2,12.6,32.4c-0.4,0-0.8,0-1.2,0.1c-0.8,0.1-1.5,0.2-1.8,0.3
	c0,0,0,0-0.1,0c0.4,0,1-0.1,1.9-0.2C11.7,32.5,12.1,32.4,12.6,32.4z"/>
<path class="st5" d="M54,18.6c-0.4,0.2-0.9,0.3-1.4,0.5c-0.6,0.4-1.2,0.7-1.8,1.1c-0.3,0.2-0.5,0.3-0.8,0.5s-0.6,0.3-0.8,0.5
	c-0.1,0.1-0.3,0.2-0.4,0.2c-0.1,0.1-0.3,0.2-0.4,0.2c-0.3,0.2-0.6,0.3-0.9,0.5c-0.3,0.2-0.6,0.3-0.9,0.5c-0.2,0.1-0.3,0.2-0.5,0.2
	c-0.2,0.1-0.3,0.2-0.5,0.2c-0.3,0.2-0.7,0.3-1,0.5s-0.7,0.3-1,0.4c-0.7,0.3-1.4,0.6-2.1,0.9c-0.4,0.2-0.7,0.3-1.1,0.4
	c-0.4,0.1-0.7,0.3-1.1,0.4c-0.3,0.1-0.7,0.2-1,0.4h-0.1c-0.2,0.1-0.4,0.1-0.6,0.2c-0.2,0.1-0.4,0.1-0.6,0.2
	c-0.4,0.1-0.8,0.3-1.1,0.4c-0.1,0-0.2,0.1-0.3,0.1c-0.3,0.1-0.6,0.2-0.8,0.3c-0.3,0.1-0.6,0.2-0.9,0.3c-0.1,0-0.2,0.1-0.3,0.1
	c-0.4,0.1-0.8,0.2-1.2,0.4c-0.4,0.1-0.8,0.2-1.1,0.3l0,0c-0.2,0.1-0.4,0.1-0.6,0.2l-0.3,0.1l-0.3,0.1c-0.8,0.2-1.5,0.4-2.3,0.6
	s-1.5,0.4-2.2,0.6c-0.4,0.1-0.7,0.2-1.1,0.3c-0.4,0.1-0.7,0.2-1.1,0.2c-0.4,0.1-0.7,0.2-1.1,0.2c-0.3,0.1-0.7,0.1-1,0.2
	c-0.6,0.1-1.2,0.3-1.8,0.4c1-0.1,2.1-0.2,3.1-0.3c0.3-0.1,0.6-0.1,0.9-0.2c0.4-0.1,0.7-0.1,1.1-0.2s0.7-0.1,1.1-0.2
	c0.7-0.2,1.5-0.3,2.3-0.5s1.5-0.4,2.3-0.6l0.3-0.1l0.3-0.1c0.2,0,0.3-0.1,0.5-0.1c0,0,0,0,0.1,0c0.4-0.1,0.8-0.2,1.2-0.3
	c0.4-0.1,0.8-0.2,1.2-0.3c0.1,0,0.1,0,0.2,0c0.3-0.1,0.7-0.2,1-0.3c0.3-0.1,0.6-0.2,0.9-0.3c0.1,0,0.2-0.1,0.3-0.1
	c0.4-0.1,0.8-0.2,1.2-0.4c0.2-0.1,0.4-0.1,0.6-0.2c0.2-0.1,0.4-0.1,0.6-0.2c0,0,0,0,0.1,0c0.4-0.1,0.7-0.2,1.1-0.4
	c0.4-0.1,0.8-0.3,1.1-0.4c0.4-0.1,0.7-0.3,1.1-0.4c0.7-0.3,1.5-0.5,2.2-0.8c0.4-0.1,0.7-0.3,1.1-0.4c0.3-0.1,0.7-0.3,1-0.4
	c0.2-0.1,0.3-0.1,0.5-0.2s0.3-0.2,0.5-0.2c0.3-0.2,0.7-0.3,1-0.4c0.3-0.2,0.6-0.3,0.9-0.5c0.2-0.1,0.3-0.1,0.5-0.2
	c0.1-0.1,0.3-0.2,0.4-0.2c0.3-0.2,0.6-0.3,0.9-0.5c0.3-0.2,0.6-0.3,0.8-0.5c1.1-0.6,2-1.2,2.9-1.7c0.8-0.6,1.5-1.1,2.1-1.5
	c0.1-0.1,0.2-0.2,0.3-0.3c-0.2,0.1-0.5,0.2-0.8,0.3C55.3,18.2,54.7,18.4,54,18.6z"/>
<path class="st17" d="M57,15.3L57,15.3c0.1,0,0.1,0.1,0.2,0.1c0.1,0,0.1,0,0.1,0s0,0-0.1,0C57.2,15.3,57.1,15.3,57,15.3z"/>
<path class="st17" d="M56.8,15.2L56.8,15.2L56.8,15.2C56.9,15.2,56.9,15.2,56.8,15.2c-0.2-0.1-0.6-0.2-1-0.3l0,0
	C56.3,15.1,56.6,15.1,56.8,15.2z"/>
<path class="st17" d="M53.1,14.6c-0.9-0.1-1.9-0.1-3-0.1c-2.2,0-4.8,0.1-7.6,0.3s-5.7,0.5-8.7,0.9c-1.2,0.2-2.5,0.3-3.7,0.5
	c-1.6,0.5-3.3,1.1-5,1.6H25c2.8-0.5,5.9-1,8.9-1.5c2.9-0.4,5.9-0.8,8.6-1.1c2.8-0.3,5.3-0.5,7.6-0.5C51.2,14.7,52.2,14.7,53.1,14.6
	c0.9,0.1,1.6,0.2,2.2,0.3h0.1C54.7,14.7,54,14.6,53.1,14.6z"/>
<path class="st17" d="M8.2,29.2c0.1,0.1,0.1,0.1,0.2,0.2c0.1,0.1,0.2,0.1,0.3,0.1s0.2,0.1,0.3,0.1c0.2,0,0.3,0,0.4,0
	c0.2,0,0.4,0,0.7,0c0.4,0,0.8-0.1,1.2-0.1c0.8-0.1,1.6-0.2,2.4-0.4c1.6-0.3,3.1-0.6,4.6-0.9c3.1-0.6,6.1-1.3,8.9-2
	c1.2-0.3,2.4-0.6,3.5-0.9c1-0.2,1.9-0.5,2.9-0.7c0.2,0,0.3-0.1,0.5-0.1c1-0.3,2-0.5,3-0.8c2-0.5,4-1.1,5.8-1.6
	c3.8-1.1,7.1-2.1,9.6-2.9c0.5-0.2,1-0.3,1.4-0.5c0.7-0.2,1.3-0.4,1.8-0.7c0.3-0.1,0.6-0.2,0.8-0.3c0.2-0.1,0.4-0.2,0.6-0.2
	c0.2-0.1,0.4-0.2,0.5-0.3c0.1,0,0.2-0.1,0.2-0.1C57.9,17,58,17,58,16.9c0.1-0.1,0.2-0.1,0.3-0.2s0.2-0.3,0.3-0.5
	c0-0.1,0-0.1,0.1-0.2c0-0.1,0-0.1,0.1-0.2c0,0,0-0.2,0-0.3s0-0.2,0-0.3l0,0l-1.5,0.2l-1.5,0.2c0-0.1,0-0.2,0-0.3l0,0
	c0.2,0,0.3,0,0.5-0.1c0.3,0,0.6,0,0.7,0l0,0h0c0.1,0,0.2,0,0.2,0.1v0.1c0,0,0,0,0-0.1c0,0-0.1-0.1-0.2-0.1l0,0l0,0
	c-0.2,0-0.4,0-0.7,0c-0.1,0-0.3,0-0.5,0c0-0.1,0-0.2,0-0.2v-0.1l0,0l0,0c0-0.1,0-0.1,0.1-0.1c0.1-0.2,0.2-0.3,0.2-0.3
	c0-0.1,0.1-0.1,0.1-0.1l0,0c0,0,0,0-0.1,0.1c-0.1,0-0.2,0.1-0.3,0.2c-0.1,0.1-0.3,0.1-0.4,0.2h-0.1c-0.2,0.1-0.4,0.2-0.6,0.3
	c-0.3,0.1-0.7,0.3-1.1,0.4c-0.2,0-0.3,0.1-0.5,0.1c-2.7,0.5-6.6,1.3-11.2,2.4c-2.1,0.5-4.3,1-6.6,1.6c-1.4,0.4-2.9,0.7-4.4,1.1
	c-1.5,0.4-3.1,0.8-4.7,1.3c-2.9,0.8-5.8,1.6-8.8,2.5c-1.5,0.5-3,0.9-4.5,1.4c-0.8,0.3-1.5,0.5-2.3,0.8c-0.4,0.1-0.8,0.3-1.1,0.5
	c-0.2,0.1-0.4,0.2-0.6,0.3c-0.1,0.1-0.2,0.1-0.3,0.2S8.5,27.9,8.4,28c0,0.1-0.1,0.1-0.2,0.2c0,0.1-0.1,0.1-0.1,0.2
	c0,0.2,0,0.3,0,0.3C8.1,29.1,8.1,29.1,8.2,29.2z M55.8,15.6L55.8,15.6L55.8,15.6L55.8,15.6L55.8,15.6z M17.7,25.8
	c2.9-1,5.9-1.9,8.7-2.8c1.5-0.5,2.9-0.9,4.3-1.3c1.7-0.5,3.3-1,4.9-1.4c2.2-0.6,4.3-1.2,6.3-1.7c4.5-1.2,8.3-2.1,11-2.7
	c-2.5,1-6.3,2.2-10.8,3.7c-1.9,0.6-3.9,1.2-6,1.8c-1.8,0.5-3.6,1.1-5.6,1.6c-1.3,0.4-2.6,0.7-4,1.1c-2.9,0.8-5.8,1.6-8.8,2.3
	c-1.5,0.4-3,0.7-4.6,1c-0.1,0-0.2,0-0.3,0.1c0.1,0,0.2-0.1,0.2-0.1C14.7,26.8,16.2,26.3,17.7,25.8z"/>
<ellipse class="st16" cx="48.3" cy="6.9" rx="0" ry="0"/>
<path class="st16" d="M45.4,6.7c0.1,0,0.1,0,0.2,0l0,0l0,0l0,0C45.5,6.7,45.4,6.7,45.4,6.7z"/>
<path class="st16" d="M47,6.6c0.3,0,0.5-0.1,0.7-0.1c0.1,0,0.1,0,0.2,0l0,0l0,0c0,0-0.1,0-0.2-0.1C47.5,6.5,47.3,6.5,47,6.6
	c-0.3,0-0.6,0-1,0.1c0.2,0,0.4,0,0.6,0C46.7,6.6,46.9,6.6,47,6.6z"/>
<path class="st16" d="M46.1,5.2L46.1,5.2L46.1,5.2c-0.1,0-0.2,0.1-0.2,0.1L46.1,5.2C46,5.3,46.1,5.2,46.1,5.2z"/>
<path class="st16" d="M46.1,5.2C46.2,5.1,46.2,5.1,46.1,5.2C46.2,5.1,46.2,5.1,46.1,5.2z"/>
<path class="st16" d="M48.6,6.8L48.6,6.8L48.6,6.8c-0.2-0.1-0.4-0.2-0.6-0.2c-0.1,0-0.2,0-0.3,0l-2,0.5l0,0V7c0,0,0-0.1,0-0.2
	c0.3-0.1,0.7-0.2,0.9-0.2c-0.2,0-0.4,0-0.6,0c-0.1,0-0.2,0-0.3,0.1l0,0c-0.1,0-0.2,0-0.3,0l0,0c-0.1,0-0.2,0-0.3,0.1
	C44.7,6.9,44.2,7,43.5,7c-0.3,0-0.6,0.1-1,0.1c-0.6,0.3-1.2,0.5-1.8,0.8c0,0-0.1,0-0.1,0.1c-1.4,0.4-3,0.8-4.7,1.4l0,0
	c1-0.2,1.9-0.3,2.8-0.5c3.1-0.5,5.6-1,7.4-1.4c0.9-0.2,1.6-0.4,2-0.6C48.3,6.8,48.5,6.7,48.6,6.8L48.6,6.8L48.6,6.8L48.6,6.8
	L48.6,6.8L48.6,6.8L48.6,6.8C48.5,6.7,48.5,6.7,48.6,6.8L48.6,6.8L48.6,6.8L48.6,6.8z"/>
<path class="st16" d="M30,16.2c2.6-0.9,5.1-1.7,7.3-2.5c1.8-0.6,3.4-1.2,4.9-1.8c1.4-0.6,2.7-1.1,3.8-1.5c0.5-0.2,1-0.4,1.4-0.6
	c0.4-0.2,0.8-0.4,1.1-0.6C48.7,9.1,48.8,9,49,8.9s0.3-0.2,0.5-0.4c0.1-0.1,0.2-0.2,0.3-0.4c0,0,0,0,0-0.1c0,0,0,0,0-0.1
	s0.1-0.1,0.1-0.2S50,7.6,50,7.5l0,0c0,0,0,0,0-0.1V7.3V7.2c0,0,0,0,0-0.1c0,0,0,0,0-0.1s0-0.2,0-0.3l0,0c0,0,0,0,0-0.1V6.5
	c0-0.1,0-0.1,0-0.2s0-0.1,0-0.2V6l0,0l0,0l-2.3,0.6l-0.1,0.1c0.1,0,0.2,0,0.3,0c0.2,0,0.4,0,0.5,0.1c0.1,0,0.1,0,0.1,0.1l0,0l0,0
	l0,0h0.3l0,0l0,0l0,0l0,0V7l0,0l0,0l0,0l0,0l0,0l-0.1,0.1c-0.1,0.1-0.3,0.2-0.6,0.2c-0.5,0.2-1.2,0.4-2.1,0.6
	c-1.8,0.4-4.3,0.9-7.4,1.4C36.9,9.6,35,9.9,33,10.1c-2.9,0.9-6.1,2-9.5,3.1c-2.2,0.8-4.5,1.6-6.8,2.5c-1.2,0.4-2.3,0.9-3.5,1.4
	c-0.6,0.3-1.2,0.5-1.8,0.8c-0.3,0.1-0.6,0.3-0.9,0.5c-0.2,0.1-0.3,0.2-0.5,0.3c-0.1,0.1-0.2,0.1-0.3,0.3c-0.1,0.1-0.1,0.1-0.2,0.3
	l-0.1,0.1c0,0.1-0.1,0.1-0.1,0.2s0,0.2-0.1,0.3c0,0.3,0,0.2,0.1,0.4c0.1,0.2,0.1,0.3,0.2,0.4c0.1,0.1,0.2,0.2,0.2,0.2
	C9.8,21,9.8,21,9.9,21c0.1,0,0.1,0,0.1,0.1c0.2,0.1,0.3,0.1,0.4,0.1c0.2,0,0.3,0,0.4,0c0.2,0,0.4,0,0.6,0c0.4,0,0.7-0.1,1-0.2
	c0.6-0.1,1.3-0.3,1.9-0.4c1.2-0.3,2.5-0.6,3.7-0.9c2.4-0.6,4.7-1.3,6.9-2H25C26.8,17.2,28.4,16.7,30,16.2z M24.1,14.7
	c3.4-1.4,6.6-2.7,9.6-3.8C30.8,12.1,27.6,13.4,24.1,14.7z M11.3,20.7C11.3,20.8,11.3,20.7,11.3,20.7L11.3,20.7z"/>
<path class="st5" d="M38.6,9.4c3.1-0.5,5.6-1,7.4-1.4c0.9-0.2,1.6-0.4,2.1-0.6c0.2,0,0.4-0.1,0.5-0.2c0,0,0.1,0,0.1-0.1l0,0l0,0l0,0
	l0,0l0,0V7l0,0l0,0l0,0l0,0h-0.3h-0.3c0,0,0,0,0-0.1l0,0l0,0l0,0l0,0l0,0l0,0c-0.1,0-0.2,0.1-0.4,0.2c-0.4,0.2-1.1,0.3-2,0.6
	c-1.8,0.4-4.3,0.9-7.4,1.4c-0.7,0-1.6,0.2-2.6,0.3c-2.4,0.4-5,0.8-7.7,1.1c-1.9,0.2-3.9,0.5-6,0.7c-1,0.1-2,0.2-3.1,0.3
	c-0.5,0-1,0.1-1.5,0.1c-0.3,0-0.5,0-0.8,0c-0.1,0-0.3,0-0.4,0s-0.1,0-0.2,0l0,0l0,0c0,0,0.1-0.1,0.2-0.1c0.1-0.1,0.2-0.1,0.4-0.1
	c0.2-0.1,0.5-0.2,0.7-0.2c0.5-0.1,1-0.3,1.5-0.4c1-0.2,2-0.4,3-0.6c2-0.4,4-0.7,5.9-1c3.5-0.6,6.8-1,9.7-1.4c-0.5,0-1.1,0.1-1.7,0.1
	c-2.5,0.3-5.2,0.7-8,1.1c-1.9,0.3-3.9,0.6-5.9,1c-1,0.2-2,0.4-3,0.6c-0.5,0.1-1,0.2-1.5,0.4c-0.3,0.1-0.5,0.1-0.8,0.2
	c-0.1,0-0.2,0.1-0.4,0.1c-0.1,0-0.1,0.1-0.2,0.1c0,0-0.1,0-0.1,0.1l0,0l0,0v0.1c0,0,0,0,0,0.1c0,0,0,0,0,0.1l0,0l0,0l0,0h0.1
	c0.1,0,0.1,0,0.2,0c0.1,0,0.3,0,0.4,0c0.3,0,0.5,0,0.8,0c0.5,0,1,0,1.6-0.1c1-0.1,2.1-0.1,3.1-0.2c2-0.2,4-0.4,6-0.6
	c1.7-0.2,3.3-0.4,4.9-0.6C35,10,36.9,9.7,38.6,9.4z M48.3,6.8L48.3,6.8L48.3,6.8C48.3,6.9,48.3,6.9,48.3,6.8
	C48.3,6.9,48.3,6.8,48.3,6.8z"/>
<path class="st5" d="M45.4,6.7C45.3,6.7,45.3,6.7,45.4,6.7c0,0,0.1,0,0.2,0c0.1,0,0.2,0,0.2,0s0,0,0.1,0c0.2,0,0.4,0,0.6,0
	c0.4,0,0.8,0,1.1,0c0.1,0,0.2,0,0.3,0c0.2,0,0.4,0,0.5,0.1c0.1,0,0.1,0,0.1,0.1l0,0l0,0l0,0l0,0l0,0l0,0c0,0-0.1,0-0.1-0.1
	c-0.1,0-0.3-0.1-0.5-0.1c-0.1,0-0.2,0-0.3,0c-0.3,0-0.6,0-1.1,0c-0.2,0-0.4,0-0.6,0c-0.1,0-0.1,0-0.2,0S45.5,6.7,45.4,6.7
	C45.5,6.7,45.4,6.7,45.4,6.7L45.4,6.7z"/>
<path class="st16" d="M37.8,7.5c1.8-0.1,3.3-0.2,4.5-0.3c0.3,0,0.7-0.1,1-0.1C44,7,44.5,7,44.9,6.9c0.1,0,0.2,0,0.3-0.1l0,0h0.1l0,0
	h0.1l0,0l0,0c0,0,0,0,0.1,0c0,0,0,0,0.1,0c0,0,0,0,0.1,0s0.1-0.1,0.1-0.1s0,0,0.1,0c0,0,0,0,0.1,0l0-0.1l0,0l0,0l0,0
	c0,0,0-0.1,0.1-0.1c0.1-0.1,0.2-0.2,0.2-0.3c0.1-0.5,0.2-0.6,0.2-0.7l0,0l0,0L46,5.3h-0.1l-0.8-0.2L44.7,5c0.1,0,0.2,0,0.3,0h0.1
	l0,0l0,0H45c-0.1,0-0.2,0-0.4-0.1h-0.1l-0.9-0.1l0,0c0-0.1,0.1-0.2,0.1-0.3c0.1-0.1,0.1-0.2,0.2-0.3c0,0,0-0.1,0.1-0.1l0,0l0,0l0,0
	c0,0,0.1,0,0.1-0.1l0,0l0,0c0,0,0.1,0,0.1-0.1l0,0l0,0H44c-0.3,0.1-0.8,0.2-1.4,0.3c-1.1,0.1-2.9,0.4-5.1,0.7
	C37,5,36.4,5.1,35.7,5.1C33.9,5.2,32,5.3,30,5.4c-1.4,0.1-2.9,0.2-4.3,0.3c-0.7,0.1-1.5,0.1-2.2,0.2c-0.4,0-0.8,0.1-1.1,0.1
	c-0.2,0-0.4,0.1-0.6,0.1c-0.2,0.2-0.3,0.2-0.5,0.2c-0.1,0-0.1,0-0.2,0.1c0,0,0,0-0.1,0c0,0,0,0-0.1,0c0,0,0,0-0.1,0
	c0,0-0.1,0-0.1,0.1c0,0-0.2,0.2-0.2,0.3c0,0.1,0,0.1,0,0.1s0,0.1,0,0.2c0,0.2,0.2,0.4,0.2,0.5c0.1,0.1,0.2,0.1,0.2,0.2
	c0,0,0.1,0,0.1,0.1c0,0,0,0,0.1,0h0.1h0.1c0.1,0,0.1,0,0.2,0s0.2,0,0.3,0c0.2,0,0.4,0,0.6,0c0.4,0,0.8,0,1.1,0c0.8,0,1.5,0,2.2,0
	c1.5,0,2.9-0.1,4.3-0.1c2-0.1,3.9-0.2,5.6-0.3c0.6,0,1.1-0.1,1.7-0.1C37.6,7.5,37.7,7.5,37.8,7.5z M43.6,4.9L43.6,4.9L43.6,4.9
	L43.6,4.9z M21.7,7.8L21.7,7.8L21.7,7.8L21.7,7.8z"/>
<path class="st16" d="M20.5,7L20.5,7L20.5,7z"/>
<path class="st16" d="M44.4,3.8L44.4,3.8L44.4,3.8L44.4,3.8L44.4,3.8L44.4,3.8z"/>
<path class="st5" d="M33.7,29.8c-0.8,0.1-1.7,0.1-2.5,0.2c-1,0.1-2.1,0.2-3.2,0.3c-1.9,0.2-3.8,0.3-5.8,0.5c-1,0.1-2,0.2-3.1,0.3
	c-0.2,0-0.3,0-0.5,0.1c-1.6,0.2-3.2,0.4-4.8,0.6c-0.8,0.1-1.6,0.2-2.4,0.3c-0.4,0.1-0.8,0.1-1.2,0.2c-0.2,0-0.4,0.1-0.6,0.1
	c-0.1,0-0.2,0.1-0.3,0.1s-0.1,0-0.2,0.1c0,0-0.1,0-0.1,0.1c0,0,0,0-0.1,0.1v0.1C8.9,33,8.9,33,9,33c0,0,0,0,0.1,0h0.1
	c0.1,0,0.1,0,0.2,0c0.1,0,0.2,0,0.3,0c0.2,0,0.4,0,0.6,0c0.2,0,0.5,0,0.7,0s0.4,0,0.5,0c0.4,0,0.7,0,1.1,0c0.5,0,0.9,0,1.4,0
	c1.6,0,3.2-0.1,4.8-0.2c3.2-0.1,6.3-0.3,9.4-0.5c1.1-0.1,2.2-0.2,3.3-0.2c0.8-0.1,1.6-0.1,2.4-0.2c1.1-0.1,2.1-0.2,3.2-0.2
	c0.7-0.1,1.4-0.1,2.1-0.2c2-0.2,3.9-0.3,5.6-0.5c4.8-0.5,8.9-0.9,11.7-1.3c1.4-0.2,2.5-0.4,3.3-0.5c0.4-0.1,0.7-0.1,0.9-0.2
	c0.1,0,0.2-0.1,0.3-0.1c0,0,0,0,0.1-0.1l0,0l0,0l0,0l0,0c0-0.1,0-0.1,0-0.1l0,0h-0.3h-0.3l0,0l0,0l0,0l0,0c0.1,0,0.2,0,0.2,0.1v0.1
	c0,0,0,0,0-0.1c0,0-0.1,0-0.2-0.1l0,0l0,0c0,0,0,0-0.1,0c-0.2,0-0.5-0.1-0.8-0.1c-0.8,0-1.9,0-3.3,0c-2.8,0.1-6.9,0.2-11.8,0.5
	c-1.8,0.1-3.7,0.2-5.7,0.4c-0.8,0.1-1.6,0.1-2.5,0.2C35.5,29.7,34.6,29.7,33.7,29.8z M44.6,29.1c4.9-0.3,8.9-0.5,11.7-0.6
	c1.4,0,2.5,0,3.3,0c0.4,0,0.6,0,0.8,0.1l0,0c-0.2,0.1-0.4,0.1-0.8,0.2c-0.7,0.2-1.8,0.3-3.2,0.5c-2.8,0.4-6.8,0.9-11.7,1.3
	c-1.8,0.2-3.7,0.4-5.6,0.5c-0.7,0.1-1.4,0.1-2.1,0.2c-1,0.1-2.1,0.2-3.1,0.3c-0.8,0.1-1.6,0.1-2.4,0.2c-1.1,0.1-2.1,0.2-3.2,0.2
	c-3,0.2-6.2,0.4-9.4,0.6c-1.6,0.1-3.2,0.2-4.8,0.2c-0.8,0-1.6,0-2.4,0c-0.4,0-0.8,0-1.2,0c-0.2,0-0.4,0-0.6,0l0,0
	c-0.1,0-0.2,0-0.3,0l0,0l0,0l0,0l0,0c0,0,0,0,0.1,0s0.1,0,0.2-0.1c0.2-0.1,0.4-0.1,0.6-0.1c0.4-0.1,0.8-0.2,1.2-0.2
	c0.8-0.1,1.6-0.2,2.4-0.4c0.7-0.1,1.3-0.2,2-0.2c0.9-0.1,1.9-0.2,2.8-0.3c0.3,0,0.6-0.1,0.9-0.1c2.9-0.3,5.7-0.6,8.5-0.9
	c1.1-0.1,2.1-0.2,3.2-0.3c0.8-0.1,1.7-0.1,2.5-0.2c0.9-0.1,1.9-0.2,2.8-0.2c0.8-0.1,1.6-0.1,2.4-0.2C40.9,29.4,42.8,29.2,44.6,29.1z
	"/>
<path class="st17" d="M58.8,33.3L58.8,33.3C58.8,33.3,58.7,33.3,58.8,33.3C58.7,33.3,58.8,33.3,58.8,33.3L58.8,33.3z"/>
<path class="st17" d="M9.5,38L9.5,38L9.5,38z"/>
<path class="st17" d="M34.4,34.7c-0.8,0-1.5,0.1-2.3,0.1c-0.2,0-0.4,0-0.6,0c-1,0-2,0.1-3,0.1c-0.9,0-1.8,0.1-2.7,0.1
	c-2.1,0.1-4.2,0.2-6.3,0.4c-1.5,0.1-3.1,0.3-4.6,0.4c-0.8,0.1-1.6,0.2-2.4,0.3c-0.4,0.1-0.8,0.1-1.2,0.2c-0.2,0-0.4,0.1-0.7,0.2
	c-0.1,0-0.2,0.1-0.4,0.2c-0.1,0-0.2,0.1-0.3,0.2L9.8,37c0,0-0.1,0.1-0.2,0.2c0.1,0.1,0,0.2,0,0.4c-0.1,0.2-0.1,0.3-0.1,0.4
	c0,0.5,0.1,0.4,0.1,0.6c0.1,0.1,0.1,0.2,0.2,0.3S9.9,39,10,39.1l0.1,0.1c0.2,0,0.3,0.1,0.4,0.1c0.2,0.1,0.3,0.1,0.4,0.1
	c0.2,0.1,0.5,0.1,0.7,0.1c0.4,0.1,0.8,0.1,1.2,0.1c0.8,0.1,1.6,0.1,2.4,0.2c1.6,0.1,3.1,0.1,4.7,0.1c3.1,0,6.1,0,9,0
	c1.4,0,2.8-0.1,4.2-0.1c0.7,0,1.3,0,2-0.1c3.5-0.1,6.8-0.3,9.8-0.4c2.3-0.1,4.5-0.3,6.4-0.4c1.9-0.2,3.6-0.3,5-0.5
	c0.7-0.1,1.3-0.2,1.9-0.3c0.6-0.1,1-0.2,1.5-0.3c0.2-0.1,0.4-0.1,0.6-0.2c0.1,0,0.2-0.1,0.3-0.1s0.2-0.1,0.3-0.1
	c0.1-0.1,0.3-0.1,0.4-0.3c0.2-0.1,0.4-0.3,0.6-0.6l0.1-0.1c0,0,0,0,0-0.1l0,0l0,0c0-0.1,0-0.2,0-0.3c0,0,0,0,0-0.1c0,0,0,0,0-0.1
	c0,0,0,0,0-0.1s0-0.2,0.1-0.2c0-0.1,0-0.3,0.1-0.4l0,0L59.9,35l-2.3-0.1c0-0.1,0-0.2,0-0.3c0.5,0,0.9,0,1.3,0.1
	c0.4,0,0.6,0.1,0.8,0.1c0.1,0,0.2,0.1,0.2,0.1V35c0,0,0,0,0-0.1c0,0-0.1-0.1-0.2-0.1c-0.2-0.1-0.5-0.1-0.8-0.2
	c-0.3-0.1-0.8-0.1-1.3-0.1c0-0.1,0-0.1,0.1-0.2c0,0,0,0,0-0.1l0,0c0,0,0,0,0-0.1s0.1-0.2,0.1-0.2s0,0,0-0.1l0,0c0,0,0-0.1,0.1-0.1
	c0.2-0.2,0.4-0.4,0.5-0.5s0.2-0.1,0.2-0.1c-0.1,0-0.2,0.1-0.3,0.1c-0.3,0.1-0.7,0.2-1.2,0.3s-1.1,0.2-1.7,0.3
	c-0.9,0.1-1.9,0.3-3.1,0.5c-2.3,0-4.9-0.1-8,0c-1.7,0-3.5,0.1-5.4,0.1c-0.5,0-1,0-1.5,0C36.6,34.6,35.5,34.6,34.4,34.7z M11.4,38.9
	L11.4,38.9L11.4,38.9z M44.6,35.1c1.4-0.1,2.7-0.1,4-0.2c-1.1,0.1-2.2,0.3-3.4,0.4c-0.2,0-0.4,0-0.6,0.1c-2.2,0.2-4.5,0.4-6.9,0.7
	c-1,0.1-1.9,0.2-2.9,0.2c-0.7,0.1-1.4,0.1-2.2,0.2c-1.2,0.1-2.5,0.2-3.8,0.3c-2.1,0.1-4.3,0.3-6.5,0.4c2.2-0.3,4.4-0.5,6.5-0.7
	c1.3-0.1,2.5-0.2,3.7-0.3c0.7-0.1,1.5-0.1,2.2-0.2c0.1,0,0.1,0,0.2,0c2.9-0.2,5.6-0.4,8.1-0.6C43.5,35.2,44,35.2,44.6,35.1z"/>
<path class="st5" d="M29.9,41.9c-2.6,0.2-5.2,0.5-7.9,0.8c-1.4,0.2-2.7,0.4-4.1,0.6c-0.7,0.1-1.4,0.3-2.1,0.5
	c-0.4,0.1-0.7,0.2-1.1,0.4l-0.1,0.1h-0.2l-0.2,0.1c-0.1,0-0.1,0.1-0.2,0.1l-0.1,0.1l0,0h-0.1l-0.1,0.1l-0.1,0.1c0,0,0,0.1-0.1,0.1
	c0,0,0,0.1-0.1,0.1c0,0,0,0.1-0.1,0.1c0,0,0,0.1-0.1,0.1c0,0,0,0.1-0.1,0.2c0,0.1,0,0.2-0.1,0.3c0,0.1,0,0.1,0,0.1
	c0,0.1,0-0.1,0,0.2c0,0.1,0,0.1,0,0.2c0,0.1,0,0.1,0.1,0.2c0,0.1,0,0.1,0.1,0.2c0,0.1,0.1,0.1,0.1,0.1l0.1,0.1l0.1,0.1l0.1,0.1
	l0.1,0.1l0.1,0.1l0.1,0.1H14c0,0,0,0,0.1,0l0.1,0.1c0.1,0,0.1,0.1,0.2,0.1l0.2,0.1l0.2,0.1H15c0.4,0.1,0.8,0.2,1.1,0.2
	c0.7,0.1,1.4,0.2,2.1,0.3c1.4,0.1,2.8,0.2,4.2,0.2c2.7,0.1,5.4,0.1,8,0c1.3,0,2.5-0.1,3.7-0.1c0.5,0,0.9,0,1.4-0.1
	c0.8,0,1.6-0.1,2.4-0.1c2.4-0.1,4.6-0.3,6.7-0.5c2.1-0.2,4-0.4,5.7-0.6c1.7-0.2,3.2-0.5,4.4-0.7c0.6-0.1,1.2-0.3,1.7-0.4
	c0.5-0.1,1-0.3,1.4-0.5c0.2-0.1,0.4-0.2,0.7-0.3c0.2-0.1,0.5-0.3,0.7-0.6c0.1-0.1,0.1-0.2,0.2-0.3c0,0,0,0,0-0.1l0,0l0,0
	c0-0.1,0.1-0.1,0.1-0.2c0-0.1,0.1-0.1,0.1-0.2l0,0l0,0l0,0c0,0,0-0.1,0.1-0.1c0.1-0.2,0.1-0.4,0.1-0.5s0-0.2,0-0.2l-2.3-0.1
	l-2.3-0.1c0,0,0,0,0-0.1s0-0.3,0.1-0.5l0,0c0.6,0.1,1,0.1,1.4,0.2c0.3,0.1,0.5,0.2,0.7,0.3c0.1,0.1,0.1,0.1,0.1,0.1l0,0l0,0l0,0l0,0
	c0,0,0-0.1-0.1-0.2c-0.1-0.1-0.4-0.2-0.7-0.3c-0.4-0.1-0.8-0.2-1.4-0.3l0,0c0,0,0-0.1,0.1-0.1c0,0,0-0.1,0.1-0.1c0,0,0-0.1,0.1-0.1
	c0-0.1,0.1-0.1,0.1-0.2c0.1-0.1,0.2-0.2,0.2-0.2l0,0c-0.1,0.1-0.4,0.2-0.8,0.3c-0.2,0.1-0.5,0.1-0.8,0.2c-0.1,0-0.2,0-0.3,0
	c-2.4-0.2-5.8-0.3-10-0.3c-2.1,0-4.3,0.1-6.7,0.2c-0.7,0-1.4,0.1-2.2,0.1c-0.6,0-1.2,0.1-1.8,0.1C32.2,41.7,31.1,41.8,29.9,41.9z
	 M15.3,46.4L15.3,46.4L15.3,46.4L15.3,46.4L15.3,46.4L15.3,46.4L15.3,46.4z M37.4,42.5c2.3-0.2,4.6-0.4,6.6-0.5
	c4-0.3,7.3-0.3,9.7-0.2h-0.1c-1,0.2-2.4,0.5-4,0.8s-3.5,0.6-5.5,0.9c-2,0.3-4.2,0.6-6.5,0.8c-0.7,0.1-1.5,0.2-2.2,0.2
	c-0.5,0.1-1.1,0.1-1.6,0.2c-1.2,0.1-2.3,0.2-3.5,0.3c-2.5,0.2-5.2,0.4-7.9,0.4c-1.3,0-2.7,0-4,0c-0.1,0-0.2,0-0.3,0
	c0.1,0,0.2,0,0.2-0.1c1.3-0.3,2.6-0.6,3.9-0.8c2.6-0.5,5.3-0.9,7.8-1.2c1.2-0.2,2.3-0.3,3.5-0.4c0.6-0.1,1.2-0.1,1.7-0.2
	C36,42.6,36.7,42.6,37.4,42.5z"/>
<path class="st5" d="M56,40.9L56,40.9L56,40.9C56,40.9,55.9,41,56,40.9C55.9,41,56,41,56,40.9C56,41,56,40.9,56,40.9z"/>
<path class="st5" d="M30,50.2c-2.1-0.1-4.2-0.2-6.4-0.2c-1.1,0-2.2,0-3.3,0c-0.6,0-1.1,0-1.7,0.1c-0.3,0-0.6,0-0.8,0.1
	c-0.1,0-0.3,0-0.4,0.1c-0.1,0-0.1,0-0.2,0.1c0,0-0.1,0-0.1,0.1c0,0,0,0-0.1,0.1c0,0,0,0,0,0.1v0.1c0,0.1,0,0.1,0,0.1s0,0,0,0.1
	c0,0,0,0,0.1,0.1l0.1,0.1c0.1,0,0.1,0.1,0.2,0.1s0.3,0.1,0.4,0.1c0.3,0.1,0.5,0.1,0.8,0.2c0.5,0.1,1.1,0.2,1.6,0.3
	c1.1,0.2,2.2,0.3,3.3,0.4c2.2,0.2,4.3,0.4,6.4,0.6c1.6,0.1,3.1,0.2,4.6,0.3c0.3,0,0.7,0,1,0.1c2,0.1,3.9,0.2,5.7,0.3
	c3.3,0.1,6.1,0.2,8,0.1c1,0,1.7-0.1,2.3-0.1c0.3,0,0.5-0.1,0.6-0.1s0.2-0.1,0.2-0.1l0,0l0,0c0,0,0,0,0-0.1c0,0,0,0,0-0.1l0,0H52
	h-0.3l0,0l0,0l0,0l0,0l0,0c-0.1,0-0.3,0.1-0.5,0.1c-0.5,0.1-1.2,0.1-2.2,0.1c-1.9,0.1-4.7,0-8-0.1c-1.8-0.1-3.7-0.1-5.7-0.2
	c-0.3,0-0.7,0-1.1-0.1c-1.5-0.1-3-0.2-4.6-0.3c-2.1-0.1-4.2-0.3-6.4-0.5c-1.1-0.1-2.2-0.2-3.3-0.4c-0.5-0.1-1.1-0.2-1.6-0.2
	c-0.3,0-0.5-0.1-0.8-0.2c-0.1,0-0.3-0.1-0.4-0.1s-0.1,0-0.2-0.1l0,0l0,0c0.1,0,0.1,0,0.2-0.1c0.1,0,0.3,0,0.4-0.1
	c0.3,0,0.5-0.1,0.8-0.1c0.5,0,1.1-0.1,1.6-0.1c1.1,0,2.2,0,3.3,0c2.2,0,4.3,0.1,6.4,0.2c1.5,0.1,2.9,0.1,4.3,0.2
	c0.4,0,0.8,0,1.2,0.1c2.1,0.1,4,0.2,5.8,0.4c3.3,0.3,6.1,0.5,8,0.8c1,0.1,1.7,0.3,2.2,0.4c0.3,0.1,0.4,0.1,0.6,0.2
	c0.1,0,0.1,0.1,0.1,0.1l0,0l0,0l-0.1-0.1c-0.1-0.1-0.3-0.1-0.6-0.2c-0.5-0.1-1.3-0.3-2.2-0.4c-1.9-0.3-4.7-0.6-8-0.9
	c-1.8-0.2-3.7-0.3-5.8-0.4c-0.4,0-0.8,0-1.2-0.1C32.9,50.4,31.5,50.3,30,50.2z"/>
<path class="st16" d="M48.8,64.2L48.8,64.2C48.9,64.2,48.9,64.2,48.8,64.2C48.9,64.1,48.9,64.1,48.8,64.2
	C48.8,64.1,48.8,64.1,48.8,64.2C48.8,64.1,48.8,64,48.8,64.2C48.9,64.1,48.9,64.1,48.8,64.2c-0.1,0-0.3,0.1-0.6,0.2
	c-0.2,0.1-0.5,0.2-0.9,0.4c-0.7,0.2-1.6,0.5-2.7,0.7c-1.1,0.2-2.3,0.5-3.6,0.7s-2.8,0.4-4.3,0.5c-1.5,0.2-3.1,0.3-4.8,0.4
	s-3.4,0.1-5.2,0.1c-0.9,0-1.8-0.1-2.6-0.2c-0.4-0.1-0.9-0.1-1.3-0.2c-0.2-0.1-0.4-0.1-0.6-0.2c-0.1,0-0.2-0.1-0.2-0.1l0,0l0,0
	c0,0,0.1-0.1,0.2-0.2s0.3-0.2,0.5-0.3c0.4-0.2,0.8-0.3,1.2-0.5c0.8-0.3,1.7-0.5,2.6-0.7c1.7-0.4,3.4-0.7,5.1-0.9s3.3-0.4,4.8-0.5
	s3-0.2,4.3-0.2c2.7-0.1,4.9,0,6.5,0.2c0.8,0.1,1.4,0.3,1.8,0.5c0.1,0,0.2,0.1,0.2,0.1c0.1,0.1,0.1,0.1,0.1,0.1v0.1l0,0
	c0,0,0-0.1,0-0.2c0,0-0.1-0.1-0.1-0.2c-0.1-0.1-0.1-0.1-0.2-0.2c-0.4-0.2-1-0.4-1.8-0.5c-1.6-0.3-3.8-0.4-6.5-0.4
	c-1.4,0-2.8,0-4.4,0.1c-1.5,0.1-3.2,0.2-4.9,0.4c-1.7,0.2-3.4,0.4-5.2,0.8c-0.9,0.2-1.8,0.4-2.6,0.6c-0.4,0.1-0.9,0.3-1.3,0.5
	c-0.2,0.1-0.4,0.2-0.7,0.4c-0.1,0.1-0.2,0.2-0.3,0.3c-0.1,0.1-0.1,0.1-0.1,0.2v0.1v0.1c0,0,0,0,0,0.1l0,0l0,0c0,0,0,0,0,0.1
	s0.1,0.2,0.1,0.3c0.1,0.1,0.1,0.2,0.2,0.2c0.1,0.1,0.2,0.2,0.4,0.3c0.2,0.1,0.5,0.2,0.7,0.3c0.5,0.1,0.9,0.2,1.4,0.3
	c0.9,0.1,1.8,0.2,2.7,0.3c1.8,0.1,3.5,0.1,5.2,0.1c1.7,0,3.3-0.1,4.9-0.2c1.6-0.1,3-0.3,4.4-0.4c1.4-0.2,2.6-0.4,3.7-0.6
	c1.1-0.2,2-0.4,2.8-0.7c0.4-0.1,0.7-0.3,1.1-0.4c0.3-0.1,0.6-0.3,0.8-0.5c0.1-0.1,0.2-0.2,0.3-0.3c0.1-0.1,0.2-0.3,0.2-0.4v-0.1l0,0
	c0,0,0,0,0-0.1v-0.1l0,0l0,0l0,0h-0.8L48.8,64.2z M22.2,66.3L22.2,66.3L22.2,66.3L22.2,66.3z M22.2,66.4L22.2,66.4L22.2,66.4z
	 M48.8,64.3L48.8,64.3L48.8,64.3L48.8,64.3L48.8,64.3L48.8,64.3z"/>
<path class="st17" d="M44.1,59.7c-1,0-2,0.1-3.2,0.1c-0.3,0-0.5,0-0.8,0c0.4,0.1,0.7,0.1,1,0.2C42.2,60,43.2,59.9,44.1,59.7z"/>
<path class="st17" d="M50.1,60C50.1,60,50,60,50.1,60c-0.2-0.1-0.4-0.2-0.6-0.2s-0.6-0.1-0.9-0.1c0,0,0,0,0,0.1l0,0L50.1,60
	C50.1,60.1,50.1,60.1,50.1,60L50.1,60z"/>
<path class="st17" d="M30.3,53.8c-1.9-0.3-3.8-0.7-5.8-0.9c-1-0.1-2-0.3-3-0.4c-0.5-0.1-1-0.1-1.6-0.1c-0.3,0-0.5,0-0.8,0
	c-0.1,0-0.3,0-0.5,0c0,0-0.1,0-0.2,0l0,0l0,0h-0.1h-0.1h-0.1H18l-0.1,0.1c-0.1,0-0.1,0-0.2,0.2c-0.1,0.1-0.2,0.3-0.2,0.4
	c0,0.1,0.1-0.2-0.1,0.2c0,0.1,0,0.3,0,0.5c0,0.1,0.1,0.2,0.1,0.3c0.1,0.1,0.1,0.1,0.1,0.2l0.1,0.1l0.1,0.1l0.1,0.1l0.1,0.1l0.1,0.1
	l0,0l0,0c0.1,0,0.1,0.1,0.1,0.1c0.2,0.1,0.3,0.1,0.5,0.2c0.3,0.1,0.5,0.2,0.8,0.3c0.5,0.2,1,0.3,1.5,0.5c1,0.3,2,0.5,3,0.8
	c2,0.5,3.9,0.9,5.8,1.3c1.8,0.4,3.6,0.7,5.3,1.1c0.2,0,0.3,0.1,0.5,0.1c0.6,0.1,1.2,0.2,1.8,0.3c1.3,0,2.5,0,3.7,0
	c2,0,3.7,0,5.1,0.1c0.6-0.1,1.1-0.2,1.5-0.2c0.4-0.1,0.7-0.1,1-0.2c0.3-0.1,0.5-0.1,0.7-0.2c0.1,0,0.1,0,0.1,0l0,0l0,0l0,0
	c0,0,0,0-0.1,0l-0.1,0.1l0,0l0,0l-0.1,0.1c0,0,0,0.1-0.1,0.1c0,0.1-0.1,0.2-0.1,0.2c0,0.1-0.1,0.1-0.1,0.2c0.4,0,0.7,0.1,0.9,0.1
	s0.4,0.1,0.5,0.1s0.1,0.1,0.1,0.1l0,0l0,0l1.2,0.3l0,0l0,0l0,0c0,0,0,0,0,0.1c0,0,0,0,0,0.1c0,0,0.2-0.2,0.3-0.3
	c0.2-0.2,0.4-0.5,0.4-0.7l0,0l0,0l-2.2-0.8L48.3,58c0.5,0.1,0.9,0.2,1.2,0.3c0.2,0.1,0.4,0.1,0.5,0.2c0.1,0,0.1,0.1,0.1,0.1l0,0l0,0
	l0,0l0,0l0,0l0,0c0,0,0-0.1-0.1-0.1c-0.1-0.1-0.3-0.2-0.5-0.2c-0.4-0.2-0.9-0.3-1.5-0.5c0.1-0.2,0.2-0.4,0.4-0.6
	c0-0.1,0.1-0.1,0.2-0.2c0.1-0.1,0.1-0.1,0.1-0.1l0.1-0.1c0,0,0.1-0.1,0.2-0.1c0,0,0,0,0.1,0l0,0h0.1c0,0,0,0,0.1,0l0,0h0.1l0,0l0,0
	c-0.1,0-0.2,0-0.3,0s-0.3,0-0.4,0c-0.3,0-0.7,0-1.1,0c-0.8,0-1.9-0.1-3.1-0.2c-0.8-0.1-1.7-0.1-2.6-0.2c-0.5-0.1-0.9-0.2-1.4-0.3
	c-1.5-0.3-3.2-0.7-5-1c-0.3-0.1-0.6-0.1-0.9-0.2C33.2,54.3,31.8,54,30.3,53.8z M18.9,54.6L18.9,54.6L18.9,54.6L18.9,54.6L18.9,54.6
	L18.9,54.6L18.9,54.6z"/>
<path class="st17" d="M49.5,56.4L49.5,56.4L49.5,56.4L49.5,56.4C49.4,56.5,49.4,56.5,49.5,56.4C49.4,56.4,49.4,56.4,49.5,56.4z"/>
<path class="st5" d="M49.7,61.9c-0.1,0-0.2-0.1-0.4-0.1c-0.4-0.1-1.1-0.3-1.9-0.4c-1.6-0.3-3.9-0.6-6.7-0.9c-0.4,0-0.9-0.1-1.4-0.1
	c-1.3,0.1-2.7,0.2-4.1,0.4c-0.1,0-0.2,0-0.3,0c-1.1,0.1-2.3,0.2-3.5,0.2c-0.6,0-1.3,0.1-1.9,0.1c0.5,0.1,1.1,0.1,1.6,0.2
	c3.5,0.4,6.8,0.6,9.6,0.8s5.2,0.2,6.8,0.2c0.5,0,1,0,1.3-0.1c0.1,0,0.2,0,0.3,0C49.3,62,49.5,61.9,49.7,61.9z"/>
<path class="st5" d="M31,61.5c-1.2-0.1-2.4-0.3-3.7-0.5c-0.2,0-0.5,0-0.7,0c0.2,0,0.3,0,0.5-0.1c-0.5-0.1-1-0.1-1.5-0.2
	c-0.9-0.1-1.8-0.3-2.8-0.5c-0.2,0-0.3-0.1-0.5-0.1s-0.4,0.1-0.6,0.1s-0.5,0.1-0.7,0.2c-0.1,0-0.3,0.1-0.4,0.1h-0.1h-0.1
	c0,0,0,0-0.1,0c0,0,0,0-0.1,0c0,0-0.1,0-0.1,0.1L20,60.7l-0.1,0.1c0,0-0.1,0.1-0.1,0.2c0,0.1-0.1,0.2-0.1,0.2c0,0.1,0-0.1,0,0.2
	c0,0.1,0,0.2,0.1,0.3c0,0.1,0.1,0.1,0.1,0.2C19.9,62,20,62,20,62l0.1,0.1l0.1,0.1c0,0,0.1,0,0.1,0.1h0.1h0.1h0.1h0.1
	c0.2,0,0.3,0.1,0.4,0.1c0.3,0.1,0.5,0.1,0.7,0.1c0.5,0.1,1,0.1,1.4,0.1c0.9,0.1,1.9,0.1,2.8,0.1c1.8,0.1,3.7,0.1,5.4,0.1
	c3.5,0,6.8-0.1,9.6-0.3c1-0.1,1.9-0.1,2.8-0.2c-1,0-2.1-0.1-3.3-0.2C37.8,62.2,34.5,61.9,31,61.5z M21.1,62.1L21.1,62.1L21.1,62.1
	L21.1,62.1L21.1,62.1L21.1,62.1z"/>
<path class="st5" d="M34.9,60.3c0.1,0,0.3,0,0.4,0c0.8-0.1,1.5-0.1,2.2-0.2c-1.9-0.2-3.9-0.4-6.1-0.5c-0.1,0-0.1,0-0.2,0
	c-1.7,0.1-3.6,0.2-5.4,0.3c-0.9,0.1-1.7,0.1-2.6,0.2c0.8,0.1,1.6,0.3,2.4,0.4c0.9,0.1,1.9,0.2,2.8,0.4c1-0.1,2-0.2,2.9-0.3
	C32.6,60.4,33.8,60.3,34.9,60.3z"/>
<path class="st5" d="M51.6,60.3L51.6,60.3L51.6,60.3L51.6,60.3L50.1,60l-1.5-0.1l0,0c0,0,0,0,0-0.1c0.4,0,0.7,0,0.9,0.1
	c0.2,0,0.4,0.1,0.5,0.1s0.1,0,0.1,0.1l0,0l0,0l0,0l0,0c0,0,0-0.1-0.1-0.1c-0.1-0.1-0.3-0.1-0.5-0.1s-0.5-0.1-0.9-0.1
	c0-0.1,0-0.1,0.1-0.2c0-0.1,0.1-0.2,0.1-0.2s0-0.1,0.1-0.1c0,0,0-0.1,0.1-0.1l0,0l0,0l0.1-0.1c0,0,0,0,0.1,0l0,0H49
	c-0.1,0-0.4,0.1-0.7,0.2c-0.3,0.1-0.6,0.1-1,0.2c-0.4,0.1-0.9,0.2-1.5,0.2c-1.4-0.1-3.1-0.1-5.1-0.1c-1.1,0-2.4,0-3.7,0
	c-0.6,0-1.2,0-1.9,0c-0.1,0-0.3,0-0.4,0c-0.7,0-1.3,0-2,0.1c1.9,0.2,3.6,0.3,5.3,0.5c0.6,0,1.3-0.1,1.9-0.1c0.3,0,0.5,0,0.8,0
	c1.1-0.1,2.2-0.1,3.2-0.1C43,60.1,42,60.2,41,60.3c-0.1,0-0.2,0-0.3,0c-0.3,0-0.7,0.1-1,0.1c0.3,0,0.6,0.1,0.9,0.1
	c2.8,0.3,5.1,0.7,6.7,1c0.8,0.2,1.4,0.3,1.9,0.4c0.2,0,0.3,0.1,0.4,0.1c0.1,0,0.1,0,0.2,0c0.1,0,0.3-0.1,0.4-0.1
	c0.1-0.1,0.3-0.1,0.4-0.2l0.1-0.1c0.1,0,0.1-0.1,0.2-0.1l0,0c0,0,0,0,0.1-0.1l0.1-0.1l0.1-0.1c0.1-0.1,0.1-0.2,0.1-0.3
	s0.1-0.2,0.1-0.3c0,0,0,0,0-0.1C51.6,60.4,51.6,60.4,51.6,60.3C51.6,60.4,51.6,60.3,51.6,60.3z"/>
<path class="st5" d="M49.2,58.8C49.2,58.8,49.3,58.8,49.2,58.8C49.3,58.8,49.3,58.8,49.2,58.8z"/>
<path class="st16" d="M47.5,61.3c-1.6-0.3-3.9-0.7-6.7-1c-0.3,0-0.6-0.1-0.9-0.1c-0.5-0.1-1.1-0.1-1.7-0.2c-1.7-0.2-3.4-0.3-5.3-0.5
	c-0.6,0-1.1-0.1-1.7-0.1c-1.8-0.1-3.6-0.2-5.4-0.3c-0.9,0-1.9-0.1-2.8-0.1c-0.5,0-0.9,0-1.4,0c-0.2,0-0.5,0-0.7,0.1
	c-0.1,0-0.2,0-0.4,0.1c-0.1,0-0.1,0-0.2,0.1h-0.1c0,0,0,0-0.1,0l0,0l0,0c0,0,0,0,0,0.1l0,0c0,0,0,0,0,0.1c0,0,0,0,0,0.1l0,0l0,0l0,0
	l0,0c0.1,0,0.1,0.1,0.2,0.1c0.1,0.1,0.2,0.1,0.3,0.1c0.2,0.1,0.5,0.1,0.7,0.2c0.3,0.1,0.6,0.1,0.9,0.2c0.2,0,0.3,0.1,0.5,0.1
	c0.9,0.2,1.8,0.3,2.8,0.5c0.5,0.1,1,0.1,1.5,0.2c0.1,0,0.2,0,0.2,0c1.2,0.2,2.5,0.3,3.7,0.5c3.5,0.4,6.8,0.7,9.6,0.9
	c1.2,0.1,2.3,0.1,3.3,0.2c1.4,0.1,2.6,0.1,3.6,0.1c0.8,0,1.5,0,1.9-0.1c0.2,0,0.4-0.1,0.6-0.1c0,0,0,0,0.1,0c0,0,0,0,0.1,0
	c0,0,0,0,0.1,0l0,0l0,0v-0.1l0,0l0,0l-0.3-0.1l-0.3-0.1l0,0l0,0l0,0l0,0l0,0l0,0c-0.1,0-0.2,0.1-0.4,0.1s-0.3,0-0.5,0.1
	c-0.4,0-0.8,0-1.3,0.1c-1.6,0-4,0-6.8-0.2s-6.1-0.4-9.6-0.8c-0.5-0.1-1-0.1-1.6-0.2c-0.3,0-0.7-0.1-1-0.1c-0.9-0.1-1.9-0.2-2.8-0.4
	c-0.8-0.1-1.6-0.2-2.4-0.4c-0.1,0-0.3,0-0.4-0.1c-0.5-0.1-0.9-0.2-1.4-0.3c-0.2-0.1-0.5-0.1-0.7-0.2c-0.1,0-0.2-0.1-0.3-0.1
	c-0.1,0-0.1,0-0.1-0.1l0,0l0,0h0.1c0.1,0,0.2,0,0.3-0.1c0.2,0,0.5,0,0.7-0.1c0.5,0,0.9,0,1.4,0c0.9,0,1.9,0,2.8,0
	c1.8,0.1,3.7,0.2,5.4,0.3c0.1,0,0.2,0,0.3,0c2.1,0.1,4.2,0.3,6.1,0.5c0.6,0.1,1.3,0.1,1.9,0.2c0.5,0,0.9,0.1,1.4,0.1
	C43.6,60.7,45.9,61,47.5,61.3c0.8,0.2,1.4,0.3,1.9,0.4c0.2,0,0.3,0.1,0.4,0.1c0,0,0.1,0,0.1,0.1L50,62l0,0l0,0l0,0l0,0
	c0,0,0-0.1-0.1-0.1c0,0-0.1,0-0.1-0.1c-0.1,0-0.2-0.1-0.4-0.1C49,61.6,48.3,61.5,47.5,61.3z"/>
<rect x="68.2" y="51.4" class="st18" width="15.1" height="0.5"/>
<polygon class="st19" points="558.7,196.7 550.7,193.9 155.6,193.9 163.5,196.7 "/>
<text transform="matrix(1.1797 0 0 1 162.5435 151.7695)" class="st19 st20 st21">Introduction to</text>
<text transform="matrix(1.1797 0 0 1 162.5435 188.0195)" class="st19 st20 st21">ECG Interpretation</text>
<text transform="matrix(1 0 0 1 164.3026 214.7966)" class="st19 st20 st22">Written By</text>
<text transform="matrix(1 0 0 1 164.3027 235.2966)"><tspan x="0" y="0" class="st19 st20 st22">John Wallis, Ezra Margono,</tspan><tspan x="0" y="21.6" class="st19 st20 st22">Tony Wan + Kaveh Sandigh MD/MPH</tspan></text>
<g id="Layer_2">
	<polygon class="st23" points="1290.7,-57.3 612,-57.3 612.1,792 0,792 0,-47.4 -283.8,-47.4 -283.8,791.4 -328.6,791.4 
		-328.6,1144.5 1246.4,1144.5 1246.4,901.7 1290.7,901.7 	"/>
</g>
</svg>
