<?xml version="1.0" encoding="utf-8"?>
<!-- Generator: Adobe Illustrator 19.2.1, SVG Export Plug-In . SVG Version: 6.00 Build 0)  -->
<svg version="1.1" xmlns="http://www.w3.org/2000/svg" xmlns:xlink="http://www.w3.org/1999/xlink" x="0px" y="0px"
	 viewBox="0 0 649.8 767.9" style="enable-background:new 0 0 649.8 767.9;" xml:space="preserve">
<style type="text/css">
	.st0{fill:#FFFFFF;stroke:#000000;stroke-miterlimit:10;}
	.st1{fill:#A6170A;stroke:#000000;stroke-miterlimit:10;}
	.st2{fill:#FFFFFF;}
	.st3{font-family:'BritannicBold';}
	.st4{font-size:84.717px;}
	.st5{font-size:24px;}
	.st6{fill:#6D6C72;}
	.st7{fill:#E2E1E8;}
	.st8{fill:#7E8693;}
	.st9{fill:#CECFDB;}
	.st10{fill:#E3E4E9;}
	.st11{fill:#EEEDF1;}
	.st12{fill:#F1F0F4;}
	.st13{fill:#EBEAEE;}
	.st14{fill:#E6E5EA;}
	.st15{fill:#E9E8EC;}
	.st16{fill:#E8E6EB;}
	.st17{fill:#DDDDE7;}
	.st18{fill:#C4C6D6;}
	.st19{fill:#E4E3E9;}
	.st20{fill:#C9CCD7;}
	.st21{fill:#E5E4EA;}
	.st22{fill:#C6C7CF;}
	.st23{fill:#E3E2EA;}
	.st24{fill:#B3BAC2;}
	.st25{fill:#DDDEE3;}
	.st26{fill:#C5C6CB;}
	.st27{fill:#687989;}
	.st28{fill:#DADCE7;}
	.st29{fill:#5D6D77;}
	.st30{fill:#49535D;}
	.st31{fill:#5A6671;}
	.st32{fill:#838A90;}
	.st33{fill:#9C363F;}
	.st34{fill:#505F6E;}
	.st35{fill:#778897;}
	.st36{fill:#637281;}
	.st37{fill:#504F4C;}
	.st38{fill:#4B4948;}
	.st39{fill:#A33832;}
	.st40{fill:#DD4640;}
	.st41{fill:#5D5C60;}
	.st42{fill:#EBEBF0;}
	.st43{fill:#C6C8D4;}
	.st44{fill:#878787;}
	.st45{fill:#686868;}
	.st46{fill:#A4A4A2;}
	.st47{fill:#8C8C8C;}
	.st48{fill:#565656;}
	.st49{fill:#757576;}
	.st50{fill:#BCB3A2;}
	.st51{fill:#E4E0D6;}
	.st52{fill:#D2C8B9;}
	.st53{fill:#A7A291;}
	.st54{fill:#D5CCC1;}
	.st55{fill:#827E77;}
	.st56{fill:#DFD7C5;}
	.st57{fill:#575D43;}
	.st58{fill:#414340;}
	.st59{fill:#BDB8A4;}
	.st60{fill:#DED6C4;}
	.st61{fill:#8E8979;}
	.st62{fill:#D1D9DF;}
	.st63{fill:#2B3990;}
	.st64{fill:#3F403F;}
	.st65{fill:#F59DC0;}
	.st66{fill:#5B595A;}
	.st67{fill:#C6BDAC;}
	.st68{fill:#EAE3D0;}
	.st69{fill:#CCCCCA;}
	.st70{fill:#595758;}
	.st71{fill:#252726;}
	.st72{fill:#515253;}
	.st73{fill:#6C6A72;}
	.st74{fill:#191718;}
	.st75{fill:#48474D;}
	.st76{fill:#1F1D1B;}
	.st77{fill:#6B6E77;}
	.st78{fill:#6F6F75;}
	.st79{fill:#84888D;}
	.st80{fill:#717379;}
	.st81{fill:#E3E3E2;}
	.st82{fill:#B7ABA5;}
	.st83{fill:#8F8680;}
	.st84{fill:#949297;}
	.st85{fill:#191A20;}
	.st86{fill:#C0C0C3;}
	.st87{fill:#998D87;}
	.st88{fill:#6D6F7A;}
	.st89{fill:#C5C1C1;}
	.st90{fill:#97969B;}
	.st91{fill:#0D0D0E;}
	.st92{fill:#41454E;}
	.st93{fill:#4B525C;}
	.st94{fill:#E9E8EA;}
	.st95{fill:#CDCBCF;}
	.st96{fill:#F1F1F5;}
	.st97{fill:#A5A2A3;}
	.st98{fill:#6E6D73;}
	.st99{fill:#737378;}
	.st100{fill:#81848B;}
	.st101{fill:#DBDADC;}
	.st102{fill:#8E8D8F;}
	.st103{fill:#F2F2F2;}
	.st104{fill:#82848F;}
	.st105{fill:#696B74;}
	.st106{fill:#F3F2F3;}
	.st107{fill:#61626E;}
	.st108{fill:#BBB8B7;}
	.st109{fill:#E5EAEB;}
	.st110{fill:#EAEBE4;}
	.st111{fill:#F8F6F9;}
	.st112{fill:#FFFCFD;}
	.st113{fill:#92A67D;}
	.st114{fill:#303225;}
	.st115{fill:#8B95A3;}
	.st116{fill:#E6E6E4;}
	.st117{fill:#CDD2DD;}
	.st118{fill:#919CA4;}
	.st119{fill:#6E7B7F;}
	.st120{fill:#A5ABAD;}
	.st121{fill:#A1A2AB;}
	.st122{fill:#A1A1A3;}
	.st123{fill:#EDECEE;}
	.st124{fill:#DADADC;}
	.st125{fill:#80828D;}
	.st126{fill:#4E4C4E;}
	.st127{fill:#F1F3F3;}
	.st128{fill:#DCDBDD;}
	.st129{fill:#222225;}
	.st130{fill:#C6C4C7;}
	.st131{fill:#CDCDD1;}
	.st132{fill:#E8E8E8;}
	.st133{fill:#BEBDC1;}
	.st134{fill:#B3A8A1;}
	.st135{fill:#D6D4D4;}
	.st136{fill:#848791;}
	.st137{fill:#6F6F78;}
	.st138{fill:#5B5953;}
	.st139{fill:#4C4C4D;}
	.st140{fill:#F5F2EE;}
	.st141{fill:#D6D3CF;}
	.st142{fill:#9E9B97;}
	.st143{fill:#66625F;}
	.st144{fill:#868380;}
	.st145{fill:#74716C;}
	.st146{fill:#CDC9C5;}
	.st147{fill:#5F5C57;}
	.st148{fill:#FEFEFA;}
	.st149{fill:#CAC7C1;}
	.st150{fill:#5B5B56;}
	.st151{fill:#958D8B;}
	.st152{fill:#AD8880;}
	.st153{fill:#0F100D;}
	.st154{fill:#FAFBF8;}
	.st155{fill:#D6CAC1;}
	.st156{fill:#8D8382;}
	.st157{fill:#8E8985;}
	.st158{fill:#43443E;}
	.st159{fill:#AFADA7;}
	.st160{fill:#3D3B3C;}
	.st161{fill:#C3BEBA;}
	.st162{fill:#C1BCB8;}
	.st163{fill:#E7E3DF;}
	.st164{fill:#787671;}
	.st165{fill:#C6BFBC;}
	.st166{fill:#A19C97;}
	.st167{fill:#797772;}
	.st168{fill:#4F4C49;}
	.st169{fill:#363630;}
	.st170{fill:#151612;}
	.st171{fill:#595853;}
	.st172{fill:#B6B5B1;}
	.st173{fill:#FFFFFC;}
	.st174{fill:#0D0E0B;}
	.st175{fill:#9A9792;}
	.st176{fill:#AD4B3D;}
	.st177{fill:#83827E;}
	.st178{fill:#E44935;}
	.st179{fill:#433E3F;}
	.st180{fill:#292425;}
	.st181{fill:#E1452E;}
	.st182{fill:#413C3D;}
	.st183{fill:#423E3F;}
	.st184{fill:#D8C3B1;}
	.st185{fill:#F2E6D5;}
	.st186{fill:#D8C6B9;}
	.st187{fill:#95887F;}
	.st188{fill:#C9BBAE;}
	.st189{fill:#DBCCBF;}
	.st190{fill:#DE4836;}
	.st191{fill:#BDAA9F;}
	.st192{fill:#1A1617;}
	.st193{fill:#89181A;}
	.st194{fill:#921A20;}
	.st195{fill:#F04E27;}
	.st196{fill:#DDD5CE;}
	.st197{fill:none;stroke:#3A3662;stroke-width:0.4147;stroke-miterlimit:10;}
	.st198{fill:none;stroke:#DDD5CE;stroke-width:0.8295;stroke-miterlimit:10;}
	.st199{fill:#3A3662;}
	.st200{fill:#DDD5CE;stroke:#3A3662;stroke-width:0.2074;stroke-miterlimit:10;}
	.st201{fill:none;}
	.st202{font-family:'MyriadPro-Regular';}
	.st203{font-size:3.0869px;}
	.st204{fill:#DFCE3C;stroke:#2F282E;stroke-width:0.4147;stroke-miterlimit:10;}
	.st205{font-family:'MyriadPro-Semibold';}
	.st206{font-size:4.6304px;}
	.st207{fill:#231F20;}
	.st208{fill:#3A3662;stroke:#3A3662;stroke-width:0.4147;stroke-miterlimit:10;}
	.st209{fill:none;stroke:#E63825;stroke-width:0.2074;stroke-miterlimit:10;}
	.st210{font-family:'CenturyGothic-Bold';}
	.st211{font-size:1.8007px;}
	.st212{font-size:1.5435px;}
	.st213{fill:#2F282E;}
	.st214{fill:#4B3B34;}
	.st215{fill:#FFFFFF;stroke:#3A3662;stroke-width:0.4147;stroke-miterlimit:10;}
	.st216{font-size:2.0579px;}
	.st217{fill:#FFFFFF;stroke:#FFFFFF;stroke-width:0.1037;stroke-miterlimit:10;}
	.st218{fill:#0BAA4B;}
	.st219{fill:#A92823;}
	.st220{font-family:'CenturyGothic';}
	.st221{font-size:4.1159px;}
	.st222{font-size:1.029px;}
	.st223{fill:#C9BFB6;}
	.st224{font-size:2.9032px;}
	.st225{font-size:2.0737px;}
	.st226{font-size:1.659px;}
	.st227{fill:#A6A8AB;}
	.st228{fill:#BBBDBF;}
	.st229{fill:#D0D2D3;}
	.st230{fill:#E6E7E8;}
	.st231{fill:#FAAF40;}
	.st232{fill:#00A69C;}
	.st233{fill:#EC1C24;}
	.st234{font-family:'Geneva';}
	.st235{font-size:21.5363px;}
	.st236{fill:#404041;}
	.st237{font-family:'Optima-Bold';}
	.st238{font-size:5.5452px;}
	.st239{fill:#404041;stroke:#404041;stroke-width:0.5972;stroke-miterlimit:10;}
</style>
<g id="Layer_1">
	<title>binch</title>
	<rect class="st0" width="649.8" height="107"/>
	<rect y="107" class="st1" width="649.8" height="660.9"/>
	<text transform="matrix(0.8916 0 0 1 145.2404 228.5)" class="st2 st3 st4">PTP Book</text>
	<text transform="matrix(0.8916 0 0 1 147.2403 263.1395)"><tspan x="0" y="0" class="st2 st3 st5">Written by</tspan><tspan x="0" y="28.8" class="st2 st3 st5">Jamie Greco &amp; Joanne Cesiro</tspan></text>
	<rect x="149" y="236" class="st2" width="328" height="4"/>
</g>
<g id="Layer_2">
	<g>
		<polygon class="st6" points="233.8,664 231,662.6 233.3,660.7 234.3,661.5 		"/>
		<path class="st7" d="M239.3,658.1c0,0-2.1,2.3-2.5,2.4l0.2,2.8l-3.2,0.7v-2.7c0,0-13.8,6.8-26.4,9.6c-12.6,2.8,5.6-7.7,5.6-7.7
			l24.3-6.4L239.3,658.1z"/>
		<polyline class="st8" points="163.5,685.6 161.5,684.1 164.4,682.6 165,683.7 		"/>
		<polygon class="st9" points="168.9,683.1 168.3,686.1 164.7,686.5 163.5,685.6 165,683.7 		"/>
		<polygon class="st10" points="239.7,611.5 239.6,638.8 240.8,648.1 237.8,652.4 234.7,606.3 236.7,596.2 238.3,595.7 239.9,606.3 
					"/>
		<polygon class="st11" points="237.8,597.6 237.2,651.2 231.6,655.3 231.6,596.8 		"/>
		<polygon class="st12" points="233.3,600.5 233.3,653.9 225.7,656.9 220.8,602.4 		"/>
		<polygon class="st13" points="225.7,603.2 225.7,656.9 214.1,659.8 211.1,604 		"/>
		<polygon class="st14" points="217.9,605.1 217.9,642.5 201.7,641.3 207.6,603.6 		"/>
		<polygon class="st15" points="210.5,606.3 209.7,640.1 201.8,642.5 199.5,607.2 		"/>
		<polygon class="st16" points="202.1,608.5 202.7,656.9 192.6,656.3 189.5,625.1 192.5,607.2 		"/>
		<polygon class="st14" points="194.5,611.5 194.5,663.4 176,653 182,614.6 193.8,610.3 		"/>
		<path class="st17" d="M117.2,657.4v9.8c0,0-0.1,4.9,3.5,8c3.7,3.1,5.7,6.6,22,8.7c0,0,11.6,1.7,19.8,0c0,0,11,0.3,46.7-13.7
			c31.7-12.4,30-12.1,30-12.1l2.6-3.6l-0.8-12.8l-1.8,5.2l-4,4l-25.4,9.5l-23.1,6.9l-20.9,4.6L117.2,657.4z"/>
		<path class="st18" d="M118.2,655.7c0,0-1.9,0.7-0.4,4.1c0,0,0.1,3.8,4,7c0,0,7.3,7.3,24.9,6.5s-3.6-13.5-3.6-13.5L118.2,655.7z"/>
		<polygon class="st19" points="119.3,661.3 123.1,666.4 136.8,630.7 120.7,622.7 117.8,629.5 		"/>
		<polygon class="st20" points="117.3,627.3 118.2,656.9 119.3,661.3 118.7,627.8 		"/>
		<polygon class="st21" points="186.1,613.7 186.6,659.4 186.6,667.3 178.2,670.2 174.7,619.4 177.5,612.3 		"/>
		<polygon class="st21" points="178.2,614.5 178.8,669.1 168.9,671.9 161.5,656.9 165.6,616.4 		"/>
		<path class="st22" d="M167.9,617.2l0.9,54.6c0,0-20.5,3.5-31.5,0s-1.2-38.6-1.2-38.6l15.5-16.9L167.9,617.2z"/>
		<path class="st23" d="M143.9,636.7l0.9,1.3l-7.5,9.7v24.1c0,0-12.9-3.2-14.2-5.5v-15.4l6.7-16.9l10.1-1.1L143.9,636.7z"/>
		<path class="st24" d="M157.3,618.7c0,0,0.8,4.5-2.5,8.4c0,0-4.4,8.4-8.9,9.8l3.3-12L157.3,618.7z"/>
		<path class="st25" d="M157.3,618.7c0,0,24.7-2.4,46.9-10.2c0,0,30.1-6,33.5-10.9l3,13.5l0.3-24.9l-86.2,20.1L157.3,618.7z"/>
		<path class="st19" d="M162.1,609.2c0,0-12.6,25.6-16.2,27.7c0,0-27.7-2.6-29.2-11.3l-0.7-28l35.5,5.5L162.1,609.2z"/>
		<path class="st26" d="M236,591.8l1.7,5.8l1.9,14l1.1-0.5c0,0-2.9-17.6-4.2-19.8C235.3,589.1,236,591.8,236,591.8z"/>
		<polygon class="st27" points="121.6,598.2 128.8,589.4 164.6,580.3 197.7,574.5 215.3,575.2 230,579.3 234.7,585.2 223.1,593.8 
			161,608 141.6,608 121.6,600.4 		"/>
		<polygon class="st28" points="195.9,575.2 198.5,586.1 199.5,585.9 197.7,574.5 		"/>
		<polygon class="st28" points="215.7,576 209.7,589.4 210.6,589.4 218.5,576 		"/>
		<polygon class="st29" points="127.1,592.9 142.6,604.2 143.9,602.5 129.9,588.2 		"/>
		<path class="st30" d="M139.2,605.4c0,0,0.1-4.4,16.8-7.9s47.3-8.8,47.3-8.8s8.3-1,14.6,3.5c6.3,4.5-9,5.3-9,5.3l-56.5,11
			L139.2,605.4z"/>
		<path class="st31" d="M139.2,605.4l64.2-14.4l12.2,1.9l-50,13.4C165.6,606.3,142.5,611.7,139.2,605.4z"/>
		<path class="st32" d="M130.7,664.1c0,0,0.1-1.3,1.4-2c0,0,2.7-0.3,3.6,2.2c0.9,2.5,0.1,3.3,0.1,3.3s-1.2,1.9-3.1,0.7
			C130.8,667.2,130.7,664.1,130.7,664.1z"/>
		<path class="st33" d="M129.9,665.6c0,0-0.3-1,2.1-2.3c0,0,2.2-0.2,2.8,2.4c0,0,0.2,2.4-2.8,2.9L129.9,665.6z"/>
		<path class="st34" d="M158.8,594c0,0-2.3,0.5-2.6,1.6c-0.3,1.1-0.3,8.1-0.3,8.1s0.8,1.6,6.7,1.3l39.7-9.4c0,0,0.6,0.1,1.4-0.8
			l-0.4-7.6c0,0-0.3-1.3-1.9-1.7C199.7,585.3,158.8,594,158.8,594z"/>
		<path class="st35" d="M159.5,593.8l37.9-8.6c0,0,4.7-0.3,5.3,1.4c0,0,1,1.1-6.9,2.3c-7.9,1.2-33,7.6-33,7.6s-3.2,0.7-5.8-0.4
			C157,596.1,155.4,595.2,159.5,593.8z"/>
		<polygon class="st35" points="162.5,597.2 201.3,588.2 201.3,588.8 163.3,597.6 		"/>
		<path class="st36" d="M124.9,588.2c-9,3.7-8.9,9.3-8.9,9.3c1,8.7,19.7,11.2,19.7,11.2c17.6,7,76.9-10.3,92.8-14.2
			s12.1-10.4,12.1-10.4s-1.3-5.6-18.3-9c-17-3.4-29.7-1-33.3-1 M229.3,588.8c0,0-16.7,5.7-53.5,14s-45.3,0.3-50.4-5.2
			c0,0-4.4-8.9,30.5-13.7c0,0,34.9-8.2,44.7-8.6c9.8-0.4,21.7,2.2,24.8,3.7S236.8,583.6,229.3,588.8z"/>
		<path class="st37" d="M132.2,631c0,0-1.7-0.5-2.4-0.2s0,1.7,0,1.7l1.1,0.7C130.8,633.2,132,632.4,132.2,631z"/>
		<path class="st38" d="M132.8,656.9c0,0-2-0.4-0.7-2.4l2.2,0.5L132.8,656.9z"/>
		<path class="st39" d="M130.9,664.1c0,0-1.9,1.1-0.7,3.1s2.2,1,2.2,1s1.2-0.6,0.7-2C133.1,666.3,132.5,663.7,130.9,664.1z"/>
		<path class="st40" d="M131.1,666.4c0,0-0.4-1.8,0.2-2.2c0,0,1.3,0.4,1.3,1.3L131.1,666.4z"/>
		<path class="st2" d="M132.1,663.1c0,0-0.2-0.8,0.5-0.8c0,0,2.2,0.4,1.8,2C134.4,664.3,133.1,662.8,132.1,663.1z"/>
		<path class="st22" d="M180.5,662.6l7.9-18.7c0,0,0.7-1.8,2.7-2l21.9-6.3c0,0,2.5-1.4,3.8,1l6.1,11.4c0,0,2.4,5.7-2.3,8.3
			c-4.7,2.6-37.3,11.9-37.3,11.9S179,666.9,180.5,662.6z"/>
		<path class="st41" d="M182.2,660.9l7.3-16.5c0,0,1.2-1.6,2.9-2l20.5-5.8c0,0,2.1-0.3,2.7,0.7l6.5,11.4c0,0,1.2,5-2.5,6.7
			L186.1,666C186.1,666,181.1,667.8,182.2,660.9z"/>
		<path class="st42" d="M186.5,664.7c0,0-4.8,2.4-3.6-3.8l6.6-15.6c0,0,1.3-1.7,2.6-2l20.6-5.9c0,0,1.5-0.8,2.6,1.1l5.9,10.6
			c0,0,1.4,2.8-1.7,5.5L186.5,664.7z"/>
		<path class="st43" d="M239.6,638.8v6.1l-2.2,3.2l-4.4,3.2l-12.4,5L172.4,671l-3.5,0.8h3.5l9.7-2.8l37.2-11.7
			c0,0,13.5-4.9,15.9-6.5C235.1,650.8,244.5,645.3,239.6,638.8z"/>
	</g>
	<g id="fluido_1_">
		<path d="M29.9,686.3l-0.2-3.4l-0.7-2.8l-3.4-0.8l-3.5,0.7l-1.1,1l-1.1,1.7l0.5,2.2c2,4.3,3.9,4.2,3.9,4.2c3.8,1.3,5.2-2.9,5.2-2.9
			L29.9,686.3z"/>
		<path d="M142.4,689.5l-6.4,1.2c0,0-6.5,0.2-1.6,6.7c4.9,6.7,9.3,1,9.3,1c4.1-6.2-0.7-8.6-0.7-8.6L142.4,689.5z"/>
		<polygon class="st44" points="87.3,672.5 86,667.8 73.9,666.4 71.4,669.2 73.7,679.5 75.4,681.3 82,679.7 82,678.9 		"/>
		<path class="st45" d="M68.4,664.3l2.7,0.6l2.4,3.2l-4.3,2.6l-48.7,2.5l-0.1-1.6C35.5,666.1,68.4,664.3,68.4,664.3"/>
		<path class="st46" d="M136.9,699.1l-4.6-3c-1.8-7.9,6.3-8.6,6.3-8.6l4.7,2.2C136,690.1,137,699.2,136.9,699.1z"/>
		<path class="st46" d="M24.9,674.8l-3.7,1.8l0.5,1.9l0.5,0.3L22,680c-3.2,1.4-2,5.5-2,5.5l0.4-0.3c-0.9-4.7,3.4-5.3,3.4-5.3
			c5-0.8,5.9,7.6,5.9,7.6l3-3.2c0-7.3-6.1-7.4-6.1-7.4l-0.4-1L24.9,674.8z"/>
		<ellipse transform="matrix(0.9976 -6.975647e-02 6.975647e-02 0.9976 -49.9313 5.8957)" cx="59.4" cy="717.9" rx="6" ry="6.4"/>
		<polygon class="st47" points="132.3,686.1 126.5,683.5 99.4,675 95.7,671.6 104.5,670 138.9,683.2 138.7,688.6 136,689.6 		"/>
		<ellipse transform="matrix(0.9976 -6.975647e-02 6.975647e-02 0.9976 -49.4483 5.5502)" cx="54.7" cy="710.8" rx="1.2" ry="1.3"/>
		<path class="st46" d="M58.2,709.9c5-2,7.6,3.7,7.6,3.7c0.7,5.3-0.2,5.4-0.2,5.4c0.1-1.3-2-6-6.5-5.6c-4.5,0.4-5.6,4.5-5.6,4.5
			C52.1,711.1,58.2,709.9,58.2,709.9z"/>
		<path class="st47" d="M59.5,692.9l6.8-2.6l-7.9,14l-0.2,5.6c-2.4,3.1-5.2,1-5.2,1l-0.4-6.2L59.5,692.9z"/>
		<path class="st48" d="M72.8,668.7l2.8,3.6l-0.4,6.9c-1.5-0.1-17.9,25.8-17.9,25.8c-2.1,1.8-4.6-0.3-4.6-0.3
			c2.6-9.5,16.9-34.1,16.9-34.1L72.8,668.7"/>
		<path class="st49" d="M88.2,672.3c0,0,9.3,0.8,10.2-0.1c0.9-1,37.2,12.8,37.2,12.8l0.3,4.6l-4.2-1.3c1.3-4-46.1-11.2-46.1-11.2
			l-3.7,1.9l-0.3-4.5L88.2,672.3z"/>
		<path class="st49" d="M66.9,675.2c-0.3-2.2-39.9,0.3-39.9,0.3l-2.2,1.1l-3.9,0.3l-0.3-3.6c18.8-6.5,44-5.2,44-5.2
			c4.5,0.2,4.7,2.7,4.7,2.7L66.9,675.2z"/>
		<path d="M136,689.6l1.7-0.6c0,0,0,1.4-2,1.3s-1.7-1.4-1.7-1.4L136,689.6z"/>
		<polygon points="138.9,690.6 137,692.9 136,692.3 136.9,691.6 137.3,691.6 137.2,690.5 137.7,689.8 		"/>
		<path d="M134.6,690.1c-1,0.5-0.1,1-0.1,1l-1.7,0.1c0.4-1.1,1.3-1.5,1.3-1.5L134.6,690.1z"/>
		<path d="M26.1,679.7l-1.3-0.4l-1.3,0l0.1-0.9l-1.4,0.4l-0.5-0.3l0.2-1.3c1.3,1.4,2.3-0.2,2.3-0.2l0.4,1.5l1.2,0.1l0.4,0.7
			L26.1,679.7z"/>
		<polygon points="30.4,678.5 27.9,681 26.5,679.7 29.4,677.6 		"/>
		<polygon points="32,680.2 29.5,682.8 28.6,681.3 31,679.1 		"/>
		<polyline class="st50" points="104.7,525.9 96.3,528.8 54.3,532.7 17.7,520.1 63.2,515.8 104.7,525.9 		"/>
		<polygon class="st51" points="54.3,532.7 55.4,534.3 17.2,520.7 17.7,520.1 		"/>
		<polygon class="st52" points="71.2,520.9 76.4,523.5 74.5,524.9 57.7,527.7 53.8,525.7 58.8,523.9 58.5,520.1 		"/>
		<polygon class="st53" points="74.6,525.8 80.4,523.8 79.5,522.1 58.2,515.6 33.8,518.6 37.2,521 41.9,521.2 55.7,520 72.5,523.9 
					"/>
		<polygon class="st54" points="79.7,523.2 56.9,517 34.8,519 55.5,525.6 51.9,525.8 28.5,518.2 58.2,515.6 84.8,522.6 		"/>
		<polygon class="st51" points="52.2,529.4 28.8,521.4 28.5,518.2 51.9,525.8 84.8,522.6 85,526.1 		"/>
		<polygon class="st50" points="55.4,537.6 16.4,521.7 17.2,520.7 54.8,533.8 		"/>
		
			<ellipse transform="matrix(0.9976 -6.975647e-02 6.975647e-02 0.9976 -35.8304 5.705)" class="st55" cx="63.8" cy="515.9" rx="1.4" ry="0.8"/>
		
			<ellipse transform="matrix(0.9976 -6.975647e-02 6.975647e-02 0.9976 -36.0268 6.5749)" class="st55" cx="76.1" cy="519.1" rx="1.5" ry="0.8"/>
		
			<ellipse transform="matrix(0.9976 -6.975647e-02 6.975647e-02 0.9976 -36.2699 7.6672)" class="st55" cx="91.6" cy="523.2" rx="1.7" ry="0.8"/>
		
			<ellipse transform="matrix(0.9976 -6.975647e-02 6.975647e-02 0.9976 -36.8394 4.7864)" class="st55" cx="50.1" cy="529.9" rx="1.6" ry="0.9"/>
		
			<ellipse transform="matrix(0.9976 -6.975647e-02 6.975647e-02 0.9976 -36.2132 2.6642)" class="st55" cx="20" cy="519.8" rx="1.4" ry="0.8"/>
		
			<ellipse transform="matrix(0.9976 -6.975647e-02 6.975647e-02 0.9976 -36.5192 3.693)" class="st55" cx="34.6" cy="524.7" rx="1.5" ry="0.8"/>
		<polygon class="st56" points="77.1,540 82.7,676.1 22.5,625.8 16.4,521.7 54.5,534.6 54.3,532.7 		"/>
		<polyline class="st57" points="73.1,580.8 60.5,576.5 60.7,577.3 73.4,584.1 73.1,580.8 		"/>
		<polygon points="71.8,581.9 63,568.4 59.1,548.4 60.8,548.3 71.6,553.3 72.1,554.3 73.1,580.8 		"/>
		<polygon class="st58" points="71.8,581.9 60.1,576.7 59.6,575.9 58.8,549 59.1,548.4 70.4,553.5 		"/>
		<polyline class="st59" points="77.1,540 77,539.3 54.3,531.8 54.3,532.7 77.1,540 		"/>
		<polygon class="st60" points="139.3,663.9 83.2,676.1 77.9,539.2 91.5,537.6 135.2,532 		"/>
		<polygon class="st61" points="120.8,618.6 86,639.5 85,639.6 81.1,547.7 117.5,543.1 		"/>
		<polygon class="st62" points="135,630.3 86,639.5 82.2,547.5 132.2,541.3 		"/>
		<polygon class="st63" points="92.5,553.2 92.8,557.4 123.7,553.2 123.4,549.1 		"/>
		<polygon class="st63" points="120.8,559.7 116.9,560.4 116.9,561 115.5,559.7 116.8,558 116.9,558.5 120.6,557.9 		"/>
		<polygon class="st63" points="99.8,566.4 99.7,565.9 95.9,566.3 95.7,564.3 99.7,563.9 99.7,563.3 101.2,564.5 		"/>
		<polygon class="st63" points="126.6,571 122.8,571.3 122.4,566.1 126.5,565.6 		"/>
		<polygon class="st63" points="129.2,579.4 125,579.9 124.8,574.7 128.8,574.2 		"/>
		<polygon class="st63" points="97.4,575.5 92.9,576 92.7,570.4 97.2,569.7 		"/>
		<polygon class="st63" points="91.8,576.3 87.3,576.9 87.1,571.5 91.4,570.8 		"/>
		<polygon class="st63" points="97.7,584.4 93.6,585 93.2,579.7 97.6,579.1 		"/>
		<polygon class="st63" points="91.6,585.1 87.6,585.9 87.2,580.5 91.6,580 		"/>
		<polygon class="st63" points="132.5,594.6 86.1,602.5 85.9,600.7 132.4,593 		"/>
		<polygon class="st63" points="93.9,555.1 85.1,556.2 86.5,589 131.3,581.8 130.1,550 122.6,551 122.5,550.8 130.3,549.9 
			131.7,582.1 86.2,589.3 84.7,555.8 93.9,554.8 		"/>
		<path class="st63" d="M119.6,583.3l11.5-1.8l-0.8-18.4l-11.8,1.2L119.6,583.3z M119.9,582.9l-1.2-18.5l11.4-1.1l0.8,18
			L119.9,582.9z"/>
		<path class="st63" d="M87.1,588.3l11.6-1.9L97.9,568L86,569.2L87.1,588.3z M87.4,587.9l-1-18.6l11.4-1.1l0.8,18L87.4,587.9z"/>
		<path class="st63" d="M120.2,582.6l10.3-1.5l-0.4-8.2l-10.4,0.9L120.2,582.6z M130.4,580.9l-10.1,1.4l-0.4-8.4L130,573
			L130.4,580.9z"/>
		<polygon class="st63" points="87.8,637.3 133.9,628.4 132.5,594.6 131.6,594.7 132.9,627.7 88.4,636.3 86.8,602.4 86.1,602.5 		
			"/>
		<polygon points="119.1,583 117.8,583.2 116.3,564.7 117.7,564.5 		"/>
		<polygon points="101.6,565.2 101.3,560.6 114.8,558.9 115.1,563.4 		"/>
		<polygon points="101.1,569.4 101,568 115.5,566.4 115.6,567.6 		"/>
		<polygon points="103.8,570.8 103.9,572.2 115.6,570.6 115.5,569.4 		"/>
		<polygon points="107.5,573.4 107.6,575 115.8,573.9 115.7,572.4 		"/>
		<polygon points="106.6,576.5 106.7,578.2 116.1,577.2 115.9,575.4 		"/>
		<polygon points="103,580 103.1,581.5 116.3,579.8 116.2,578.3 		"/>
		<polygon points="110.5,582.2 110.6,583.6 116.5,582.8 116.4,581.2 		"/>
		<path class="st63" d="M113.7,588.7c2.6,0.6,0.3,1.8,0.3,1.8l-1.5,0.1l-0.2-2.8l1.2-0.1L113.7,588.7z"/>
		<path class="st63" d="M115.8,589.2c0.1-0.7-1.9-1.6-1.9-1.6l1.8-0.1L115.8,589.2z"/>
		<path class="st63" d="M114.1,591.9l1.5-0.3l0.1-1.4C115.5,590.9,114.1,591.8,114.1,591.9z"/>
		<polygon points="105.3,589.5 105.4,591.1 111.8,589.5 111.7,588.1 		"/>
		<polygon points="107.2,591.2 107.3,592.5 112,591.7 111.9,590.4 		"/>
		<ellipse transform="matrix(0.9976 -6.975647e-02 6.975647e-02 0.9976 -40.7538 10.0124)" cx="123" cy="588.5" rx="1.8" ry="1.8"/>
		<ellipse transform="matrix(0.9976 -6.975647e-02 6.975647e-02 0.9976 -41.1071 8.1195)" cx="95.7" cy="592.6" rx="2" ry="2"/>
		
			<ellipse transform="matrix(0.9976 -6.975647e-02 6.975647e-02 0.9976 -40.76 10.0201)" class="st64" cx="123.1" cy="588.6" rx="0.9" ry="0.9"/>
		
			<ellipse transform="matrix(0.9976 -6.975647e-02 6.975647e-02 0.9976 -41.1071 8.1195)" class="st64" cx="95.7" cy="592.6" rx="1.1" ry="1.1"/>
		
			<ellipse transform="matrix(0.9976 -6.975647e-02 6.975647e-02 0.9976 -43.5422 10.8599)" class="st64" cx="133.7" cy="628.9" rx="0.9" ry="0.9"/>
		
			<ellipse transform="matrix(0.9976 -6.975647e-02 6.975647e-02 0.9976 -44.2654 7.6513)" class="st64" cx="87.4" cy="637.6" rx="0.8" ry="1"/>
		
			<ellipse transform="matrix(0.9976 -6.975647e-02 6.975647e-02 0.9976 -41.2842 7.4363)" class="st64" cx="85.8" cy="594.8" rx="1.1" ry="1.1"/>
		
			<ellipse transform="matrix(0.9976 -6.975647e-02 6.975647e-02 0.9976 -40.6296 10.6591)" class="st64" cx="132.3" cy="587.1" rx="1" ry="1"/>
		
			<ellipse transform="matrix(0.9976 -6.975647e-02 6.975647e-02 0.9976 -37.5428 10.4469)" class="st64" cx="130.8" cy="542.8" rx="0.9" ry="0.9"/>
		
			<ellipse transform="matrix(0.9976 -6.975647e-02 6.975647e-02 0.9976 -38.0976 7.1715)" class="st64" cx="83.6" cy="549.1" rx="1" ry="1"/>
		<path class="st63" d="M123.4,592.7l-1.3,0.1c0.7-0.6-0.7-2-0.7-2l2.8-0.2C123.2,591,123.4,592.7,123.4,592.7z"/>
		<path class="st63" d="M96.6,597l-1.3,0.1c0.5-0.3-1-1.5-1-1.5l2.5-0.5C96.1,596.4,96.6,597.1,96.6,597z"/>
		<path class="st65" d="M111.6,624.5l0.5,6.5l20.2-3.6l-0.1-6.6L111.6,624.5z M111.8,624.8l20.2-3.7l0,6.1l-19.8,3.6L111.8,624.8z"
			/>
		<path class="st65" d="M88.7,635.6l21.1-4.5l-0.4-6.4l-21,4L88.7,635.6z M109.7,631l-20.8,4.5l-0.3-6.5l20.7-4
			C109.3,625,109.7,631,109.7,631z"/>
		<polygon class="st66" points="106.3,601.5 106.3,600.3 130.5,597.2 130.6,598.3 		"/>
		<polygon class="st66" points="110.8,602.5 111,603.6 130.5,600.9 130.3,599.8 		"/>
		<polygon class="st66" points="116.9,604.3 117.1,605.7 130.8,603.7 130.6,602.4 		"/>
		<polygon class="st66" points="115.3,607.1 115.5,608.6 131.1,606.6 130.9,605 		"/>
		<polygon class="st66" points="109.4,610.6 109.6,611.9 131.2,608.9 131.1,607.6 		"/>
		<polygon class="st66" points="121.5,611.8 121.6,613.1 131.3,611.6 131.2,610.2 		"/>
		<polygon class="st66" points="89.5,604.9 89.4,603.1 103.9,601.3 104,602.9 		"/>
		<polygon class="st66" points="92.3,606.9 92.4,608.7 104.1,606.9 104,605.3 		"/>
		<polygon class="st66" points="96,610.4 96.2,612.5 104.4,611.2 104.3,609.2 		"/>
		<polygon class="st66" points="95.1,614.5 95.3,616.8 104.7,615.6 104.6,613.2 		"/>
		<polygon class="st66" points="91.7,619.1 91.9,621 105,619 104.8,617.1 		"/>
		<polygon class="st66" points="99.3,622.1 99.4,624.1 105.2,623 105.1,621 		"/>
		<polygon class="st67" points="77.9,539.2 83.2,676.1 82.7,676.1 77,539.3 		"/>
		<polygon class="st68" points="77,539.3 54.3,531.8 109.4,525.4 135.2,532 		"/>
		<path class="st69" d="M65,568.2c3.7-3.1,1.9-14,1.9-14c1.6,0.3,2.3,3,2.3,3l0.8,11.2C67.9,573.9,65,568.2,65,568.2z"/>
		<path class="st69" d="M59.5,555.8c-0.3-2.6,1.3-4.1,1.3-4.1l5,2c1.5,7.8,0,12,0,12C63.8,552.8,59.6,555.8,59.5,555.8z"/>
		<path class="st69" d="M60.2,569.6l-0.5-13c3.5-2.8,4.9,6.2,4.9,6.2C61.1,558.3,60.2,569.6,60.2,569.6z"/>
		<path class="st69" d="M61.6,576.1l4.1,1.7c-4-10-2.2-15-2.2-15C59.7,563.5,61.6,576.2,61.6,576.1z"/>
		<path class="st69" d="M70.4,577.1l-0.5-6.6c-2.9,3.6-6-3.2-6-3.2C66.6,586.1,70.3,577.2,70.4,577.1z"/>
	</g>
	<g>
		<ellipse class="st0" cx="221.1" cy="461" rx="103.3" ry="107.9"/>
	</g>
	<polyline class="st0" points="199.1,566.2 129.9,597.8 150.8,539.8 	"/>
	<g>
		<path class="st70" d="M553.3,629.4l-2.9-2.9c0,0-94.5-6.6-97.9,0.2c-3.4,6.8,36.3,24.7,36.3,24.7s7.4,6.6,20.2,10.8
			c12.8,4.3,43.2-27.6,43.2-27.6L553.3,629.4z"/>
		<path class="st71" d="M427.3,627.8c-3.9,1.7-1.3,9.4-1.3,9.4s4.1,2.2,8,4.6c3.8,2.3,7.8-1,7.8-1c7.1-4.8,2.9-12.5,2.9-12.5
			S431.2,626.1,427.3,627.8z"/>
		<path class="st72" d="M439.2,628.2c-3.1,1.3-5,8.6-5,8.6c0.8,8.3,6.5,3.5,6.5,3.5c6.5-4.5,2.6-11.9,2.6-11.9
			S442.3,627,439.2,628.2z"/>
		<path class="st73" d="M427.5,627.8c-1.8,1.1,0.2,9.8,0.2,9.8c2.1,3,3.2,1,3.2,1c-2.4-2.2,0.8-5.5,0.8-5.5c1-0.3,3.1-5,3.1-5
			L427.5,627.8z"/>
		<path class="st74" d="M549.5,632.4c2.5,6.7,12.8,6.6,12.8,6.6c9.2-6.4,4.9-15.9,4.9-15.9l-6.9-4
			C560.4,619.1,547.1,625.5,549.5,632.4z"/>
		<path class="st75" d="M553.3,629.4c-1.8,1.3-0.9,5.3-0.9,5.3l2.9,1c-0.4-1.7,4.6-9.5,4.6-9.5l0.6-2.6
			C560.5,623.7,555.1,628.1,553.3,629.4z"/>
		<path class="st76" d="M495,678.3c-4-0.9-3.9-4-3.9-4l-1.6-1.8l-1.4-1.2l2.4-5.5l5.5-4.2l8.2-1.6l4.8,2.3l2.2,8.9l-2,0
			c-1.5,7-5.5,6.8-5.5,6.8S499.3,679.3,495,678.3z"/>
		<path class="st77" d="M506.1,663.2l5.8,9.1l1.2-2.7c-4.7-2.3-1.3-7.8-1.3-7.8l-8.5-2.9l-15.3,1l0.2,11.5l1.4,1.2
			c-0.6-5.5,10.6-11,10.6-11C502.8,660.9,506.2,663.1,506.1,663.2z"/>
		<path class="st78" d="M465.3,622.1c0,0-0.9,3.1-9.1,5.2c-8.2,2-28.8,0.5-28.8,0.5l-0.1-7.1c2.3-3.9,29.5-18.5,29.5-18.5
			L465.3,622.1z"/>
		<polygon class="st79" points="458.8,611.7 432,617.8 428.9,620.6 457.9,614.7 		"/>
		<path class="st80" d="M493.9,605.8l35.3,0.7l1.1,0.2l-0.3,2.5c6.6-0.1,24.6,2.5,28.1,4.7s2.4,9.8,2.4,9.8L542,638.1
			c-16.3,13.2-45.9,23.5-45.9,23.5c-8.8,3.9-8.3-4.9-8.3-4.9l-0.2-12.7c-8-0.4-31.5-16.9-31.5-16.9l2.6-15.5L493.9,605.8z"/>
		<path class="st81" d="M443.4,426.8l-2.1,14.5l3.1,18.6l-0.6,23.4l3.6,45.3l2.2,30.6l0.7,10.9l0.5,20.2l2.7,26.4l2.2,6
			c2.5,7.6,3.2-2.5,3.2-2.5l0-8.5l1.2-1.8l-4.2-147l-0.6-0.8l-1,0.6l-0.3,42.8l2.7,96.7l0.3,19.9l-1.2-2.1l-3.3-29.9l-0.4-20.2
			l-3.2-43.5l-3.3-42.9l0.6-22.9l-2.4-19.5l1.9-13.1L443.4,426.8z"/>
		<path class="st82" d="M455.1,454.3l0.8-7.5l17.5,0.6l25.1,28.5l4,84.1l-12,67.6c-15.8-2.5-31.7-15.8-31.7-15.8l-2.9-149
			L455.1,454.3z"/>
		<polygon class="st83" points="491.3,457.1 495.6,457 492,547.4 490.2,511.3 		"/>
		<path class="st84" d="M534.2,444.7l-5,161.9c-3.9,6.3-36.6,20-36.6,20l-2.2,0.9l3.1-169.1L534.2,444.7z"/>
		<path class="st85" d="M518.3,567l-11.9,4.6c0,0-1.1-0.6-1.1-1.4c0-0.8,13.5-7.4,13.5-7.4l1.5,0L518.3,567z"/>
		<polygon class="st85" points="522.9,509.5 515.1,514.8 502.8,515.2 511.4,506.8 522.1,507.4 		"/>
		<polygon class="st85" points="526.4,455.6 508.7,458.8 507.3,455.2 523.1,449.8 		"/>
		<polygon class="st86" points="518.2,567 508.2,572.1 493.3,575 494,585.2 529.3,567.8 529.1,557.8 		"/>
		<path class="st87" d="M463.6,451.8c0.2,12.2,5.7,11.3,5.7,11.3l-0.2-10.6C469.1,452.5,463.4,439.6,463.6,451.8z"/>
		<path class="st88" d="M455.4,450.8c-0.6,0-2.5,0.7-2.5,0.7l-0.4,9.8c3,3.3,6-0.1,6-0.1l-0.2-9.6c-0.3-0.7-2.3-0.9-2.3-0.9
			S456,450.8,455.4,450.8z"/>
		<polygon class="st89" points="492.5,453.8 487.2,444.5 455.2,442.9 456.4,449.5 487.9,459.1 		"/>
		<polygon class="st90" points="487.2,449.6 485.4,447.9 457.7,438.7 454.9,441.2 455.2,442.9 458.2,443.9 466.7,447 476.6,449.8 
			480.6,449.5 		"/>
		<polygon class="st91" points="457.1,439 456.4,445.1 457.9,445.7 458.2,443.9 463.4,443.5 		"/>
		<path class="st92" d="M477.6,449.8l-2,0.6l-2.8-0.4c-1.3,3.1-2.4,1.4-2.4,1.4l0.4-2.3l-4.6-0.5c-1.1-2.9,2.1-3.1,2.1-3.1l4.9,2.3
			l2.4,0.2L477.6,449.8z"/>
		<path class="st93" d="M488.7,451l-1.1,2.6c0,0-1.3-0.8-2.3-2.2c-1-1.4-6.5-1.3-6.5-1.3l0-1.7l6.5,0.5L488.7,451z"/>
		<path class="st94" d="M490.2,447.8l28.1-16.2l15.1-4.8l0.7,17.9l-37.1,12.8c-5.2,1.7-9.2,1.6-9.2,1.6c1.1-5.6-3.8-6.3-3.8-6.3
			l0-1.1c1.4-1.2,3.7,1,3.7,1L490.2,447.8z"/>
		<polygon class="st95" points="522.7,511.7 507.6,517.7 494.9,492.5 494.3,517.9 494.3,530.4 530.6,514.7 530.4,504.1 		"/>
		<path class="st96" d="M522,507.4c-1.5,7.9-16.2,6.7-16.2,6.7l-0.4-4.2l-10.6,8c1.4,2.1,17.1,1.7,26.1-2.6
			c8.9-4.3,9.5-11.3,9.5-11.3S523.6,499.5,522,507.4z"/>
		<path class="st97" d="M486.7,442.9l-1.4-8.9l-34.4-2.8l1.6,3.3l3.3,5.9c0,0,9.5,3.7,15.2,5.6c5.7,1.9,13.7,2.3,13.7,2.3
			L486.7,442.9z"/>
		<path class="st98" d="M464.3,443.9l-1.5-2.8c-2.4-0.6-2.9-4.4-2.9-4.4l1.5,0.3c0.7,4,4.3,3.2,4.3,3.2l-0.9-2.3l1.4,0
			c0,0,0.9,3,1.8,3.1s2.4,2.8,2.4,2.8C470.5,446.1,464.2,443.9,464.3,443.9z"/>
		<path class="st99" d="M451.8,432.6c1.5,2.6,3.8,2.6,3.8,2.6c3,0.9,3.2,4.5,3.2,4.5l-0.9,0c0-1-1.1-2.1-1.1-2.1
			c0.5,1.7-0.9,2.1-0.9,2.1c0.1,2.2-1,1.4-1,1.4l0-1.4l-5.3-9.1C449.7,430.7,450.3,429.9,451.8,432.6z"/>
		<path class="st100" d="M521.9,413l-37.1,35.4l4.3,6.2c8.5,1.9,20.1-7.9,20.1-7.9l24.3-19.9l-0.9-14.6L521.9,413z"/>
		<path class="st101" d="M483.2,442.7l-1.6-5.2l31.4-22.1l20-8.9l-1,10.2c0.3,1.9-2.5,4.9-2.5,4.9c-2.1-2.5-2.1,1.6-2.1,1.6
			l-14.7,13.1c-14.4,10.3-22.6,11.3-22.6,11.3L483.2,442.7z"/>
		<path class="st102" d="M482.7,439.3c0,0,11,7.9,7.5,8.5c-3.4,0.6-5.4,0.6-5.4,0.6l-3.7-9L482.7,439.3z"/>
		<path class="st103" d="M479.3,401l-24.7,14.3l-1.4-5.4c1.3-2.9,21.3-17.8,21.3-17.8c3.3-2.4,6.3-1.2,6.3-1.2l6.3-4.1l0.9,0
			L479.3,401z"/>
		<path class="st104" d="M459.3,421.8l-6.3-0.5l-4.2-5.4l4.5-6c4.7,5,12.6-5.4,12.6-5.4c6-6.4,11.7-10.9,11.7-10.9l1.6,0.7
			L459.3,421.8z"/>
		<path class="st105" d="M455.7,423.9l0.3,6.4l11.9,3.6l14.8-0.2l10.8,1l0.4,0.8c0,0-2.6,5.4-21.5,3.2c-18.9-2.3-22.5-8.1-22.5-8.1
			c-0.9-2.1,2.7-7.1,2.7-7.1l0-1l-1.8-0.2c-1.8-0.3-4.9,5.6-4.9,5.6l-2.1-1.2c0.3-4.2,5.2-10.8,5.2-10.8c3,0.2,4.7,4.7,4.7,4.7
			L455.7,423.9z"/>
		<path class="st106" d="M478.6,436l-21.5-7l-3.5-5.7l-1.3-0.6c1.9-4.5,23-25.6,23-25.6c3.1-3.1,14.9-11.7,14.9-11.7
			c8,0,18.6,1.5,18.6,1.5c9.6,0.7,22.9,7.4,22.9,7.4l-31.6,32c3.4,3.6-7.3,7.3-7.3,7.3L478.6,436z"/>
		<path class="st107" d="M460.1,420.6c0.5-1.8,5.1-2.1,5.1-2.1c1.8-0.4,2.6,1.2,2.6,1.2C467.8,422,459.7,422.4,460.1,420.6z"/>
		<path class="st107" d="M466.2,426.4c-0.2,0-1.3-1.8,2.4-1.9s4.4,2.2,4.4,2.2C468.9,428.8,466.3,426.3,466.2,426.4z"/>
		<path class="st107" d="M479.7,424.5c0,0-0.1-3,3.3-1.5c3.2,1.5,2.6,3,2.6,3C482.3,427.6,479.7,424.5,479.7,424.5z"/>
		<path class="st108" d="M486.9,420.1c0,0-19,3.7-19.6-5.9c-0.6-9.6,20.3-24.6,20.3-24.6c17.4-3,33.5,6.6,33.5,6.6
			C504,417.1,486.9,420.1,486.9,420.1z"/>
		<path class="st109" d="M471.6,413.3c-1.2-1,0.1-4.2,0.1-4.2c0.7-2.8,2.7-2.9,3.6-2.5S475,410,475,410S472.7,414.3,471.6,413.3z"/>
		<path class="st110" d="M474.1,416.7c0.7-2,8.8-2.4,8.8-2.4l0,2.6C473.2,418.8,474.1,416.7,474.1,416.7z"/>
		<path class="st111" d="M488.3,416.4c-2.6-0.8,0.8-2.5,0.8-2.5s5.1-3.6,7.5-3c2.3,0.6-2.4,3.4-2.4,3.4
			C491,416.3,488.2,416.4,488.3,416.4z"/>
		<path class="st112" d="M476.2,403.8l12.6-10.5c10-1.1,23.9,5.4,23.9,5.4l-11.2,11.2C493.1,410.2,476.2,403.8,476.2,403.8z"/>
		<polygon class="st113" points="501.3,409.1 480,404.2 488.1,396.6 509.7,401.5 		"/>
		<polygon class="st114" points="488.1,396.6 488.9,395.5 511,400 509.7,401.5 		"/>
		<path class="st115" d="M504.9,393.4c-1.2-1.2,1.4-1.8,1.4-1.8l0,2.3L504.9,393.4z"/>
		<path class="st115" d="M506.8,392c1.3-0.1,0.5,0.9,0.5,0.9C506.1,393.7,506.8,392,506.8,392z"/>
		<path class="st116" d="M483.2,410.8c-2.7-1.8,1.4-2.1,1.4-2.1c3.2,0.6,0.6,2.1,0.6,2.1C484.4,411.4,483.1,410.8,483.2,410.8z"/>
		<path class="st117" d="M493.5,412.9c-0.8-1.2,1.8-2,1.8-2c1.7,0.7-0.6,2-0.6,2L493.5,412.9z"/>
		<path class="st117" d="M489.7,414.2c2.3,0.3,0,1,0,1C487.1,414.6,489.7,414.2,489.7,414.2z"/>
		<path class="st118" d="M473.9,408.9c0,0-1.4-1.6,0-1.8c1.4-0.2,0.9,0.8,0.9,0.8C474.3,409,473.9,408.9,473.9,408.9z"/>
		<path class="st119" d="M471.9,411.6c-0.5-1,0.7-1,0.7-1c1.1,0.5-0.2,1.2-0.2,1.2L471.9,411.6z"/>
		<path class="st120" d="M481,415.1c2.7,0.5,0.5,1.8,0.5,1.8C478.7,416.1,481.1,415.1,481,415.1z"/>
		<path class="st121" d="M499.5,392.4c0-2.2,4.5-0.9,4.5-0.9l0.2,1.6C501,393.5,499.5,392.5,499.5,392.4z"/>
		<path class="st122" d="M523.7,394.8c0,0,1-1.7,2.8-1.2c1.7,0.5-1.1,2.4-1.1,2.4C522.5,396.5,523.7,394.8,523.7,394.8z"/>
		<path class="st123" d="M481.4,423.6c1.8-0.3,2.2,1.8,2.2,1.8C481.2,425.2,481.4,423.6,481.4,423.6z"/>
		<path class="st123" d="M467.6,426c0.6-1.3,2.8,0,2.8,0C468.6,426.8,467.6,426,467.6,426z"/>
		<path class="st123" d="M462.6,420.1c0.8-1.3,3.1-0.6,3.1-0.6C464.5,420.5,462.5,420.1,462.6,420.1z"/>
		<path class="st124" d="M485.7,430.1c0,0,42.2-36.5,46-35.8c3.9,0.7,1.4,12.4,1.4,12.4l-38,31.8c-10.3,3.9-14,0.9-14,0.9
			L485.7,430.1z"/>
		<path class="st125" d="M462,435.4c-8.1-1-11.8-5.5-11.8-5.5c1.9-8.3,8-11.2,8-11.2c-4,10.2,8.8,11.7,8.8,11.7
			c14.3,2.4,22.1-4,22.1-4l4.2,8.4C485.4,443,462.1,435.4,462,435.4z"/>
		<path class="st126" d="M466.9,443.4c0,0-1.8-2,0-1.9s1.3,2.2,1.3,2.2C467.9,444.3,466.9,443.4,466.9,443.4z"/>
		<path class="st127" d="M494.8,470.8l-0.2-11.8l12.7-3.8c10.9,3,15.7-5.4,15.7-5.4l9.1-3.2l0.2,10.7L494.8,470.8z"/>
		<polygon class="st128" points="530.4,504.1 494.8,517.9 494.9,472.4 532.4,459.1 		"/>
		<path class="st129" d="M475.6,448c0.6-0.7,2,0.5,2,0.5l-2,1.9C475.7,450.4,475,448.8,475.6,448z"/>
		<path class="st129" d="M471.6,448.7c0,0-0.5-2.5,1.9-1.4c2.3,1.1-0.7,2.8-0.7,2.8C471.9,450.8,471.6,448.7,471.6,448.7z"/>
		<polygon class="st130" points="455.2,442.9 455.4,451.7 456,451.7 455.9,446.6 		"/>
		<path class="st131" d="M529.5,556.2c-13.9,9.9-36.2,17.1-36.2,17.1l1-42c14.1-0.5,36.3-15.4,36.3-15.4L529.5,556.2z"/>
		<path class="st132" d="M493.4,575l11.8-4.7c10,0.7,15-7.5,15-7.5l8.9-5C522.2,577.6,493.3,575,493.4,575z"/>
		<path class="st133" d="M528,607c-7.1,8.2-35.3,19.5-35.3,19.5l0.9-40.1c4-0.5,19-6.9,19-6.9c5.1-0.8,15.9-9.5,15.9-9.5L528,607z"
			/>
		<path class="st134" d="M466.4,450l15.2,2.8l9.9,6l-1.1,52.4c-17.8-38.3-21.6,19.6-21.6,19.6c4.9-25.1-3.9-70.6-3.9-70.6L466.4,450
			z"/>
		<polygon class="st135" points="455.4,450.8 451.9,448.5 452.1,443.5 455.2,442.9 		"/>
		<path class="st136" d="M488.6,648.1c0,14,12.4,6.3,12.4,6.3c25.2-6.2,57.2-34.5,57.2-34.5c-23.3-3.3-41.9,6.1-41.9,6.1
			c-12.5,2-20.8,28.5-20.8,28.5c-1.9-9.8,14-26,14-26c9-9.9,38-12.9,38-12.9l-17.5-6.5c-5.6,7.1-39.5,21.4-39.5,21.4
			C488.9,632.5,488.5,648.2,488.6,648.1z"/>
		<path class="st77" d="M499.4,679.3c-6.5,0.9-6.5-6.5-6.5-6.5s2.4-8.5,10.1-7.1c7.7,1.5,4.4,9.1,4.4,9.1S505.8,678.4,499.4,679.3z"
			/>
		<path class="st137" d="M563.8,636.4c-5,4.8-3.8-3.9-3.8-3.9s2.7-9,5.3-8.9c2.6,0.2,1.8,7.2,1.8,7.2
			C566.4,634.3,563.8,636.4,563.8,636.4z"/>
	</g>
	<g>
		<polygon class="st138" points="509.9,508.8 555.8,492.6 645,505.5 640.5,516.2 589.5,540 516.6,520.1 509.9,510.5 		"/>
		<path class="st139" d="M515.9,515.1c0,0,34.5-26.2,120.6-4.6l-2.1,7.6l-27.3,22.3l-58.5-16l-32.7-7V515.1L515.9,515.1z"/>
	</g>
	<g>
		<polygon class="st140" points="637.7,503.4 644.8,504.5 645.4,505.6 621.1,517.6 615.9,520 614.3,518.4 616.7,514 632.7,501.4 
			635.9,498.2 		"/>
		<polygon class="st141" points="637.7,506 622.9,512.2 634.4,505.5 635.9,505.6 		"/>
		<path class="st142" d="M616.9,515.2c0,0-3.8,4,2.5,3l-11.7,6.2l-3.9-0.6l-1.9-1.4l12.9-6.9L616.9,515.2z"/>
		<polygon class="st143" points="633.3,503.7 635.9,503.7 635.9,505.6 637.7,506 634.9,506.3 634.4,505.5 632.4,505 		"/>
		<polygon class="st144" points="568.1,501.2 628.4,508.5 601.9,522.4 535.1,513.7 559.8,500.2 		"/>
		<polygon class="st145" points="544.1,513.6 550.1,508.2 562.1,503.3 624.6,509.7 632.7,505.6 631.7,503.3 557.2,493.5 
			515.3,509.7 543.8,515.5 		"/>
		<polygon class="st146" points="633.3,504.9 635.3,504.9 635.3,505.6 603.2,522.6 598.2,521.8 599.1,521.3 603.6,521.3 		"/>
		<polygon class="st147" points="559.8,488.9 635.9,498.2 634.4,503 633.3,503 560.4,494.4 558.5,492.6 		"/>
		<path class="st148" d="M555.8,492.6c0,0,1.6-4.4,2.6-4.4c0.9,0,1,3.4,1,3.4l0.4,1.7v3.1v2.5l-1.4,1.5l-0.2,0.8l-0.6-1.5l-2.2-1.4
			v-3L555.8,492.6z"/>
		<polygon class="st149" points="586.7,516.3 587.5,516.9 583.8,519.1 583.7,517.9 		"/>
		<path class="st150" d="M582.4,514.6c0,0,3.6-1.3,4.3,1.6l-3,1.7L582.4,514.6z"/>
		<polygon class="st149" points="554.9,505.5 552.6,511.8 551.8,513.6 548.7,515.5 546.8,512 548.4,507.7 551.1,504.6 		"/>
		<path class="st151" d="M509.9,508.9l45.9-16.3l-0.4,2.8l-37.5,13.5c0,0-1.9,1.2,0.3,1.7h3.4l18.5,2l52.2,7.8l6.8,0.9l0.4,0.8
			l4.9,0.5l1.2,1.1l-6.9,2.1l-86.9-13l-1.9-2.3V508.9z"/>
		<polyline class="st152" points="542,502.4 545.8,500.9 583.8,506.5 583.8,507.2 581,508.2 542,502.4 		"/>
		<polyline class="st153" points="551.6,505.5 549.5,513.6 552.6,511.8 553.5,514.6 540.1,512.6 542,502.4 551.6,505.5 		"/>
		<polyline class="st153" points="572.1,508.2 573.7,517.6 583.8,519.1 582.8,508.9 572.1,508.2 		"/>
		<polygon class="st154" points="547.4,515.8 548.7,514.6 568.1,517.6 567.2,519.1 		"/>
		<polygon class="st155" points="542,504.1 542,502.4 581,508.2 583.8,506.5 585.3,507.2 581.5,509.7 		"/>
		<polygon class="st149" points="555.4,495.4 519.7,509.7 517.9,508.9 		"/>
		<path class="st156" d="M557.2,493.5c0,0-1-2.3,0-3.6C558.2,488.6,557.2,493.5,557.2,493.5z"/>
		<polygon class="st156" points="555.8,496.4 557.6,496.6 557.6,499.8 556,498.7 		"/>
		<polygon class="st156" points="558.4,500.4 558.4,497.4 559.8,496.4 559.8,498.9 		"/>
		<polygon class="st156" points="559.8,493.3 558.5,492.6 558.4,488.2 559.8,488.9 		"/>
		<polygon class="st157" points="559.8,493.3 633.3,503 633.3,504.9 632.7,505.6 559.8,495.4 		"/>
		<polygon class="st158" points="602.3,498.9 602.7,494.4 612.4,495.7 612.4,500.2 		"/>
		<polygon class="st158" points="628.9,502.4 630.6,498.2 635.9,498.2 633.3,503 		"/>
		<polygon class="st158" points="635.9,503 635.9,498.2 637.6,499.7 637.7,503.4 		"/>
		<path class="st159" d="M559.8,488.9c0,0,9.8,2.7,10.1,3.9l-10.1,0.5V488.9z"/>
	</g>
	<g>
		<path class="st160" d="M627.1,663.4c0,0,0.7,9.2-8.1,8.7c-8.7-0.5,4-10.6,4-10.6L627.1,663.4z"/>
		<polygon class="st161" points="644,509.9 634.4,655.6 601.1,691.5 579.9,616.2 596.8,543.3 609,524.4 645,505.5 		"/>
		<path class="st162" d="M609.5,527l34.4-17.1c0,0,1,0.8,1-4.3l-34.5,18.9L609.5,527z"/>
		<polygon class="st163" points="609.5,538.2 609.5,537 632.7,522.6 634,523.4 		"/>
		<polygon class="st164" points="610.5,524.4 601.1,691.5 607.7,524.4 		"/>
		<path class="st154" d="M599.4,524.4c0,0,4.2-1.4,7.3-0.6l2.9-0.8l32-16.7c0,0,7.3-2.2,1.5,0.7l-32.5,17.3h-1.5l-7.9,167.1h-2.8
			l-9.6-89L599.4,524.4z"/>
		<path class="st165" d="M509.9,513.7v-3.2c0,0,1,0.8,2.1,0.9c1.1,0.1,90.3,13.5,90.3,13.5l2.1,0.9l-0.5,2l-2,4.3l-86.9-9.4
			L509.9,513.7z"/>
		<polygon class="st166" points="615.3,539.5 630.3,530.7 632.7,526.9 630.6,525.3 609.5,538.2 611,540 		"/>
		<polygon class="st167" points="609.5,542.2 609.5,538.2 615.3,539.5 614.7,542.7 611.7,542.7 		"/>
		<polygon class="st168" points="630.6,525.3 635.4,522.6 649.3,524.5 649.3,525.3 646.1,527.7 631.1,526.3 		"/>
		<polygon class="st169" points="632.8,530.7 630.3,530.7 630.6,525.3 644.8,526.9 640.7,530.7 		"/>
		<polygon class="st169" points="613,542.6 615.3,539.5 623.6,539.8 621.4,542 614,543.3 		"/>
		<path class="st170" d="M644,527.1l-6.4-0.8c0,0-5.6,3-4.9,4.4l7.1,0.6L644,527.1z"/>
		<polygon class="st171" points="649.3,525.8 649.3,529.6 619.8,549 619.5,542.8 		"/>
		<path class="st164" d="M603.9,527.7c0,0,0.3-1.9-1.5-2.8l3.3,0.3l-1,24.8l-6.4,141.5l3.7-113.8L603.9,527.7z"/>
		<polygon class="st172" points="649.3,525.3 649.3,525.8 619.5,544.4 619.5,542.8 648.3,525.3 		"/>
		<path class="st173" d="M609.5,542.2c0,0,9.4,0.9,14.7-2.8c5.4-3.7,19.7-12.2,19.7-12.2l3.4-2.2l1.9,0.4l-29.5,18L609.5,542.2z"/>
		<path class="st174" d="M584.9,687.8c0,0-4.5,2.2-4.9,5.9c-0.4,3.6,2,6.5,2,6.5s2.1,3.5,7.9,3.7c5.7,0.1,7.5-6.1,7.5-6.1
			s0.4-3.4-1.5-4.7C594,691.7,584.9,687.8,584.9,687.8z"/>
		<path class="st175" d="M598.2,691.5l-0.7,1.1l-3,1.1l-5.4,5.2c0,0-3.9,2.2-4-2.3c-0.2-4.6,2.8-8.4,2.8-8.4L598.2,691.5z"/>
		<path class="st174" d="M522.2,669.7c0,0,2.8,3.3,1.4,7.7c-1.4,4.4-7.7,3.3-7.7,3.3s-5.1-1.5-6.4-8.9c-1.3-7.4,8.8-4.7,8.8-4.7
			L522.2,669.7z"/>
		<path class="st175" d="M525.1,669.9c0,0-7-0.4-8.5,4.5c0,0-0.4,1.9-2.3,1.6c-2-0.3-1.2-4.6-1.2-4.6l1.2-5.9L525.1,669.9z"/>
		<polygon class="st138" points="509.1,513.6 604.4,527.8 598.2,691.5 596.4,691.5 511.7,666.1 		"/>
		<polygon class="st161" points="509.9,513.6 602.7,527.5 596.4,691.5 512.9,666.6 		"/>
		<path class="st176" d="M540.2,522.3c0,0-0.2-1.4,1.7-1.1c1.9,0.3,28.3,4.5,28.3,4.5s1.7,0.2,1.4,1.9c-0.3,1.7-0.1,3.7-0.1,3.7
			s-0.4,0.8-1.6,0.8s-28.9-4.8-28.9-4.8s-1.1-0.1-1-1C540.2,525.3,540.2,522.3,540.2,522.3z"/>
		<polygon class="st170" points="609.5,542.2 619.8,543.3 619.8,549 609.5,548.1 		"/>
		<path class="st177" d="M509.9,510.5v-1.7c0,0-1.4,0.5-1.2,1.5c0.2,1,0,3,0,3l0.4,0.2l0.8,0.1L509.9,510.5L509.9,510.5z"/>
	</g>
	<g>
		<polygon class="st178" points="117.5,148.8 116.4,157.2 120.5,157.6 122,157.2 121.1,148.8 118.4,147.6 		"/>
		<path class="st179" d="M57.2,234.9c0,0-0.9,16.4-4.1,17.2l-2.4-8.9l2.3-9.3L57.2,234.9"/>
		<path class="st180" d="M53.2,235.1l-0.3,13.1l0.1,3.9c0,0-5.9,0.2-6.4-0.3c0,0-1.4-1.2-0.4-16.5s0,0,0,0L53.2,235.1"/>
		<polygon class="st181" points="48.5,157.8 43.8,142.5 45.3,142 51.2,141.5 51.8,142.6 56.1,157.2 49.9,158.8 		"/>
		<path class="st182" d="M117.5,235.4c0,0-1.1,11.1,2.3,15l4.6-2.2l-1.6-13.4L117.5,235.4z"/>
		<polygon class="st183" points="121.2,235.8 120.7,250.9 127.2,250.3 127.7,249.5 128.2,234.9 		"/>
		<polygon class="st184" points="112.2,156.6 115.7,156.6 126.9,157.2 129.4,158.1 129.4,193.1 129.4,231.5 130.3,233 114.5,234.8 
			100.4,232.2 83.2,231.5 74.4,213.3 82.4,183.1 93.6,168.4 		"/>
		<polygon class="st185" points="81.4,157.2 93.6,157.9 104.4,157.2 112.2,156.6 106.7,192.7 95.7,197.1 80.4,207.7 76,229 
			94.9,230.7 100.8,230.4 113,233.7 129.4,233 130.3,233 130.3,234.6 121.2,235.8 97.1,234.4 93,233.9 87.4,234.6 78.6,234.3 
			67.2,234.2 51.8,197.4 56,164.3 		"/>
		<polygon class="st186" points="39.7,159.2 51.8,157.2 81.4,157.2 71.7,160.1 59.6,195.3 62.3,198.7 67.2,234.2 55.8,235 
			42.3,235.4 42.3,175.8 		"/>
		<polygon class="st187" points="117.5,160.1 114.5,162.4 115.7,183.6 115,185.7 116,193.1 117.5,181 		"/>
		<path class="st187" d="M59.6,199.6h-1.2l0.6,19.3l2.2-1.9l0.6-5.4l-2.2-2.4c0,0,0-5.7,1.6-4.4C62.8,206.1,59.6,199.6,59.6,199.6z"
			/>
		<path class="st187" d="M89.9,160.1l-2.1-0.9c0,0-1.1,13.5-1.7,2.3v32.9l1.3,0.4l12.4,0.4L89.9,160.1z"/>
		<path class="st186" d="M100.4,157.7l3.9-0.5l-0.8,2.8h3.6v4.3l-1.8,0.6l-1.6-3.8c0,0-2.8-1.1-2.1,2.8l3.2,2.8l-1.7,6l-1.4-1.1
			l-0.4,2.4l1.8,1.3l-0.3,4.1c0,0-2.5,1.2,0.1,3.7l0.1,1.6l-1.9-1.9l-0.7-1.6V157.7z"/>
		<polygon class="st187" points="76,160.1 72.7,164.6 72.7,194.1 73.7,195.3 		"/>
		<path class="st187" d="M42.3,160.9c0,0,2.2,23.4,1.7,31.7h6.8L42.3,160.9z"/>
		<polygon class="st188" points="42.3,160.9 57.1,160.1 57.1,195.3 44.9,195.3 44.9,169.9 		"/>
		<polygon class="st188" points="60.3,160.1 71.7,160.1 71.7,194.1 59.6,195.3 59.6,192.8 		"/>
		<polygon class="st188" points="76,160.1 73.7,165.5 73.7,195.3 85.4,195.3 85.4,160.1 		"/>
		<polygon class="st187" points="116.3,201.5 114.5,199.6 115.4,228.5 116.8,230.7 117.5,228.1 		"/>
		<path class="st187" d="M87.4,201.1l-1.3-1.5v29.2l0.7,1.2c0,0-1,2.4,0.7,3.1h2.7c0,0-5.1-1.3-0.6-4.2
			C93.9,226,87.4,201.1,87.4,201.1z"/>
		<polygon class="st188" points="89.9,160.1 87.4,165.7 87.4,194 93.2,191.9 99.8,195.3 99.8,160.1 		"/>
		<path class="st187" d="M103.4,200.9l-2.5-1.3v16.6l0.8,1c0,0-2.4,2.2-0.8,5.6l0.8,2l-1.3,3.2l0.5,2.3l5,0.4h2.7l1.4,2.9h3.1v-2.9
			L103.4,200.9z"/>
		<path class="st187" d="M73.7,199.6l-1-0.9c0,0-0.7,11.8,0.5,14l1.2-4.9L73.7,199.6z"/>
		<path class="st188" d="M107.3,159.2c0,0-0.3,5.5-4.9,6.5v29.6h12.1l-0.5-36.1H107.3z"/>
		<path class="st189" d="M117.9,159.2c0,0-1.2,3.3-1.9,3.3c-0.7,0,0,30.6,0,30.6l5.2,1.3h6.2l0.9-3.2v-31.1L117.9,159.2z"/>
		<path class="st189" d="M57.1,200.3c0,0-9.4,10.4-10.8,15.3l-1.1,17.1h12l1.3-4.3L57.1,200.3z"/>
		<polygon class="st189" points="59.6,199.6 71.7,199.6 71.7,232.2 69.8,230.2 59.6,231.6 61.8,211.6 		"/>
		<polygon class="st189" points="73.7,199.6 84.8,199.6 85.4,229.6 73.7,230.7 		"/>
		<rect x="87.4" y="199.6" class="st189" width="12.4" height="29.4"/>
		<polygon class="st189" points="103,199.6 114.5,199.6 114,232.2 110.6,232.7 108.5,229.6 101.7,229 		"/>
		<polygon class="st189" points="116.3,200.3 129.4,200.3 129.4,229 129.4,231.5 117.3,232.2 		"/>
		<polyline class="st190" points="43.4,150.7 43.8,158.5 48.5,157.8 45,149.6 43.4,150.7 		"/>
		<polygon class="st187" points="60.3,160.1 58.4,164.3 58.4,195.3 59.6,195.3 		"/>
		<path class="st191" d="M43.7,200.3l2.9,2l1.9-2v2l-1.9,1.2v2.1c0,0,3.9,0.9,3.9,3l-2.5,3.7c0,0-0.9-4-2.7-2.8l-0.6-2.5
			c0,0-1.3,6,2.3,7.3L46.5,229h-1.1l-0.9-1L43.7,200.3z"/>
		<path class="st192" d="M121.2,235.8c0,0-3.2,10.5-1.4,14.6l0.9,0.5L121.2,235.8z"/>
		<path class="st193" d="M43.8,142.5l-0.4,8.2c0,0,1.6-0.3,5.1,7.1L43.8,142.5z"/>
		<path class="st194" d="M120.1,143.5c0,0-2.1-0.5-2.5,5.3c0,0,2.9-2,3.3,8.1l2.6,0.3l-1.5-13.1L120.1,143.5z"/>
		<path class="st195" d="M121.2,156.9c0,0,1.1-11.9-1.2-13.4l6.5,0.2c0,0,2.8,0.4,1.9,14L121.2,156.9z"/>
	</g>
	<rect x="158.4" y="380.6" class="st196" width="123.5" height="164.6"/>
	<path class="st197" d="M274.1,462.9H169.4c-1.7,0-3.1-1.4-3.1-3.1V394c0-1.7,1.4-3.1,3.1-3.1h14.5h75.3h14.9c1.7,0,3.1,1.4,3.1,3.1
		v65.8C277.2,461.5,275.8,462.9,274.1,462.9z"/>
	<line class="st198" x1="183.9" y1="390.9" x2="259.2" y2="390.9"/>
	<path class="st199" d="M183.9,397.2h2.3v-7h1.2v-2h-1.7c0,0-0.1-3.2,3.1-3.4c0,0,3.4,0,3.2,2.8h2.5c0,0,0-4.8-6-5.1
		c0,0-4.6,0.3-4.6,4.3V397.2z"/>
	<path class="st199" d="M188,388.1h2.2v6.3c0,0,0,1.6,2.2,0.9v1.9h-2.7c0,0-1.6-0.1-1.7-1.6V388.1z"/>
	<path class="st199" d="M239.2,396.6h1.9v-2.8h1.9v2.8h2.1v-6.7c0,0-0.5-2.4-3.2-2.5c0,0-2.6,0.6-2.8,2.5L239.2,396.6z"/>
	<path class="st196" d="M241.2,392h1.8v-1.6c0,0-0.7-1.3-1.8,0V392z"/>
	<path class="st199" d="M245.8,387.7v8.9h1.7v-6.8h1.8c0,0,0.7,0.4,0.7,1.1c0,0-0.1,1.1-0.6,1.4H248v1.7c0,0,2.6,0.2,3.3-0.8
		c0,0,1.5-2.1,0-4.6c0,0-0.9-0.9-2.6-0.9L245.8,387.7z"/>
	<path class="st199" d="M251.9,387.7h2.6v3.2c0,0,1.4,1.9,2.3,0v-3.2h2.4v3.2c0,0-0.6,2.6-2.6,2.8v3h-1.9l-0.1-3.1
		c0,0-2.3-0.6-2.3-2.6L251.9,387.7z"/>
	<circle class="st200" cx="260.5" cy="385.4" r="1.7"/>
	<rect x="259.7" y="384.3" class="st201" width="8" height="7.3"/>
	<text transform="matrix(1 0 0 1 259.6761 386.5284)" class="st199 st202 st203">R</text>
	<polygon class="st204" points="180.3,475.4 188.7,475.4 184.5,468 	"/>
	<rect x="182.3" y="470.8" class="st201" width="4.4" height="8.1"/>
	<text transform="matrix(1 0 0 1 183.9329 474.0811)" class="st205 st206">!</text>
	<circle class="st199" cx="211.7" cy="392.3" r="4.6"/>
	<circle class="st196" cx="211.9" cy="392.3" r="2.9"/>
	<path class="st199" d="M192.1,388.1h2.4v5.5c0,0,1.1,2.3,2.5,0v-5.5h2.1v6.5c0,0-1,2.6-3.2,2.6c0,0-2.8,0.1-3.5-2.6L192.1,388.1z"
		/>
	<rect x="199.7" y="388.1" class="st199" width="2.3" height="9.1"/>
	<path class="st199" d="M202.6,388.1v9.1l2.8,0c0,0,2.8-0.2,3.2-1.9c0,0,0.6-5.9-1.2-6.9C207.3,388.5,206.6,387.6,202.6,388.1z"/>
	<path class="st196" d="M204.6,389.9v4.7c0,0,2.7,0.9,2.7-2.4C207.3,392.3,207.3,390.1,204.6,389.9z"/>
	<circle class="st199" cx="200.8" cy="385" r="2.4"/>
	<circle class="st2" cx="172.7" cy="472.8" r="3.1"/>
	<circle class="st207" cx="172.7" cy="472.8" r="2"/>
	<circle class="st207" cx="206.8" cy="470.8" r="3.1"/>
	<circle class="st2" cx="271.6" cy="470.8" r="3.1"/>
	<circle class="st207" cx="271.6" cy="470.8" r="2"/>
	<circle class="st207" cx="250.7" cy="470.8" r="4.1"/>
	<circle class="st196" cx="250.7" cy="470.8" r="2.6"/>
	<circle class="st207" cx="193.8" cy="470.8" r="4.1"/>
	<circle class="st196" cx="193.8" cy="470.8" r="2.6"/>
	<circle class="st196" cx="200.8" cy="385" r="1.5"/>
	<path class="st199" d="M215.6,388v1.5c0,0,1.4-0.2,1.4,0.5v7h2.3v-7.5c0,0-0.1-1.5-1.2-1.5H215.6z"/>
	<polygon class="st199" points="219.5,387.7 221.8,387.7 221.8,390.8 223.8,390.8 223.8,387.7 225.8,387.7 225.8,396.9 223.9,396.9 
		223.9,393.3 221.8,393.3 221.8,396.9 219.8,396.9 	"/>
	<path class="st199" d="M231.6,387.7v2.2h-2.3c0,0-0.8,0.8,0,1.2h2.3v2.1h-2.4c0,0-1.2,0.7,0,1.3h2.4v2.5H228c0,0-1.9-0.7-1.9-2.5
		c0,0-0.1-1.5,0.8-2.1c0,0,0.3-0.3-0.2-0.8c0,0-0.5-1.3-0.3-2.1c0,0,0.8-1.8,1.7-1.7H231.6z"/>
	<path class="st199" d="M232.2,387.7v9h2.1v-6.8h1.3c0,0,1.3,0.9,0,1.6h-1v1.8h0.8c0,0,0.6,0,0.5,1.5c0,0-0.5,3.3,0.8,4.5
		c0,0,1.9,2.8,5,2.1c0,0,3.3-0.9,3.4-3.5v-0.6h-1.9c0,0-0.3,2.1-2.1,2.2c0,0-2.6,0.4-3.1-2.2l-0.3-4.6c0,0-0.2-0.6-0.7-1.1
		c0,0,0.9,0,1-0.6c0,0,0.2-1.3-0.1-2.1c0,0-0.5-1.1-2.4-1.1L232.2,387.7z"/>
	<rect x="206" y="423.9" class="st201" width="36" height="3.9"/>
	<text transform="matrix(1 0 0 1 205.9768 427.1983)" class="st202 st206">TREATMENT TIME</text>
	<rect x="206" y="430.5" class="st201" width="36" height="3.9"/>
	<text transform="matrix(1 0 0 1 205.9768 433.7813)" class="st202 st206">TEMPERATURE</text>
	<rect x="206" y="436.8" class="st201" width="36" height="3.9"/>
	<text transform="matrix(1 0 0 1 205.9768 440.0401)" class="st202 st206">AIR SPEED</text>
	<rect x="206" y="443.1" class="st201" width="36" height="3.9"/>
	<text transform="matrix(1 0 0 1 205.9768 446.3604)" class="st202 st206">PULSE TIME</text>
	<rect x="206" y="449.5" class="st201" width="36" height="3.9"/>
	<text transform="matrix(1 0 0 1 205.9768 452.834)" class="st202 st206">PREHEAT TIMER</text>
	<rect x="206" y="456" class="st201" width="36" height="3.9"/>
	<text transform="matrix(1 0 0 1 205.9768 459.2735)" class="st202 st206">CLOCK</text>
	<rect x="173.8" y="482.2" class="st197" width="96.6" height="56.5"/>
	<rect x="173.8" y="482.1" class="st208" width="96.6" height="3.9"/>
	<rect x="177" y="527.4" class="st209" width="43.1" height="8.9"/>
	<rect x="226.5" y="527.4" class="st209" width="40.2" height="8.9"/>
	<circle class="st2" cx="269.8" cy="539.4" r="3.1"/>
	<circle class="st207" cx="269.8" cy="539.4" r="2"/>
	<circle class="st2" cx="174.3" cy="539.4" r="3.1"/>
	<circle class="st207" cx="174.3" cy="539.4" r="2"/>
	<rect x="175.2" y="488.3" class="st201" width="22.3" height="1.6"/>
	<text transform="matrix(1 0 0 1 177.5545 489.6329)" class="st210 st211">TO START TREATMENT</text>
	<rect x="223.6" y="488.3" class="st201" width="22.3" height="1.6"/>
	<text transform="matrix(1 0 0 1 224.4529 489.6329)" class="st210 st211">PREHEAT TIMER/PREHEAT</text>
	<rect x="223.8" y="502.4" class="st201" width="24.7" height="1.6"/>
	<text transform="matrix(1 0 0 1 224.5037 503.7383)" class="st210 st211">SETTING THE PREHEAT TIMER</text>
	<rect x="220.6" y="512.1" class="st201" width="24.7" height="1.6"/>
	<text transform="matrix(1 0 0 1 224.5188 513.4278)" class="st210 st211">SETTING THE CLOCK</text>
	<rect x="174.9" y="492.7" class="st201" width="22.3" height="1.6"/>
	<text transform="matrix(1 0 0 1 177.6038 494.0059)" class="st210 st211">TO STOP TREATMENT</text>
	<rect x="176.2" y="498.1" class="st201" width="22.3" height="1.6"/>
	<text transform="matrix(1 0 0 1 177.5213 499.4561)" class="st210 st211">TO SET TREATMENT TIME</text>
	<rect x="177" y="505.5" class="st201" width="22.3" height="1.6"/>
	<text transform="matrix(1 0 0 1 177.4124 506.8487)" class="st210 st211">TREATMENT TEMPERATURE</text>
	<rect x="170.3" y="512.9" class="st201" width="22.3" height="1.6"/>
	<text transform="matrix(1 0 0 1 177.222 514.2422)" class="st210 st211">AIR SPEED</text>
	<rect x="170.8" y="520.3" class="st201" width="22.3" height="1.6"/>
	<text transform="matrix(1 0 0 1 177.3299 521.6358)" class="st210 st211">PULSE TIME</text>
	<rect x="174.3" y="528.3" class="st201" width="22.3" height="1.6"/>
	<text transform="matrix(1 0 0 1 178.2713 529.6085)" class="st210 st211">MISES EN GARDE</text>
	<rect x="220.8" y="528.3" class="st201" width="22.3" height="1.6"/>
	<text transform="matrix(1 0 0 1 227.469 529.6085)" class="st210 st211">CAUTIONS</text>
	<rect x="227.3" y="490.8" class="st201" width="34.5" height="10.2"/>
	<text transform="matrix(1 0 0 1 227.3279 491.9327)"><tspan x="0" y="0" class="st202 st212">Lorem ipsum dolor sit amet, consectetur adipiscing </tspan><tspan x="0" y="1.9" class="st202 st212">elit. Nemo nostrum istius generis asotos iucunde </tspan><tspan x="0" y="3.7" class="st202 st212">putat vivere. An vero, inquit, quisquam potest </tspan><tspan x="0" y="5.6" class="st202 st212">probare, quod perceptfum, quod. Itaque nostrum </tspan><tspan x="0" y="7.4" class="st202 st212">est-quod nostrum dico, artis est-ad ea principia.</tspan></text>
	<rect x="275.1" y="492.8" class="st201" width="34.5" height="8.8"/>
	<rect x="227.3" y="505.1" class="st201" width="34" height="6.2"/>
	<text transform="matrix(1 0 0 1 227.3279 506.1671)"><tspan x="0" y="0" class="st202 st212">Est enim tanti philosophi tamque nobilis audacter </tspan><tspan x="0" y="1.9" class="st202 st212">sua decreta defendere. Hoc etsi multimodis </tspan><tspan x="0" y="3.7" class="st202 st212">reprehendi potest, tamen accipio, quod dant. </tspan></text>
	<rect x="179.6" y="530.6" class="st201" width="34" height="10.1"/>
	<text transform="matrix(1 0 0 1 179.5887 531.6944)"><tspan x="0" y="0" class="st202 st212">An vero, inquit, quisquam potest probare, quod </tspan><tspan x="0" y="1.9" class="st202 st212">perceptfum, quod. Itaque nostrum est-quod </tspan><tspan x="0" y="3.7" class="st202 st212">nostrum dico, artis est-ad ea principia, quae </tspan></text>
	<rect x="229" y="530.4" class="st201" width="34" height="10.1"/>
	<text transform="matrix(1 0 0 1 228.9573 531.463)"><tspan x="0" y="0" class="st202 st212">a Theophrasto mirabiliter est laudata per se ipsa </tspan><tspan x="0" y="1.9" class="st202 st212">quicum arcana, quicum occulta omnia</tspan><tspan x="0" y="3.7" class="st202 st212">Vos autem cum perspicuis dubia</tspan></text>
	<rect x="227.3" y="514.5" class="st201" width="34" height="6.2"/>
	<text transform="matrix(1 0 0 1 227.3279 515.6426)"><tspan x="0" y="0" class="st202 st212">Numquam facies. Etenim semper illud extra est, </tspan><tspan x="0" y="1.9" class="st202 st212">quod arte comprehenditur. Ergo illi intellegunt quid </tspan><tspan x="0" y="3.7" class="st202 st212">Epicurus dicat, ego non intellego?</tspan></text>
	<rect x="180.9" y="515.3" class="st201" width="34" height="6.2"/>
	<text transform="matrix(1 0 0 1 180.8528 516.4141)"><tspan x="0" y="0" class="st202 st212">Aliud igitur esse censet gaudere, aliud non dolere. </tspan><tspan x="0" y="1.9" class="st202 st212">Utram tandem linguam nescio? Tubulum fuisse, qua </tspan></text>
	<rect x="180.9" y="522.5" class="st201" width="34" height="6.2"/>
	<text transform="matrix(1 0 0 1 180.8528 523.627)"><tspan x="0" y="0" class="st202 st212">Ciceronem, sed etiam me ipsum abducas licebit. Falli </tspan><tspan x="0" y="1.9" class="st202 st212">igitur possumus</tspan></text>
	<rect x="179.6" y="490.2" class="st201" width="38.1" height="1.9"/>
	<text transform="matrix(1 0 0 1 179.5662 491.2901)" class="st202 st212">Idemque diviserunt naturam hominis.</text>
	<rect x="179.6" y="494.9" class="st201" width="38.7" height="1.9"/>
	<text transform="matrix(1 0 0 1 179.5662 496.0313)" class="st202 st212">Est enim tanti philosophi tamque.</text>
	<rect x="181.1" y="508.1" class="st201" width="32.4" height="4.9"/>
	<text transform="matrix(1 0 0 1 181.1101 509.2022)"><tspan x="0" y="0" class="st202 st212">a Theophrasto mirabiliter est laudata per se ipsa </tspan><tspan x="0" y="1.9" class="st202 st212">rerum scientia; Suam denique cuique naturam.</tspan></text>
	<rect x="181.3" y="500.7" class="st201" width="32.4" height="4.9"/>
	<text transform="matrix(1 0 0 1 181.2815 501.8087)"><tspan x="0" y="0" class="st202 st212">Quid ergo aliud intellegetur nisi uti ne quae pars </tspan><tspan x="0" y="1.9" class="st202 st212">naturae neglegatur? </tspan></text>
	<path class="st2" d="M273.9,410.5h-30c-1.4,0-2.5-1.1-2.5-2.5v-8.6c0-1.4,1.1-2.5,2.5-2.5h30c1.4,0,2.5,1.1,2.5,2.5v8.6
		C276.4,409.4,275.2,410.5,273.9,410.5z"/>
	<rect x="250" y="398.7" class="st201" width="22.8" height="10.1"/>
	<text transform="matrix(1 0 0 1 250.0296 399.754)"><tspan x="0" y="0" class="st202 st212">Stat Biomedical Tech Inc.</tspan><tspan x="0" y="1.9" class="st202 st212">       (631) 472-7299</tspan></text>
	<rect x="245" y="404.1" class="st201" width="24.6" height="4.7"/>
	<text transform="matrix(1 0 0 1 244.9812 405.1553)"><tspan x="0" y="0" class="st202 st212">Inspected:_____________</tspan><tspan x="0" y="1.9" class="st202 st212">Due:______________</tspan></text>
	<polygon class="st199" points="187.5,406.4 200.3,406.4 200.3,404.7 204.6,408.8 200.4,412.7 200.4,411 187.5,411 	"/>
	<polygon class="st199" points="255.8,418 242.9,418 242.9,419.8 238.6,415.7 242.8,411.7 242.8,413.4 255.8,413.4 	"/>
	<rect x="205.6" y="407.6" class="st213" width="32" height="10.3"/>
	<rect x="199.1" y="422.1" class="st213" width="3.9" height="37.5"/>
	<rect x="200.1" y="423.5" class="st214" width="2" height="5.5"/>
	<rect x="200.1" y="429.4" class="st214" width="2" height="5.5"/>
	<rect x="200.1" y="435.3" class="st214" width="2" height="5.5"/>
	<rect x="200.1" y="441.2" class="st214" width="2" height="5.5"/>
	<rect x="200.1" y="447.1" class="st214" width="2" height="5.5"/>
	<rect x="200.1" y="452.9" class="st214" width="2" height="5.5"/>
	<path class="st197" d="M195.3,459.4h-21.4c-1.4,0-2.5-1.1-2.5-2.5v-32.2c0-1.4,1.1-2.5,2.5-2.5h21.4c1.4,0,2.5,1.1,2.5,2.5v32.2
		C197.8,458.3,196.7,459.4,195.3,459.4z"/>
	<path class="st197" d="M270.1,459.4h-22.6c-1.4,0-2.5-1.1-2.5-2.5v-32.2c0-1.4,1.1-2.5,2.5-2.5h22.6c1.4,0,2.5,1.1,2.5,2.5v32.2
		C272.5,458.3,271.4,459.4,270.1,459.4z"/>
	<path class="st197" d="M193.1,457.3h-16.7c-1.4,0-2.5-1.1-2.5-2.5v-10c0-1.4,1.1-2.5,2.5-2.5h16.7c1.4,0,2.5,1.1,2.5,2.5v10
		C195.6,456.1,194.5,457.3,193.1,457.3z"/>
	<path class="st215" d="M189.5,439.4h-8.1c-1.4,0-2.5-1.1-2.5-2.5v-8.1c0-1.4,1.1-2.5,2.5-2.5h8.1c1.4,0,2.5,1.1,2.5,2.5v8.1
		C192,438.3,190.9,439.4,189.5,439.4z"/>
	<path class="st208" d="M188.5,438.4h-6.2c-1.4,0-2.5-1.1-2.5-2.5v-6.2c0-1.4,1.1-2.5,2.5-2.5h6.2c1.4,0,2.5,1.1,2.5,2.5v6.2
		C191,437.3,189.9,438.4,188.5,438.4z"/>
	<path class="st215" d="M255.1,438h-6.4c-1.4,0-2.5-1.1-2.5-2.5v-8.1c0-1.4,1.1-2.5,2.5-2.5h6.4c1.4,0,2.5,1.1,2.5,2.5v8.1
		C257.6,436.9,256.5,438,255.1,438z"/>
	<path class="st208" d="M254.3,437.1h-4.7c-1.4,0-2.5-1.1-2.5-2.5v-6.2c0-1.4,1.1-2.5,2.5-2.5h4.7c1.4,0,2.5,1.1,2.5,2.5v6.2
		C256.8,436,255.7,437.1,254.3,437.1z"/>
	<path class="st215" d="M268.5,438h-6.4c-1.4,0-2.5-1.1-2.5-2.5v-8.1c0-1.4,1.1-2.5,2.5-2.5h6.4c1.4,0,2.5,1.1,2.5,2.5v8.1
		C271,436.9,269.9,438,268.5,438z"/>
	<path class="st208" d="M267.7,437.1H263c-1.4,0-2.5-1.1-2.5-2.5v-6.2c0-1.4,1.1-2.5,2.5-2.5h4.7c1.4,0,2.5,1.1,2.5,2.5v6.2
		C270.2,436,269.1,437.1,267.7,437.1z"/>
	<path class="st215" d="M268.5,456.7h-6.4c-1.4,0-2.5-1.1-2.5-2.5v-8.1c0-1.4,1.1-2.5,2.5-2.5h6.4c1.4,0,2.5,1.1,2.5,2.5v8.1
		C271,455.6,269.9,456.7,268.5,456.7z"/>
	<path class="st208" d="M267.7,455.7H263c-1.4,0-2.5-1.1-2.5-2.5V447c0-1.4,1.1-2.5,2.5-2.5h4.7c1.4,0,2.5,1.1,2.5,2.5v6.2
		C270.2,454.6,269.1,455.7,267.7,455.7z"/>
	<path class="st215" d="M255,456.7h-6.4c-1.4,0-2.5-1.1-2.5-2.5v-8.1c0-1.4,1.1-2.5,2.5-2.5h6.4c1.4,0,2.5,1.1,2.5,2.5v8.1
		C257.5,455.6,256.3,456.7,255,456.7z"/>
	<path class="st208" d="M254.1,455.7h-4.7c-1.4,0-2.5-1.1-2.5-2.5V447c0-1.4,1.1-2.5,2.5-2.5h4.7c1.4,0,2.5,1.1,2.5,2.5v6.2
		C256.6,454.6,255.5,455.7,254.1,455.7z"/>
	<path class="st215" d="M182.9,456h-5.4c-1.4,0-2.5-1.1-2.5-2.5v-7.5c0-1.4,1.1-2.5,2.5-2.5h5.4c1.4,0,2.5,1.1,2.5,2.5v7.5
		C185.4,454.9,184.3,456,182.9,456z"/>
	<path class="st208" d="M182.2,455.1h-3.8c-1.4,0-2.5-1.1-2.5-2.5V447c0-1.4,1.1-2.5,2.5-2.5h3.8c1.4,0,2.5,1.1,2.5,2.5v5.6
		C184.7,454,183.5,455.1,182.2,455.1z"/>
	<rect x="182.3" y="445.1" class="st201" width="17" height="9.3"/>
	<text transform="matrix(1 0 0 1 188.1399 446.585)"><tspan x="0" y="0" class="st202 st216">PRESS </tspan><tspan x="-0.1" y="2.5" class="st202 st216">TWICE </tspan><tspan x="1.4" y="4.9" class="st202 st216">TO </tspan><tspan x="-1.3" y="7.4" class="st202 st216">PREHEAT</tspan></text>
	<polygon class="st2" points="248.6,432 255.5,432 252.1,426.3 	"/>
	<polygon class="st2" points="269,431.1 262.1,431.1 265.5,436.8 	"/>
	<rect x="245.4" y="432.5" class="st201" width="13" height="5.5"/>
	<text transform="matrix(1 0 0 1 247.7146 433.9952)"><tspan x="0" y="0" class="st2 st202 st216">INCREASE </tspan><tspan x="1" y="1.9" class="st2 st202 st212">PRESSURE</tspan></text>
	<rect x="258.9" y="427.2" class="st201" width="13" height="5.5"/>
	<text transform="matrix(1 0 0 1 260.8621 428.6299)"><tspan x="0" y="0" class="st2 st202 st216">DECREASE </tspan><tspan x="1.2" y="1.9" class="st2 st202 st212">PRESSURE</tspan></text>
	<line class="st217" x1="249" y1="434.3" x2="254.6" y2="434.3"/>
	<line class="st217" x1="262.5" y1="428.9" x2="268.2" y2="428.9"/>
	<rect x="245.2" y="449.3" class="st201" width="13.5" height="5.9"/>
	<text transform="matrix(1 0 0 1 247.656 451.4464)" class="st218 st205 st203">START</text>
	<rect x="258.8" y="449.3" class="st201" width="13.5" height="5.9"/>
	<text transform="matrix(1 0 0 1 261.9607 451.4464)" class="st219 st205 st203">STOP</text>
	<path class="st2" d="M207.1,468v1.2c0,0-1.6,0.1-2.7,1.2c0,0,0.1,1.2,3.9,1.3v1.3c0,0-2.7,0-4.2-1.3c0,0-0.9-1.5,0.6-2.6
		C204.8,469.1,205.7,468.2,207.1,468z"/>
	<rect x="206.2" y="469.1" class="st201" width="36.1" height="7.5"/>
	<text transform="matrix(1 0 0 1 210.3421 472.168)" class="st220 st221">Chattanooga</text>
	<rect x="236.1" y="469.5" class="st201" width="5.1" height="2.6"/>
	<text transform="matrix(1 0 0 1 237.9729 470.2647)" class="st220 st222">TM</text>
	<rect x="191.7" y="407.6" class="st201" width="12.7" height="5"/>
	<text transform="matrix(1 0 0 1 191.679 409.6993)" class="st223 st205 st224">PM</text>
	<rect x="244.6" y="413.8" class="st201" width="29.3" height="10.6"/>
	<text transform="matrix(1 0 0 1 244.5955 415.2413)"><tspan x="0" y="0" class="st223 st205 st225">PREHEAT</tspan><tspan x="0" y="2.5" class="st223 st205 st225"> TIMER ON</tspan></text>
	<rect x="170.8" y="428.1" class="st201" width="29.3" height="10.6"/>
	<text transform="matrix(1 0 0 1 182.6629 429.5792)"><tspan x="0" y="0" class="st223 st205 st225">PRESS </tspan><tspan x="1.5" y="2.5" class="st223 st205 st225">TO</tspan><tspan x="-1.1" y="5" class="st223 st205 st225">CHANGE</tspan><tspan x="0" y="7.5" class="st223 st205 st225">MODE</tspan></text>
	<rect x="165.6" y="445.1" class="st201" width="29.3" height="10.6"/>
	<text transform="matrix(1 0 0 1 178.0335 446.3018)"><tspan x="0" y="0" class="st223 st205 st226">PRESS </tspan><tspan x="-1" y="2" class="st223 st205 st226">ONCE TO</tspan><tspan x="-1.1" y="4" class="st223 st205 st226">TURN ON</tspan><tspan x="-1.1" y="6" class="st223 st205 st226">PREHEAT</tspan><tspan x="-0.2" y="8" class="st223 st205 st226"> TIMER</tspan></text>
	<g>
		<path class="st227" d="M26.7,92.9c0,0.6-0.5,1-1,1h-0.8c-0.6,0-1-0.5-1-1V77c0-0.6,0.5-1,1-1h0.8c0.6,0,1,0.5,1,1V92.9z"/>
		<path class="st227" d="M26.7,92.9c0,0,0,0.2-0.1,0.4c-0.1,0.3-0.5,0.6-1,0.6c-0.3,0-0.6,0-0.9,0c-0.3-0.1-0.7-0.3-0.8-0.7
			c-0.1-0.8,0-1.6-0.1-2.5c-0.1-1.9-0.1-4-0.2-6.4c-0.1-2.3-0.1-4.8-0.1-7.3c0-0.4,0.2-0.8,0.5-1.1c0.2-0.1,0.4-0.2,0.6-0.3
			c0.1,0,0.2,0,0.3,0l0.2,0l0.5,0c0.2,0,0.4,0,0.6,0.1c0.4,0.2,0.7,0.5,0.8,0.9c0.1,0.4,0,0.7,0,1c0,0.3,0,0.6,0,0.9
			c0,0.6,0,1.2-0.1,1.8c-0.1,2.3-0.1,4.5-0.2,6.4c-0.1,1.9,0,3.4-0.1,4.5C26.7,92.2,26.7,92.9,26.7,92.9z M26.7,92.9
			c0,0,0-0.6,0-1.7c0-1.1,0-2.6-0.1-4.5c-0.1-1.9-0.1-4-0.2-6.4c0-0.6,0-1.2-0.1-1.8c0-0.3,0-0.6,0-0.9c0-0.3,0-0.7,0-0.8
			c-0.1-0.2-0.2-0.4-0.4-0.4c-0.1,0-0.2,0-0.3,0l-0.5,0l-0.2,0c-0.1,0-0.1,0-0.2,0c-0.1,0-0.2,0.1-0.3,0.1c-0.2,0.1-0.2,0.3-0.2,0.5
			c0,2.5,0,5-0.1,7.3c-0.1,2.3-0.1,4.5-0.2,6.4c0,0.9-0.1,1.8,0,2.5c0.1,0.4,0.4,0.6,0.7,0.7c0.3,0.1,0.6,0,0.9,0
			c0.6,0,0.9-0.3,1-0.6C26.7,93,26.7,92.9,26.7,92.9z"/>
	</g>
	<g>
		<path class="st228" d="M33,98.2c0,0.7-0.5,1.3-1,1.3h-0.8c-0.6,0-1-0.6-1-1.3V78c0-0.7,0.5-1.3,1-1.3H32c0.6,0,1,0.6,1,1.3V98.2z"
			/>
		<path class="st228" d="M33.1,98.2c0,0,0,0.2-0.1,0.6c-0.1,0.2-0.2,0.4-0.4,0.6c-0.2,0.2-0.6,0.3-0.9,0.2c-0.2,0-0.3,0-0.5,0
			c-0.2,0-0.4-0.1-0.6-0.2c-0.3-0.3-0.5-0.8-0.5-1.3c0-0.9,0-2-0.1-3.2c-0.1-2.3-0.2-5-0.3-7.9c-0.1-1.4-0.1-2.9-0.1-4.5
			c0-1.5,0-3.1-0.1-4.6c0-0.5,0.2-1.1,0.6-1.5c0.2-0.2,0.5-0.4,0.9-0.4c0.2,0,0.3,0,0.4,0l0.3,0l0.3,0c0.1,0,0.1,0,0.2,0
			c0.1,0,0.2,0,0.3,0.1c0.3,0.1,0.6,0.3,0.7,0.6c0.4,0.4,0.5,1.1,0.4,1.5c0,1.5-0.1,3-0.1,4.5c-0.1,2.9-0.2,5.6-0.3,7.9
			c-0.1,1.2-0.1,2.2-0.1,3.2c0,0.9,0,1.8,0,2.4C33.1,97.4,33.1,98.2,33.1,98.2z M33,98.2c0,0,0-3.1,0-7.7c0-2.3,0-5,0-7.9
			c0-1.4,0-2.9,0-4.5c0-0.4-0.1-0.7-0.3-1c-0.2-0.3-0.6-0.4-1-0.4c-0.2,0-0.4,0-0.6,0c-0.2,0-0.3,0.1-0.5,0.2
			c-0.3,0.3-0.4,0.6-0.4,1c0,6.2,0,12.3,0,16.9c0,1.2,0,2.2,0,3.2c0,0.5,0.1,0.9,0.4,1.2c0.3,0.3,0.7,0.2,1,0.2
			c0.7,0.1,1.1-0.4,1.2-0.7C33,98.4,33,98.2,33,98.2z"/>
	</g>
	<g>
		<path class="st229" d="M39.2,100.4c0,0.8-0.5,1.4-1,1.4h-0.8c-0.6,0-1-0.6-1-1.4V78.2c0-0.8,0.5-1.4,1-1.4h0.8c0.6,0,1,0.6,1,1.4
			V100.4z"/>
		<path class="st229" d="M39.2,100.4c0,0,0,0.2-0.1,0.6c-0.1,0.2-0.2,0.4-0.4,0.6c-0.1,0.1-0.2,0.2-0.4,0.2c-0.2,0-0.3,0-0.5,0
			c-0.2,0-0.4,0-0.6,0c-0.2,0-0.4-0.2-0.5-0.4c-0.3-0.4-0.4-0.9-0.4-1.4c0-1,0-2.2,0-3.4c-0.1-2.5-0.1-5.5-0.2-8.6
			c0-1.6-0.1-3.2-0.1-4.9c0-1.7,0-3.3,0-5c0-0.5,0.1-1,0.5-1.4c0.2-0.2,0.5-0.4,0.8-0.4c0.3,0,0.4,0,0.7,0l0.2,0l0.1,0l0.1,0
			c0.2,0,0.3,0.1,0.4,0.2c0.2,0.2,0.4,0.4,0.5,0.6c0.3,0.4,0.3,1,0.2,1.4c0,1.7,0,3.3-0.1,4.9c-0.1,3.1-0.1,6.1-0.2,8.6
			c-0.1,2.5,0,4.6-0.1,6.1C39.2,99.6,39.2,100.4,39.2,100.4z M39.2,100.4c0,0,0-0.8,0-2.3c0-1.5,0-3.6-0.1-6.1
			c-0.1-2.5-0.1-5.5-0.2-8.6c0-1.6-0.1-3.2-0.1-4.9c0.1-0.8-0.2-1.5-0.9-1.4l-0.6,0c-0.1,0-0.2,0.1-0.3,0.2
			c-0.2,0.2-0.3,0.5-0.3,0.9c0,1.7,0,3.3,0,5c0,1.7,0,3.3-0.1,4.9c-0.1,3.1-0.1,6.1-0.2,8.6c0,1.3,0,2.4,0,3.4c0,0.5,0,1,0.3,1.3
			c0.1,0.2,0.3,0.3,0.5,0.3c0.2,0,0.4,0,0.6,0c0.2,0,0.4,0,0.5,0c0.2,0,0.3-0.1,0.4-0.2c0.2-0.2,0.3-0.4,0.4-0.6
			C39.2,100.6,39.2,100.4,39.2,100.4z"/>
	</g>
	<g>
		<path class="st230" d="M45.3,95.2c0,0.6-0.5,1.2-1,1.2h-0.8c-0.6,0-1-0.5-1-1.2v-18c0-0.6,0.5-1.2,1-1.2h0.8c0.6,0,1,0.5,1,1.2
			V95.2z"/>
		<path class="st230" d="M45.4,95.2c0,0,0,0.2-0.1,0.5c-0.1,0.2-0.2,0.3-0.4,0.5c-0.2,0.2-0.5,0.2-0.8,0.2c-0.3,0-0.6,0.1-1-0.1
			c-0.4-0.2-0.6-0.6-0.7-1c0-0.9,0-1.8-0.1-2.9c-0.1-2.1-0.2-4.5-0.3-7.1c-0.1-1.3-0.1-2.7-0.1-4c0-1.4,0-2.8-0.1-4.2
			c0-0.5,0.2-1.1,0.7-1.4c0.2-0.2,0.5-0.3,0.8-0.4c0.4,0,0.4,0,0.6,0c0.2,0,0.3,0,0.6,0c0.4,0,0.6,0.2,0.8,0.3
			c0.4,0.4,0.7,0.9,0.7,1.4c0,1.4-0.1,2.7-0.1,4c-0.1,2.6-0.2,5-0.3,7.1c-0.1,1-0.1,2-0.1,2.8c0,0.8,0,1.6,0,2.2
			C45.4,94.5,45.4,95.2,45.4,95.2z M45.3,95.2c0,0,0-2.8,0-7c0-2.1,0-4.5,0-7.1c0-1.3,0-2.6,0-4c0-0.3-0.2-0.6-0.4-0.8
			c-0.3-0.2-0.6-0.2-0.9-0.2c-0.4,0-0.7,0-0.9,0.2c-0.2,0.2-0.4,0.5-0.4,0.9c0,5.6,0,11.1,0,15.3c0,1,0,2,0,2.8
			c0,0.4,0.3,0.8,0.6,0.9c0.3,0.2,0.7,0.1,1,0.1c0.6,0.1,1-0.4,1.1-0.7C45.3,95.4,45.3,95.2,45.3,95.2z"/>
	</g>
	<g>
		<path class="st231" d="M32.7,66.1c-0.1-2.7-0.3-5.4-0.4-8c-0.2-2.7-0.4-5.3-0.7-8c-0.1-1.3-0.3-2.7-0.5-4c-0.2-1.3-0.4-2.6-0.6-4
			c-0.1-0.7-0.2-1.3-0.3-2c-0.1-0.7-0.2-1.3-0.4-1.9c-0.3-1.3-0.6-2.6-0.9-3.8l0-0.1l0-0.1c-0.4-3-0.7-5.9-0.8-8.9
			c0-0.8,0-1.5,0-2.4c0-0.4,0.1-0.8,0.2-1.4c0.1-0.3,0.1-0.5,0.3-0.9c0.1-0.2,0.2-0.4,0.4-0.6l0.2-0.2c0.1-0.1,0.2-0.1,0.3-0.2
			c0.2-0.1,0.4-0.2,0.6-0.3c0.5-0.1,1,0,1.3,0.1c0.2,0.1,0.3,0.1,0.4,0.2c0.1,0.1,0.2,0.1,0.3,0.2c0.2,0.1,0.3,0.3,0.4,0.4
			c0.1,0.1,0.2,0.2,0.3,0.3c0.3,0.4,0.6,0.8,0.8,1.1c0.4,0.7,0.7,1.4,1,2.1c0.6,1.4,1.1,2.8,1.5,4.3c0.2,0.7,0.4,1.4,0.6,2.1
			c0.2,0.9,0.3,1.6,0.4,2.4c0.2,1.5,0.2,3.1,0.1,4.6c-0.1,0.8-0.2,1.5-0.3,2.2l-0.2,1.1l-0.3,1.1l-0.3,0c-0.1-0.7-0.1-1.5-0.2-2.2
			c-0.1-0.7-0.2-1.4-0.3-2.2c-0.2-1.4-0.5-2.8-0.9-4.2c-0.2-0.7-0.4-1.4-0.6-1.9l-0.9-2c-0.6-1.3-1.2-2.6-1.8-3.9
			c-0.3-0.6-0.6-1.2-0.9-1.8c-0.2-0.3-0.3-0.5-0.5-0.7c0,0-0.1-0.1-0.1-0.1c0,0,0,0,0,0c0,0,0,0,0.1,0l0.2,0.1c0.1,0,0.4,0.1,0.8,0
			c0.2,0,0.3-0.1,0.4-0.2c0.1,0,0.1-0.1,0.1-0.1c0,0,0.1,0,0.1-0.1c0.1-0.1,0.1-0.1,0.1-0.2c0,0,0,0-0.1,0.1
			c-0.1,0.2-0.1,0.5-0.2,0.8c-0.1,0.6-0.1,1.3-0.2,2c-0.1,2.8,0,5.8,0.2,8.6l0-0.2c0.3,1.4,0.6,2.7,0.7,4.1c0.1,0.7,0.2,1.4,0.3,2
			c0.1,0.7,0.2,1.4,0.2,2c0.1,1.4,0.2,2.7,0.3,4.1c0.1,1.4,0.2,2.7,0.2,4.1c0.1,2.7,0.1,5.4,0.1,8.1c0,2.7-0.1,5.4-0.3,8.1
			L32.7,66.1z"/>
	</g>
	<g>
		<path class="st231" d="M4.4,35.2c0,0,3.5,0.5,8.7,1c5.2,0.5,12.2,1.1,19.1,1.4c3.5,0.2,7,0.3,10.2,0.4c1.6,0.1,3.2,0.1,4.7,0.2
			c1.5,0.1,2.9,0.1,4.2,0.2c1.3,0,2.5,0.1,3.6,0.1c1.1,0,2,0,2.8,0.1c1.5,0.1,2.4,0.1,2.4,0.1l0,0.1c0,0-0.9,0.1-2.4,0.2
			c-1.5,0.1-3.7,0.2-6.3,0.3c-2.6,0.1-5.7,0.1-9,0c-3.3-0.1-6.8-0.4-10.2-0.7c-7-0.5-13.9-1.3-19.1-2c-5.2-0.7-8.6-1.3-8.6-1.3
			L4.4,35.2z"/>
	</g>
	<g>
		<path class="st232" d="M57.9,17.2c0,0-0.1,0.2-0.5,0.5c-0.3,0.3-0.8,0.7-1.4,1.2c-0.6,0.5-1.4,1-2.3,1.7c-0.9,0.6-2,1.3-3.2,1.9
			c-1.2,0.7-2.5,1.3-3.9,2c-1.4,0.6-2.9,1.3-4.4,1.9c-1.6,0.6-3.2,1.3-4.8,1.8c-0.8,0.3-1.7,0.6-2.5,0.8c-0.9,0.3-1.7,0.5-2.6,0.8
			c-1.7,0.5-3.4,1-5.1,1.4c-0.8,0.2-1.7,0.4-2.5,0.6c-0.8,0.2-1.7,0.4-2.5,0.5c-1.6,0.3-3.2,0.7-4.7,1c-1.5,0.3-2.9,0.5-4.2,0.7
			c-2.6,0.5-4.8,0.7-6.4,0.9c-1.5,0.2-2.4,0.3-2.4,0.3s0.9-0.1,2.4-0.4c1.5-0.3,3.7-0.5,6.4-1.1c1.3-0.3,2.7-0.5,4.2-0.8
			c1.5-0.3,3.1-0.7,4.7-1.1c0.8-0.2,1.6-0.4,2.5-0.6c0.8-0.2,1.7-0.5,2.5-0.7c1.7-0.5,3.4-0.9,5.1-1.5c0.8-0.3,1.7-0.5,2.5-0.8
			c0.8-0.3,1.7-0.6,2.5-0.9c1.6-0.6,3.2-1.2,4.7-1.9c1.5-0.6,3-1.4,4.3-2c1.3-0.7,2.6-1.4,3.7-2.1c1.1-0.7,2.1-1.3,3-1.9
			c0.9-0.6,1.6-1.2,2.2-1.7c0.6-0.5,1-0.9,1.3-1.1c0.3-0.3,0.4-0.4,0.4-0.4L57.9,17.2z"/>
	</g>
	<g>
		<path class="st233" d="M5.6,20.6c0,0,12.8-2.6,25.7-4.2c6.5-0.8,13-1.4,17.8-1.4c1.2,0,2.3,0,3.3,0.1c1,0.1,1.8,0.2,2.6,0.3
			c0.7,0.2,1.2,0.3,1.6,0.4c0.4,0.1,0.6,0.2,0.6,0.2S57,16,56.6,15.9c-0.4-0.1-0.9-0.2-1.6-0.4c-0.7-0.1-1.6-0.2-2.5-0.2
			c-1,0-2.1-0.1-3.3,0c-4.9,0.1-11.3,0.8-17.8,1.8C18.6,19.1,5.9,22,5.9,22L5.6,20.6z"/>
	</g>
	<g>
		<path class="st233" d="M58.9,16.3C58.9,16.3,58.9,16.3,58.9,16.3c0,0.2-0.1,0.6-0.4,1c-0.1,0.1-0.1,0.2-0.2,0.2
			c-0.1,0.1-0.1,0.1-0.1,0.1c0,0-0.1,0.1-0.1,0.1c-0.4,0.3-0.7,0.5-1.1,0.7c-0.8,0.4-2,0.8-3.4,1.3c-2.9,1-7.1,2.3-12.1,3.7
			c-5,1.4-10.9,3-17.2,4.5c-3.2,0.8-6.5,1.5-9.8,2.2c-1.7,0.4-3.4,0.7-5.1,1c-0.9,0.2-1.7,0.3-2.6,0.4c-0.4,0.1-0.9,0.1-1.3,0.1
			c-0.2,0-0.5,0-0.7,0c-0.2,0-0.2,0-0.4,0c-0.1,0-0.1,0-0.3-0.1c-0.1,0-0.1-0.1-0.2-0.1c-0.1-0.1-0.2-0.1-0.2-0.2
			c-0.1-0.2-0.1,0.1-0.2-0.6l0-0.1c0-0.1,0.1-0.3,0.2-0.4c0.2-0.3,0.2-0.3,0.3-0.4c0.2-0.1,0.2-0.2,0.4-0.2c0.2-0.1,0.4-0.2,0.6-0.3
			c0.4-0.2,0.8-0.4,1.2-0.5c0.8-0.3,1.6-0.6,2.5-0.9c1.6-0.6,3.3-1.1,4.9-1.6c3.3-1,6.5-1.9,9.6-2.8c6.3-1.7,12.2-3.2,17.2-4.4
			c5.1-1.2,9.3-2.1,12.3-2.6C54,16.2,55.2,16,56,16c0.8-0.1,1.3,0.1,1.2,0.1L58.9,16.3z M57.2,16.1c0.1-0.1-0.4-0.2-1.2-0.1
			c-0.8,0.1-2,0.3-3.5,0.6c-3,0.6-7.2,1.6-12.2,3c-5,1.3-10.9,3-17.1,4.9c-3.1,1-6.3,2-9.5,3.1c-1.6,0.5-3.2,1.1-4.8,1.7
			c-0.8,0.3-1.6,0.6-2.4,0.9c-0.4,0.2-0.8,0.3-1.1,0.5C5.2,30.8,5,30.9,4.9,31c-0.1,0-0.2,0.1-0.2,0.1c0,0-0.1,0.1,0.1-0.1
			c0-0.1,0.1-0.2,0.1-0.3l0,0.1c-0.1-0.7-0.1-0.3-0.1-0.6c-0.1-0.1-0.1-0.1-0.2-0.2c-0.1,0-0.1,0-0.1-0.1c-0.1,0,0,0,0,0
			c0,0,0.1,0,0.2,0c0.2,0,0.4,0,0.6,0c0.4,0,0.8-0.1,1.2-0.2c0.8-0.1,1.7-0.3,2.5-0.5c1.7-0.3,3.3-0.7,5-1.1
			c3.3-0.8,6.5-1.7,9.7-2.5c6.3-1.7,12.1-3.5,17-5c4.9-1.6,9-3,11.8-4c1.4-0.5,2.5-1,3.1-1.3C55.8,15.1,56,15,56,15l0,0c0,0,0,0,0,0
			c-0.1,0.1-0.1,0.1-0.2,0.2c-0.2,0.3-0.2,0.6-0.2,0.7c0-0.1,0-0.1,0-0.1L57.2,16.1z"/>
	</g>
	<g>
		<path class="st231" d="M49.4,6.5C49.4,6.5,49.4,6.5,49.4,6.5c0,0,0,0.3-0.1,0.5c0,0.2-0.1,0.5-0.2,0.7C49,7.8,49,8,48.9,8.1
			l-0.1,0.2l0,0.1c0,0-0.1,0.1-0.1,0.2c-0.5,0.4-0.7,0.6-1.1,0.8c-0.7,0.4-1.6,0.8-2.8,1.3c-2.3,1-5.5,2.2-9.4,3.6
			c-3.9,1.4-8.5,2.9-13.4,4.5c-2.5,0.8-5,1.5-7.7,2.3c-1.3,0.4-2.6,0.7-4,1c-0.7,0.2-1.4,0.3-2.1,0.4c-0.4,0.1-0.7,0.1-1.1,0.2
			c-0.2,0-0.4,0-0.6,0.1c-0.1,0-0.2,0-0.5,0l-0.1,0c0,0-0.2,0-0.3-0.1l-0.1-0.1c-0.1,0-0.1,0-0.2-0.1c-0.2-0.2-0.4-0.4-0.5-0.7
			c-0.2-0.9,0-0.3-0.1-0.5l0,0c0,0,0-0.1,0-0.2c0-0.1,0-0.2,0.1-0.3c0-0.1,0.1-0.2,0.1-0.3c0-0.1,0.1-0.2,0.1-0.2L5,20.2
			C5.1,20,5.2,20,5.3,19.9c0.2-0.1,0.4-0.2,0.5-0.3c0.3-0.2,0.7-0.4,1-0.5c0.6-0.3,1.3-0.6,1.9-0.9c1.3-0.5,2.6-1.1,3.8-1.5
			c2.5-1,5.1-1.9,7.5-2.7c4.9-1.7,9.5-3.2,13.4-4.4c4-1.2,7.3-2.1,9.6-2.6c1.2-0.3,2.1-0.4,2.7-0.5c0.6-0.1,1,0,1,0.1L49.4,6.5z
			 M46.8,6.5c0-0.1-0.3-0.2-0.9,0c-0.6,0.1-1.5,0.3-2.7,0.7c-2.3,0.7-5.6,1.8-9.4,3.2c-3.9,1.4-8.3,3.1-13.1,5.1
			c-2.4,1-4.8,2-7.3,3.1c-1.2,0.6-2.5,1.1-3.7,1.7c-0.6,0.3-1.2,0.6-1.8,0.9c-0.3,0.2-0.6,0.3-0.8,0.5c-0.1,0.1-0.2,0.2-0.3,0.2
			c0,0-0.1,0.1,0,0l0,0c0,0,0-0.1,0.1-0.1c0-0.1,0.1-0.1,0.1-0.2c0-0.1,0-0.2,0-0.2c0-0.1,0-0.2,0-0.1l0,0c0-0.2,0.1,0.5-0.1-0.4
			c-0.1-0.2-0.2-0.4-0.4-0.6l-0.1-0.1c0,0-0.1,0-0.1,0c0,0-0.2,0-0.2,0l0,0c-0.1,0,0,0,0,0c0.1,0,0.2,0,0.4-0.1
			c0.3-0.1,0.6-0.1,0.9-0.2c0.6-0.2,1.3-0.3,1.9-0.5c1.3-0.4,2.6-0.8,3.8-1.2c2.5-0.9,5-1.8,7.4-2.7c4.8-1.8,9.2-3.6,13-5.2
			c3.8-1.6,6.9-3,8.9-4c1-0.5,1.8-1,2.2-1.2c0.2-0.1,0.3-0.2,0.1,0L44.8,5l0,0l-0.1,0.1c-0.1,0.1-0.1,0.2-0.2,0.3
			c-0.1,0.2-0.2,0.5-0.2,0.7c0,0.2,0,0.5,0,0.4c0,0,0-0.1,0-0.1L46.8,6.5z"/>
	</g>
	<g>
		<path class="st232" d="M47.9,6.8C47.9,6.8,47.9,6.8,47.9,6.8c0,0.1-0.2,0.3-0.3,0.3c-0.2,0.1-0.4,0.2-0.6,0.3
			c-0.5,0.2-1.3,0.4-2.3,0.6c-2,0.4-4.7,1-8.1,1.5c-3.4,0.5-7.3,1.1-11.6,1.6c-2.1,0.3-4.3,0.5-6.5,0.7c-1.1,0.1-2.2,0.2-3.4,0.3
			c-0.6,0-1.1,0.1-1.7,0.1c-0.3,0-0.6,0-0.9,0c-0.1,0-0.3,0-0.4,0c-0.1,0-0.1,0-0.2-0.1c0,0-0.1,0-0.1-0.1c0,0-0.1-0.1-0.1-0.2
			c0-0.1,0.2-0.3,0.2-0.3c0.1-0.1,0.1-0.1,0.2-0.1c0.1-0.1,0.3-0.1,0.4-0.2c0.3-0.1,0.5-0.2,0.8-0.2c0.6-0.2,1.1-0.3,1.7-0.4
			c1.1-0.2,2.2-0.5,3.3-0.7c2.2-0.4,4.4-0.8,6.5-1.1c4.2-0.7,8.2-1.2,11.6-1.6c3.4-0.4,6.2-0.6,8.2-0.7c1,0,1.8-0.1,2.3,0
			c0.5,0,0.8,0.2,0.8,0.2L47.9,6.8z M47.6,6.8c0,0-0.2-0.2-0.8-0.2c-0.5,0-1.3,0-2.3,0c-2,0.1-4.8,0.4-8.2,0.8
			C33,7.8,29,8.4,24.8,9.1c-2.1,0.3-4.3,0.7-6.5,1.1c-1.1,0.2-2.2,0.4-3.3,0.7c-0.6,0.1-1.1,0.3-1.6,0.4c-0.3,0.1-0.5,0.2-0.8,0.2
			c-0.1,0-0.3,0.1-0.4,0.2c-0.1,0.1-0.2,0.2-0.2,0.1c0-0.1,0,0,0.1,0c0.1,0,0.1,0,0.2,0c0.1,0,0.3,0,0.4,0c0.3,0,0.6,0,0.8,0
			c0.6,0,1.1,0,1.7-0.1c1.1-0.1,2.3-0.2,3.4-0.3c2.2-0.2,4.4-0.5,6.5-0.8c4.2-0.5,8.2-1.2,11.5-1.7c3.4-0.6,6.1-1.1,8.1-1.6
			c1-0.2,1.7-0.4,2.2-0.6c0.2-0.1,0.4-0.2,0.5-0.2c0.1-0.1-0.1,0.1,0,0.1c0,0,0-0.1,0-0.1L47.6,6.8z"/>
	</g>
	<g>
		<path class="st231" d="M45.4,5.5c0,0,0,0-0.1,0.1c-0.1,0.2-0.4,0.6-0.7,0.8l-0.1,0.1l0,0c0,0-0.1,0-0.1,0
			c-0.3,0.1-0.5,0.1-0.7,0.2c-0.5,0.1-1,0.2-1.8,0.3c-1.5,0.2-3.5,0.3-6,0.5c-2.5,0.2-5.3,0.3-8.4,0.5c-1.5,0.1-3.1,0.1-4.8,0.2
			c-0.8,0-1.6,0-2.5,0l-1.3,0l-0.7,0l-0.4,0c-0.1,0-0.1,0-0.2,0c-0.1,0-0.1,0-0.2-0.1c-0.1,0-0.1-0.1-0.2-0.1c0,0-0.2-0.1-0.3-0.2
			c-0.1-0.1-0.2-0.3-0.2-0.4c0.1-0.8,0-0.2,0.1-0.4l0-0.1c0.1-0.1,0.2-0.3,0.3-0.4c0.2-0.1,0.1-0.1,0.2-0.1l0.1,0
			c0.1,0,0.2,0,0.2-0.1l0.4-0.1L18.7,6L20,5.8c0.8-0.1,1.6-0.2,2.4-0.2c1.6-0.1,3.2-0.3,4.7-0.3c3.1-0.2,5.9-0.3,8.4-0.4
			c2.5-0.1,4.5-0.1,5.9-0.1c0.7,0,1.3,0,1.7,0.1c0.4,0,0.6,0.1,0.6,0.1L45.4,5.5z M43.8,4.9c0,0-0.2-0.1-0.6-0.1
			c-0.4,0-0.9,0-1.7,0.1c-1.4,0.1-3.5,0.3-5.9,0.5c-2.4,0.2-5.3,0.6-8.3,1c-1.5,0.2-3.1,0.4-4.7,0.7c-0.8,0.1-1.6,0.3-2.4,0.4
			L19,7.6l-0.6,0.1l-0.2,0.1c0,0-0.1,0-0.1,0l0,0c0,0,0,0,0.1-0.1c0.1-0.1,0.2-0.2,0.2-0.3c0-0.1,0,0,0,0c0-0.2-0.1,0.4,0-0.4
			c0-0.1-0.1-0.3-0.1-0.4c-0.1-0.1-0.3-0.2-0.2-0.2c0,0-0.1,0-0.1-0.1c-0.1,0,0,0-0.1,0l0.1,0l0.3,0l0.6,0l1.2-0.1
			c0.8-0.1,1.6-0.1,2.4-0.2c1.6-0.1,3.2-0.3,4.7-0.5c3-0.3,5.9-0.7,8.3-1C38,4.3,40,4,41.3,3.8c0.7-0.1,1.2-0.2,1.5-0.3
			c0.1,0,0.2-0.1,0.2,0l0,0c0,0-0.1,0-0.1,0.1c-0.3,0.2-0.6,0.5-0.7,0.7c-0.1,0.2,0,0.1,0,0.1l0,0c0,0,0,0,0,0L43.8,4.9z"/>
	</g>
	<g>
		<path class="st232" d="M61.2,30.8C61.2,30.8,61.2,30.8,61.2,30.8C61.1,31,61.1,31,61,31.1c0,0-0.1,0-0.2,0.1
			c-0.2,0.1-0.5,0.2-1,0.2c-0.8,0.2-2,0.4-3.6,0.6c-3.1,0.4-7.5,0.9-12.8,1.4c-5.3,0.5-11.5,1-18.2,1.4c-3.3,0.2-6.8,0.4-10.3,0.6
			c-1.7,0.1-3.5,0.2-5.3,0.2c-0.9,0-1.8,0-2.7,0c-0.4,0-0.9,0-1.3,0c-0.2,0-0.4,0-0.7,0c-0.1,0-0.2,0-0.3,0c-0.1,0-0.1,0-0.2,0
			l-0.1,0c0,0-0.1-0.1-0.1-0.2c0-0.2,0-0.1,0.1-0.1c0,0,0.1-0.1,0.1-0.1c0.1,0,0.1-0.1,0.2-0.1c0.1,0,0.2-0.1,0.3-0.1
			c0.2-0.1,0.4-0.1,0.7-0.1c0.4-0.1,0.9-0.2,1.3-0.2c0.9-0.1,1.8-0.3,2.6-0.4c1.8-0.2,3.5-0.4,5.3-0.6c3.5-0.4,6.9-0.7,10.2-1
			c6.6-0.6,12.8-1,18.2-1.4c5.3-0.3,9.8-0.5,12.9-0.6c1.6,0,2.8,0,3.6,0c0.8,0,1.3,0.1,1.2,0.2L61.2,30.8z M61,30.7
			c0-0.1-0.4-0.2-1.2-0.2c-0.8,0-2.1,0-3.6,0c-3.1,0.1-7.5,0.3-12.9,0.7c-5.3,0.4-11.5,0.8-18.2,1.5c-3.3,0.3-6.7,0.7-10.2,1
			c-1.7,0.2-3.5,0.4-5.2,0.6c-0.9,0.1-1.8,0.2-2.6,0.4c-0.4,0.1-0.9,0.2-1.3,0.2c-0.2,0-0.4,0.1-0.6,0.1c-0.1,0-0.2,0.1-0.3,0.1
			l-0.1,0c0,0,0,0,0,0c0,0,0,0.1,0,0c0,0,0-0.1,0-0.1l0.1,0c0,0,0.1,0,0.1,0c0.1,0,0.2,0,0.3,0c0.2,0,0.4,0,0.7,0c0.4,0,0.9,0,1.3,0
			c0.9,0,1.8,0,2.7,0c1.8-0.1,3.5-0.1,5.3-0.2c3.5-0.2,6.9-0.4,10.3-0.6c6.6-0.5,12.8-1,18.1-1.5c5.3-0.5,9.7-1,12.8-1.5
			c1.5-0.2,2.7-0.4,3.5-0.6c0.4-0.1,0.7-0.2,0.9-0.2c0,0,0.1,0,0.1,0c0,0,0,0,0,0.1c0,0,0-0.1,0,0L61,30.7z"/>
	</g>
	<g>
		<path class="st233" d="M62.5,38.6C62.5,38.6,62.5,38.6,62.5,38.6c-0.1,0.1-0.1,0.2-0.1,0.3c0,0.1-0.1,0.2-0.2,0.3
			c-0.1,0.2-0.3,0.4-0.5,0.6c-0.1,0.1-0.2,0.2-0.3,0.3c-0.2,0.1-0.1,0.1-0.2,0.1c-0.1,0-0.1,0.1-0.2,0.1c-0.6,0.3-1,0.4-1.4,0.5
			c-0.9,0.2-2.1,0.4-3.7,0.6c-3,0.4-7.3,0.7-12.4,1C38.4,42.6,32.4,42.9,26,43c-3.2,0.1-6.5,0.1-9.9,0.1c-1.7,0-3.4-0.1-5.1-0.1
			c-0.9,0-1.7-0.1-2.6-0.2c-0.4,0-0.9-0.1-1.3-0.2c-0.2,0-0.5-0.1-0.7-0.1c-0.2,0-0.3-0.1-0.5-0.1c-0.1,0-0.2-0.1-0.4-0.2
			C5.3,42,5.3,42,5.1,41.9c-0.1-0.1-0.2-0.3-0.3-0.4c0-0.4-0.2,0.1-0.1-0.9l0-0.1c0-0.1,0.2-0.3,0.3-0.5c0.4-0.4,0.4-0.3,0.5-0.4
			c0.2-0.1,0.3-0.1,0.5-0.2c0.3-0.1,0.5-0.1,0.7-0.2C7.3,39.1,7.8,39,8.2,39c0.9-0.1,1.7-0.2,2.6-0.3c1.7-0.2,3.4-0.3,5.1-0.5
			c3.4-0.3,6.7-0.5,9.9-0.6c6.4-0.3,12.4-0.5,17.5-0.5c5.1-0.1,9.4,0,12.4,0.1c1.5,0.1,2.7,0.2,3.5,0.3c0.8,0.1,1.2,0.3,1.1,0.4
			L62.5,38.6z M60.1,37.8c0.1-0.1-0.3-0.3-1.1-0.3c-0.8-0.1-2-0.1-3.4-0.1c-3,0-7.2,0.1-12.3,0.4c-5.1,0.3-11,0.7-17.4,1.4
			c-3.2,0.3-6.4,0.7-9.8,1.1c-1.7,0.2-3.3,0.4-5,0.7c-0.8,0.1-1.7,0.3-2.5,0.4c-0.4,0.1-0.8,0.2-1.2,0.3c-0.2,0.1-0.4,0.1-0.5,0.2
			c0,0-0.2,0.1-0.1,0.1c0,0-0.1,0.1,0.2-0.2c0.1-0.1,0.2-0.3,0.2-0.4l0,0.1c0.1-1,0-0.5,0-0.8c-0.1-0.1-0.1-0.2-0.2-0.3
			C6.9,40,6.9,40,6.8,40c-0.1-0.1-0.1-0.1-0.1-0.1c0,0,0.1,0,0.1,0C7,40,7.2,40,7.4,40c0.4,0,0.8,0.1,1.2,0.1c0.8,0,1.7,0,2.5,0
			c1.7,0,3.3,0,5-0.1c3.3-0.1,6.6-0.3,9.8-0.5c6.3-0.4,12.3-0.9,17.3-1.5c5.1-0.5,9.2-1.1,12.1-1.5c1.4-0.2,2.5-0.5,3.1-0.6
			c0.3-0.1,0.5-0.2,0.3-0.1l-0.1,0l-0.1,0.1c-0.1,0.1-0.2,0.2-0.3,0.2c-0.2,0.2-0.3,0.4-0.4,0.6c0,0.1-0.1,0.2-0.1,0.3
			c0,0.1-0.1,0.2,0,0.2c0,0,0-0.1,0-0.1L60.1,37.8z"/>
	</g>
	<g>
		<path class="st232" d="M59.9,46.2C59.9,46.2,59.9,46.3,59.9,46.2c0,0.1,0,0-0.1,0.5c-0.1,0.3-0.3,0.8-0.6,1.1
			c-0.6,0.6-1.1,0.8-1.5,1c-1,0.4-2,0.7-3.4,1c-2.7,0.6-6.5,1.1-11.1,1.5c-4.6,0.4-9.8,0.7-15.5,0.9c-2.8,0.1-5.8,0.1-8.8,0
			c-1.5,0-3-0.1-4.6-0.2c-0.8-0.1-1.5-0.2-2.3-0.3c-0.4-0.1-0.8-0.1-1.3-0.3c-0.1,0-0.2-0.1-0.3-0.1c-0.1,0-0.2-0.1-0.4-0.2
			c-0.1,0-0.3-0.2-0.5-0.3c-0.1-0.1-0.3-0.2-0.4-0.4c-0.1-0.2-0.2-0.5-0.3-0.8c0-0.6,0-0.2,0-0.3l0,0l0,0l0-0.1
			c0.1-0.2,0.2-0.5,0.4-0.7c0.2-0.2,0.3-0.3,0.5-0.4c0.1-0.1,0.3-0.2,0.4-0.2c0.1-0.1,0.2-0.1,0.3-0.1c0.4-0.2,0.8-0.3,1.2-0.4
			c0.8-0.2,1.5-0.4,2.3-0.5c1.5-0.3,3-0.5,4.5-0.7c3-0.4,5.9-0.7,8.7-0.9c5.7-0.4,10.9-0.6,15.5-0.7c4.5,0,8.3,0.1,10.9,0.3
			c1.3,0.1,2.3,0.3,3,0.5c0.3,0.1,0.6,0.2,0.7,0.3c0.1,0.1,0.1,0.2,0.1,0.2L59.9,46.2z M57.4,45.8c0,0,0-0.1-0.1-0.2
			c-0.1-0.1-0.4-0.2-0.7-0.3c-0.7-0.2-1.7-0.3-3-0.3c-2.6-0.1-6.4,0-10.9,0.3c-4.5,0.3-9.7,0.8-15.3,1.5c-2.8,0.4-5.7,0.8-8.6,1.3
			c-1.4,0.3-2.9,0.6-4.3,0.9c-0.7,0.2-1.4,0.4-2.1,0.6c-0.3,0.1-0.7,0.2-0.9,0.4c-0.1,0-0.1,0.1-0.2,0.1c-0.1,0-0.1,0.1-0.1,0.1
			c-0.1,0,0,0,0,0c0.1-0.1,0.2-0.3,0.2-0.5c0-0.1,0-0.1,0-0.1l0,0l0,0c0-0.1,0,0.3,0-0.3c0-0.2-0.1-0.4-0.2-0.5
			c0-0.1-0.1-0.1-0.2-0.2c0,0-0.1,0,0,0c0,0,0.1,0,0.1,0c0.1,0,0.1,0,0.2,0c0.3,0.1,0.6,0.1,1,0.2c0.7,0.1,1.4,0.1,2.1,0.1
			c1.5,0.1,2.9,0,4.4,0c2.9-0.1,5.8-0.2,8.6-0.5c5.6-0.4,10.8-1,15.2-1.7c4.4-0.6,8.1-1.3,10.5-2c1.2-0.3,2.1-0.6,2.4-0.8
			c0.2-0.1,0.1-0.1-0.2,0.2c-0.2,0.2-0.4,0.6-0.5,0.9c-0.1,0.4,0,0.2,0,0.2c0,0,0-0.1,0-0.1L57.4,45.8z"/>
	</g>
	<g>
		<path class="st232" d="M51.8,57C51.8,57,51.8,57,51.8,57c-0.1,0.1-0.3,0.3-0.3,0.3c-0.2,0.1-0.4,0.1-0.7,0.1
			c-0.6,0.1-1.4,0.1-2.5,0.1c-2.1,0-5.2,0-8.8-0.1c-3.6-0.1-7.9-0.4-12.4-0.7c-2.3-0.2-4.6-0.4-7-0.6c-1.2-0.1-2.4-0.3-3.6-0.4
			c-0.6-0.1-1.2-0.2-1.8-0.3c-0.3-0.1-0.6-0.1-0.9-0.2c-0.1,0-0.3-0.1-0.4-0.1c-0.1,0-0.1-0.1-0.2-0.1c0,0-0.1,0-0.1-0.1
			c0,0-0.1,0-0.1-0.3c0,0,0.2-0.2,0.3-0.2c0.1,0,0.2,0,0.2-0.1c0.2,0,0.3-0.1,0.5-0.1c0.3,0,0.6-0.1,0.9-0.1c0.6,0,1.2-0.1,1.8-0.1
			c1.2,0,2.4,0,3.6,0c2.4,0,4.7,0.1,7,0.2c4.5,0.2,8.8,0.5,12.4,0.8c3.6,0.3,6.6,0.6,8.7,0.9c1,0.2,1.9,0.3,2.4,0.4
			c0.6,0.1,0.8,0.3,0.8,0.4L51.8,57z M51.5,56.8c0.1,0-0.2-0.2-0.8-0.3c-0.6-0.1-1.4-0.3-2.4-0.4c-2.1-0.3-5.1-0.6-8.7-0.9
			c-3.6-0.3-7.8-0.5-12.4-0.7c-2.3-0.1-4.6-0.2-7-0.2c-1.2,0-2.4,0-3.6,0c-0.6,0-1.2,0-1.8,0.1c-0.3,0-0.6,0-0.9,0.1
			c-0.1,0-0.3,0-0.4,0.1c-0.1,0-0.1,0-0.2,0.1c0,0-0.1,0-0.1,0c0,0,0,0,0,0c0-0.1,0-0.1,0-0.1l0,0c0,0,0,0,0.1,0
			c0.1,0,0.1,0.1,0.2,0.1c0.1,0,0.3,0.1,0.4,0.1c0.3,0.1,0.6,0.1,0.9,0.2c0.6,0.1,1.2,0.2,1.8,0.3c1.2,0.2,2.4,0.3,3.6,0.4
			c2.4,0.2,4.7,0.4,7,0.6c4.5,0.3,8.8,0.5,12.4,0.6c3.6,0.1,6.6,0.1,8.8,0.1c1.1,0,1.9-0.1,2.4-0.2c0.3,0,0.5-0.1,0.6-0.1
			c0.1,0,0,0,0,0.1c0,0,0,0,0,0L51.5,56.8z"/>
	</g>
	<g>
		<path class="st231" d="M49.6,69.7C49.6,69.7,49.6,69.7,49.6,69.7c0,0.1,0,0.1-0.1,0.3c-0.2,0.5-0.4,0.6-0.6,0.8
			c-0.5,0.4-1.2,0.7-2.1,0.9c-1.7,0.5-4.2,1-7.1,1.4c-3,0.4-6.4,0.7-10.1,0.7c-1.9,0-3.8,0-5.7-0.1c-1-0.1-2-0.2-3-0.3
			c-0.5-0.1-1-0.2-1.5-0.3c-0.3-0.1-0.5-0.2-0.8-0.3c-0.2-0.1-0.6-0.3-0.7-0.9c0-0.1,0-0.1,0-0.1l0,0l0,0c0,0,0-0.1,0-0.2
			c0.1-0.2,0.1-0.2,0.2-0.3c0.1-0.1,0.2-0.2,0.4-0.3c0.2-0.2,0.5-0.3,0.7-0.4c0.5-0.2,1-0.4,1.4-0.5c1-0.3,1.9-0.5,2.9-0.7
			c1.9-0.4,3.8-0.6,5.7-0.8c3.7-0.4,7.1-0.6,10.1-0.6c3,0,5.4,0.2,7.1,0.5c0.8,0.2,1.5,0.3,1.9,0.6c0.4,0.2,0.5,0.5,0.5,0.5
			L49.6,69.7z M48.7,69.6c0,0,0-0.3-0.5-0.5c-0.4-0.2-1.1-0.4-1.9-0.5c-1.7-0.3-4.2-0.3-7.1-0.3c-3,0.1-6.4,0.3-10,0.8
			c-1.8,0.2-3.7,0.6-5.6,1c-0.9,0.2-1.9,0.4-2.8,0.7c-0.5,0.1-0.9,0.3-1.3,0.5c-0.2,0.1-0.4,0.2-0.6,0.3c-0.1,0.1-0.1,0.1-0.2,0.2
			c0,0,0,0.1,0,0c0,0,0-0.1,0,0l0,0l0,0c0,0,0,0.1,0,0c0-0.1,0.1,0.1,0.3,0.2c0.2,0.1,0.4,0.2,0.6,0.2c0.4,0.1,0.9,0.2,1.4,0.3
			c0.9,0.1,1.9,0.2,2.9,0.2c1.9,0.1,3.8,0,5.7-0.1c3.7-0.2,7.1-0.6,10-1c2.9-0.5,5.3-1,6.8-1.5c0.8-0.3,1.3-0.5,1.6-0.7
			c0.1-0.1,0.1-0.2,0,0c0,0.2,0,0.1,0,0c0,0,0,0,0,0L48.7,69.6z"/>
	</g>
	<g>
		<path class="st233" d="M51.6,64.7C51.6,64.7,51.5,64.7,51.6,64.7c0,0-0.1,0.2-0.3,0.4c-0.1,0.2-0.3,0.4-0.6,0.5
			c-0.1,0.1-0.2,0.2-0.4,0.2l-0.2,0.1l-0.1,0c-0.1,0-0.1,0-0.2,0.1c-0.6,0.2-0.9,0.2-1.2,0.2c-0.7,0-1.5,0-2.5-0.1
			c-2-0.2-4.8-0.6-8.1-1.2c-3.3-0.6-7.1-1.3-11.2-2.1c-2-0.4-4.2-0.9-6.3-1.4c-1.1-0.3-2.2-0.5-3.2-0.9c-0.5-0.2-1.1-0.3-1.6-0.5
			c-0.3-0.1-0.6-0.2-0.9-0.3c-0.2-0.1-0.3-0.1-0.5-0.2c-0.1-0.1-0.2-0.1-0.4-0.2l-0.1-0.1c0,0-0.1-0.1-0.2-0.2l-0.1-0.1
			c0-0.1,0,0-0.1-0.2c-0.1-0.2-0.2-0.6-0.1-0.8c0.3-0.8,0.1-0.2,0.2-0.4l0,0c0,0,0.1-0.1,0.1-0.2c0.1-0.1,0.1-0.1,0.2-0.2
			c0.1-0.1,0.2-0.1,0.2-0.2c0.1,0,0.2-0.1,0.2-0.1l0.1,0c0.2-0.1,0.3-0.1,0.4-0.1c0.2,0,0.4,0,0.5,0c0.3,0,0.6,0,0.9,0
			c0.6,0,1.1,0.1,1.7,0.1c1.1,0.1,2.2,0.3,3.3,0.4c2.2,0.3,4.3,0.7,6.4,1c4.1,0.7,7.9,1.5,11.2,2.2c3.3,0.7,6,1.4,7.8,1.9
			c0.9,0.3,1.7,0.5,2.1,0.7c0.5,0.2,0.7,0.4,0.6,0.4L51.6,64.7z M49.3,63.5c0,0-0.2-0.2-0.7-0.4c-0.5-0.2-1.2-0.4-2.2-0.6
			c-1.9-0.4-4.6-0.9-7.9-1.4c-3.3-0.5-7.1-1-11.3-1.4c-2.1-0.2-4.2-0.4-6.4-0.6c-1.1-0.1-2.2-0.1-3.3-0.2c-0.5,0-1.1,0-1.6,0
			c-0.3,0-0.5,0-0.7,0c-0.1,0-0.2,0-0.3,0c0,0-0.1,0,0,0l0,0c0,0,0.1,0,0.1-0.1c0.1,0,0.1-0.1,0.2-0.1c0.1-0.1,0.1-0.1,0.2-0.2
			c0,0,0.1-0.2,0.1-0.1l0,0c0.1-0.2-0.2,0.4,0.1-0.4c0-0.2,0-0.5-0.1-0.7l-0.1-0.1c0,0,0-0.1-0.1-0.1c0,0-0.1-0.1-0.1-0.1l0,0
			c-0.1,0,0,0,0,0l0.3,0.1c0.2,0.1,0.5,0.1,0.7,0.2c0.5,0.1,1,0.2,1.6,0.4c1.1,0.2,2.1,0.4,3.2,0.6c2.1,0.4,4.2,0.7,6.3,1
			c4.1,0.6,7.9,1,11.2,1.3c3.3,0.3,6,0.5,7.9,0.6c0.9,0,1.6,0,2,0c0.2,0,0.3-0.1-0.1,0c0,0-0.1,0-0.1,0l0,0l-0.2,0.1
			c-0.1,0.1-0.2,0.1-0.3,0.2c-0.2,0.1-0.4,0.3-0.5,0.5c-0.1,0.1-0.2,0.4-0.2,0.3c0,0,0,0,0,0L49.3,63.5z"/>
	</g>
	<g>
		<path class="st232" d="M50.9,65.5C50.9,65.5,50.9,65.6,50.9,65.5L50.9,65.5c0,0.1-0.1,0.2-0.1,0.3c-0.1,0.1-0.1,0.3-0.3,0.4
			c-0.1,0.1-0.3,0.3-0.4,0.4c0,0-0.1,0.1-0.1,0.1c-0.4,0.2-0.6,0.3-1,0.4c-0.6,0.2-1.3,0.3-2.2,0.4c-1.8,0.2-4.4,0.4-7.5,0.6
			c-3.1,0.2-6.7,0.3-10.5,0.3c-1.9,0-3.9,0-5.9-0.1c-1,0-2-0.1-3.1-0.1c-0.5,0-1-0.1-1.6-0.1c-0.3,0-0.5-0.1-0.8-0.1
			c-0.1,0-0.3-0.1-0.5-0.1c-0.1,0-0.2-0.1-0.3-0.1l-0.1,0c-0.1,0-0.1-0.1-0.2-0.1l-0.1-0.1c0,0-0.1,0-0.1-0.1
			c-0.1-0.1-0.2-0.3-0.2-0.5c0.1-0.6,0-0.2,0-0.3l0,0l0-0.1c0-0.1,0.1-0.1,0.1-0.2c0.1-0.1,0.2-0.2,0.3-0.3l0.1-0.1
			c0.1-0.1,0.2-0.1,0.3-0.1c0.2-0.1,0.3-0.1,0.5-0.1c0.3-0.1,0.5-0.1,0.8-0.2c0.5-0.1,1-0.2,1.6-0.2c1-0.1,2-0.2,3-0.3
			c2-0.2,4-0.3,5.9-0.3c3.8-0.2,7.4-0.2,10.5-0.2c3.1,0,5.6,0.1,7.4,0.2c0.9,0.1,1.6,0.1,2.1,0.2c0.5,0.1,0.7,0.3,0.7,0.3L50.9,65.5
			z M49.3,65.1c0,0-0.2-0.2-0.7-0.2c-0.5-0.1-1.2-0.1-2.1-0.1c-1.8,0-4.3,0-7.4,0.2c-3.1,0.2-6.6,0.4-10.4,0.8
			c-1.9,0.2-3.9,0.4-5.8,0.6c-1,0.1-2,0.3-3,0.4c-0.5,0.1-1,0.2-1.5,0.3c-0.2,0.1-0.5,0.1-0.7,0.2c-0.1,0-0.2,0.1-0.3,0.1
			c0,0-0.1,0,0,0l0,0c0.1,0,0.1-0.1,0.2-0.2c0,0,0-0.1,0.1-0.1c0-0.1,0-0.1,0-0.1l0,0c0-0.1,0,0.3,0-0.3c0-0.1,0-0.3-0.1-0.4
			l-0.1-0.1l0,0c0,0-0.1-0.1-0.1-0.1l0,0c0,0,0,0,0,0c0.1,0,0.2,0,0.3,0c0.2,0,0.5,0.1,0.7,0.1c0.5,0,1,0,1.5,0.1c1,0,2,0,3,0
			c2,0,4-0.1,5.9-0.2c3.8-0.2,7.3-0.5,10.4-0.8c3-0.3,5.5-0.6,7.2-0.9c0.8-0.1,1.5-0.3,1.8-0.4c0.2,0,0.3-0.1,0.1,0l-0.1,0
			c-0.1,0.1-0.2,0.2-0.3,0.3c-0.1,0.1-0.2,0.3-0.2,0.4c0,0.1,0,0.1-0.1,0.2c0,0,0,0,0,0c0,0,0,0,0,0L49.3,65.1z"/>
	</g>
	<g>
		<path class="st231" d="M49.4,67.4C49.4,67.4,49.4,67.4,49.4,67.4c0,0.1-0.2,0.3-0.3,0.3c-0.2,0.1-0.4,0.1-0.6,0.1
			c-0.5,0.1-1.2,0.1-2.1,0.1c-1.8,0-4.4-0.1-7.5-0.3c-3.1-0.2-6.7-0.5-10.5-0.9c-1.9-0.2-3.9-0.5-5.9-0.8c-1-0.1-2-0.3-3-0.5
			c-0.5-0.1-1-0.2-1.5-0.3c-0.3-0.1-0.5-0.1-0.8-0.2c-0.1,0-0.3-0.1-0.4-0.1c-0.1,0-0.1-0.1-0.2-0.1c-0.1,0-0.2-0.1-0.2-0.3
			c0-0.1,0-0.1,0-0.1c0,0,0,0,0.1-0.1c0.1-0.1,0.1-0.1,0.1-0.1c0.1,0,0.1,0,0.2-0.1c0.1,0,0.3-0.1,0.4-0.1c0.3,0,0.5-0.1,0.8-0.1
			c0.5,0,1,0,1.5,0c1,0,2,0,3.1,0.1c2,0.1,4,0.2,5.9,0.4c3.8,0.3,7.4,0.7,10.5,1c3.1,0.4,5.6,0.7,7.4,1.1c0.9,0.2,1.6,0.3,2,0.5
			c0.5,0.1,0.7,0.3,0.6,0.4L49.4,67.4z M49.1,67.3c0,0-0.1-0.2-0.6-0.4c-0.5-0.1-1.2-0.3-2-0.5c-1.8-0.3-4.3-0.7-7.4-1
			c-3.1-0.3-6.7-0.7-10.5-0.9c-1.9-0.1-3.9-0.2-5.9-0.3c-1,0-2-0.1-3.1,0c-0.5,0-1,0-1.5,0c-0.3,0-0.5,0-0.8,0.1
			c-0.1,0-0.2,0-0.4,0.1c-0.1,0-0.1,0-0.2,0.1c0,0,0,0,0,0c0,0,0,0,0,0c0,0,0,0.1,0,0c0-0.1,0.1,0.1,0.2,0.1c0.1,0,0.2,0.1,0.3,0.1
			c0.2,0.1,0.5,0.1,0.7,0.2c0.5,0.1,1,0.2,1.5,0.3c1,0.2,2,0.3,3,0.5c2,0.3,4,0.5,5.9,0.7c3.8,0.4,7.4,0.7,10.5,0.8
			c3.1,0.2,5.6,0.3,7.4,0.2c0.9,0,1.6,0,2-0.1c0.2,0,0.4-0.1,0.5-0.1c0,0,0,0,0,0c0,0,0,0.1,0,0.1c0,0,0,0,0,0L49.1,67.3z"/>
	</g>
	<text transform="matrix(0 1.0005 -1 0 69.1411 9.8999)" class="st232 st234 st235">TLL</text>
	<text transform="matrix(0 1 -1 0 81.3296 62.1147)" class="st236 st237 st238">TEACHING </text>
	<text transform="matrix(0 1 -1 0 75.4653 62.4629)" class="st236 st237 st238">LEARNING</text>
	<text transform="matrix(0 1 -1 0 69.5361 62.4629)" class="st236 st237 st238">LAB</text>
	<line class="st239" x1="85.7" y1="55.9" x2="69.1" y2="55.9"/>
</g>
</svg>
