<!-- Generator: Adobe Illustrator 19.2.1, SVG Export Plug-In  -->
<svg version="1.1"
	 xmlns="http://www.w3.org/2000/svg" xmlns:xlink="http://www.w3.org/1999/xlink" xmlns:a="http://ns.adobe.com/AdobeSVGViewerExtensions/3.0/"
	 x="0px" y="0px" width="129.3px" height="65.5px" viewBox="0 0 129.3 65.5" style="enable-background:new 0 0 129.3 65.5;"
	 xml:space="preserve">
<style type="text/css">
	.st0{fill:#8ED4D7;}
	.st1{fill:#C5DFEE;}
	.st2{fill:#976E42;}
	.st3{fill:#CCA678;}
	.st4{fill:#F7EBDB;}
	.st5{fill:#F2FAFD;}
</style>
<defs>
</defs>
<g>
	<polygon class="st0" points="2.8,15.4 5.6,10.1 16.6,5.7 25.5,4.3 32.5,2.1 43.6,2.1 55.5,0.2 72.8,1.1 89.3,1.6 104,3.3 
		115.1,6.1 121.2,8.6 126,11.9 126.9,15.1 27.5,21.4 	"/>
	<path class="st1" d="M4.4,14.6c0,0,6-5.6,11.8-4.8c0,0,4.7-0.7,6.8-2.2c0,0,5.9-1.8,9.5-0.8c0,0,5.8,0,6.8-1.6c0,0,2.8-2.5,7.8,0
		c0,0,4.6,1.2,7.2-0.6c0,0,3.2-1.7,8-0.5c0,0,5,1.9,7.3,0c0,0,4.3-1.3,8.7,0.7c0,0,5,2.3,6.9-0.2c0,0,4-1.1,6.3,1.2
		c0,0,1.5,0.8,8.6,0.2c0,0,3.2-0.9,9.1,2.4c0,0,3.7,1.5,6.9,0.7c0,0,2-0.6,6.2,3.2l3.6,1.7l-1.5,6.5l-39.4,7.8l-48.6-1l-27.8-7
		L4.4,14.6z"/>
	<path d="M3.8,10.7c0,0-4.8,1.8-3.6,8.8l2.4,3.1L3,47.5c0,0,1.3,7.1,19.2,12s25.9,4.8,25.9,4.8s32.2,3.7,46.4-1.5
		c0,0,24.5-3.6,31.4-12l1.5-3.7V21.2c0,0,5.2-3.3-1.5-10.2l0.5,5.1l-1.5,2.6l-7.2,3.4l-13.9,2.4l-11,2.2l-15.6,1.6L65,28l-11-1.2
		H43.1l-9.5-0.6L24.2,24L9.8,22.1l-3.7-3.6l-3.3-3.2L3.8,10.7z"/>
	<polygon class="st2" points="68.5,33.1 85.8,32.5 85.8,61.4 68.5,62.4 	"/>
	<polygon class="st2" points="91.5,31.9 108.6,29.1 108.6,57.5 91.5,61.1 	"/>
	<polygon class="st2" points="114.1,27.8 122.8,24.5 122.8,49.6 114.1,55.6 	"/>
	<polygon class="st2" points="44.3,32.5 61.2,33.4 61.2,62.4 44.3,61.1 	"/>
	<polygon class="st2" points="38.6,31.8 21.5,29.1 21.5,57.1 38.6,61.1 	"/>
	<polygon class="st2" points="7.3,25.1 16.2,28.1 16.2,55.6 7.3,49.4 	"/>
	<polygon class="st3" points="39.3,32.1 43.1,32.5 43.1,61.6 39.3,61.1 	"/>
	<rect x="62.8" y="33.3" class="st3" width="4.4" height="29.4"/>
	<polygon class="st3" points="87.2,32.5 90.7,32.1 90.7,61.1 87.2,61.6 	"/>
	<polygon class="st3" points="109.6,28.7 113.5,28 113.5,56.1 109.9,57.3 	"/>
	<polygon class="st3" points="123.8,24 126.9,22.1 126.9,45.1 123.8,48.3 	"/>
	<polygon class="st3" points="16.6,28.3 20.2,29.1 20.2,57 16.6,55.9 	"/>
	<polygon class="st3" points="3.4,23.1 6.2,24.5 6.2,48 3.4,45.1 	"/>
	<path class="st4" d="M111,4.5C100.6,0.5,61.8,0,61.8,0C57-0.2,33.7,1.9,33.7,1.9s-20,3.6-27.5,7.4c-7.5,3.8-5.1,8.2-5.1,8.2
		c0.8,4.1,10.7,7.5,10.7,7.5C24,30.4,57,30.5,57,30.5s26.4,1.2,47.6-2.2s22.3-9.5,22.3-9.5C134,9.8,111,4.5,111,4.5z M124.7,16.6
		c0,0-3.2,6.1-25.1,7.9c0,0-24.9,3.6-53.9,1.6c0,0-46.5-2.2-40.4-14.6c0,0,6.5-5.5,24.7-7.9c0,0,25.3-3.5,42.8-2.5
		c0,0,33.1,1.9,40.7,5.2C113.5,6.4,130.2,10.6,124.7,16.6z"/>
	<path class="st5" d="M20.2,13.5c0,0,6.3,2.1,8.7,0.8c0,0,5.1-1.8,8.1,1.6c0,0,2.4,1.8,4.2-0.8c0,0,2.2-1,3.5-0.1
		c0,0-2.6-0.2-3.1,0.6c0,0-3,2.8-6-0.2c0,0-3.8-1.5-6.7-0.5C28.9,14.9,23,15.5,20.2,13.5z"/>
	<path class="st5" d="M61.2,19.8c0,0,6.3,2.1,8.7,0.8c0,0,5.1-1.8,8.1,1.6c0,0,2.4,1.8,4.2-0.8c0,0,2.2-1,3.5-0.1
		c0,0-2.6-0.2-3.1,0.6c0,0-3,2.8-6-0.2c0,0-3.8-1.5-6.7-0.5C69.9,21.2,64,21.8,61.2,19.8z"/>
	<path class="st5" d="M85.7,10.7c0,0,6.3,2.1,8.7,0.8c0,0,5.1-1.8,8.1,1.6c0,0,2.4,1.8,4.2-0.8c0,0,2.2-1,3.5-0.1
		c0,0-2.6-0.2-3.1,0.6c0,0-3,2.8-6-0.2c0,0-3.8-1.5-6.7-0.5C94.4,12.1,88.5,12.8,85.7,10.7z"/>
</g>
</svg>
