<!-- Generator: Adobe Illustrator 19.2.1, SVG Export Plug-In  -->
<svg version="1.1"
	 xmlns="http://www.w3.org/2000/svg" xmlns:xlink="http://www.w3.org/1999/xlink" xmlns:a="http://ns.adobe.com/AdobeSVGViewerExtensions/3.0/"
	 x="0px" y="0px" width="84.9px" height="188px" viewBox="0 0 84.9 188" style="enable-background:new 0 0 84.9 188;"
	 xml:space="preserve">
<style type="text/css">
	.st0{fill:#B7B7B7;}
	.st1{fill:#E85B69;}
	.st2{fill:#364B9F;}
	.st3{fill:#ED1C24;}
</style>
<defs>
</defs>
<g>
	<path class="st0" d="M38.1,0.1c0,0,10.4-1.3,11.6,6.9c0,0,0.6,2.1-0.4,5.7c0,0,2.5-1.1,0.1,4.6c0,0-0.1,1.3-1.2,2
		c0,0-0.5,3.6-1.3,4.3l0.1,4.3c0,0,10.2,4.4,10.7,5.1c0.5,0.7,2.6,2.6,2.6,2.6s6.8,3.6,5.9,11.3c0,0,0.3,2.7-0.6,4.3l0,3.7
		c0,0,1.4,3.7,1.6,7.6l0.6,3.6c0,0,5.4,9.2,5.6,15.5c0,0-0.1,3.8,4.2,9.3h2.4c0,0,1.6,1.9,2.8,1.9c1.2,0,1.8,0,1.8,0s1.5,2.3-5.3,2
		l3.5,8.7c0,0,0.9,3.6-0.7,3.8L80,103c0,0,2.4,5.1,1.1,5.7c0,0-1.2,1.3-3.9-6.5c0,0,2.4,6.4,1.3,6.6c-1.1,0.2-2.3-2.1-3.9-5.7
		c0,0,2.1,4.2,0.7,4.8c0,0-1.2,1.7-5.3-8.8c0,0,0.7-5-2.2-9.2c-2.9-4.2-6.2-10-6.3-13.6c0,0-0.6-2.1-1.6-3.2c0,0-1.5-1.6-1.3-7.4
		c0,0,0.4,0.4-1.4-7.3l-0.5,17.4c0,0,0.1,1.8,0.6,3c0.6,1.2,0.6,9,0.6,9s1.5,2.5,1.6,10.9l0.1,3.4c0,0,2.1,5.6,2,20.7
		c0,0-0.5,4.6-1.5,6.8c0,0,0.6,4.7-0.4,5.3c0,0,4.4,10,0.6,25.7c0,0-1.7,10.9-0.6,13c0,0,1.4,4.2,4.4,5.9c0,0,1,2.9,2.3,3.2
		c0,0,1,2.1-3.3,3.8l-2.2-0.5l1.3,0.9c0,0-2.7,3-4.9-0.8c0,0-2.9,1.1-2.9-3.1c0,0,0.3-1.1-1.7-1.9c0,0-3.1,0.6-1-4.8
		c0,0,0.4-1.8-0.7-3.1c0,0,0.8-12.3-1.3-15.7c0,0-3.4-9.8-1-23.6c0,0-2.7-4.1-3.6-12.1l-2.7-14.3l-3.1,17.6c0,0,0.6,5.4-1.7,9.2
		c0,0-1.4,7.6,0,9.7s-0.6,14.1-1.8,15c-1.2,0.9,0,13.5,0,13.5s0.4,2.4-0.5,4c0,0,0.1,1.9,0.5,3.1c0,0,0.4,3-1.8,2.4
		c0,0-2.2,2.1-1.9,3.2c0,0-2.1,4.2-5.1,1.9v-1.3l-1.2,1.2c0,0-7.3,0.1-2.2-6c0,0,1-1.7,1.3-2.6c0,0,2.2-2.4,2.2-2.9
		c0,0-0.3-0.3,0.8-4.5c0,0,0.4-4.9-3-15.5c0,0-1.8-12.7,1.1-21.4c0,0-1.3-1.8-0.7-4.3c0,0-3.9-0.7-1-29.4c0,0-1.8-4.4,1.2-15
		c0,0-0.6-4.4,0.8-10.6c0,0,0.2-1.2-0.5-2.3l-0.2-11.8c0,0-1.3,8.9-1,11.6c0,0-1.7,8.2-5.6,13c0,0-4.5,7.4-4.3,8.7
		c0,0,1.3,4.2-0.9,5.6c0,0-0.8,7.2-3,7.9l0.6-3.9c0,0-1.7,1.1-1.6,2.3c0,0-0.3,4.1-2.3,4c0,0-1.4,0.6,0.7-3.9c0,0,0.8-3.8-1.2-0.6
		c0,0-0.5,5.2-1.8,4.5c0,0-1.5,0.6,0.7-6.4c0,0-2.2-0.8-1.7,1.8c0,0-0.6,7.2-2.1,2.2c0,0-0.7-1.9,1.3-7.3L4,96.4c0,0-4.4,1.1-4-1.9
		c0,0,3.5-0.6,5-1.8c0,0-0.4-1.2,2-1.2c0,0,2.4,0.6,3.1-4.9s2.5-12.6,4.8-17c0,0,1-2.3,0.4-5.3c0,0-1.2-5.4,0.3-11
		c0,0,0.9,1.1-0.6-6.4c0,0-1.3-7.4,5.5-11.3c0,0,2.7-1.4,3.9-3.2c1.2-1.9,9.1-4.4,9.1-4.4l0.3-5.3c0,0-0.6-1.3-0.6-4.4
		c0,0-1,0.1-1.9-2.1c-0.8-2.2-0.6-3.5,0.4-3.6C32.6,12.5,27.8,3.4,38.1,0.1z"/>
	<g>
		<path class="st1" d="M36.7,44.2c0,0-0.3-3,0.4-3.8c0,0,0.6-0.4,1.5,0.2c0.8,0.6,0.5,1.7,0.5,1.7l-0.7,1.5L37,44.6L36.7,44.2z"/>
		<path class="st2" d="M37.1,42.6c0,0-2.5-1-3-1.7v0.8l-0.5-0.1l0.3,0.3l-0.6,0.5l0.5,0.1L32.7,43l0.6,0.2l-0.6,0.4h0.8l0.1,0.2
			c0,0,2.4-0.5,2.7-0.2s1.1-0.5,1.1-0.5"/>
		<path class="st3" d="M37.3,42.4"/>
		<path class="st2" d="M32.7,48.5l-1,0.4l0.8,0.2l-0.6,0.4h0.7l-0.2,0.4l0.5,0l-0.2,0.9l0.7-0.3l0.2,0.8h0.5v0.4h0.6l0.3,1.4
			l0.2-0.9l0.3,0.5l0.2-0.3l0.3,0v-0.3l0.4,0.1c0,0-1.3-3.2,0-4.6s0.6-3.6,0.6-3.6l-1.7,0.9l-2,1.7L32.7,48.5z"/>
		<path class="st2" d="M44.9,40.6c0,0,0.8-1.1,2.6-1.3v0.4l0.7-0.4c0,0-0.3,0.4,0,0.6c0,0-0.7,1-0.1,1.1l0.9,1l1.8,1.1l1.5,0.2
			l-0.3,0.4l0.4,0.3c0,0-0.6,0-0.2,0.5l0.1,0.3l-0.4,0.1c0,0,0,0.4,0.3,0.6l0.6,0.7l-0.4,0L52,46.1l0.4,0.8l-0.2,0.1l-0.4-0.2
			l0.1,0.6c0,0-1.3-2.5-2.4-2.5s-2.2-2.3-2.2-2.3l-3-0.3L44.9,40.6"/>
		<path class="st2" d="M43.2,66.3l-0.8-1.9l0.4-1.9H47c0,0-1.5-0.8,0-1.3l-0.6-0.3l0.6-0.4l-2.1-0.3l-1.2,0.6l-1.1-0.2l0.2-7.9
			l-1.7-3.2l-2.5,0.8H38l0.8,10.2L38,61.9c0,0-1.8-0.2-2.7,0.5c0,0,1.2,0.1,0.2,1.2c0,0,1-0.1,1.5-0.8c0,0,1.6-0.2,1.1,1.2
			c0,0,0.4,0.9-1.1,0.8c0,0-2.9,0.6,1.3,1.7c0,0,3,1,0.9,6.5c0,0-4.1,5.8-3.6,7.8c0.5,2,2.8-3.1,2.8-3.1l3.3-3.2l1.2-5.4
			c0,0,1.2,0.4,1.2,1.7c0,0,1.4,3.3,4,2.3c0,0-2.1-0.1-2.6-1.7c0,0-0.3-0.5,0.9-0.2c0,0-1.7-1-1.6-2.4
			C44.9,68.9,44.4,66.4,43.2,66.3"/>
		<path class="st2" d="M36.3,84.3c0,0,1.7,16.5,2.1,19.2c0,0,0.4,9.4-0.5,11.5c0,0-2.5,8-1.6,12c0,0,0.5,3-0.7,6c0,0-1.3,3.2,0,5.9
			c0,0,2.5,8.6-0.6,19.3c0,0,2.2-13.3-0.2-19.3c0,0-1.3-3.9,0.2-6.1c0,0,0.8-1.6,0.6-4.6c0,0-1.8-3.9,0-9.1c0,0,1.6-4.1,1.5-6.1
			c0,0,0.8-4.8-0.4-8.1c-1.2-3.2,0,0,0,0l-0.9-6l-0.5-11.3v-2.7L36.3,84.3"/>
		<path class="st2" d="M35.1,100.6l-3.5,16.7c0,0-4.2,15.6-2.8,18.4c0,0-4.5,7.8-2,21.8c0,0-0.8-12.8,2.2-19c0,0,2.3,1.1,2.5,19
			c0,0,2.2-16-1.3-21.5c0,0-1.3-2.4,1.7-14.3s0,0,0,0l2.4-5.7l0.8-6.2l1-7.1L35.1,100.6"/>
		<path class="st2" d="M49.6,100.4l1.2,12.2c0,0,6.7,21.5,7.6,25c0,0,3.6,0.6,1.1,14.5c0,0-0.3-5.2-1.2-11.8c0,0-2.3,1.1-2.5,19
			c0,0-2.2-16,1.3-21.5c0,0,0.6-4.1-4-10.1c-1.4-1.9-0.4-3.9-0.4-3.9l-2.4-4.1l-1.9-9.6l0.8-3.8l-0.3-2.9"/>
		<path class="st2" d="M49.1,82.7c0,0-1.4,16.5-1.7,19.3c0,0-0.8,8.1-0.5,11.1c0,0-0.1,2.6,1,9.4c0,0,1.5,5.9,2.8,8.8
			c0,0,1.4,5.6,0.2,8.3c0,0-1.5,5.9,0.9,16.9c0,0-1.7-9.9-0.1-16.3c0,0,1.1-6.9-0.4-9.1c0,0-0.5-1.8-1.4-4.9c0,0-2-5.5-1.6-10.9
			c0,0,0.2-4.9,0.2-6.9c0,0-0.6-1.9,0.6-5.2s0,0,0,0l0.8-6l0.3-11.3l-0.1-2.7L49.1,82.7"/>
		<path class="st2" d="M41.9,76.3c0,0,6.2,6.3,6.8,12.4c0.6,6.1,1.4-2.8,1.4-2.8l-5-9.6l-3.5-1.6L41.9,76.3"/>
		<path class="st3" d="M42.9,39.2c0,0,1.1,0.4,1.8-0.4l0.5,0.3l-0.4,0.3l0.6,0.5l-0.4,0.8l-1.7-0.4L42.9,39.2"/>
		<path class="st3" d="M44.4,41.8c0,0,4.9,0.3,5.6-0.8c0,0,2.2-1,0.7,1c0,0,0,0,1,0l-0.8,0.3l0.5,0.6l-0.6,1h-0.9
			c0,0-1.1,1.4,0.3,2.4l0.8,2.2l-0.6-0.3v2l-1.6-3.1c0,0-0.6-3.7-3.5-2.9s-2.5-1.7-2.5-1.7L44.4,41.8z"/>
		<path class="st3" d="M78.9,97.5l1.1,1.7c0,0-0.9-2.3-1-2.8c-0.1-0.6-1.7-2.5-1.7-2.5l1.1-0.6l-1.9,0.3c0,0,0,0-1.7-2.1
			c-1.7-2.1-2.7-7.2-2.7-7.2l-1.6-7.3c0,0-0.9-1.7-1.4-2.3c-0.4-0.6-3.3-3.3-3.3-3.3c-1.7-3.2-2.7-6.9-2.7-6.9
			c-0.9-1.9-2-13.8-2.2-17.6c-0.2-3.8-2.1-6.3-5.2-10.1c-3.1-3.8-10.1-2.3-10.1-2.3l-5.6,2v0.9h-1.3l0.1,0.8l1.4,1.6h1.8l0.6-1.2
			l0-1.4l4.6-1.5l5.4,0.9l2.8,2.6l3.3,4.4l1.5,4c0,0,0.1,1.7,0.6,9.3c0.4,7.6,4.3,15.8,4.3,15.8c0.2,4.9,1.2,5.7,1.2,5.7L72,91.3
			c-0.2,7.2,0.2,6.7,0.2,6.7l0.8,1l0.2,2.5l0.6-2.3l0.8,0.1l1,2.5l-0.2-2.5l0.7-0.1l0.7,1.3l-0.1-1.4l0.6-0.4l1.7,1.4
			c0,0-1.7-1.8-1.3-1.8C78.3,98.6,78.9,97.5,78.9,97.5z M72.3,90.5c-0.3-1-4.3-9.4-4.3-9.4c-2.9-3.2-2.2-8.6-2.2-8.6
			c1.1,0.5,4.2,4.2,4.2,4.2s1.4,3.6,1.5,6.7c0.1,3.1,2.1,6.9,2.1,6.9l2.3,3.5c-0.4,2.6-2.2,2.2-2.2,2.2s-1.8-0.1-1.4-0.3
			C72.7,95.5,72.3,90.5,72.3,90.5z M72.5,96.5c0,0,2.9,1.4,4.1-2.2c0,0,2.6,1.1,1.7,2.8C78.3,97.2,73.9,102.1,72.5,96.5z"/>
		<path class="st3" d="M43.1,35.4l0.5-5.8l1.3-4.4L44,25.8c0,0-0.7,3.8-1.1,0.8l-0.5,0.3c0,0,0.7,7.1-0.4,9.1
			C40.7,37.9,43.1,35.4,43.1,35.4z"/>
		<path class="st3" d="M40.2,37.4c0,0-2.7-0.9-1.7-7.3l0.1-3.8l-0.6,0.3c0,0,0,2-0.9,0l-0.4,0.6l0.7,0.8c0,0-1.1,8.9,1.5,9.4"/>
		<path class="st3" d="M36.9,40.9h-1c0,0,0.3-0.1-0.2-1.1l0.8-1c0,0,0.6,1.1,2.4,0.3s1.4,0.7,1.4,0.7l-1.4,1.1H36.9"/>
		<path class="st3" d="M37.1,42.6l-1-0.2l-0.5,0.5l0.7,0.2c0,0-2.2,2.3-4.6,2.1c0,0-0.2,0.8,1.2,1c0,0-0.3,2.7-0.7,2.7
			c0,0,1.2-0.7,1.1,0.5l0.7,0.4c0,0-0.4-4.3,2.9-5.3"/>
		<path class="st3" d="M7.4,100c0.4,0-0.5,1.2-0.5,1.2l1-0.8l0.6,0.4l0,1.4l0.7-1.3l0.7,0l0.2,1.8l0.5-1.9l0.8-0.1l0.5,1.2l0.3-1.4
			l0.8-1.1c0,0,0.9,0.6,0.6-6.8l5.1-12.4c0,0,0.6-1.5,0.7-6.4c0,0,3.6-8.3,3.7-15.9c0.2-7.6,0.2-9.3,0.2-9.3l1.3-4l3.1-4.5l2.8-2.7
			l5.4-1l1.5-0.5l3.2,3.2l0.6,1.1l1.8-0.1L40.6,39l1.8,0.1l-3-0.5l-0.6-1.9l-1.6-1.7c0,0-7-1.3-10,2.6c-3,3.9-6.1,7.7-6.1,11.4
			c-0.1,3.8,0,14.1-0.3,16.5c0,0-0.9,3.7-2.5,6.9c0,0-2.8,2.7-3.2,3.4c-0.4,0.6-1.3,2.3-1.3,2.3l-1.4,7.3c0,0-1.2,4.7-2.8,6.8
			c-1.6,2.2-1.2,2.6-1.2,2.6l-1.9-0.2l1.1,0.6c0,0-1.5,2-1.6,2.6c-0.1,0.6-0.9,2.9-0.9,2.9L6.3,99C6.3,99,6.9,100.1,7.4,100z
			 M12.8,97c0.4,0.2-1.4,0.4-1.4,0.4s-1.8,0.4-2.3-2.1l1.8-3.7c0,0,2.2-3.6,2.3-6.7c0-3.1,1.3-6.7,1.3-6.7s3-3.8,4.1-4.3
			c0,0,0.4,5.4-1.6,9.5c0,0-3.5,7.8-3.7,8.8C13.1,92,12.4,96.8,12.8,97z M6.9,98.7C6,97,8.5,95.8,8.5,95.8c1.3,3.5,4.1,2,4.1,2
			C11.4,103.5,6.9,98.7,6.9,98.7z"/>
		<path class="st3" d="M48.2,63.5c0,0-1.1,0.5-3,0.5c0,0-1.3-0.5-1.8-1.4C43,61.7,43,61.5,43,61.5s3-0.3,3.3-0.4c0,0-1.6-0.9,0.9-2
			l-0.9,0.1c0,0-1.4,1.3-2.7,1.1l0.1-8.7l-2.3-0.7l-0.3,1.3v8.2c0,0,2.7,2.6,0,1.9v5c0,0-1.3,0.7-2.3,0c0,0-8-1.6-7.9,2.8
			c0,0,0.5,5.2,7.4,3l-2.3,0.1c0,0,1.4-1.7,2.3-1.3c0,0,0.5-0.5-2.8,0.1c-3.3,0.6-1.9-2.1-1.9-2.1s1.6-2.2,6.9-1.1l0.4,0.9l-0.1,4.1
			c0,0-7.8,4.5-6.5,18.6L31.8,96c0,0-0.4,0.9-2.8,0.8c0,0,0.7,0.7,1.9,0.6c0,0-4.9,8.3-4.2,12.1c0,0,2.5-9,7.8-15.1
			c0,0,2.5,13.8-1.6,23.1c0,0-2.3,3.9-0.9,22.4c0,0-4.2,3.5-1.4,27.7c0,0,0.4,5.8-0.5,7c0,0-6.5,4.4-5.1,5.6l-0.9,2.5
			c0,0,1.6-1.8,1.6-2.2l0.7,0c0,0-0.9,2.6-1.4,2.9c0,0,1.3-0.9,1.8-2.6l0.7,0c0,0,0,1.8-0.8,2.9c0,0,1-0.9,1.5-2.7l1.2-0.1
			c0,0,0.4,1.7,0,2.8c0,0,1.3-2.1,0.6-3.1c0,0,2.3,0.3,0.8-2.3c0,0-1.1-1.3,0.1-3s-0.6-18.5-0.6-18.5s-0.5-14.3,2.2-15.4
			c0,0,2.3-0.6,0.4,30.4c0,0,3.8-29,0.4-32L32.6,129l1.1-8.4c0,0,4.1-15.9,2.9-19.3L36.2,90l-0.4-4.5l1.2-3.3c0,0,0.5,1.7,1,2.1
			s1.4,1.4,1.4,1.6l-0.6-2.1l1,0c0,0-2.1-2.2-0.8-4.1c1.3-1.9,2.8-3.3,2.8-3.3l1.3-3.7v-8.5c0,0,1.6,0.9,2.7,0.5c0,0,1-0.2,1.2,0
			c0,0-0.1,1.2,1.1,1.4c0,0-1.6-1.7,1.1-1.8c0,0,4.8,0.3,1.3,3.8C50.6,68,56.7,63.6,48.2,63.5z M29.1,180.3c0,0-4.7,0.4-3.6-1.2
			c0,0,3.7-3.5,4.3-3.5c0,0-0.2,2.1,0.2,2.4C30,178,30.9,180.6,29.1,180.3z"/>
		<path class="st3" d="M41.2,75.5l1.2,1.2c0,0,1.5,1.4,3,3.2c2.2,2.5-1.4,3.4-1.4,3.4l1.2,0.1l-0.1,4.1c0-0.2,0.5-2.8,1-3.2
			c0.6-0.4,1.5-1.8,1.5-1.8l1.3,3.3l-0.3,4.5l0,11.3c-1.7,9.4,1.8,21.9,1.8,21.9l2.2,6.8l1.4,9.8c-3.4,3.1,0.6,31.9,0.6,31.9
			c-2.8-30.9,0.1-30.5,0.1-30.5c2.8,1,2.2,15.4,2.2,15.4s-1.3,16.9,0,18.5s0.2,3,0.2,3c-1.5,2.6,0.9,2.2,0.9,2.2c-0.7,1,0.7,3,0.7,3
			c-0.5-1.1-0.1-2.8-0.1-2.8l1.2,0.1c0.6,1.8,1.6,2.7,1.6,2.7c-0.9-1.1-0.9-2.8-0.9-2.8l0.7,0c0.6,1.7,2,2.5,2,2.5
			c-0.5-0.3-1.5-2.9-1.5-2.9l0.7-0.1c0,0.4,1.7,2.2,1.7,2.2l-1-2.5c1.4-1.2-5.4-5.5-5.4-5.5c-0.9-1.2-0.7-7-0.7-7
			c2.2-24.2-1.2-27.8-1.2-27.8c-0.2-15.6-4.6-20.3-4.6-20.3c-4.5-9.1-0.4-25-0.4-25c5.7,5.9,6,16,6,16c0.7-3.8-3.1-14.1-3.1-14.1
			c1-0.3,1.5-1.1,1.5-1.1c-2.5,0.1-2.7-0.1-2.7-0.1l-1.4-2.1c2.1-12.5-6.8-19.9-7.9-20.6c-0.3,0-1.1-0.1-1.2,0c0,0,0.1,1.5,0.1,1.5
			C41.8,74.7,41.4,74.8,41.2,75.5z M57.8,178c0.4-0.4,0.1-2.4,0.1-2.4c0.6,0,4.5,3.4,4.5,3.4c1.2,1.6-3.7,1.3-3.7,1.3
			C56.9,180.7,57.8,178,57.8,178z"/>
		<g>
			<path class="st2" d="M12.1,86.6c-0.2,0.6-0.4,0.9-0.4,0.9C11.9,87.3,12,87,12.1,86.6z"/>
			<path class="st2" d="M36.7,28.9c0,0-0.8,3.5,0,5.6c0,0-1.4-0.5-2-3.3c0,0-0.2,2.4,1,4.5c0,0-7.7-0.5-10.5,4.1c0,0-6.4,4.4-8.1,13
				v14.3c0,0,0.1,3.1-1.5,4.4c-1.5,1.3-2.4,5.3-2.7,7.6c-0.3,1.9-0.3,5.7-0.8,7.5c0.5-1.3,1.3-4.1,1.6-7.8c0,0,1-6.1,3.5-6.7
				c0,0,0.9,4.8-2.2,11.5c0,0-3.3,7.2-3.1,9.8c0,0,2.8-9,5.7-10.3c0,0,4.4-4.1,5.8-10.4c1.4-6.2,1-7.8,1-7.8l-0.1-12.2
				c0,0-0.1-7.2,2-12c0,0,6.5-4.3,10.3-3l1,1.4h1.5v-1C38.9,38.2,36.1,33.4,36.7,28.9z M23,52.8v11.8c0.5,4.3-0.6,8.4-0.6,8.4
				c-1.8,6.1-5.9,8.9-5.9,8.9s0.9-4.3,1.3-5.9c0.4-1.6,0.3-5.2,0.3-5.2c0.7-0.8,0-4.9,0-4.9s-0.2-9.6,1-15.6c1.2-6,5.4-8.6,5.4-8.6
				C23.9,43.1,23,52.8,23,52.8z"/>
		</g>
		<g>
			<path class="st2" d="M38.8,40.4C38.8,40.4,38.7,40.4,38.8,40.4C38.7,40.4,38.8,40.4,38.8,40.4z"/>
			<path class="st2" d="M39.8,39.8c-0.4,0.2-0.7,0.4-1,0.6C39.1,40.2,39.4,40,39.8,39.8z"/>
			<path class="st2" d="M40.4,39.5C40.4,39.5,40.4,39.5,40.4,39.5C40.4,39.5,40.4,39.5,40.4,39.5z"/>
			<path class="st2" d="M43.1,38c0,0-1.4,0.8-2.7,1.5C41.1,39.1,42,38.6,43.1,38z"/>
			<path class="st2" d="M40.4,39.5c-0.2,0.1-0.4,0.2-0.6,0.3C40,39.7,40.2,39.6,40.4,39.5z"/>
			<path class="st2" d="M38.7,40.4c-0.4,0.2-0.6,0.4-0.8,0.4C38.1,40.8,38.4,40.6,38.7,40.4z"/>
			<path class="st2" d="M67.2,78.5c3.9,3.4,6.4,7.6,6.4,7.6l-1.5-4.7c-0.4-4.6-2.1-7.3-2.1-7.3l-2.2-2.8l-1-2.5
				c0,0-2.1-7.1-1.9-10.7c0.2-3.6-1.9-7.3-1.9-7.3l-2.3-3.7c-4.8-14.1-14.2-11.9-14.2-11.9c0.9-1.1,0-7.6,0-7.6
				c0,2.9-0.6,7.5-0.6,7.5L45,35.7c0.8-2.1-0.1-5.8-0.1-5.8c0.5,2.1-1.1,6.2-1.1,6.2l-2.2,1.3l0.6,0.8l0.8-0.1
				c11.7-6.5,16.6,9.3,16.6,9.3l0.2,10.1c-0.4,4.2,0.5,10.1,0.5,10.1c0.2,5,3.4,8.1,3.4,8.1c0.5,5.2,4.4,10,4.4,10
				c-3.3-4.4-3.1-8.8-3.1-8.8L67.2,78.5z M63.2,73.5c-2-1.6-2.5-9.5-2.5-9.5L61,49.9l1.7,2.3c1.3,1.9,1.3,5.9,1.3,5.9
				c-0.2,4.7,1.6,10.3,1.6,10.3c1.1,2.8,3.8,6.2,3.8,6.2c1.2,1.3,1.8,6.4,1.8,6.4c-0.5-0.9-4.5-4.2-4.5-4.2
				C64.9,76.1,63.2,73.5,63.2,73.5z"/>
			<path class="st2" d="M37.9,40.9C37.9,40.9,37.9,40.9,37.9,40.9L37.9,40.9z"/>
			<path class="st2" d="M38,40.8C38,40.8,38,40.8,38,40.8C38,40.8,38,40.8,38,40.8z"/>
		</g>
	</g>
</g>
</svg>
