<!-- Generator: Adobe Illustrator 19.2.1, SVG Export Plug-In  -->
<svg version="1.1"
	 xmlns="http://www.w3.org/2000/svg" xmlns:xlink="http://www.w3.org/1999/xlink" xmlns:a="http://ns.adobe.com/AdobeSVGViewerExtensions/3.0/"
	 x="0px" y="0px" width="87px" height="34.2px" viewBox="0 0 87 34.2" style="enable-background:new 0 0 87 34.2;"
	 xml:space="preserve">
<style type="text/css">
	.st0{fill:#CE9485;}
	.st1{fill:#E0B9A1;}
	.st2{fill:#B07167;}
</style>
<defs>
</defs>
<g>
	<path class="st0" d="M0,8.9c0,0,2-7.6,6.4-8.5L87,0l-4.9,3.8l-2,3.7l-1.9,2.4L0,8.9z"/>
	<path class="st0" d="M0,26.1c0,0,2.4,6.5,5.1,8.1H87l-1-1.3l-3.2-1.5l-2.7-3.9l-1-1.9H1.3L0,26.1z"/>
	<path class="st1" d="M16.7,11.3c3.7-1.3,10.2,0,10.2,0c4.2,3.7,9.7,0,9.7,0c2.6-0.8,6.5,0,6.5,0c4.2,3.5,11.1,0,11.1,0
		c2.6-0.8,11,0,11,0c3.1,3.4,9.6,0,9.6,0l3.4-0.5l1.2-0.4c-0.1-1,2.1-3.3,2.1-3.3c3.5,0.3,3.2-3.2,3.2-3.2C85.3,3,86.2,2.7,87,2.7V0
		c-0.4,0-0.7,0-1.1,0.1c-5.2,1.5-7.6,8.8-7.6,8.8H0v1.9l6,0.5C11.1,14.4,13,12.6,16.7,11.3z M82.3,4.7c0.3-0.6,0.8-1,1.2-0.8
		c0.4,0.2,0.5,0.8,0.2,1.4c-0.3,0.6-0.8,1-1.2,0.8S82,5.3,82.3,4.7z M69.5,10.4c0.9,0,1.7,0.4,1.7,0.9c0,0.5-0.7,0.9-1.7,0.9
		s-1.7-0.4-1.7-0.9C67.8,10.8,68.6,10.4,69.5,10.4z M48.5,10.4c1,0,1.9,0.4,1.9,0.9c0,0.5-0.8,0.9-1.9,0.9c-1,0-1.9-0.4-1.9-0.9
		C46.6,10.8,47.4,10.4,48.5,10.4z M31.5,10.4c1.1,0,2,0.4,2,0.9c0,0.5-0.9,0.9-2,0.9c-1.1,0-2-0.4-2-0.9
		C29.4,10.8,30.3,10.4,31.5,10.4z M11.2,10.4c1.2,0,2.1,0.4,2.1,0.9c0,0.5-1,0.9-2.1,0.9c-1.2,0-2.1-0.4-2.1-0.9
		C9.1,10.8,10,10.4,11.2,10.4z"/>
	<path class="st1" d="M87,31.8c-0.7-0.2-1.3-0.5-1.3-0.5s-0.1-2.4-2.5-2.8S80,25.2,80,25.2l-1.8-0.4c-6,0-8.1-0.5-8.1-0.5
		c-3.5-3.5-7.9,0-7.9,0c-2.6,1.3-8.9,0-8.9,0c-3.6-3.8-8.9-0.4-8.9-0.4c-6,1.5-12,0-12,0c-4.6-3.4-9.5,0-9.5,0c-6.8,1.9-8,0-8,0
		c-3.5-3-8.4,0-8.4,0L0,24.8v1.3L78.2,26c2.8,6.5,5.4,7.9,5.4,7.9c1.3,0.3,2.4,0.3,3.3,0.3V31.8z M10.9,24.8c-1,0-1.8-0.4-1.8-0.9
		c0-0.5,0.8-0.9,1.8-0.9s1.8,0.4,1.8,0.9C12.8,24.4,11.9,24.8,10.9,24.8z M27.6,24.8c-1,0-1.8-0.4-1.8-0.9c0-0.5,0.8-0.9,1.8-0.9
		s1.8,0.4,1.8,0.9C29.4,24.4,28.6,24.8,27.6,24.8z M48.9,24.8c-1,0-1.8-0.4-1.8-0.9c0-0.5,0.8-0.9,1.8-0.9s1.8,0.4,1.8,0.9
		C50.7,24.4,49.9,24.8,48.9,24.8z M66,25.2c-1,0-1.8-0.4-1.8-0.9c0-0.5,0.8-0.9,1.8-0.9s1.8,0.4,1.8,0.9C67.8,24.8,67,25.2,66,25.2z
		 M84.1,31.4c-0.4,0.1-0.9-0.2-1.1-0.9s-0.1-1.2,0.4-1.4c0.4-0.1,0.9,0.2,1.1,0.9C84.6,30.6,84.5,31.3,84.1,31.4z"/>
	<ellipse transform="matrix(0.4056 -0.9141 0.9141 0.4056 44.7552 78.788)" class="st2" cx="83" cy="5" rx="1.2" ry="0.8"/>
	<ellipse transform="matrix(0.9425 -0.3342 0.3342 0.9425 -5.3156 29.7076)" class="st2" cx="83.7" cy="30.3" rx="0.8" ry="1.2"/>
	<ellipse class="st2" cx="11.2" cy="11.3" rx="2.1" ry="0.9"/>
	<ellipse class="st2" cx="31.5" cy="11.3" rx="2" ry="0.9"/>
	<ellipse class="st2" cx="48.5" cy="11.3" rx="1.9" ry="0.9"/>
	<ellipse class="st2" cx="69.5" cy="11.3" rx="1.7" ry="0.9"/>
	<ellipse class="st2" cx="10.9" cy="23.9" rx="1.8" ry="0.9"/>
	<ellipse class="st2" cx="27.6" cy="23.9" rx="1.8" ry="0.9"/>
	<ellipse class="st2" cx="48.9" cy="23.9" rx="1.8" ry="0.9"/>
	<ellipse class="st2" cx="66" cy="24.3" rx="1.8" ry="0.9"/>
</g>
</svg>
