<!-- Generator: Adobe Illustrator 19.2.1, SVG Export Plug-In  -->
<svg version="1.1"
	 xmlns="http://www.w3.org/2000/svg" xmlns:xlink="http://www.w3.org/1999/xlink" xmlns:a="http://ns.adobe.com/AdobeSVGViewerExtensions/3.0/"
	 x="0px" y="0px" width="182.9px" height="114.5px" viewBox="0 0 182.9 114.5" style="enable-background:new 0 0 182.9 114.5;"
	 xml:space="preserve">
<style type="text/css">
	.st0{fill:#B3B1B2;}
	.st1{fill:#8484A0;}
	.st2{fill:#332E35;}
	.st3{fill:#7A768D;}
	.st4{fill:#C5C1CB;}
	.st5{fill:#C9C6D6;}
	.st6{fill:#C9C2D1;}
	.st7{fill:#656174;}
	.st8{fill:#373153;}
	.st9{fill:#BFB8C8;}
	.st10{fill:#675C6D;}
	.st11{fill:#C9C3C5;}
	.st12{fill:#A49BB0;}
	.st13{fill:#A78993;}
	.st14{fill:#5A546B;}
	.st15{fill:#85829A;}
	.st16{fill:#C1BBC5;}
	.st17{fill:#746981;}
	.st18{fill:#2F2E3E;}
	.st19{fill:#797898;}
	.st20{fill:#C8C3CA;}
</style>
<defs>
</defs>
<g>
	<polygon class="st0" points="170.4,65.6 166,60.7 161.2,63.2 165.3,68 	"/>
	<g>
		<path class="st1" d="M80.8,107.8l-4.7-7.2c0,0-0.7-1.1,0.4-1.8s85.9-40,85.9-40s1.4-1,2.5,0.5l1.1,1.4c0,0,1.9-1,6,6.8
			s-83.6,40.2-83.6,40.2H80.8z"/>
		<path class="st2" d="M89,113.8l2.8,0.7c0,0,11.4-3.2,12.3-4.4c0,0,3.8-2.2,12.1-2.2l17.8-0.4l8.7-4.1l-40.7,1.8L89,113.8z"/>
		<path class="st3" d="M86.8,104.3l-1.5-0.6l-4.5,2.6v1.4c0,0,2.6,6.1,8.2,6.1s13.3-4,13.3-4s9.1-4,24.4-2.5l9.7-1c0,0,5.9-1,10-6.3
			l12.1-15.1c0,0,3.9-4.3,7.4-5.3l5.6-4.2c0,0,5.8-2.3-0.9-9.7L86.8,104.3z"/>
		<path class="st4" d="M83.6,105.8l84.8-38.5c0,0,5,3.5,1.9,6.5c0,0-16.7,9.4-17.3,14c0,0-9.4,14.2-12.5,14.8c0,0-2.3,2.1-8.1,1.7
			c0,0-28.1-0.1-34.6,5.2C97.8,109.6,87.2,117.5,83.6,105.8z"/>
		<polygon class="st5" points="80.8,106.3 79.3,103.7 80.8,102.6 78.2,98.9 162.7,59.3 164.3,61.6 161.2,63.2 162.2,64.4 		"/>
		<polygon class="st6" points="85.2,103.7 84.1,101.5 85.2,100.5 162.2,64.4 165.3,68 86.8,104.3 		"/>
	</g>
	<g>
		<path class="st7" d="M82.5,32l8.7,11l16.4,17.8l8.4,6.6c0,0,7.1,1.8,10.2-1.7l7-3.4l30-13.1l15.7-7.1c0,0,5.2-3.2,3.8-8.7
			c0,0,0-3.2-3.1-4.9l-17.1-14.9l-28.2,2.1L83.6,30.6L83.4,30L82.5,32z"/>
		<polygon class="st8" points="125.8,63.8 166.9,44.6 177.4,38.4 124.3,60.3 		"/>
		<path class="st9" d="M83.6,30.6l8.2,10.1l10.9,12.8l11.2,10.9c0,0,6.9,3.8,13.3-1.5c6.4-5.3,36-18.7,36-18.7l13.6-5.6
			c0,0,9.2-2.9,2.8-9.1l-15.3-13.4L83.6,30.6z"/>
		<path class="st10" d="M82.5,32c0,0-0.3-2.1,1.1-2.9l13.1-5.2l54-23.8l2.7,2.5l9.1,11.1l6.2,7.3l8.9,9.2c0,0,5,5.5-0.8,8.6
			c-5.8,3.1-45.3,22.1-45.3,22.1l-6.1,3c0,0-6.2,2.1-11.7-3l-29-29.8C84.7,30.9,83.6,30.5,82.5,32z"/>
		<path class="st11" d="M96.6,24.7l-12,4.9l2.1,1.2l12,13.9l10,8.8l7.9,6.7c0,0,4.8,3.7,9.2,0.9l41.2-19.5l10.3-5.8
			c0,0,2.7-1.7-0.7-5.2c-3.5-3.5-14.1-15.1-14.1-15.1l-4.8-5.5l-3.8-5c0,0-2.2-3.2-3.6-3.2l-7.2,2.8L96.6,24.7z"/>
		<polygon class="st12" points="143.6,5.4 149.2,3.1 152.5,4.2 155.3,13.2 163.2,24 147.8,14.3 		"/>
		<polygon class="st13" points="96.6,29.5 92,26.9 99.6,23.8 101.5,26.4 		"/>
		<polygon class="st14" points="123.5,52.9 129.1,52.9 161.5,37.3 		"/>
		<path class="st15" d="M97,25.7l-0.4,3.8l15.9,17.8c0,0,5.1,7.3,13.4,5.2l37.4-16c0,0,6.6-3,4.9-8.8l-10.5-9.9l-6.8-1L97,25.7z"/>
		<path class="st16" d="M150.7,12.5l11.2,10.2l3.9,3.8c0,0,4,4.8-0.5,6.4L128,50.7c0,0-4,1.3-5.6,0.2l-1.1,0l-3.3-2.2l-9.6-10
			l-9.2-10.4l-1.2-3.4l27.1-9.2L150.7,12.5z"/>
		<path class="st17" d="M115.2,40.7l-9.6-7.2l-3.9-4c0,0-1.1-2.2,1.9-1.7L115.2,40.7z"/>
		<path class="st18" d="M103.5,28.5c0,0-7.8-6.1-3.6-0.4l4.7,5.9l12.1,13.3c0,0,3.9,3.5,5.6,3.5c0,0-3,2-15-12.6S97,25.7,97,25.7
			l-0.1-2.4l2.7,0.5l4,4L103.5,28.5z"/>
		<path class="st19" d="M97,25.7c0,0-1.2-2.6,0.5-3.3l44.6-19.3c0,0,0.9-0.2,1.8,0.9l18.2,22.7c0,0,1.7,5.3-1.5,7L131.5,48
			c0,0-7.1,1.5-11.2-1.9L99.7,24.5l-2.1-0.9L97,25.7z"/>
		<path class="st20" d="M98.8,22.7L142,4.1l1.6,1.3l17,21.1c0,0,2.7,3.9-1.2,5.6L131.7,46c0,0-4.7,2.2-9.4-1.9L98.8,22.7z"/>
	</g>
	<g>
		<path class="st7" d="M0,59.4l8.7,12l16.6,19.4l8.5,7.2c0,0,7.2,2,10.3-1.8l7.1-3.7l30.3-14.3l15.8-7.8c0,0,5.2-3.5,3.9-9.4
			c0,0,0-3.5-3.2-5.3L80.8,39.4l-28.5,2.3L1.1,58l-0.2-0.6L0,59.4z"/>
		<polygon class="st8" points="43.7,94.2 85.3,73.2 95.9,66.4 42.3,90.4 		"/>
		<path class="st9" d="M1.1,58l8.3,11l11,14l11.3,11.9c0,0,7,4.1,13.5-1.7c6.4-5.8,36.4-20.4,36.4-20.4l13.7-6.1
			c0,0,9.3-3.2,2.8-9.9L82.6,42.2L1.1,58z"/>
		<path class="st10" d="M0,59.4c0,0-0.3-2.3,1.1-3.2l13.3-5.7l54.5-26l2.8,2.7l9.2,12.1l6.3,8l9,10c0,0,5,6-0.8,9.4
			c-5.8,3.4-45.7,24.1-45.7,24.1l-6.2,3.3c0,0-6.3,2.3-11.8-3.3L2.2,58.3C2.2,58.3,1.2,57.8,0,59.4z"/>
		<path class="st11" d="M14.3,51.5L2.2,56.8l2.1,1.4l12.1,15.2L26.5,83l7.9,7.3c0,0,4.8,4.1,9.3,1L85.4,70l10.4-6.4
			c0,0,2.8-1.9-0.7-5.7S80.8,41.4,80.8,41.4l-4.8-6l-3.9-5.5c0,0-2.3-3.5-3.6-3.5l-7.3,3.1L14.3,51.5z"/>
		<polygon class="st12" points="61.8,30.4 67.3,28 70.7,29.2 73.6,39 81.5,50.8 66,40.1 		"/>
		<polygon class="st13" points="14.2,56.8 9.6,53.9 17.2,50.6 19.2,53.3 		"/>
		<polygon class="st14" points="41.4,82.3 47,82.3 79.9,65.2 		"/>
		<path class="st15" d="M14.6,52.6l-0.4,4.2l16,19.4c0,0,5.1,8,13.5,5.7l37.8-17.4c0,0,6.7-3.2,5-9.6L75.9,44.1l-6.9-1L14.6,52.6z"
			/>
		<path class="st16" d="M68.9,38.2l11.3,11.1l4,4.2c0,0,4,5.2-0.5,7L45.9,79.8c0,0-4.1,1.4-5.7,0.2l-1.1,0l-3.4-2.4l-9.7-10.9
			l-9.3-11.4l-1.2-3.7L43,41.6L68.9,38.2z"/>
		<path class="st17" d="M33,69l-9.7-7.9l-3.9-4.3c0,0-1.1-2.4,1.9-1.8L33,69z"/>
		<path class="st18" d="M21.2,55.7c0,0-7.9-6.6-3.6-0.4l4.7,6.5l12.2,14.5c0,0,3.9,3.9,5.7,3.9c0,0-3.1,2.2-15.2-13.7
			S14.6,52.6,14.6,52.6L14.6,50l2.7,0.6l4,4.4L21.2,55.7z"/>
		<path class="st19" d="M14.6,52.6c0,0-1.2-2.8,0.5-3.6l45.1-21c0,0,0.9-0.2,1.8,1l18.4,24.8c0,0,1.7,5.8-1.5,7.6L49.5,76.9
			c0,0-7.2,1.7-11.3-2L17.4,51.3l-2.1-1L14.6,52.6z"/>
		<path class="st20" d="M16.4,49.3L60.2,29l1.6,1.4l17.2,23c0,0,2.7,4.2-1.2,6.1L49.7,74.8c0,0-4.7,2.4-9.5-2L16.4,49.3z"/>
	</g>
</g>
</svg>
