<!-- Generator: Adobe Illustrator 19.2.1, SVG Export Plug-In  -->
<svg version="1.1"
	 xmlns="http://www.w3.org/2000/svg" xmlns:xlink="http://www.w3.org/1999/xlink" xmlns:a="http://ns.adobe.com/AdobeSVGViewerExtensions/3.0/"
	 x="0px" y="0px" width="9.1px" height="35.7px" viewBox="0 0 9.1 35.7" style="enable-background:new 0 0 9.1 35.7;"
	 xml:space="preserve">
<style type="text/css">
	.st0{fill:#BB2326;}
	.st1{fill:#C8E5ED;}
	.st2{fill:#EF3B24;}
	.st3{fill:#F36D24;}
	.st4{fill:#F9A01B;}
	.st5{fill:#FEEB00;}
	.st6{fill:#AED136;}
	.st7{fill:#8ACA88;}
	.st8{fill:#74D0F1;}
	.st9{fill:#4064AF;}
	.st10{fill:#58469C;}
</style>
<defs>
</defs>
<g>
	<path class="st0" d="M6.3,28.2v-2H6.2v-1.1v-1.9v-1.8v-1.1v-3h0v-1.5h0v-3.3h0.1v-4v-3V3.6c0.1-0.3,0.2-0.6,0.2-0.9
		c0-1.2-0.9-2.2-2-2.2s-2,1-2,2.2c0,0.5,0.1,0.9,0.4,1.3v1.4h0v3v3v1v2.1v1.2v1.5v0.6v2.4v1.1v1.8v1.9v1.1v1.9
		c-1.4,0.6-2.3,1.8-2.3,3.3c0,2,1.8,3.6,4,3.6c2.2,0,4-1.6,4-3.6C8.5,30,7.6,28.8,6.3,28.2z"/>
	<path class="st1" d="M8.8,29.9c-0.3-0.9-0.9-1.7-1.8-2.3V2.6C7.1,1.2,5.9,0,4.5,0h0C3.1,0,2,1.2,2,2.6v25.1
		c-0.8,0.5-1.4,1.3-1.8,2.3C0.1,30.3,0,30.8,0,31.2c0,0.6,0.1,1.2,0.4,1.7c0.7,1.6,2.3,2.7,4.2,2.7h0c1.9,0,3.5-1.1,4.2-2.7
		C8.9,32.4,9,31.8,9,31.2C9,30.8,9,30.3,8.8,29.9z M7,33.6c-0.3,0.3-0.7,0.6-1.1,0.7c-0.2,0.1-0.4,0.2-0.7,0.2
		c-0.2,0-0.5,0.1-0.7,0.1c-0.2,0-0.5,0-0.7-0.1c-0.2,0-0.5-0.1-0.7-0.2C2.7,34.2,2.3,34,2,33.6c-0.6-0.6-1-1.5-1-2.4
		c0-1.2,0.9-2.3,1.9-2.9v-0.1v-1.7h1.2v-0.4H2.8v-2.6h1.2v-0.4H2.8v-2.6h1.2v-0.4H2.8v-2.6h1.2v-0.4H2.8v-2.3h1.2v-0.4H2.8v-2.6h1.2
		v-0.4H2.8V8.8h1.2V8.4H2.8V5.8h1.2V5.4H2.8V3h1.2V2.6H2.9c0.1-1,0.7-1.7,1.7-1.7c1.1,0,1.7,0.9,1.7,2v25.4v0.1
		c0.9,0.6,1.9,1.7,1.9,2.9C8.1,32.2,7.7,33,7,33.6z"/>
</g>
<g>
	<path class="st2" d="M6.3,28.2v-2H6.2v-1.1v-1.9v-1.8v-1.1v-3h0v-1.5h0v-3.3h0.1v-4v-3V2.7H2.9v2.8h0v3v3v1v2.1v1.2v1.5v0.6v2.4
		v1.1v1.8v1.9v1.1v1.9c-1.4,0.6-2.3,1.8-2.3,3.3c0,2,1.8,3.6,4,3.6c2.2,0,4-1.6,4-3.6C8.5,30,7.6,28.8,6.3,28.2z"/>
	<path class="st1" d="M8.9,29.9c-0.3-0.9-0.9-1.7-1.8-2.3V2.6c0-1.4-1.1-2.6-2.6-2.6h0C3.1,0.1,2,1.2,2,2.6v25.1
		c-0.8,0.5-1.4,1.3-1.8,2.3C0.1,30.4,0,30.8,0,31.3c0,0.6,0.1,1.2,0.4,1.7c0.7,1.6,2.3,2.7,4.2,2.7h0c1.9,0,3.5-1.1,4.2-2.7
		c0.2-0.5,0.4-1.1,0.4-1.7C9.1,30.8,9,30.4,8.9,29.9z M7,33.7c-0.3,0.3-0.7,0.6-1.1,0.7c-0.2,0.1-0.4,0.2-0.7,0.2
		c-0.2,0-0.5,0.1-0.7,0.1c-0.2,0-0.5,0-0.7-0.1c-0.2,0-0.5-0.1-0.7-0.2C2.7,34.3,2.4,34,2,33.7c-0.6-0.6-1-1.5-1-2.4
		c0-1.2,0.9-2.3,1.9-2.9v-0.1v-1.7h1.2v-0.4H2.9v-2.6h1.2v-0.4H2.9v-2.6h1.2v-0.4H2.9v-2.6h1.2v-0.4H2.9v-2.3h1.2v-0.4H2.9v-2.6h1.2
		v-0.4H2.9V8.9h1.2V8.5H2.9V5.8h1.2V5.5H2.9V3.1h1.2V2.7H2.9C3,1.7,3.5,1,4.5,1c1.1,0,1.7,0.9,1.7,2v25.4v0.1
		c0.9,0.6,1.9,1.7,1.9,2.9C8.1,32.2,7.7,33.1,7,33.7z"/>
</g>
<g>
	<path class="st3" d="M6.4,28.2v-2H6.2v-1.1v-1.9v-1.8v-1.1v-3h0v-1.5h0v-3.3h0.1v-4v-3H2.9v3v3v1v2.1v1.2v1.5v0.6v2.4v1.1v1.8v1.9
		v1.1v1.9c-1.4,0.6-2.3,1.8-2.3,3.3c0,2,1.8,3.6,4,3.6c2.2,0,4-1.6,4-3.6C8.6,30,7.7,28.8,6.4,28.2z"/>
	<path class="st1" d="M8.9,29.9c-0.3-0.9-0.9-1.7-1.8-2.3V2.6c0-1.4-1.1-2.6-2.6-2.6h0C3.1,0.1,2,1.2,2,2.6v25.1
		c-0.8,0.5-1.4,1.3-1.8,2.3C0.1,30.4,0,30.8,0,31.3c0,0.6,0.1,1.2,0.4,1.7c0.7,1.6,2.3,2.7,4.2,2.7h0c1.9,0,3.5-1.1,4.2-2.7
		c0.2-0.5,0.4-1.1,0.4-1.7C9.1,30.8,9,30.4,8.9,29.9z M7,33.7c-0.3,0.3-0.7,0.6-1.1,0.7c-0.2,0.1-0.4,0.2-0.7,0.2
		c-0.2,0-0.5,0.1-0.7,0.1c-0.2,0-0.5,0-0.7-0.1c-0.2,0-0.5-0.1-0.7-0.2C2.7,34.3,2.4,34,2,33.7c-0.6-0.6-1-1.5-1-2.4
		c0-1.2,0.9-2.3,1.9-2.9v-0.1v-1.7h1.2v-0.4H2.9v-2.6h1.2v-0.4H2.9v-2.6h1.2v-0.4H2.9v-2.6h1.2v-0.4H2.9v-2.3h1.2v-0.4H2.9v-2.6h1.2
		v-0.4H2.9V8.9h1.2V8.5H2.9V5.8h1.2V5.5H2.9V3.1h1.2V2.7H2.9C3,1.7,3.5,1,4.5,1c1.1,0,1.7,0.9,1.7,2v25.4v0.1
		c0.9,0.6,1.9,1.7,1.9,2.9C8.1,32.2,7.7,33.1,7,33.7z"/>
</g>
<g>
	<path class="st4" d="M6.3,28.2v-2H6.2v-1.1v-1.9v-1.8v-1.1v-3h0v-1.5h0v-3.3h0.1v-4H2.8v3v1v2.1v1.2v1.5v0.6v2.4v1.1v1.8v1.9v1.1
		v1.9c-1.4,0.6-2.3,1.8-2.3,3.3c0,2,1.8,3.6,4,3.6c2.2,0,4-1.6,4-3.6C8.5,30,7.6,28.8,6.3,28.2z"/>
	<path class="st1" d="M8.8,29.9c-0.3-0.9-0.9-1.7-1.8-2.3V2.6c0-1.4-1.1-2.6-2.6-2.6h0C3.1,0.1,2,1.2,2,2.6v25.1
		c-0.8,0.5-1.4,1.3-1.8,2.3C0.1,30.4,0,30.8,0,31.3c0,0.6,0.1,1.2,0.4,1.7c0.7,1.6,2.3,2.7,4.2,2.7h0c1.9,0,3.5-1.1,4.2-2.7
		C8.9,32.5,9,31.9,9,31.3C9,30.8,9,30.4,8.8,29.9z M7,33.7c-0.3,0.3-0.7,0.6-1.1,0.7c-0.2,0.1-0.4,0.2-0.7,0.2
		c-0.2,0-0.5,0.1-0.7,0.1c-0.2,0-0.5,0-0.7-0.1c-0.2,0-0.5-0.1-0.7-0.2C2.7,34.3,2.3,34,2,33.7c-0.6-0.6-1-1.5-1-2.4
		c0-1.2,0.9-2.3,1.9-2.9v-0.1v-1.7h1.2v-0.4H2.8v-2.6h1.2v-0.4H2.8v-2.6h1.2v-0.4H2.8v-2.6h1.2v-0.4H2.8v-2.3h1.2v-0.4H2.8v-2.6h1.2
		v-0.4H2.8V8.9h1.2V8.5H2.8V5.8h1.2V5.5H2.8V3.1h1.2V2.7H2.9C3,1.7,3.5,1,4.5,1c1.1,0,1.7,0.9,1.7,2v25.4v0.1
		c0.9,0.6,1.9,1.7,1.9,2.9C8.1,32.2,7.7,33.1,7,33.7z"/>
</g>
<g>
	<path class="st5" d="M6.3,28.2v-2H6.2v-1.1v-1.9v-1.8v-1.1v-3h0v-1.5h0v-4.3H2.8v3v1.2v1.5v0.6v2.4v1.1v1.8v1.9v1.1v1.9
		c-1.4,0.6-2.3,1.8-2.3,3.3c0,2,1.8,3.6,4,3.6c2.2,0,4-1.6,4-3.6C8.5,30,7.6,28.8,6.3,28.2z"/>
	<path class="st1" d="M8.8,29.9c-0.3-0.9-0.9-1.7-1.8-2.3V2.6c0-1.4-1.1-2.6-2.6-2.6h0C3.1,0.1,2,1.2,2,2.6v25.1
		c-0.8,0.5-1.4,1.3-1.8,2.3C0.1,30.4,0,30.8,0,31.3c0,0.6,0.1,1.2,0.4,1.7c0.7,1.6,2.3,2.7,4.2,2.7h0c1.9,0,3.5-1.1,4.2-2.7
		C8.9,32.5,9,31.9,9,31.3C9,30.8,9,30.4,8.8,29.9z M7,33.7c-0.3,0.3-0.7,0.6-1.1,0.7c-0.2,0.1-0.4,0.2-0.7,0.2s-0.5,0.1-0.7,0.1
		c-0.2,0-0.5,0-0.7-0.1c-0.2,0-0.5-0.1-0.7-0.2C2.7,34.3,2.3,34,2,33.7c-0.6-0.6-1-1.5-1-2.4c0-1.2,0.9-2.3,1.9-2.9v-0.1v-1.7h1.2
		v-0.4H2.8v-2.6h1.2v-0.4H2.8v-2.6h1.2v-0.4H2.8v-2.6h1.2v-0.4H2.8v-2.3h1.2v-0.4H2.8v-2.6h1.2v-0.4H2.8V8.9h1.2V8.5H2.8V5.8h1.2
		V5.5H2.8V3.1h1.2V2.7H2.9C3,1.7,3.5,1,4.5,1c1.1,0,1.7,0.9,1.7,2v25.4v0.1c0.9,0.6,1.9,1.7,1.9,2.9C8.1,32.2,7.7,33.1,7,33.7z"/>
</g>
<g>
	<path class="st6" d="M6.3,28.1v-2H6.2V25v-1.9v-1.8v-1.1v-3h0.2l-0.1-2.7H2.8v2.7v0.6v2.4v1.1v1.8V25v1.1v1.9
		c-1.4,0.6-2.3,1.8-2.3,3.3c0,2,1.8,3.6,4,3.6c2.2,0,4-1.6,4-3.6C8.5,29.9,7.6,28.7,6.3,28.1z"/>
	<path class="st1" d="M8.8,29.9c-0.3-0.9-0.9-1.7-1.8-2.3V2.6C7.1,1.2,5.9,0,4.5,0h0C3.1,0,2,1.2,2,2.6v25.1
		c-0.8,0.5-1.4,1.3-1.8,2.3C0.1,30.3,0,30.8,0,31.2c0,0.6,0.1,1.2,0.4,1.7c0.7,1.6,2.3,2.7,4.2,2.7h0c1.9,0,3.5-1.1,4.2-2.7
		C8.9,32.4,9,31.8,9,31.2C9,30.8,9,30.3,8.8,29.9z M7,33.6c-0.3,0.3-0.7,0.6-1.1,0.7c-0.2,0.1-0.4,0.2-0.7,0.2
		c-0.2,0-0.5,0.1-0.7,0.1c-0.2,0-0.5,0-0.7-0.1c-0.2,0-0.5-0.1-0.7-0.2C2.7,34.2,2.3,34,2,33.6c-0.6-0.6-1-1.5-1-2.4
		c0-1.2,0.9-2.3,1.9-2.9v-0.1v-1.7h1.2v-0.4H2.8v-2.6h1.2v-0.4H2.8v-2.6h1.2v-0.4H2.8v-2.6h1.2v-0.4H2.8v-2.3h1.2v-0.4H2.8v-2.6h1.2
		v-0.4H2.8V8.8h1.2V8.4H2.8V5.8h1.2V5.4H2.8V3h1.2V2.6H2.9c0.1-1,0.7-1.7,1.7-1.7c1.1,0,1.7,0.9,1.7,2v25.4v0.1
		c0.9,0.6,1.9,1.7,1.9,2.9C8.1,32.2,7.7,33,7,33.6z"/>
</g>
<g>
	<path class="st7" d="M6.3,28.2v-2H6.2v-1.1v-1.9v-1.8v-1.1v-3H2.8v3v1.1v1.8v1.9v1.1v1.9c-1.4,0.6-2.3,1.8-2.3,3.3
		c0,2,1.8,3.6,4,3.6c2.2,0,4-1.6,4-3.6C8.5,30,7.6,28.8,6.3,28.2z"/>
	<path class="st1" d="M8.8,29.9c-0.3-0.9-0.9-1.7-1.8-2.3V2.6c0-1.4-1.1-2.6-2.6-2.6h0C3.1,0.1,2,1.2,2,2.6v25.1
		c-0.8,0.5-1.4,1.3-1.8,2.3C0.1,30.4,0,30.8,0,31.3c0,0.6,0.1,1.2,0.4,1.7c0.7,1.6,2.3,2.7,4.2,2.7h0c1.9,0,3.5-1.1,4.2-2.7
		C8.9,32.5,9,31.9,9,31.3C9,30.8,9,30.4,8.8,29.9z M7,33.7c-0.3,0.3-0.7,0.6-1.1,0.7c-0.2,0.1-0.4,0.2-0.7,0.2
		c-0.2,0-0.5,0.1-0.7,0.1c-0.2,0-0.5,0-0.7-0.1c-0.2,0-0.5-0.1-0.7-0.2C2.7,34.3,2.3,34,2,33.7c-0.6-0.6-1-1.5-1-2.4
		c0-1.2,0.9-2.3,1.9-2.9v-0.1v-1.7h1.2v-0.4H2.8v-2.6h1.2v-0.4H2.8v-2.6h1.2v-0.4H2.8v-2.6h1.2v-0.4H2.8v-2.3h1.2v-0.4H2.8v-2.6h1.2
		v-0.4H2.8V8.9h1.2V8.5H2.8V5.8h1.2V5.5H2.8V3.1h1.2V2.7H2.9C3,1.7,3.5,1,4.5,1c1.1,0,1.7,0.9,1.7,2v25.4v0.1
		c0.9,0.6,1.9,1.7,1.9,2.9C8.1,32.2,7.7,33.1,7,33.7z"/>
</g>
<g>
	<path class="st8" d="M6.4,28.2v-2H6.2v-1.1v-1.9v-2.9H2.9v2.9v1.9v1.1v1.9c-1.4,0.6-2.3,1.8-2.3,3.3c0,2,1.8,3.6,4,3.6
		c2.2,0,4-1.6,4-3.6C8.6,30,7.7,28.8,6.4,28.2z"/>
	<path class="st1" d="M8.9,29.9c-0.3-0.9-0.9-1.7-1.8-2.3V2.6c0-1.4-1.1-2.6-2.6-2.6h0C3.1,0.1,2,1.2,2,2.6v25.1
		c-0.8,0.5-1.4,1.3-1.8,2.3C0.1,30.4,0,30.8,0,31.3c0,0.6,0.1,1.2,0.4,1.7c0.7,1.6,2.3,2.7,4.2,2.7h0c1.9,0,3.5-1.1,4.2-2.7
		c0.2-0.5,0.4-1.1,0.4-1.7C9.1,30.8,9,30.4,8.9,29.9z M7,33.7c-0.3,0.3-0.7,0.6-1.1,0.7c-0.2,0.1-0.4,0.2-0.7,0.2
		c-0.2,0-0.5,0.1-0.7,0.1c-0.2,0-0.5,0-0.7-0.1c-0.2,0-0.5-0.1-0.7-0.2C2.7,34.3,2.4,34,2,33.7c-0.6-0.6-1-1.5-1-2.4
		c0-1.2,0.9-2.3,1.9-2.9v-0.1v-1.7h1.2v-0.4H2.9v-2.6h1.2v-0.4H2.9v-2.6h1.2v-0.4H2.9v-2.6h1.2v-0.4H2.9v-2.3h1.2v-0.4H2.9v-2.6h1.2
		v-0.4H2.9V8.9h1.2V8.5H2.9V5.8h1.2V5.5H2.9V3.1h1.2V2.7H2.9C3,1.7,3.5,1,4.5,1c1.1,0,1.7,0.9,1.7,2v25.4v0.1
		c0.9,0.6,1.9,1.7,1.9,2.9C8.1,32.2,7.7,33.1,7,33.7z"/>
</g>
<g>
	<path class="st9" d="M6.4,28.1v-2H6.2v-3H2.9v3v1.9c-1.4,0.6-2.3,1.8-2.3,3.3c0,2,1.8,3.6,4,3.6c2.2,0,4-1.6,4-3.6
		C8.5,30,7.7,28.8,6.4,28.1z"/>
	<path class="st1" d="M8.9,29.9c-0.3-0.9-0.9-1.7-1.8-2.3V2.6C7.1,1.2,6,0,4.5,0h0C3.1,0,2,1.2,2,2.6v25.1c-0.8,0.5-1.4,1.3-1.8,2.3
		C0.1,30.3,0,30.8,0,31.2c0,0.6,0.1,1.2,0.4,1.7c0.7,1.6,2.3,2.7,4.2,2.7h0c1.9,0,3.5-1.1,4.2-2.7c0.2-0.5,0.4-1.1,0.4-1.7
		C9.1,30.8,9,30.3,8.9,29.9z M7,33.7c-0.3,0.3-0.7,0.6-1.1,0.7c-0.2,0.1-0.4,0.2-0.7,0.2c-0.2,0-0.5,0.1-0.7,0.1
		c-0.2,0-0.5,0-0.7-0.1c-0.2,0-0.5-0.1-0.7-0.2C2.7,34.2,2.4,34,2,33.7c-0.6-0.6-1-1.5-1-2.4c0-1.2,0.9-2.3,1.9-2.9v-0.1v-1.7h1.2
		v-0.4H2.9v-2.6h1.2v-0.4H2.9v-2.6h1.2v-0.4H2.9v-2.6h1.2v-0.4H2.9v-2.3h1.2v-0.4H2.9v-2.6h1.2v-0.4H2.9V8.8h1.2V8.5H2.9V5.8h1.2
		V5.4H2.9V3h1.2V2.7H2.9C3,1.7,3.5,1,4.5,1c1.1,0,1.7,0.9,1.7,2v25.4v0.1c0.9,0.6,1.9,1.7,1.9,2.9C8.1,32.2,7.7,33,7,33.7z"/>
</g>
<g>
	<path class="st10" d="M6.4,28.1v-2H2.9v1.9c-1.4,0.6-2.3,1.8-2.3,3.3c0,2,1.8,3.6,4,3.6c2.2,0,4-1.6,4-3.6
		C8.6,29.9,7.7,28.7,6.4,28.1z"/>
	<path class="st1" d="M8.9,29.9c-0.3-0.9-0.9-1.7-1.8-2.3V2.6C7.1,1.1,6,0,4.5,0h0C3.1,0,2,1.1,2,2.6v25.1c-0.8,0.5-1.4,1.3-1.8,2.3
		C0.1,30.3,0,30.8,0,31.2c0,0.6,0.1,1.2,0.4,1.7c0.7,1.6,2.3,2.7,4.2,2.7h0c1.9,0,3.5-1.1,4.2-2.7c0.2-0.5,0.4-1.1,0.4-1.7
		C9.1,30.8,9,30.3,8.9,29.9z M7,33.6c-0.3,0.3-0.7,0.6-1.1,0.7c-0.2,0.1-0.4,0.2-0.7,0.2c-0.2,0-0.5,0.1-0.7,0.1
		c-0.2,0-0.5,0-0.7-0.1c-0.2,0-0.5-0.1-0.7-0.2c-0.4-0.2-0.8-0.4-1.1-0.7c-0.6-0.6-1-1.5-1-2.4c0-1.2,0.9-2.3,1.9-2.9v-0.1v-1.7h1.2
		v-0.4H2.9v-2.6h1.2v-0.4H2.9v-2.6h1.2v-0.4H2.9v-2.6h1.2v-0.4H2.9v-2.3h1.2v-0.4H2.9v-2.6h1.2v-0.4H2.9V8.8h1.2V8.4H2.9V5.8h1.2
		V5.4H2.9V3h1.2V2.6H2.9c0.1-1,0.7-1.7,1.7-1.7c1.1,0,1.7,0.9,1.7,2v25.4v0.1c0.9,0.6,1.9,1.7,1.9,2.9C8.1,32.2,7.7,33,7,33.6z"/>
</g>
</svg>
