<svg id="Layer_1" data-name="Layer 1" xmlns="http://www.w3.org/2000/svg" viewBox="0 0 288 288"><defs><style>.cls-1{fill:#c4baa9;}.cls-2{fill:#a89f98;}.cls-3{fill:#444;}.cls-4{fill:#1c1c1c;}.cls-5{fill:#474747;}.cls-6{fill:#595959;}.cls-7{fill:#b5b5b5;}.cls-8{fill:#c6bfb3;}.cls-9{fill:#fff8e6;}.cls-10{fill:#3a3a3a;}.cls-11{fill:#eae3d0;}.cls-12{fill:#ded6c4;}.cls-13{fill:#d1d9df;}.cls-14{fill:#2b3990;}.cls-15{fill:#3b3e3f;}.cls-16{fill:#262828;}.cls-17{fill:#bcb3a2;}.cls-18{fill:#ccccca;}</style></defs><title>bookpics</title><polygon class="cls-1" points="182.76 196.88 182.76 217.81 181.66 221.1 178.94 221.1 177.09 198.37 182.76 196.88"/><polygon class="cls-2" points="175.49 215.17 217.9 232.31 216.75 245.07 210.66 247.63 177.09 229.5 175.49 215.17"/><polygon class="cls-2" points="199.95 101.18 219.72 102.99 225.36 125.56 214.28 144.01 186.93 144.01 199.95 101.18"/><polygon class="cls-3" points="149.29 84.7 162.22 83.22 175.49 83.22 189.24 138.32 216.75 156.12 173.75 174.15 131.75 110.07 149.29 84.7"/><polygon points="179.93 165.75 194.51 149.69 216.75 156.12 203.65 233.66 207.36 261.67 189.82 267.06 193.03 233.66 179.93 165.75"/><polygon points="175.49 83.22 200.69 87.92 207.36 133.88 178.45 142.53 179.69 123.75 175.49 83.22"/><polygon points="149.29 84.7 139.9 117.65 120.88 116.79 133.23 87.18 149.29 84.7"/><polygon points="173.75 233.66 165.35 230.66 155.31 241.2 160.74 250.1 166.88 251.08 173.75 233.66"/><polygon points="129.9 260.78 134.71 270.01 128.45 279.25 127.3 280.24 120.88 268.49 122.23 257.43 129.9 260.78"/><polygon points="61.57 260.78 69.81 268.49 66.68 278.1 58.17 279.25 52.31 271.68 55.64 261.03 61.57 260.78"/><polygon class="cls-4" points="60.56 261.03 65.03 269.53 61.57 275.96 52.84 269.2 55.64 261.03 60.56 261.03"/><polygon class="cls-5" points="47.9 248.78 48.72 255.86 52.84 262.94 101.6 250.84 119.23 261.79 133.23 261.46 133.97 253.97 124.83 243.67 174.74 230.99 174.74 224.85 83.73 227.2 63.38 229.5 86.94 243.18 47.9 248.78"/><polygon class="cls-6" points="47.9 248.78 90.85 238.03 68.49 227.53 114.53 229.5 174.74 218.63 174.74 224.85 122.23 240.75 133.97 253.97 118.28 254.83 101.99 245.14 51.44 257.43 47.9 248.78"/><polygon class="cls-7" points="165.48 210.97 164.24 224.85 171.9 222.59 175.49 200.84 165.48 210.97"/><polygon class="cls-7" points="118.28 229.5 118.28 250.51 122.48 252.11 125.2 252.11 126.19 229.5 118.28 229.5"/><polygon class="cls-7" points="52.31 228.64 55.27 252.85 60.46 252.85 61.57 228.64 52.31 228.64"/><polygon class="cls-8" points="184.88 119.63 181.99 182.56 183.43 188.16 150.69 221.1 105.64 225.47 117.91 137.42 184.88 119.63"/><polygon class="cls-9" points="64.78 139.56 119.64 116.33 151.02 116.33 184.88 119.63 142.13 141.29 64.78 139.56"/><polygon class="cls-10" points="155.66 144.01 165.29 134.06 177.09 133.69 175.67 155.19 165.54 161.47 158.62 155.19 155.66 144.01"/><polygon class="cls-11" points="52.84 172.18 64.78 139.56 142.13 141.29 119.39 173.17 52.84 172.18"/><polygon class="cls-12" points="45.76 220.12 52.84 172.18 119.39 173.17 120.88 223.23 49.38 224.85 45.76 220.12"/><polygon class="cls-13" points="59.84 166.99 68.12 144.01 129.9 145.24 115.56 168.72 59.84 166.99"/><polygon class="cls-13" points="53.99 209.9 57.45 188.16 108.69 188.16 109.51 209.9 53.99 209.9"/><polygon class="cls-14" points="57.45 188.16 56.78 192.37 108.85 192.37 108.69 188.16 57.45 188.16"/><polygon class="cls-14" points="84.71 148.02 103.11 148.4 103.26 152.02 84.84 151.23 84.71 148.02"/><polygon class="cls-14" points="105.64 154.3 109.51 154.3 109.51 157.93 105.64 157.68 105.64 154.3"/><polygon class="cls-14" points="105.64 159.16 109.51 159.58 109.51 162.38 105.64 161.88 105.64 159.16"/><polygon class="cls-14" points="112.47 154.3 116.59 154.88 116.59 157.93 112.47 157.52 112.47 154.3"/><polygon class="cls-14" points="112.47 159.74 116.59 160.32 116.59 163.2 112.47 162.38 112.47 159.74"/><polygon class="cls-14" points="68.74 149.91 80.33 150.32 78.05 161.13 65.93 160.27 68.74 149.91"/><polygon points="82.16 153.73 103.17 154.3 103.17 156.12 82.16 155.33 82.16 153.73"/><polygon points="82.16 156.73 103.17 157.31 103.17 159.12 82.16 158.34 82.16 156.73"/><polygon points="82.16 159.94 103.17 160.52 103.17 162.33 82.16 161.55 82.16 159.94"/><polygon class="cls-15" points="42.96 218.63 84.71 221.76 124.5 219.46 123.68 231.81 120.55 231.81 73.13 231.81 42.96 229.34 42.96 218.63"/><polygon class="cls-16" points="124.5 219.46 152.5 212.8 181.99 185.03 181.99 182.56 186.93 184.2 186.93 192.93 152.83 225.22 123.68 231.81 124.5 219.46"/><polygon class="cls-17" points="127.47 136.1 144.27 136.1 164.53 122.43 142.79 122.43 123.02 136.1 127.47 136.1"/><polygon class="cls-17" points="96.17 136.1 112.97 136.1 133.23 122.43 114.53 122.43 88.75 136.1 96.17 136.1"/><polygon points="58.17 196.6 91.77 196.96 91.78 198.77 58.18 198.21 58.17 196.6"/><polygon points="58.19 199.61 91.79 199.97 91.8 201.78 58.2 201.22 58.19 199.61"/><polygon points="58.21 202.82 91.81 203.17 91.82 204.99 58.22 204.42 58.21 202.82"/><polygon points="94.84 196.88 106.02 196.99 106.1 198.8 94.91 198.49 94.84 196.88"/><polygon points="94.97 199.88 106.15 199.99 106.23 201.8 95.03 201.49 94.97 199.88"/><polygon points="95.1 203.09 106.28 203.19 106.36 205 95.17 204.69 95.1 203.09"/><path class="cls-18" d="M166.35,147.75l-0.44-3.53,3.7-2.39h4.86l1-5.73-8.63.36-7.4,7.76,2.25,9.61,4.57,4.42,7.9-5,0.44-8.27-4.57-.8Zm5.66,0.82v2.71l-2.68,2-1.16-2,2.25-3.07Z"/><polygon class="cls-4" points="124.5 261.67 127.3 280.24 122.23 280.24 114.53 270.95 119.23 261.79 124.5 261.67"/><polygon class="cls-4" points="166.88 233.66 160.74 241.2 166.88 251.08 177.09 245.81 173.75 233.66 166.88 233.66"/><polygon points="129.9 70.62 137.19 58.02 136.2 48.22 148.3 39.12 167.66 44.8 168.92 66.42 150.69 80.75 141.45 70.62 129.9 70.62"/></svg>