<svg id="Layer_1" data-name="Layer 1" xmlns="http://www.w3.org/2000/svg" viewBox="0 0 288 288"><defs><style>.cls-1{fill:#c6beb5;}.cls-2{fill:#e2dfd9;}.cls-3,.cls-4{fill:#918b86;}.cls-3{opacity:0.2;}.cls-5{fill:#878787;}.cls-6{fill:#bdfff5;opacity:0.16;}.cls-7{fill:#939393;}.cls-8{fill:#fff;opacity:0.29;}.cls-9{fill:#bbbcbc;}.cls-10{fill:#707070;}.cls-11{fill:#3f3f3f;}.cls-12{fill:#232323;}.cls-13{opacity:0.17;}.cls-14{fill:#a32d16;}.cls-15{fill:#e8461e;}.cls-16{opacity:0.46;}</style></defs><title>bookpics</title><polygon class="cls-1" points="190.34 221.93 209.04 223.78 227.41 222.86 216.06 246.19 186.29 237.43 190.34 221.93"/><polygon class="cls-2" points="103.94 66.03 76.54 109.18 59.69 152.47 53.63 183.06 57.67 204.63 73.23 230.24 145.97 247.09 200.78 250.01 216.06 246.19 192.47 225.97 189.1 197.84 200.34 163.07 235.83 109.18 267.51 96.56 243.7 73.2 209.55 57.02 165.06 52.53 103.94 66.03"/><polygon class="cls-1" points="70.03 190.03 93.31 200.36 124.85 206.01 158.32 203.28 163.04 227.1 130.69 230.24 98.8 224.18 75.64 215.87 68.9 196.09 70.03 190.03"/><polygon class="cls-1" points="194.94 157.23 181.46 153.86 160.01 142.85 132.13 137.43 107.1 141.05 101.64 136.68 77.78 134.09 71.38 159.02 90.02 163.52 93.69 167.91 113.23 163.97 137.1 164.94 152.03 168.68 160.01 175.03 174.8 177.78 187.08 179.69 194.94 157.23"/><polygon class="cls-1" points="112.52 110.72 134.68 104.88 166.86 107.8 205.5 128.69 194.49 148.24 181.46 144.48 181.1 149.08 160.01 132.29 130.46 129.14 108 128.02 112.52 110.72"/><polygon class="cls-1" points="96.54 86.01 90.02 105.1 130.24 95.02 165.06 92.35 196.97 103.08 217.41 115.66 232.01 100.83 252.23 92.07 221.9 69.38 187.08 59.94 136.75 66.03 98.8 77.02 96.54 86.01"/><polygon class="cls-3" points="57.67 204.63 96.99 158.57 134.68 137.93 193.37 119.14 235.83 109.18 267.51 96.56 243.7 73.2 209.55 57.02 165.06 52.53 103.94 66.03 76.54 109.18 59.69 152.47 53.63 183.06 57.67 204.63"/><polygon class="cls-4" points="100.35 142.36 87.89 140.73 86.58 144.26 98.24 145.78 100.35 142.36"/><polygon class="cls-4" points="91.15 153.18 85.08 152.41 83.47 155.11 90.02 156.08 91.15 153.18"/><polygon class="cls-4" points="184.78 160.13 188.97 162.07 187.08 164.38 184.78 163.46 184.78 160.13"/><polygon class="cls-4" points="179.06 168.7 184.78 170.85 181.92 173.33 177.7 171.71 179.06 168.7"/><polygon class="cls-4" points="100.75 153.02 108.48 151.49 138.1 149.86 161.5 155.44 176.32 166.27 172.65 167.83 159.21 158.29 136.87 152.95 100.35 155.56 100.75 153.02"/><polygon class="cls-4" points="104.41 145.25 112.14 143.72 141.75 142.09 165.15 147.67 179.98 158.5 176.31 160.06 162.87 150.52 140.53 145.18 104.01 147.79 104.41 145.25"/><polygon class="cls-5" points="93.69 167.91 113.16 137.91 141.7 126.9 154.28 126.9 181.46 135.66 174.72 126.9 156.97 122.18 135.18 121.05 107.55 131.84 90.02 157.45 93.69 167.91"/><polygon class="cls-6" points="92.05 149.76 109.46 129.93 141.92 117.14 165.06 122.18 181.46 133.45 181.46 151.16 181.46 155.43 164.05 174.41 131.43 187.79 91.15 175.2 87.89 158.24 92.05 149.76"/><polygon class="cls-7" points="91.15 177.9 95.64 184.86 126.87 196.09 170.46 183.06 187.08 162.84 187.08 154.31 181.46 155.43 165.74 173.85 151.58 176.77 126.42 184.64 91.15 177.9"/><polygon class="cls-8" points="145.07 121.05 123.05 148.91 111.61 178.17 128.89 183.06 141.92 154.31 165.06 122.18 145.07 121.05"/><polygon class="cls-8" points="173.6 126.67 152.03 155.88 143.72 179.69 146.41 179.69 154.5 156.55 176.3 127.57 173.6 126.67"/><path class="cls-9" d="M183.93,132.51l-13.26-12.13-31.9-3.59L108,128,85.08,159.25l6.07,18.65,37.52,10.78,40.67-13,17.75-21.34ZM164.16,171.6l-35.27,11.46L94.74,173.4,92,159.25l16.85-25.39,33.25-11.68,25.16,2.47,12.58,8.76,1.57,20.44Z"/><polygon class="cls-10" points="85.08 168.68 91.15 183.06 81.15 186.88 73.23 173.23 85.08 168.68"/><polygon class="cls-11" points="71.38 175.2 77.78 186.88 31.1 214.18 33.8 203.56 21.33 197.84 30.93 191.26 71.38 175.2"/><polygon class="cls-12" points="21.33 197.84 20.49 209.29 31.1 214.18 33.8 203.56 21.33 197.84"/><polygon class="cls-4" points="124.28 73.65 136.08 70.95 181.46 67.08 217.63 74.56 240.89 90.5 235.33 93.05 214.26 79.04 179.72 71.88 123.8 77.58 124.28 73.65"/><polygon class="cls-4" points="121.09 81.06 163.04 76.85 178.04 76.85 199.94 81.06 198.26 83.81 176.3 80.33 162.37 80.33 121.09 83.81 121.09 81.06"/><path class="cls-4" d="M121.09,87.8c1.51,0.67,41.95-4,41.95-4l12.47,2-1.52,2-11-.27-41.1,4.59Z"/><polygon class="cls-4" points="186.29 87.8 199.94 90.67 222.19 103.98 217.47 107.52 199.94 96.23 184.78 89.99 186.29 87.8"/><polygon class="cls-13" points="94.64 84.78 95.03 87.6 93.77 93.52 99.89 96.73 99.89 99.25 109.6 100.91 109.6 105.37 113.59 109.61 118.73 106.25 120.58 99.25 126.7 97.19 127.38 89.25 133.16 82.43 94.64 84.78"/><polygon class="cls-14" points="110.78 99.66 111.01 105.46 113.8 109.18 117.93 105.76 119.93 98.87 125.8 96.5 126.62 89.47 133.16 82.43 127.65 75.34 127.13 69.17 116.24 68.01 107.99 66.03 106.53 69.81 101.39 70.29 97.11 76.35 93.31 78.45 93.64 84.25 96.6 87.99 94.67 92.86 101.02 95.13 101.71 98.43 110.78 99.66"/><polygon class="cls-15" points="98.8 82.29 102.08 73.67 114.99 71.88 126.35 79.23 126.25 87.28 121.94 92.19 113.13 95.02 101.54 92.85 98.8 82.29"/><polygon class="cls-16" points="103.94 79.35 107.45 74.56 115.14 75.46 121.09 78.76 115.23 82.48 119.68 84.02 113.92 84.03 106.98 93.05 109.4 86.95 111.61 83.47 106.02 82.88 112.58 81.89 116.22 78.87 107.74 76.86 103.94 79.35"/><polygon class="cls-4" points="156.37 211.46 122.72 213.31 97.49 210.39 75.59 203.04 75.19 198.7 99.73 206.68 123.5 209.43 156.3 207.63 156.37 211.46"/><polygon class="cls-4" points="155.88 219.07 124.38 221.48 99.15 218.56 77.78 211.39 76.85 206.88 101.39 214.85 125.16 217.6 156.06 215.91 155.88 219.07"/><polygon class="cls-4" points="115.36 112.1 138.33 109.61 158.13 112.06 177.22 117.73 200.08 130.05 197.12 131.47 175.51 119.43 142.34 113.08 115.01 114.5 115.36 112.1"/></svg>